<?xml version="1.0" encoding="utf-8" standalone="no"?>
<!DOCTYPE svg PUBLIC "-//W3C//DTD SVG 1.1//EN"
  "http://www.w3.org/Graphics/SVG/1.1/DTD/svg11.dtd">
<!-- Created with matplotlib (https://matplotlib.org/) -->
<svg height="576pt" version="1.1" viewBox="0 0 1728 576" width="1728pt" xmlns="http://www.w3.org/2000/svg" xmlns:xlink="http://www.w3.org/1999/xlink">
 <defs>
  <style type="text/css">
*{stroke-linecap:butt;stroke-linejoin:round;}
  </style>
 </defs>
 <g id="figure_1">
  <g id="patch_1">
   <path d="M 0 576 
L 1728 576 
L 1728 0 
L 0 0 
z
" style="fill:none;"/>
  </g>
  <g id="axes_1">
   <g id="patch_2">
    <path d="M 17.28 262.341818 
L 385.41913 262.341818 
L 385.41913 5.76 
L 17.28 5.76 
z
" style="fill:none;"/>
   </g>
   <g id="PathCollection_1">
    <defs>
     <path d="M 0 3 
C 0.795609 3 1.55874 2.683901 2.12132 2.12132 
C 2.683901 1.55874 3 0.795609 3 0 
C 3 -0.795609 2.683901 -1.55874 2.12132 -2.12132 
C 1.55874 -2.683901 0.795609 -3 0 -3 
C -0.795609 -3 -1.55874 -2.683901 -2.12132 -2.12132 
C -2.683901 -1.55874 -3 -0.795609 -3 0 
C -3 0.795609 -2.683901 1.55874 -2.12132 2.12132 
C -1.55874 2.683901 -0.795609 3 0 3 
z
" id="m36f158fecf" style="stroke:#000000;"/>
    </defs>
    <g clip-path="url(#pdf394b5917)">
     <use style="fill:#808080;stroke:#000000;" x="34.013597" xlink:href="#m36f158fecf" y="165.008146"/>
     <use style="fill:#808080;stroke:#000000;" x="37.394121" xlink:href="#m36f158fecf" y="182.630494"/>
     <use style="fill:#808080;stroke:#000000;" x="40.774646" xlink:href="#m36f158fecf" y="166.072433"/>
     <use style="fill:#808080;stroke:#000000;" x="44.155171" xlink:href="#m36f158fecf" y="159.773935"/>
     <use style="fill:#808080;stroke:#000000;" x="47.535695" xlink:href="#m36f158fecf" y="117.690355"/>
     <use style="fill:#808080;stroke:#000000;" x="50.91622" xlink:href="#m36f158fecf" y="153.461275"/>
     <use style="fill:#808080;stroke:#000000;" x="54.296745" xlink:href="#m36f158fecf" y="83.506434"/>
     <use style="fill:#808080;stroke:#000000;" x="57.677269" xlink:href="#m36f158fecf" y="113.557935"/>
     <use style="fill:#808080;stroke:#000000;" x="61.057794" xlink:href="#m36f158fecf" y="92.441545"/>
     <use style="fill:#808080;stroke:#000000;" x="64.438318" xlink:href="#m36f158fecf" y="98.396093"/>
     <use style="fill:#808080;stroke:#000000;" x="67.818843" xlink:href="#m36f158fecf" y="72.791094"/>
     <use style="fill:#808080;stroke:#000000;" x="71.199368" xlink:href="#m36f158fecf" y="127.719324"/>
     <use style="fill:#808080;stroke:#000000;" x="74.579892" xlink:href="#m36f158fecf" y="106.388502"/>
     <use style="fill:#808080;stroke:#000000;" x="77.960417" xlink:href="#m36f158fecf" y="113.957606"/>
     <use style="fill:#808080;stroke:#000000;" x="81.340941" xlink:href="#m36f158fecf" y="99.702318"/>
     <use style="fill:#808080;stroke:#000000;" x="84.721466" xlink:href="#m36f158fecf" y="142.857485"/>
     <use style="fill:#808080;stroke:#000000;" x="88.101991" xlink:href="#m36f158fecf" y="139.845229"/>
     <use style="fill:#808080;stroke:#000000;" x="91.482515" xlink:href="#m36f158fecf" y="161.80708"/>
     <use style="fill:#808080;stroke:#000000;" x="94.86304" xlink:href="#m36f158fecf" y="159.662467"/>
     <use style="fill:#808080;stroke:#000000;" x="98.243564" xlink:href="#m36f158fecf" y="162.89626"/>
     <use style="fill:#808080;stroke:#000000;" x="101.624089" xlink:href="#m36f158fecf" y="198.609397"/>
     <use style="fill:#808080;stroke:#000000;" x="105.004614" xlink:href="#m36f158fecf" y="174.545908"/>
     <use style="fill:#808080;stroke:#000000;" x="108.385138" xlink:href="#m36f158fecf" y="186.12951"/>
     <use style="fill:#808080;stroke:#000000;" x="111.765663" xlink:href="#m36f158fecf" y="198.221476"/>
     <use style="fill:#808080;stroke:#000000;" x="115.146188" xlink:href="#m36f158fecf" y="196.33098"/>
     <use style="fill:#808080;stroke:#000000;" x="118.526712" xlink:href="#m36f158fecf" y="221.774251"/>
     <use style="fill:#808080;stroke:#000000;" x="121.907237" xlink:href="#m36f158fecf" y="212.812193"/>
     <use style="fill:#808080;stroke:#000000;" x="125.287761" xlink:href="#m36f158fecf" y="221.944728"/>
     <use style="fill:#808080;stroke:#000000;" x="128.668286" xlink:href="#m36f158fecf" y="206.609913"/>
     <use style="fill:#808080;stroke:#000000;" x="132.048811" xlink:href="#m36f158fecf" y="187.094112"/>
     <use style="fill:#808080;stroke:#000000;" x="135.429335" xlink:href="#m36f158fecf" y="195.704453"/>
     <use style="fill:#808080;stroke:#000000;" x="138.80986" xlink:href="#m36f158fecf" y="179.911318"/>
     <use style="fill:#808080;stroke:#000000;" x="142.190384" xlink:href="#m36f158fecf" y="171.428155"/>
     <use style="fill:#808080;stroke:#000000;" x="145.570909" xlink:href="#m36f158fecf" y="159.921911"/>
     <use style="fill:#808080;stroke:#000000;" x="148.951434" xlink:href="#m36f158fecf" y="142.82995"/>
     <use style="fill:#808080;stroke:#000000;" x="152.331958" xlink:href="#m36f158fecf" y="118.313503"/>
     <use style="fill:#808080;stroke:#000000;" x="155.712483" xlink:href="#m36f158fecf" y="120.375397"/>
     <use style="fill:#808080;stroke:#000000;" x="159.093008" xlink:href="#m36f158fecf" y="86.468254"/>
     <use style="fill:#808080;stroke:#000000;" x="162.473532" xlink:href="#m36f158fecf" y="52.58041"/>
     <use style="fill:#808080;stroke:#000000;" x="165.854057" xlink:href="#m36f158fecf" y="55.174229"/>
     <use style="fill:#808080;stroke:#000000;" x="169.234581" xlink:href="#m36f158fecf" y="59.850424"/>
     <use style="fill:#808080;stroke:#000000;" x="172.615106" xlink:href="#m36f158fecf" y="63.093224"/>
     <use style="fill:#808080;stroke:#000000;" x="175.995631" xlink:href="#m36f158fecf" y="56.184349"/>
     <use style="fill:#808080;stroke:#000000;" x="179.376155" xlink:href="#m36f158fecf" y="17.42281"/>
     <use style="fill:#808080;stroke:#000000;" x="182.75668" xlink:href="#m36f158fecf" y="42.109877"/>
     <use style="fill:#808080;stroke:#000000;" x="186.137204" xlink:href="#m36f158fecf" y="55.059339"/>
     <use style="fill:#808080;stroke:#000000;" x="189.517729" xlink:href="#m36f158fecf" y="47.779392"/>
     <use style="fill:#808080;stroke:#000000;" x="192.898254" xlink:href="#m36f158fecf" y="26.57163"/>
     <use style="fill:#808080;stroke:#000000;" x="196.278778" xlink:href="#m36f158fecf" y="65.387105"/>
     <use style="fill:#808080;stroke:#000000;" x="199.659303" xlink:href="#m36f158fecf" y="68.873287"/>
     <use style="fill:#808080;stroke:#000000;" x="203.039828" xlink:href="#m36f158fecf" y="85.793378"/>
     <use style="fill:#808080;stroke:#000000;" x="206.420352" xlink:href="#m36f158fecf" y="108.594767"/>
     <use style="fill:#808080;stroke:#000000;" x="209.800877" xlink:href="#m36f158fecf" y="133.895108"/>
     <use style="fill:#808080;stroke:#000000;" x="213.181401" xlink:href="#m36f158fecf" y="135.553693"/>
     <use style="fill:#808080;stroke:#000000;" x="216.561926" xlink:href="#m36f158fecf" y="146.507683"/>
     <use style="fill:#808080;stroke:#000000;" x="219.942451" xlink:href="#m36f158fecf" y="146.808208"/>
     <use style="fill:#808080;stroke:#000000;" x="223.322975" xlink:href="#m36f158fecf" y="153.946387"/>
     <use style="fill:#808080;stroke:#000000;" x="226.7035" xlink:href="#m36f158fecf" y="161.854716"/>
     <use style="fill:#808080;stroke:#000000;" x="230.084024" xlink:href="#m36f158fecf" y="178.856445"/>
     <use style="fill:#808080;stroke:#000000;" x="233.464549" xlink:href="#m36f158fecf" y="175.124102"/>
     <use style="fill:#808080;stroke:#000000;" x="236.845074" xlink:href="#m36f158fecf" y="202.510466"/>
     <use style="fill:#808080;stroke:#000000;" x="240.225598" xlink:href="#m36f158fecf" y="173.073754"/>
     <use style="fill:#808080;stroke:#000000;" x="243.606123" xlink:href="#m36f158fecf" y="182.262769"/>
     <use style="fill:#808080;stroke:#000000;" x="246.986648" xlink:href="#m36f158fecf" y="190.211525"/>
     <use style="fill:#808080;stroke:#000000;" x="250.367172" xlink:href="#m36f158fecf" y="172.170121"/>
     <use style="fill:#808080;stroke:#000000;" x="253.747697" xlink:href="#m36f158fecf" y="172.382935"/>
     <use style="fill:#808080;stroke:#000000;" x="257.128221" xlink:href="#m36f158fecf" y="144.54377"/>
     <use style="fill:#808080;stroke:#000000;" x="260.508746" xlink:href="#m36f158fecf" y="127.672566"/>
     <use style="fill:#808080;stroke:#000000;" x="263.889271" xlink:href="#m36f158fecf" y="105.796233"/>
     <use style="fill:#808080;stroke:#000000;" x="267.269795" xlink:href="#m36f158fecf" y="146.894949"/>
     <use style="fill:#808080;stroke:#000000;" x="270.65032" xlink:href="#m36f158fecf" y="135.240674"/>
     <use style="fill:#808080;stroke:#000000;" x="274.030844" xlink:href="#m36f158fecf" y="109.301491"/>
     <use style="fill:#808080;stroke:#000000;" x="277.411369" xlink:href="#m36f158fecf" y="88.353749"/>
     <use style="fill:#808080;stroke:#000000;" x="280.791894" xlink:href="#m36f158fecf" y="67.923737"/>
     <use style="fill:#808080;stroke:#000000;" x="284.172418" xlink:href="#m36f158fecf" y="68.20331"/>
     <use style="fill:#808080;stroke:#000000;" x="287.552943" xlink:href="#m36f158fecf" y="96.976651"/>
     <use style="fill:#808080;stroke:#000000;" x="290.933467" xlink:href="#m36f158fecf" y="67.446647"/>
     <use style="fill:#808080;stroke:#000000;" x="294.313992" xlink:href="#m36f158fecf" y="48.989237"/>
     <use style="fill:#808080;stroke:#000000;" x="297.694517" xlink:href="#m36f158fecf" y="58.874373"/>
     <use style="fill:#808080;stroke:#000000;" x="301.075041" xlink:href="#m36f158fecf" y="54.400568"/>
     <use style="fill:#808080;stroke:#000000;" x="304.455566" xlink:href="#m36f158fecf" y="75.005209"/>
     <use style="fill:#808080;stroke:#000000;" x="307.836091" xlink:href="#m36f158fecf" y="82.897398"/>
     <use style="fill:#808080;stroke:#000000;" x="311.216615" xlink:href="#m36f158fecf" y="87.417742"/>
     <use style="fill:#808080;stroke:#000000;" x="314.59714" xlink:href="#m36f158fecf" y="96.18869"/>
     <use style="fill:#808080;stroke:#000000;" x="317.977664" xlink:href="#m36f158fecf" y="112.92073"/>
     <use style="fill:#808080;stroke:#000000;" x="321.358189" xlink:href="#m36f158fecf" y="128.751365"/>
     <use style="fill:#808080;stroke:#000000;" x="324.738714" xlink:href="#m36f158fecf" y="155.839928"/>
     <use style="fill:#808080;stroke:#000000;" x="328.119238" xlink:href="#m36f158fecf" y="155.704056"/>
     <use style="fill:#808080;stroke:#000000;" x="331.499763" xlink:href="#m36f158fecf" y="174.795853"/>
     <use style="fill:#808080;stroke:#000000;" x="334.880287" xlink:href="#m36f158fecf" y="174.350942"/>
     <use style="fill:#808080;stroke:#000000;" x="338.260812" xlink:href="#m36f158fecf" y="186.818217"/>
     <use style="fill:#808080;stroke:#000000;" x="341.641337" xlink:href="#m36f158fecf" y="213.982413"/>
     <use style="fill:#808080;stroke:#000000;" x="345.021861" xlink:href="#m36f158fecf" y="232.57716"/>
     <use style="fill:#808080;stroke:#000000;" x="348.402386" xlink:href="#m36f158fecf" y="244.666408"/>
     <use style="fill:#808080;stroke:#000000;" x="351.782911" xlink:href="#m36f158fecf" y="234.693965"/>
     <use style="fill:#808080;stroke:#000000;" x="355.163435" xlink:href="#m36f158fecf" y="243.347775"/>
     <use style="fill:#808080;stroke:#000000;" x="358.54396" xlink:href="#m36f158fecf" y="250.679008"/>
     <use style="fill:#808080;stroke:#000000;" x="361.924484" xlink:href="#m36f158fecf" y="243.532229"/>
     <use style="fill:#808080;stroke:#000000;" x="365.305009" xlink:href="#m36f158fecf" y="249.78394"/>
     <use style="fill:#808080;stroke:#000000;" x="368.685534" xlink:href="#m36f158fecf" y="224.355143"/>
    </g>
   </g>
   <g id="matplotlib.axis_1"/>
   <g id="matplotlib.axis_2"/>
   <g id="line2d_1">
    <path clip-path="url(#pdf394b5917)" d="M 34.013597 131.576599 
L 37.394121 131.576599 
L 40.774646 131.576599 
L 44.155171 131.576599 
L 47.535695 131.576599 
L 50.91622 131.576599 
L 54.296745 131.576599 
L 57.677269 131.576599 
L 61.057794 131.576599 
L 64.438318 131.576599 
L 67.818843 131.576599 
L 71.199368 131.576599 
L 74.579892 131.576599 
L 77.960417 131.576599 
L 81.340941 131.576599 
L 84.721466 131.576599 
L 88.101991 165.201366 
L 91.482515 165.201366 
L 94.86304 165.201366 
L 98.243564 165.201366 
L 101.624089 165.201366 
L 105.004614 165.201366 
L 108.385138 165.201366 
L 111.765663 165.201366 
L 115.146188 165.201366 
L 118.526712 165.201366 
L 121.907237 165.201366 
L 125.287761 165.201366 
L 128.668286 165.201366 
L 132.048811 165.201366 
L 135.429335 165.201366 
L 138.80986 165.201366 
L 142.190384 165.201366 
L 145.570909 165.201366 
L 148.951434 165.201366 
L 152.331958 165.201366 
L 155.712483 165.201366 
L 159.093008 165.201366 
L 162.473532 165.201366 
L 165.854057 165.201366 
L 169.234581 165.201366 
L 172.615106 165.201366 
L 175.995631 165.201366 
L 179.376155 165.201366 
L 182.75668 165.201366 
L 186.137204 165.201366 
L 189.517729 165.201366 
L 192.898254 165.201366 
L 196.278778 165.201366 
L 199.659303 165.201366 
L 203.039828 165.201366 
L 206.420352 165.201366 
L 209.800877 165.201366 
L 213.181401 165.201366 
L 216.561926 165.201366 
L 219.942451 165.201366 
L 223.322975 165.201366 
L 226.7035 165.201366 
L 230.084024 165.201366 
L 233.464549 165.201366 
L 236.845074 165.201366 
L 240.225598 165.201366 
L 243.606123 165.201366 
L 246.986648 165.201366 
L 250.367172 165.201366 
L 253.747697 165.201366 
L 257.128221 165.201366 
L 260.508746 83.02881 
L 263.889271 83.02881 
L 267.269795 83.02881 
L 270.65032 83.02881 
L 274.030844 83.02881 
L 277.411369 83.02881 
L 280.791894 83.02881 
L 284.172418 83.02881 
L 287.552943 83.02881 
L 290.933467 83.02881 
L 294.313992 83.02881 
L 297.694517 83.02881 
L 301.075041 83.02881 
L 304.455566 83.02881 
L 307.836091 83.02881 
L 311.216615 83.02881 
L 314.59714 83.02881 
L 317.977664 83.02881 
L 321.358189 168.477211 
L 324.738714 168.477211 
L 328.119238 168.477211 
L 331.499763 168.477211 
L 334.880287 168.477211 
L 338.260812 186.818217 
L 341.641337 213.982413 
L 345.021861 213.982413 
L 348.402386 248.52563 
L 351.782911 248.52563 
L 355.163435 248.52563 
L 358.54396 248.52563 
L 361.924484 248.52563 
L 365.305009 248.52563 
L 368.685534 224.355143 
" style="fill:none;stroke:#0000ff;stroke-linecap:square;stroke-width:3;"/>
   </g>
   <g id="patch_3">
    <path d="M 17.28 262.341818 
L 17.28 5.76 
" style="fill:none;stroke:#000000;stroke-linecap:square;stroke-linejoin:miter;stroke-width:0.8;"/>
   </g>
   <g id="patch_4">
    <path d="M 17.28 262.341818 
L 385.41913 262.341818 
" style="fill:none;stroke:#000000;stroke-linecap:square;stroke-linejoin:miter;stroke-width:0.8;"/>
   </g>
  </g>
 </g>
 <defs>
  <clipPath id="pdf394b5917">
   <rect height="256.581818" width="368.13913" x="17.28" y="5.76"/>
  </clipPath>
 </defs>
</svg>
