<?xml version="1.0" encoding="utf-8" standalone="no"?>
<!DOCTYPE svg PUBLIC "-//W3C//DTD SVG 1.1//EN"
  "http://www.w3.org/Graphics/SVG/1.1/DTD/svg11.dtd">
<!-- Created with matplotlib (https://matplotlib.org/) -->
<svg height="576pt" version="1.1" viewBox="0 0 1728 576" width="1728pt" xmlns="http://www.w3.org/2000/svg" xmlns:xlink="http://www.w3.org/1999/xlink">
 <defs>
  <style type="text/css">
*{stroke-linecap:butt;stroke-linejoin:round;}
  </style>
 </defs>
 <g id="figure_1">
  <g id="patch_1">
   <path d="M 0 576 
L 1728 576 
L 1728 0 
L 0 0 
z
" style="fill:none;"/>
  </g>
  <g id="axes_1">
   <g id="patch_2">
    <path d="M 17.28 262.341818 
L 385.41913 262.341818 
L 385.41913 5.76 
L 17.28 5.76 
z
" style="fill:none;"/>
   </g>
   <g id="PathCollection_1">
    <path clip-path="url(#p5a9fbe2669)" d="M 34.013597 168.324771 
C 34.893176 168.324771 35.736848 167.97531 36.358805 167.353354 
C 36.980761 166.731398 37.330222 165.887725 37.330222 165.008146 
C 37.330222 164.128567 36.980761 163.284895 36.358805 162.662938 
C 35.736848 162.040982 34.893176 161.691521 34.013597 161.691521 
C 33.134018 161.691521 32.290345 162.040982 31.668389 162.662938 
C 31.046433 163.284895 30.696972 164.128567 30.696972 165.008146 
C 30.696972 165.887725 31.046433 166.731398 31.668389 167.353354 
C 32.290345 167.97531 33.134018 168.324771 34.013597 168.324771 
z
" style="fill:#808080;stroke:#000000;"/>
    <path clip-path="url(#p5a9fbe2669)" d="M 37.394121 186.7536 
C 38.487582 186.7536 39.536404 186.319164 40.309597 185.54597 
C 41.082791 184.772777 41.517227 183.723955 41.517227 182.630494 
C 41.517227 181.537034 41.082791 180.488212 40.309597 179.715018 
C 39.536404 178.941825 38.487582 178.507389 37.394121 178.507389 
C 36.300661 178.507389 35.251839 178.941825 34.478646 179.715018 
C 33.705452 180.488212 33.271016 181.537034 33.271016 182.630494 
C 33.271016 183.723955 33.705452 184.772777 34.478646 185.54597 
C 35.251839 186.319164 36.300661 186.7536 37.394121 186.7536 
z
" style="fill:#808080;stroke:#000000;"/>
    <path clip-path="url(#p5a9fbe2669)" d="M 40.774646 169.463598 
C 41.673994 169.463598 42.536627 169.106284 43.172562 168.470349 
C 43.808497 167.834414 44.165811 166.971781 44.165811 166.072433 
C 44.165811 165.173086 43.808497 164.310452 43.172562 163.674518 
C 42.536627 163.038583 41.673994 162.681268 40.774646 162.681268 
C 39.875299 162.681268 39.012665 163.038583 38.37673 163.674518 
C 37.740796 164.310452 37.383481 165.173086 37.383481 166.072433 
C 37.383481 166.971781 37.740796 167.834414 38.37673 168.470349 
C 39.012665 169.106284 39.875299 169.463598 40.774646 169.463598 
z
" style="fill:#808080;stroke:#000000;"/>
    <path clip-path="url(#p5a9fbe2669)" d="M 44.155171 162.815316 
C 44.961754 162.815316 45.735411 162.494857 46.305752 161.924516 
C 46.876093 161.354176 47.196552 160.580519 47.196552 159.773935 
C 47.196552 158.967351 46.876093 158.193695 46.305752 157.623354 
C 45.735411 157.053013 44.961754 156.732554 44.155171 156.732554 
C 43.348587 156.732554 42.57493 157.053013 42.004589 157.623354 
C 41.434249 158.193695 41.113789 158.967351 41.113789 159.773935 
C 41.113789 160.580519 41.434249 161.354176 42.004589 161.924516 
C 42.57493 162.494857 43.348587 162.815316 44.155171 162.815316 
z
" style="fill:#808080;stroke:#000000;"/>
    <path clip-path="url(#p5a9fbe2669)" d="M 47.535695 119.811676 
C 48.098276 119.811676 48.637891 119.58816 49.035695 119.190355 
C 49.4335 118.792551 49.657016 118.252936 49.657016 117.690355 
C 49.657016 117.127775 49.4335 116.58816 49.035695 116.190355 
C 48.637891 115.792551 48.098276 115.569035 47.535695 115.569035 
C 46.973115 115.569035 46.4335 115.792551 46.035695 116.190355 
C 45.637891 116.58816 45.414375 117.127775 45.414375 117.690355 
C 45.414375 118.252936 45.637891 118.792551 46.035695 119.190355 
C 46.4335 119.58816 46.973115 119.811676 47.535695 119.811676 
z
" style="fill:#808080;stroke:#000000;"/>
    <path clip-path="url(#p5a9fbe2669)" d="M 50.91622 156.153858 
C 51.630301 156.153858 52.315232 155.87015 52.820163 155.365219 
C 53.325095 154.860287 53.608802 154.175357 53.608802 153.461275 
C 53.608802 152.747194 53.325095 152.062264 52.820163 151.557332 
C 52.315232 151.0524 51.630301 150.768693 50.91622 150.768693 
C 50.202139 150.768693 49.517208 151.0524 49.012277 151.557332 
C 48.507345 152.062264 48.223638 152.747194 48.223638 153.461275 
C 48.223638 154.175357 48.507345 154.860287 49.012277 155.365219 
C 49.517208 155.87015 50.202139 156.153858 50.91622 156.153858 
z
" style="fill:#808080;stroke:#000000;"/>
    <path clip-path="url(#p5a9fbe2669)" d="M 54.296745 87.506434 
C 55.357557 87.506434 56.375064 87.084969 57.125172 86.334861 
C 57.875279 85.584754 58.296745 84.567247 58.296745 83.506434 
C 58.296745 82.445622 57.875279 81.428115 57.125172 80.678007 
C 56.375064 79.927899 55.357557 79.506434 54.296745 79.506434 
C 53.235932 79.506434 52.218425 79.927899 51.468317 80.678007 
C 50.71821 81.428115 50.296745 82.445622 50.296745 83.506434 
C 50.296745 84.567247 50.71821 85.584754 51.468317 86.334861 
C 52.218425 87.084969 53.235932 87.506434 54.296745 87.506434 
z
" style="fill:#808080;stroke:#000000;"/>
    <path clip-path="url(#p5a9fbe2669)" d="M 57.677269 116.007425 
C 58.326881 116.007425 58.949975 115.749331 59.40932 115.289986 
C 59.868665 114.830641 60.126759 114.207547 60.126759 113.557935 
C 60.126759 112.908323 59.868665 112.285229 59.40932 111.825884 
C 58.949975 111.366539 58.326881 111.108445 57.677269 111.108445 
C 57.027657 111.108445 56.404564 111.366539 55.945218 111.825884 
C 55.485873 112.285229 55.227779 112.908323 55.227779 113.557935 
C 55.227779 114.207547 55.485873 114.830641 55.945218 115.289986 
C 56.404564 115.749331 57.027657 116.007425 57.677269 116.007425 
z
" style="fill:#808080;stroke:#000000;"/>
    <path clip-path="url(#p5a9fbe2669)" d="M 61.057794 96.047097 
C 62.013997 96.047097 62.931166 95.667193 63.607304 94.991055 
C 64.283441 94.314917 64.663345 93.397749 64.663345 92.441545 
C 64.663345 91.485342 64.283441 90.568174 63.607304 89.892036 
C 62.931166 89.215898 62.013997 88.835994 61.057794 88.835994 
C 60.10159 88.835994 59.184422 89.215898 58.508284 89.892036 
C 57.832146 90.568174 57.452242 91.485342 57.452242 92.441545 
C 57.452242 93.397749 57.832146 94.314917 58.508284 94.991055 
C 59.184422 95.667193 60.10159 96.047097 61.057794 96.047097 
z
" style="fill:#808080;stroke:#000000;"/>
    <path clip-path="url(#p5a9fbe2669)" d="M 64.438318 101.712718 
C 65.317898 101.712718 66.16157 101.363257 66.783526 100.741301 
C 67.405483 100.119344 67.754943 99.275672 67.754943 98.396093 
C 67.754943 97.516514 67.405483 96.672841 66.783526 96.050885 
C 66.16157 95.428929 65.317898 95.079468 64.438318 95.079468 
C 63.558739 95.079468 62.715067 95.428929 62.09311 96.050885 
C 61.471154 96.672841 61.121694 97.516514 61.121694 98.396093 
C 61.121694 99.275672 61.471154 100.119344 62.09311 100.741301 
C 62.715067 101.363257 63.558739 101.712718 64.438318 101.712718 
z
" style="fill:#808080;stroke:#000000;"/>
    <path clip-path="url(#p5a9fbe2669)" d="M 67.818843 77.206975 
C 68.989948 77.206975 70.113246 76.74169 70.941342 75.913593 
C 71.769438 75.085497 72.234723 73.962199 72.234723 72.791094 
C 72.234723 71.619989 71.769438 70.496692 70.941342 69.668595 
C 70.113246 68.840499 68.989948 68.375214 67.818843 68.375214 
C 66.647738 68.375214 65.52444 68.840499 64.696344 69.668595 
C 63.868248 70.496692 63.402963 71.619989 63.402963 72.791094 
C 63.402963 73.962199 63.868248 75.085497 64.696344 75.913593 
C 65.52444 76.74169 66.647738 77.206975 67.818843 77.206975 
z
" style="fill:#808080;stroke:#000000;"/>
    <path clip-path="url(#p5a9fbe2669)" d="M 71.199368 128.837358 
C 71.495874 128.837358 71.780276 128.719555 71.989937 128.509894 
C 72.199598 128.300232 72.317402 128.01583 72.317402 127.719324 
C 72.317402 127.422818 72.199598 127.138416 71.989937 126.928755 
C 71.780276 126.719093 71.495874 126.60129 71.199368 126.60129 
C 70.902862 126.60129 70.61846 126.719093 70.408798 126.928755 
C 70.199137 127.138416 70.081334 127.422818 70.081334 127.719324 
C 70.081334 128.01583 70.199137 128.300232 70.408798 128.509894 
C 70.61846 128.719555 70.902862 128.837358 71.199368 128.837358 
z
" style="fill:#808080;stroke:#000000;"/>
    <path clip-path="url(#p5a9fbe2669)" d="M 74.579892 109.260784 
C 75.34163 109.260784 76.072272 108.958142 76.610902 108.419512 
C 77.149532 107.880882 77.452174 107.15024 77.452174 106.388502 
C 77.452174 105.626764 77.149532 104.896123 76.610902 104.357493 
C 76.072272 103.818863 75.34163 103.516221 74.579892 103.516221 
C 73.818154 103.516221 73.087513 103.818863 72.548883 104.357493 
C 72.010253 104.896123 71.707611 105.626764 71.707611 106.388502 
C 71.707611 107.15024 72.010253 107.880882 72.548883 108.419512 
C 73.087513 108.958142 73.818154 109.260784 74.579892 109.260784 
z
" style="fill:#808080;stroke:#000000;"/>
    <path clip-path="url(#p5a9fbe2669)" d="M 77.960417 116.355522 
C 78.596352 116.355522 79.206326 116.102862 79.655999 115.653189 
C 80.105673 115.203515 80.358333 114.593541 80.358333 113.957606 
C 80.358333 113.321671 80.105673 112.711697 79.655999 112.262024 
C 79.206326 111.81235 78.596352 111.55969 77.960417 111.55969 
C 77.324482 111.55969 76.714508 111.81235 76.264834 112.262024 
C 75.815161 112.711697 75.562501 113.321671 75.562501 113.957606 
C 75.562501 114.593541 75.815161 115.203515 76.264834 115.653189 
C 76.714508 116.102862 77.324482 116.355522 77.960417 116.355522 
z
" style="fill:#808080;stroke:#000000;"/>
    <path clip-path="url(#p5a9fbe2669)" d="M 81.340941 102.942689 
C 82.200298 102.942689 83.024573 102.601263 83.632229 101.993606 
C 84.239886 101.385949 84.581312 100.561674 84.581312 99.702318 
C 84.581312 98.842962 84.239886 98.018687 83.632229 97.41103 
C 83.024573 96.803374 82.200298 96.461948 81.340941 96.461948 
C 80.481585 96.461948 79.65731 96.803374 79.049654 97.41103 
C 78.441997 98.018687 78.100571 98.842962 78.100571 99.702318 
C 78.100571 100.561674 78.441997 101.385949 79.049654 101.993606 
C 79.65731 102.601263 80.481585 102.942689 81.340941 102.942689 
z
" style="fill:#808080;stroke:#000000;"/>
    <path clip-path="url(#p5a9fbe2669)" d="M 84.721466 144.793976 
C 85.23503 144.793976 85.727628 144.589935 86.090772 144.226791 
C 86.453917 143.863647 86.657958 143.371048 86.657958 142.857485 
C 86.657958 142.343921 86.453917 141.851322 86.090772 141.488178 
C 85.727628 141.125034 85.23503 140.920993 84.721466 140.920993 
C 84.207902 140.920993 83.715304 141.125034 83.35216 141.488178 
C 82.989015 141.851322 82.784974 142.343921 82.784974 142.857485 
C 82.784974 143.371048 82.989015 143.863647 83.35216 144.226791 
C 83.715304 144.589935 84.207902 144.793976 84.721466 144.793976 
z
" style="fill:#808080;stroke:#000000;"/>
    <path clip-path="url(#p5a9fbe2669)" d="M 88.101991 142.717511 
C 88.863729 142.717511 89.59437 142.414869 90.133 141.876239 
C 90.67163 141.337609 90.974272 140.606967 90.974272 139.845229 
C 90.974272 139.083491 90.67163 138.35285 90.133 137.81422 
C 89.59437 137.27559 88.863729 136.972948 88.101991 136.972948 
C 87.340253 136.972948 86.609611 137.27559 86.070981 137.81422 
C 85.532351 138.35285 85.229709 139.083491 85.229709 139.845229 
C 85.229709 140.606967 85.532351 141.337609 86.070981 141.876239 
C 86.609611 142.414869 87.340253 142.717511 88.101991 142.717511 
z
" style="fill:#808080;stroke:#000000;"/>
    <path clip-path="url(#p5a9fbe2669)" d="M 91.482515 162.80708 
C 91.747718 162.80708 92.002095 162.701714 92.189622 162.514187 
C 92.377149 162.32666 92.482515 162.072284 92.482515 161.80708 
C 92.482515 161.541877 92.377149 161.287501 92.189622 161.099974 
C 92.002095 160.912447 91.747718 160.80708 91.482515 160.80708 
C 91.217312 160.80708 90.962935 160.912447 90.775408 161.099974 
C 90.587882 161.287501 90.482515 161.541877 90.482515 161.80708 
C 90.482515 162.072284 90.587882 162.32666 90.775408 162.514187 
C 90.962935 162.701714 91.217312 162.80708 91.482515 162.80708 
z
" style="fill:#808080;stroke:#000000;"/>
    <path clip-path="url(#p5a9fbe2669)" d="M 94.86304 160.985343 
C 95.213871 160.985343 95.550379 160.845956 95.798454 160.597881 
C 96.046529 160.349807 96.185916 160.013298 96.185916 159.662467 
C 96.185916 159.311636 96.046529 158.975128 95.798454 158.727053 
C 95.550379 158.478978 95.213871 158.339591 94.86304 158.339591 
C 94.512209 158.339591 94.1757 158.478978 93.927626 158.727053 
C 93.679551 158.975128 93.540164 159.311636 93.540164 159.662467 
C 93.540164 160.013298 93.679551 160.349807 93.927626 160.597881 
C 94.1757 160.845956 94.512209 160.985343 94.86304 160.985343 
z
" style="fill:#808080;stroke:#000000;"/>
    <path clip-path="url(#p5a9fbe2669)" d="M 98.243564 163.762286 
C 98.473237 163.762286 98.693534 163.671036 98.855937 163.508633 
C 99.01834 163.34623 99.10959 163.125933 99.10959 162.89626 
C 99.10959 162.666588 99.01834 162.446291 98.855937 162.283888 
C 98.693534 162.121485 98.473237 162.030235 98.243564 162.030235 
C 98.013892 162.030235 97.793595 162.121485 97.631192 162.283888 
C 97.468789 162.446291 97.377539 162.666588 97.377539 162.89626 
C 97.377539 163.125933 97.468789 163.34623 97.631192 163.508633 
C 97.793595 163.671036 98.013892 163.762286 98.243564 163.762286 
z
" style="fill:#808080;stroke:#000000;"/>
    <path clip-path="url(#p5a9fbe2669)" d="M 101.624089 201.926022 
C 102.503668 201.926022 103.347341 201.576562 103.969297 200.954605 
C 104.591253 200.332649 104.940714 199.488977 104.940714 198.609397 
C 104.940714 197.729818 104.591253 196.886146 103.969297 196.26419 
C 103.347341 195.642233 102.503668 195.292773 101.624089 195.292773 
C 100.74451 195.292773 99.900838 195.642233 99.278881 196.26419 
C 98.656925 196.886146 98.307464 197.729818 98.307464 198.609397 
C 98.307464 199.488977 98.656925 200.332649 99.278881 200.954605 
C 99.900838 201.576562 100.74451 201.926022 101.624089 201.926022 
z
" style="fill:#808080;stroke:#000000;"/>
    <path clip-path="url(#p5a9fbe2669)" d="M 105.004614 176.277958 
C 105.463959 176.277958 105.904552 176.095459 106.229359 175.770652 
C 106.554165 175.445846 106.736665 175.005253 106.736665 174.545908 
C 106.736665 174.086562 106.554165 173.645969 106.229359 173.321163 
C 105.904552 172.996357 105.463959 172.813857 105.004614 172.813857 
C 104.545268 172.813857 104.104675 172.996357 103.779869 173.321163 
C 103.455063 173.645969 103.272563 174.086562 103.272563 174.545908 
C 103.272563 175.005253 103.455063 175.445846 103.779869 175.770652 
C 104.104675 176.095459 104.545268 176.277958 105.004614 176.277958 
z
" style="fill:#808080;stroke:#000000;"/>
    <path clip-path="url(#p5a9fbe2669)" d="M 108.385138 188.775261 
C 109.0868 188.775261 109.759817 188.496488 110.255967 188.000339 
C 110.752117 187.504189 111.03089 186.831171 111.03089 186.12951 
C 111.03089 185.427848 110.752117 184.754831 110.255967 184.258681 
C 109.759817 183.762532 109.0868 183.483759 108.385138 183.483759 
C 107.683477 183.483759 107.010459 183.762532 106.51431 184.258681 
C 106.01816 184.754831 105.739387 185.427848 105.739387 186.12951 
C 105.739387 186.831171 106.01816 187.504189 106.51431 188.000339 
C 107.010459 188.496488 107.683477 188.775261 108.385138 188.775261 
z
" style="fill:#808080;stroke:#000000;"/>
    <path clip-path="url(#p5a9fbe2669)" d="M 111.765663 201.538101 
C 112.645242 201.538101 113.488914 201.18864 114.110871 200.566684 
C 114.732827 199.944727 115.082288 199.101055 115.082288 198.221476 
C 115.082288 197.341897 114.732827 196.498224 114.110871 195.876268 
C 113.488914 195.254312 112.645242 194.904851 111.765663 194.904851 
C 110.886084 194.904851 110.042411 195.254312 109.420455 195.876268 
C 108.798499 196.498224 108.449038 197.341897 108.449038 198.221476 
C 108.449038 199.101055 108.798499 199.944727 109.420455 200.566684 
C 110.042411 201.18864 110.886084 201.538101 111.765663 201.538101 
z
" style="fill:#808080;stroke:#000000;"/>
    <path clip-path="url(#p5a9fbe2669)" d="M 115.146188 199.532543 
C 115.995252 199.532543 116.809655 199.195206 117.410034 198.594827 
C 118.010413 197.994448 118.34775 197.180045 118.34775 196.33098 
C 118.34775 195.481916 118.010413 194.667513 117.410034 194.067134 
C 116.809655 193.466755 115.995252 193.129418 115.146188 193.129418 
C 114.297123 193.129418 113.48272 193.466755 112.882341 194.067134 
C 112.281962 194.667513 111.944625 195.481916 111.944625 196.33098 
C 111.944625 197.180045 112.281962 197.994448 112.882341 198.594827 
C 113.48272 199.195206 114.297123 199.532543 115.146188 199.532543 
z
" style="fill:#808080;stroke:#000000;"/>
    <path clip-path="url(#p5a9fbe2669)" d="M 118.526712 226.104378 
C 119.675075 226.104378 120.776559 225.648129 121.588574 224.836114 
C 122.40059 224.024098 122.856839 222.922614 122.856839 221.774251 
C 122.856839 220.625888 122.40059 219.524405 121.588574 218.712389 
C 120.776559 217.900374 119.675075 217.444124 118.526712 217.444124 
C 117.378349 217.444124 116.276865 217.900374 115.46485 218.712389 
C 114.652835 219.524405 114.196585 220.625888 114.196585 221.774251 
C 114.196585 222.922614 114.652835 224.024098 115.46485 224.836114 
C 116.276865 225.648129 117.378349 226.104378 118.526712 226.104378 
z
" style="fill:#808080;stroke:#000000;"/>
    <path clip-path="url(#p5a9fbe2669)" d="M 121.907237 216.78082 
C 122.959729 216.78082 123.969255 216.36266 124.71348 215.618436 
C 125.457704 214.874211 125.875864 213.864685 125.875864 212.812193 
C 125.875864 211.7597 125.457704 210.750174 124.71348 210.00595 
C 123.969255 209.261725 122.959729 208.843566 121.907237 208.843566 
C 120.854745 208.843566 119.845218 209.261725 119.100994 210.00595 
C 118.356769 210.750174 117.93861 211.7597 117.93861 212.812193 
C 117.93861 213.864685 118.356769 214.874211 119.100994 215.618436 
C 119.845218 216.36266 120.854745 216.78082 121.907237 216.78082 
z
" style="fill:#808080;stroke:#000000;"/>
    <path clip-path="url(#p5a9fbe2669)" d="M 125.287761 226.303627 
C 126.443755 226.303627 127.552558 225.844345 128.369968 225.026935 
C 129.187379 224.209524 129.64666 223.100721 129.64666 221.944728 
C 129.64666 220.788734 129.187379 219.679931 128.369968 218.862521 
C 127.552558 218.04511 126.443755 217.585829 125.287761 217.585829 
C 124.131768 217.585829 123.022965 218.04511 122.205554 218.862521 
C 121.388144 219.679931 120.928862 220.788734 120.928862 221.944728 
C 120.928862 223.100721 121.388144 224.209524 122.205554 225.026935 
C 123.022965 225.844345 124.131768 226.303627 125.287761 226.303627 
z
" style="fill:#808080;stroke:#000000;"/>
    <path clip-path="url(#p5a9fbe2669)" d="M 128.668286 210.318012 
C 129.651685 210.318012 130.59494 209.927303 131.290308 209.231935 
C 131.985677 208.536566 132.376385 207.593312 132.376385 206.609913 
C 132.376385 205.626513 131.985677 204.683259 131.290308 203.987891 
C 130.59494 203.292522 129.651685 202.901813 128.668286 202.901813 
C 127.684887 202.901813 126.741632 203.292522 126.046264 203.987891 
C 125.350896 204.683259 124.960187 205.626513 124.960187 206.609913 
C 124.960187 207.593312 125.350896 208.536566 126.046264 209.231935 
C 126.741632 209.927303 127.684887 210.318012 128.668286 210.318012 
z
" style="fill:#808080;stroke:#000000;"/>
    <path clip-path="url(#p5a9fbe2669)" d="M 132.048811 189.786694 
C 132.762892 189.786694 133.447822 189.502987 133.952754 188.998055 
C 134.457686 188.493123 134.741393 187.808193 134.741393 187.094112 
C 134.741393 186.38003 134.457686 185.6951 133.952754 185.190168 
C 133.447822 184.685237 132.762892 184.401529 132.048811 184.401529 
C 131.334729 184.401529 130.649799 184.685237 130.144867 185.190168 
C 129.639936 185.6951 129.356228 186.38003 129.356228 187.094112 
C 129.356228 187.808193 129.639936 188.493123 130.144867 188.998055 
C 130.649799 189.502987 131.334729 189.786694 132.048811 189.786694 
z
" style="fill:#808080;stroke:#000000;"/>
    <path clip-path="url(#p5a9fbe2669)" d="M 135.429335 198.86673 
C 136.267981 198.86673 137.072391 198.533533 137.665403 197.940521 
C 138.258415 197.347508 138.591613 196.543098 138.591613 195.704453 
C 138.591613 194.865807 138.258415 194.061397 137.665403 193.468385 
C 137.072391 192.875373 136.267981 192.542175 135.429335 192.542175 
C 134.590689 192.542175 133.786279 192.875373 133.193267 193.468385 
C 132.600255 194.061397 132.267058 194.865807 132.267058 195.704453 
C 132.267058 196.543098 132.600255 197.347508 133.193267 197.940521 
C 133.786279 198.533533 134.590689 198.86673 135.429335 198.86673 
z
" style="fill:#808080;stroke:#000000;"/>
    <path clip-path="url(#p5a9fbe2669)" d="M 138.80986 182.090768 
C 139.387857 182.090768 139.942258 181.861127 140.350963 181.452422 
C 140.759669 181.043716 140.989309 180.489315 140.989309 179.911318 
C 140.989309 179.333321 140.759669 178.77892 140.350963 178.370215 
C 139.942258 177.961509 139.387857 177.731869 138.80986 177.731869 
C 138.231863 177.731869 137.677462 177.961509 137.268756 178.370215 
C 136.860051 178.77892 136.63041 179.333321 136.63041 179.911318 
C 136.63041 180.489315 136.860051 181.043716 137.268756 181.452422 
C 137.677462 181.861127 138.231863 182.090768 138.80986 182.090768 
z
" style="fill:#808080;stroke:#000000;"/>
    <path clip-path="url(#p5a9fbe2669)" d="M 142.190384 172.842369 
C 142.565438 172.842369 142.925181 172.693359 143.190384 172.428155 
C 143.455588 172.162952 143.604598 171.803209 143.604598 171.428155 
C 143.604598 171.053102 143.455588 170.693359 143.190384 170.428155 
C 142.925181 170.162952 142.565438 170.013942 142.190384 170.013942 
C 141.815331 170.013942 141.455588 170.162952 141.190384 170.428155 
C 140.925181 170.693359 140.776171 171.053102 140.776171 171.428155 
C 140.776171 171.803209 140.925181 172.162952 141.190384 172.428155 
C 141.455588 172.693359 141.815331 172.842369 142.190384 172.842369 
z
" style="fill:#808080;stroke:#000000;"/>
    <path clip-path="url(#p5a9fbe2669)" d="M 145.570909 161.244786 
C 145.92174 161.244786 146.258249 161.1054 146.506323 160.857325 
C 146.754398 160.60925 146.893785 160.272741 146.893785 159.921911 
C 146.893785 159.57108 146.754398 159.234571 146.506323 158.986496 
C 146.258249 158.738421 145.92174 158.599035 145.570909 158.599035 
C 145.220078 158.599035 144.88357 158.738421 144.635495 158.986496 
C 144.38742 159.234571 144.248033 159.57108 144.248033 159.921911 
C 144.248033 160.272741 144.38742 160.60925 144.635495 160.857325 
C 144.88357 161.1054 145.220078 161.244786 145.570909 161.244786 
z
" style="fill:#808080;stroke:#000000;"/>
    <path clip-path="url(#p5a9fbe2669)" d="M 148.951434 145.522533 
C 149.665515 145.522533 150.350445 145.238825 150.855377 144.733893 
C 151.360309 144.228962 151.644016 143.544031 151.644016 142.82995 
C 151.644016 142.115869 151.360309 141.430939 150.855377 140.926007 
C 150.350445 140.421075 149.665515 140.137368 148.951434 140.137368 
C 148.237353 140.137368 147.552422 140.421075 147.04749 140.926007 
C 146.542559 141.430939 146.258851 142.115869 146.258851 142.82995 
C 146.258851 143.544031 146.542559 144.228962 147.04749 144.733893 
C 147.552422 145.238825 148.237353 145.522533 148.951434 145.522533 
z
" style="fill:#808080;stroke:#000000;"/>
    <path clip-path="url(#p5a9fbe2669)" d="M 152.331958 122.250507 
C 153.376064 122.250507 154.377546 121.83568 155.11584 121.097386 
C 155.854135 120.359091 156.268962 119.357609 156.268962 118.313503 
C 156.268962 117.269398 155.854135 116.267915 155.11584 115.529621 
C 154.377546 114.791327 153.376064 114.376499 152.331958 114.376499 
C 151.287853 114.376499 150.28637 114.791327 149.548076 115.529621 
C 148.809782 116.267915 148.394954 117.269398 148.394954 118.313503 
C 148.394954 119.357609 148.809782 120.359091 149.548076 121.097386 
C 150.28637 121.83568 151.287853 122.250507 152.331958 122.250507 
z
" style="fill:#808080;stroke:#000000;"/>
    <path clip-path="url(#p5a9fbe2669)" d="M 155.712483 124.24838 
C 156.73961 124.24838 157.724807 123.840298 158.451096 123.11401 
C 159.177384 122.387721 159.585466 121.402524 159.585466 120.375397 
C 159.585466 119.34827 159.177384 118.363073 158.451096 117.636784 
C 157.724807 116.910496 156.73961 116.502414 155.712483 116.502414 
C 154.685356 116.502414 153.700159 116.910496 152.97387 117.636784 
C 152.247582 118.363073 151.8395 119.34827 151.8395 120.375397 
C 151.8395 121.402524 152.247582 122.387721 152.97387 123.11401 
C 153.700159 123.840298 154.685356 124.24838 155.712483 124.24838 
z
" style="fill:#808080;stroke:#000000;"/>
    <path clip-path="url(#p5a9fbe2669)" d="M 159.093008 91.59173 
C 160.451769 91.59173 161.755062 91.051888 162.715852 90.091098 
C 163.676641 89.130309 164.216483 87.827016 164.216483 86.468254 
C 164.216483 85.109493 163.676641 83.8062 162.715852 82.84541 
C 161.755062 81.884621 160.451769 81.344779 159.093008 81.344779 
C 157.734246 81.344779 156.430953 81.884621 155.470163 82.84541 
C 154.509374 83.8062 153.969532 85.109493 153.969532 86.468254 
C 153.969532 87.827016 154.509374 89.130309 155.470163 90.091098 
C 156.430953 91.051888 157.734246 91.59173 159.093008 91.59173 
z
" style="fill:#808080;stroke:#000000;"/>
    <path clip-path="url(#p5a9fbe2669)" d="M 162.473532 58.704135 
C 164.097563 58.704135 165.655296 58.0589 166.803659 56.910537 
C 167.952022 55.762174 168.597257 54.204441 168.597257 52.58041 
C 168.597257 50.95638 167.952022 49.398646 166.803659 48.250283 
C 165.655296 47.10192 164.097563 46.456686 162.473532 46.456686 
C 160.849501 46.456686 159.291768 47.10192 158.143405 48.250283 
C 156.995042 49.398646 156.349808 50.95638 156.349808 52.58041 
C 156.349808 54.204441 156.995042 55.762174 158.143405 56.910537 
C 159.291768 58.0589 160.849501 58.704135 162.473532 58.704135 
z
" style="fill:#808080;stroke:#000000;"/>
    <path clip-path="url(#p5a9fbe2669)" d="M 165.854057 61.236407 
C 167.461765 61.236407 169.003842 60.597658 170.140664 59.460836 
C 171.277485 58.324015 171.916235 56.781937 171.916235 55.174229 
C 171.916235 53.566521 171.277485 52.024443 170.140664 50.887622 
C 169.003842 49.750801 167.461765 49.112051 165.854057 49.112051 
C 164.246348 49.112051 162.704271 49.750801 161.56745 50.887622 
C 160.430628 52.024443 159.791879 53.566521 159.791879 55.174229 
C 159.791879 56.781937 160.430628 58.324015 161.56745 59.460836 
C 162.704271 60.597658 164.246348 61.236407 165.854057 61.236407 
z
" style="fill:#808080;stroke:#000000;"/>
    <path clip-path="url(#p5a9fbe2669)" d="M 169.234581 65.787595 
C 170.809138 65.787595 172.319416 65.162017 173.432795 64.048638 
C 174.546175 62.935259 175.171752 61.42498 175.171752 59.850424 
C 175.171752 58.275868 174.546175 56.76559 173.432795 55.65221 
C 172.319416 54.538831 170.809138 53.913253 169.234581 53.913253 
C 167.660025 53.913253 166.149747 54.538831 165.036367 55.65221 
C 163.922988 56.76559 163.29741 58.275868 163.29741 59.850424 
C 163.29741 61.42498 163.922988 62.935259 165.036367 64.048638 
C 166.149747 65.162017 167.660025 65.787595 169.234581 65.787595 
z
" style="fill:#808080;stroke:#000000;"/>
    <path clip-path="url(#p5a9fbe2669)" d="M 172.615106 68.924176 
C 174.161493 68.924176 175.644751 68.30979 176.738212 67.216329 
C 177.831672 66.122869 178.446058 64.63961 178.446058 63.093224 
C 178.446058 61.546837 177.831672 60.063579 176.738212 58.970118 
C 175.644751 57.876658 174.161493 57.262272 172.615106 57.262272 
C 171.068719 57.262272 169.585461 57.876658 168.492 58.970118 
C 167.39854 60.063579 166.784154 61.546837 166.784154 63.093224 
C 166.784154 64.63961 167.39854 66.122869 168.492 67.216329 
C 169.585461 68.30979 171.068719 68.924176 172.615106 68.924176 
z
" style="fill:#808080;stroke:#000000;"/>
    <path clip-path="url(#p5a9fbe2669)" d="M 175.995631 62.225872 
C 177.597861 62.225872 179.134684 61.589299 180.267632 60.456351 
C 181.400581 59.323403 182.037154 57.78658 182.037154 56.184349 
C 182.037154 54.582119 181.400581 53.045296 180.267632 51.912347 
C 179.134684 50.779399 177.597861 50.142826 175.995631 50.142826 
C 174.3934 50.142826 172.856577 50.779399 171.723629 51.912347 
C 170.590681 53.045296 169.954108 54.582119 169.954108 56.184349 
C 169.954108 57.78658 170.590681 59.323403 171.723629 60.456351 
C 172.856577 61.589299 174.3934 62.225872 175.995631 62.225872 
z
" style="fill:#808080;stroke:#000000;"/>
    <path clip-path="url(#p5a9fbe2669)" d="M 179.376155 24.440644 
C 181.237307 24.440644 183.022481 23.701201 184.338514 22.385168 
C 185.654546 21.069135 186.39399 19.283961 186.39399 17.42281 
C 186.39399 15.561658 185.654546 13.776484 184.338514 12.460452 
C 183.022481 11.144419 181.237307 10.404975 179.376155 10.404975 
C 177.515004 10.404975 175.72983 11.144419 174.413797 12.460452 
C 173.097764 13.776484 172.358321 15.561658 172.358321 17.42281 
C 172.358321 19.283961 173.097764 21.069135 174.413797 22.385168 
C 175.72983 23.701201 177.515004 24.440644 179.376155 24.440644 
z
" style="fill:#808080;stroke:#000000;"/>
    <path clip-path="url(#p5a9fbe2669)" d="M 182.75668 48.513001 
C 184.454808 48.513001 186.083614 47.838327 187.284372 46.637569 
C 188.485131 45.436811 189.159804 43.808005 189.159804 42.109877 
C 189.159804 40.411748 188.485131 38.782942 187.284372 37.582184 
C 186.083614 36.381426 184.454808 35.706752 182.75668 35.706752 
C 181.058551 35.706752 179.429745 36.381426 178.228987 37.582184 
C 177.028229 38.782942 176.353556 40.411748 176.353556 42.109877 
C 176.353556 43.808005 177.028229 45.436811 178.228987 46.637569 
C 179.429745 47.838327 181.058551 48.513001 182.75668 48.513001 
z
" style="fill:#808080;stroke:#000000;"/>
    <path clip-path="url(#p5a9fbe2669)" d="M 186.137204 61.121517 
C 187.744913 61.121517 189.28699 60.482767 190.423812 59.345946 
C 191.560633 58.209124 192.199382 56.667047 192.199382 55.059339 
C 192.199382 53.451631 191.560633 51.909553 190.423812 50.772732 
C 189.28699 49.63591 187.744913 48.997161 186.137204 48.997161 
C 184.529496 48.997161 182.987419 49.63591 181.850597 50.772732 
C 180.713776 51.909553 180.075027 53.451631 180.075027 55.059339 
C 180.075027 56.667047 180.713776 58.209124 181.850597 59.345946 
C 182.987419 60.482767 184.529496 61.121517 186.137204 61.121517 
z
" style="fill:#808080;stroke:#000000;"/>
    <path clip-path="url(#p5a9fbe2669)" d="M 189.517729 54.044374 
C 191.179222 54.044374 192.772888 53.384256 193.94774 52.209403 
C 195.122593 51.034551 195.782711 49.440885 195.782711 47.779392 
C 195.782711 46.117899 195.122593 44.524234 193.94774 43.349381 
C 192.772888 42.174528 191.179222 41.51441 189.517729 41.51441 
C 187.856236 41.51441 186.262571 42.174528 185.087718 43.349381 
C 183.912865 44.524234 183.252747 46.117899 183.252747 47.779392 
C 183.252747 49.440885 183.912865 51.034551 185.087718 52.209403 
C 186.262571 53.384256 187.856236 54.044374 189.517729 54.044374 
z
" style="fill:#808080;stroke:#000000;"/>
    <path clip-path="url(#p5a9fbe2669)" d="M 192.898254 33.372365 
C 194.70183 33.372365 196.431779 32.655797 197.7071 31.380476 
C 198.982421 30.105155 199.698989 28.375206 199.698989 26.57163 
C 199.698989 24.768054 198.982421 23.038105 197.7071 21.762784 
C 196.431779 20.487463 194.70183 19.770895 192.898254 19.770895 
C 191.094678 19.770895 189.364729 20.487463 188.089408 21.762784 
C 186.814087 23.038105 186.097518 24.768054 186.097518 26.57163 
C 186.097518 28.375206 186.814087 30.105155 188.089408 31.380476 
C 189.364729 32.655797 191.094678 33.372365 192.898254 33.372365 
z
" style="fill:#808080;stroke:#000000;"/>
    <path clip-path="url(#p5a9fbe2669)" d="M 196.278778 71.153386 
C 197.808014 71.153386 199.274822 70.545814 200.356155 69.464482 
C 201.437488 68.383149 202.04506 66.916341 202.04506 65.387105 
C 202.04506 63.857869 201.437488 62.391061 200.356155 61.309728 
C 199.274822 60.228395 197.808014 59.620824 196.278778 59.620824 
C 194.749543 59.620824 193.282735 60.228395 192.201402 61.309728 
C 191.120069 62.391061 190.512497 63.857869 190.512497 65.387105 
C 190.512497 66.916341 191.120069 68.383149 192.201402 69.464482 
C 193.282735 70.545814 194.749543 71.153386 196.278778 71.153386 
z
" style="fill:#808080;stroke:#000000;"/>
    <path clip-path="url(#p5a9fbe2669)" d="M 199.659303 74.552195 
C 201.165367 74.552195 202.609949 73.95383 203.674898 72.888881 
C 204.739846 71.823933 205.338211 70.379351 205.338211 68.873287 
C 205.338211 67.367223 204.739846 65.92264 203.674898 64.857692 
C 202.609949 63.792744 201.165367 63.194379 199.659303 63.194379 
C 198.153239 63.194379 196.708656 63.792744 195.643708 64.857692 
C 194.57876 65.92264 193.980395 67.367223 193.980395 68.873287 
C 193.980395 70.379351 194.57876 71.823933 195.643708 72.888881 
C 196.708656 73.95383 198.153239 74.552195 199.659303 74.552195 
z
" style="fill:#808080;stroke:#000000;"/>
    <path clip-path="url(#p5a9fbe2669)" d="M 203.039828 90.941193 
C 204.405044 90.941193 205.714529 90.398787 206.679882 89.433433 
C 207.645236 88.468079 208.187643 87.158594 208.187643 85.793378 
C 208.187643 84.428161 207.645236 83.118677 206.679882 82.153323 
C 205.714529 81.187969 204.405044 80.645563 203.039828 80.645563 
C 201.674611 80.645563 200.365126 81.187969 199.399773 82.153323 
C 198.434419 83.118677 197.892012 84.428161 197.892012 85.793378 
C 197.892012 87.158594 198.434419 88.468079 199.399773 89.433433 
C 200.365126 90.398787 201.674611 90.941193 203.039828 90.941193 
z
" style="fill:#808080;stroke:#000000;"/>
    <path clip-path="url(#p5a9fbe2669)" d="M 206.420352 112.924894 
C 207.568715 112.924894 208.670199 112.468645 209.482214 111.65663 
C 210.29423 110.844614 210.750479 109.743131 210.750479 108.594767 
C 210.750479 107.446404 210.29423 106.344921 209.482214 105.532905 
C 208.670199 104.72089 207.568715 104.26464 206.420352 104.26464 
C 205.271989 104.26464 204.170505 104.72089 203.35849 105.532905 
C 202.546475 106.344921 202.090225 107.446404 202.090225 108.594767 
C 202.090225 109.743131 202.546475 110.844614 203.35849 111.65663 
C 204.170505 112.468645 205.271989 112.924894 206.420352 112.924894 
z
" style="fill:#808080;stroke:#000000;"/>
    <path clip-path="url(#p5a9fbe2669)" d="M 209.800877 137.09667 
C 210.649941 137.09667 211.464344 136.759333 212.064723 136.158954 
C 212.665102 135.558575 213.002439 134.744172 213.002439 133.895108 
C 213.002439 133.046044 212.665102 132.231641 212.064723 131.631261 
C 211.464344 131.030882 210.649941 130.693546 209.800877 130.693546 
C 208.951813 130.693546 208.13741 131.030882 207.53703 131.631261 
C 206.936651 132.231641 206.599315 133.046044 206.599315 133.895108 
C 206.599315 134.744172 206.936651 135.558575 207.53703 136.158954 
C 208.13741 136.759333 208.951813 137.09667 209.800877 137.09667 
z
" style="fill:#808080;stroke:#000000;"/>
    <path clip-path="url(#p5a9fbe2669)" d="M 213.181401 138.676192 
C 214.009498 138.676192 214.803789 138.347186 215.389342 137.761634 
C 215.974894 137.176081 216.3039 136.38179 216.3039 135.553693 
C 216.3039 134.725597 215.974894 133.931306 215.389342 133.345753 
C 214.803789 132.760201 214.009498 132.431194 213.181401 132.431194 
C 212.353305 132.431194 211.559014 132.760201 210.973461 133.345753 
C 210.387909 133.931306 210.058902 134.725597 210.058902 135.553693 
C 210.058902 136.38179 210.387909 137.176081 210.973461 137.761634 
C 211.559014 138.347186 212.353305 138.676192 213.181401 138.676192 
z
" style="fill:#808080;stroke:#000000;"/>
    <path clip-path="url(#p5a9fbe2669)" d="M 216.561926 149.007683 
C 217.224934 149.007683 217.860876 148.744267 218.329693 148.27545 
C 218.79851 147.806632 219.061926 147.17069 219.061926 146.507683 
C 219.061926 145.844675 218.79851 145.208733 218.329693 144.739916 
C 217.860876 144.271098 217.224934 144.007683 216.561926 144.007683 
C 215.898918 144.007683 215.262976 144.271098 214.794159 144.739916 
C 214.325342 145.208733 214.061926 145.844675 214.061926 146.507683 
C 214.061926 147.17069 214.325342 147.806632 214.794159 148.27545 
C 215.262976 148.744267 215.898918 149.007683 216.561926 149.007683 
z
" style="fill:#808080;stroke:#000000;"/>
    <path clip-path="url(#p5a9fbe2669)" d="M 219.942451 149.257698 
C 220.592063 149.257698 221.215156 148.999604 221.674501 148.540259 
C 222.133847 148.080914 222.39194 147.457821 222.39194 146.808208 
C 222.39194 146.158596 222.133847 145.535503 221.674501 145.076158 
C 221.215156 144.616812 220.592063 144.358719 219.942451 144.358719 
C 219.292838 144.358719 218.669745 144.616812 218.2104 145.076158 
C 217.751055 145.535503 217.492961 146.158596 217.492961 146.808208 
C 217.492961 147.457821 217.751055 148.080914 218.2104 148.540259 
C 218.669745 148.999604 219.292838 149.257698 219.942451 149.257698 
z
" style="fill:#808080;stroke:#000000;"/>
    <path clip-path="url(#p5a9fbe2669)" d="M 223.322975 155.882879 
C 223.836539 155.882879 224.329137 155.678838 224.692282 155.315694 
C 225.055426 154.952549 225.259467 154.459951 225.259467 153.946387 
C 225.259467 153.432824 225.055426 152.940225 224.692282 152.577081 
C 224.329137 152.213937 223.836539 152.009896 223.322975 152.009896 
C 222.809412 152.009896 222.316813 152.213937 221.953669 152.577081 
C 221.590525 152.940225 221.386484 153.432824 221.386484 153.946387 
C 221.386484 154.459951 221.590525 154.952549 221.953669 155.315694 
C 222.316813 155.678838 222.809412 155.882879 223.322975 155.882879 
z
" style="fill:#808080;stroke:#000000;"/>
    <path clip-path="url(#p5a9fbe2669)" d="M 226.7035 162.854716 
C 226.968703 162.854716 227.22308 162.74935 227.410607 162.561823 
C 227.598134 162.374296 227.7035 162.119919 227.7035 161.854716 
C 227.7035 161.589513 227.598134 161.335136 227.410607 161.147609 
C 227.22308 160.960082 226.968703 160.854716 226.7035 160.854716 
C 226.438297 160.854716 226.18392 160.960082 225.996393 161.147609 
C 225.808866 161.335136 225.7035 161.589513 225.7035 161.854716 
C 225.7035 162.119919 225.808866 162.374296 225.996393 162.561823 
C 226.18392 162.74935 226.438297 162.854716 226.7035 162.854716 
z
" style="fill:#808080;stroke:#000000;"/>
    <path clip-path="url(#p5a9fbe2669)" d="M 230.084024 180.977766 
C 230.646605 180.977766 231.18622 180.75425 231.584024 180.356445 
C 231.981829 179.958641 232.205345 179.419026 232.205345 178.856445 
C 232.205345 178.293865 231.981829 177.75425 231.584024 177.356445 
C 231.18622 176.958641 230.646605 176.735125 230.084024 176.735125 
C 229.521444 176.735125 228.981829 176.958641 228.584024 177.356445 
C 228.18622 177.75425 227.962704 178.293865 227.962704 178.856445 
C 227.962704 179.419026 228.18622 179.958641 228.584024 180.356445 
C 228.981829 180.75425 229.521444 180.977766 230.084024 180.977766 
z
" style="fill:#808080;stroke:#000000;"/>
    <path clip-path="url(#p5a9fbe2669)" d="M 233.464549 176.926878 
C 233.942651 176.926878 234.401235 176.736926 234.739304 176.398857 
C 235.077373 176.060788 235.267325 175.602204 235.267325 175.124102 
C 235.267325 174.646001 235.077373 174.187416 234.739304 173.849347 
C 234.401235 173.511278 233.942651 173.321327 233.464549 173.321327 
C 232.986447 173.321327 232.527863 173.511278 232.189794 173.849347 
C 231.851725 174.187416 231.661773 174.646001 231.661773 175.124102 
C 231.661773 175.602204 231.851725 176.060788 232.189794 176.398857 
C 232.527863 176.736926 232.986447 176.926878 233.464549 176.926878 
z
" style="fill:#808080;stroke:#000000;"/>
    <path clip-path="url(#p5a9fbe2669)" d="M 236.845074 206.010466 
C 237.773285 206.010466 238.663603 205.641684 239.319947 204.98534 
C 239.976292 204.328996 240.345074 203.438677 240.345074 202.510466 
C 240.345074 201.582255 239.976292 200.691937 239.319947 200.035592 
C 238.663603 199.379248 237.773285 199.010466 236.845074 199.010466 
C 235.916863 199.010466 235.026544 199.379248 234.3702 200.035592 
C 233.713856 200.691937 233.345074 201.582255 233.345074 202.510466 
C 233.345074 203.438677 233.713856 204.328996 234.3702 204.98534 
C 235.026544 205.641684 235.916863 206.010466 236.845074 206.010466 
z
" style="fill:#808080;stroke:#000000;"/>
    <path clip-path="url(#p5a9fbe2669)" d="M 240.225598 174.654893 
C 240.644921 174.654893 241.047126 174.488294 241.343632 174.191788 
C 241.640138 173.895282 241.806737 173.493077 241.806737 173.073754 
C 241.806737 172.654431 241.640138 172.252226 241.343632 171.95572 
C 241.047126 171.659214 240.644921 171.492615 240.225598 171.492615 
C 239.806275 171.492615 239.40407 171.659214 239.107564 171.95572 
C 238.811058 172.252226 238.644459 172.654431 238.644459 173.073754 
C 238.644459 173.493077 238.811058 173.895282 239.107564 174.191788 
C 239.40407 174.488294 239.806275 174.654893 240.225598 174.654893 
z
" style="fill:#808080;stroke:#000000;"/>
    <path clip-path="url(#p5a9fbe2669)" d="M 243.606123 184.607976 
C 244.228079 184.607976 244.824646 184.360871 245.264435 183.921081 
C 245.704225 183.481291 245.951331 182.884725 245.951331 182.262769 
C 245.951331 181.640812 245.704225 181.044246 245.264435 180.604456 
C 244.824646 180.164667 244.228079 179.917561 243.606123 179.917561 
C 242.984166 179.917561 242.3876 180.164667 241.94781 180.604456 
C 241.508021 181.044246 241.260915 181.640812 241.260915 182.262769 
C 241.260915 182.884725 241.508021 183.481291 241.94781 183.921081 
C 242.3876 184.360871 242.984166 184.607976 243.606123 184.607976 
z
" style="fill:#808080;stroke:#000000;"/>
    <path clip-path="url(#p5a9fbe2669)" d="M 246.986648 193.083806 
C 247.748385 193.083806 248.479027 192.781165 249.017657 192.242535 
C 249.556287 191.703905 249.858929 190.973263 249.858929 190.211525 
C 249.858929 189.449787 249.556287 188.719146 249.017657 188.180516 
C 248.479027 187.641885 247.748385 187.339244 246.986648 187.339244 
C 246.22491 187.339244 245.494268 187.641885 244.955638 188.180516 
C 244.417008 188.719146 244.114366 189.449787 244.114366 190.211525 
C 244.114366 190.973263 244.417008 191.703905 244.955638 192.242535 
C 245.494268 192.781165 246.22491 193.083806 246.986648 193.083806 
z
" style="fill:#808080;stroke:#000000;"/>
    <path clip-path="url(#p5a9fbe2669)" d="M 250.367172 173.670121 
C 250.764977 173.670121 251.146542 173.512072 251.427832 173.230781 
C 251.709123 172.949491 251.867172 172.567926 251.867172 172.170121 
C 251.867172 171.772316 251.709123 171.390751 251.427832 171.109461 
C 251.146542 170.828171 250.764977 170.670121 250.367172 170.670121 
C 249.969367 170.670121 249.587802 170.828171 249.306512 171.109461 
C 249.025222 171.390751 248.867172 171.772316 248.867172 172.170121 
C 248.867172 172.567926 249.025222 172.949491 249.306512 173.230781 
C 249.587802 173.512072 249.969367 173.670121 250.367172 173.670121 
z
" style="fill:#808080;stroke:#000000;"/>
    <path clip-path="url(#p5a9fbe2669)" d="M 253.747697 173.882935 
C 254.145501 173.882935 254.527067 173.724885 254.808357 173.443595 
C 255.089647 173.162304 255.247697 172.780739 255.247697 172.382935 
C 255.247697 171.98513 255.089647 171.603565 254.808357 171.322274 
C 254.527067 171.040984 254.145501 170.882935 253.747697 170.882935 
C 253.349892 170.882935 252.968327 171.040984 252.687037 171.322274 
C 252.405746 171.603565 252.247697 171.98513 252.247697 172.382935 
C 252.247697 172.780739 252.405746 173.162304 252.687037 173.443595 
C 252.968327 173.724885 253.349892 173.882935 253.747697 173.882935 
z
" style="fill:#808080;stroke:#000000;"/>
    <path clip-path="url(#p5a9fbe2669)" d="M 257.128221 147.141846 
C 257.817239 147.141846 258.478129 146.868096 258.965339 146.380887 
C 259.452548 145.893678 259.726298 145.232788 259.726298 144.54377 
C 259.726298 143.854752 259.452548 143.193862 258.965339 142.706653 
C 258.478129 142.219443 257.817239 141.945694 257.128221 141.945694 
C 256.439203 141.945694 255.778313 142.219443 255.291104 142.706653 
C 254.803895 143.193862 254.530145 143.854752 254.530145 144.54377 
C 254.530145 145.232788 254.803895 145.893678 255.291104 146.380887 
C 255.778313 146.868096 256.439203 147.141846 257.128221 147.141846 
z
" style="fill:#808080;stroke:#000000;"/>
    <path clip-path="url(#p5a9fbe2669)" d="M 260.508746 131.513138 
C 261.527278 131.513138 262.50423 131.108471 263.224441 130.388261 
C 263.944652 129.66805 264.349319 128.691097 264.349319 127.672566 
C 264.349319 126.654034 263.944652 125.677081 263.224441 124.95687 
C 262.50423 124.23666 261.527278 123.831993 260.508746 123.831993 
C 259.490214 123.831993 258.513262 124.23666 257.793051 124.95687 
C 257.07284 125.677081 256.668173 126.654034 256.668173 127.672566 
C 256.668173 128.691097 257.07284 129.66805 257.793051 130.388261 
C 258.513262 131.108471 259.490214 131.513138 260.508746 131.513138 
z
" style="fill:#808080;stroke:#000000;"/>
    <path clip-path="url(#p5a9fbe2669)" d="M 263.889271 108.534846 
C 264.615559 108.534846 265.312199 108.246288 265.825762 107.732725 
C 266.339326 107.219161 266.627883 106.522521 266.627883 105.796233 
C 266.627883 105.069944 266.339326 104.373305 265.825762 103.859741 
C 265.312199 103.346178 264.615559 103.05762 263.889271 103.05762 
C 263.162982 103.05762 262.466342 103.346178 261.952779 103.859741 
C 261.439215 104.373305 261.150658 105.069944 261.150658 105.796233 
C 261.150658 106.522521 261.439215 107.219161 261.952779 107.732725 
C 262.466342 108.246288 263.162982 108.534846 263.889271 108.534846 
z
" style="fill:#808080;stroke:#000000;"/>
    <path clip-path="url(#p5a9fbe2669)" d="M 267.269795 151.504721 
C 268.492321 151.504721 269.66494 151.019007 270.529396 150.15455 
C 271.393853 149.290094 271.879567 148.117475 271.879567 146.894949 
C 271.879567 145.672423 271.393853 144.499804 270.529396 143.635348 
C 269.66494 142.770892 268.492321 142.285177 267.269795 142.285177 
C 266.047269 142.285177 264.87465 142.770892 264.010194 143.635348 
C 263.145738 144.499804 262.660023 145.672423 262.660023 146.894949 
C 262.660023 148.117475 263.145738 149.290094 264.010194 150.15455 
C 264.87465 151.019007 266.047269 151.504721 267.269795 151.504721 
z
" style="fill:#808080;stroke:#000000;"/>
    <path clip-path="url(#p5a9fbe2669)" d="M 270.65032 139.393986 
C 271.751791 139.393986 272.808297 138.956367 273.587155 138.177509 
C 274.366013 137.398651 274.803632 136.342145 274.803632 135.240674 
C 274.803632 134.139203 274.366013 133.082696 273.587155 132.303839 
C 272.808297 131.524981 271.751791 131.087362 270.65032 131.087362 
C 269.548849 131.087362 268.492343 131.524981 267.713485 132.303839 
C 266.934627 133.082696 266.497008 134.139203 266.497008 135.240674 
C 266.497008 136.342145 266.934627 137.398651 267.713485 138.177509 
C 268.492343 138.956367 269.548849 139.393986 270.65032 139.393986 
z
" style="fill:#808080;stroke:#000000;"/>
    <path clip-path="url(#p5a9fbe2669)" d="M 274.030844 112.259531 
C 274.815326 112.259531 275.567782 111.947853 276.122494 111.393141 
C 276.677207 110.838429 276.988884 110.085972 276.988884 109.301491 
C 276.988884 108.51701 276.677207 107.764553 276.122494 107.209841 
C 275.567782 106.655129 274.815326 106.343451 274.030844 106.343451 
C 273.246363 106.343451 272.493906 106.655129 271.939194 107.209841 
C 271.384482 107.764553 271.072805 108.51701 271.072805 109.301491 
C 271.072805 110.085972 271.384482 110.838429 271.939194 111.393141 
C 272.493906 111.947853 273.246363 112.259531 274.030844 112.259531 
z
" style="fill:#808080;stroke:#000000;"/>
    <path clip-path="url(#p5a9fbe2669)" d="M 277.411369 89.676624 
C 277.7622 89.676624 278.098709 89.537238 278.346783 89.289163 
C 278.594858 89.041088 278.734245 88.704579 278.734245 88.353749 
C 278.734245 88.002918 278.594858 87.666409 278.346783 87.418334 
C 278.098709 87.170259 277.7622 87.030873 277.411369 87.030873 
C 277.060538 87.030873 276.724029 87.170259 276.475955 87.418334 
C 276.22788 87.666409 276.088493 88.002918 276.088493 88.353749 
C 276.088493 88.704579 276.22788 89.041088 276.475955 89.289163 
C 276.724029 89.537238 277.060538 89.676624 277.411369 89.676624 
z
" style="fill:#808080;stroke:#000000;"/>
    <path clip-path="url(#p5a9fbe2669)" d="M 280.791894 70.159805 
C 281.384906 70.159805 281.95371 69.924198 282.373032 69.504876 
C 282.792355 69.085553 283.027962 68.516749 283.027962 67.923737 
C 283.027962 67.330725 282.792355 66.761921 282.373032 66.342598 
C 281.95371 65.923275 281.384906 65.687669 280.791894 65.687669 
C 280.198881 65.687669 279.630078 65.923275 279.210755 66.342598 
C 278.791432 66.761921 278.555826 67.330725 278.555826 67.923737 
C 278.555826 68.516749 278.791432 69.085553 279.210755 69.504876 
C 279.630078 69.924198 280.198881 70.159805 280.791894 70.159805 
z
" style="fill:#808080;stroke:#000000;"/>
    <path clip-path="url(#p5a9fbe2669)" d="M 284.172418 70.38276 
C 284.750415 70.38276 285.304816 70.153119 285.713522 69.744414 
C 286.122227 69.335708 286.351868 68.781307 286.351868 68.20331 
C 286.351868 67.625314 286.122227 67.070912 285.713522 66.662207 
C 285.304816 66.253501 284.750415 66.023861 284.172418 66.023861 
C 283.594421 66.023861 283.04002 66.253501 282.631315 66.662207 
C 282.222609 67.070912 281.992969 67.625314 281.992969 68.20331 
C 281.992969 68.781307 282.222609 69.335708 282.631315 69.744414 
C 283.04002 70.153119 283.594421 70.38276 284.172418 70.38276 
z
" style="fill:#808080;stroke:#000000;"/>
    <path clip-path="url(#p5a9fbe2669)" d="M 287.552943 99.097971 
C 288.115524 99.097971 288.655138 98.874456 289.052943 98.476651 
C 289.450748 98.078846 289.674263 97.539232 289.674263 96.976651 
C 289.674263 96.41407 289.450748 95.874456 289.052943 95.476651 
C 288.655138 95.078846 288.115524 94.855331 287.552943 94.855331 
C 286.990362 94.855331 286.450748 95.078846 286.052943 95.476651 
C 285.655138 95.874456 285.431623 96.41407 285.431623 96.976651 
C 285.431623 97.539232 285.655138 98.078846 286.052943 98.476651 
C 286.450748 98.874456 286.990362 99.097971 287.552943 99.097971 
z
" style="fill:#808080;stroke:#000000;"/>
    <path clip-path="url(#p5a9fbe2669)" d="M 290.933467 69.682715 
C 291.52648 69.682715 292.095283 69.447108 292.514606 69.027785 
C 292.933929 68.608463 293.169535 68.039659 293.169535 67.446647 
C 293.169535 66.853634 292.933929 66.284831 292.514606 65.865508 
C 292.095283 65.446185 291.52648 65.210579 290.933467 65.210579 
C 290.340455 65.210579 289.771652 65.446185 289.352329 65.865508 
C 288.933006 66.284831 288.6974 66.853634 288.6974 67.446647 
C 288.6974 68.039659 288.933006 68.608463 289.352329 69.027785 
C 289.771652 69.447108 290.340455 69.682715 290.933467 69.682715 
z
" style="fill:#808080;stroke:#000000;"/>
    <path clip-path="url(#p5a9fbe2669)" d="M 294.313992 52.343339 
C 295.20351 52.343339 296.056716 51.989929 296.6857 51.360945 
C 297.314685 50.731961 297.668094 49.878755 297.668094 48.989237 
C 297.668094 48.099718 297.314685 47.246513 296.6857 46.617528 
C 296.056716 45.988544 295.20351 45.635135 294.313992 45.635135 
C 293.424474 45.635135 292.571268 45.988544 291.942284 46.617528 
C 291.313299 47.246513 290.95989 48.099718 290.95989 48.989237 
C 290.95989 49.878755 291.313299 50.731961 291.942284 51.360945 
C 292.571268 51.989929 293.424474 52.343339 294.313992 52.343339 
z
" style="fill:#808080;stroke:#000000;"/>
    <path clip-path="url(#p5a9fbe2669)" d="M 297.694517 61.702801 
C 298.444624 61.702801 299.164111 61.40478 299.694517 60.874373 
C 300.224923 60.343967 300.522944 59.624481 300.522944 58.874373 
C 300.522944 58.124266 300.224923 57.40478 299.694517 56.874373 
C 299.164111 56.343967 298.444624 56.045946 297.694517 56.045946 
C 296.944409 56.045946 296.224923 56.343967 295.694517 56.874373 
C 295.164111 57.40478 294.86609 58.124266 294.86609 58.874373 
C 294.86609 59.624481 295.164111 60.343967 295.694517 60.874373 
C 296.224923 61.40478 296.944409 61.702801 297.694517 61.702801 
z
" style="fill:#808080;stroke:#000000;"/>
    <path clip-path="url(#p5a9fbe2669)" d="M 301.075041 57.482775 
C 301.892452 57.482775 302.676494 57.158014 303.254491 56.580017 
C 303.832488 56.002021 304.157248 55.217979 304.157248 54.400568 
C 304.157248 53.583157 303.832488 52.799115 303.254491 52.221119 
C 302.676494 51.643122 301.892452 51.318361 301.075041 51.318361 
C 300.25763 51.318361 299.473589 51.643122 298.895592 52.221119 
C 298.317595 52.799115 297.992834 53.583157 297.992834 54.400568 
C 297.992834 55.217979 298.317595 56.002021 298.895592 56.580017 
C 299.473589 57.158014 300.25763 57.482775 301.075041 57.482775 
z
" style="fill:#808080;stroke:#000000;"/>
    <path clip-path="url(#p5a9fbe2669)" d="M 304.455566 76.586348 
C 304.874889 76.586348 305.277094 76.419749 305.5736 76.123243 
C 305.870106 75.826737 306.036705 75.424532 306.036705 75.005209 
C 306.036705 74.585886 305.870106 74.183681 305.5736 73.887175 
C 305.277094 73.590669 304.874889 73.42407 304.455566 73.42407 
C 304.036243 73.42407 303.634038 73.590669 303.337532 73.887175 
C 303.041026 74.183681 302.874427 74.585886 302.874427 75.005209 
C 302.874427 75.424532 303.041026 75.826737 303.337532 76.123243 
C 303.634038 76.419749 304.036243 76.586348 304.455566 76.586348 
z
" style="fill:#808080;stroke:#000000;"/>
    <path clip-path="url(#p5a9fbe2669)" d="M 307.836091 82.897398 
C 307.836091 82.897398 307.836091 82.897398 307.836091 82.897398 
C 307.836091 82.897398 307.836091 82.897398 307.836091 82.897398 
C 307.836091 82.897398 307.836091 82.897398 307.836091 82.897398 
C 307.836091 82.897398 307.836091 82.897398 307.836091 82.897398 
C 307.836091 82.897398 307.836091 82.897398 307.836091 82.897398 
C 307.836091 82.897398 307.836091 82.897398 307.836091 82.897398 
C 307.836091 82.897398 307.836091 82.897398 307.836091 82.897398 
C 307.836091 82.897398 307.836091 82.897398 307.836091 82.897398 
z
" style="fill:#808080;stroke:#000000;"/>
    <path clip-path="url(#p5a9fbe2669)" d="M 311.216615 88.535776 
C 311.513121 88.535776 311.797523 88.417973 312.007185 88.208311 
C 312.216846 87.99865 312.334649 87.714248 312.334649 87.417742 
C 312.334649 87.121236 312.216846 86.836834 312.007185 86.627172 
C 311.797523 86.417511 311.513121 86.299708 311.216615 86.299708 
C 310.920109 86.299708 310.635707 86.417511 310.426046 86.627172 
C 310.216384 86.836834 310.098581 87.121236 310.098581 87.417742 
C 310.098581 87.714248 310.216384 87.99865 310.426046 88.208311 
C 310.635707 88.417973 310.920109 88.535776 311.216615 88.535776 
z
" style="fill:#808080;stroke:#000000;"/>
    <path clip-path="url(#p5a9fbe2669)" d="M 314.59714 98.250243 
C 315.14387 98.250243 315.668281 98.033025 316.054878 97.646428 
C 316.441474 97.259831 316.658693 96.73542 316.658693 96.18869 
C 316.658693 95.64196 316.441474 95.117549 316.054878 94.730952 
C 315.668281 94.344356 315.14387 94.127137 314.59714 94.127137 
C 314.05041 94.127137 313.525998 94.344356 313.139402 94.730952 
C 312.752805 95.117549 312.535587 95.64196 312.535587 96.18869 
C 312.535587 96.73542 312.752805 97.259831 313.139402 97.646428 
C 313.525998 98.033025 314.05041 98.250243 314.59714 98.250243 
z
" style="fill:#808080;stroke:#000000;"/>
    <path clip-path="url(#p5a9fbe2669)" d="M 317.977664 116.083007 
C 318.81631 116.083007 319.62072 115.74981 320.213732 115.156798 
C 320.806745 114.563786 321.139942 113.759376 321.139942 112.92073 
C 321.139942 112.082084 320.806745 111.277674 320.213732 110.684662 
C 319.62072 110.09165 318.81631 109.758452 317.977664 109.758452 
C 317.139019 109.758452 316.334609 110.09165 315.741596 110.684662 
C 315.148584 111.277674 314.815387 112.082084 314.815387 112.92073 
C 314.815387 113.759376 315.148584 114.563786 315.741596 115.156798 
C 316.334609 115.74981 317.139019 116.083007 317.977664 116.083007 
z
" style="fill:#808080;stroke:#000000;"/>
    <path clip-path="url(#p5a9fbe2669)" d="M 321.358189 132.39142 
C 322.323543 132.39142 323.249488 132.00788 323.932097 131.325272 
C 324.614705 130.642664 324.998244 129.716719 324.998244 128.751365 
C 324.998244 127.786011 324.614705 126.860065 323.932097 126.177457 
C 323.249488 125.494849 322.323543 125.11131 321.358189 125.11131 
C 320.392835 125.11131 319.46689 125.494849 318.784281 126.177457 
C 318.101673 126.860065 317.718134 127.786011 317.718134 128.751365 
C 317.718134 129.716719 318.101673 130.642664 318.784281 131.325272 
C 319.46689 132.00788 320.392835 132.39142 321.358189 132.39142 
z
" style="fill:#808080;stroke:#000000;"/>
    <path clip-path="url(#p5a9fbe2669)" d="M 324.738714 157.839928 
C 325.26912 157.839928 325.777873 157.629195 326.152927 157.254141 
C 326.527981 156.879087 326.738714 156.370334 326.738714 155.839928 
C 326.738714 155.309521 326.527981 154.800768 326.152927 154.425714 
C 325.777873 154.05066 325.26912 153.839928 324.738714 153.839928 
C 324.208307 153.839928 323.699554 154.05066 323.3245 154.425714 
C 322.949446 154.800768 322.738714 155.309521 322.738714 155.839928 
C 322.738714 156.370334 322.949446 156.879087 323.3245 157.254141 
C 323.699554 157.629195 324.208307 157.839928 324.738714 157.839928 
z
" style="fill:#808080;stroke:#000000;"/>
    <path clip-path="url(#p5a9fbe2669)" d="M 328.119238 157.765609 
C 328.665968 157.765609 329.19038 157.548391 329.576976 157.161794 
C 329.963573 156.775198 330.180791 156.250786 330.180791 155.704056 
C 330.180791 155.157326 329.963573 154.632915 329.576976 154.246318 
C 329.19038 153.859722 328.665968 153.642503 328.119238 153.642503 
C 327.572508 153.642503 327.048097 153.859722 326.6615 154.246318 
C 326.274904 154.632915 326.057685 155.157326 326.057685 155.704056 
C 326.057685 156.250786 326.274904 156.775198 326.6615 157.161794 
C 327.048097 157.548391 327.572508 157.765609 328.119238 157.765609 
z
" style="fill:#808080;stroke:#000000;"/>
    <path clip-path="url(#p5a9fbe2669)" d="M 331.499763 176.210067 
C 331.874817 176.210067 332.23456 176.061056 332.499763 175.795853 
C 332.764966 175.53065 332.913976 175.170907 332.913976 174.795853 
C 332.913976 174.420799 332.764966 174.061056 332.499763 173.795853 
C 332.23456 173.53065 331.874817 173.38164 331.499763 173.38164 
C 331.124709 173.38164 330.764966 173.53065 330.499763 173.795853 
C 330.23456 174.061056 330.085549 174.420799 330.085549 174.795853 
C 330.085549 175.170907 330.23456 175.53065 330.499763 175.795853 
C 330.764966 176.061056 331.124709 176.210067 331.499763 176.210067 
z
" style="fill:#808080;stroke:#000000;"/>
    <path clip-path="url(#p5a9fbe2669)" d="M 334.880287 175.673817 
C 335.231118 175.673817 335.567627 175.534431 335.815702 175.286356 
C 336.063777 175.038281 336.203163 174.701773 336.203163 174.350942 
C 336.203163 174.000111 336.063777 173.663602 335.815702 173.415527 
C 335.567627 173.167453 335.231118 173.028066 334.880287 173.028066 
C 334.529457 173.028066 334.192948 173.167453 333.944873 173.415527 
C 333.696798 173.663602 333.557412 174.000111 333.557412 174.350942 
C 333.557412 174.701773 333.696798 175.038281 333.944873 175.286356 
C 334.192948 175.534431 334.529457 175.673817 334.880287 175.673817 
z
" style="fill:#808080;stroke:#000000;"/>
    <path clip-path="url(#p5a9fbe2669)" d="M 338.260812 186.818217 
C 338.260812 186.818217 338.260812 186.818217 338.260812 186.818217 
C 338.260812 186.818217 338.260812 186.818217 338.260812 186.818217 
C 338.260812 186.818217 338.260812 186.818217 338.260812 186.818217 
C 338.260812 186.818217 338.260812 186.818217 338.260812 186.818217 
C 338.260812 186.818217 338.260812 186.818217 338.260812 186.818217 
C 338.260812 186.818217 338.260812 186.818217 338.260812 186.818217 
C 338.260812 186.818217 338.260812 186.818217 338.260812 186.818217 
C 338.260812 186.818217 338.260812 186.818217 338.260812 186.818217 
z
" style="fill:#808080;stroke:#000000;"/>
    <path clip-path="url(#p5a9fbe2669)" d="M 341.641337 213.982413 
C 341.641337 213.982413 341.641337 213.982413 341.641337 213.982413 
C 341.641337 213.982413 341.641337 213.982413 341.641337 213.982413 
C 341.641337 213.982413 341.641337 213.982413 341.641337 213.982413 
C 341.641337 213.982413 341.641337 213.982413 341.641337 213.982413 
C 341.641337 213.982413 341.641337 213.982413 341.641337 213.982413 
C 341.641337 213.982413 341.641337 213.982413 341.641337 213.982413 
C 341.641337 213.982413 341.641337 213.982413 341.641337 213.982413 
C 341.641337 213.982413 341.641337 213.982413 341.641337 213.982413 
z
" style="fill:#808080;stroke:#000000;"/>
    <path clip-path="url(#p5a9fbe2669)" d="M 345.021861 235.02665 
C 345.671474 235.02665 346.294567 234.768556 346.753912 234.309211 
C 347.213257 233.849866 347.471351 233.226772 347.471351 232.57716 
C 347.471351 231.927548 347.213257 231.304455 346.753912 230.845109 
C 346.294567 230.385764 345.671474 230.12767 345.021861 230.12767 
C 344.372249 230.12767 343.749156 230.385764 343.28981 230.845109 
C 342.830465 231.304455 342.572372 231.927548 342.572372 232.57716 
C 342.572372 233.226772 342.830465 233.849866 343.28981 234.309211 
C 343.749156 234.768556 344.372249 235.02665 345.021861 235.02665 
z
" style="fill:#808080;stroke:#000000;"/>
    <path clip-path="url(#p5a9fbe2669)" d="M 348.402386 245.784442 
C 348.698892 245.784442 348.983294 245.666639 349.192955 245.456978 
C 349.402617 245.247316 349.52042 244.962914 349.52042 244.666408 
C 349.52042 244.369902 349.402617 244.0855 349.192955 243.875839 
C 348.983294 243.666177 348.698892 243.548374 348.402386 243.548374 
C 348.10588 243.548374 347.821478 243.666177 347.611816 243.875839 
C 347.402155 244.0855 347.284352 244.369902 347.284352 244.666408 
C 347.284352 244.962914 347.402155 245.247316 347.611816 245.456978 
C 347.821478 245.666639 348.10588 245.784442 348.402386 245.784442 
z
" style="fill:#808080;stroke:#000000;"/>
    <path clip-path="url(#p5a9fbe2669)" d="M 351.782911 236.815285 
C 352.345491 236.815285 352.885106 236.591769 353.282911 236.193965 
C 353.680715 235.79616 353.904231 235.256546 353.904231 234.693965 
C 353.904231 234.131384 353.680715 233.591769 353.282911 233.193965 
C 352.885106 232.79616 352.345491 232.572645 351.782911 232.572645 
C 351.22033 232.572645 350.680715 232.79616 350.282911 233.193965 
C 349.885106 233.591769 349.66159 234.131384 349.66159 234.693965 
C 349.66159 235.256546 349.885106 235.79616 350.282911 236.193965 
C 350.680715 236.591769 351.22033 236.815285 351.782911 236.815285 
z
" style="fill:#808080;stroke:#000000;"/>
    <path clip-path="url(#p5a9fbe2669)" d="M 355.163435 244.57252 
C 355.488241 244.57252 355.799788 244.443473 356.029461 244.2138 
C 356.259133 243.984127 356.38818 243.672581 356.38818 243.347775 
C 356.38818 243.022969 356.259133 242.711422 356.029461 242.481749 
C 355.799788 242.252077 355.488241 242.12303 355.163435 242.12303 
C 354.838629 242.12303 354.527082 242.252077 354.29741 242.481749 
C 354.067737 242.711422 353.93869 243.022969 353.93869 243.347775 
C 353.93869 243.672581 354.067737 243.984127 354.29741 244.2138 
C 354.527082 244.443473 354.838629 244.57252 355.163435 244.57252 
z
" style="fill:#808080;stroke:#000000;"/>
    <path clip-path="url(#p5a9fbe2669)" d="M 358.54396 251.386115 
C 358.731487 251.386115 358.911358 251.31161 359.04396 251.179008 
C 359.176561 251.046407 359.251067 250.866535 359.251067 250.679008 
C 359.251067 250.491481 359.176561 250.31161 359.04396 250.179008 
C 358.911358 250.046407 358.731487 249.971901 358.54396 249.971901 
C 358.356433 249.971901 358.176561 250.046407 358.04396 250.179008 
C 357.911358 250.31161 357.836853 250.491481 357.836853 250.679008 
C 357.836853 250.866535 357.911358 251.046407 358.04396 251.179008 
C 358.176561 251.31161 358.356433 251.386115 358.54396 251.386115 
z
" style="fill:#808080;stroke:#000000;"/>
    <path clip-path="url(#p5a9fbe2669)" d="M 361.924484 244.756974 
C 362.249291 244.756974 362.560837 244.627927 362.79051 244.398254 
C 363.020182 244.168582 363.149229 243.857035 363.149229 243.532229 
C 363.149229 243.207423 363.020182 242.895876 362.79051 242.666204 
C 362.560837 242.436531 362.249291 242.307484 361.924484 242.307484 
C 361.599678 242.307484 361.288132 242.436531 361.058459 242.666204 
C 360.828786 242.895876 360.699739 243.207423 360.699739 243.532229 
C 360.699739 243.857035 360.828786 244.168582 361.058459 244.398254 
C 361.288132 244.627927 361.599678 244.756974 361.924484 244.756974 
z
" style="fill:#808080;stroke:#000000;"/>
    <path clip-path="url(#p5a9fbe2669)" d="M 365.305009 250.28394 
C 365.437611 250.28394 365.564799 250.231257 365.658562 250.137493 
C 365.752326 250.04373 365.805009 249.916541 365.805009 249.78394 
C 365.805009 249.651338 365.752326 249.52415 365.658562 249.430386 
C 365.564799 249.336623 365.437611 249.28394 365.305009 249.28394 
C 365.172407 249.28394 365.045219 249.336623 364.951456 249.430386 
C 364.857692 249.52415 364.805009 249.651338 364.805009 249.78394 
C 364.805009 249.916541 364.857692 250.04373 364.951456 250.137493 
C 365.045219 250.231257 365.172407 250.28394 365.305009 250.28394 
z
" style="fill:#808080;stroke:#000000;"/>
    <path clip-path="url(#p5a9fbe2669)" d="M 368.685534 224.355143 
C 368.685534 224.355143 368.685534 224.355143 368.685534 224.355143 
C 368.685534 224.355143 368.685534 224.355143 368.685534 224.355143 
C 368.685534 224.355143 368.685534 224.355143 368.685534 224.355143 
C 368.685534 224.355143 368.685534 224.355143 368.685534 224.355143 
C 368.685534 224.355143 368.685534 224.355143 368.685534 224.355143 
C 368.685534 224.355143 368.685534 224.355143 368.685534 224.355143 
C 368.685534 224.355143 368.685534 224.355143 368.685534 224.355143 
C 368.685534 224.355143 368.685534 224.355143 368.685534 224.355143 
z
" style="fill:#808080;stroke:#000000;"/>
   </g>
   <g id="matplotlib.axis_1"/>
   <g id="matplotlib.axis_2"/>
   <g id="line2d_1">
    <path clip-path="url(#p5a9fbe2669)" d="M 34.013597 131.576599 
L 37.394121 131.576599 
L 40.774646 131.576599 
L 44.155171 131.576599 
L 47.535695 131.576599 
L 50.91622 131.576599 
L 54.296745 131.576599 
L 57.677269 131.576599 
L 61.057794 131.576599 
L 64.438318 131.576599 
L 67.818843 131.576599 
L 71.199368 131.576599 
L 74.579892 131.576599 
L 77.960417 131.576599 
L 81.340941 131.576599 
L 84.721466 131.576599 
L 88.101991 165.201366 
L 91.482515 165.201366 
L 94.86304 165.201366 
L 98.243564 165.201366 
L 101.624089 165.201366 
L 105.004614 165.201366 
L 108.385138 165.201366 
L 111.765663 165.201366 
L 115.146188 165.201366 
L 118.526712 165.201366 
L 121.907237 165.201366 
L 125.287761 165.201366 
L 128.668286 165.201366 
L 132.048811 165.201366 
L 135.429335 165.201366 
L 138.80986 165.201366 
L 142.190384 165.201366 
L 145.570909 165.201366 
L 148.951434 165.201366 
L 152.331958 165.201366 
L 155.712483 165.201366 
L 159.093008 165.201366 
L 162.473532 165.201366 
L 165.854057 165.201366 
L 169.234581 165.201366 
L 172.615106 165.201366 
L 175.995631 165.201366 
L 179.376155 165.201366 
L 182.75668 165.201366 
L 186.137204 165.201366 
L 189.517729 165.201366 
L 192.898254 165.201366 
L 196.278778 165.201366 
L 199.659303 165.201366 
L 203.039828 165.201366 
L 206.420352 165.201366 
L 209.800877 165.201366 
L 213.181401 165.201366 
L 216.561926 165.201366 
L 219.942451 165.201366 
L 223.322975 165.201366 
L 226.7035 165.201366 
L 230.084024 165.201366 
L 233.464549 165.201366 
L 236.845074 165.201366 
L 240.225598 165.201366 
L 243.606123 165.201366 
L 246.986648 165.201366 
L 250.367172 165.201366 
L 253.747697 165.201366 
L 257.128221 165.201366 
L 260.508746 83.02881 
L 263.889271 83.02881 
L 267.269795 83.02881 
L 270.65032 83.02881 
L 274.030844 83.02881 
L 277.411369 83.02881 
L 280.791894 83.02881 
L 284.172418 83.02881 
L 287.552943 83.02881 
L 290.933467 83.02881 
L 294.313992 83.02881 
L 297.694517 83.02881 
L 301.075041 83.02881 
L 304.455566 83.02881 
L 307.836091 83.02881 
L 311.216615 83.02881 
L 314.59714 83.02881 
L 317.977664 83.02881 
L 321.358189 168.477211 
L 324.738714 168.477211 
L 328.119238 168.477211 
L 331.499763 168.477211 
L 334.880287 168.477211 
L 338.260812 186.818217 
L 341.641337 213.982413 
L 345.021861 213.982413 
L 348.402386 248.52563 
L 351.782911 248.52563 
L 355.163435 248.52563 
L 358.54396 248.52563 
L 361.924484 248.52563 
L 365.305009 248.52563 
L 368.685534 224.355143 
" style="fill:none;stroke:#0000ff;stroke-linecap:square;stroke-width:3;"/>
   </g>
   <g id="patch_3">
    <path d="M 17.28 262.341818 
L 17.28 5.76 
" style="fill:none;stroke:#000000;stroke-linecap:square;stroke-linejoin:miter;stroke-width:0.8;"/>
   </g>
   <g id="patch_4">
    <path d="M 17.28 262.341818 
L 385.41913 262.341818 
" style="fill:none;stroke:#000000;stroke-linecap:square;stroke-linejoin:miter;stroke-width:0.8;"/>
   </g>
  </g>
 </g>
 <defs>
  <clipPath id="p5a9fbe2669">
   <rect height="256.581818" width="368.13913" x="17.28" y="5.76"/>
  </clipPath>
 </defs>
</svg>
