<?xml version="1.0" encoding="utf-8" standalone="no"?>
<!DOCTYPE svg PUBLIC "-//W3C//DTD SVG 1.1//EN"
  "http://www.w3.org/Graphics/SVG/1.1/DTD/svg11.dtd">
<!-- Created with matplotlib (https://matplotlib.org/) -->
<svg height="216pt" version="1.1" viewBox="0 0 288 216" width="288pt" xmlns="http://www.w3.org/2000/svg" xmlns:xlink="http://www.w3.org/1999/xlink">
 <defs>
  <style type="text/css">
*{stroke-linecap:butt;stroke-linejoin:round;}
  </style>
 </defs>
 <g id="figure_1">
  <g id="patch_1">
   <path d="M 0 216 
L 288 216 
L 288 0 
L 0 0 
z
" style="fill:none;"/>
  </g>
  <g id="axes_1">
   <g id="patch_2">
    <path d="M 28.8 194.4 
L 288 194.4 
L 288 0 
L 28.8 0 
z
" style="fill:none;"/>
   </g>
   <g id="PathCollection_1">
    <defs>
     <path d="M 0 3 
C 0.795609 3 1.55874 2.683901 2.12132 2.12132 
C 2.683901 1.55874 3 0.795609 3 0 
C 3 -0.795609 2.683901 -1.55874 2.12132 -2.12132 
C 1.55874 -2.683901 0.795609 -3 0 -3 
C -0.795609 -3 -1.55874 -2.683901 -2.12132 -2.12132 
C -2.683901 -1.55874 -3 -0.795609 -3 0 
C -3 0.795609 -2.683901 1.55874 -2.12132 2.12132 
C -1.55874 2.683901 -0.795609 3 0 3 
z
" id="m5ac18c4d0b" style="stroke:#000000;"/>
    </defs>
    <g clip-path="url(#p163edb953a)">
     <use style="stroke:#000000;" x="40.581818" xlink:href="#m5ac18c4d0b" y="107.24005"/>
     <use style="stroke:#000000;" x="42.961983" xlink:href="#m5ac18c4d0b" y="141.013394"/>
     <use style="stroke:#000000;" x="45.342149" xlink:href="#m5ac18c4d0b" y="129.222476"/>
     <use style="stroke:#000000;" x="47.722314" xlink:href="#m5ac18c4d0b" y="130.43696"/>
     <use style="stroke:#000000;" x="50.102479" xlink:href="#m5ac18c4d0b" y="83.408506"/>
     <use style="stroke:#000000;" x="52.482645" xlink:href="#m5ac18c4d0b" y="138.401172"/>
     <use style="stroke:#000000;" x="54.86281" xlink:href="#m5ac18c4d0b" y="52.079127"/>
     <use style="stroke:#000000;" x="57.242975" xlink:href="#m5ac18c4d0b" y="96.751139"/>
     <use style="stroke:#000000;" x="59.62314" xlink:href="#m5ac18c4d0b" y="72.089703"/>
     <use style="stroke:#000000;" x="62.003306" xlink:href="#m5ac18c4d0b" y="81.651516"/>
     <use style="stroke:#000000;" x="64.383471" xlink:href="#m5ac18c4d0b" y="47.778002"/>
     <use style="stroke:#000000;" x="66.763636" xlink:href="#m5ac18c4d0b" y="118.968732"/>
     <use style="stroke:#000000;" x="69.143802" xlink:href="#m5ac18c4d0b" y="87.666127"/>
     <use style="stroke:#000000;" x="71.523967" xlink:href="#m5ac18c4d0b" y="93.287641"/>
     <use style="stroke:#000000;" x="73.904132" xlink:href="#m5ac18c4d0b" y="68.844139"/>
     <use style="stroke:#000000;" x="76.284298" xlink:href="#m5ac18c4d0b" y="119.501084"/>
     <use style="stroke:#000000;" x="78.664463" xlink:href="#m5ac18c4d0b" y="108.338396"/>
     <use style="stroke:#000000;" x="81.044628" xlink:href="#m5ac18c4d0b" y="129.854634"/>
     <use style="stroke:#000000;" x="83.424793" xlink:href="#m5ac18c4d0b" y="119.339554"/>
     <use style="stroke:#000000;" x="85.804959" xlink:href="#m5ac18c4d0b" y="116.137107"/>
     <use style="stroke:#000000;" x="88.185124" xlink:href="#m5ac18c4d0b" y="156.426975"/>
     <use style="stroke:#000000;" x="90.565289" xlink:href="#m5ac18c4d0b" y="118.296984"/>
     <use style="stroke:#000000;" x="92.945455" xlink:href="#m5ac18c4d0b" y="128.370973"/>
     <use style="stroke:#000000;" x="95.32562" xlink:href="#m5ac18c4d0b" y="140.323298"/>
     <use style="stroke:#000000;" x="97.705785" xlink:href="#m5ac18c4d0b" y="135.133609"/>
     <use style="stroke:#000000;" x="100.08595" xlink:href="#m5ac18c4d0b" y="167.645674"/>
     <use style="stroke:#000000;" x="102.466116" xlink:href="#m5ac18c4d0b" y="156.167147"/>
     <use style="stroke:#000000;" x="104.846281" xlink:href="#m5ac18c4d0b" y="170.249997"/>
     <use style="stroke:#000000;" x="107.226446" xlink:href="#m5ac18c4d0b" y="153.493327"/>
     <use style="stroke:#000000;" x="109.606612" xlink:href="#m5ac18c4d0b" y="132.679393"/>
     <use style="stroke:#000000;" x="111.986777" xlink:href="#m5ac18c4d0b" y="150.460773"/>
     <use style="stroke:#000000;" x="114.366942" xlink:href="#m5ac18c4d0b" y="137.08746"/>
     <use style="stroke:#000000;" x="116.747107" xlink:href="#m5ac18c4d0b" y="134.340741"/>
     <use style="stroke:#000000;" x="119.127273" xlink:href="#m5ac18c4d0b" y="128.283508"/>
     <use style="stroke:#000000;" x="121.507438" xlink:href="#m5ac18c4d0b" y="115.245688"/>
     <use style="stroke:#000000;" x="123.887603" xlink:href="#m5ac18c4d0b" y="92.500907"/>
     <use style="stroke:#000000;" x="126.267769" xlink:href="#m5ac18c4d0b" y="104.785722"/>
     <use style="stroke:#000000;" x="128.647934" xlink:href="#m5ac18c4d0b" y="68.970717"/>
     <use style="stroke:#000000;" x="131.028099" xlink:href="#m5ac18c4d0b" y="32.440357"/>
     <use style="stroke:#000000;" x="133.408264" xlink:href="#m5ac18c4d0b" y="43.230023"/>
     <use style="stroke:#000000;" x="135.78843" xlink:href="#m5ac18c4d0b" y="55.557994"/>
     <use style="stroke:#000000;" x="138.168595" xlink:href="#m5ac18c4d0b" y="64.58329"/>
     <use style="stroke:#000000;" x="140.54876" xlink:href="#m5ac18c4d0b" y="58.619706"/>
     <use style="stroke:#000000;" x="142.928926" xlink:href="#m5ac18c4d0b" y="8.836364"/>
     <use style="stroke:#000000;" x="145.309091" xlink:href="#m5ac18c4d0b" y="41.411742"/>
     <use style="stroke:#000000;" x="147.689256" xlink:href="#m5ac18c4d0b" y="56.78577"/>
     <use style="stroke:#000000;" x="150.069421" xlink:href="#m5ac18c4d0b" y="43.781106"/>
     <use style="stroke:#000000;" x="152.449587" xlink:href="#m5ac18c4d0b" y="10.863562"/>
     <use style="stroke:#000000;" x="154.829752" xlink:href="#m5ac18c4d0b" y="56.140293"/>
     <use style="stroke:#000000;" x="157.209917" xlink:href="#m5ac18c4d0b" y="53.535541"/>
     <use style="stroke:#000000;" x="159.590083" xlink:href="#m5ac18c4d0b" y="67.873831"/>
     <use style="stroke:#000000;" x="161.970248" xlink:href="#m5ac18c4d0b" y="89.422003"/>
     <use style="stroke:#000000;" x="164.350413" xlink:href="#m5ac18c4d0b" y="113.987601"/>
     <use style="stroke:#000000;" x="166.730579" xlink:href="#m5ac18c4d0b" y="107.24536"/>
     <use style="stroke:#000000;" x="169.110744" xlink:href="#m5ac18c4d0b" y="113.110713"/>
     <use style="stroke:#000000;" x="171.490909" xlink:href="#m5ac18c4d0b" y="105.44602"/>
     <use style="stroke:#000000;" x="173.871074" xlink:href="#m5ac18c4d0b" y="107.67831"/>
     <use style="stroke:#000000;" x="176.25124" xlink:href="#m5ac18c4d0b" y="112.00458"/>
     <use style="stroke:#000000;" x="178.631405" xlink:href="#m5ac18c4d0b" y="129.64398"/>
     <use style="stroke:#000000;" x="181.01157" xlink:href="#m5ac18c4d0b" y="121.245839"/>
     <use style="stroke:#000000;" x="183.391736" xlink:href="#m5ac18c4d0b" y="155.587846"/>
     <use style="stroke:#000000;" x="185.771901" xlink:href="#m5ac18c4d0b" y="116.253121"/>
     <use style="stroke:#000000;" x="188.152066" xlink:href="#m5ac18c4d0b" y="129.65235"/>
     <use style="stroke:#000000;" x="190.532231" xlink:href="#m5ac18c4d0b" y="142.932954"/>
     <use style="stroke:#000000;" x="192.912397" xlink:href="#m5ac18c4d0b" y="123.210348"/>
     <use style="stroke:#000000;" x="195.292562" xlink:href="#m5ac18c4d0b" y="128.927308"/>
     <use style="stroke:#000000;" x="197.672727" xlink:href="#m5ac18c4d0b" y="98.559125"/>
     <use style="stroke:#000000;" x="200.052893" xlink:href="#m5ac18c4d0b" y="83.549842"/>
     <use style="stroke:#000000;" x="202.433058" xlink:href="#m5ac18c4d0b" y="62.482389"/>
     <use style="stroke:#000000;" x="204.813223" xlink:href="#m5ac18c4d0b" y="125.106622"/>
     <use style="stroke:#000000;" x="207.193388" xlink:href="#m5ac18c4d0b" y="117.859906"/>
     <use style="stroke:#000000;" x="209.573554" xlink:href="#m5ac18c4d0b" y="91.39465"/>
     <use style="stroke:#000000;" x="211.953719" xlink:href="#m5ac18c4d0b" y="70.954518"/>
     <use style="stroke:#000000;" x="214.333884" xlink:href="#m5ac18c4d0b" y="50.346872"/>
     <use style="stroke:#000000;" x="216.71405" xlink:href="#m5ac18c4d0b" y="56.07289"/>
     <use style="stroke:#000000;" x="219.094215" xlink:href="#m5ac18c4d0b" y="98.236023"/>
     <use style="stroke:#000000;" x="221.47438" xlink:href="#m5ac18c4d0b" y="61.718716"/>
     <use style="stroke:#000000;" x="223.854545" xlink:href="#m5ac18c4d0b" y="38.284922"/>
     <use style="stroke:#000000;" x="226.234711" xlink:href="#m5ac18c4d0b" y="50.740871"/>
     <use style="stroke:#000000;" x="228.614876" xlink:href="#m5ac18c4d0b" y="42.520334"/>
     <use style="stroke:#000000;" x="230.995041" xlink:href="#m5ac18c4d0b" y="65.894853"/>
     <use style="stroke:#000000;" x="233.375207" xlink:href="#m5ac18c4d0b" y="70.907808"/>
     <use style="stroke:#000000;" x="235.755372" xlink:href="#m5ac18c4d0b" y="70.072504"/>
     <use style="stroke:#000000;" x="238.135537" xlink:href="#m5ac18c4d0b" y="73.671388"/>
     <use style="stroke:#000000;" x="240.515702" xlink:href="#m5ac18c4d0b" y="86.844449"/>
     <use style="stroke:#000000;" x="242.895868" xlink:href="#m5ac18c4d0b" y="98.111226"/>
     <use style="stroke:#000000;" x="245.276033" xlink:href="#m5ac18c4d0b" y="123.855072"/>
     <use style="stroke:#000000;" x="247.656198" xlink:href="#m5ac18c4d0b" y="113.403371"/>
     <use style="stroke:#000000;" x="250.036364" xlink:href="#m5ac18c4d0b" y="128.573901"/>
     <use style="stroke:#000000;" x="252.416529" xlink:href="#m5ac18c4d0b" y="118.318524"/>
     <use style="stroke:#000000;" x="254.796694" xlink:href="#m5ac18c4d0b" y="125.887949"/>
     <use style="stroke:#000000;" x="257.17686" xlink:href="#m5ac18c4d0b" y="153.897017"/>
     <use style="stroke:#000000;" x="259.557025" xlink:href="#m5ac18c4d0b" y="171.750355"/>
     <use style="stroke:#000000;" x="261.93719" xlink:href="#m5ac18c4d0b" y="182.359969"/>
     <use style="stroke:#000000;" x="264.317355" xlink:href="#m5ac18c4d0b" y="165.256151"/>
     <use style="stroke:#000000;" x="266.697521" xlink:href="#m5ac18c4d0b" y="174.40841"/>
     <use style="stroke:#000000;" x="269.077686" xlink:href="#m5ac18c4d0b" y="183.426629"/>
     <use style="stroke:#000000;" x="271.457851" xlink:href="#m5ac18c4d0b" y="174.864107"/>
     <use style="stroke:#000000;" x="273.838017" xlink:href="#m5ac18c4d0b" y="185.563636"/>
     <use style="stroke:#000000;" x="276.218182" xlink:href="#m5ac18c4d0b" y="155.696016"/>
    </g>
   </g>
   <g id="matplotlib.axis_1">
    <g id="text_1">
     <!-- x -->
     <defs>
      <path d="M 22.21875 27.984375 
L 2.484375 54.6875 
L 21 54.6875 
L 32.171875 38.484375 
L 43.5 54.6875 
L 62.015625 54.6875 
L 42.28125 28.078125 
L 62.984375 0 
L 44.484375 0 
L 32.171875 17.28125 
L 20.015625 0 
L 1.515625 0 
z
" id="DejaVuSans-Bold-120"/>
     </defs>
     <g transform="translate(151.305 215.116562)scale(0.22 -0.22)">
      <use xlink:href="#DejaVuSans-Bold-120"/>
     </g>
    </g>
   </g>
   <g id="matplotlib.axis_2">
    <g id="text_2">
     <!-- y -->
     <defs>
      <path d="M 1.21875 54.6875 
L 18.703125 54.6875 
L 33.40625 17.578125 
L 45.90625 54.6875 
L 63.375 54.6875 
L 40.375 -5.171875 
Q 36.921875 -14.3125 32.296875 -17.9375 
Q 27.6875 -21.578125 20.125 -21.578125 
L 10.015625 -21.578125 
L 10.015625 -10.109375 
L 15.484375 -10.109375 
Q 19.921875 -10.109375 21.9375 -8.6875 
Q 23.96875 -7.28125 25.09375 -3.609375 
L 25.59375 -2.09375 
z
" id="DejaVuSans-Bold-121"/>
     </defs>
     <g transform="translate(20.052813 104.370625)rotate(-90)scale(0.22 -0.22)">
      <use xlink:href="#DejaVuSans-Bold-121"/>
     </g>
    </g>
   </g>
   <g id="patch_3">
    <path d="M 28.8 194.4 
L 28.8 0 
" style="fill:none;stroke:#000000;stroke-linecap:square;stroke-linejoin:miter;stroke-width:0.8;"/>
   </g>
   <g id="patch_4">
    <path d="M 28.8 194.4 
L 288 194.4 
" style="fill:none;stroke:#000000;stroke-linecap:square;stroke-linejoin:miter;stroke-width:0.8;"/>
   </g>
  </g>
 </g>
 <defs>
  <clipPath id="p163edb953a">
   <rect height="194.4" width="259.2" x="28.8" y="0"/>
  </clipPath>
 </defs>
</svg>
