<?xml version="1.0" encoding="utf-8" standalone="no"?>
<!DOCTYPE svg PUBLIC "-//W3C//DTD SVG 1.1//EN"
  "http://www.w3.org/Graphics/SVG/1.1/DTD/svg11.dtd">
<!-- Created with matplotlib (https://matplotlib.org/) -->
<svg height="216pt" version="1.1" viewBox="0 0 288 216" width="288pt" xmlns="http://www.w3.org/2000/svg" xmlns:xlink="http://www.w3.org/1999/xlink">
 <metadata>
  <rdf:RDF xmlns:cc="http://creativecommons.org/ns#" xmlns:dc="http://purl.org/dc/elements/1.1/" xmlns:rdf="http://www.w3.org/1999/02/22-rdf-syntax-ns#">
   <cc:Work>
    <dc:type rdf:resource="http://purl.org/dc/dcmitype/StillImage"/>
    <dc:date>2021-04-29T16:48:05.707134</dc:date>
    <dc:format>image/svg+xml</dc:format>
    <dc:creator>
     <cc:Agent>
      <dc:title>Matplotlib v3.3.4, https://matplotlib.org/</dc:title>
     </cc:Agent>
    </dc:creator>
   </cc:Work>
  </rdf:RDF>
 </metadata>
 <defs>
  <style type="text/css">*{stroke-linecap:butt;stroke-linejoin:round;}</style>
 </defs>
 <g id="figure_1">
  <g id="patch_1">
   <path d="M 0 216 
L 288 216 
L 288 0 
L 0 0 
z
" style="fill:none;"/>
  </g>
  <g id="axes_1">
   <g id="patch_2">
    <path d="M 28.8 194.4 
L 288 194.4 
L 288 0 
L 28.8 0 
z
" style="fill:none;"/>
   </g>
   <g id="PathCollection_1">
    <defs>
     <path d="M 0 3 
C 0.795609 3 1.55874 2.683901 2.12132 2.12132 
C 2.683901 1.55874 3 0.795609 3 0 
C 3 -0.795609 2.683901 -1.55874 2.12132 -2.12132 
C 1.55874 -2.683901 0.795609 -3 0 -3 
C -0.795609 -3 -1.55874 -2.683901 -2.12132 -2.12132 
C -2.683901 -1.55874 -3 -0.795609 -3 0 
C -3 0.795609 -2.683901 1.55874 -2.12132 2.12132 
C -1.55874 2.683901 -0.795609 3 0 3 
z
" id="m41a96c9b1d" style="stroke:#000000;"/>
    </defs>
    <g clip-path="url(#pff6efedb78)">
     <use style="stroke:#000000;" x="139.938505" xlink:href="#m41a96c9b1d" y="55.565992"/>
     <use style="stroke:#000000;" x="212.221017" xlink:href="#m41a96c9b1d" y="185.563636"/>
     <use style="stroke:#000000;" x="40.581818" xlink:href="#m41a96c9b1d" y="100.270817"/>
     <use style="stroke:#000000;" x="112.605923" xlink:href="#m41a96c9b1d" y="24.940569"/>
     <use style="stroke:#000000;" x="75.529164" xlink:href="#m41a96c9b1d" y="48.15228"/>
     <use style="stroke:#000000;" x="62.560531" xlink:href="#m41a96c9b1d" y="49.85585"/>
     <use style="stroke:#000000;" x="84.943764" xlink:href="#m41a96c9b1d" y="50.957604"/>
     <use style="stroke:#000000;" x="122.90798" xlink:href="#m41a96c9b1d" y="51.701548"/>
     <use style="stroke:#000000;" x="135.111481" xlink:href="#m41a96c9b1d" y="53.383437"/>
     <use style="stroke:#000000;" x="168.964409" xlink:href="#m41a96c9b1d" y="89.971334"/>
     <use style="stroke:#000000;" x="140.456254" xlink:href="#m41a96c9b1d" y="58.605753"/>
     <use style="stroke:#000000;" x="203.854857" xlink:href="#m41a96c9b1d" y="134.948897"/>
     <use style="stroke:#000000;" x="89.279258" xlink:href="#m41a96c9b1d" y="58.206353"/>
     <use style="stroke:#000000;" x="249.825951" xlink:href="#m41a96c9b1d" y="130.771348"/>
     <use style="stroke:#000000;" x="47.081523" xlink:href="#m41a96c9b1d" y="82.59071"/>
     <use style="stroke:#000000;" x="200.339189" xlink:href="#m41a96c9b1d" y="110.744227"/>
     <use style="stroke:#000000;" x="140.005901" xlink:href="#m41a96c9b1d" y="36.941852"/>
     <use style="stroke:#000000;" x="173.70053" xlink:href="#m41a96c9b1d" y="100.965948"/>
     <use style="stroke:#000000;" x="74.011327" xlink:href="#m41a96c9b1d" y="62.28326"/>
     <use style="stroke:#000000;" x="87.765756" xlink:href="#m41a96c9b1d" y="58.246645"/>
     <use style="stroke:#000000;" x="231.386586" xlink:href="#m41a96c9b1d" y="137.554505"/>
     <use style="stroke:#000000;" x="271.308942" xlink:href="#m41a96c9b1d" y="116.324516"/>
     <use style="stroke:#000000;" x="115.249255" xlink:href="#m41a96c9b1d" y="50.705469"/>
     <use style="stroke:#000000;" x="205.547659" xlink:href="#m41a96c9b1d" y="137.780509"/>
     <use style="stroke:#000000;" x="249.414069" xlink:href="#m41a96c9b1d" y="152.173898"/>
     <use style="stroke:#000000;" x="253.755634" xlink:href="#m41a96c9b1d" y="121.008249"/>
     <use style="stroke:#000000;" x="60.822146" xlink:href="#m41a96c9b1d" y="77.444976"/>
     <use style="stroke:#000000;" x="49.862027" xlink:href="#m41a96c9b1d" y="55.620155"/>
     <use style="stroke:#000000;" x="81.028245" xlink:href="#m41a96c9b1d" y="40.222475"/>
     <use style="stroke:#000000;" x="249.831925" xlink:href="#m41a96c9b1d" y="126.194814"/>
     <use style="stroke:#000000;" x="63.992404" xlink:href="#m41a96c9b1d" y="87.557062"/>
     <use style="stroke:#000000;" x="140.912183" xlink:href="#m41a96c9b1d" y="59.711955"/>
     <use style="stroke:#000000;" x="268.837095" xlink:href="#m41a96c9b1d" y="105.16841"/>
     <use style="stroke:#000000;" x="167.617566" xlink:href="#m41a96c9b1d" y="117.048245"/>
     <use style="stroke:#000000;" x="205.441488" xlink:href="#m41a96c9b1d" y="144.263185"/>
     <use style="stroke:#000000;" x="115.747686" xlink:href="#m41a96c9b1d" y="42.943233"/>
     <use style="stroke:#000000;" x="204.160244" xlink:href="#m41a96c9b1d" y="166.761157"/>
     <use style="stroke:#000000;" x="239.461071" xlink:href="#m41a96c9b1d" y="137.780257"/>
     <use style="stroke:#000000;" x="44.91299" xlink:href="#m41a96c9b1d" y="70.120404"/>
     <use style="stroke:#000000;" x="219.327624" xlink:href="#m41a96c9b1d" y="163.756441"/>
     <use style="stroke:#000000;" x="276.218182" xlink:href="#m41a96c9b1d" y="104.551883"/>
     <use style="stroke:#000000;" x="218.856073" xlink:href="#m41a96c9b1d" y="173.204521"/>
     <use style="stroke:#000000;" x="107.389475" xlink:href="#m41a96c9b1d" y="42.058722"/>
     <use style="stroke:#000000;" x="228.654211" xlink:href="#m41a96c9b1d" y="180.928985"/>
     <use style="stroke:#000000;" x="65.155199" xlink:href="#m41a96c9b1d" y="39.37018"/>
     <use style="stroke:#000000;" x="147.295752" xlink:href="#m41a96c9b1d" y="61.952247"/>
     <use style="stroke:#000000;" x="257.08943" xlink:href="#m41a96c9b1d" y="133.453407"/>
     <use style="stroke:#000000;" x="110.528164" xlink:href="#m41a96c9b1d" y="58.277735"/>
     <use style="stroke:#000000;" x="109.136669" xlink:href="#m41a96c9b1d" y="14.58902"/>
     <use style="stroke:#000000;" x="71.542739" xlink:href="#m41a96c9b1d" y="14.966818"/>
     <use style="stroke:#000000;" x="45.17006" xlink:href="#m41a96c9b1d" y="127.018028"/>
     <use style="stroke:#000000;" x="202.333441" xlink:href="#m41a96c9b1d" y="110.124334"/>
     <use style="stroke:#000000;" x="90.989398" xlink:href="#m41a96c9b1d" y="8.836364"/>
     <use style="stroke:#000000;" x="103.83917" xlink:href="#m41a96c9b1d" y="33.767662"/>
     <use style="stroke:#000000;" x="157.705404" xlink:href="#m41a96c9b1d" y="109.104681"/>
     <use style="stroke:#000000;" x="53.271828" xlink:href="#m41a96c9b1d" y="58.89688"/>
     <use style="stroke:#000000;" x="177.37725" xlink:href="#m41a96c9b1d" y="113.450588"/>
     <use style="stroke:#000000;" x="75.522654" xlink:href="#m41a96c9b1d" y="65.811202"/>
     <use style="stroke:#000000;" x="180.996811" xlink:href="#m41a96c9b1d" y="140.18788"/>
     <use style="stroke:#000000;" x="207.319732" xlink:href="#m41a96c9b1d" y="128.25611"/>
     <use style="stroke:#000000;" x="64.94272" xlink:href="#m41a96c9b1d" y="46.55674"/>
     <use style="stroke:#000000;" x="139.231649" xlink:href="#m41a96c9b1d" y="74.694474"/>
     <use style="stroke:#000000;" x="206.042775" xlink:href="#m41a96c9b1d" y="128.030423"/>
     <use style="stroke:#000000;" x="139.26103" xlink:href="#m41a96c9b1d" y="85.749343"/>
     <use style="stroke:#000000;" x="52.45938" xlink:href="#m41a96c9b1d" y="61.229098"/>
     <use style="stroke:#000000;" x="168.268442" xlink:href="#m41a96c9b1d" y="96.74108"/>
     <use style="stroke:#000000;" x="198.748923" xlink:href="#m41a96c9b1d" y="137.220541"/>
     <use style="stroke:#000000;" x="163.262021" xlink:href="#m41a96c9b1d" y="93.215345"/>
     <use style="stroke:#000000;" x="265.668708" xlink:href="#m41a96c9b1d" y="105.991787"/>
     <use style="stroke:#000000;" x="180.341318" xlink:href="#m41a96c9b1d" y="97.458734"/>
     <use style="stroke:#000000;" x="255.851703" xlink:href="#m41a96c9b1d" y="122.817005"/>
     <use style="stroke:#000000;" x="73.317288" xlink:href="#m41a96c9b1d" y="52.046566"/>
     <use style="stroke:#000000;" x="73.746653" xlink:href="#m41a96c9b1d" y="52.928096"/>
     <use style="stroke:#000000;" x="232.970621" xlink:href="#m41a96c9b1d" y="133.193515"/>
     <use style="stroke:#000000;" x="135.328199" xlink:href="#m41a96c9b1d" y="52.620804"/>
     <use style="stroke:#000000;" x="79.96148" xlink:href="#m41a96c9b1d" y="35.07689"/>
     <use style="stroke:#000000;" x="261.596761" xlink:href="#m41a96c9b1d" y="135.208234"/>
     <use style="stroke:#000000;" x="123.433504" xlink:href="#m41a96c9b1d" y="99.331054"/>
     <use style="stroke:#000000;" x="219.48677" xlink:href="#m41a96c9b1d" y="123.61883"/>
     <use style="stroke:#000000;" x="213.573113" xlink:href="#m41a96c9b1d" y="97.126039"/>
     <use style="stroke:#000000;" x="251.062502" xlink:href="#m41a96c9b1d" y="128.529331"/>
     <use style="stroke:#000000;" x="189.187015" xlink:href="#m41a96c9b1d" y="125.84411"/>
     <use style="stroke:#000000;" x="219.51783" xlink:href="#m41a96c9b1d" y="148.503979"/>
     <use style="stroke:#000000;" x="123.703395" xlink:href="#m41a96c9b1d" y="50.491839"/>
     <use style="stroke:#000000;" x="104.883297" xlink:href="#m41a96c9b1d" y="40.603319"/>
     <use style="stroke:#000000;" x="254.060575" xlink:href="#m41a96c9b1d" y="159.284026"/>
     <use style="stroke:#000000;" x="142.576494" xlink:href="#m41a96c9b1d" y="76.079802"/>
     <use style="stroke:#000000;" x="270.49353" xlink:href="#m41a96c9b1d" y="140.026985"/>
     <use style="stroke:#000000;" x="198.664762" xlink:href="#m41a96c9b1d" y="127.930364"/>
     <use style="stroke:#000000;" x="188.715982" xlink:href="#m41a96c9b1d" y="129.483216"/>
     <use style="stroke:#000000;" x="67.900617" xlink:href="#m41a96c9b1d" y="49.722446"/>
     <use style="stroke:#000000;" x="266.835157" xlink:href="#m41a96c9b1d" y="126.799471"/>
     <use style="stroke:#000000;" x="147.776822" xlink:href="#m41a96c9b1d" y="50.307439"/>
     <use style="stroke:#000000;" x="178.395348" xlink:href="#m41a96c9b1d" y="106.390476"/>
     <use style="stroke:#000000;" x="137.821" xlink:href="#m41a96c9b1d" y="13.65922"/>
     <use style="stroke:#000000;" x="97.04241" xlink:href="#m41a96c9b1d" y="81.632155"/>
     <use style="stroke:#000000;" x="255.846366" xlink:href="#m41a96c9b1d" y="147.721819"/>
     <use style="stroke:#000000;" x="177.272839" xlink:href="#m41a96c9b1d" y="90.406723"/>
     <use style="stroke:#000000;" x="41.238612" xlink:href="#m41a96c9b1d" y="39.398047"/>
     <use style="stroke:#000000;" x="187.631442" xlink:href="#m41a96c9b1d" y="127.254521"/>
    </g>
   </g>
   <g id="matplotlib.axis_1">
    <g id="text_1">
     <!-- x -->
     <g transform="translate(151.305 215.116562)scale(0.22 -0.22)">
      <defs>
       <path d="M 22.21875 27.984375 
L 2.484375 54.6875 
L 21 54.6875 
L 32.171875 38.484375 
L 43.5 54.6875 
L 62.015625 54.6875 
L 42.28125 28.078125 
L 62.984375 0 
L 44.484375 0 
L 32.171875 17.28125 
L 20.015625 0 
L 1.515625 0 
z
" id="DejaVuSans-Bold-120"/>
      </defs>
      <use xlink:href="#DejaVuSans-Bold-120"/>
     </g>
    </g>
   </g>
   <g id="matplotlib.axis_2">
    <g id="text_2">
     <!-- y -->
     <g transform="translate(20.052813 104.370625)rotate(-90)scale(0.22 -0.22)">
      <defs>
       <path d="M 1.21875 54.6875 
L 18.703125 54.6875 
L 33.40625 17.578125 
L 45.90625 54.6875 
L 63.375 54.6875 
L 40.375 -5.171875 
Q 36.921875 -14.3125 32.296875 -17.9375 
Q 27.6875 -21.578125 20.125 -21.578125 
L 10.015625 -21.578125 
L 10.015625 -10.109375 
L 15.484375 -10.109375 
Q 19.921875 -10.109375 21.9375 -8.6875 
Q 23.96875 -7.28125 25.09375 -3.609375 
L 25.59375 -2.09375 
z
" id="DejaVuSans-Bold-121"/>
      </defs>
      <use xlink:href="#DejaVuSans-Bold-121"/>
     </g>
    </g>
   </g>
   <g id="patch_3">
    <path d="M 28.8 194.4 
L 28.8 -0 
" style="fill:none;stroke:#000000;stroke-linecap:square;stroke-linejoin:miter;stroke-width:0.8;"/>
   </g>
   <g id="patch_4">
    <path d="M 28.8 194.4 
L 288 194.4 
" style="fill:none;stroke:#000000;stroke-linecap:square;stroke-linejoin:miter;stroke-width:0.8;"/>
   </g>
  </g>
 </g>
 <defs>
  <clipPath id="pff6efedb78">
   <rect height="194.4" width="259.2" x="28.8" y="0"/>
  </clipPath>
 </defs>
</svg>
