<?xml version="1.0" encoding="utf-8" standalone="no"?>
<!DOCTYPE svg PUBLIC "-//W3C//DTD SVG 1.1//EN"
  "http://www.w3.org/Graphics/SVG/1.1/DTD/svg11.dtd">
<!-- Created with matplotlib (https://matplotlib.org/) -->
<svg height="288pt" version="1.1" viewBox="0 0 864 288" width="864pt" xmlns="http://www.w3.org/2000/svg" xmlns:xlink="http://www.w3.org/1999/xlink">
 <defs>
  <style type="text/css">
*{stroke-linecap:butt;stroke-linejoin:round;}
  </style>
 </defs>
 <g id="figure_1">
  <g id="patch_1">
   <path d="M 0 288 
L 864 288 
L 864 0 
L 0 0 
z
" style="fill:none;"/>
  </g>
  <g id="axes_1">
   <g id="patch_2">
    <path d="M 8.64 285.12 
L 257.675294 285.12 
L 257.675294 2.88 
L 8.64 2.88 
z
" style="fill:none;"/>
   </g>
   <g id="PathCollection_1">
    <defs>
     <path d="M 0 6.324555 
C 1.677292 6.324555 3.286112 5.65816 4.472136 4.472136 
C 5.65816 3.286112 6.324555 1.677292 6.324555 0 
C 6.324555 -1.677292 5.65816 -3.286112 4.472136 -4.472136 
C 3.286112 -5.65816 1.677292 -6.324555 0 -6.324555 
C -1.677292 -6.324555 -3.286112 -5.65816 -4.472136 -4.472136 
C -5.65816 -3.286112 -6.324555 -1.677292 -6.324555 0 
C -6.324555 1.677292 -5.65816 3.286112 -4.472136 4.472136 
C -3.286112 5.65816 -1.677292 6.324555 0 6.324555 
z
" id="m837c777e26" style="stroke:#000000;"/>
    </defs>
    <g clip-path="url(#p6d49b98e83)">
     <use style="fill:#1f77b4;stroke:#000000;" x="44.216471" xlink:href="#m837c777e26" y="244.8"/>
     <use style="fill:#1f77b4;stroke:#000000;" x="44.216471" xlink:href="#m837c777e26" y="164.16"/>
     <use style="fill:#1f77b4;stroke:#000000;" x="62.004706" xlink:href="#m837c777e26" y="204.48"/>
     <use style="fill:#1f77b4;stroke:#000000;" x="186.522353" xlink:href="#m837c777e26" y="51.264"/>
    </g>
   </g>
   <g id="PathCollection_2">
    <defs>
     <path d="M -6.324555 6.324555 
L 6.324555 6.324555 
L 6.324555 -6.324555 
L -6.324555 -6.324555 
z
" id="m405630f823" style="stroke:#000000;"/>
    </defs>
    <g clip-path="url(#p6d49b98e83)">
     <use style="fill:#ff7f0e;stroke:#000000;" x="115.369412" xlink:href="#m405630f823" y="244.8"/>
     <use style="fill:#ff7f0e;stroke:#000000;" x="115.369412" xlink:href="#m405630f823" y="123.84"/>
     <use style="fill:#ff7f0e;stroke:#000000;" x="133.157647" xlink:href="#m405630f823" y="204.48"/>
     <use style="fill:#ff7f0e;stroke:#000000;" x="186.522353" xlink:href="#m405630f823" y="244.8"/>
    </g>
   </g>
   <g id="matplotlib.axis_1"/>
   <g id="matplotlib.axis_2"/>
   <g id="patch_3">
    <path d="M 8.64 285.12 
L 8.64 2.88 
" style="fill:none;stroke:#000000;stroke-linecap:square;stroke-linejoin:miter;stroke-width:0.8;"/>
   </g>
   <g id="patch_4">
    <path d="M 8.64 285.12 
L 257.675294 285.12 
" style="fill:none;stroke:#000000;stroke-linecap:square;stroke-linejoin:miter;stroke-width:0.8;"/>
   </g>
  </g>
  <g id="axes_2">
   <g id="patch_5">
    <path d="M 307.482353 285.12 
L 556.517647 285.12 
L 556.517647 2.88 
L 307.482353 2.88 
z
" style="fill:none;"/>
   </g>
   <g id="PathCollection_3">
    <g clip-path="url(#p8399dfd53c)">
     <use style="fill:#1f77b4;stroke:#000000;" x="325.270588" xlink:href="#m837c777e26" y="43.2"/>
     <use style="fill:#1f77b4;stroke:#000000;" x="378.635294" xlink:href="#m837c777e26" y="59.328"/>
     <use style="fill:#1f77b4;stroke:#000000;" x="449.788235" xlink:href="#m837c777e26" y="63.36"/>
     <use style="fill:#1f77b4;stroke:#000000;" x="485.364706" xlink:href="#m837c777e26" y="51.264"/>
    </g>
   </g>
   <g id="PathCollection_4">
    <g clip-path="url(#p8399dfd53c)">
     <use style="fill:#ff7f0e;stroke:#000000;" x="414.211765" xlink:href="#m405630f823" y="244.8"/>
     <use style="fill:#ff7f0e;stroke:#000000;" x="432" xlink:href="#m405630f823" y="204.48"/>
     <use style="fill:#ff7f0e;stroke:#000000;" x="528.056471" xlink:href="#m405630f823" y="164.16"/>
     <use style="fill:#ff7f0e;stroke:#000000;" x="478.249412" xlink:href="#m405630f823" y="172.224"/>
    </g>
   </g>
   <g id="matplotlib.axis_3"/>
   <g id="matplotlib.axis_4"/>
   <g id="patch_6">
    <path d="M 307.482353 285.12 
L 307.482353 2.88 
" style="fill:none;stroke:#000000;stroke-linecap:square;stroke-linejoin:miter;stroke-width:0.8;"/>
   </g>
   <g id="patch_7">
    <path d="M 307.482353 285.12 
L 556.517647 285.12 
" style="fill:none;stroke:#000000;stroke-linecap:square;stroke-linejoin:miter;stroke-width:0.8;"/>
   </g>
  </g>
  <g id="axes_3">
   <g id="patch_8">
    <path d="M 606.324706 285.12 
L 855.36 285.12 
L 855.36 2.88 
L 606.324706 2.88 
z
" style="fill:none;"/>
   </g>
   <g id="PathCollection_5">
    <g clip-path="url(#p015fdcad5e)">
     <use style="fill:#1f77b4;stroke:#000000;" x="641.901176" xlink:href="#m837c777e26" y="244.8"/>
     <use style="fill:#1f77b4;stroke:#000000;" x="659.689412" xlink:href="#m837c777e26" y="204.48"/>
     <use style="fill:#1f77b4;stroke:#000000;" x="656.131765" xlink:href="#m837c777e26" y="107.712"/>
     <use style="fill:#1f77b4;stroke:#000000;" x="713.054118" xlink:href="#m837c777e26" y="23.04"/>
     <use style="fill:#1f77b4;stroke:#000000;" x="748.630588" xlink:href="#m837c777e26" y="63.36"/>
    </g>
   </g>
   <g id="PathCollection_6">
    <g clip-path="url(#p015fdcad5e)">
     <use style="fill:#ff7f0e;stroke:#000000;" x="713.054118" xlink:href="#m405630f823" y="244.8"/>
     <use style="fill:#ff7f0e;stroke:#000000;" x="784.207059" xlink:href="#m405630f823" y="103.68"/>
     <use style="fill:#ff7f0e;stroke:#000000;" x="784.207059" xlink:href="#m405630f823" y="244.8"/>
     <use style="fill:#ff7f0e;stroke:#000000;" x="826.898824" xlink:href="#m405630f823" y="164.16"/>
    </g>
   </g>
   <g id="matplotlib.axis_5"/>
   <g id="matplotlib.axis_6"/>
   <g id="patch_9">
    <path d="M 606.324706 285.12 
L 606.324706 2.88 
" style="fill:none;stroke:#000000;stroke-linecap:square;stroke-linejoin:miter;stroke-width:0.8;"/>
   </g>
   <g id="patch_10">
    <path d="M 606.324706 285.12 
L 855.36 285.12 
" style="fill:none;stroke:#000000;stroke-linecap:square;stroke-linejoin:miter;stroke-width:0.8;"/>
   </g>
  </g>
 </g>
 <defs>
  <clipPath id="p6d49b98e83">
   <rect height="282.24" width="249.035294" x="8.64" y="2.88"/>
  </clipPath>
  <clipPath id="p8399dfd53c">
   <rect height="282.24" width="249.035294" x="307.482353" y="2.88"/>
  </clipPath>
  <clipPath id="p015fdcad5e">
   <rect height="282.24" width="249.035294" x="606.324706" y="2.88"/>
  </clipPath>
 </defs>
</svg>
