<svg version="1.1" viewBox="0.0 0.0 809.0288713910761 216.96062992125985" fill="none" stroke="none" stroke-linecap="square" stroke-miterlimit="10" xmlns:xlink="http://www.w3.org/1999/xlink" xmlns="http://www.w3.org/2000/svg"><clipPath id="p.0"><path d="m0 0l809.0289 0l0 216.96063l-809.0289 0l0 -216.96063z" clip-rule="nonzero"/></clipPath><g clip-path="url(#p.0)"><path fill="#000000" fill-opacity="0.0" d="m0 0l809.0289 0l0 216.96063l-809.0289 0z" fill-rule="evenodd"/><path fill="#ff9900" d="m196.50919 89.25197l32.62993 0l0 38.456696l-32.62993 0z" fill-rule="evenodd"/><path stroke="#000000" stroke-width="1.0" stroke-linejoin="round" stroke-linecap="butt" d="m196.50919 89.25197l32.62993 0l0 38.456696l-32.62993 0z" fill-rule="evenodd"/><path fill="#4a86e8" d="m307.31628 126.543304l0 0c-10.2977295 0 -18.64569 -8.087074 -18.64569 -18.062988l0 0c0 -4.7906036 1.964447 -9.3849945 5.461212 -12.772469c3.4967346 -3.3874664 8.239319 -5.2905273 13.184479 -5.2905273l0 0c10.297699 0 18.64566 8.087082 18.64566 18.062996l0 0c0 9.975914 -8.347961 18.062988 -18.64566 18.062988z" fill-rule="evenodd"/><path stroke="#000000" stroke-width="1.0" stroke-linejoin="round" stroke-linecap="butt" d="m307.31628 126.543304l0 0c-10.2977295 0 -18.64569 -8.087074 -18.64569 -18.062988l0 0c0 -4.7906036 1.964447 -9.3849945 5.461212 -12.772469c3.4967346 -3.3874664 8.239319 -5.2905273 13.184479 -5.2905273l0 0c10.297699 0 18.64566 8.087082 18.64566 18.062996l0 0c0 9.975914 -8.347961 18.062988 -18.64566 18.062988z" fill-rule="evenodd"/><path fill="#4a86e8" d="m376.11023 108.480316l0 0c0 -10.297722 8.087097 -18.645668 18.062988 -18.645668l0 0c4.790619 0 9.38501 1.964447 12.772461 5.4611893c3.3874817 3.4967422 5.2905273 8.239342 5.2905273 13.184479l0 0c0 10.297714 -8.087067 18.645668 -18.062988 18.645668l0 0c-9.975891 0 -18.062988 -8.347954 -18.062988 -18.645668z" fill-rule="evenodd"/><path stroke="#000000" stroke-width="1.0" stroke-linejoin="round" stroke-linecap="butt" d="m376.11023 108.480316l0 0c0 -10.297722 8.087097 -18.645668 18.062988 -18.645668l0 0c4.790619 0 9.38501 1.964447 12.772461 5.4611893c3.3874817 3.4967422 5.2905273 8.239342 5.2905273 13.184479l0 0c0 10.297714 -8.087067 18.645668 -18.062988 18.645668l0 0c-9.975891 0 -18.062988 -8.347954 -18.062988 -18.645668z" fill-rule="evenodd"/><path fill="#4a86e8" d="m516.66144 108.480316l0 0c0 -10.297722 8.087036 -18.645668 18.062988 -18.645668l0 0c4.7905884 0 9.38501 1.964447 12.772461 5.4611893c3.3874512 3.4967422 5.2905273 8.239342 5.2905273 13.184479l0 0c0 10.297714 -8.087097 18.645668 -18.062988 18.645668l0 0c-9.975952 0 -18.062988 -8.347954 -18.062988 -18.645668z" fill-rule="evenodd"/><path stroke="#000000" stroke-width="1.0" stroke-linejoin="round" stroke-linecap="butt" d="m516.66144 108.480316l0 0c0 -10.297722 8.087036 -18.645668 18.062988 -18.645668l0 0c4.7905884 0 9.38501 1.964447 12.772461 5.4611893c3.3874512 3.4967422 5.2905273 8.239342 5.2905273 13.184479l0 0c0 10.297714 -8.087097 18.645668 -18.062988 18.645668l0 0c-9.975952 0 -18.062988 -8.347954 -18.062988 -18.645668z" fill-rule="evenodd"/><path fill="#000000" fill-opacity="0.0" d="m2.832021 73.97638l498.2047 0l0 69.00787l-498.2047 0z" fill-rule="evenodd"/><path fill="#000000" d="m45.324207 121.37637l-11.09375 -28.640625l4.109375 0l7.4375 20.8125q0.90625 2.5 1.5 4.6875q0.671875 -2.34375 1.546875 -4.6875l7.734375 -20.8125l3.875 0l-11.21875 28.640625l-3.890625 0zm17.351562 -13.953125q0 -7.125 3.8281288 -11.15625q3.828125 -4.03125 9.875 -4.03125q3.96875 0 7.15625 1.890625q3.1875 1.890625 4.84375 5.28125q1.671875 3.390625 1.671875 7.6875q0 4.359375 -1.765625 7.796875q-1.75 3.4375 -4.96875 5.203125q-3.21875 1.765625 -6.953125 1.765625q-4.046875 0 -7.234375 -1.953125q-3.171875 -1.953125 -4.8125 -5.328125q-1.6406288 -3.375 -1.6406288 -7.15625zm3.9062538 0.0625q0 5.171875 2.78125 8.15625q2.78125 2.984375 6.984375 2.984375q4.28125 0 7.03125 -3.0q2.765625 -3.015625 2.765625 -8.546875q0 -3.5 -1.1875 -6.109375q-1.171875 -2.609375 -3.453125 -4.03125q-2.265625 -1.4375 -5.09375 -1.4375q-4.03125 0 -6.9375 2.765625q-2.890625 2.75 -2.890625 9.21875zm35.64453 13.890625l0 -25.25l-9.4375 0l0 -3.390625l22.703125 0l0 3.390625l-9.484375 0l0 25.25l-3.78125 0zm17.230469 0l0 -28.640625l20.703117 0l0 3.390625l-16.921867 0l0 8.765625l15.843742 0l0 3.359375l-15.843742 0l0 9.75l17.578117 0l0 3.375l-21.359367 0zm55.093742 8.421875q-2.90625 -3.671875 -4.921875 -8.59375q-2.015625 -4.921875 -2.015625 -10.203125q0 -4.640625 1.5 -8.90625q1.765625 -4.9375 5.4375 -9.84375l2.515625 0q-2.359375 4.0625 -3.125 5.796875q-1.1875 2.703125 -1.875 5.625q-0.84375 3.65625 -0.84375 7.34375q0 9.40625 5.84375 18.78125l-2.515625 0zm74.203125 -8.421875l0 -4.0l4.0 0l0 4.0q0 2.203125 -0.78125 3.5625q-0.78125 1.359375 -2.484375 2.109375l-0.96875 -1.515625q1.109375 -0.484375 1.625 -1.4375q0.53125 -0.9375 0.59375 -2.71875l-1.984375 0zm100.01955 0l0 -4.0l4.0 0l0 4.0q0 2.203125 -0.78125 3.5625q-0.78125 1.359375 -2.484375 2.109375l-0.96875 -1.515625q1.109375 -0.484375 1.625 -1.4375q0.53125 -0.9375 0.59375 -2.71875l-1.984375 0zm79.16797 8.421875l-2.515625 0q5.84375 -9.375 5.84375 -18.78125q0 -3.671875 -0.84375 -7.28125q-0.65625 -2.921875 -1.859375 -5.625q-0.75 -1.75 -3.140625 -5.859375l2.515625 0q3.671875 4.90625 5.4375 9.84375q1.5 4.265625 1.5 8.90625q0 5.28125 -2.03125 10.203125q-2.015625 4.921875 -4.90625 8.59375zm51.75 -25.265625l-18.90625 0l0 -3.28125l18.90625 0l0 3.28125zm0 8.703125l-18.90625 0l0 -3.28125l18.90625 0l0 3.28125z" fill-rule="nonzero"/></g></svg>