<?xml version="1.0" encoding="utf-8" standalone="no"?>
<!DOCTYPE svg PUBLIC "-//W3C//DTD SVG 1.1//EN"
  "http://www.w3.org/Graphics/SVG/1.1/DTD/svg11.dtd">
<!-- Created with matplotlib (https://matplotlib.org/) -->
<svg height="216pt" version="1.1" viewBox="0 0 288 216" width="288pt" xmlns="http://www.w3.org/2000/svg" xmlns:xlink="http://www.w3.org/1999/xlink">
 <metadata>
  <rdf:RDF xmlns:cc="http://creativecommons.org/ns#" xmlns:dc="http://purl.org/dc/elements/1.1/" xmlns:rdf="http://www.w3.org/1999/02/22-rdf-syntax-ns#">
   <cc:Work>
    <dc:type rdf:resource="http://purl.org/dc/dcmitype/StillImage"/>
    <dc:date>2021-04-29T16:51:58.597269</dc:date>
    <dc:format>image/svg+xml</dc:format>
    <dc:creator>
     <cc:Agent>
      <dc:title>Matplotlib v3.3.4, https://matplotlib.org/</dc:title>
     </cc:Agent>
    </dc:creator>
   </cc:Work>
  </rdf:RDF>
 </metadata>
 <defs>
  <style type="text/css">*{stroke-linecap:butt;stroke-linejoin:round;}</style>
 </defs>
 <g id="figure_1">
  <g id="patch_1">
   <path d="M 0 216 
L 288 216 
L 288 0 
L 0 0 
z
" style="fill:none;"/>
  </g>
  <g id="axes_1">
   <g id="patch_2">
    <path d="M 28.8 194.4 
L 288 194.4 
L 288 0 
L 28.8 0 
z
" style="fill:none;"/>
   </g>
   <g id="PathCollection_1">
    <defs>
     <path d="M 0 3 
C 0.795609 3 1.55874 2.683901 2.12132 2.12132 
C 2.683901 1.55874 3 0.795609 3 0 
C 3 -0.795609 2.683901 -1.55874 2.12132 -2.12132 
C 1.55874 -2.683901 0.795609 -3 0 -3 
C -0.795609 -3 -1.55874 -2.683901 -2.12132 -2.12132 
C -2.683901 -1.55874 -3 -0.795609 -3 0 
C -3 0.795609 -2.683901 1.55874 -2.12132 2.12132 
C -1.55874 2.683901 -0.795609 3 0 3 
z
" id="mefa425c448" style="stroke:#000000;"/>
    </defs>
    <g clip-path="url(#pb79121656e)">
     <use style="fill:#808080;stroke:#000000;" x="139.938505" xlink:href="#mefa425c448" y="55.565992"/>
     <use style="fill:#808080;stroke:#000000;" x="212.221017" xlink:href="#mefa425c448" y="185.563636"/>
     <use style="fill:#808080;stroke:#000000;" x="40.581818" xlink:href="#mefa425c448" y="100.270817"/>
     <use style="fill:#808080;stroke:#000000;" x="112.605923" xlink:href="#mefa425c448" y="24.940569"/>
     <use style="fill:#808080;stroke:#000000;" x="75.529164" xlink:href="#mefa425c448" y="48.15228"/>
     <use style="fill:#808080;stroke:#000000;" x="62.560531" xlink:href="#mefa425c448" y="49.85585"/>
     <use style="fill:#808080;stroke:#000000;" x="84.943764" xlink:href="#mefa425c448" y="50.957604"/>
     <use style="fill:#808080;stroke:#000000;" x="122.90798" xlink:href="#mefa425c448" y="51.701548"/>
     <use style="fill:#808080;stroke:#000000;" x="135.111481" xlink:href="#mefa425c448" y="53.383437"/>
     <use style="fill:#808080;stroke:#000000;" x="168.964409" xlink:href="#mefa425c448" y="89.971334"/>
     <use style="fill:#808080;stroke:#000000;" x="140.456254" xlink:href="#mefa425c448" y="58.605753"/>
     <use style="fill:#808080;stroke:#000000;" x="203.854857" xlink:href="#mefa425c448" y="134.948897"/>
     <use style="fill:#808080;stroke:#000000;" x="89.279258" xlink:href="#mefa425c448" y="58.206353"/>
     <use style="fill:#808080;stroke:#000000;" x="249.825951" xlink:href="#mefa425c448" y="130.771348"/>
     <use style="fill:#808080;stroke:#000000;" x="47.081523" xlink:href="#mefa425c448" y="82.59071"/>
     <use style="fill:#808080;stroke:#000000;" x="200.339189" xlink:href="#mefa425c448" y="110.744227"/>
     <use style="fill:#808080;stroke:#000000;" x="140.005901" xlink:href="#mefa425c448" y="36.941852"/>
     <use style="fill:#808080;stroke:#000000;" x="173.70053" xlink:href="#mefa425c448" y="100.965948"/>
     <use style="fill:#808080;stroke:#000000;" x="74.011327" xlink:href="#mefa425c448" y="62.28326"/>
     <use style="fill:#808080;stroke:#000000;" x="87.765756" xlink:href="#mefa425c448" y="58.246645"/>
     <use style="fill:#808080;stroke:#000000;" x="231.386586" xlink:href="#mefa425c448" y="137.554505"/>
     <use style="fill:#808080;stroke:#000000;" x="271.308942" xlink:href="#mefa425c448" y="116.324516"/>
     <use style="fill:#808080;stroke:#000000;" x="115.249255" xlink:href="#mefa425c448" y="50.705469"/>
     <use style="fill:#808080;stroke:#000000;" x="205.547659" xlink:href="#mefa425c448" y="137.780509"/>
     <use style="fill:#808080;stroke:#000000;" x="249.414069" xlink:href="#mefa425c448" y="152.173898"/>
     <use style="fill:#808080;stroke:#000000;" x="253.755634" xlink:href="#mefa425c448" y="121.008249"/>
     <use style="fill:#808080;stroke:#000000;" x="60.822146" xlink:href="#mefa425c448" y="77.444976"/>
     <use style="fill:#808080;stroke:#000000;" x="49.862027" xlink:href="#mefa425c448" y="55.620155"/>
     <use style="fill:#808080;stroke:#000000;" x="81.028245" xlink:href="#mefa425c448" y="40.222475"/>
     <use style="fill:#808080;stroke:#000000;" x="249.831925" xlink:href="#mefa425c448" y="126.194814"/>
     <use style="fill:#808080;stroke:#000000;" x="63.992404" xlink:href="#mefa425c448" y="87.557062"/>
     <use style="fill:#808080;stroke:#000000;" x="140.912183" xlink:href="#mefa425c448" y="59.711955"/>
     <use style="fill:#808080;stroke:#000000;" x="268.837095" xlink:href="#mefa425c448" y="105.16841"/>
     <use style="fill:#808080;stroke:#000000;" x="167.617566" xlink:href="#mefa425c448" y="117.048245"/>
     <use style="fill:#808080;stroke:#000000;" x="205.441488" xlink:href="#mefa425c448" y="144.263185"/>
     <use style="fill:#808080;stroke:#000000;" x="115.747686" xlink:href="#mefa425c448" y="42.943233"/>
     <use style="fill:#808080;stroke:#000000;" x="204.160244" xlink:href="#mefa425c448" y="166.761157"/>
     <use style="fill:#808080;stroke:#000000;" x="239.461071" xlink:href="#mefa425c448" y="137.780257"/>
     <use style="fill:#808080;stroke:#000000;" x="44.91299" xlink:href="#mefa425c448" y="70.120404"/>
     <use style="fill:#808080;stroke:#000000;" x="219.327624" xlink:href="#mefa425c448" y="163.756441"/>
     <use style="fill:#808080;stroke:#000000;" x="276.218182" xlink:href="#mefa425c448" y="104.551883"/>
     <use style="fill:#808080;stroke:#000000;" x="218.856073" xlink:href="#mefa425c448" y="173.204521"/>
     <use style="fill:#808080;stroke:#000000;" x="107.389475" xlink:href="#mefa425c448" y="42.058722"/>
     <use style="fill:#808080;stroke:#000000;" x="228.654211" xlink:href="#mefa425c448" y="180.928985"/>
     <use style="fill:#808080;stroke:#000000;" x="65.155199" xlink:href="#mefa425c448" y="39.37018"/>
     <use style="fill:#808080;stroke:#000000;" x="147.295752" xlink:href="#mefa425c448" y="61.952247"/>
     <use style="fill:#808080;stroke:#000000;" x="257.08943" xlink:href="#mefa425c448" y="133.453407"/>
     <use style="fill:#808080;stroke:#000000;" x="110.528164" xlink:href="#mefa425c448" y="58.277735"/>
     <use style="fill:#808080;stroke:#000000;" x="109.136669" xlink:href="#mefa425c448" y="14.58902"/>
     <use style="fill:#808080;stroke:#000000;" x="71.542739" xlink:href="#mefa425c448" y="14.966818"/>
     <use style="fill:#808080;stroke:#000000;" x="45.17006" xlink:href="#mefa425c448" y="127.018028"/>
     <use style="fill:#808080;stroke:#000000;" x="202.333441" xlink:href="#mefa425c448" y="110.124334"/>
     <use style="fill:#808080;stroke:#000000;" x="90.989398" xlink:href="#mefa425c448" y="8.836364"/>
     <use style="fill:#808080;stroke:#000000;" x="103.83917" xlink:href="#mefa425c448" y="33.767662"/>
     <use style="fill:#808080;stroke:#000000;" x="157.705404" xlink:href="#mefa425c448" y="109.104681"/>
     <use style="fill:#808080;stroke:#000000;" x="53.271828" xlink:href="#mefa425c448" y="58.89688"/>
     <use style="fill:#808080;stroke:#000000;" x="177.37725" xlink:href="#mefa425c448" y="113.450588"/>
     <use style="fill:#808080;stroke:#000000;" x="75.522654" xlink:href="#mefa425c448" y="65.811202"/>
     <use style="fill:#808080;stroke:#000000;" x="180.996811" xlink:href="#mefa425c448" y="140.18788"/>
     <use style="fill:#808080;stroke:#000000;" x="207.319732" xlink:href="#mefa425c448" y="128.25611"/>
     <use style="fill:#808080;stroke:#000000;" x="64.94272" xlink:href="#mefa425c448" y="46.55674"/>
     <use style="fill:#808080;stroke:#000000;" x="139.231649" xlink:href="#mefa425c448" y="74.694474"/>
     <use style="fill:#808080;stroke:#000000;" x="206.042775" xlink:href="#mefa425c448" y="128.030423"/>
     <use style="fill:#808080;stroke:#000000;" x="139.26103" xlink:href="#mefa425c448" y="85.749343"/>
     <use style="fill:#808080;stroke:#000000;" x="52.45938" xlink:href="#mefa425c448" y="61.229098"/>
     <use style="fill:#808080;stroke:#000000;" x="168.268442" xlink:href="#mefa425c448" y="96.74108"/>
     <use style="fill:#808080;stroke:#000000;" x="198.748923" xlink:href="#mefa425c448" y="137.220541"/>
     <use style="fill:#808080;stroke:#000000;" x="163.262021" xlink:href="#mefa425c448" y="93.215345"/>
     <use style="fill:#808080;stroke:#000000;" x="265.668708" xlink:href="#mefa425c448" y="105.991787"/>
     <use style="fill:#808080;stroke:#000000;" x="180.341318" xlink:href="#mefa425c448" y="97.458734"/>
     <use style="fill:#808080;stroke:#000000;" x="255.851703" xlink:href="#mefa425c448" y="122.817005"/>
     <use style="fill:#808080;stroke:#000000;" x="73.317288" xlink:href="#mefa425c448" y="52.046566"/>
     <use style="fill:#808080;stroke:#000000;" x="73.746653" xlink:href="#mefa425c448" y="52.928096"/>
     <use style="fill:#808080;stroke:#000000;" x="232.970621" xlink:href="#mefa425c448" y="133.193515"/>
     <use style="fill:#808080;stroke:#000000;" x="135.328199" xlink:href="#mefa425c448" y="52.620804"/>
     <use style="fill:#808080;stroke:#000000;" x="79.96148" xlink:href="#mefa425c448" y="35.07689"/>
     <use style="fill:#808080;stroke:#000000;" x="261.596761" xlink:href="#mefa425c448" y="135.208234"/>
     <use style="fill:#808080;stroke:#000000;" x="123.433504" xlink:href="#mefa425c448" y="99.331054"/>
     <use style="fill:#808080;stroke:#000000;" x="219.48677" xlink:href="#mefa425c448" y="123.61883"/>
     <use style="fill:#808080;stroke:#000000;" x="213.573113" xlink:href="#mefa425c448" y="97.126039"/>
     <use style="fill:#808080;stroke:#000000;" x="251.062502" xlink:href="#mefa425c448" y="128.529331"/>
     <use style="fill:#808080;stroke:#000000;" x="189.187015" xlink:href="#mefa425c448" y="125.84411"/>
     <use style="fill:#808080;stroke:#000000;" x="219.51783" xlink:href="#mefa425c448" y="148.503979"/>
     <use style="fill:#808080;stroke:#000000;" x="123.703395" xlink:href="#mefa425c448" y="50.491839"/>
     <use style="fill:#808080;stroke:#000000;" x="104.883297" xlink:href="#mefa425c448" y="40.603319"/>
     <use style="fill:#808080;stroke:#000000;" x="254.060575" xlink:href="#mefa425c448" y="159.284026"/>
     <use style="fill:#808080;stroke:#000000;" x="142.576494" xlink:href="#mefa425c448" y="76.079802"/>
     <use style="fill:#808080;stroke:#000000;" x="270.49353" xlink:href="#mefa425c448" y="140.026985"/>
     <use style="fill:#808080;stroke:#000000;" x="198.664762" xlink:href="#mefa425c448" y="127.930364"/>
     <use style="fill:#808080;stroke:#000000;" x="188.715982" xlink:href="#mefa425c448" y="129.483216"/>
     <use style="fill:#808080;stroke:#000000;" x="67.900617" xlink:href="#mefa425c448" y="49.722446"/>
     <use style="fill:#808080;stroke:#000000;" x="266.835157" xlink:href="#mefa425c448" y="126.799471"/>
     <use style="fill:#808080;stroke:#000000;" x="147.776822" xlink:href="#mefa425c448" y="50.307439"/>
     <use style="fill:#808080;stroke:#000000;" x="178.395348" xlink:href="#mefa425c448" y="106.390476"/>
     <use style="fill:#808080;stroke:#000000;" x="137.821" xlink:href="#mefa425c448" y="13.65922"/>
     <use style="fill:#808080;stroke:#000000;" x="97.04241" xlink:href="#mefa425c448" y="81.632155"/>
     <use style="fill:#808080;stroke:#000000;" x="255.846366" xlink:href="#mefa425c448" y="147.721819"/>
     <use style="fill:#808080;stroke:#000000;" x="177.272839" xlink:href="#mefa425c448" y="90.406723"/>
     <use style="fill:#808080;stroke:#000000;" x="41.238612" xlink:href="#mefa425c448" y="39.398047"/>
     <use style="fill:#808080;stroke:#000000;" x="187.631442" xlink:href="#mefa425c448" y="127.254521"/>
    </g>
   </g>
   <g id="matplotlib.axis_1">
    <g id="text_1">
     <!-- x -->
     <g transform="translate(151.305 215.116562)scale(0.22 -0.22)">
      <defs>
       <path d="M 22.21875 27.984375 
L 2.484375 54.6875 
L 21 54.6875 
L 32.171875 38.484375 
L 43.5 54.6875 
L 62.015625 54.6875 
L 42.28125 28.078125 
L 62.984375 0 
L 44.484375 0 
L 32.171875 17.28125 
L 20.015625 0 
L 1.515625 0 
z
" id="DejaVuSans-Bold-120"/>
      </defs>
      <use xlink:href="#DejaVuSans-Bold-120"/>
     </g>
    </g>
   </g>
   <g id="matplotlib.axis_2">
    <g id="text_2">
     <!-- y -->
     <g transform="translate(20.052813 104.370625)rotate(-90)scale(0.22 -0.22)">
      <defs>
       <path d="M 1.21875 54.6875 
L 18.703125 54.6875 
L 33.40625 17.578125 
L 45.90625 54.6875 
L 63.375 54.6875 
L 40.375 -5.171875 
Q 36.921875 -14.3125 32.296875 -17.9375 
Q 27.6875 -21.578125 20.125 -21.578125 
L 10.015625 -21.578125 
L 10.015625 -10.109375 
L 15.484375 -10.109375 
Q 19.921875 -10.109375 21.9375 -8.6875 
Q 23.96875 -7.28125 25.09375 -3.609375 
L 25.59375 -2.09375 
z
" id="DejaVuSans-Bold-121"/>
      </defs>
      <use xlink:href="#DejaVuSans-Bold-121"/>
     </g>
    </g>
   </g>
   <g id="line2d_1">
    <path clip-path="url(#pb79121656e)" d="M 40.581818 67.5653 
L 41.3699 67.260936 
L 42.946063 67.320759 
L 43.734144 68.092257 
L 44.522226 68.382743 
L 45.310307 68.240881 
L 46.098389 68.364369 
L 46.88647 68.010222 
L 47.674552 66.917545 
L 48.462633 66.917545 
L 49.250715 65.798392 
L 50.038796 65.798392 
L 50.826877 65.636007 
L 52.40304 65.582051 
L 53.191122 64.906522 
L 54.767285 64.173355 
L 55.555366 62.204577 
L 56.343448 61.065644 
L 57.131529 61.082518 
L 58.707692 60.076895 
L 59.495774 59.357334 
L 60.283855 58.861194 
L 61.071937 57.89101 
L 62.6481 57.044168 
L 64.224263 56.188836 
L 65.012344 55.252583 
L 65.800426 55.142859 
L 67.376589 53.603684 
L 68.952752 51.712842 
L 69.740833 51.88622 
L 72.105078 51.470463 
L 73.68124 52.405315 
L 75.257403 52.244593 
L 76.045485 51.908304 
L 76.833566 51.797788 
L 78.409729 50.292805 
L 79.197811 50.088255 
L 80.773974 50.149597 
L 81.562055 50.230433 
L 83.138218 49.212428 
L 83.9263 48.389461 
L 86.290544 48.592123 
L 87.078626 48.560385 
L 87.866707 48.653276 
L 88.654789 48.53434 
L 89.44287 47.99713 
L 90.230952 47.166505 
L 91.019033 47.222807 
L 92.595196 47.020031 
L 93.383278 46.980243 
L 94.171359 47.825932 
L 95.747522 47.590684 
L 96.535604 47.350427 
L 97.323685 46.820946 
L 98.111766 47.393906 
L 98.899848 47.349217 
L 99.687929 47.704498 
L 100.476011 47.238228 
L 101.264092 47.104552 
L 102.052174 47.381786 
L 103.628337 46.99959 
L 104.416418 46.971754 
L 105.2045 46.472038 
L 105.992581 46.408678 
L 106.780663 45.93873 
L 107.568744 47.435746 
L 109.144907 47.340029 
L 109.932989 47.851244 
L 110.72107 47.682215 
L 112.297233 47.631613 
L 113.085315 47.963783 
L 113.873396 48.165249 
L 115.449559 49.493731 
L 116.237641 49.605075 
L 117.025722 50.680194 
L 117.813804 50.547777 
L 119.389967 51.896067 
L 120.178048 52.420662 
L 120.96613 52.428694 
L 121.754211 53.164897 
L 122.542292 53.692795 
L 123.330374 54.357201 
L 124.118455 54.350803 
L 124.906537 54.92584 
L 125.694618 55.141766 
L 126.4827 56.343212 
L 127.270781 56.700291 
L 128.058863 57.339474 
L 128.846944 57.662602 
L 129.635026 57.444555 
L 130.423107 57.343833 
L 131.211189 56.693153 
L 131.99927 56.415522 
L 132.787352 56.39487 
L 133.575433 56.731991 
L 135.939678 57.170265 
L 136.727759 56.874801 
L 137.515841 57.683207 
L 138.303922 57.896779 
L 139.092004 60.816206 
L 139.880085 60.893735 
L 142.24433 63.361362 
L 143.032411 64.070384 
L 143.820493 64.045471 
L 145.396656 64.535954 
L 146.184737 65.30068 
L 146.972818 66.360104 
L 147.7609 66.318748 
L 148.548981 67.683319 
L 149.337063 69.7075 
L 150.125144 69.954791 
L 152.489389 73.671718 
L 153.27747 75.440774 
L 154.065552 76.471327 
L 154.853633 78.833071 
L 155.641715 79.471832 
L 156.429796 80.572029 
L 157.217878 81.479274 
L 158.005959 83.146958 
L 158.794041 85.70714 
L 160.370204 88.29315 
L 161.158285 89.978331 
L 161.946367 90.71163 
L 162.734448 92.220715 
L 163.52253 93.089731 
L 164.310611 95.115449 
L 165.098693 96.678846 
L 165.886774 97.508724 
L 166.674856 97.603092 
L 167.462937 98.23166 
L 168.251019 99.566628 
L 169.0391 100.215345 
L 169.827182 101.389251 
L 170.615263 101.64344 
L 171.403344 103.041822 
L 172.979507 104.977694 
L 173.767589 107.020314 
L 174.55567 107.640668 
L 176.131833 109.758157 
L 177.707996 111.338897 
L 178.496078 112.155538 
L 179.284159 113.172739 
L 180.860322 114.742501 
L 181.648404 115.681275 
L 182.436485 115.770317 
L 183.224567 116.83204 
L 184.012648 118.200036 
L 184.80073 118.8782 
L 185.588811 118.876664 
L 186.376893 119.627894 
L 187.164974 120.587407 
L 187.953056 121.028722 
L 188.741137 122.299433 
L 189.529219 122.916454 
L 191.105382 123.934337 
L 191.893463 125.118618 
L 192.681545 126.060142 
L 194.257708 127.481826 
L 195.045789 127.987312 
L 195.83387 128.130872 
L 196.621952 129.509738 
L 198.198115 130.418512 
L 198.986196 131.490734 
L 199.774278 131.376757 
L 201.350441 132.093379 
L 202.138522 132.674794 
L 203.714685 134.648837 
L 204.502767 136.328934 
L 205.290848 136.154239 
L 206.867011 136.318621 
L 208.443174 137.243629 
L 209.231256 138.591303 
L 210.019337 138.801149 
L 210.807419 138.851739 
L 211.5955 139.644651 
L 213.171663 139.546542 
L 215.535908 140.854621 
L 216.323989 141.579761 
L 217.112071 143.014275 
L 218.688234 143.422117 
L 219.476315 142.561334 
L 220.264396 142.819308 
L 221.052478 142.929148 
L 222.628641 142.787587 
L 223.416722 143.241333 
L 224.204804 144.322679 
L 224.992885 144.333513 
L 226.569048 143.83375 
L 227.35713 143.713042 
L 228.933293 143.717352 
L 229.721374 143.333552 
L 230.509456 143.100471 
L 231.297537 142.358298 
L 232.085619 142.73394 
L 232.8737 142.825475 
L 234.449863 141.871653 
L 235.237945 141.130646 
L 236.026026 141.016022 
L 237.602189 139.957752 
L 238.390271 139.774894 
L 239.178352 139.431579 
L 239.966434 138.221709 
L 240.754515 137.887663 
L 243.11876 136.42151 
L 243.906841 136.371947 
L 244.694922 135.981486 
L 245.483004 135.455097 
L 247.059167 135.447597 
L 249.423411 134.904684 
L 250.211493 134.203132 
L 251.787656 133.825054 
L 252.575737 133.978037 
L 254.1519 133.683922 
L 254.939982 133.864656 
L 255.728063 133.310986 
L 256.516145 133.094813 
L 257.304226 133.094813 
L 258.092308 132.633405 
L 258.880389 132.47783 
L 259.668471 132.183082 
L 260.456552 131.34256 
L 261.244634 131.077083 
L 262.032715 130.279523 
L 263.608878 129.362655 
L 264.39696 128.844966 
L 265.973123 128.352821 
L 266.761204 128.143922 
L 267.549285 128.137335 
L 268.337367 128.258199 
L 269.125448 128.079197 
L 269.91353 128.427783 
L 270.701611 128.483563 
L 272.277774 128.107338 
L 273.065856 128.103639 
L 273.853937 127.725657 
L 276.218182 127.725657 
L 276.218182 127.725657 
" style="fill:none;stroke:#1f77b4;stroke-linecap:square;stroke-width:3;"/>
   </g>
   <g id="patch_3">
    <path d="M 28.8 194.4 
L 28.8 -0 
" style="fill:none;stroke:#000000;stroke-linecap:square;stroke-linejoin:miter;stroke-width:0.8;"/>
   </g>
   <g id="patch_4">
    <path d="M 28.8 194.4 
L 288 194.4 
" style="fill:none;stroke:#000000;stroke-linecap:square;stroke-linejoin:miter;stroke-width:0.8;"/>
   </g>
  </g>
 </g>
 <defs>
  <clipPath id="pb79121656e">
   <rect height="194.4" width="259.2" x="28.8" y="0"/>
  </clipPath>
 </defs>
</svg>
