<?xml version="1.0" encoding="utf-8" standalone="no"?>
<!DOCTYPE svg PUBLIC "-//W3C//DTD SVG 1.1//EN"
  "http://www.w3.org/Graphics/SVG/1.1/DTD/svg11.dtd">
<!-- Created with matplotlib (https://matplotlib.org/) -->
<svg height="216pt" version="1.1" viewBox="0 0 288 216" width="288pt" xmlns="http://www.w3.org/2000/svg" xmlns:xlink="http://www.w3.org/1999/xlink">
 <defs>
  <style type="text/css">
*{stroke-linecap:butt;stroke-linejoin:round;}
  </style>
 </defs>
 <g id="figure_1">
  <g id="patch_1">
   <path d="M 0 216 
L 288 216 
L 288 0 
L 0 0 
z
" style="fill:none;"/>
  </g>
  <g id="axes_1">
   <g id="patch_2">
    <path d="M 2.88 213.84 
L 285.12 213.84 
L 285.12 2.16 
L 2.88 2.16 
z
" style="fill:none;"/>
   </g>
   <g id="PathCollection_1">
    <defs>
     <path d="M 0 4.743416 
C 1.257969 4.743416 2.464584 4.24362 3.354102 3.354102 
C 4.24362 2.464584 4.743416 1.257969 4.743416 0 
C 4.743416 -1.257969 4.24362 -2.464584 3.354102 -3.354102 
C 2.464584 -4.24362 1.257969 -4.743416 0 -4.743416 
C -1.257969 -4.743416 -2.464584 -4.24362 -3.354102 -3.354102 
C -4.24362 -2.464584 -4.743416 -1.257969 -4.743416 0 
C -4.743416 1.257969 -4.24362 2.464584 -3.354102 3.354102 
C -2.464584 4.24362 -1.257969 4.743416 0 4.743416 
z
" id="m734a20fa47" style="stroke:#000000;"/>
    </defs>
    <g clip-path="url(#p1a4c21c620)">
     <use style="fill:#1f77b4;stroke:#000000;" x="43.2" xlink:href="#m734a20fa47" y="183.6"/>
     <use style="fill:#1f77b4;stroke:#000000;" x="43.2" xlink:href="#m734a20fa47" y="123.12"/>
     <use style="fill:#1f77b4;stroke:#000000;" x="63.36" xlink:href="#m734a20fa47" y="153.36"/>
     <use style="fill:#1f77b4;stroke:#000000;" x="59.328" xlink:href="#m734a20fa47" y="80.784"/>
     <use style="fill:#1f77b4;stroke:#000000;" x="23.04" xlink:href="#m734a20fa47" y="32.4"/>
     <use style="fill:#1f77b4;stroke:#000000;" x="83.52" xlink:href="#m734a20fa47" y="44.496"/>
    </g>
   </g>
   <g id="PathCollection_2">
    <g clip-path="url(#p1a4c21c620)">
     <use style="fill:#1f77b4;stroke:#000000;" x="123.84" xlink:href="#m734a20fa47" y="17.28"/>
     <use style="fill:#1f77b4;stroke:#000000;" x="164.16" xlink:href="#m734a20fa47" y="47.52"/>
     <use style="fill:#1f77b4;stroke:#000000;" x="204.48" xlink:href="#m734a20fa47" y="38.448"/>
    </g>
   </g>
   <g id="PathCollection_3">
    <defs>
     <path d="M -4.743416 4.743416 
L 4.743416 4.743416 
L 4.743416 -4.743416 
L -4.743416 -4.743416 
z
" id="m3a0f1b07e0" style="stroke:#000000;"/>
    </defs>
    <g clip-path="url(#p1a4c21c620)">
     <use style="fill:#ff7f0e;stroke:#000000;" x="123.84" xlink:href="#m3a0f1b07e0" y="183.6"/>
     <use style="fill:#ff7f0e;stroke:#000000;" x="123.84" xlink:href="#m3a0f1b07e0" y="92.88"/>
     <use style="fill:#ff7f0e;stroke:#000000;" x="144" xlink:href="#m3a0f1b07e0" y="153.36"/>
     <use style="fill:#ff7f0e;stroke:#000000;" x="204.48" xlink:href="#m3a0f1b07e0" y="77.76"/>
     <use style="fill:#ff7f0e;stroke:#000000;" x="204.48" xlink:href="#m3a0f1b07e0" y="183.6"/>
     <use style="fill:#ff7f0e;stroke:#000000;" x="252.864" xlink:href="#m3a0f1b07e0" y="123.12"/>
     <use style="fill:#ff7f0e;stroke:#000000;" x="196.416" xlink:href="#m3a0f1b07e0" y="129.168"/>
    </g>
   </g>
   <g id="PathCollection_4">
    <g clip-path="url(#p1a4c21c620)">
     <use style="fill:#ff7f0e;stroke:#000000;" x="244.8" xlink:href="#m3a0f1b07e0" y="32.4"/>
    </g>
   </g>
   <g id="PathCollection_5">
    <defs>
     <path d="M -4.677072 9.354143 
L 0 4.677072 
L 4.677072 9.354143 
L 9.354143 4.677072 
L 4.677072 0 
L 9.354143 -4.677072 
L 4.677072 -9.354143 
L 0 -4.677072 
L -4.677072 -9.354143 
L -9.354143 -4.677072 
L -4.677072 0 
L -9.354143 4.677072 
z
" id="mc1dfd5baaa" style="stroke:#808080;"/>
    </defs>
    <g clip-path="url(#p1a4c21c620)">
     <use style="fill:#808080;stroke:#808080;" x="123.84" xlink:href="#mc1dfd5baaa" y="62.64"/>
    </g>
   </g>
   <g id="matplotlib.axis_1"/>
   <g id="matplotlib.axis_2"/>
   <g id="patch_3">
    <path d="M 2.88 213.84 
L 2.88 2.16 
" style="fill:none;stroke:#000000;stroke-linecap:square;stroke-linejoin:miter;stroke-width:0.8;"/>
   </g>
   <g id="patch_4">
    <path d="M 2.88 213.84 
L 285.12 213.84 
" style="fill:none;stroke:#000000;stroke-linecap:square;stroke-linejoin:miter;stroke-width:0.8;"/>
   </g>
  </g>
 </g>
 <defs>
  <clipPath id="p1a4c21c620">
   <rect height="211.68" width="282.24" x="2.88" y="2.16"/>
  </clipPath>
 </defs>
</svg>
