<?xml version="1.0" encoding="utf-8" standalone="no"?>
<!DOCTYPE svg PUBLIC "-//W3C//DTD SVG 1.1//EN"
  "http://www.w3.org/Graphics/SVG/1.1/DTD/svg11.dtd">
<!-- Created with matplotlib (https://matplotlib.org/) -->
<svg height="276.48pt" version="1.1" viewBox="0 0 368.64 276.48" width="368.64pt" xmlns="http://www.w3.org/2000/svg" xmlns:xlink="http://www.w3.org/1999/xlink">
 <defs>
  <style type="text/css">
*{stroke-linecap:butt;stroke-linejoin:round;}
  </style>
 </defs>
 <g id="figure_1">
  <g id="patch_1">
   <path d="M 0 276.48 
L 368.64 276.48 
L 368.64 0 
L 0 0 
z
" style="fill:none;"/>
  </g>
  <g id="axes_1">
   <g id="patch_2">
    <path d="M 3.6864 273.7152 
L 364.9536 273.7152 
L 364.9536 2.7648 
L 3.6864 2.7648 
z
" style="fill:none;"/>
   </g>
   <g id="PathCollection_1">
    <defs>
     <path d="M 0 4.743416 
C 1.257969 4.743416 2.464584 4.24362 3.354102 3.354102 
C 4.24362 2.464584 4.743416 1.257969 4.743416 0 
C 4.743416 -1.257969 4.24362 -2.464584 3.354102 -3.354102 
C 2.464584 -4.24362 1.257969 -4.743416 0 -4.743416 
C -1.257969 -4.743416 -2.464584 -4.24362 -3.354102 -3.354102 
C -4.24362 -2.464584 -4.743416 -1.257969 -4.743416 0 
C -4.743416 1.257969 -4.24362 2.464584 -3.354102 3.354102 
C -2.464584 4.24362 -1.257969 4.743416 0 4.743416 
z
" id="m4f8e853190" style="stroke:#000000;"/>
    </defs>
    <g clip-path="url(#p5012ae3760)">
     <use style="fill:#ff0000;stroke:#000000;" x="55.296" xlink:href="#m4f8e853190" y="235.008"/>
     <use style="fill:#ff0000;stroke:#000000;" x="55.296" xlink:href="#m4f8e853190" y="157.5936"/>
     <use style="fill:#ff0000;stroke:#000000;" x="81.1008" xlink:href="#m4f8e853190" y="196.3008"/>
     <use style="fill:#ff0000;stroke:#000000;" x="75.93984" xlink:href="#m4f8e853190" y="103.40352"/>
     <use style="fill:#ff0000;stroke:#000000;" x="29.4912" xlink:href="#m4f8e853190" y="41.472"/>
     <use style="fill:#ff0000;stroke:#000000;" x="106.9056" xlink:href="#m4f8e853190" y="56.95488"/>
    </g>
   </g>
   <g id="PathCollection_2">
    <g clip-path="url(#p5012ae3760)">
     <use style="fill:#ff0000;stroke:#000000;" x="158.5152" xlink:href="#m4f8e853190" y="22.1184"/>
     <use style="fill:#ff0000;stroke:#000000;" x="210.1248" xlink:href="#m4f8e853190" y="60.8256"/>
     <use style="fill:#ff0000;stroke:#000000;" x="261.7344" xlink:href="#m4f8e853190" y="49.21344"/>
    </g>
   </g>
   <g id="PathCollection_3">
    <defs>
     <path d="M -4.743416 4.743416 
L 4.743416 4.743416 
L 4.743416 -4.743416 
L -4.743416 -4.743416 
z
" id="ma48d921932" style="stroke:#000000;"/>
    </defs>
    <g clip-path="url(#p5012ae3760)">
     <use style="fill:#0000ff;stroke:#000000;" x="158.5152" xlink:href="#ma48d921932" y="235.008"/>
     <use style="fill:#0000ff;stroke:#000000;" x="158.5152" xlink:href="#ma48d921932" y="118.8864"/>
     <use style="fill:#0000ff;stroke:#000000;" x="184.32" xlink:href="#ma48d921932" y="196.3008"/>
     <use style="fill:#0000ff;stroke:#000000;" x="261.7344" xlink:href="#ma48d921932" y="99.5328"/>
     <use style="fill:#0000ff;stroke:#000000;" x="261.7344" xlink:href="#ma48d921932" y="235.008"/>
     <use style="fill:#0000ff;stroke:#000000;" x="323.66592" xlink:href="#ma48d921932" y="157.5936"/>
     <use style="fill:#0000ff;stroke:#000000;" x="251.41248" xlink:href="#ma48d921932" y="165.33504"/>
    </g>
   </g>
   <g id="PathCollection_4">
    <g clip-path="url(#p5012ae3760)">
     <use style="fill:#0000ff;stroke:#000000;" x="313.344" xlink:href="#ma48d921932" y="41.472"/>
    </g>
   </g>
   <g id="matplotlib.axis_1"/>
   <g id="matplotlib.axis_2"/>
   <g id="patch_3">
    <path d="M 3.6864 273.7152 
L 3.6864 2.7648 
" style="fill:none;stroke:#000000;stroke-linecap:square;stroke-linejoin:miter;stroke-width:0.8;"/>
   </g>
   <g id="patch_4">
    <path d="M 3.6864 273.7152 
L 364.9536 273.7152 
" style="fill:none;stroke:#000000;stroke-linecap:square;stroke-linejoin:miter;stroke-width:0.8;"/>
   </g>
  </g>
 </g>
 <defs>
  <clipPath id="p5012ae3760">
   <rect height="270.9504" width="361.2672" x="3.6864" y="2.7648"/>
  </clipPath>
 </defs>
</svg>
