<svg version="1.1" viewBox="0.0 0.0 809.0288713910761 216.96062992125985" fill="none" stroke="none" stroke-linecap="square" stroke-miterlimit="10" xmlns:xlink="http://www.w3.org/1999/xlink" xmlns="http://www.w3.org/2000/svg"><clipPath id="p.0"><path d="m0 0l809.0289 0l0 216.96063l-809.0289 0l0 -216.96063z" clip-rule="nonzero"/></clipPath><g clip-path="url(#p.0)"><path fill="#000000" fill-opacity="0.0" d="m0 0l809.0289 0l0 216.96063l-809.0289 0z" fill-rule="evenodd"/><path fill="#000000" fill-opacity="0.0" d="m44.0 5.43832l88.53543 0l0 73.38583l-88.53543 0z" fill-rule="evenodd"/><path stroke="#000000" stroke-width="2.0" stroke-linejoin="round" stroke-linecap="butt" d="m44.0 5.43832l88.53543 0l0 73.38583l-88.53543 0z" fill-rule="evenodd"/><path fill="#666666" d="m59.902054 30.973106l0 -17.5l1.421875 0l0 17.5l-1.421875 0z" fill-rule="nonzero"/><path fill="#666666" d="m59.902054 52.973106l0 -17.5l1.421875 0l0 17.5l-1.421875 0z" fill-rule="nonzero"/><path fill="#666666" d="m59.902054 74.973114l0 -17.500004l1.421875 0l0 17.500004l-1.421875 0z" fill-rule="nonzero"/><path fill="#4a86e8" d="m7.874016 179.03412l0 0c0 -10.297714 8.087077 -18.64566 18.062992 -18.64566l0 0c4.7906036 0 9.3849945 1.964447 12.772465 5.4611816c3.3874664 3.4967499 5.2905273 8.239349 5.2905273 13.184479l0 0c0 10.297714 -8.087078 18.645676 -18.062992 18.645676l0 0c-9.975915 0 -18.062992 -8.347961 -18.062992 -18.645676z" fill-rule="evenodd"/><path stroke="#000000" stroke-width="1.0" stroke-linejoin="round" stroke-linecap="butt" d="m7.874016 179.03412l0 0c0 -10.297714 8.087077 -18.64566 18.062992 -18.64566l0 0c4.7906036 0 9.3849945 1.964447 12.772465 5.4611816c3.3874664 3.4967499 5.2905273 8.239349 5.2905273 13.184479l0 0c0 10.297714 -8.087078 18.645676 -18.062992 18.645676l0 0c-9.975915 0 -18.062992 -8.347961 -18.062992 -18.645676z" fill-rule="evenodd"/><path fill="#ff9900" d="m132.53543 160.38846l32.62993 0l0 38.45668l-32.62993 0z" fill-rule="evenodd"/><path stroke="#000000" stroke-width="1.0" stroke-linejoin="round" stroke-linecap="butt" d="m132.53543 160.38846l32.62993 0l0 38.45668l-32.62993 0z" fill-rule="evenodd"/><path fill="#000000" fill-opacity="0.0" d="m88.267715 78.81365l-62.330708 81.57481" fill-rule="evenodd"/><path stroke="#000000" stroke-width="4.0" stroke-linejoin="round" stroke-linecap="butt" d="m88.267715 78.81365l-47.759285 62.50457" fill-rule="evenodd"/><path fill="#000000" stroke="#000000" stroke-width="4.0" stroke-linecap="butt" d="m35.25861 137.30687l-5.771269 18.43512l16.270906 -10.412415z" fill-rule="evenodd"/><path fill="#000000" fill-opacity="0.0" d="m88.267715 78.82415l60.59842 81.57481" fill-rule="evenodd"/><path stroke="#000000" stroke-width="4.0" stroke-linejoin="round" stroke-linecap="butt" d="m88.267715 78.82415l46.28665 62.308952" fill-rule="evenodd"/><path fill="#000000" stroke="#000000" stroke-width="4.0" stroke-linecap="butt" d="m129.25069 145.07297l16.128387 10.631851l-5.521042 -18.511597z" fill-rule="evenodd"/><path fill="#000000" fill-opacity="0.0" d="m315.42914 128.94226l0 -88.53543l73.38583 0l0 88.53543z" fill-rule="evenodd"/><path stroke="#000000" stroke-width="2.0" stroke-linejoin="round" stroke-linecap="butt" d="m315.42914 128.94226l0 -88.53543l73.38583 0l0 88.53543z" fill-rule="evenodd"/><path fill="#666666" d="m340.96393 81.940384l-17.5 0l0 -1.421875l17.5 0l0 1.421875z" fill-rule="nonzero"/><path fill="#666666" d="m362.96393 81.940384l-17.5 0l0 -1.421875l17.5 0l0 1.421875z" fill-rule="nonzero"/><path fill="#666666" d="m384.96393 81.940384l-17.5 0l0 -1.421875l17.5 0l0 1.421875z" fill-rule="nonzero"/><path fill="#4a86e8" d="m489.6181 44.475067l0 0c-10.297699 0 -18.64566 -8.087078 -18.64566 -18.062994l0 0c0 -4.7906036 1.964447 -9.384996 5.4611816 -12.772464c3.4967346 -3.3874683 8.239349 -5.2905283 13.184479 -5.2905283l0 0c10.2977295 0 18.64569 8.087078 18.64569 18.062992l0 0c0 9.975916 -8.347961 18.062994 -18.64569 18.062994z" fill-rule="evenodd"/><path stroke="#000000" stroke-width="1.0" stroke-linejoin="round" stroke-linecap="butt" d="m489.6181 44.475067l0 0c-10.297699 0 -18.64566 -8.087078 -18.64566 -18.062994l0 0c0 -4.7906036 1.964447 -9.384996 5.4611816 -12.772464c3.4967346 -3.3874683 8.239349 -5.2905283 13.184479 -5.2905283l0 0c10.2977295 0 18.64569 8.087078 18.64569 18.062992l0 0c0 9.975916 -8.347961 18.062994 -18.64569 18.062994z" fill-rule="evenodd"/><path fill="#ff9900" d="m470.38977 173.40158l0 -32.62993l38.456696 0l0 32.62993z" fill-rule="evenodd"/><path stroke="#000000" stroke-width="1.0" stroke-linejoin="round" stroke-linecap="butt" d="m470.38977 173.40158l0 -32.62993l38.456696 0l0 32.62993z" fill-rule="evenodd"/><path fill="#000000" fill-opacity="0.0" d="m388.81497 84.67454l82.17322 -58.267715" fill-rule="evenodd"/><path stroke="#000000" stroke-width="4.0" stroke-linejoin="round" stroke-linecap="butt" d="m388.81497 84.67454l62.59558 -44.385513" fill-rule="evenodd"/><path fill="#000000" stroke="#000000" stroke-width="4.0" stroke-linecap="butt" d="m455.23215 45.67853l10.985931 -15.889305l-18.62915 5.1102905z" fill-rule="evenodd"/><path fill="#000000" fill-opacity="0.0" d="m388.81497 84.67454l81.5748 72.40945" fill-rule="evenodd"/><path stroke="#000000" stroke-width="4.0" stroke-linejoin="round" stroke-linecap="butt" d="m388.81497 84.67454l63.625885 56.477196" fill-rule="evenodd"/><path fill="#000000" stroke="#000000" stroke-width="4.0" stroke-linecap="butt" d="m448.0549 146.09286l17.961609 7.1092224l-9.189697 -16.991486z" fill-rule="evenodd"/><path fill="#000000" fill-opacity="0.0" d="m658.83466 8.349081l88.5354 0l0 73.385826l-88.5354 0z" fill-rule="evenodd"/><path stroke="#000000" stroke-width="2.0" stroke-linejoin="round" stroke-linecap="butt" d="m658.83466 8.349081l88.5354 0l0 73.385826l-88.5354 0z" fill-rule="evenodd"/><path fill="#666666" d="m717.5534 33.88387l0 -17.500002l1.421875 0l0 17.500002l-1.421875 0z" fill-rule="nonzero"/><path fill="#666666" d="m717.5534 55.88387l0 -17.5l1.421875 0l0 17.5l-1.421875 0z" fill-rule="nonzero"/><path fill="#666666" d="m717.5534 77.88387l0 -17.5l1.421875 0l0 17.5l-1.421875 0z" fill-rule="nonzero"/><path fill="#4a86e8" d="m632.0105 179.61679l0 0c0 -10.297714 8.087097 -18.64566 18.062988 -18.64566l0 0c4.7905884 0 9.38501 1.964447 12.772461 5.4611816c3.3874512 3.4967499 5.2905273 8.239349 5.2905273 13.184479l0 0c0 10.2977295 -8.087097 18.645676 -18.062988 18.645676l0 0c-9.975891 0 -18.062988 -8.347946 -18.062988 -18.645676z" fill-rule="evenodd"/><path stroke="#000000" stroke-width="1.0" stroke-linejoin="round" stroke-linecap="butt" d="m632.0105 179.61679l0 0c0 -10.297714 8.087097 -18.64566 18.062988 -18.64566l0 0c4.7905884 0 9.38501 1.964447 12.772461 5.4611816c3.3874512 3.4967499 5.2905273 8.239349 5.2905273 13.184479l0 0c0 10.2977295 -8.087097 18.645676 -18.062988 18.645676l0 0c-9.975891 0 -18.062988 -8.347946 -18.062988 -18.645676z" fill-rule="evenodd"/><path fill="#ff9900" d="m740.56696 159.80577l32.629883 0l0 38.456696l-32.629883 0z" fill-rule="evenodd"/><path stroke="#000000" stroke-width="1.0" stroke-linejoin="round" stroke-linecap="butt" d="m740.56696 159.80577l32.629883 0l0 38.456696l-32.629883 0z" fill-rule="evenodd"/><path fill="#000000" fill-opacity="0.0" d="m703.10236 81.73491l-53.039368 79.244095" fill-rule="evenodd"/><path stroke="#000000" stroke-width="4.0" stroke-linejoin="round" stroke-linecap="butt" d="m703.10236 81.73491l-39.690002 59.299316" fill-rule="evenodd"/><path fill="#000000" stroke="#000000" stroke-width="4.0" stroke-linecap="butt" d="m657.9218 137.35928l-4.606262 18.760162l15.587402 -11.410294z" fill-rule="evenodd"/><path fill="#000000" fill-opacity="0.0" d="m703.10236 81.73491l53.795288 78.078735" fill-rule="evenodd"/><path stroke="#000000" stroke-width="4.0" stroke-linejoin="round" stroke-linecap="butt" d="m703.10236 81.73491l40.17865 58.315475" fill-rule="evenodd"/><path fill="#000000" stroke="#000000" stroke-width="4.0" stroke-linecap="butt" d="m737.8404 143.79889l15.739563 11.199432l-4.8583374 -18.696457z" fill-rule="evenodd"/></g></svg>