<?xml version="1.0" encoding="utf-8" standalone="no"?>
<!DOCTYPE svg PUBLIC "-//W3C//DTD SVG 1.1//EN"
  "http://www.w3.org/Graphics/SVG/1.1/DTD/svg11.dtd">
<!-- Created with matplotlib (https://matplotlib.org/) -->
<svg height="288pt" version="1.1" viewBox="0 0 864 288" width="864pt" xmlns="http://www.w3.org/2000/svg" xmlns:xlink="http://www.w3.org/1999/xlink">
 <defs>
  <style type="text/css">
*{stroke-linecap:butt;stroke-linejoin:round;}
  </style>
 </defs>
 <g id="figure_1">
  <g id="patch_1">
   <path d="M 0 288 
L 864 288 
L 864 0 
L 0 0 
z
" style="fill:none;"/>
  </g>
  <g id="axes_1">
   <g id="patch_2">
    <path d="M 8.64 285.12 
L 257.675294 285.12 
L 257.675294 2.88 
L 8.64 2.88 
z
" style="fill:none;"/>
   </g>
   <g id="PathCollection_1">
    <defs>
     <path d="M 0 3 
C 0.795609 3 1.55874 2.683901 2.12132 2.12132 
C 2.683901 1.55874 3 0.795609 3 0 
C 3 -0.795609 2.683901 -1.55874 2.12132 -2.12132 
C 1.55874 -2.683901 0.795609 -3 0 -3 
C -0.795609 -3 -1.55874 -2.683901 -2.12132 -2.12132 
C -2.683901 -1.55874 -3 -0.795609 -3 0 
C -3 0.795609 -2.683901 1.55874 -2.12132 2.12132 
C -1.55874 2.683901 -0.795609 3 0 3 
z
" id="m4838257946" style="stroke:#000000;"/>
    </defs>
    <g clip-path="url(#p6eb7a91902)">
     <use style="stroke:#000000;" x="19.959786" xlink:href="#m4838257946" y="158.576666"/>
     <use style="stroke:#000000;" x="22.246612" xlink:href="#m4838257946" y="207.610557"/>
     <use style="stroke:#000000;" x="24.533437" xlink:href="#m4838257946" y="190.491891"/>
     <use style="stroke:#000000;" x="26.820263" xlink:href="#m4838257946" y="192.255141"/>
     <use style="stroke:#000000;" x="29.107088" xlink:href="#m4838257946" y="123.976793"/>
     <use style="stroke:#000000;" x="31.393913" xlink:href="#m4838257946" y="203.817998"/>
     <use style="stroke:#000000;" x="33.680739" xlink:href="#m4838257946" y="78.491177"/>
     <use style="stroke:#000000;" x="35.967564" xlink:href="#m4838257946" y="143.34832"/>
     <use style="stroke:#000000;" x="38.25439" xlink:href="#m4838257946" y="107.543569"/>
     <use style="stroke:#000000;" x="40.541215" xlink:href="#m4838257946" y="121.425905"/>
     <use style="stroke:#000000;" x="42.828041" xlink:href="#m4838257946" y="72.246581"/>
     <use style="stroke:#000000;" x="45.114866" xlink:href="#m4838257946" y="175.604974"/>
     <use style="stroke:#000000;" x="47.401692" xlink:href="#m4838257946" y="130.158229"/>
     <use style="stroke:#000000;" x="49.688517" xlink:href="#m4838257946" y="138.319835"/>
     <use style="stroke:#000000;" x="51.975343" xlink:href="#m4838257946" y="102.83149"/>
     <use style="stroke:#000000;" x="54.262168" xlink:href="#m4838257946" y="176.37787"/>
     <use style="stroke:#000000;" x="56.548994" xlink:href="#m4838257946" y="160.171301"/>
     <use style="stroke:#000000;" x="58.835819" xlink:href="#m4838257946" y="191.40969"/>
     <use style="stroke:#000000;" x="61.122645" xlink:href="#m4838257946" y="176.143352"/>
     <use style="stroke:#000000;" x="63.40947" xlink:href="#m4838257946" y="171.493874"/>
     <use style="stroke:#000000;" x="65.696296" xlink:href="#m4838257946" y="229.988794"/>
     <use style="stroke:#000000;" x="67.983121" xlink:href="#m4838257946" y="174.629696"/>
     <use style="stroke:#000000;" x="70.269947" xlink:href="#m4838257946" y="189.255634"/>
     <use style="stroke:#000000;" x="72.556772" xlink:href="#m4838257946" y="206.608639"/>
     <use style="stroke:#000000;" x="74.843597" xlink:href="#m4838257946" y="199.073981"/>
     <use style="stroke:#000000;" x="77.130423" xlink:href="#m4838257946" y="246.276682"/>
     <use style="stroke:#000000;" x="79.417248" xlink:href="#m4838257946" y="229.611561"/>
     <use style="stroke:#000000;" x="81.704074" xlink:href="#m4838257946" y="250.057773"/>
     <use style="stroke:#000000;" x="83.990899" xlink:href="#m4838257946" y="225.729571"/>
     <use style="stroke:#000000;" x="86.277725" xlink:href="#m4838257946" y="195.510823"/>
     <use style="stroke:#000000;" x="88.56455" xlink:href="#m4838257946" y="221.326752"/>
     <use style="stroke:#000000;" x="90.851376" xlink:href="#m4838257946" y="201.910683"/>
     <use style="stroke:#000000;" x="93.138201" xlink:href="#m4838257946" y="197.922853"/>
     <use style="stroke:#000000;" x="95.425027" xlink:href="#m4838257946" y="189.128649"/>
     <use style="stroke:#000000;" x="97.711852" xlink:href="#m4838257946" y="170.199665"/>
     <use style="stroke:#000000;" x="99.998678" xlink:href="#m4838257946" y="137.177613"/>
     <use style="stroke:#000000;" x="102.285503" xlink:href="#m4838257946" y="155.013345"/>
     <use style="stroke:#000000;" x="104.572329" xlink:href="#m4838257946" y="103.015263"/>
     <use style="stroke:#000000;" x="106.859154" xlink:href="#m4838257946" y="49.978593"/>
     <use style="stroke:#000000;" x="109.14598" xlink:href="#m4838257946" y="65.64359"/>
     <use style="stroke:#000000;" x="111.432805" xlink:href="#m4838257946" y="83.541977"/>
     <use style="stroke:#000000;" x="113.719631" xlink:href="#m4838257946" y="96.645369"/>
     <use style="stroke:#000000;" x="116.006456" xlink:href="#m4838257946" y="87.987129"/>
     <use style="stroke:#000000;" x="118.293281" xlink:href="#m4838257946" y="15.709091"/>
     <use style="stroke:#000000;" x="120.580107" xlink:href="#m4838257946" y="63.003714"/>
     <use style="stroke:#000000;" x="122.866932" xlink:href="#m4838257946" y="85.324525"/>
     <use style="stroke:#000000;" x="125.153758" xlink:href="#m4838257946" y="66.443679"/>
     <use style="stroke:#000000;" x="127.440583" xlink:href="#m4838257946" y="18.652283"/>
     <use style="stroke:#000000;" x="129.727409" xlink:href="#m4838257946" y="84.387388"/>
     <use style="stroke:#000000;" x="132.014234" xlink:href="#m4838257946" y="80.605674"/>
     <use style="stroke:#000000;" x="134.30106" xlink:href="#m4838257946" y="101.422747"/>
     <use style="stroke:#000000;" x="136.587885" xlink:href="#m4838257946" y="132.707501"/>
     <use style="stroke:#000000;" x="138.874711" xlink:href="#m4838257946" y="168.37311"/>
     <use style="stroke:#000000;" x="141.161536" xlink:href="#m4838257946" y="158.584375"/>
     <use style="stroke:#000000;" x="143.448362" xlink:href="#m4838257946" y="167.099999"/>
     <use style="stroke:#000000;" x="145.735187" xlink:href="#m4838257946" y="155.972"/>
     <use style="stroke:#000000;" x="148.022013" xlink:href="#m4838257946" y="159.212954"/>
     <use style="stroke:#000000;" x="150.308838" xlink:href="#m4838257946" y="165.494057"/>
     <use style="stroke:#000000;" x="152.595664" xlink:href="#m4838257946" y="191.103852"/>
     <use style="stroke:#000000;" x="154.882489" xlink:href="#m4838257946" y="178.910996"/>
     <use style="stroke:#000000;" x="157.169315" xlink:href="#m4838257946" y="228.770503"/>
     <use style="stroke:#000000;" x="159.45614" xlink:href="#m4838257946" y="171.662309"/>
     <use style="stroke:#000000;" x="161.742965" xlink:href="#m4838257946" y="191.116004"/>
     <use style="stroke:#000000;" x="164.029791" xlink:href="#m4838257946" y="210.397474"/>
     <use style="stroke:#000000;" x="166.316616" xlink:href="#m4838257946" y="181.763172"/>
     <use style="stroke:#000000;" x="168.603442" xlink:href="#m4838257946" y="190.063351"/>
     <use style="stroke:#000000;" x="170.890267" xlink:href="#m4838257946" y="145.973248"/>
     <use style="stroke:#000000;" x="173.177093" xlink:href="#m4838257946" y="124.181993"/>
     <use style="stroke:#000000;" x="175.463918" xlink:href="#m4838257946" y="93.595173"/>
     <use style="stroke:#000000;" x="177.750744" xlink:href="#m4838257946" y="184.51628"/>
     <use style="stroke:#000000;" x="180.037569" xlink:href="#m4838257946" y="173.995123"/>
     <use style="stroke:#000000;" x="182.324395" xlink:href="#m4838257946" y="135.571492"/>
     <use style="stroke:#000000;" x="184.61122" xlink:href="#m4838257946" y="105.895448"/>
     <use style="stroke:#000000;" x="186.898046" xlink:href="#m4838257946" y="75.976199"/>
     <use style="stroke:#000000;" x="189.184871" xlink:href="#m4838257946" y="84.289529"/>
     <use style="stroke:#000000;" x="191.471697" xlink:href="#m4838257946" y="145.504151"/>
     <use style="stroke:#000000;" x="193.758522" xlink:href="#m4838257946" y="92.486433"/>
     <use style="stroke:#000000;" x="196.045348" xlink:href="#m4838257946" y="58.464035"/>
     <use style="stroke:#000000;" x="198.332173" xlink:href="#m4838257946" y="76.548227"/>
     <use style="stroke:#000000;" x="200.618999" xlink:href="#m4838257946" y="64.613225"/>
     <use style="stroke:#000000;" x="202.905824" xlink:href="#m4838257946" y="98.549564"/>
     <use style="stroke:#000000;" x="205.192649" xlink:href="#m4838257946" y="105.827633"/>
     <use style="stroke:#000000;" x="207.479475" xlink:href="#m4838257946" y="104.614895"/>
     <use style="stroke:#000000;" x="209.7663" xlink:href="#m4838257946" y="109.83994"/>
     <use style="stroke:#000000;" x="212.053126" xlink:href="#m4838257946" y="128.965273"/>
     <use style="stroke:#000000;" x="214.339951" xlink:href="#m4838257946" y="145.322965"/>
     <use style="stroke:#000000;" x="216.626777" xlink:href="#m4838257946" y="182.699216"/>
     <use style="stroke:#000000;" x="218.913602" xlink:href="#m4838257946" y="167.524894"/>
     <use style="stroke:#000000;" x="221.200428" xlink:href="#m4838257946" y="189.550256"/>
     <use style="stroke:#000000;" x="223.487253" xlink:href="#m4838257946" y="174.660969"/>
     <use style="stroke:#000000;" x="225.774079" xlink:href="#m4838257946" y="185.650652"/>
     <use style="stroke:#000000;" x="228.060904" xlink:href="#m4838257946" y="226.315669"/>
     <use style="stroke:#000000;" x="230.34773" xlink:href="#m4838257946" y="252.236071"/>
     <use style="stroke:#000000;" x="232.634555" xlink:href="#m4838257946" y="267.639659"/>
     <use style="stroke:#000000;" x="234.921381" xlink:href="#m4838257946" y="242.807449"/>
     <use style="stroke:#000000;" x="237.208206" xlink:href="#m4838257946" y="256.095172"/>
     <use style="stroke:#000000;" x="239.495032" xlink:href="#m4838257946" y="269.188291"/>
     <use style="stroke:#000000;" x="241.781857" xlink:href="#m4838257946" y="256.756777"/>
     <use style="stroke:#000000;" x="244.068683" xlink:href="#m4838257946" y="272.290909"/>
     <use style="stroke:#000000;" x="246.355508" xlink:href="#m4838257946" y="228.927549"/>
    </g>
   </g>
   <g id="matplotlib.axis_1">
    <g id="text_1">
     <!-- x -->
     <defs>
      <path d="M 22.21875 27.984375 
L 2.484375 54.6875 
L 21 54.6875 
L 32.171875 38.484375 
L 43.5 54.6875 
L 62.015625 54.6875 
L 42.28125 28.078125 
L 62.984375 0 
L 44.484375 0 
L 32.171875 17.28125 
L 20.015625 0 
L 1.515625 0 
z
" id="DejaVuSans-Bold-120"/>
     </defs>
     <g transform="translate(126.062647 305.836563)scale(0.22 -0.22)">
      <use xlink:href="#DejaVuSans-Bold-120"/>
     </g>
    </g>
   </g>
   <g id="matplotlib.axis_2">
    <g id="text_2">
     <!-- y -->
     <defs>
      <path d="M 1.21875 54.6875 
L 18.703125 54.6875 
L 33.40625 17.578125 
L 45.90625 54.6875 
L 63.375 54.6875 
L 40.375 -5.171875 
Q 36.921875 -14.3125 32.296875 -17.9375 
Q 27.6875 -21.578125 20.125 -21.578125 
L 10.015625 -21.578125 
L 10.015625 -10.109375 
L 15.484375 -10.109375 
Q 19.921875 -10.109375 21.9375 -8.6875 
Q 23.96875 -7.28125 25.09375 -3.609375 
L 25.59375 -2.09375 
z
" id="DejaVuSans-Bold-121"/>
     </defs>
     <g transform="translate(-0.107187 151.170625)rotate(-90)scale(0.22 -0.22)">
      <use xlink:href="#DejaVuSans-Bold-121"/>
     </g>
    </g>
   </g>
   <g id="line2d_1">
    <path clip-path="url(#p6eb7a91902)" d="M 19.959786 192.255141 
L 22.246612 192.255141 
L 24.533437 192.255141 
L 26.820263 192.255141 
L 29.107088 123.976793 
L 31.393913 123.976793 
L 33.680739 143.34832 
L 35.967564 143.34832 
L 38.25439 143.34832 
L 40.541215 143.34832 
L 42.828041 175.604974 
L 45.114866 175.604974 
L 47.401692 175.604974 
L 49.688517 175.604974 
L 51.975343 175.604974 
L 54.262168 176.143352 
L 56.548994 176.143352 
L 58.835819 176.143352 
L 61.122645 176.143352 
L 63.40947 171.493874 
L 65.696296 229.988794 
L 67.983121 229.988794 
L 70.269947 229.988794 
L 72.556772 229.988794 
L 74.843597 229.988794 
L 77.130423 229.988794 
L 79.417248 229.988794 
L 81.704074 229.988794 
L 83.990899 229.988794 
L 86.277725 103.015263 
L 88.56455 103.015263 
L 90.851376 103.015263 
L 93.138201 103.015263 
L 95.425027 103.015263 
L 97.711852 103.015263 
L 99.998678 103.015263 
L 102.285503 103.015263 
L 104.572329 103.015263 
L 106.859154 103.015263 
L 109.14598 65.64359 
L 111.432805 96.645369 
L 113.719631 96.645369 
L 116.006456 96.645369 
L 118.293281 96.645369 
L 120.580107 85.324525 
L 122.866932 85.324525 
L 125.153758 85.324525 
L 127.440583 84.387388 
L 129.727409 84.387388 
L 132.014234 80.605674 
L 134.30106 101.422747 
L 136.587885 101.422747 
L 138.874711 101.422747 
L 141.161536 101.422747 
L 143.448362 165.494057 
L 145.735187 165.494057 
L 148.022013 165.494057 
L 150.308838 165.494057 
L 152.595664 165.494057 
L 154.882489 178.910996 
L 157.169315 228.770503 
L 159.45614 228.770503 
L 161.742965 228.770503 
L 164.029791 181.763172 
L 166.316616 181.763172 
L 168.603442 181.763172 
L 170.890267 145.973248 
L 173.177093 145.973248 
L 175.463918 145.973248 
L 177.750744 145.973248 
L 180.037569 75.976199 
L 182.324395 75.976199 
L 184.61122 75.976199 
L 186.898046 75.976199 
L 189.184871 75.976199 
L 191.471697 145.504151 
L 193.758522 145.504151 
L 196.045348 145.504151 
L 198.332173 64.613225 
L 200.618999 64.613225 
L 202.905824 64.613225 
L 205.192649 105.827633 
L 207.479475 105.827633 
L 209.7663 105.827633 
L 212.053126 105.827633 
L 214.339951 189.550256 
L 216.626777 189.550256 
L 218.913602 189.550256 
L 221.200428 189.550256 
L 223.487253 174.660969 
L 225.774079 185.650652 
L 228.060904 185.650652 
L 230.34773 252.236071 
L 232.634555 267.639659 
L 234.921381 242.807449 
L 237.208206 242.807449 
L 239.495032 242.807449 
L 241.781857 242.807449 
L 244.068683 242.807449 
L 246.355508 242.807449 
" style="fill:none;stroke:#808080;stroke-linecap:square;stroke-width:3;"/>
   </g>
   <g id="patch_3">
    <path d="M 8.64 285.12 
L 8.64 2.88 
" style="fill:none;stroke:#000000;stroke-linecap:square;stroke-linejoin:miter;stroke-width:0.8;"/>
   </g>
   <g id="patch_4">
    <path d="M 8.64 285.12 
L 257.675294 285.12 
" style="fill:none;stroke:#000000;stroke-linecap:square;stroke-linejoin:miter;stroke-width:0.8;"/>
   </g>
  </g>
  <g id="axes_2">
   <g id="patch_5">
    <path d="M 307.482353 285.12 
L 556.517647 285.12 
L 556.517647 2.88 
L 307.482353 2.88 
z
" style="fill:none;"/>
   </g>
   <g id="PathCollection_2">
    <g clip-path="url(#p93a391b14c)">
     <use style="stroke:#000000;" x="318.802139" xlink:href="#m4838257946" y="158.576666"/>
     <use style="stroke:#000000;" x="321.088965" xlink:href="#m4838257946" y="207.610557"/>
     <use style="stroke:#000000;" x="323.37579" xlink:href="#m4838257946" y="190.491891"/>
     <use style="stroke:#000000;" x="325.662615" xlink:href="#m4838257946" y="192.255141"/>
     <use style="stroke:#000000;" x="327.949441" xlink:href="#m4838257946" y="123.976793"/>
     <use style="stroke:#000000;" x="330.236266" xlink:href="#m4838257946" y="203.817998"/>
     <use style="stroke:#000000;" x="332.523092" xlink:href="#m4838257946" y="78.491177"/>
     <use style="stroke:#000000;" x="334.809917" xlink:href="#m4838257946" y="143.34832"/>
     <use style="stroke:#000000;" x="337.096743" xlink:href="#m4838257946" y="107.543569"/>
     <use style="stroke:#000000;" x="339.383568" xlink:href="#m4838257946" y="121.425905"/>
     <use style="stroke:#000000;" x="341.670394" xlink:href="#m4838257946" y="72.246581"/>
     <use style="stroke:#000000;" x="343.957219" xlink:href="#m4838257946" y="175.604974"/>
     <use style="stroke:#000000;" x="346.244045" xlink:href="#m4838257946" y="130.158229"/>
     <use style="stroke:#000000;" x="348.53087" xlink:href="#m4838257946" y="138.319835"/>
     <use style="stroke:#000000;" x="350.817696" xlink:href="#m4838257946" y="102.83149"/>
     <use style="stroke:#000000;" x="353.104521" xlink:href="#m4838257946" y="176.37787"/>
     <use style="stroke:#000000;" x="355.391347" xlink:href="#m4838257946" y="160.171301"/>
     <use style="stroke:#000000;" x="357.678172" xlink:href="#m4838257946" y="191.40969"/>
     <use style="stroke:#000000;" x="359.964998" xlink:href="#m4838257946" y="176.143352"/>
     <use style="stroke:#000000;" x="362.251823" xlink:href="#m4838257946" y="171.493874"/>
     <use style="stroke:#000000;" x="364.538649" xlink:href="#m4838257946" y="229.988794"/>
     <use style="stroke:#000000;" x="366.825474" xlink:href="#m4838257946" y="174.629696"/>
     <use style="stroke:#000000;" x="369.112299" xlink:href="#m4838257946" y="189.255634"/>
     <use style="stroke:#000000;" x="371.399125" xlink:href="#m4838257946" y="206.608639"/>
     <use style="stroke:#000000;" x="373.68595" xlink:href="#m4838257946" y="199.073981"/>
     <use style="stroke:#000000;" x="375.972776" xlink:href="#m4838257946" y="246.276682"/>
     <use style="stroke:#000000;" x="378.259601" xlink:href="#m4838257946" y="229.611561"/>
     <use style="stroke:#000000;" x="380.546427" xlink:href="#m4838257946" y="250.057773"/>
     <use style="stroke:#000000;" x="382.833252" xlink:href="#m4838257946" y="225.729571"/>
     <use style="stroke:#000000;" x="385.120078" xlink:href="#m4838257946" y="195.510823"/>
     <use style="stroke:#000000;" x="387.406903" xlink:href="#m4838257946" y="221.326752"/>
     <use style="stroke:#000000;" x="389.693729" xlink:href="#m4838257946" y="201.910683"/>
     <use style="stroke:#000000;" x="391.980554" xlink:href="#m4838257946" y="197.922853"/>
     <use style="stroke:#000000;" x="394.26738" xlink:href="#m4838257946" y="189.128649"/>
     <use style="stroke:#000000;" x="396.554205" xlink:href="#m4838257946" y="170.199665"/>
     <use style="stroke:#000000;" x="398.841031" xlink:href="#m4838257946" y="137.177613"/>
     <use style="stroke:#000000;" x="401.127856" xlink:href="#m4838257946" y="155.013345"/>
     <use style="stroke:#000000;" x="403.414682" xlink:href="#m4838257946" y="103.015263"/>
     <use style="stroke:#000000;" x="405.701507" xlink:href="#m4838257946" y="49.978593"/>
     <use style="stroke:#000000;" x="407.988333" xlink:href="#m4838257946" y="65.64359"/>
     <use style="stroke:#000000;" x="410.275158" xlink:href="#m4838257946" y="83.541977"/>
     <use style="stroke:#000000;" x="412.561983" xlink:href="#m4838257946" y="96.645369"/>
     <use style="stroke:#000000;" x="414.848809" xlink:href="#m4838257946" y="87.987129"/>
     <use style="stroke:#000000;" x="417.135634" xlink:href="#m4838257946" y="15.709091"/>
     <use style="stroke:#000000;" x="419.42246" xlink:href="#m4838257946" y="63.003714"/>
     <use style="stroke:#000000;" x="421.709285" xlink:href="#m4838257946" y="85.324525"/>
     <use style="stroke:#000000;" x="423.996111" xlink:href="#m4838257946" y="66.443679"/>
     <use style="stroke:#000000;" x="426.282936" xlink:href="#m4838257946" y="18.652283"/>
     <use style="stroke:#000000;" x="428.569762" xlink:href="#m4838257946" y="84.387388"/>
     <use style="stroke:#000000;" x="430.856587" xlink:href="#m4838257946" y="80.605674"/>
     <use style="stroke:#000000;" x="433.143413" xlink:href="#m4838257946" y="101.422747"/>
     <use style="stroke:#000000;" x="435.430238" xlink:href="#m4838257946" y="132.707501"/>
     <use style="stroke:#000000;" x="437.717064" xlink:href="#m4838257946" y="168.37311"/>
     <use style="stroke:#000000;" x="440.003889" xlink:href="#m4838257946" y="158.584375"/>
     <use style="stroke:#000000;" x="442.290715" xlink:href="#m4838257946" y="167.099999"/>
     <use style="stroke:#000000;" x="444.57754" xlink:href="#m4838257946" y="155.972"/>
     <use style="stroke:#000000;" x="446.864366" xlink:href="#m4838257946" y="159.212954"/>
     <use style="stroke:#000000;" x="449.151191" xlink:href="#m4838257946" y="165.494057"/>
     <use style="stroke:#000000;" x="451.438017" xlink:href="#m4838257946" y="191.103852"/>
     <use style="stroke:#000000;" x="453.724842" xlink:href="#m4838257946" y="178.910996"/>
     <use style="stroke:#000000;" x="456.011667" xlink:href="#m4838257946" y="228.770503"/>
     <use style="stroke:#000000;" x="458.298493" xlink:href="#m4838257946" y="171.662309"/>
     <use style="stroke:#000000;" x="460.585318" xlink:href="#m4838257946" y="191.116004"/>
     <use style="stroke:#000000;" x="462.872144" xlink:href="#m4838257946" y="210.397474"/>
     <use style="stroke:#000000;" x="465.158969" xlink:href="#m4838257946" y="181.763172"/>
     <use style="stroke:#000000;" x="467.445795" xlink:href="#m4838257946" y="190.063351"/>
     <use style="stroke:#000000;" x="469.73262" xlink:href="#m4838257946" y="145.973248"/>
     <use style="stroke:#000000;" x="472.019446" xlink:href="#m4838257946" y="124.181993"/>
     <use style="stroke:#000000;" x="474.306271" xlink:href="#m4838257946" y="93.595173"/>
     <use style="stroke:#000000;" x="476.593097" xlink:href="#m4838257946" y="184.51628"/>
     <use style="stroke:#000000;" x="478.879922" xlink:href="#m4838257946" y="173.995123"/>
     <use style="stroke:#000000;" x="481.166748" xlink:href="#m4838257946" y="135.571492"/>
     <use style="stroke:#000000;" x="483.453573" xlink:href="#m4838257946" y="105.895448"/>
     <use style="stroke:#000000;" x="485.740399" xlink:href="#m4838257946" y="75.976199"/>
     <use style="stroke:#000000;" x="488.027224" xlink:href="#m4838257946" y="84.289529"/>
     <use style="stroke:#000000;" x="490.31405" xlink:href="#m4838257946" y="145.504151"/>
     <use style="stroke:#000000;" x="492.600875" xlink:href="#m4838257946" y="92.486433"/>
     <use style="stroke:#000000;" x="494.887701" xlink:href="#m4838257946" y="58.464035"/>
     <use style="stroke:#000000;" x="497.174526" xlink:href="#m4838257946" y="76.548227"/>
     <use style="stroke:#000000;" x="499.461351" xlink:href="#m4838257946" y="64.613225"/>
     <use style="stroke:#000000;" x="501.748177" xlink:href="#m4838257946" y="98.549564"/>
     <use style="stroke:#000000;" x="504.035002" xlink:href="#m4838257946" y="105.827633"/>
     <use style="stroke:#000000;" x="506.321828" xlink:href="#m4838257946" y="104.614895"/>
     <use style="stroke:#000000;" x="508.608653" xlink:href="#m4838257946" y="109.83994"/>
     <use style="stroke:#000000;" x="510.895479" xlink:href="#m4838257946" y="128.965273"/>
     <use style="stroke:#000000;" x="513.182304" xlink:href="#m4838257946" y="145.322965"/>
     <use style="stroke:#000000;" x="515.46913" xlink:href="#m4838257946" y="182.699216"/>
     <use style="stroke:#000000;" x="517.755955" xlink:href="#m4838257946" y="167.524894"/>
     <use style="stroke:#000000;" x="520.042781" xlink:href="#m4838257946" y="189.550256"/>
     <use style="stroke:#000000;" x="522.329606" xlink:href="#m4838257946" y="174.660969"/>
     <use style="stroke:#000000;" x="524.616432" xlink:href="#m4838257946" y="185.650652"/>
     <use style="stroke:#000000;" x="526.903257" xlink:href="#m4838257946" y="226.315669"/>
     <use style="stroke:#000000;" x="529.190083" xlink:href="#m4838257946" y="252.236071"/>
     <use style="stroke:#000000;" x="531.476908" xlink:href="#m4838257946" y="267.639659"/>
     <use style="stroke:#000000;" x="533.763734" xlink:href="#m4838257946" y="242.807449"/>
     <use style="stroke:#000000;" x="536.050559" xlink:href="#m4838257946" y="256.095172"/>
     <use style="stroke:#000000;" x="538.337385" xlink:href="#m4838257946" y="269.188291"/>
     <use style="stroke:#000000;" x="540.62421" xlink:href="#m4838257946" y="256.756777"/>
     <use style="stroke:#000000;" x="542.911035" xlink:href="#m4838257946" y="272.290909"/>
     <use style="stroke:#000000;" x="545.197861" xlink:href="#m4838257946" y="228.927549"/>
    </g>
   </g>
   <g id="matplotlib.axis_3">
    <g id="text_3">
     <!-- x -->
     <g transform="translate(424.905 305.836563)scale(0.22 -0.22)">
      <use xlink:href="#DejaVuSans-Bold-120"/>
     </g>
    </g>
   </g>
   <g id="matplotlib.axis_4">
    <g id="text_4">
     <!-- y -->
     <g transform="translate(298.735165 151.170625)rotate(-90)scale(0.22 -0.22)">
      <use xlink:href="#DejaVuSans-Bold-121"/>
     </g>
    </g>
   </g>
   <g id="line2d_2">
    <path clip-path="url(#p93a391b14c)" d="M 318.802139 72.246581 
L 321.088965 72.246581 
L 323.37579 72.246581 
L 325.662615 72.246581 
L 327.949441 72.246581 
L 330.236266 72.246581 
L 332.523092 72.246581 
L 334.809917 72.246581 
L 337.096743 72.246581 
L 339.383568 72.246581 
L 341.670394 72.246581 
L 343.957219 72.246581 
L 346.244045 72.246581 
L 348.53087 72.246581 
L 350.817696 191.40969 
L 353.104521 191.40969 
L 355.391347 191.40969 
L 357.678172 191.40969 
L 359.964998 171.493874 
L 362.251823 171.493874 
L 364.538649 171.493874 
L 366.825474 171.493874 
L 369.112299 199.073981 
L 371.399125 199.073981 
L 373.68595 199.073981 
L 375.972776 199.073981 
L 378.259601 199.073981 
L 380.546427 195.510823 
L 382.833252 195.510823 
L 385.120078 195.510823 
L 387.406903 201.910683 
L 389.693729 201.910683 
L 391.980554 197.922853 
L 394.26738 197.922853 
L 396.554205 197.922853 
L 398.841031 155.013345 
L 401.127856 155.013345 
L 403.414682 155.013345 
L 405.701507 155.013345 
L 407.988333 83.541977 
L 410.275158 83.541977 
L 412.561983 83.541977 
L 414.848809 83.541977 
L 417.135634 85.324525 
L 419.42246 85.324525 
L 421.709285 85.324525 
L 423.996111 85.324525 
L 426.282936 85.324525 
L 428.569762 80.605674 
L 430.856587 80.605674 
L 433.143413 80.605674 
L 435.430238 80.605674 
L 437.717064 158.584375 
L 440.003889 158.584375 
L 442.290715 158.584375 
L 444.57754 155.972 
L 446.864366 155.972 
L 449.151191 178.910996 
L 451.438017 178.910996 
L 453.724842 178.910996 
L 456.011667 228.770503 
L 458.298493 228.770503 
L 460.585318 210.397474 
L 462.872144 210.397474 
L 465.158969 210.397474 
L 467.445795 145.973248 
L 469.73262 145.973248 
L 472.019446 145.973248 
L 474.306271 145.973248 
L 476.593097 135.571492 
L 478.879922 135.571492 
L 481.166748 135.571492 
L 483.453573 135.571492 
L 485.740399 84.289529 
L 488.027224 84.289529 
L 490.31405 84.289529 
L 492.600875 84.289529 
L 494.887701 84.289529 
L 497.174526 84.289529 
L 499.461351 104.614895 
L 501.748177 104.614895 
L 504.035002 104.614895 
L 506.321828 104.614895 
L 508.608653 104.614895 
L 510.895479 104.614895 
L 513.182304 182.699216 
L 515.46913 182.699216 
L 517.755955 189.550256 
L 520.042781 189.550256 
L 522.329606 189.550256 
L 524.616432 189.550256 
L 526.903257 267.639659 
L 529.190083 267.639659 
L 531.476908 267.639659 
L 533.763734 242.807449 
L 536.050559 269.188291 
L 538.337385 269.188291 
L 540.62421 269.188291 
L 542.911035 228.927549 
L 545.197861 228.927549 
" style="fill:none;stroke:#808080;stroke-linecap:square;stroke-width:3;"/>
   </g>
   <g id="patch_6">
    <path d="M 307.482353 285.12 
L 307.482353 2.88 
" style="fill:none;stroke:#000000;stroke-linecap:square;stroke-linejoin:miter;stroke-width:0.8;"/>
   </g>
   <g id="patch_7">
    <path d="M 307.482353 285.12 
L 556.517647 285.12 
" style="fill:none;stroke:#000000;stroke-linecap:square;stroke-linejoin:miter;stroke-width:0.8;"/>
   </g>
  </g>
  <g id="axes_3">
   <g id="patch_8">
    <path d="M 606.324706 285.12 
L 855.36 285.12 
L 855.36 2.88 
L 606.324706 2.88 
z
" style="fill:none;"/>
   </g>
   <g id="PathCollection_3">
    <g clip-path="url(#p72cdc9b4ae)">
     <use style="stroke:#000000;" x="617.644492" xlink:href="#m4838257946" y="158.576666"/>
     <use style="stroke:#000000;" x="619.931317" xlink:href="#m4838257946" y="207.610557"/>
     <use style="stroke:#000000;" x="622.218143" xlink:href="#m4838257946" y="190.491891"/>
     <use style="stroke:#000000;" x="624.504968" xlink:href="#m4838257946" y="192.255141"/>
     <use style="stroke:#000000;" x="626.791794" xlink:href="#m4838257946" y="123.976793"/>
     <use style="stroke:#000000;" x="629.078619" xlink:href="#m4838257946" y="203.817998"/>
     <use style="stroke:#000000;" x="631.365445" xlink:href="#m4838257946" y="78.491177"/>
     <use style="stroke:#000000;" x="633.65227" xlink:href="#m4838257946" y="143.34832"/>
     <use style="stroke:#000000;" x="635.939096" xlink:href="#m4838257946" y="107.543569"/>
     <use style="stroke:#000000;" x="638.225921" xlink:href="#m4838257946" y="121.425905"/>
     <use style="stroke:#000000;" x="640.512747" xlink:href="#m4838257946" y="72.246581"/>
     <use style="stroke:#000000;" x="642.799572" xlink:href="#m4838257946" y="175.604974"/>
     <use style="stroke:#000000;" x="645.086398" xlink:href="#m4838257946" y="130.158229"/>
     <use style="stroke:#000000;" x="647.373223" xlink:href="#m4838257946" y="138.319835"/>
     <use style="stroke:#000000;" x="649.660049" xlink:href="#m4838257946" y="102.83149"/>
     <use style="stroke:#000000;" x="651.946874" xlink:href="#m4838257946" y="176.37787"/>
     <use style="stroke:#000000;" x="654.2337" xlink:href="#m4838257946" y="160.171301"/>
     <use style="stroke:#000000;" x="656.520525" xlink:href="#m4838257946" y="191.40969"/>
     <use style="stroke:#000000;" x="658.807351" xlink:href="#m4838257946" y="176.143352"/>
     <use style="stroke:#000000;" x="661.094176" xlink:href="#m4838257946" y="171.493874"/>
     <use style="stroke:#000000;" x="663.381001" xlink:href="#m4838257946" y="229.988794"/>
     <use style="stroke:#000000;" x="665.667827" xlink:href="#m4838257946" y="174.629696"/>
     <use style="stroke:#000000;" x="667.954652" xlink:href="#m4838257946" y="189.255634"/>
     <use style="stroke:#000000;" x="670.241478" xlink:href="#m4838257946" y="206.608639"/>
     <use style="stroke:#000000;" x="672.528303" xlink:href="#m4838257946" y="199.073981"/>
     <use style="stroke:#000000;" x="674.815129" xlink:href="#m4838257946" y="246.276682"/>
     <use style="stroke:#000000;" x="677.101954" xlink:href="#m4838257946" y="229.611561"/>
     <use style="stroke:#000000;" x="679.38878" xlink:href="#m4838257946" y="250.057773"/>
     <use style="stroke:#000000;" x="681.675605" xlink:href="#m4838257946" y="225.729571"/>
     <use style="stroke:#000000;" x="683.962431" xlink:href="#m4838257946" y="195.510823"/>
     <use style="stroke:#000000;" x="686.249256" xlink:href="#m4838257946" y="221.326752"/>
     <use style="stroke:#000000;" x="688.536082" xlink:href="#m4838257946" y="201.910683"/>
     <use style="stroke:#000000;" x="690.822907" xlink:href="#m4838257946" y="197.922853"/>
     <use style="stroke:#000000;" x="693.109733" xlink:href="#m4838257946" y="189.128649"/>
     <use style="stroke:#000000;" x="695.396558" xlink:href="#m4838257946" y="170.199665"/>
     <use style="stroke:#000000;" x="697.683384" xlink:href="#m4838257946" y="137.177613"/>
     <use style="stroke:#000000;" x="699.970209" xlink:href="#m4838257946" y="155.013345"/>
     <use style="stroke:#000000;" x="702.257035" xlink:href="#m4838257946" y="103.015263"/>
     <use style="stroke:#000000;" x="704.54386" xlink:href="#m4838257946" y="49.978593"/>
     <use style="stroke:#000000;" x="706.830685" xlink:href="#m4838257946" y="65.64359"/>
     <use style="stroke:#000000;" x="709.117511" xlink:href="#m4838257946" y="83.541977"/>
     <use style="stroke:#000000;" x="711.404336" xlink:href="#m4838257946" y="96.645369"/>
     <use style="stroke:#000000;" x="713.691162" xlink:href="#m4838257946" y="87.987129"/>
     <use style="stroke:#000000;" x="715.977987" xlink:href="#m4838257946" y="15.709091"/>
     <use style="stroke:#000000;" x="718.264813" xlink:href="#m4838257946" y="63.003714"/>
     <use style="stroke:#000000;" x="720.551638" xlink:href="#m4838257946" y="85.324525"/>
     <use style="stroke:#000000;" x="722.838464" xlink:href="#m4838257946" y="66.443679"/>
     <use style="stroke:#000000;" x="725.125289" xlink:href="#m4838257946" y="18.652283"/>
     <use style="stroke:#000000;" x="727.412115" xlink:href="#m4838257946" y="84.387388"/>
     <use style="stroke:#000000;" x="729.69894" xlink:href="#m4838257946" y="80.605674"/>
     <use style="stroke:#000000;" x="731.985766" xlink:href="#m4838257946" y="101.422747"/>
     <use style="stroke:#000000;" x="734.272591" xlink:href="#m4838257946" y="132.707501"/>
     <use style="stroke:#000000;" x="736.559417" xlink:href="#m4838257946" y="168.37311"/>
     <use style="stroke:#000000;" x="738.846242" xlink:href="#m4838257946" y="158.584375"/>
     <use style="stroke:#000000;" x="741.133068" xlink:href="#m4838257946" y="167.099999"/>
     <use style="stroke:#000000;" x="743.419893" xlink:href="#m4838257946" y="155.972"/>
     <use style="stroke:#000000;" x="745.706719" xlink:href="#m4838257946" y="159.212954"/>
     <use style="stroke:#000000;" x="747.993544" xlink:href="#m4838257946" y="165.494057"/>
     <use style="stroke:#000000;" x="750.280369" xlink:href="#m4838257946" y="191.103852"/>
     <use style="stroke:#000000;" x="752.567195" xlink:href="#m4838257946" y="178.910996"/>
     <use style="stroke:#000000;" x="754.85402" xlink:href="#m4838257946" y="228.770503"/>
     <use style="stroke:#000000;" x="757.140846" xlink:href="#m4838257946" y="171.662309"/>
     <use style="stroke:#000000;" x="759.427671" xlink:href="#m4838257946" y="191.116004"/>
     <use style="stroke:#000000;" x="761.714497" xlink:href="#m4838257946" y="210.397474"/>
     <use style="stroke:#000000;" x="764.001322" xlink:href="#m4838257946" y="181.763172"/>
     <use style="stroke:#000000;" x="766.288148" xlink:href="#m4838257946" y="190.063351"/>
     <use style="stroke:#000000;" x="768.574973" xlink:href="#m4838257946" y="145.973248"/>
     <use style="stroke:#000000;" x="770.861799" xlink:href="#m4838257946" y="124.181993"/>
     <use style="stroke:#000000;" x="773.148624" xlink:href="#m4838257946" y="93.595173"/>
     <use style="stroke:#000000;" x="775.43545" xlink:href="#m4838257946" y="184.51628"/>
     <use style="stroke:#000000;" x="777.722275" xlink:href="#m4838257946" y="173.995123"/>
     <use style="stroke:#000000;" x="780.009101" xlink:href="#m4838257946" y="135.571492"/>
     <use style="stroke:#000000;" x="782.295926" xlink:href="#m4838257946" y="105.895448"/>
     <use style="stroke:#000000;" x="784.582752" xlink:href="#m4838257946" y="75.976199"/>
     <use style="stroke:#000000;" x="786.869577" xlink:href="#m4838257946" y="84.289529"/>
     <use style="stroke:#000000;" x="789.156403" xlink:href="#m4838257946" y="145.504151"/>
     <use style="stroke:#000000;" x="791.443228" xlink:href="#m4838257946" y="92.486433"/>
     <use style="stroke:#000000;" x="793.730053" xlink:href="#m4838257946" y="58.464035"/>
     <use style="stroke:#000000;" x="796.016879" xlink:href="#m4838257946" y="76.548227"/>
     <use style="stroke:#000000;" x="798.303704" xlink:href="#m4838257946" y="64.613225"/>
     <use style="stroke:#000000;" x="800.59053" xlink:href="#m4838257946" y="98.549564"/>
     <use style="stroke:#000000;" x="802.877355" xlink:href="#m4838257946" y="105.827633"/>
     <use style="stroke:#000000;" x="805.164181" xlink:href="#m4838257946" y="104.614895"/>
     <use style="stroke:#000000;" x="807.451006" xlink:href="#m4838257946" y="109.83994"/>
     <use style="stroke:#000000;" x="809.737832" xlink:href="#m4838257946" y="128.965273"/>
     <use style="stroke:#000000;" x="812.024657" xlink:href="#m4838257946" y="145.322965"/>
     <use style="stroke:#000000;" x="814.311483" xlink:href="#m4838257946" y="182.699216"/>
     <use style="stroke:#000000;" x="816.598308" xlink:href="#m4838257946" y="167.524894"/>
     <use style="stroke:#000000;" x="818.885134" xlink:href="#m4838257946" y="189.550256"/>
     <use style="stroke:#000000;" x="821.171959" xlink:href="#m4838257946" y="174.660969"/>
     <use style="stroke:#000000;" x="823.458785" xlink:href="#m4838257946" y="185.650652"/>
     <use style="stroke:#000000;" x="825.74561" xlink:href="#m4838257946" y="226.315669"/>
     <use style="stroke:#000000;" x="828.032436" xlink:href="#m4838257946" y="252.236071"/>
     <use style="stroke:#000000;" x="830.319261" xlink:href="#m4838257946" y="267.639659"/>
     <use style="stroke:#000000;" x="832.606087" xlink:href="#m4838257946" y="242.807449"/>
     <use style="stroke:#000000;" x="834.892912" xlink:href="#m4838257946" y="256.095172"/>
     <use style="stroke:#000000;" x="837.179737" xlink:href="#m4838257946" y="269.188291"/>
     <use style="stroke:#000000;" x="839.466563" xlink:href="#m4838257946" y="256.756777"/>
     <use style="stroke:#000000;" x="841.753388" xlink:href="#m4838257946" y="272.290909"/>
     <use style="stroke:#000000;" x="844.040214" xlink:href="#m4838257946" y="228.927549"/>
    </g>
   </g>
   <g id="matplotlib.axis_5">
    <g id="text_5">
     <!-- x -->
     <g transform="translate(723.747353 305.836563)scale(0.22 -0.22)">
      <use xlink:href="#DejaVuSans-Bold-120"/>
     </g>
    </g>
   </g>
   <g id="matplotlib.axis_6">
    <g id="text_6">
     <!-- y -->
     <g transform="translate(597.577518 151.170625)rotate(-90)scale(0.22 -0.22)">
      <use xlink:href="#DejaVuSans-Bold-121"/>
     </g>
    </g>
   </g>
   <g id="line2d_3">
    <path clip-path="url(#p72cdc9b4ae)" d="M 617.644492 207.610557 
L 619.931317 207.610557 
L 622.218143 207.610557 
L 624.504968 192.255141 
L 626.791794 123.976793 
L 629.078619 123.976793 
L 631.365445 123.976793 
L 633.65227 123.976793 
L 635.939096 175.604974 
L 638.225921 175.604974 
L 640.512747 175.604974 
L 642.799572 175.604974 
L 645.086398 175.604974 
L 647.373223 175.604974 
L 649.660049 175.604974 
L 651.946874 175.604974 
L 654.2337 175.604974 
L 656.520525 175.604974 
L 658.807351 199.073981 
L 661.094176 199.073981 
L 663.381001 199.073981 
L 665.667827 199.073981 
L 667.954652 199.073981 
L 670.241478 199.073981 
L 672.528303 199.073981 
L 674.815129 199.073981 
L 677.101954 199.073981 
L 679.38878 199.073981 
L 681.675605 199.073981 
L 683.962431 197.922853 
L 686.249256 197.922853 
L 688.536082 197.922853 
L 690.822907 197.922853 
L 693.109733 189.128649 
L 695.396558 189.128649 
L 697.683384 189.128649 
L 699.970209 49.978593 
L 702.257035 49.978593 
L 704.54386 49.978593 
L 706.830685 65.64359 
L 709.117511 65.64359 
L 711.404336 65.64359 
L 713.691162 65.64359 
L 715.977987 65.64359 
L 718.264813 18.652283 
L 720.551638 18.652283 
L 722.838464 18.652283 
L 725.125289 18.652283 
L 727.412115 84.387388 
L 729.69894 80.605674 
L 731.985766 80.605674 
L 734.272591 80.605674 
L 736.559417 80.605674 
L 738.846242 80.605674 
L 741.133068 191.103852 
L 743.419893 191.103852 
L 745.706719 191.103852 
L 747.993544 191.103852 
L 750.280369 191.103852 
L 752.567195 178.910996 
L 754.85402 228.770503 
L 757.140846 171.662309 
L 759.427671 191.116004 
L 761.714497 210.397474 
L 764.001322 190.063351 
L 766.288148 190.063351 
L 768.574973 190.063351 
L 770.861799 190.063351 
L 773.148624 190.063351 
L 775.43545 190.063351 
L 777.722275 190.063351 
L 780.009101 190.063351 
L 782.295926 190.063351 
L 784.582752 98.549564 
L 786.869577 98.549564 
L 789.156403 98.549564 
L 791.443228 98.549564 
L 793.730053 98.549564 
L 796.016879 98.549564 
L 798.303704 98.549564 
L 800.59053 98.549564 
L 802.877355 98.549564 
L 805.164181 109.83994 
L 807.451006 109.83994 
L 809.737832 128.965273 
L 812.024657 128.965273 
L 814.311483 128.965273 
L 816.598308 189.550256 
L 818.885134 189.550256 
L 821.171959 189.550256 
L 823.458785 185.650652 
L 825.74561 185.650652 
L 828.032436 252.236071 
L 830.319261 252.236071 
L 832.606087 242.807449 
L 834.892912 242.807449 
L 837.179737 272.290909 
L 839.466563 272.290909 
L 841.753388 272.290909 
L 844.040214 272.290909 
" style="fill:none;stroke:#808080;stroke-linecap:square;stroke-width:3;"/>
   </g>
   <g id="patch_9">
    <path d="M 606.324706 285.12 
L 606.324706 2.88 
" style="fill:none;stroke:#000000;stroke-linecap:square;stroke-linejoin:miter;stroke-width:0.8;"/>
   </g>
   <g id="patch_10">
    <path d="M 606.324706 285.12 
L 855.36 285.12 
" style="fill:none;stroke:#000000;stroke-linecap:square;stroke-linejoin:miter;stroke-width:0.8;"/>
   </g>
  </g>
 </g>
 <defs>
  <clipPath id="p6eb7a91902">
   <rect height="282.24" width="249.035294" x="8.64" y="2.88"/>
  </clipPath>
  <clipPath id="p93a391b14c">
   <rect height="282.24" width="249.035294" x="307.482353" y="2.88"/>
  </clipPath>
  <clipPath id="p72cdc9b4ae">
   <rect height="282.24" width="249.035294" x="606.324706" y="2.88"/>
  </clipPath>
 </defs>
</svg>
