<?xml version="1.0" encoding="utf-8" standalone="no"?>
<!DOCTYPE svg PUBLIC "-//W3C//DTD SVG 1.1//EN"
  "http://www.w3.org/Graphics/SVG/1.1/DTD/svg11.dtd">
<!-- Created with matplotlib (https://matplotlib.org/) -->
<svg height="216pt" version="1.1" viewBox="0 0 288 216" width="288pt" xmlns="http://www.w3.org/2000/svg" xmlns:xlink="http://www.w3.org/1999/xlink">
 <defs>
  <style type="text/css">
*{stroke-linecap:butt;stroke-linejoin:round;}
  </style>
 </defs>
 <g id="figure_1">
  <g id="patch_1">
   <path d="M 0 216 
L 288 216 
L 288 0 
L 0 0 
z
" style="fill:none;"/>
  </g>
  <g id="axes_1">
   <g id="patch_2">
    <path d="M 28.8 194.4 
L 288 194.4 
L 288 0 
L 28.8 0 
z
" style="fill:none;"/>
   </g>
   <g id="PathCollection_1">
    <defs>
     <path d="M 0 3 
C 0.795609 3 1.55874 2.683901 2.12132 2.12132 
C 2.683901 1.55874 3 0.795609 3 0 
C 3 -0.795609 2.683901 -1.55874 2.12132 -2.12132 
C 1.55874 -2.683901 0.795609 -3 0 -3 
C -0.795609 -3 -1.55874 -2.683901 -2.12132 -2.12132 
C -2.683901 -1.55874 -3 -0.795609 -3 0 
C -3 0.795609 -2.683901 1.55874 -2.12132 2.12132 
C -1.55874 2.683901 -0.795609 3 0 3 
z
" id="m73874f6fe7" style="stroke:#000000;"/>
    </defs>
    <g clip-path="url(#p38c17520e0)">
     <use style="stroke:#000000;" x="40.581818" xlink:href="#m73874f6fe7" y="107.24005"/>
     <use style="stroke:#000000;" x="42.961983" xlink:href="#m73874f6fe7" y="141.013394"/>
     <use style="stroke:#000000;" x="45.342149" xlink:href="#m73874f6fe7" y="129.222476"/>
     <use style="stroke:#000000;" x="47.722314" xlink:href="#m73874f6fe7" y="130.43696"/>
     <use style="stroke:#000000;" x="50.102479" xlink:href="#m73874f6fe7" y="83.408506"/>
     <use style="stroke:#000000;" x="52.482645" xlink:href="#m73874f6fe7" y="138.401172"/>
     <use style="stroke:#000000;" x="54.86281" xlink:href="#m73874f6fe7" y="52.079127"/>
     <use style="stroke:#000000;" x="57.242975" xlink:href="#m73874f6fe7" y="96.751139"/>
     <use style="stroke:#000000;" x="59.62314" xlink:href="#m73874f6fe7" y="72.089703"/>
     <use style="stroke:#000000;" x="62.003306" xlink:href="#m73874f6fe7" y="81.651516"/>
     <use style="stroke:#000000;" x="64.383471" xlink:href="#m73874f6fe7" y="47.778002"/>
     <use style="stroke:#000000;" x="66.763636" xlink:href="#m73874f6fe7" y="118.968732"/>
     <use style="stroke:#000000;" x="69.143802" xlink:href="#m73874f6fe7" y="87.666127"/>
     <use style="stroke:#000000;" x="71.523967" xlink:href="#m73874f6fe7" y="93.287641"/>
     <use style="stroke:#000000;" x="73.904132" xlink:href="#m73874f6fe7" y="68.844139"/>
     <use style="stroke:#000000;" x="76.284298" xlink:href="#m73874f6fe7" y="119.501084"/>
     <use style="stroke:#000000;" x="78.664463" xlink:href="#m73874f6fe7" y="108.338396"/>
     <use style="stroke:#000000;" x="81.044628" xlink:href="#m73874f6fe7" y="129.854634"/>
     <use style="stroke:#000000;" x="83.424793" xlink:href="#m73874f6fe7" y="119.339554"/>
     <use style="stroke:#000000;" x="85.804959" xlink:href="#m73874f6fe7" y="116.137107"/>
     <use style="stroke:#000000;" x="88.185124" xlink:href="#m73874f6fe7" y="156.426975"/>
     <use style="stroke:#000000;" x="90.565289" xlink:href="#m73874f6fe7" y="118.296984"/>
     <use style="stroke:#000000;" x="92.945455" xlink:href="#m73874f6fe7" y="128.370973"/>
     <use style="stroke:#000000;" x="95.32562" xlink:href="#m73874f6fe7" y="140.323298"/>
     <use style="stroke:#000000;" x="97.705785" xlink:href="#m73874f6fe7" y="135.133609"/>
     <use style="stroke:#000000;" x="100.08595" xlink:href="#m73874f6fe7" y="167.645674"/>
     <use style="stroke:#000000;" x="102.466116" xlink:href="#m73874f6fe7" y="156.167147"/>
     <use style="stroke:#000000;" x="104.846281" xlink:href="#m73874f6fe7" y="170.249997"/>
     <use style="stroke:#000000;" x="107.226446" xlink:href="#m73874f6fe7" y="153.493327"/>
     <use style="stroke:#000000;" x="109.606612" xlink:href="#m73874f6fe7" y="132.679393"/>
     <use style="stroke:#000000;" x="111.986777" xlink:href="#m73874f6fe7" y="150.460773"/>
     <use style="stroke:#000000;" x="114.366942" xlink:href="#m73874f6fe7" y="137.08746"/>
     <use style="stroke:#000000;" x="116.747107" xlink:href="#m73874f6fe7" y="134.340741"/>
     <use style="stroke:#000000;" x="119.127273" xlink:href="#m73874f6fe7" y="128.283508"/>
     <use style="stroke:#000000;" x="121.507438" xlink:href="#m73874f6fe7" y="115.245688"/>
     <use style="stroke:#000000;" x="123.887603" xlink:href="#m73874f6fe7" y="92.500907"/>
     <use style="stroke:#000000;" x="126.267769" xlink:href="#m73874f6fe7" y="104.785722"/>
     <use style="stroke:#000000;" x="128.647934" xlink:href="#m73874f6fe7" y="68.970717"/>
     <use style="stroke:#000000;" x="131.028099" xlink:href="#m73874f6fe7" y="32.440357"/>
     <use style="stroke:#000000;" x="133.408264" xlink:href="#m73874f6fe7" y="43.230023"/>
     <use style="stroke:#000000;" x="135.78843" xlink:href="#m73874f6fe7" y="55.557994"/>
     <use style="stroke:#000000;" x="138.168595" xlink:href="#m73874f6fe7" y="64.58329"/>
     <use style="stroke:#000000;" x="140.54876" xlink:href="#m73874f6fe7" y="58.619706"/>
     <use style="stroke:#000000;" x="142.928926" xlink:href="#m73874f6fe7" y="8.836364"/>
     <use style="stroke:#000000;" x="145.309091" xlink:href="#m73874f6fe7" y="41.411742"/>
     <use style="stroke:#000000;" x="147.689256" xlink:href="#m73874f6fe7" y="56.78577"/>
     <use style="stroke:#000000;" x="150.069421" xlink:href="#m73874f6fe7" y="43.781106"/>
     <use style="stroke:#000000;" x="152.449587" xlink:href="#m73874f6fe7" y="10.863562"/>
     <use style="stroke:#000000;" x="154.829752" xlink:href="#m73874f6fe7" y="56.140293"/>
     <use style="stroke:#000000;" x="157.209917" xlink:href="#m73874f6fe7" y="53.535541"/>
     <use style="stroke:#000000;" x="159.590083" xlink:href="#m73874f6fe7" y="67.873831"/>
     <use style="stroke:#000000;" x="161.970248" xlink:href="#m73874f6fe7" y="89.422003"/>
     <use style="stroke:#000000;" x="164.350413" xlink:href="#m73874f6fe7" y="113.987601"/>
     <use style="stroke:#000000;" x="166.730579" xlink:href="#m73874f6fe7" y="107.24536"/>
     <use style="stroke:#000000;" x="169.110744" xlink:href="#m73874f6fe7" y="113.110713"/>
     <use style="stroke:#000000;" x="171.490909" xlink:href="#m73874f6fe7" y="105.44602"/>
     <use style="stroke:#000000;" x="173.871074" xlink:href="#m73874f6fe7" y="107.67831"/>
     <use style="stroke:#000000;" x="176.25124" xlink:href="#m73874f6fe7" y="112.00458"/>
     <use style="stroke:#000000;" x="178.631405" xlink:href="#m73874f6fe7" y="129.64398"/>
     <use style="stroke:#000000;" x="181.01157" xlink:href="#m73874f6fe7" y="121.245839"/>
     <use style="stroke:#000000;" x="183.391736" xlink:href="#m73874f6fe7" y="155.587846"/>
     <use style="stroke:#000000;" x="185.771901" xlink:href="#m73874f6fe7" y="116.253121"/>
     <use style="stroke:#000000;" x="188.152066" xlink:href="#m73874f6fe7" y="129.65235"/>
     <use style="stroke:#000000;" x="190.532231" xlink:href="#m73874f6fe7" y="142.932954"/>
     <use style="stroke:#000000;" x="192.912397" xlink:href="#m73874f6fe7" y="123.210348"/>
     <use style="stroke:#000000;" x="195.292562" xlink:href="#m73874f6fe7" y="128.927308"/>
     <use style="stroke:#000000;" x="197.672727" xlink:href="#m73874f6fe7" y="98.559125"/>
     <use style="stroke:#000000;" x="200.052893" xlink:href="#m73874f6fe7" y="83.549842"/>
     <use style="stroke:#000000;" x="202.433058" xlink:href="#m73874f6fe7" y="62.482389"/>
     <use style="stroke:#000000;" x="204.813223" xlink:href="#m73874f6fe7" y="125.106622"/>
     <use style="stroke:#000000;" x="207.193388" xlink:href="#m73874f6fe7" y="117.859906"/>
     <use style="stroke:#000000;" x="209.573554" xlink:href="#m73874f6fe7" y="91.39465"/>
     <use style="stroke:#000000;" x="211.953719" xlink:href="#m73874f6fe7" y="70.954518"/>
     <use style="stroke:#000000;" x="214.333884" xlink:href="#m73874f6fe7" y="50.346872"/>
     <use style="stroke:#000000;" x="216.71405" xlink:href="#m73874f6fe7" y="56.07289"/>
     <use style="stroke:#000000;" x="219.094215" xlink:href="#m73874f6fe7" y="98.236023"/>
     <use style="stroke:#000000;" x="221.47438" xlink:href="#m73874f6fe7" y="61.718716"/>
     <use style="stroke:#000000;" x="223.854545" xlink:href="#m73874f6fe7" y="38.284922"/>
     <use style="stroke:#000000;" x="226.234711" xlink:href="#m73874f6fe7" y="50.740871"/>
     <use style="stroke:#000000;" x="228.614876" xlink:href="#m73874f6fe7" y="42.520334"/>
     <use style="stroke:#000000;" x="230.995041" xlink:href="#m73874f6fe7" y="65.894853"/>
     <use style="stroke:#000000;" x="233.375207" xlink:href="#m73874f6fe7" y="70.907808"/>
     <use style="stroke:#000000;" x="235.755372" xlink:href="#m73874f6fe7" y="70.072504"/>
     <use style="stroke:#000000;" x="238.135537" xlink:href="#m73874f6fe7" y="73.671388"/>
     <use style="stroke:#000000;" x="240.515702" xlink:href="#m73874f6fe7" y="86.844449"/>
     <use style="stroke:#000000;" x="242.895868" xlink:href="#m73874f6fe7" y="98.111226"/>
     <use style="stroke:#000000;" x="245.276033" xlink:href="#m73874f6fe7" y="123.855072"/>
     <use style="stroke:#000000;" x="247.656198" xlink:href="#m73874f6fe7" y="113.403371"/>
     <use style="stroke:#000000;" x="250.036364" xlink:href="#m73874f6fe7" y="128.573901"/>
     <use style="stroke:#000000;" x="252.416529" xlink:href="#m73874f6fe7" y="118.318524"/>
     <use style="stroke:#000000;" x="254.796694" xlink:href="#m73874f6fe7" y="125.887949"/>
     <use style="stroke:#000000;" x="257.17686" xlink:href="#m73874f6fe7" y="153.897017"/>
     <use style="stroke:#000000;" x="259.557025" xlink:href="#m73874f6fe7" y="171.750355"/>
     <use style="stroke:#000000;" x="261.93719" xlink:href="#m73874f6fe7" y="182.359969"/>
     <use style="stroke:#000000;" x="264.317355" xlink:href="#m73874f6fe7" y="165.256151"/>
     <use style="stroke:#000000;" x="266.697521" xlink:href="#m73874f6fe7" y="174.40841"/>
     <use style="stroke:#000000;" x="269.077686" xlink:href="#m73874f6fe7" y="183.426629"/>
     <use style="stroke:#000000;" x="271.457851" xlink:href="#m73874f6fe7" y="174.864107"/>
     <use style="stroke:#000000;" x="273.838017" xlink:href="#m73874f6fe7" y="185.563636"/>
     <use style="stroke:#000000;" x="276.218182" xlink:href="#m73874f6fe7" y="155.696016"/>
    </g>
   </g>
   <g id="matplotlib.axis_1">
    <g id="text_1">
     <!-- x -->
     <defs>
      <path d="M 22.21875 27.984375 
L 2.484375 54.6875 
L 21 54.6875 
L 32.171875 38.484375 
L 43.5 54.6875 
L 62.015625 54.6875 
L 42.28125 28.078125 
L 62.984375 0 
L 44.484375 0 
L 32.171875 17.28125 
L 20.015625 0 
L 1.515625 0 
z
" id="DejaVuSans-Bold-120"/>
     </defs>
     <g transform="translate(151.305 215.116562)scale(0.22 -0.22)">
      <use xlink:href="#DejaVuSans-Bold-120"/>
     </g>
    </g>
   </g>
   <g id="matplotlib.axis_2">
    <g id="text_2">
     <!-- y -->
     <defs>
      <path d="M 1.21875 54.6875 
L 18.703125 54.6875 
L 33.40625 17.578125 
L 45.90625 54.6875 
L 63.375 54.6875 
L 40.375 -5.171875 
Q 36.921875 -14.3125 32.296875 -17.9375 
Q 27.6875 -21.578125 20.125 -21.578125 
L 10.015625 -21.578125 
L 10.015625 -10.109375 
L 15.484375 -10.109375 
Q 19.921875 -10.109375 21.9375 -8.6875 
Q 23.96875 -7.28125 25.09375 -3.609375 
L 25.59375 -2.09375 
z
" id="DejaVuSans-Bold-121"/>
     </defs>
     <g transform="translate(20.052813 104.370625)rotate(-90)scale(0.22 -0.22)">
      <use xlink:href="#DejaVuSans-Bold-121"/>
     </g>
    </g>
   </g>
   <g id="line2d_1">
    <path clip-path="url(#p38c17520e0)" d="M 40.581818 115.135318 
L 42.961983 125.267321 
L 45.342149 129.625314 
L 47.722314 129.868211 
L 50.102479 91.926139 
L 52.482645 105.176805 
L 54.86281 83.411934 
L 57.242975 81.072289 
L 59.62314 83.564442 
L 62.003306 82.45688 
L 64.383471 76.986257 
L 66.763636 95.300495 
L 69.143802 89.179939 
L 71.523967 94.34629 
L 73.904132 90.93588 
L 76.284298 108.237273 
L 78.664463 110.908602 
L 81.044628 120.245238 
L 83.424793 118.330212 
L 85.804959 122.49858 
L 88.185124 129.51252 
L 90.565289 129.021282 
L 92.945455 129.830142 
L 95.32562 138.711137 
L 97.705785 139.544696 
L 100.08595 148.56819 
L 102.466116 151.627045 
L 104.846281 160.088375 
L 107.226446 151.772108 
L 109.606612 147.814263 
L 111.986777 148.089366 
L 114.366942 142.740041 
L 116.747107 138.360967 
L 119.127273 120.571549 
L 121.507438 117.963985 
L 123.887603 115.689507 
L 126.267769 98.097416 
L 128.647934 94.515915 
L 131.028099 72.406533 
L 133.408264 59.868 
L 135.78843 53.444611 
L 138.168595 47.468409 
L 140.54876 46.581863 
L 142.928926 33.711681 
L 145.309091 37.111323 
L 147.689256 37.367586 
L 150.069421 41.034449 
L 152.449587 29.858719 
L 154.829752 52.202458 
L 157.209917 56.245598 
L 159.590083 76.794842 
L 161.970248 85.414111 
L 164.350413 105.76832 
L 166.730579 106.022273 
L 169.110744 108.933286 
L 171.490909 110.46837 
L 173.871074 110.693601 
L 176.25124 116.913278 
L 178.631405 119.109844 
L 181.01157 133.541577 
L 183.391736 150.388884 
L 185.771901 138.588467 
L 188.152066 133.463939 
L 190.532231 134.919885 
L 192.912397 126.404835 
L 195.292562 122.539148 
L 197.672727 118.573098 
L 200.052893 86.775591 
L 202.433058 80.455355 
L 204.813223 83.604735 
L 207.193388 92.818194 
L 209.573554 84.40687 
L 211.953719 69.432852 
L 214.333884 50.919474 
L 216.71405 52.637279 
L 219.094215 72.922105 
L 221.47438 60.227516 
L 223.854545 55.540757 
L 226.234711 55.994036 
L 228.614876 58.350589 
L 230.995041 63.084503 
L 233.375207 69.489208 
L 235.755372 74.949977 
L 238.135537 77.263418 
L 240.515702 82.89253 
L 242.895868 91.351159 
L 245.276033 116.534455 
L 247.656198 119.572987 
L 250.036364 122.607093 
L 252.416529 130.090028 
L 254.796694 136.713605 
L 257.17686 148.415544 
L 259.557025 156.572452 
L 261.93719 167.674365 
L 264.317355 174.829952 
L 266.697521 176.244219 
L 269.077686 178.047863 
L 271.457851 178.611974 
L 273.838017 176.27571 
L 276.218182 168.385377 
" style="fill:none;stroke:#1f77b4;stroke-linecap:square;stroke-width:3;"/>
   </g>
   <g id="patch_3">
    <path d="M 28.8 194.4 
L 28.8 0 
" style="fill:none;stroke:#000000;stroke-linecap:square;stroke-linejoin:miter;stroke-width:0.8;"/>
   </g>
   <g id="patch_4">
    <path d="M 28.8 194.4 
L 288 194.4 
" style="fill:none;stroke:#000000;stroke-linecap:square;stroke-linejoin:miter;stroke-width:0.8;"/>
   </g>
  </g>
 </g>
 <defs>
  <clipPath id="p38c17520e0">
   <rect height="194.4" width="259.2" x="28.8" y="0"/>
  </clipPath>
 </defs>
</svg>
