<svg version="1.1" viewBox="0.0 0.0 809.0288713910761 216.96062992125985" fill="none" stroke="none" stroke-linecap="square" stroke-miterlimit="10" xmlns:xlink="http://www.w3.org/1999/xlink" xmlns="http://www.w3.org/2000/svg"><clipPath id="p.0"><path d="m0 0l809.0289 0l0 216.96063l-809.0289 0l0 -216.96063z" clip-rule="nonzero"/></clipPath><g clip-path="url(#p.0)"><path fill="#000000" fill-opacity="0.0" d="m0 0l809.0289 0l0 216.96063l-809.0289 0z" fill-rule="evenodd"/><path fill="#000000" fill-opacity="0.0" d="m44.0 5.43832l88.53543 0l0 73.38583l-88.53543 0z" fill-rule="evenodd"/><path stroke="#000000" stroke-width="2.0" stroke-linejoin="round" stroke-linecap="butt" d="m44.0 5.43832l88.53543 0l0 73.38583l-88.53543 0z" fill-rule="evenodd"/><path fill="#666666" d="m59.902054 30.973106l0 -17.5l1.421875 0l0 17.5l-1.421875 0z" fill-rule="nonzero"/><path fill="#666666" d="m59.902054 52.973106l0 -17.5l1.421875 0l0 17.5l-1.421875 0z" fill-rule="nonzero"/><path fill="#666666" d="m59.902054 74.973114l0 -17.500004l1.421875 0l0 17.500004l-1.421875 0z" fill-rule="nonzero"/><path fill="#ff0000" d="m7.874016 179.03412l0 0c0 -10.297714 8.087077 -18.64566 18.062992 -18.64566l0 0c4.7906036 0 9.3849945 1.964447 12.772465 5.4611816c3.3874664 3.4967499 5.2905273 8.239349 5.2905273 13.184479l0 0c0 10.297714 -8.087078 18.645676 -18.062992 18.645676l0 0c-9.975915 0 -18.062992 -8.347961 -18.062992 -18.645676z" fill-rule="evenodd"/><path stroke="#000000" stroke-width="1.0" stroke-linejoin="round" stroke-linecap="butt" d="m7.874016 179.03412l0 0c0 -10.297714 8.087077 -18.64566 18.062992 -18.64566l0 0c4.7906036 0 9.3849945 1.964447 12.772465 5.4611816c3.3874664 3.4967499 5.2905273 8.239349 5.2905273 13.184479l0 0c0 10.297714 -8.087078 18.645676 -18.062992 18.645676l0 0c-9.975915 0 -18.062992 -8.347961 -18.062992 -18.645676z" fill-rule="evenodd"/><path fill="#0000ff" d="m132.53543 160.38846l32.62993 0l0 38.45668l-32.62993 0z" fill-rule="evenodd"/><path stroke="#000000" stroke-width="1.0" stroke-linejoin="round" stroke-linecap="butt" d="m132.53543 160.38846l32.62993 0l0 38.45668l-32.62993 0z" fill-rule="evenodd"/><path fill="#000000" fill-opacity="0.0" d="m88.267715 78.81365l-62.330708 81.57481" fill-rule="evenodd"/><path stroke="#000000" stroke-width="4.0" stroke-linejoin="round" stroke-linecap="butt" d="m88.267715 78.81365l-47.759285 62.50457" fill-rule="evenodd"/><path fill="#000000" stroke="#000000" stroke-width="4.0" stroke-linecap="butt" d="m35.25861 137.30687l-5.771269 18.43512l16.270906 -10.412415z" fill-rule="evenodd"/><path fill="#000000" fill-opacity="0.0" d="m88.267715 78.82415l60.59842 81.57481" fill-rule="evenodd"/><path stroke="#000000" stroke-width="4.0" stroke-linejoin="round" stroke-linecap="butt" d="m88.267715 78.82415l46.28665 62.308952" fill-rule="evenodd"/><path fill="#000000" stroke="#000000" stroke-width="4.0" stroke-linecap="butt" d="m129.25069 145.07297l16.128387 10.631851l-5.521042 -18.511597z" fill-rule="evenodd"/><path fill="#000000" fill-opacity="0.0" d="m289.79266 140.00525l0 -88.53543l73.3858 0l0 88.53543z" fill-rule="evenodd"/><path stroke="#000000" stroke-width="2.0" stroke-linejoin="round" stroke-linecap="butt" d="m289.79266 140.00525l0 -88.53543l73.3858 0l0 88.53543z" fill-rule="evenodd"/><path fill="#666666" d="m315.32742 93.00337l-17.5 0l0 -1.421875l17.5 0l0 1.421875z" fill-rule="nonzero"/><path fill="#666666" d="m337.32742 93.00337l-17.5 0l0 -1.421875l17.5 0l0 1.421875z" fill-rule="nonzero"/><path fill="#666666" d="m359.32745 93.00337l-17.5 0l0 -1.421875l17.5 0l0 1.421875z" fill-rule="nonzero"/><path fill="#ff0000" d="m463.98163 55.53806l0 0c-10.2977295 0 -18.64566 -8.087078 -18.64566 -18.062992l0 0c0 -4.7906036 1.964447 -9.384998 5.4611816 -12.772467c3.4967346 -3.3874664 8.239349 -5.2905273 13.184479 -5.2905273l0 0c10.2977295 0 18.64566 8.087078 18.64566 18.062994l0 0c0 9.975914 -8.347931 18.062992 -18.64566 18.062992z" fill-rule="evenodd"/><path stroke="#000000" stroke-width="1.0" stroke-linejoin="round" stroke-linecap="butt" d="m463.98163 55.53806l0 0c-10.2977295 0 -18.64566 -8.087078 -18.64566 -18.062992l0 0c0 -4.7906036 1.964447 -9.384998 5.4611816 -12.772467c3.4967346 -3.3874664 8.239349 -5.2905273 13.184479 -5.2905273l0 0c10.2977295 0 18.64566 8.087078 18.64566 18.062994l0 0c0 9.975914 -8.347931 18.062992 -18.64566 18.062992z" fill-rule="evenodd"/><path fill="#0000ff" d="m444.7533 190.69292l0 -32.62993l38.456665 0l0 32.62993z" fill-rule="evenodd"/><path stroke="#000000" stroke-width="1.0" stroke-linejoin="round" stroke-linecap="butt" d="m444.7533 190.69292l0 -32.62993l38.456665 0l0 32.62993z" fill-rule="evenodd"/><path fill="#000000" fill-opacity="0.0" d="m363.17847 95.73753l82.17325 -58.267715" fill-rule="evenodd"/><path stroke="#000000" stroke-width="4.0" stroke-linejoin="round" stroke-linecap="butt" d="m363.17847 95.73753l62.59561 -44.38552" fill-rule="evenodd"/><path fill="#000000" stroke="#000000" stroke-width="4.0" stroke-linecap="butt" d="m429.59567 56.741524l10.985931 -15.889305l-18.62915 5.1102905z" fill-rule="evenodd"/><path fill="#000000" fill-opacity="0.0" d="m363.17847 95.73753l81.57483 78.645676" fill-rule="evenodd"/><path stroke="#000000" stroke-width="4.0" stroke-linejoin="round" stroke-linecap="butt" d="m363.17847 95.73753l64.296875 61.988144" fill-rule="evenodd"/><path fill="#000000" stroke="#000000" stroke-width="4.0" stroke-linecap="butt" d="m422.8897 162.4821l17.653809 7.8424835l-8.482544 -17.355331z" fill-rule="evenodd"/><path fill="#cfe2f3" d="m225.82008 94.89968l11.678024 0l0 -12.059944l10.993286 0l0 12.059944l11.67804 0l0 10.993286l-11.67804 0l0 12.059944l-10.993286 0l0 -12.059944l-11.678024 0z" fill-rule="evenodd"/><path stroke="#000000" stroke-width="2.0" stroke-linejoin="round" stroke-linecap="butt" d="m225.82008 94.89968l11.678024 0l0 -12.059944l10.993286 0l0 12.059944l11.67804 0l0 10.993286l-11.67804 0l0 12.059944l-10.993286 0l0 -12.059944l-11.678024 0z" fill-rule="evenodd"/><path fill="#cfe2f3" d="m503.78595 99.55585l11.67804 0l0 -12.059944l10.993286 0l0 12.059944l11.67804 0l0 10.993286l-11.67804 0l0 12.059944l-10.993286 0l0 -12.059944l-11.67804 0z" fill-rule="evenodd"/><path stroke="#000000" stroke-width="2.0" stroke-linejoin="round" stroke-linecap="butt" d="m503.78595 99.55585l11.67804 0l0 -12.059944l10.993286 0l0 12.059944l11.67804 0l0 10.993286l-11.67804 0l0 12.059944l-10.993286 0l0 -12.059944l-11.67804 0z" fill-rule="evenodd"/><path fill="#000000" fill-opacity="0.0" d="m658.83466 8.349081l88.5354 0l0 73.385826l-88.5354 0z" fill-rule="evenodd"/><path stroke="#000000" stroke-width="2.0" stroke-linejoin="round" stroke-linecap="butt" d="m658.83466 8.349081l88.5354 0l0 73.385826l-88.5354 0z" fill-rule="evenodd"/><path fill="#666666" d="m717.5534 33.88387l0 -17.500002l1.421875 0l0 17.500002l-1.421875 0z" fill-rule="nonzero"/><path fill="#666666" d="m717.5534 55.88387l0 -17.5l1.421875 0l0 17.5l-1.421875 0z" fill-rule="nonzero"/><path fill="#666666" d="m717.5534 77.88387l0 -17.5l1.421875 0l0 17.5l-1.421875 0z" fill-rule="nonzero"/><path fill="#ff0000" d="m740.6221 182.52756l0 0c0 -10.297714 8.087036 -18.64566 18.062988 -18.64566l0 0c4.7905884 0 9.384949 1.964447 12.772461 5.4611816c3.3874512 3.4967499 5.2905273 8.239334 5.2905273 13.184479l0 0c0 10.297714 -8.087097 18.645676 -18.062988 18.645676l0 0c-9.975952 0 -18.062988 -8.347961 -18.062988 -18.645676z" fill-rule="evenodd"/><path stroke="#000000" stroke-width="1.0" stroke-linejoin="round" stroke-linecap="butt" d="m740.6221 182.52756l0 0c0 -10.297714 8.087036 -18.64566 18.062988 -18.64566l0 0c4.7905884 0 9.384949 1.964447 12.772461 5.4611816c3.3874512 3.4967499 5.2905273 8.239334 5.2905273 13.184479l0 0c0 10.297714 -8.087097 18.645676 -18.062988 18.645676l0 0c-9.975952 0 -18.062988 -8.347961 -18.062988 -18.645676z" fill-rule="evenodd"/><path fill="#0000ff" d="m626.2047 163.29921l32.629944 0l0 38.456696l-32.629944 0z" fill-rule="evenodd"/><path stroke="#000000" stroke-width="1.0" stroke-linejoin="round" stroke-linecap="butt" d="m626.2047 163.29921l32.629944 0l0 38.456696l-32.629944 0z" fill-rule="evenodd"/><path fill="#000000" fill-opacity="0.0" d="m703.10236 81.73491l55.590576 82.14174" fill-rule="evenodd"/><path stroke="#000000" stroke-width="4.0" stroke-linejoin="round" stroke-linecap="butt" d="m703.10236 81.73491l42.1391 62.26564" fill-rule="evenodd"/><path fill="#000000" stroke="#000000" stroke-width="4.0" stroke-linecap="butt" d="m739.76984 147.70357l15.64563 11.330261l-4.7023315 -18.736313z" fill-rule="evenodd"/><path fill="#000000" fill-opacity="0.0" d="m703.10236 81.73491l-60.59839 81.5748" fill-rule="evenodd"/><path stroke="#000000" stroke-width="4.0" stroke-linejoin="round" stroke-linecap="butt" d="m703.10236 81.73491l-46.286682 62.308945" fill-rule="evenodd"/><path fill="#000000" stroke="#000000" stroke-width="4.0" stroke-linecap="butt" d="m651.512 140.10399l-5.520996 18.511597l16.128357 -10.631851z" fill-rule="evenodd"/></g></svg>