<?xml version="1.0" encoding="utf-8" standalone="no"?>
<!DOCTYPE svg PUBLIC "-//W3C//DTD SVG 1.1//EN"
  "http://www.w3.org/Graphics/SVG/1.1/DTD/svg11.dtd">
<!-- Created with matplotlib (https://matplotlib.org/) -->
<svg height="216pt" version="1.1" viewBox="0 0 288 216" width="288pt" xmlns="http://www.w3.org/2000/svg" xmlns:xlink="http://www.w3.org/1999/xlink">
 <defs>
  <style type="text/css">
*{stroke-linecap:butt;stroke-linejoin:round;}
  </style>
 </defs>
 <g id="figure_1">
  <g id="patch_1">
   <path d="M 0 216 
L 288 216 
L 288 0 
L 0 0 
z
" style="fill:none;"/>
  </g>
  <g id="axes_1">
   <g id="patch_2">
    <path d="M 28.8 194.4 
L 288 194.4 
L 288 0 
L 28.8 0 
z
" style="fill:none;"/>
   </g>
   <g id="PathCollection_1">
    <defs>
     <path d="M 0 3 
C 0.795609 3 1.55874 2.683901 2.12132 2.12132 
C 2.683901 1.55874 3 0.795609 3 0 
C 3 -0.795609 2.683901 -1.55874 2.12132 -2.12132 
C 1.55874 -2.683901 0.795609 -3 0 -3 
C -0.795609 -3 -1.55874 -2.683901 -2.12132 -2.12132 
C -2.683901 -1.55874 -3 -0.795609 -3 0 
C -3 0.795609 -2.683901 1.55874 -2.12132 2.12132 
C -1.55874 2.683901 -0.795609 3 0 3 
z
" id="m920d53c191" style="stroke:#000000;"/>
    </defs>
    <g clip-path="url(#p6b1501c0f8)">
     <use style="stroke:#000000;" x="40.581818" xlink:href="#m920d53c191" y="107.24005"/>
     <use style="stroke:#000000;" x="42.961983" xlink:href="#m920d53c191" y="141.013394"/>
     <use style="stroke:#000000;" x="45.342149" xlink:href="#m920d53c191" y="129.222476"/>
     <use style="stroke:#000000;" x="47.722314" xlink:href="#m920d53c191" y="130.43696"/>
     <use style="stroke:#000000;" x="50.102479" xlink:href="#m920d53c191" y="83.408506"/>
     <use style="stroke:#000000;" x="52.482645" xlink:href="#m920d53c191" y="138.401172"/>
     <use style="stroke:#000000;" x="54.86281" xlink:href="#m920d53c191" y="52.079127"/>
     <use style="stroke:#000000;" x="57.242975" xlink:href="#m920d53c191" y="96.751139"/>
     <use style="stroke:#000000;" x="59.62314" xlink:href="#m920d53c191" y="72.089703"/>
     <use style="stroke:#000000;" x="62.003306" xlink:href="#m920d53c191" y="81.651516"/>
     <use style="stroke:#000000;" x="64.383471" xlink:href="#m920d53c191" y="47.778002"/>
     <use style="stroke:#000000;" x="66.763636" xlink:href="#m920d53c191" y="118.968732"/>
     <use style="stroke:#000000;" x="69.143802" xlink:href="#m920d53c191" y="87.666127"/>
     <use style="stroke:#000000;" x="71.523967" xlink:href="#m920d53c191" y="93.287641"/>
     <use style="stroke:#000000;" x="73.904132" xlink:href="#m920d53c191" y="68.844139"/>
     <use style="stroke:#000000;" x="76.284298" xlink:href="#m920d53c191" y="119.501084"/>
     <use style="stroke:#000000;" x="78.664463" xlink:href="#m920d53c191" y="108.338396"/>
     <use style="stroke:#000000;" x="81.044628" xlink:href="#m920d53c191" y="129.854634"/>
     <use style="stroke:#000000;" x="83.424793" xlink:href="#m920d53c191" y="119.339554"/>
     <use style="stroke:#000000;" x="85.804959" xlink:href="#m920d53c191" y="116.137107"/>
     <use style="stroke:#000000;" x="88.185124" xlink:href="#m920d53c191" y="156.426975"/>
     <use style="stroke:#000000;" x="90.565289" xlink:href="#m920d53c191" y="118.296984"/>
     <use style="stroke:#000000;" x="92.945455" xlink:href="#m920d53c191" y="128.370973"/>
     <use style="stroke:#000000;" x="95.32562" xlink:href="#m920d53c191" y="140.323298"/>
     <use style="stroke:#000000;" x="97.705785" xlink:href="#m920d53c191" y="135.133609"/>
     <use style="stroke:#000000;" x="100.08595" xlink:href="#m920d53c191" y="167.645674"/>
     <use style="stroke:#000000;" x="102.466116" xlink:href="#m920d53c191" y="156.167147"/>
     <use style="stroke:#000000;" x="104.846281" xlink:href="#m920d53c191" y="170.249997"/>
     <use style="stroke:#000000;" x="107.226446" xlink:href="#m920d53c191" y="153.493327"/>
     <use style="stroke:#000000;" x="109.606612" xlink:href="#m920d53c191" y="132.679393"/>
     <use style="stroke:#000000;" x="111.986777" xlink:href="#m920d53c191" y="150.460773"/>
     <use style="stroke:#000000;" x="114.366942" xlink:href="#m920d53c191" y="137.08746"/>
     <use style="stroke:#000000;" x="116.747107" xlink:href="#m920d53c191" y="134.340741"/>
     <use style="stroke:#000000;" x="119.127273" xlink:href="#m920d53c191" y="128.283508"/>
     <use style="stroke:#000000;" x="121.507438" xlink:href="#m920d53c191" y="115.245688"/>
     <use style="stroke:#000000;" x="123.887603" xlink:href="#m920d53c191" y="92.500907"/>
     <use style="stroke:#000000;" x="126.267769" xlink:href="#m920d53c191" y="104.785722"/>
     <use style="stroke:#000000;" x="128.647934" xlink:href="#m920d53c191" y="68.970717"/>
     <use style="stroke:#000000;" x="131.028099" xlink:href="#m920d53c191" y="32.440357"/>
     <use style="stroke:#000000;" x="133.408264" xlink:href="#m920d53c191" y="43.230023"/>
     <use style="stroke:#000000;" x="135.78843" xlink:href="#m920d53c191" y="55.557994"/>
     <use style="stroke:#000000;" x="138.168595" xlink:href="#m920d53c191" y="64.58329"/>
     <use style="stroke:#000000;" x="140.54876" xlink:href="#m920d53c191" y="58.619706"/>
     <use style="stroke:#000000;" x="142.928926" xlink:href="#m920d53c191" y="8.836364"/>
     <use style="stroke:#000000;" x="145.309091" xlink:href="#m920d53c191" y="41.411742"/>
     <use style="stroke:#000000;" x="147.689256" xlink:href="#m920d53c191" y="56.78577"/>
     <use style="stroke:#000000;" x="150.069421" xlink:href="#m920d53c191" y="43.781106"/>
     <use style="stroke:#000000;" x="152.449587" xlink:href="#m920d53c191" y="10.863562"/>
     <use style="stroke:#000000;" x="154.829752" xlink:href="#m920d53c191" y="56.140293"/>
     <use style="stroke:#000000;" x="157.209917" xlink:href="#m920d53c191" y="53.535541"/>
     <use style="stroke:#000000;" x="159.590083" xlink:href="#m920d53c191" y="67.873831"/>
     <use style="stroke:#000000;" x="161.970248" xlink:href="#m920d53c191" y="89.422003"/>
     <use style="stroke:#000000;" x="164.350413" xlink:href="#m920d53c191" y="113.987601"/>
     <use style="stroke:#000000;" x="166.730579" xlink:href="#m920d53c191" y="107.24536"/>
     <use style="stroke:#000000;" x="169.110744" xlink:href="#m920d53c191" y="113.110713"/>
     <use style="stroke:#000000;" x="171.490909" xlink:href="#m920d53c191" y="105.44602"/>
     <use style="stroke:#000000;" x="173.871074" xlink:href="#m920d53c191" y="107.67831"/>
     <use style="stroke:#000000;" x="176.25124" xlink:href="#m920d53c191" y="112.00458"/>
     <use style="stroke:#000000;" x="178.631405" xlink:href="#m920d53c191" y="129.64398"/>
     <use style="stroke:#000000;" x="181.01157" xlink:href="#m920d53c191" y="121.245839"/>
     <use style="stroke:#000000;" x="183.391736" xlink:href="#m920d53c191" y="155.587846"/>
     <use style="stroke:#000000;" x="185.771901" xlink:href="#m920d53c191" y="116.253121"/>
     <use style="stroke:#000000;" x="188.152066" xlink:href="#m920d53c191" y="129.65235"/>
     <use style="stroke:#000000;" x="190.532231" xlink:href="#m920d53c191" y="142.932954"/>
     <use style="stroke:#000000;" x="192.912397" xlink:href="#m920d53c191" y="123.210348"/>
     <use style="stroke:#000000;" x="195.292562" xlink:href="#m920d53c191" y="128.927308"/>
     <use style="stroke:#000000;" x="197.672727" xlink:href="#m920d53c191" y="98.559125"/>
     <use style="stroke:#000000;" x="200.052893" xlink:href="#m920d53c191" y="83.549842"/>
     <use style="stroke:#000000;" x="202.433058" xlink:href="#m920d53c191" y="62.482389"/>
     <use style="stroke:#000000;" x="204.813223" xlink:href="#m920d53c191" y="125.106622"/>
     <use style="stroke:#000000;" x="207.193388" xlink:href="#m920d53c191" y="117.859906"/>
     <use style="stroke:#000000;" x="209.573554" xlink:href="#m920d53c191" y="91.39465"/>
     <use style="stroke:#000000;" x="211.953719" xlink:href="#m920d53c191" y="70.954518"/>
     <use style="stroke:#000000;" x="214.333884" xlink:href="#m920d53c191" y="50.346872"/>
     <use style="stroke:#000000;" x="216.71405" xlink:href="#m920d53c191" y="56.07289"/>
     <use style="stroke:#000000;" x="219.094215" xlink:href="#m920d53c191" y="98.236023"/>
     <use style="stroke:#000000;" x="221.47438" xlink:href="#m920d53c191" y="61.718716"/>
     <use style="stroke:#000000;" x="223.854545" xlink:href="#m920d53c191" y="38.284922"/>
     <use style="stroke:#000000;" x="226.234711" xlink:href="#m920d53c191" y="50.740871"/>
     <use style="stroke:#000000;" x="228.614876" xlink:href="#m920d53c191" y="42.520334"/>
     <use style="stroke:#000000;" x="230.995041" xlink:href="#m920d53c191" y="65.894853"/>
     <use style="stroke:#000000;" x="233.375207" xlink:href="#m920d53c191" y="70.907808"/>
     <use style="stroke:#000000;" x="235.755372" xlink:href="#m920d53c191" y="70.072504"/>
     <use style="stroke:#000000;" x="238.135537" xlink:href="#m920d53c191" y="73.671388"/>
     <use style="stroke:#000000;" x="240.515702" xlink:href="#m920d53c191" y="86.844449"/>
     <use style="stroke:#000000;" x="242.895868" xlink:href="#m920d53c191" y="98.111226"/>
     <use style="stroke:#000000;" x="245.276033" xlink:href="#m920d53c191" y="123.855072"/>
     <use style="stroke:#000000;" x="247.656198" xlink:href="#m920d53c191" y="113.403371"/>
     <use style="stroke:#000000;" x="250.036364" xlink:href="#m920d53c191" y="128.573901"/>
     <use style="stroke:#000000;" x="252.416529" xlink:href="#m920d53c191" y="118.318524"/>
     <use style="stroke:#000000;" x="254.796694" xlink:href="#m920d53c191" y="125.887949"/>
     <use style="stroke:#000000;" x="257.17686" xlink:href="#m920d53c191" y="153.897017"/>
     <use style="stroke:#000000;" x="259.557025" xlink:href="#m920d53c191" y="171.750355"/>
     <use style="stroke:#000000;" x="261.93719" xlink:href="#m920d53c191" y="182.359969"/>
     <use style="stroke:#000000;" x="264.317355" xlink:href="#m920d53c191" y="165.256151"/>
     <use style="stroke:#000000;" x="266.697521" xlink:href="#m920d53c191" y="174.40841"/>
     <use style="stroke:#000000;" x="269.077686" xlink:href="#m920d53c191" y="183.426629"/>
     <use style="stroke:#000000;" x="271.457851" xlink:href="#m920d53c191" y="174.864107"/>
     <use style="stroke:#000000;" x="273.838017" xlink:href="#m920d53c191" y="185.563636"/>
     <use style="stroke:#000000;" x="276.218182" xlink:href="#m920d53c191" y="155.696016"/>
    </g>
   </g>
   <g id="matplotlib.axis_1">
    <g id="text_1">
     <!-- x -->
     <defs>
      <path d="M 22.21875 27.984375 
L 2.484375 54.6875 
L 21 54.6875 
L 32.171875 38.484375 
L 43.5 54.6875 
L 62.015625 54.6875 
L 42.28125 28.078125 
L 62.984375 0 
L 44.484375 0 
L 32.171875 17.28125 
L 20.015625 0 
L 1.515625 0 
z
" id="DejaVuSans-Bold-120"/>
     </defs>
     <g transform="translate(151.305 215.116562)scale(0.22 -0.22)">
      <use xlink:href="#DejaVuSans-Bold-120"/>
     </g>
    </g>
   </g>
   <g id="matplotlib.axis_2">
    <g id="text_2">
     <!-- y -->
     <defs>
      <path d="M 1.21875 54.6875 
L 18.703125 54.6875 
L 33.40625 17.578125 
L 45.90625 54.6875 
L 63.375 54.6875 
L 40.375 -5.171875 
Q 36.921875 -14.3125 32.296875 -17.9375 
Q 27.6875 -21.578125 20.125 -21.578125 
L 10.015625 -21.578125 
L 10.015625 -10.109375 
L 15.484375 -10.109375 
Q 19.921875 -10.109375 21.9375 -8.6875 
Q 23.96875 -7.28125 25.09375 -3.609375 
L 25.59375 -2.09375 
z
" id="DejaVuSans-Bold-121"/>
     </defs>
     <g transform="translate(20.052813 104.370625)rotate(-90)scale(0.22 -0.22)">
      <use xlink:href="#DejaVuSans-Bold-121"/>
     </g>
    </g>
   </g>
   <g id="line2d_1">
    <path clip-path="url(#p6b1501c0f8)" d="M 40.581818 116.946238 
L 42.961983 133.157443 
L 45.342149 131.742886 
L 47.722314 128.595059 
L 50.102479 107.65843 
L 52.482645 121.083854 
L 54.86281 78.02956 
L 57.242975 83.391197 
L 59.62314 78.617921 
L 62.003306 77.584148 
L 64.383471 64.818727 
L 66.763636 98.63176 
L 69.143802 92.977254 
L 71.523967 89.35269 
L 73.904132 79.890141 
L 76.284298 105.6093 
L 78.664463 111.927946 
L 81.044628 122.283486 
L 83.424793 118.945066 
L 85.804959 121.258541 
L 88.185124 144.076088 
L 90.565289 128.713734 
L 92.945455 130.814169 
L 95.32562 137.757177 
L 97.705785 144.126911 
L 100.08595 158.654778 
L 102.466116 159.819682 
L 104.846281 164.689914 
L 107.226446 148.656991 
L 109.606612 140.127697 
L 111.986777 145.10349 
L 114.366942 139.26141 
L 116.747107 131.387041 
L 119.127273 127.514437 
L 121.507438 117.700885 
L 123.887603 99.150666 
L 126.267769 88.356323 
L 128.647934 74.929215 
L 131.028099 44.238581 
L 133.408264 42.403363 
L 135.78843 55.246445 
L 138.168595 58.971469 
L 140.54876 56.242566 
L 142.928926 25.482728 
L 145.309091 44.762968 
L 147.689256 51.503632 
L 150.069421 43.754095 
L 152.449587 25.864637 
L 154.829752 55.516811 
L 157.209917 56.554583 
L 159.590083 66.809799 
L 161.970248 84.780231 
L 164.350413 109.035734 
L 166.730579 108.693249 
L 169.110744 110.976076 
L 171.490909 107.638493 
L 173.871074 109.438781 
L 176.25124 113.405335 
L 178.631405 125.695256 
L 181.01157 126.32688 
L 183.391736 140.186568 
L 185.771901 124.780592 
L 188.152066 127.468417 
L 190.532231 137.962138 
L 192.912397 126.538994 
L 195.292562 122.642655 
L 197.672727 103.83212 
L 200.052893 87.722 
L 202.433058 76.620454 
L 204.813223 112.041816 
L 207.193388 117.137108 
L 209.573554 88.282924 
L 211.953719 73.816964 
L 214.333884 57.550994 
L 216.71405 60.831576 
L 219.094215 82.262093 
L 221.47438 67.350892 
L 223.854545 45.669703 
L 226.234711 46.883861 
L 228.614876 47.268029 
L 230.995041 58.647348 
L 233.375207 68.579703 
L 235.755372 70.565384 
L 238.135537 73.814582 
L 240.515702 84.155212 
L 242.895868 96.556638 
L 245.276033 114.883375 
L 247.656198 118.001776 
L 250.036364 124.815064 
L 252.416529 121.772581 
L 254.796694 125.605327 
L 257.17686 147.773115 
L 259.557025 166.408672 
L 261.93719 176.715791 
L 264.317355 169.709327 
L 266.697521 175.310286 
L 269.077686 180.867686 
L 271.457851 177.578836 
L 273.838017 180.259427 
L 276.218182 166.654179 
" style="fill:none;stroke:#1f77b4;stroke-linecap:square;stroke-width:3;"/>
   </g>
   <g id="patch_3">
    <path d="M 28.8 194.4 
L 28.8 0 
" style="fill:none;stroke:#000000;stroke-linecap:square;stroke-linejoin:miter;stroke-width:0.8;"/>
   </g>
   <g id="patch_4">
    <path d="M 28.8 194.4 
L 288 194.4 
" style="fill:none;stroke:#000000;stroke-linecap:square;stroke-linejoin:miter;stroke-width:0.8;"/>
   </g>
  </g>
 </g>
 <defs>
  <clipPath id="p6b1501c0f8">
   <rect height="194.4" width="259.2" x="28.8" y="0"/>
  </clipPath>
 </defs>
</svg>
