<?xml version="1.0" encoding="utf-8" standalone="no"?>
<!DOCTYPE svg PUBLIC "-//W3C//DTD SVG 1.1//EN"
  "http://www.w3.org/Graphics/SVG/1.1/DTD/svg11.dtd">
<!-- Created with matplotlib (https://matplotlib.org/) -->
<svg height="288pt" version="1.1" viewBox="0 0 864 288" width="864pt" xmlns="http://www.w3.org/2000/svg" xmlns:xlink="http://www.w3.org/1999/xlink">
 <defs>
  <style type="text/css">
*{stroke-linecap:butt;stroke-linejoin:round;}
  </style>
 </defs>
 <g id="figure_1">
  <g id="patch_1">
   <path d="M 0 288 
L 864 288 
L 864 0 
L 0 0 
z
" style="fill:none;"/>
  </g>
  <g id="axes_1">
   <g id="patch_2">
    <path d="M 8.64 285.12 
L 257.675294 285.12 
L 257.675294 2.88 
L 8.64 2.88 
z
" style="fill:none;"/>
   </g>
   <g id="PathCollection_1">
    <defs>
     <path d="M 0 3 
C 0.795609 3 1.55874 2.683901 2.12132 2.12132 
C 2.683901 1.55874 3 0.795609 3 0 
C 3 -0.795609 2.683901 -1.55874 2.12132 -2.12132 
C 1.55874 -2.683901 0.795609 -3 0 -3 
C -0.795609 -3 -1.55874 -2.683901 -2.12132 -2.12132 
C -2.683901 -1.55874 -3 -0.795609 -3 0 
C -3 0.795609 -2.683901 1.55874 -2.12132 2.12132 
C -1.55874 2.683901 -0.795609 3 0 3 
z
" id="m37cd51edb3" style="stroke:#000000;"/>
    </defs>
    <g clip-path="url(#p8f328d028f)">
     <use style="stroke:#000000;" x="19.959786" xlink:href="#m37cd51edb3" y="158.576666"/>
     <use style="stroke:#000000;" x="22.246612" xlink:href="#m37cd51edb3" y="207.610557"/>
     <use style="stroke:#000000;" x="24.533437" xlink:href="#m37cd51edb3" y="190.491891"/>
     <use style="stroke:#000000;" x="26.820263" xlink:href="#m37cd51edb3" y="192.255141"/>
     <use style="stroke:#000000;" x="29.107088" xlink:href="#m37cd51edb3" y="123.976793"/>
     <use style="stroke:#000000;" x="31.393913" xlink:href="#m37cd51edb3" y="203.817998"/>
     <use style="stroke:#000000;" x="33.680739" xlink:href="#m37cd51edb3" y="78.491177"/>
     <use style="stroke:#000000;" x="35.967564" xlink:href="#m37cd51edb3" y="143.34832"/>
     <use style="stroke:#000000;" x="38.25439" xlink:href="#m37cd51edb3" y="107.543569"/>
     <use style="stroke:#000000;" x="40.541215" xlink:href="#m37cd51edb3" y="121.425905"/>
     <use style="stroke:#000000;" x="42.828041" xlink:href="#m37cd51edb3" y="72.246581"/>
     <use style="stroke:#000000;" x="45.114866" xlink:href="#m37cd51edb3" y="175.604974"/>
     <use style="stroke:#000000;" x="47.401692" xlink:href="#m37cd51edb3" y="130.158229"/>
     <use style="stroke:#000000;" x="49.688517" xlink:href="#m37cd51edb3" y="138.319835"/>
     <use style="stroke:#000000;" x="51.975343" xlink:href="#m37cd51edb3" y="102.83149"/>
     <use style="stroke:#000000;" x="54.262168" xlink:href="#m37cd51edb3" y="176.37787"/>
     <use style="stroke:#000000;" x="56.548994" xlink:href="#m37cd51edb3" y="160.171301"/>
     <use style="stroke:#000000;" x="58.835819" xlink:href="#m37cd51edb3" y="191.40969"/>
     <use style="stroke:#000000;" x="61.122645" xlink:href="#m37cd51edb3" y="176.143352"/>
     <use style="stroke:#000000;" x="63.40947" xlink:href="#m37cd51edb3" y="171.493874"/>
     <use style="stroke:#000000;" x="65.696296" xlink:href="#m37cd51edb3" y="229.988794"/>
     <use style="stroke:#000000;" x="67.983121" xlink:href="#m37cd51edb3" y="174.629696"/>
     <use style="stroke:#000000;" x="70.269947" xlink:href="#m37cd51edb3" y="189.255634"/>
     <use style="stroke:#000000;" x="72.556772" xlink:href="#m37cd51edb3" y="206.608639"/>
     <use style="stroke:#000000;" x="74.843597" xlink:href="#m37cd51edb3" y="199.073981"/>
     <use style="stroke:#000000;" x="77.130423" xlink:href="#m37cd51edb3" y="246.276682"/>
     <use style="stroke:#000000;" x="79.417248" xlink:href="#m37cd51edb3" y="229.611561"/>
     <use style="stroke:#000000;" x="81.704074" xlink:href="#m37cd51edb3" y="250.057773"/>
     <use style="stroke:#000000;" x="83.990899" xlink:href="#m37cd51edb3" y="225.729571"/>
     <use style="stroke:#000000;" x="86.277725" xlink:href="#m37cd51edb3" y="195.510823"/>
     <use style="stroke:#000000;" x="88.56455" xlink:href="#m37cd51edb3" y="221.326752"/>
     <use style="stroke:#000000;" x="90.851376" xlink:href="#m37cd51edb3" y="201.910683"/>
     <use style="stroke:#000000;" x="93.138201" xlink:href="#m37cd51edb3" y="197.922853"/>
     <use style="stroke:#000000;" x="95.425027" xlink:href="#m37cd51edb3" y="189.128649"/>
     <use style="stroke:#000000;" x="97.711852" xlink:href="#m37cd51edb3" y="170.199665"/>
     <use style="stroke:#000000;" x="99.998678" xlink:href="#m37cd51edb3" y="137.177613"/>
     <use style="stroke:#000000;" x="102.285503" xlink:href="#m37cd51edb3" y="155.013345"/>
     <use style="stroke:#000000;" x="104.572329" xlink:href="#m37cd51edb3" y="103.015263"/>
     <use style="stroke:#000000;" x="106.859154" xlink:href="#m37cd51edb3" y="49.978593"/>
     <use style="stroke:#000000;" x="109.14598" xlink:href="#m37cd51edb3" y="65.64359"/>
     <use style="stroke:#000000;" x="111.432805" xlink:href="#m37cd51edb3" y="83.541977"/>
     <use style="stroke:#000000;" x="113.719631" xlink:href="#m37cd51edb3" y="96.645369"/>
     <use style="stroke:#000000;" x="116.006456" xlink:href="#m37cd51edb3" y="87.987129"/>
     <use style="stroke:#000000;" x="118.293281" xlink:href="#m37cd51edb3" y="15.709091"/>
     <use style="stroke:#000000;" x="120.580107" xlink:href="#m37cd51edb3" y="63.003714"/>
     <use style="stroke:#000000;" x="122.866932" xlink:href="#m37cd51edb3" y="85.324525"/>
     <use style="stroke:#000000;" x="125.153758" xlink:href="#m37cd51edb3" y="66.443679"/>
     <use style="stroke:#000000;" x="127.440583" xlink:href="#m37cd51edb3" y="18.652283"/>
     <use style="stroke:#000000;" x="129.727409" xlink:href="#m37cd51edb3" y="84.387388"/>
     <use style="stroke:#000000;" x="132.014234" xlink:href="#m37cd51edb3" y="80.605674"/>
     <use style="stroke:#000000;" x="134.30106" xlink:href="#m37cd51edb3" y="101.422747"/>
     <use style="stroke:#000000;" x="136.587885" xlink:href="#m37cd51edb3" y="132.707501"/>
     <use style="stroke:#000000;" x="138.874711" xlink:href="#m37cd51edb3" y="168.37311"/>
     <use style="stroke:#000000;" x="141.161536" xlink:href="#m37cd51edb3" y="158.584375"/>
     <use style="stroke:#000000;" x="143.448362" xlink:href="#m37cd51edb3" y="167.099999"/>
     <use style="stroke:#000000;" x="145.735187" xlink:href="#m37cd51edb3" y="155.972"/>
     <use style="stroke:#000000;" x="148.022013" xlink:href="#m37cd51edb3" y="159.212954"/>
     <use style="stroke:#000000;" x="150.308838" xlink:href="#m37cd51edb3" y="165.494057"/>
     <use style="stroke:#000000;" x="152.595664" xlink:href="#m37cd51edb3" y="191.103852"/>
     <use style="stroke:#000000;" x="154.882489" xlink:href="#m37cd51edb3" y="178.910996"/>
     <use style="stroke:#000000;" x="157.169315" xlink:href="#m37cd51edb3" y="228.770503"/>
     <use style="stroke:#000000;" x="159.45614" xlink:href="#m37cd51edb3" y="171.662309"/>
     <use style="stroke:#000000;" x="161.742965" xlink:href="#m37cd51edb3" y="191.116004"/>
     <use style="stroke:#000000;" x="164.029791" xlink:href="#m37cd51edb3" y="210.397474"/>
     <use style="stroke:#000000;" x="166.316616" xlink:href="#m37cd51edb3" y="181.763172"/>
     <use style="stroke:#000000;" x="168.603442" xlink:href="#m37cd51edb3" y="190.063351"/>
     <use style="stroke:#000000;" x="170.890267" xlink:href="#m37cd51edb3" y="145.973248"/>
     <use style="stroke:#000000;" x="173.177093" xlink:href="#m37cd51edb3" y="124.181993"/>
     <use style="stroke:#000000;" x="175.463918" xlink:href="#m37cd51edb3" y="93.595173"/>
     <use style="stroke:#000000;" x="177.750744" xlink:href="#m37cd51edb3" y="184.51628"/>
     <use style="stroke:#000000;" x="180.037569" xlink:href="#m37cd51edb3" y="173.995123"/>
     <use style="stroke:#000000;" x="182.324395" xlink:href="#m37cd51edb3" y="135.571492"/>
     <use style="stroke:#000000;" x="184.61122" xlink:href="#m37cd51edb3" y="105.895448"/>
     <use style="stroke:#000000;" x="186.898046" xlink:href="#m37cd51edb3" y="75.976199"/>
     <use style="stroke:#000000;" x="189.184871" xlink:href="#m37cd51edb3" y="84.289529"/>
     <use style="stroke:#000000;" x="191.471697" xlink:href="#m37cd51edb3" y="145.504151"/>
     <use style="stroke:#000000;" x="193.758522" xlink:href="#m37cd51edb3" y="92.486433"/>
     <use style="stroke:#000000;" x="196.045348" xlink:href="#m37cd51edb3" y="58.464035"/>
     <use style="stroke:#000000;" x="198.332173" xlink:href="#m37cd51edb3" y="76.548227"/>
     <use style="stroke:#000000;" x="200.618999" xlink:href="#m37cd51edb3" y="64.613225"/>
     <use style="stroke:#000000;" x="202.905824" xlink:href="#m37cd51edb3" y="98.549564"/>
     <use style="stroke:#000000;" x="205.192649" xlink:href="#m37cd51edb3" y="105.827633"/>
     <use style="stroke:#000000;" x="207.479475" xlink:href="#m37cd51edb3" y="104.614895"/>
     <use style="stroke:#000000;" x="209.7663" xlink:href="#m37cd51edb3" y="109.83994"/>
     <use style="stroke:#000000;" x="212.053126" xlink:href="#m37cd51edb3" y="128.965273"/>
     <use style="stroke:#000000;" x="214.339951" xlink:href="#m37cd51edb3" y="145.322965"/>
     <use style="stroke:#000000;" x="216.626777" xlink:href="#m37cd51edb3" y="182.699216"/>
     <use style="stroke:#000000;" x="218.913602" xlink:href="#m37cd51edb3" y="167.524894"/>
     <use style="stroke:#000000;" x="221.200428" xlink:href="#m37cd51edb3" y="189.550256"/>
     <use style="stroke:#000000;" x="223.487253" xlink:href="#m37cd51edb3" y="174.660969"/>
     <use style="stroke:#000000;" x="225.774079" xlink:href="#m37cd51edb3" y="185.650652"/>
     <use style="stroke:#000000;" x="228.060904" xlink:href="#m37cd51edb3" y="226.315669"/>
     <use style="stroke:#000000;" x="230.34773" xlink:href="#m37cd51edb3" y="252.236071"/>
     <use style="stroke:#000000;" x="232.634555" xlink:href="#m37cd51edb3" y="267.639659"/>
     <use style="stroke:#000000;" x="234.921381" xlink:href="#m37cd51edb3" y="242.807449"/>
     <use style="stroke:#000000;" x="237.208206" xlink:href="#m37cd51edb3" y="256.095172"/>
     <use style="stroke:#000000;" x="239.495032" xlink:href="#m37cd51edb3" y="269.188291"/>
     <use style="stroke:#000000;" x="241.781857" xlink:href="#m37cd51edb3" y="256.756777"/>
     <use style="stroke:#000000;" x="244.068683" xlink:href="#m37cd51edb3" y="272.290909"/>
     <use style="stroke:#000000;" x="246.355508" xlink:href="#m37cd51edb3" y="228.927549"/>
    </g>
   </g>
   <g id="matplotlib.axis_1"/>
   <g id="matplotlib.axis_2"/>
   <g id="line2d_1">
    <path clip-path="url(#p8f328d028f)" d="M 19.959786 162.321068 
L 22.246612 162.321068 
L 24.533437 162.321068 
L 26.820263 162.321068 
L 29.107088 162.321068 
L 31.393913 162.321068 
L 33.680739 162.321068 
L 35.967564 162.321068 
L 38.25439 121.161512 
L 40.541215 121.161512 
L 42.828041 121.161512 
L 45.114866 121.161512 
L 47.401692 121.161512 
L 49.688517 121.161512 
L 51.975343 121.161512 
L 54.262168 168.274585 
L 56.548994 168.274585 
L 58.835819 142.997002 
L 61.122645 142.997002 
L 63.40947 142.997002 
L 65.696296 142.997002 
L 67.983121 142.997002 
L 70.269947 142.997002 
L 72.556772 142.997002 
L 74.843597 142.997002 
L 77.130423 142.997002 
L 79.417248 142.997002 
L 81.704074 142.997002 
L 83.990899 142.997002 
L 86.277725 142.997002 
L 88.56455 142.997002 
L 90.851376 142.997002 
L 93.138201 142.997002 
L 95.425027 142.997002 
L 97.711852 142.997002 
L 99.998678 142.997002 
L 102.285503 142.997002 
L 104.572329 142.997002 
L 106.859154 142.997002 
L 109.14598 142.997002 
L 111.432805 142.997002 
L 113.719631 142.997002 
L 116.006456 142.997002 
L 118.293281 142.997002 
L 120.580107 142.997002 
L 122.866932 142.997002 
L 125.153758 142.997002 
L 127.440583 142.997002 
L 129.727409 142.997002 
L 132.014234 142.997002 
L 134.30106 142.997002 
L 136.587885 142.997002 
L 138.874711 142.997002 
L 141.161536 142.997002 
L 143.448362 142.997002 
L 145.735187 142.997002 
L 148.022013 142.997002 
L 150.308838 142.997002 
L 152.595664 142.997002 
L 154.882489 142.997002 
L 157.169315 142.997002 
L 159.45614 142.997002 
L 161.742965 142.997002 
L 164.029791 142.997002 
L 166.316616 142.997002 
L 168.603442 142.997002 
L 170.890267 142.997002 
L 173.177093 142.997002 
L 175.463918 142.997002 
L 177.750744 142.997002 
L 180.037569 142.997002 
L 182.324395 142.997002 
L 184.61122 142.997002 
L 186.898046 142.997002 
L 189.184871 142.997002 
L 191.471697 142.997002 
L 193.758522 142.997002 
L 196.045348 142.997002 
L 198.332173 142.997002 
L 200.618999 142.997002 
L 202.905824 142.997002 
L 205.192649 142.997002 
L 207.479475 142.997002 
L 209.7663 142.997002 
L 212.053126 142.997002 
L 214.339951 142.997002 
L 216.626777 182.699216 
L 218.913602 167.524894 
L 221.200428 224.369487 
L 223.487253 224.369487 
L 225.774079 224.369487 
L 228.060904 224.369487 
L 230.34773 224.369487 
L 232.634555 224.369487 
L 234.921381 224.369487 
L 237.208206 224.369487 
L 239.495032 256.790881 
L 241.781857 256.790881 
L 244.068683 256.790881 
L 246.355508 256.790881 
" style="fill:none;stroke:#808080;stroke-linecap:square;stroke-width:3;"/>
   </g>
   <g id="patch_3">
    <path d="M 8.64 285.12 
L 8.64 2.88 
" style="fill:none;stroke:#000000;stroke-linecap:square;stroke-linejoin:miter;stroke-width:0.8;"/>
   </g>
   <g id="patch_4">
    <path d="M 8.64 285.12 
L 257.675294 285.12 
" style="fill:none;stroke:#000000;stroke-linecap:square;stroke-linejoin:miter;stroke-width:0.8;"/>
   </g>
  </g>
  <g id="axes_2">
   <g id="patch_5">
    <path d="M 307.482353 285.12 
L 556.517647 285.12 
L 556.517647 2.88 
L 307.482353 2.88 
z
" style="fill:none;"/>
   </g>
   <g id="PathCollection_2">
    <g clip-path="url(#p2b8303701f)">
     <use style="stroke:#000000;" x="318.802139" xlink:href="#m37cd51edb3" y="158.576666"/>
     <use style="stroke:#000000;" x="321.088965" xlink:href="#m37cd51edb3" y="207.610557"/>
     <use style="stroke:#000000;" x="323.37579" xlink:href="#m37cd51edb3" y="190.491891"/>
     <use style="stroke:#000000;" x="325.662615" xlink:href="#m37cd51edb3" y="192.255141"/>
     <use style="stroke:#000000;" x="327.949441" xlink:href="#m37cd51edb3" y="123.976793"/>
     <use style="stroke:#000000;" x="330.236266" xlink:href="#m37cd51edb3" y="203.817998"/>
     <use style="stroke:#000000;" x="332.523092" xlink:href="#m37cd51edb3" y="78.491177"/>
     <use style="stroke:#000000;" x="334.809917" xlink:href="#m37cd51edb3" y="143.34832"/>
     <use style="stroke:#000000;" x="337.096743" xlink:href="#m37cd51edb3" y="107.543569"/>
     <use style="stroke:#000000;" x="339.383568" xlink:href="#m37cd51edb3" y="121.425905"/>
     <use style="stroke:#000000;" x="341.670394" xlink:href="#m37cd51edb3" y="72.246581"/>
     <use style="stroke:#000000;" x="343.957219" xlink:href="#m37cd51edb3" y="175.604974"/>
     <use style="stroke:#000000;" x="346.244045" xlink:href="#m37cd51edb3" y="130.158229"/>
     <use style="stroke:#000000;" x="348.53087" xlink:href="#m37cd51edb3" y="138.319835"/>
     <use style="stroke:#000000;" x="350.817696" xlink:href="#m37cd51edb3" y="102.83149"/>
     <use style="stroke:#000000;" x="353.104521" xlink:href="#m37cd51edb3" y="176.37787"/>
     <use style="stroke:#000000;" x="355.391347" xlink:href="#m37cd51edb3" y="160.171301"/>
     <use style="stroke:#000000;" x="357.678172" xlink:href="#m37cd51edb3" y="191.40969"/>
     <use style="stroke:#000000;" x="359.964998" xlink:href="#m37cd51edb3" y="176.143352"/>
     <use style="stroke:#000000;" x="362.251823" xlink:href="#m37cd51edb3" y="171.493874"/>
     <use style="stroke:#000000;" x="364.538649" xlink:href="#m37cd51edb3" y="229.988794"/>
     <use style="stroke:#000000;" x="366.825474" xlink:href="#m37cd51edb3" y="174.629696"/>
     <use style="stroke:#000000;" x="369.112299" xlink:href="#m37cd51edb3" y="189.255634"/>
     <use style="stroke:#000000;" x="371.399125" xlink:href="#m37cd51edb3" y="206.608639"/>
     <use style="stroke:#000000;" x="373.68595" xlink:href="#m37cd51edb3" y="199.073981"/>
     <use style="stroke:#000000;" x="375.972776" xlink:href="#m37cd51edb3" y="246.276682"/>
     <use style="stroke:#000000;" x="378.259601" xlink:href="#m37cd51edb3" y="229.611561"/>
     <use style="stroke:#000000;" x="380.546427" xlink:href="#m37cd51edb3" y="250.057773"/>
     <use style="stroke:#000000;" x="382.833252" xlink:href="#m37cd51edb3" y="225.729571"/>
     <use style="stroke:#000000;" x="385.120078" xlink:href="#m37cd51edb3" y="195.510823"/>
     <use style="stroke:#000000;" x="387.406903" xlink:href="#m37cd51edb3" y="221.326752"/>
     <use style="stroke:#000000;" x="389.693729" xlink:href="#m37cd51edb3" y="201.910683"/>
     <use style="stroke:#000000;" x="391.980554" xlink:href="#m37cd51edb3" y="197.922853"/>
     <use style="stroke:#000000;" x="394.26738" xlink:href="#m37cd51edb3" y="189.128649"/>
     <use style="stroke:#000000;" x="396.554205" xlink:href="#m37cd51edb3" y="170.199665"/>
     <use style="stroke:#000000;" x="398.841031" xlink:href="#m37cd51edb3" y="137.177613"/>
     <use style="stroke:#000000;" x="401.127856" xlink:href="#m37cd51edb3" y="155.013345"/>
     <use style="stroke:#000000;" x="403.414682" xlink:href="#m37cd51edb3" y="103.015263"/>
     <use style="stroke:#000000;" x="405.701507" xlink:href="#m37cd51edb3" y="49.978593"/>
     <use style="stroke:#000000;" x="407.988333" xlink:href="#m37cd51edb3" y="65.64359"/>
     <use style="stroke:#000000;" x="410.275158" xlink:href="#m37cd51edb3" y="83.541977"/>
     <use style="stroke:#000000;" x="412.561983" xlink:href="#m37cd51edb3" y="96.645369"/>
     <use style="stroke:#000000;" x="414.848809" xlink:href="#m37cd51edb3" y="87.987129"/>
     <use style="stroke:#000000;" x="417.135634" xlink:href="#m37cd51edb3" y="15.709091"/>
     <use style="stroke:#000000;" x="419.42246" xlink:href="#m37cd51edb3" y="63.003714"/>
     <use style="stroke:#000000;" x="421.709285" xlink:href="#m37cd51edb3" y="85.324525"/>
     <use style="stroke:#000000;" x="423.996111" xlink:href="#m37cd51edb3" y="66.443679"/>
     <use style="stroke:#000000;" x="426.282936" xlink:href="#m37cd51edb3" y="18.652283"/>
     <use style="stroke:#000000;" x="428.569762" xlink:href="#m37cd51edb3" y="84.387388"/>
     <use style="stroke:#000000;" x="430.856587" xlink:href="#m37cd51edb3" y="80.605674"/>
     <use style="stroke:#000000;" x="433.143413" xlink:href="#m37cd51edb3" y="101.422747"/>
     <use style="stroke:#000000;" x="435.430238" xlink:href="#m37cd51edb3" y="132.707501"/>
     <use style="stroke:#000000;" x="437.717064" xlink:href="#m37cd51edb3" y="168.37311"/>
     <use style="stroke:#000000;" x="440.003889" xlink:href="#m37cd51edb3" y="158.584375"/>
     <use style="stroke:#000000;" x="442.290715" xlink:href="#m37cd51edb3" y="167.099999"/>
     <use style="stroke:#000000;" x="444.57754" xlink:href="#m37cd51edb3" y="155.972"/>
     <use style="stroke:#000000;" x="446.864366" xlink:href="#m37cd51edb3" y="159.212954"/>
     <use style="stroke:#000000;" x="449.151191" xlink:href="#m37cd51edb3" y="165.494057"/>
     <use style="stroke:#000000;" x="451.438017" xlink:href="#m37cd51edb3" y="191.103852"/>
     <use style="stroke:#000000;" x="453.724842" xlink:href="#m37cd51edb3" y="178.910996"/>
     <use style="stroke:#000000;" x="456.011667" xlink:href="#m37cd51edb3" y="228.770503"/>
     <use style="stroke:#000000;" x="458.298493" xlink:href="#m37cd51edb3" y="171.662309"/>
     <use style="stroke:#000000;" x="460.585318" xlink:href="#m37cd51edb3" y="191.116004"/>
     <use style="stroke:#000000;" x="462.872144" xlink:href="#m37cd51edb3" y="210.397474"/>
     <use style="stroke:#000000;" x="465.158969" xlink:href="#m37cd51edb3" y="181.763172"/>
     <use style="stroke:#000000;" x="467.445795" xlink:href="#m37cd51edb3" y="190.063351"/>
     <use style="stroke:#000000;" x="469.73262" xlink:href="#m37cd51edb3" y="145.973248"/>
     <use style="stroke:#000000;" x="472.019446" xlink:href="#m37cd51edb3" y="124.181993"/>
     <use style="stroke:#000000;" x="474.306271" xlink:href="#m37cd51edb3" y="93.595173"/>
     <use style="stroke:#000000;" x="476.593097" xlink:href="#m37cd51edb3" y="184.51628"/>
     <use style="stroke:#000000;" x="478.879922" xlink:href="#m37cd51edb3" y="173.995123"/>
     <use style="stroke:#000000;" x="481.166748" xlink:href="#m37cd51edb3" y="135.571492"/>
     <use style="stroke:#000000;" x="483.453573" xlink:href="#m37cd51edb3" y="105.895448"/>
     <use style="stroke:#000000;" x="485.740399" xlink:href="#m37cd51edb3" y="75.976199"/>
     <use style="stroke:#000000;" x="488.027224" xlink:href="#m37cd51edb3" y="84.289529"/>
     <use style="stroke:#000000;" x="490.31405" xlink:href="#m37cd51edb3" y="145.504151"/>
     <use style="stroke:#000000;" x="492.600875" xlink:href="#m37cd51edb3" y="92.486433"/>
     <use style="stroke:#000000;" x="494.887701" xlink:href="#m37cd51edb3" y="58.464035"/>
     <use style="stroke:#000000;" x="497.174526" xlink:href="#m37cd51edb3" y="76.548227"/>
     <use style="stroke:#000000;" x="499.461351" xlink:href="#m37cd51edb3" y="64.613225"/>
     <use style="stroke:#000000;" x="501.748177" xlink:href="#m37cd51edb3" y="98.549564"/>
     <use style="stroke:#000000;" x="504.035002" xlink:href="#m37cd51edb3" y="105.827633"/>
     <use style="stroke:#000000;" x="506.321828" xlink:href="#m37cd51edb3" y="104.614895"/>
     <use style="stroke:#000000;" x="508.608653" xlink:href="#m37cd51edb3" y="109.83994"/>
     <use style="stroke:#000000;" x="510.895479" xlink:href="#m37cd51edb3" y="128.965273"/>
     <use style="stroke:#000000;" x="513.182304" xlink:href="#m37cd51edb3" y="145.322965"/>
     <use style="stroke:#000000;" x="515.46913" xlink:href="#m37cd51edb3" y="182.699216"/>
     <use style="stroke:#000000;" x="517.755955" xlink:href="#m37cd51edb3" y="167.524894"/>
     <use style="stroke:#000000;" x="520.042781" xlink:href="#m37cd51edb3" y="189.550256"/>
     <use style="stroke:#000000;" x="522.329606" xlink:href="#m37cd51edb3" y="174.660969"/>
     <use style="stroke:#000000;" x="524.616432" xlink:href="#m37cd51edb3" y="185.650652"/>
     <use style="stroke:#000000;" x="526.903257" xlink:href="#m37cd51edb3" y="226.315669"/>
     <use style="stroke:#000000;" x="529.190083" xlink:href="#m37cd51edb3" y="252.236071"/>
     <use style="stroke:#000000;" x="531.476908" xlink:href="#m37cd51edb3" y="267.639659"/>
     <use style="stroke:#000000;" x="533.763734" xlink:href="#m37cd51edb3" y="242.807449"/>
     <use style="stroke:#000000;" x="536.050559" xlink:href="#m37cd51edb3" y="256.095172"/>
     <use style="stroke:#000000;" x="538.337385" xlink:href="#m37cd51edb3" y="269.188291"/>
     <use style="stroke:#000000;" x="540.62421" xlink:href="#m37cd51edb3" y="256.756777"/>
     <use style="stroke:#000000;" x="542.911035" xlink:href="#m37cd51edb3" y="272.290909"/>
     <use style="stroke:#000000;" x="545.197861" xlink:href="#m37cd51edb3" y="228.927549"/>
    </g>
   </g>
   <g id="matplotlib.axis_3"/>
   <g id="matplotlib.axis_4"/>
   <g id="line2d_2">
    <path clip-path="url(#p2b8303701f)" d="M 318.802139 183.093611 
L 321.088965 183.093611 
L 323.37579 191.373516 
L 325.662615 191.373516 
L 327.949441 173.836703 
L 330.236266 173.836703 
L 332.523092 173.836703 
L 334.809917 173.836703 
L 337.096743 173.836703 
L 339.383568 173.836703 
L 341.670394 173.836703 
L 343.957219 173.836703 
L 346.244045 173.836703 
L 348.53087 173.836703 
L 350.817696 173.836703 
L 353.104521 173.836703 
L 355.391347 173.836703 
L 357.678172 173.836703 
L 359.964998 173.836703 
L 362.251823 173.836703 
L 364.538649 173.836703 
L 366.825474 173.836703 
L 369.112299 173.836703 
L 371.399125 173.836703 
L 373.68595 173.836703 
L 375.972776 173.836703 
L 378.259601 173.836703 
L 380.546427 173.836703 
L 382.833252 173.836703 
L 385.120078 173.836703 
L 387.406903 173.836703 
L 389.693729 173.836703 
L 391.980554 173.836703 
L 394.26738 116.704896 
L 396.554205 116.704896 
L 398.841031 116.704896 
L 401.127856 116.704896 
L 403.414682 116.704896 
L 405.701507 116.704896 
L 407.988333 116.704896 
L 410.275158 116.704896 
L 412.561983 116.704896 
L 414.848809 87.987129 
L 417.135634 54.67911 
L 419.42246 54.67911 
L 421.709285 54.67911 
L 423.996111 142.383496 
L 426.282936 142.383496 
L 428.569762 142.383496 
L 430.856587 142.383496 
L 433.143413 142.383496 
L 435.430238 142.383496 
L 437.717064 142.383496 
L 440.003889 142.383496 
L 442.290715 142.383496 
L 444.57754 142.383496 
L 446.864366 142.383496 
L 449.151191 142.383496 
L 451.438017 142.383496 
L 453.724842 142.383496 
L 456.011667 142.383496 
L 458.298493 142.383496 
L 460.585318 142.383496 
L 462.872144 162.413469 
L 465.158969 162.413469 
L 467.445795 162.413469 
L 469.73262 162.413469 
L 472.019446 162.413469 
L 474.306271 162.413469 
L 476.593097 162.413469 
L 478.879922 162.413469 
L 481.166748 162.413469 
L 483.453573 162.413469 
L 485.740399 162.413469 
L 488.027224 162.413469 
L 490.31405 162.413469 
L 492.600875 162.413469 
L 494.887701 162.413469 
L 497.174526 162.413469 
L 499.461351 162.413469 
L 501.748177 162.413469 
L 504.035002 162.413469 
L 506.321828 162.413469 
L 508.608653 162.413469 
L 510.895479 162.413469 
L 513.182304 162.413469 
L 515.46913 162.413469 
L 517.755955 162.413469 
L 520.042781 162.413469 
L 522.329606 162.413469 
L 524.616432 162.413469 
L 526.903257 162.413469 
L 529.190083 162.413469 
L 531.476908 162.413469 
L 533.763734 162.413469 
L 536.050559 162.413469 
L 538.337385 162.413469 
L 540.62421 162.413469 
L 542.911035 162.413469 
L 545.197861 162.413469 
" style="fill:none;stroke:#808080;stroke-linecap:square;stroke-width:3;"/>
   </g>
   <g id="patch_6">
    <path d="M 307.482353 285.12 
L 307.482353 2.88 
" style="fill:none;stroke:#000000;stroke-linecap:square;stroke-linejoin:miter;stroke-width:0.8;"/>
   </g>
   <g id="patch_7">
    <path d="M 307.482353 285.12 
L 556.517647 285.12 
" style="fill:none;stroke:#000000;stroke-linecap:square;stroke-linejoin:miter;stroke-width:0.8;"/>
   </g>
  </g>
  <g id="axes_3">
   <g id="patch_8">
    <path d="M 606.324706 285.12 
L 855.36 285.12 
L 855.36 2.88 
L 606.324706 2.88 
z
" style="fill:none;"/>
   </g>
   <g id="PathCollection_3">
    <g clip-path="url(#p6491c59728)">
     <use style="stroke:#000000;" x="617.644492" xlink:href="#m37cd51edb3" y="158.576666"/>
     <use style="stroke:#000000;" x="619.931317" xlink:href="#m37cd51edb3" y="207.610557"/>
     <use style="stroke:#000000;" x="622.218143" xlink:href="#m37cd51edb3" y="190.491891"/>
     <use style="stroke:#000000;" x="624.504968" xlink:href="#m37cd51edb3" y="192.255141"/>
     <use style="stroke:#000000;" x="626.791794" xlink:href="#m37cd51edb3" y="123.976793"/>
     <use style="stroke:#000000;" x="629.078619" xlink:href="#m37cd51edb3" y="203.817998"/>
     <use style="stroke:#000000;" x="631.365445" xlink:href="#m37cd51edb3" y="78.491177"/>
     <use style="stroke:#000000;" x="633.65227" xlink:href="#m37cd51edb3" y="143.34832"/>
     <use style="stroke:#000000;" x="635.939096" xlink:href="#m37cd51edb3" y="107.543569"/>
     <use style="stroke:#000000;" x="638.225921" xlink:href="#m37cd51edb3" y="121.425905"/>
     <use style="stroke:#000000;" x="640.512747" xlink:href="#m37cd51edb3" y="72.246581"/>
     <use style="stroke:#000000;" x="642.799572" xlink:href="#m37cd51edb3" y="175.604974"/>
     <use style="stroke:#000000;" x="645.086398" xlink:href="#m37cd51edb3" y="130.158229"/>
     <use style="stroke:#000000;" x="647.373223" xlink:href="#m37cd51edb3" y="138.319835"/>
     <use style="stroke:#000000;" x="649.660049" xlink:href="#m37cd51edb3" y="102.83149"/>
     <use style="stroke:#000000;" x="651.946874" xlink:href="#m37cd51edb3" y="176.37787"/>
     <use style="stroke:#000000;" x="654.2337" xlink:href="#m37cd51edb3" y="160.171301"/>
     <use style="stroke:#000000;" x="656.520525" xlink:href="#m37cd51edb3" y="191.40969"/>
     <use style="stroke:#000000;" x="658.807351" xlink:href="#m37cd51edb3" y="176.143352"/>
     <use style="stroke:#000000;" x="661.094176" xlink:href="#m37cd51edb3" y="171.493874"/>
     <use style="stroke:#000000;" x="663.381001" xlink:href="#m37cd51edb3" y="229.988794"/>
     <use style="stroke:#000000;" x="665.667827" xlink:href="#m37cd51edb3" y="174.629696"/>
     <use style="stroke:#000000;" x="667.954652" xlink:href="#m37cd51edb3" y="189.255634"/>
     <use style="stroke:#000000;" x="670.241478" xlink:href="#m37cd51edb3" y="206.608639"/>
     <use style="stroke:#000000;" x="672.528303" xlink:href="#m37cd51edb3" y="199.073981"/>
     <use style="stroke:#000000;" x="674.815129" xlink:href="#m37cd51edb3" y="246.276682"/>
     <use style="stroke:#000000;" x="677.101954" xlink:href="#m37cd51edb3" y="229.611561"/>
     <use style="stroke:#000000;" x="679.38878" xlink:href="#m37cd51edb3" y="250.057773"/>
     <use style="stroke:#000000;" x="681.675605" xlink:href="#m37cd51edb3" y="225.729571"/>
     <use style="stroke:#000000;" x="683.962431" xlink:href="#m37cd51edb3" y="195.510823"/>
     <use style="stroke:#000000;" x="686.249256" xlink:href="#m37cd51edb3" y="221.326752"/>
     <use style="stroke:#000000;" x="688.536082" xlink:href="#m37cd51edb3" y="201.910683"/>
     <use style="stroke:#000000;" x="690.822907" xlink:href="#m37cd51edb3" y="197.922853"/>
     <use style="stroke:#000000;" x="693.109733" xlink:href="#m37cd51edb3" y="189.128649"/>
     <use style="stroke:#000000;" x="695.396558" xlink:href="#m37cd51edb3" y="170.199665"/>
     <use style="stroke:#000000;" x="697.683384" xlink:href="#m37cd51edb3" y="137.177613"/>
     <use style="stroke:#000000;" x="699.970209" xlink:href="#m37cd51edb3" y="155.013345"/>
     <use style="stroke:#000000;" x="702.257035" xlink:href="#m37cd51edb3" y="103.015263"/>
     <use style="stroke:#000000;" x="704.54386" xlink:href="#m37cd51edb3" y="49.978593"/>
     <use style="stroke:#000000;" x="706.830685" xlink:href="#m37cd51edb3" y="65.64359"/>
     <use style="stroke:#000000;" x="709.117511" xlink:href="#m37cd51edb3" y="83.541977"/>
     <use style="stroke:#000000;" x="711.404336" xlink:href="#m37cd51edb3" y="96.645369"/>
     <use style="stroke:#000000;" x="713.691162" xlink:href="#m37cd51edb3" y="87.987129"/>
     <use style="stroke:#000000;" x="715.977987" xlink:href="#m37cd51edb3" y="15.709091"/>
     <use style="stroke:#000000;" x="718.264813" xlink:href="#m37cd51edb3" y="63.003714"/>
     <use style="stroke:#000000;" x="720.551638" xlink:href="#m37cd51edb3" y="85.324525"/>
     <use style="stroke:#000000;" x="722.838464" xlink:href="#m37cd51edb3" y="66.443679"/>
     <use style="stroke:#000000;" x="725.125289" xlink:href="#m37cd51edb3" y="18.652283"/>
     <use style="stroke:#000000;" x="727.412115" xlink:href="#m37cd51edb3" y="84.387388"/>
     <use style="stroke:#000000;" x="729.69894" xlink:href="#m37cd51edb3" y="80.605674"/>
     <use style="stroke:#000000;" x="731.985766" xlink:href="#m37cd51edb3" y="101.422747"/>
     <use style="stroke:#000000;" x="734.272591" xlink:href="#m37cd51edb3" y="132.707501"/>
     <use style="stroke:#000000;" x="736.559417" xlink:href="#m37cd51edb3" y="168.37311"/>
     <use style="stroke:#000000;" x="738.846242" xlink:href="#m37cd51edb3" y="158.584375"/>
     <use style="stroke:#000000;" x="741.133068" xlink:href="#m37cd51edb3" y="167.099999"/>
     <use style="stroke:#000000;" x="743.419893" xlink:href="#m37cd51edb3" y="155.972"/>
     <use style="stroke:#000000;" x="745.706719" xlink:href="#m37cd51edb3" y="159.212954"/>
     <use style="stroke:#000000;" x="747.993544" xlink:href="#m37cd51edb3" y="165.494057"/>
     <use style="stroke:#000000;" x="750.280369" xlink:href="#m37cd51edb3" y="191.103852"/>
     <use style="stroke:#000000;" x="752.567195" xlink:href="#m37cd51edb3" y="178.910996"/>
     <use style="stroke:#000000;" x="754.85402" xlink:href="#m37cd51edb3" y="228.770503"/>
     <use style="stroke:#000000;" x="757.140846" xlink:href="#m37cd51edb3" y="171.662309"/>
     <use style="stroke:#000000;" x="759.427671" xlink:href="#m37cd51edb3" y="191.116004"/>
     <use style="stroke:#000000;" x="761.714497" xlink:href="#m37cd51edb3" y="210.397474"/>
     <use style="stroke:#000000;" x="764.001322" xlink:href="#m37cd51edb3" y="181.763172"/>
     <use style="stroke:#000000;" x="766.288148" xlink:href="#m37cd51edb3" y="190.063351"/>
     <use style="stroke:#000000;" x="768.574973" xlink:href="#m37cd51edb3" y="145.973248"/>
     <use style="stroke:#000000;" x="770.861799" xlink:href="#m37cd51edb3" y="124.181993"/>
     <use style="stroke:#000000;" x="773.148624" xlink:href="#m37cd51edb3" y="93.595173"/>
     <use style="stroke:#000000;" x="775.43545" xlink:href="#m37cd51edb3" y="184.51628"/>
     <use style="stroke:#000000;" x="777.722275" xlink:href="#m37cd51edb3" y="173.995123"/>
     <use style="stroke:#000000;" x="780.009101" xlink:href="#m37cd51edb3" y="135.571492"/>
     <use style="stroke:#000000;" x="782.295926" xlink:href="#m37cd51edb3" y="105.895448"/>
     <use style="stroke:#000000;" x="784.582752" xlink:href="#m37cd51edb3" y="75.976199"/>
     <use style="stroke:#000000;" x="786.869577" xlink:href="#m37cd51edb3" y="84.289529"/>
     <use style="stroke:#000000;" x="789.156403" xlink:href="#m37cd51edb3" y="145.504151"/>
     <use style="stroke:#000000;" x="791.443228" xlink:href="#m37cd51edb3" y="92.486433"/>
     <use style="stroke:#000000;" x="793.730053" xlink:href="#m37cd51edb3" y="58.464035"/>
     <use style="stroke:#000000;" x="796.016879" xlink:href="#m37cd51edb3" y="76.548227"/>
     <use style="stroke:#000000;" x="798.303704" xlink:href="#m37cd51edb3" y="64.613225"/>
     <use style="stroke:#000000;" x="800.59053" xlink:href="#m37cd51edb3" y="98.549564"/>
     <use style="stroke:#000000;" x="802.877355" xlink:href="#m37cd51edb3" y="105.827633"/>
     <use style="stroke:#000000;" x="805.164181" xlink:href="#m37cd51edb3" y="104.614895"/>
     <use style="stroke:#000000;" x="807.451006" xlink:href="#m37cd51edb3" y="109.83994"/>
     <use style="stroke:#000000;" x="809.737832" xlink:href="#m37cd51edb3" y="128.965273"/>
     <use style="stroke:#000000;" x="812.024657" xlink:href="#m37cd51edb3" y="145.322965"/>
     <use style="stroke:#000000;" x="814.311483" xlink:href="#m37cd51edb3" y="182.699216"/>
     <use style="stroke:#000000;" x="816.598308" xlink:href="#m37cd51edb3" y="167.524894"/>
     <use style="stroke:#000000;" x="818.885134" xlink:href="#m37cd51edb3" y="189.550256"/>
     <use style="stroke:#000000;" x="821.171959" xlink:href="#m37cd51edb3" y="174.660969"/>
     <use style="stroke:#000000;" x="823.458785" xlink:href="#m37cd51edb3" y="185.650652"/>
     <use style="stroke:#000000;" x="825.74561" xlink:href="#m37cd51edb3" y="226.315669"/>
     <use style="stroke:#000000;" x="828.032436" xlink:href="#m37cd51edb3" y="252.236071"/>
     <use style="stroke:#000000;" x="830.319261" xlink:href="#m37cd51edb3" y="267.639659"/>
     <use style="stroke:#000000;" x="832.606087" xlink:href="#m37cd51edb3" y="242.807449"/>
     <use style="stroke:#000000;" x="834.892912" xlink:href="#m37cd51edb3" y="256.095172"/>
     <use style="stroke:#000000;" x="837.179737" xlink:href="#m37cd51edb3" y="269.188291"/>
     <use style="stroke:#000000;" x="839.466563" xlink:href="#m37cd51edb3" y="256.756777"/>
     <use style="stroke:#000000;" x="841.753388" xlink:href="#m37cd51edb3" y="272.290909"/>
     <use style="stroke:#000000;" x="844.040214" xlink:href="#m37cd51edb3" y="228.927549"/>
    </g>
   </g>
   <g id="matplotlib.axis_5"/>
   <g id="matplotlib.axis_6"/>
   <g id="line2d_3">
    <path clip-path="url(#p6491c59728)" d="M 617.644492 162.321068 
L 619.931317 162.321068 
L 622.218143 162.321068 
L 624.504968 162.321068 
L 626.791794 162.321068 
L 629.078619 162.321068 
L 631.365445 162.321068 
L 633.65227 162.321068 
L 635.939096 121.395852 
L 638.225921 121.395852 
L 640.512747 121.395852 
L 642.799572 121.395852 
L 645.086398 121.395852 
L 647.373223 145.990294 
L 649.660049 145.990294 
L 651.946874 145.990294 
L 654.2337 145.990294 
L 656.520525 145.990294 
L 658.807351 145.990294 
L 661.094176 145.990294 
L 663.381001 145.990294 
L 665.667827 145.990294 
L 667.954652 145.990294 
L 670.241478 145.990294 
L 672.528303 145.990294 
L 674.815129 145.990294 
L 677.101954 145.990294 
L 679.38878 145.990294 
L 681.675605 145.990294 
L 683.962431 145.990294 
L 686.249256 145.990294 
L 688.536082 145.990294 
L 690.822907 145.990294 
L 693.109733 145.990294 
L 695.396558 145.990294 
L 697.683384 145.990294 
L 699.970209 145.990294 
L 702.257035 145.990294 
L 704.54386 145.990294 
L 706.830685 145.990294 
L 709.117511 145.990294 
L 711.404336 145.990294 
L 713.691162 145.990294 
L 715.977987 145.990294 
L 718.264813 145.990294 
L 720.551638 145.990294 
L 722.838464 145.990294 
L 725.125289 145.990294 
L 727.412115 145.990294 
L 729.69894 145.990294 
L 731.985766 145.990294 
L 734.272591 145.990294 
L 736.559417 145.990294 
L 738.846242 169.618841 
L 741.133068 169.618841 
L 743.419893 169.618841 
L 745.706719 169.618841 
L 747.993544 169.618841 
L 750.280369 169.618841 
L 752.567195 169.618841 
L 754.85402 169.618841 
L 757.140846 169.618841 
L 759.427671 169.618841 
L 761.714497 169.618841 
L 764.001322 169.618841 
L 766.288148 169.618841 
L 768.574973 169.618841 
L 770.861799 169.618841 
L 773.148624 169.618841 
L 775.43545 184.51628 
L 777.722275 104.076078 
L 780.009101 104.076078 
L 782.295926 104.076078 
L 784.582752 104.076078 
L 786.869577 104.076078 
L 789.156403 104.076078 
L 791.443228 104.076078 
L 793.730053 104.076078 
L 796.016879 104.076078 
L 798.303704 104.076078 
L 800.59053 104.076078 
L 802.877355 104.076078 
L 805.164181 104.076078 
L 807.451006 104.076078 
L 809.737832 104.076078 
L 812.024657 221.177767 
L 814.311483 221.177767 
L 816.598308 221.177767 
L 818.885134 221.177767 
L 821.171959 221.177767 
L 823.458785 221.177767 
L 825.74561 221.177767 
L 828.032436 221.177767 
L 830.319261 221.177767 
L 832.606087 221.177767 
L 834.892912 221.177767 
L 837.179737 221.177767 
L 839.466563 221.177767 
L 841.753388 221.177767 
L 844.040214 221.177767 
" style="fill:none;stroke:#808080;stroke-linecap:square;stroke-width:3;"/>
   </g>
   <g id="patch_9">
    <path d="M 606.324706 285.12 
L 606.324706 2.88 
" style="fill:none;stroke:#000000;stroke-linecap:square;stroke-linejoin:miter;stroke-width:0.8;"/>
   </g>
   <g id="patch_10">
    <path d="M 606.324706 285.12 
L 855.36 285.12 
" style="fill:none;stroke:#000000;stroke-linecap:square;stroke-linejoin:miter;stroke-width:0.8;"/>
   </g>
  </g>
 </g>
 <defs>
  <clipPath id="p8f328d028f">
   <rect height="282.24" width="249.035294" x="8.64" y="2.88"/>
  </clipPath>
  <clipPath id="p2b8303701f">
   <rect height="282.24" width="249.035294" x="307.482353" y="2.88"/>
  </clipPath>
  <clipPath id="p6491c59728">
   <rect height="282.24" width="249.035294" x="606.324706" y="2.88"/>
  </clipPath>
 </defs>
</svg>
