<?xml version="1.0" encoding="utf-8" standalone="no"?>
<!DOCTYPE svg PUBLIC "-//W3C//DTD SVG 1.1//EN"
  "http://www.w3.org/Graphics/SVG/1.1/DTD/svg11.dtd">
<!-- Created with matplotlib (https://matplotlib.org/) -->
<svg height="216pt" version="1.1" viewBox="0 0 288 216" width="288pt" xmlns="http://www.w3.org/2000/svg" xmlns:xlink="http://www.w3.org/1999/xlink">
 <defs>
  <style type="text/css">
*{stroke-linecap:butt;stroke-linejoin:round;}
  </style>
 </defs>
 <g id="figure_1">
  <g id="patch_1">
   <path d="M 0 216 
L 288 216 
L 288 0 
L 0 0 
z
" style="fill:none;"/>
  </g>
  <g id="axes_1">
   <g id="patch_2">
    <path d="M 2.88 213.84 
L 285.12 213.84 
L 285.12 2.16 
L 2.88 2.16 
z
" style="fill:none;"/>
   </g>
   <g id="PathCollection_1">
    <defs>
     <path d="M 0 4.472136 
C 1.186024 4.472136 2.323632 4.000923 3.162278 3.162278 
C 4.000923 2.323632 4.472136 1.186024 4.472136 0 
C 4.472136 -1.186024 4.000923 -2.323632 3.162278 -3.162278 
C 2.323632 -4.000923 1.186024 -4.472136 0 -4.472136 
C -1.186024 -4.472136 -2.323632 -4.000923 -3.162278 -3.162278 
C -4.000923 -2.323632 -4.472136 -1.186024 -4.472136 0 
C -4.472136 1.186024 -4.000923 2.323632 -3.162278 3.162278 
C -2.323632 4.000923 -1.186024 4.472136 0 4.472136 
z
" id="mff8b97d2b2" style="stroke:#000000;"/>
    </defs>
    <g clip-path="url(#p8277d976ee)">
     <use style="fill:#1f77b4;stroke:#000000;" x="43.2" xlink:href="#mff8b97d2b2" y="183.6"/>
     <use style="fill:#1f77b4;stroke:#000000;" x="43.2" xlink:href="#mff8b97d2b2" y="123.12"/>
     <use style="fill:#1f77b4;stroke:#000000;" x="63.36" xlink:href="#mff8b97d2b2" y="153.36"/>
     <use style="fill:#1f77b4;stroke:#000000;" x="59.328" xlink:href="#mff8b97d2b2" y="80.784"/>
     <use style="fill:#1f77b4;stroke:#000000;" x="23.04" xlink:href="#mff8b97d2b2" y="32.4"/>
     <use style="fill:#1f77b4;stroke:#000000;" x="83.52" xlink:href="#mff8b97d2b2" y="44.496"/>
    </g>
   </g>
   <g id="PathCollection_2">
    <g clip-path="url(#p8277d976ee)">
     <use style="fill:#1f77b4;stroke:#000000;" x="123.84" xlink:href="#mff8b97d2b2" y="17.28"/>
     <use style="fill:#1f77b4;stroke:#000000;" x="164.16" xlink:href="#mff8b97d2b2" y="47.52"/>
     <use style="fill:#1f77b4;stroke:#000000;" x="204.48" xlink:href="#mff8b97d2b2" y="38.448"/>
    </g>
   </g>
   <g id="PathCollection_3">
    <defs>
     <path d="M -4.472136 4.472136 
L 4.472136 4.472136 
L 4.472136 -4.472136 
L -4.472136 -4.472136 
z
" id="mb8d1802fea" style="stroke:#000000;"/>
    </defs>
    <g clip-path="url(#p8277d976ee)">
     <use style="fill:#ff7f0e;stroke:#000000;" x="123.84" xlink:href="#mb8d1802fea" y="183.6"/>
     <use style="fill:#ff7f0e;stroke:#000000;" x="123.84" xlink:href="#mb8d1802fea" y="92.88"/>
     <use style="fill:#ff7f0e;stroke:#000000;" x="144" xlink:href="#mb8d1802fea" y="153.36"/>
     <use style="fill:#ff7f0e;stroke:#000000;" x="204.48" xlink:href="#mb8d1802fea" y="77.76"/>
     <use style="fill:#ff7f0e;stroke:#000000;" x="204.48" xlink:href="#mb8d1802fea" y="183.6"/>
     <use style="fill:#ff7f0e;stroke:#000000;" x="252.864" xlink:href="#mb8d1802fea" y="123.12"/>
     <use style="fill:#ff7f0e;stroke:#000000;" x="196.416" xlink:href="#mb8d1802fea" y="129.168"/>
    </g>
   </g>
   <g id="PathCollection_4">
    <g clip-path="url(#p8277d976ee)">
     <use style="fill:#ff7f0e;stroke:#000000;" x="244.8" xlink:href="#mb8d1802fea" y="32.4"/>
    </g>
   </g>
   <g id="PathCollection_5">
    <defs>
     <path d="M 0 9.354143 
C 2.480748 9.354143 4.860225 8.368532 6.614378 6.614378 
C 8.368532 4.860225 9.354143 2.480748 9.354143 0 
C 9.354143 -2.480748 8.368532 -4.860225 6.614378 -6.614378 
C 4.860225 -8.368532 2.480748 -9.354143 0 -9.354143 
C -2.480748 -9.354143 -4.860225 -8.368532 -6.614378 -6.614378 
C -8.368532 -4.860225 -9.354143 -2.480748 -9.354143 0 
C -9.354143 2.480748 -8.368532 4.860225 -6.614378 6.614378 
C -4.860225 8.368532 -2.480748 9.354143 0 9.354143 
z
" id="m9edbe2f279" style="stroke:#000000;"/>
    </defs>
    <g clip-path="url(#p8277d976ee)">
     <use style="fill:#1f77b4;stroke:#000000;" x="123.84" xlink:href="#m9edbe2f279" y="17.28"/>
     <use style="fill:#1f77b4;stroke:#000000;" x="164.16" xlink:href="#m9edbe2f279" y="47.52"/>
     <use style="fill:#1f77b4;stroke:#000000;" x="204.48" xlink:href="#m9edbe2f279" y="38.448"/>
    </g>
   </g>
   <g id="matplotlib.axis_1"/>
   <g id="matplotlib.axis_2"/>
   <g id="line2d_1">
    <path clip-path="url(#p8277d976ee)" d="M 95.616 213.84 
L 95.616 2.16 
" style="fill:none;stroke:#808080;stroke-dasharray:11.1,4.8;stroke-dashoffset:0;stroke-width:3;"/>
   </g>
   <g id="patch_3">
    <path d="M 2.88 213.84 
L 2.88 2.16 
" style="fill:none;stroke:#000000;stroke-linecap:square;stroke-linejoin:miter;stroke-width:0.8;"/>
   </g>
   <g id="patch_4">
    <path d="M 2.88 213.84 
L 285.12 213.84 
" style="fill:none;stroke:#000000;stroke-linecap:square;stroke-linejoin:miter;stroke-width:0.8;"/>
   </g>
  </g>
 </g>
 <defs>
  <clipPath id="p8277d976ee">
   <rect height="211.68" width="282.24" x="2.88" y="2.16"/>
  </clipPath>
 </defs>
</svg>
