<?xml version="1.0" encoding="utf-8" standalone="no"?>
<!DOCTYPE svg PUBLIC "-//W3C//DTD SVG 1.1//EN"
  "http://www.w3.org/Graphics/SVG/1.1/DTD/svg11.dtd">
<!-- Created with matplotlib (https://matplotlib.org/) -->
<svg height="276.48pt" version="1.1" viewBox="0 0 368.64 276.48" width="368.64pt" xmlns="http://www.w3.org/2000/svg" xmlns:xlink="http://www.w3.org/1999/xlink">
 <defs>
  <style type="text/css">
*{stroke-linecap:butt;stroke-linejoin:round;}
  </style>
 </defs>
 <g id="figure_1">
  <g id="patch_1">
   <path d="M 0 276.48 
L 368.64 276.48 
L 368.64 0 
L 0 0 
z
" style="fill:none;"/>
  </g>
  <g id="axes_1">
   <g id="patch_2">
    <path d="M 3.6864 273.7152 
L 364.9536 273.7152 
L 364.9536 2.7648 
L 3.6864 2.7648 
z
" style="fill:none;"/>
   </g>
   <g id="PathCollection_1">
    <defs>
     <path d="M 0 3.872983 
C 1.027127 3.872983 2.012324 3.464901 2.738613 2.738613 
C 3.464901 2.012324 3.872983 1.027127 3.872983 0 
C 3.872983 -1.027127 3.464901 -2.012324 2.738613 -2.738613 
C 2.012324 -3.464901 1.027127 -3.872983 0 -3.872983 
C -1.027127 -3.872983 -2.012324 -3.464901 -2.738613 -2.738613 
C -3.464901 -2.012324 -3.872983 -1.027127 -3.872983 0 
C -3.872983 1.027127 -3.464901 2.012324 -2.738613 2.738613 
C -2.012324 3.464901 -1.027127 3.872983 0 3.872983 
z
" id="mb55a8a35bf" style="stroke:#000000;"/>
    </defs>
    <g clip-path="url(#p30948c7128)">
     <use style="fill:#ff0000;stroke:#000000;" x="55.296" xlink:href="#mb55a8a35bf" y="235.008"/>
     <use style="fill:#ff0000;stroke:#000000;" x="55.296" xlink:href="#mb55a8a35bf" y="157.5936"/>
     <use style="fill:#ff0000;stroke:#000000;" x="81.1008" xlink:href="#mb55a8a35bf" y="196.3008"/>
     <use style="fill:#ff0000;stroke:#000000;" x="75.93984" xlink:href="#mb55a8a35bf" y="103.40352"/>
     <use style="fill:#ff0000;stroke:#000000;" x="29.4912" xlink:href="#mb55a8a35bf" y="41.472"/>
     <use style="fill:#ff0000;stroke:#000000;" x="106.9056" xlink:href="#mb55a8a35bf" y="56.95488"/>
    </g>
   </g>
   <g id="PathCollection_2">
    <g clip-path="url(#p30948c7128)">
     <use style="fill:#ff0000;stroke:#000000;" x="158.5152" xlink:href="#mb55a8a35bf" y="22.1184"/>
     <use style="fill:#ff0000;stroke:#000000;" x="210.1248" xlink:href="#mb55a8a35bf" y="60.8256"/>
     <use style="fill:#ff0000;stroke:#000000;" x="261.7344" xlink:href="#mb55a8a35bf" y="49.21344"/>
    </g>
   </g>
   <g id="PathCollection_3">
    <defs>
     <path d="M -3.872983 3.872983 
L 3.872983 3.872983 
L 3.872983 -3.872983 
L -3.872983 -3.872983 
z
" id="m514b269c86" style="stroke:#000000;"/>
    </defs>
    <g clip-path="url(#p30948c7128)">
     <use style="fill:#0000ff;stroke:#000000;" x="158.5152" xlink:href="#m514b269c86" y="235.008"/>
     <use style="fill:#0000ff;stroke:#000000;" x="158.5152" xlink:href="#m514b269c86" y="118.8864"/>
     <use style="fill:#0000ff;stroke:#000000;" x="184.32" xlink:href="#m514b269c86" y="196.3008"/>
     <use style="fill:#0000ff;stroke:#000000;" x="261.7344" xlink:href="#m514b269c86" y="99.5328"/>
     <use style="fill:#0000ff;stroke:#000000;" x="261.7344" xlink:href="#m514b269c86" y="235.008"/>
     <use style="fill:#0000ff;stroke:#000000;" x="323.66592" xlink:href="#m514b269c86" y="157.5936"/>
     <use style="fill:#0000ff;stroke:#000000;" x="251.41248" xlink:href="#m514b269c86" y="165.33504"/>
    </g>
   </g>
   <g id="PathCollection_4">
    <g clip-path="url(#p30948c7128)">
     <use style="fill:#0000ff;stroke:#000000;" x="313.344" xlink:href="#m514b269c86" y="41.472"/>
    </g>
   </g>
   <g id="PathCollection_5">
    <defs>
     <path d="M -10.606602 10.606602 
L 10.606602 10.606602 
L 10.606602 -10.606602 
L -10.606602 -10.606602 
z
" id="m8009919f1d" style="stroke:#000000;"/>
    </defs>
    <g clip-path="url(#p30948c7128)">
     <use style="fill:#0000ff;stroke:#000000;" x="313.344" xlink:href="#m8009919f1d" y="41.472"/>
    </g>
   </g>
   <g id="matplotlib.axis_1"/>
   <g id="matplotlib.axis_2"/>
   <g id="line2d_1">
    <path clip-path="url(#p30948c7128)" d="M 122.38848 273.7152 
L 122.38848 2.7648 
" style="fill:none;stroke:#808080;stroke-dasharray:11.1,4.8;stroke-dashoffset:0;stroke-width:3;"/>
   </g>
   <g id="line2d_2">
    <path clip-path="url(#p30948c7128)" d="M 3.6864 80.1792 
L 364.9536 80.1792 
" style="fill:none;stroke:#808080;stroke-dasharray:11.1,4.8;stroke-dashoffset:0;stroke-width:3;"/>
   </g>
   <g id="patch_3">
    <path d="M 3.6864 273.7152 
L 3.6864 2.7648 
" style="fill:none;stroke:#000000;stroke-linecap:square;stroke-linejoin:miter;stroke-width:0.8;"/>
   </g>
   <g id="patch_4">
    <path d="M 3.6864 273.7152 
L 364.9536 273.7152 
" style="fill:none;stroke:#000000;stroke-linecap:square;stroke-linejoin:miter;stroke-width:0.8;"/>
   </g>
  </g>
 </g>
 <defs>
  <clipPath id="p30948c7128">
   <rect height="270.9504" width="361.2672" x="3.6864" y="2.7648"/>
  </clipPath>
 </defs>
</svg>
