<?xml version="1.0" encoding="utf-8" standalone="no"?>
<!DOCTYPE svg PUBLIC "-//W3C//DTD SVG 1.1//EN"
  "http://www.w3.org/Graphics/SVG/1.1/DTD/svg11.dtd">
<!-- Created with matplotlib (https://matplotlib.org/) -->
<svg height="288pt" version="1.1" viewBox="0 0 864 288" width="864pt" xmlns="http://www.w3.org/2000/svg" xmlns:xlink="http://www.w3.org/1999/xlink">
 <defs>
  <style type="text/css">
*{stroke-linecap:butt;stroke-linejoin:round;}
  </style>
 </defs>
 <g id="figure_1">
  <g id="patch_1">
   <path d="M 0 288 
L 864 288 
L 864 0 
L 0 0 
z
" style="fill:none;"/>
  </g>
  <g id="axes_1">
   <g id="patch_2">
    <path d="M 8.64 285.12 
L 257.675294 285.12 
L 257.675294 2.88 
L 8.64 2.88 
z
" style="fill:none;"/>
   </g>
   <g id="PathCollection_1">
    <defs>
     <path d="M 0 3 
C 0.795609 3 1.55874 2.683901 2.12132 2.12132 
C 2.683901 1.55874 3 0.795609 3 0 
C 3 -0.795609 2.683901 -1.55874 2.12132 -2.12132 
C 1.55874 -2.683901 0.795609 -3 0 -3 
C -0.795609 -3 -1.55874 -2.683901 -2.12132 -2.12132 
C -2.683901 -1.55874 -3 -0.795609 -3 0 
C -3 0.795609 -2.683901 1.55874 -2.12132 2.12132 
C -1.55874 2.683901 -0.795609 3 0 3 
z
" id="m69ad9c487e" style="stroke:#000000;"/>
    </defs>
    <g clip-path="url(#p393ab8d3e4)">
     <use style="fill:#d3d3d3;stroke:#000000;" x="19.959786" xlink:href="#m69ad9c487e" y="158.576666"/>
     <use style="fill:#d3d3d3;stroke:#000000;" x="22.246612" xlink:href="#m69ad9c487e" y="207.610557"/>
     <use style="fill:#d3d3d3;stroke:#000000;" x="24.533437" xlink:href="#m69ad9c487e" y="190.491891"/>
     <use style="fill:#d3d3d3;stroke:#000000;" x="26.820263" xlink:href="#m69ad9c487e" y="192.255141"/>
     <use style="fill:#d3d3d3;stroke:#000000;" x="29.107088" xlink:href="#m69ad9c487e" y="123.976793"/>
     <use style="fill:#d3d3d3;stroke:#000000;" x="31.393913" xlink:href="#m69ad9c487e" y="203.817998"/>
     <use style="fill:#d3d3d3;stroke:#000000;" x="33.680739" xlink:href="#m69ad9c487e" y="78.491177"/>
     <use style="fill:#d3d3d3;stroke:#000000;" x="35.967564" xlink:href="#m69ad9c487e" y="143.34832"/>
     <use style="fill:#d3d3d3;stroke:#000000;" x="38.25439" xlink:href="#m69ad9c487e" y="107.543569"/>
     <use style="fill:#d3d3d3;stroke:#000000;" x="40.541215" xlink:href="#m69ad9c487e" y="121.425905"/>
     <use style="fill:#d3d3d3;stroke:#000000;" x="42.828041" xlink:href="#m69ad9c487e" y="72.246581"/>
     <use style="fill:#d3d3d3;stroke:#000000;" x="45.114866" xlink:href="#m69ad9c487e" y="175.604974"/>
     <use style="fill:#d3d3d3;stroke:#000000;" x="47.401692" xlink:href="#m69ad9c487e" y="130.158229"/>
     <use style="fill:#d3d3d3;stroke:#000000;" x="49.688517" xlink:href="#m69ad9c487e" y="138.319835"/>
     <use style="fill:#d3d3d3;stroke:#000000;" x="51.975343" xlink:href="#m69ad9c487e" y="102.83149"/>
     <use style="fill:#d3d3d3;stroke:#000000;" x="54.262168" xlink:href="#m69ad9c487e" y="176.37787"/>
     <use style="fill:#d3d3d3;stroke:#000000;" x="56.548994" xlink:href="#m69ad9c487e" y="160.171301"/>
     <use style="fill:#d3d3d3;stroke:#000000;" x="58.835819" xlink:href="#m69ad9c487e" y="191.40969"/>
     <use style="fill:#d3d3d3;stroke:#000000;" x="61.122645" xlink:href="#m69ad9c487e" y="176.143352"/>
     <use style="fill:#d3d3d3;stroke:#000000;" x="63.40947" xlink:href="#m69ad9c487e" y="171.493874"/>
     <use style="fill:#d3d3d3;stroke:#000000;" x="65.696296" xlink:href="#m69ad9c487e" y="229.988794"/>
     <use style="fill:#d3d3d3;stroke:#000000;" x="67.983121" xlink:href="#m69ad9c487e" y="174.629696"/>
     <use style="fill:#d3d3d3;stroke:#000000;" x="70.269947" xlink:href="#m69ad9c487e" y="189.255634"/>
     <use style="fill:#d3d3d3;stroke:#000000;" x="72.556772" xlink:href="#m69ad9c487e" y="206.608639"/>
     <use style="fill:#d3d3d3;stroke:#000000;" x="74.843597" xlink:href="#m69ad9c487e" y="199.073981"/>
     <use style="fill:#d3d3d3;stroke:#000000;" x="77.130423" xlink:href="#m69ad9c487e" y="246.276682"/>
     <use style="fill:#d3d3d3;stroke:#000000;" x="79.417248" xlink:href="#m69ad9c487e" y="229.611561"/>
     <use style="fill:#d3d3d3;stroke:#000000;" x="81.704074" xlink:href="#m69ad9c487e" y="250.057773"/>
     <use style="fill:#d3d3d3;stroke:#000000;" x="83.990899" xlink:href="#m69ad9c487e" y="225.729571"/>
     <use style="fill:#d3d3d3;stroke:#000000;" x="86.277725" xlink:href="#m69ad9c487e" y="195.510823"/>
     <use style="fill:#d3d3d3;stroke:#000000;" x="88.56455" xlink:href="#m69ad9c487e" y="221.326752"/>
     <use style="fill:#d3d3d3;stroke:#000000;" x="90.851376" xlink:href="#m69ad9c487e" y="201.910683"/>
     <use style="fill:#d3d3d3;stroke:#000000;" x="93.138201" xlink:href="#m69ad9c487e" y="197.922853"/>
     <use style="fill:#d3d3d3;stroke:#000000;" x="95.425027" xlink:href="#m69ad9c487e" y="189.128649"/>
     <use style="fill:#d3d3d3;stroke:#000000;" x="97.711852" xlink:href="#m69ad9c487e" y="170.199665"/>
     <use style="fill:#d3d3d3;stroke:#000000;" x="99.998678" xlink:href="#m69ad9c487e" y="137.177613"/>
     <use style="fill:#d3d3d3;stroke:#000000;" x="102.285503" xlink:href="#m69ad9c487e" y="155.013345"/>
     <use style="fill:#d3d3d3;stroke:#000000;" x="104.572329" xlink:href="#m69ad9c487e" y="103.015263"/>
     <use style="fill:#d3d3d3;stroke:#000000;" x="106.859154" xlink:href="#m69ad9c487e" y="49.978593"/>
     <use style="fill:#d3d3d3;stroke:#000000;" x="109.14598" xlink:href="#m69ad9c487e" y="65.64359"/>
     <use style="fill:#d3d3d3;stroke:#000000;" x="111.432805" xlink:href="#m69ad9c487e" y="83.541977"/>
     <use style="fill:#d3d3d3;stroke:#000000;" x="113.719631" xlink:href="#m69ad9c487e" y="96.645369"/>
     <use style="fill:#d3d3d3;stroke:#000000;" x="116.006456" xlink:href="#m69ad9c487e" y="87.987129"/>
     <use style="fill:#d3d3d3;stroke:#000000;" x="118.293281" xlink:href="#m69ad9c487e" y="15.709091"/>
     <use style="fill:#d3d3d3;stroke:#000000;" x="120.580107" xlink:href="#m69ad9c487e" y="63.003714"/>
     <use style="fill:#d3d3d3;stroke:#000000;" x="122.866932" xlink:href="#m69ad9c487e" y="85.324525"/>
     <use style="fill:#d3d3d3;stroke:#000000;" x="125.153758" xlink:href="#m69ad9c487e" y="66.443679"/>
     <use style="fill:#d3d3d3;stroke:#000000;" x="127.440583" xlink:href="#m69ad9c487e" y="18.652283"/>
     <use style="fill:#d3d3d3;stroke:#000000;" x="129.727409" xlink:href="#m69ad9c487e" y="84.387388"/>
     <use style="fill:#d3d3d3;stroke:#000000;" x="132.014234" xlink:href="#m69ad9c487e" y="80.605674"/>
     <use style="fill:#d3d3d3;stroke:#000000;" x="134.30106" xlink:href="#m69ad9c487e" y="101.422747"/>
     <use style="fill:#d3d3d3;stroke:#000000;" x="136.587885" xlink:href="#m69ad9c487e" y="132.707501"/>
     <use style="fill:#d3d3d3;stroke:#000000;" x="138.874711" xlink:href="#m69ad9c487e" y="168.37311"/>
     <use style="fill:#d3d3d3;stroke:#000000;" x="141.161536" xlink:href="#m69ad9c487e" y="158.584375"/>
     <use style="fill:#d3d3d3;stroke:#000000;" x="143.448362" xlink:href="#m69ad9c487e" y="167.099999"/>
     <use style="fill:#d3d3d3;stroke:#000000;" x="145.735187" xlink:href="#m69ad9c487e" y="155.972"/>
     <use style="fill:#d3d3d3;stroke:#000000;" x="148.022013" xlink:href="#m69ad9c487e" y="159.212954"/>
     <use style="fill:#d3d3d3;stroke:#000000;" x="150.308838" xlink:href="#m69ad9c487e" y="165.494057"/>
     <use style="fill:#d3d3d3;stroke:#000000;" x="152.595664" xlink:href="#m69ad9c487e" y="191.103852"/>
     <use style="fill:#d3d3d3;stroke:#000000;" x="154.882489" xlink:href="#m69ad9c487e" y="178.910996"/>
     <use style="fill:#d3d3d3;stroke:#000000;" x="157.169315" xlink:href="#m69ad9c487e" y="228.770503"/>
     <use style="fill:#d3d3d3;stroke:#000000;" x="159.45614" xlink:href="#m69ad9c487e" y="171.662309"/>
     <use style="fill:#d3d3d3;stroke:#000000;" x="161.742965" xlink:href="#m69ad9c487e" y="191.116004"/>
     <use style="fill:#d3d3d3;stroke:#000000;" x="164.029791" xlink:href="#m69ad9c487e" y="210.397474"/>
     <use style="fill:#d3d3d3;stroke:#000000;" x="166.316616" xlink:href="#m69ad9c487e" y="181.763172"/>
     <use style="fill:#d3d3d3;stroke:#000000;" x="168.603442" xlink:href="#m69ad9c487e" y="190.063351"/>
     <use style="fill:#d3d3d3;stroke:#000000;" x="170.890267" xlink:href="#m69ad9c487e" y="145.973248"/>
     <use style="fill:#d3d3d3;stroke:#000000;" x="173.177093" xlink:href="#m69ad9c487e" y="124.181993"/>
     <use style="fill:#d3d3d3;stroke:#000000;" x="175.463918" xlink:href="#m69ad9c487e" y="93.595173"/>
     <use style="fill:#d3d3d3;stroke:#000000;" x="177.750744" xlink:href="#m69ad9c487e" y="184.51628"/>
     <use style="fill:#d3d3d3;stroke:#000000;" x="180.037569" xlink:href="#m69ad9c487e" y="173.995123"/>
     <use style="fill:#d3d3d3;stroke:#000000;" x="182.324395" xlink:href="#m69ad9c487e" y="135.571492"/>
     <use style="fill:#d3d3d3;stroke:#000000;" x="184.61122" xlink:href="#m69ad9c487e" y="105.895448"/>
     <use style="fill:#d3d3d3;stroke:#000000;" x="186.898046" xlink:href="#m69ad9c487e" y="75.976199"/>
     <use style="fill:#d3d3d3;stroke:#000000;" x="189.184871" xlink:href="#m69ad9c487e" y="84.289529"/>
     <use style="fill:#d3d3d3;stroke:#000000;" x="191.471697" xlink:href="#m69ad9c487e" y="145.504151"/>
     <use style="fill:#d3d3d3;stroke:#000000;" x="193.758522" xlink:href="#m69ad9c487e" y="92.486433"/>
     <use style="fill:#d3d3d3;stroke:#000000;" x="196.045348" xlink:href="#m69ad9c487e" y="58.464035"/>
     <use style="fill:#d3d3d3;stroke:#000000;" x="198.332173" xlink:href="#m69ad9c487e" y="76.548227"/>
     <use style="fill:#d3d3d3;stroke:#000000;" x="200.618999" xlink:href="#m69ad9c487e" y="64.613225"/>
     <use style="fill:#d3d3d3;stroke:#000000;" x="202.905824" xlink:href="#m69ad9c487e" y="98.549564"/>
     <use style="fill:#d3d3d3;stroke:#000000;" x="205.192649" xlink:href="#m69ad9c487e" y="105.827633"/>
     <use style="fill:#d3d3d3;stroke:#000000;" x="207.479475" xlink:href="#m69ad9c487e" y="104.614895"/>
     <use style="fill:#d3d3d3;stroke:#000000;" x="209.7663" xlink:href="#m69ad9c487e" y="109.83994"/>
     <use style="fill:#d3d3d3;stroke:#000000;" x="212.053126" xlink:href="#m69ad9c487e" y="128.965273"/>
     <use style="fill:#d3d3d3;stroke:#000000;" x="214.339951" xlink:href="#m69ad9c487e" y="145.322965"/>
     <use style="fill:#d3d3d3;stroke:#000000;" x="216.626777" xlink:href="#m69ad9c487e" y="182.699216"/>
     <use style="fill:#d3d3d3;stroke:#000000;" x="218.913602" xlink:href="#m69ad9c487e" y="167.524894"/>
     <use style="fill:#d3d3d3;stroke:#000000;" x="221.200428" xlink:href="#m69ad9c487e" y="189.550256"/>
     <use style="fill:#d3d3d3;stroke:#000000;" x="223.487253" xlink:href="#m69ad9c487e" y="174.660969"/>
     <use style="fill:#d3d3d3;stroke:#000000;" x="225.774079" xlink:href="#m69ad9c487e" y="185.650652"/>
     <use style="fill:#d3d3d3;stroke:#000000;" x="228.060904" xlink:href="#m69ad9c487e" y="226.315669"/>
     <use style="fill:#d3d3d3;stroke:#000000;" x="230.34773" xlink:href="#m69ad9c487e" y="252.236071"/>
     <use style="fill:#d3d3d3;stroke:#000000;" x="232.634555" xlink:href="#m69ad9c487e" y="267.639659"/>
     <use style="fill:#d3d3d3;stroke:#000000;" x="234.921381" xlink:href="#m69ad9c487e" y="242.807449"/>
     <use style="fill:#d3d3d3;stroke:#000000;" x="237.208206" xlink:href="#m69ad9c487e" y="256.095172"/>
     <use style="fill:#d3d3d3;stroke:#000000;" x="239.495032" xlink:href="#m69ad9c487e" y="269.188291"/>
     <use style="fill:#d3d3d3;stroke:#000000;" x="241.781857" xlink:href="#m69ad9c487e" y="256.756777"/>
     <use style="fill:#d3d3d3;stroke:#000000;" x="244.068683" xlink:href="#m69ad9c487e" y="272.290909"/>
     <use style="fill:#d3d3d3;stroke:#000000;" x="246.355508" xlink:href="#m69ad9c487e" y="228.927549"/>
    </g>
   </g>
   <g id="matplotlib.axis_1"/>
   <g id="matplotlib.axis_2"/>
   <g id="line2d_1">
    <path clip-path="url(#p393ab8d3e4)" d="M 19.959786 158.576666 
L 22.246612 207.610557 
L 24.533437 190.491891 
L 26.820263 158.115967 
L 29.107088 158.115967 
L 31.393913 127.378808 
L 33.680739 127.378808 
L 35.967564 127.378808 
L 38.25439 127.378808 
L 40.541215 127.378808 
L 42.828041 127.378808 
L 45.114866 127.378808 
L 47.401692 127.378808 
L 49.688517 127.378808 
L 51.975343 127.378808 
L 54.262168 176.025553 
L 56.548994 176.025553 
L 58.835819 176.025553 
L 61.122645 176.025553 
L 63.40947 149.988261 
L 65.696296 149.988261 
L 67.983121 149.988261 
L 70.269947 149.988261 
L 72.556772 149.988261 
L 74.843597 149.988261 
L 77.130423 149.988261 
L 79.417248 149.988261 
L 81.704074 149.988261 
L 83.990899 149.988261 
L 86.277725 149.988261 
L 88.56455 149.988261 
L 90.851376 149.988261 
L 93.138201 149.988261 
L 95.425027 149.988261 
L 97.711852 149.988261 
L 99.998678 149.988261 
L 102.285503 149.988261 
L 104.572329 149.988261 
L 106.859154 149.988261 
L 109.14598 149.988261 
L 111.432805 149.988261 
L 113.719631 149.988261 
L 116.006456 149.988261 
L 118.293281 149.988261 
L 120.580107 149.988261 
L 122.866932 149.988261 
L 125.153758 149.988261 
L 127.440583 149.988261 
L 129.727409 149.988261 
L 132.014234 149.988261 
L 134.30106 149.988261 
L 136.587885 149.988261 
L 138.874711 149.988261 
L 141.161536 149.988261 
L 143.448362 149.988261 
L 145.735187 149.988261 
L 148.022013 149.988261 
L 150.308838 149.988261 
L 152.595664 149.988261 
L 154.882489 149.988261 
L 157.169315 149.988261 
L 159.45614 163.386581 
L 161.742965 163.386581 
L 164.029791 163.386581 
L 166.316616 163.386581 
L 168.603442 163.386581 
L 170.890267 163.386581 
L 173.177093 163.386581 
L 175.463918 163.386581 
L 177.750744 163.386581 
L 180.037569 163.386581 
L 182.324395 163.386581 
L 184.61122 163.386581 
L 186.898046 163.386581 
L 189.184871 163.386581 
L 191.471697 163.386581 
L 193.758522 163.386581 
L 196.045348 163.386581 
L 198.332173 163.386581 
L 200.618999 163.386581 
L 202.905824 163.386581 
L 205.192649 163.386581 
L 207.479475 163.386581 
L 209.7663 163.386581 
L 212.053126 163.386581 
L 214.339951 163.386581 
L 216.626777 163.386581 
L 218.913602 163.386581 
L 221.200428 163.386581 
L 223.487253 163.386581 
L 225.774079 163.386581 
L 228.060904 163.386581 
L 230.34773 163.386581 
L 232.634555 163.386581 
L 234.921381 163.386581 
L 237.208206 163.386581 
L 239.495032 163.386581 
L 241.781857 163.386581 
L 244.068683 163.386581 
L 246.355508 163.386581 
" style="fill:none;stroke:#0000ff;stroke-linecap:square;stroke-width:3;"/>
   </g>
   <g id="patch_3">
    <path d="M 8.64 285.12 
L 8.64 2.88 
" style="fill:none;stroke:#000000;stroke-linecap:square;stroke-linejoin:miter;stroke-width:0.8;"/>
   </g>
   <g id="patch_4">
    <path d="M 8.64 285.12 
L 257.675294 285.12 
" style="fill:none;stroke:#000000;stroke-linecap:square;stroke-linejoin:miter;stroke-width:0.8;"/>
   </g>
  </g>
 </g>
 <defs>
  <clipPath id="p393ab8d3e4">
   <rect height="282.24" width="249.035294" x="8.64" y="2.88"/>
  </clipPath>
 </defs>
</svg>
