<?xml version="1.0" encoding="utf-8" standalone="no"?>
<!DOCTYPE svg PUBLIC "-//W3C//DTD SVG 1.1//EN"
  "http://www.w3.org/Graphics/SVG/1.1/DTD/svg11.dtd">
<!-- Created with matplotlib (https://matplotlib.org/) -->
<svg height="216pt" version="1.1" viewBox="0 0 288 216" width="288pt" xmlns="http://www.w3.org/2000/svg" xmlns:xlink="http://www.w3.org/1999/xlink">
 <defs>
  <style type="text/css">
*{stroke-linecap:butt;stroke-linejoin:round;}
  </style>
 </defs>
 <g id="figure_1">
  <g id="patch_1">
   <path d="M 0 216 
L 288 216 
L 288 0 
L 0 0 
z
" style="fill:none;"/>
  </g>
  <g id="axes_1">
   <g id="patch_2">
    <path d="M 2.88 213.84 
L 285.12 213.84 
L 285.12 2.16 
L 2.88 2.16 
z
" style="fill:none;"/>
   </g>
   <g id="PathCollection_1">
    <defs>
     <path d="M 0 3.872983 
C 1.027127 3.872983 2.012324 3.464901 2.738613 2.738613 
C 3.464901 2.012324 3.872983 1.027127 3.872983 0 
C 3.872983 -1.027127 3.464901 -2.012324 2.738613 -2.738613 
C 2.012324 -3.464901 1.027127 -3.872983 0 -3.872983 
C -1.027127 -3.872983 -2.012324 -3.464901 -2.738613 -2.738613 
C -3.464901 -2.012324 -3.872983 -1.027127 -3.872983 0 
C -3.872983 1.027127 -3.464901 2.012324 -2.738613 2.738613 
C -2.012324 3.464901 -1.027127 3.872983 0 3.872983 
z
" id="mf77ce05e08" style="stroke:#000000;"/>
    </defs>
    <g clip-path="url(#p052e539f7a)">
     <use style="fill:#1f77b4;stroke:#000000;" x="43.2" xlink:href="#mf77ce05e08" y="183.6"/>
     <use style="fill:#1f77b4;stroke:#000000;" x="43.2" xlink:href="#mf77ce05e08" y="123.12"/>
     <use style="fill:#1f77b4;stroke:#000000;" x="63.36" xlink:href="#mf77ce05e08" y="153.36"/>
     <use style="fill:#1f77b4;stroke:#000000;" x="59.328" xlink:href="#mf77ce05e08" y="80.784"/>
     <use style="fill:#1f77b4;stroke:#000000;" x="23.04" xlink:href="#mf77ce05e08" y="32.4"/>
     <use style="fill:#1f77b4;stroke:#000000;" x="83.52" xlink:href="#mf77ce05e08" y="44.496"/>
    </g>
   </g>
   <g id="PathCollection_2">
    <g clip-path="url(#p052e539f7a)">
     <use style="fill:#1f77b4;stroke:#000000;" x="123.84" xlink:href="#mf77ce05e08" y="17.28"/>
     <use style="fill:#1f77b4;stroke:#000000;" x="164.16" xlink:href="#mf77ce05e08" y="47.52"/>
     <use style="fill:#1f77b4;stroke:#000000;" x="204.48" xlink:href="#mf77ce05e08" y="38.448"/>
    </g>
   </g>
   <g id="PathCollection_3">
    <defs>
     <path d="M -3.872983 3.872983 
L 3.872983 3.872983 
L 3.872983 -3.872983 
L -3.872983 -3.872983 
z
" id="m8578b1a76a" style="stroke:#000000;"/>
    </defs>
    <g clip-path="url(#p052e539f7a)">
     <use style="fill:#ff7f0e;stroke:#000000;" x="123.84" xlink:href="#m8578b1a76a" y="183.6"/>
     <use style="fill:#ff7f0e;stroke:#000000;" x="123.84" xlink:href="#m8578b1a76a" y="92.88"/>
     <use style="fill:#ff7f0e;stroke:#000000;" x="144" xlink:href="#m8578b1a76a" y="153.36"/>
     <use style="fill:#ff7f0e;stroke:#000000;" x="204.48" xlink:href="#m8578b1a76a" y="77.76"/>
     <use style="fill:#ff7f0e;stroke:#000000;" x="204.48" xlink:href="#m8578b1a76a" y="183.6"/>
     <use style="fill:#ff7f0e;stroke:#000000;" x="252.864" xlink:href="#m8578b1a76a" y="123.12"/>
     <use style="fill:#ff7f0e;stroke:#000000;" x="196.416" xlink:href="#m8578b1a76a" y="129.168"/>
    </g>
   </g>
   <g id="PathCollection_4">
    <g clip-path="url(#p052e539f7a)">
     <use style="fill:#ff7f0e;stroke:#000000;" x="244.8" xlink:href="#m8578b1a76a" y="32.4"/>
    </g>
   </g>
   <g id="PathCollection_5">
    <defs>
     <path d="M -10.606602 10.606602 
L 10.606602 10.606602 
L 10.606602 -10.606602 
L -10.606602 -10.606602 
z
" id="m15ab786950" style="stroke:#000000;"/>
    </defs>
    <g clip-path="url(#p052e539f7a)">
     <use style="fill:#ff7f0e;stroke:#000000;" x="244.8" xlink:href="#m15ab786950" y="32.4"/>
    </g>
   </g>
   <g id="matplotlib.axis_1"/>
   <g id="matplotlib.axis_2"/>
   <g id="line2d_1">
    <path clip-path="url(#p052e539f7a)" d="M 95.616 213.84 
L 95.616 2.16 
" style="fill:none;stroke:#808080;stroke-dasharray:11.1,4.8;stroke-dashoffset:0;stroke-width:3;"/>
   </g>
   <g id="line2d_2">
    <path clip-path="url(#p052e539f7a)" d="M 2.88 62.64 
L 285.12 62.64 
" style="fill:none;stroke:#808080;stroke-dasharray:11.1,4.8;stroke-dashoffset:0;stroke-width:3;"/>
   </g>
   <g id="patch_3">
    <path d="M 2.88 213.84 
L 2.88 2.16 
" style="fill:none;stroke:#000000;stroke-linecap:square;stroke-linejoin:miter;stroke-width:0.8;"/>
   </g>
   <g id="patch_4">
    <path d="M 2.88 213.84 
L 285.12 213.84 
" style="fill:none;stroke:#000000;stroke-linecap:square;stroke-linejoin:miter;stroke-width:0.8;"/>
   </g>
  </g>
 </g>
 <defs>
  <clipPath id="p052e539f7a">
   <rect height="211.68" width="282.24" x="2.88" y="2.16"/>
  </clipPath>
 </defs>
</svg>
