<svg version="1.1" viewBox="0.0 0.0 809.0288713910761 216.96062992125985" fill="none" stroke="none" stroke-linecap="square" stroke-miterlimit="10" xmlns:xlink="http://www.w3.org/1999/xlink" xmlns="http://www.w3.org/2000/svg"><clipPath id="p.0"><path d="m0 0l809.0289 0l0 216.96063l-809.0289 0l0 -216.96063z" clip-rule="nonzero"/></clipPath><g clip-path="url(#p.0)"><path fill="#000000" fill-opacity="0.0" d="m0 0l809.0289 0l0 216.96063l-809.0289 0z" fill-rule="evenodd"/><path fill="#000000" fill-opacity="0.0" d="m44.0 5.43832l88.53543 0l0 73.38583l-88.53543 0z" fill-rule="evenodd"/><path stroke="#000000" stroke-width="2.0" stroke-linejoin="round" stroke-linecap="butt" d="m44.0 5.43832l88.53543 0l0 73.38583l-88.53543 0z" fill-rule="evenodd"/><path fill="#666666" d="m59.902054 30.973106l0 -17.5l1.421875 0l0 17.5l-1.421875 0z" fill-rule="nonzero"/><path fill="#666666" d="m59.902054 52.973106l0 -17.5l1.421875 0l0 17.5l-1.421875 0z" fill-rule="nonzero"/><path fill="#666666" d="m59.902054 74.973114l0 -17.500004l1.421875 0l0 17.500004l-1.421875 0z" fill-rule="nonzero"/><path fill="#ff0000" d="m7.874016 179.03412l0 0c0 -10.297714 8.087077 -18.64566 18.062992 -18.64566l0 0c4.7906036 0 9.3849945 1.964447 12.772465 5.4611816c3.3874664 3.4967499 5.2905273 8.239349 5.2905273 13.184479l0 0c0 10.297714 -8.087078 18.645676 -18.062992 18.645676l0 0c-9.975915 0 -18.062992 -8.347961 -18.062992 -18.645676z" fill-rule="evenodd"/><path stroke="#000000" stroke-width="1.0" stroke-linejoin="round" stroke-linecap="butt" d="m7.874016 179.03412l0 0c0 -10.297714 8.087077 -18.64566 18.062992 -18.64566l0 0c4.7906036 0 9.3849945 1.964447 12.772465 5.4611816c3.3874664 3.4967499 5.2905273 8.239349 5.2905273 13.184479l0 0c0 10.297714 -8.087078 18.645676 -18.062992 18.645676l0 0c-9.975915 0 -18.062992 -8.347961 -18.062992 -18.645676z" fill-rule="evenodd"/><path fill="#0000ff" d="m132.53543 160.38846l32.62993 0l0 38.45668l-32.62993 0z" fill-rule="evenodd"/><path stroke="#000000" stroke-width="1.0" stroke-linejoin="round" stroke-linecap="butt" d="m132.53543 160.38846l32.62993 0l0 38.45668l-32.62993 0z" fill-rule="evenodd"/><path fill="#000000" fill-opacity="0.0" d="m88.267715 78.81365l-62.330708 81.57481" fill-rule="evenodd"/><path stroke="#000000" stroke-width="4.0" stroke-linejoin="round" stroke-linecap="butt" d="m88.267715 78.81365l-47.759285 62.50457" fill-rule="evenodd"/><path fill="#000000" stroke="#000000" stroke-width="4.0" stroke-linecap="butt" d="m35.25861 137.30687l-5.771269 18.43512l16.270906 -10.412415z" fill-rule="evenodd"/><path fill="#000000" fill-opacity="0.0" d="m88.267715 78.82415l60.59842 81.57481" fill-rule="evenodd"/><path stroke="#000000" stroke-width="4.0" stroke-linejoin="round" stroke-linecap="butt" d="m88.267715 78.82415l46.28665 62.308952" fill-rule="evenodd"/><path fill="#000000" stroke="#000000" stroke-width="4.0" stroke-linecap="butt" d="m129.25069 145.07297l16.128387 10.631851l-5.521042 -18.511597z" fill-rule="evenodd"/><path fill="#000000" fill-opacity="0.0" d="m277.44357 370.99738l0 -88.53543l73.38583 0l0 88.53543z" fill-rule="evenodd"/><path stroke="#000000" stroke-width="2.0" stroke-linejoin="round" stroke-linecap="butt" d="m277.44357 370.99738l0 -88.53543l73.38583 0l0 88.53543z" fill-rule="evenodd"/><path fill="#666666" d="m302.97836 323.99548l-17.5 0l0 -1.421875l17.5 0l0 1.421875z" fill-rule="nonzero"/><path fill="#666666" d="m324.97836 323.99548l-17.5 0l0 -1.421875l17.5 0l0 1.421875z" fill-rule="nonzero"/><path fill="#666666" d="m346.97836 323.99548l-17.5 0l0 -1.421875l17.5 0l0 1.421875z" fill-rule="nonzero"/><path fill="#ff0000" d="m451.63254 286.53018l0 0c-10.297699 0 -18.64566 -8.087067 -18.64566 -18.062988l0 0c0 -4.790619 1.964447 -9.38501 5.4611816 -12.772461c3.4967346 -3.3874664 8.239349 -5.2905273 13.184479 -5.2905273l0 0c10.2977295 0 18.64569 8.087067 18.64569 18.062988l0 0c0 9.975922 -8.347961 18.062988 -18.64569 18.062988z" fill-rule="evenodd"/><path stroke="#000000" stroke-width="1.0" stroke-linejoin="round" stroke-linecap="butt" d="m451.63254 286.53018l0 0c-10.297699 0 -18.64566 -8.087067 -18.64566 -18.062988l0 0c0 -4.790619 1.964447 -9.38501 5.4611816 -12.772461c3.4967346 -3.3874664 8.239349 -5.2905273 13.184479 -5.2905273l0 0c10.2977295 0 18.64569 8.087067 18.64569 18.062988l0 0c0 9.975922 -8.347961 18.062988 -18.64569 18.062988z" fill-rule="evenodd"/><path fill="#0000ff" d="m432.4042 421.68503l0 -32.629913l38.456696 0l0 32.629913z" fill-rule="evenodd"/><path stroke="#000000" stroke-width="1.0" stroke-linejoin="round" stroke-linecap="butt" d="m432.4042 421.68503l0 -32.629913l38.456696 0l0 32.629913z" fill-rule="evenodd"/><path fill="#000000" fill-opacity="0.0" d="m350.8294 326.72964l82.17322 -58.2677" fill-rule="evenodd"/><path stroke="#000000" stroke-width="4.0" stroke-linejoin="round" stroke-linecap="butt" d="m350.8294 326.72964l62.59558 -44.385498" fill-rule="evenodd"/><path fill="#000000" stroke="#000000" stroke-width="4.0" stroke-linecap="butt" d="m417.24658 287.73364l10.985931 -15.889282l-18.62915 5.11026z" fill-rule="evenodd"/><path fill="#000000" fill-opacity="0.0" d="m350.8294 326.72964l81.5748 78.64569" fill-rule="evenodd"/><path stroke="#000000" stroke-width="4.0" stroke-linejoin="round" stroke-linecap="butt" d="m350.8294 326.72964l64.296875 61.98816" fill-rule="evenodd"/><path fill="#000000" stroke="#000000" stroke-width="4.0" stroke-linecap="butt" d="m410.54065 393.4742l17.653778 7.842499l-8.482513 -17.355316z" fill-rule="evenodd"/><path fill="#cfe2f3" d="m213.471 325.8918l11.67804 0l0 -12.059937l10.993286 0l0 12.059937l11.678024 0l0 10.993286l-11.678024 0l0 12.059937l-10.993286 0l0 -12.059937l-11.67804 0z" fill-rule="evenodd"/><path stroke="#000000" stroke-width="2.0" stroke-linejoin="round" stroke-linecap="butt" d="m213.471 325.8918l11.67804 0l0 -12.059937l10.993286 0l0 12.059937l11.678024 0l0 10.993286l-11.678024 0l0 12.059937l-10.993286 0l0 -12.059937l-11.67804 0z" fill-rule="evenodd"/><path fill="#cfe2f3" d="m491.4369 330.54797l11.678009 0l0 -12.059937l10.993317 0l0 12.059937l11.6779785 0l0 10.993286l-11.6779785 0l0 12.059937l-10.993317 0l0 -12.059937l-11.678009 0z" fill-rule="evenodd"/><path stroke="#000000" stroke-width="2.0" stroke-linejoin="round" stroke-linecap="butt" d="m491.4369 330.54797l11.678009 0l0 -12.059937l10.993317 0l0 12.059937l11.6779785 0l0 10.993286l-11.6779785 0l0 12.059937l-10.993317 0l0 -12.059937l-11.678009 0z" fill-rule="evenodd"/><path fill="#000000" fill-opacity="0.0" d="m646.48553 239.3412l88.53546 0l0 73.38582l-88.53546 0z" fill-rule="evenodd"/><path stroke="#000000" stroke-width="2.0" stroke-linejoin="round" stroke-linecap="butt" d="m646.48553 239.3412l88.53546 0l0 73.38582l-88.53546 0z" fill-rule="evenodd"/><path fill="#666666" d="m705.2043 264.876l0 -17.500015l1.421875 0l0 17.500015l-1.421875 0z" fill-rule="nonzero"/><path fill="#666666" d="m705.2043 286.876l0 -17.5l1.421875 0l0 17.5l-1.421875 0z" fill-rule="nonzero"/><path fill="#666666" d="m705.2043 308.876l0 -17.5l1.421875 0l0 17.5l-1.421875 0z" fill-rule="nonzero"/><path fill="#ff0000" d="m728.27295 413.51968l0 0c0 -10.2977295 8.087097 -18.64566 18.062988 -18.64566l0 0c4.7906494 0 9.38501 1.964447 12.772461 5.4611816c3.3875122 3.4967346 5.2905273 8.239349 5.2905273 13.184479l0 0c0 10.2977295 -8.087036 18.64566 -18.062988 18.64566l0 0c-9.975891 0 -18.062988 -8.347931 -18.062988 -18.64566z" fill-rule="evenodd"/><path stroke="#000000" stroke-width="1.0" stroke-linejoin="round" stroke-linecap="butt" d="m728.27295 413.51968l0 0c0 -10.2977295 8.087097 -18.64566 18.062988 -18.64566l0 0c4.7906494 0 9.38501 1.964447 12.772461 5.4611816c3.3875122 3.4967346 5.2905273 8.239349 5.2905273 13.184479l0 0c0 10.2977295 -8.087036 18.64566 -18.062988 18.64566l0 0c-9.975891 0 -18.062988 -8.347931 -18.062988 -18.64566z" fill-rule="evenodd"/><path fill="#0000ff" d="m613.85565 394.29135l32.629883 0l0 38.456665l-32.629883 0z" fill-rule="evenodd"/><path stroke="#000000" stroke-width="1.0" stroke-linejoin="round" stroke-linecap="butt" d="m613.85565 394.29135l32.629883 0l0 38.456665l-32.629883 0z" fill-rule="evenodd"/><path fill="#000000" fill-opacity="0.0" d="m690.7533 312.72702l55.590515 82.141754" fill-rule="evenodd"/><path stroke="#000000" stroke-width="4.0" stroke-linejoin="round" stroke-linecap="butt" d="m690.7533 312.72702l42.1391 62.265625" fill-rule="evenodd"/><path fill="#000000" stroke="#000000" stroke-width="4.0" stroke-linecap="butt" d="m727.4207 378.6957l15.645691 11.330231l-4.7023315 -18.736298z" fill-rule="evenodd"/><path fill="#000000" fill-opacity="0.0" d="m690.7533 312.72702l-60.59845 81.57483" fill-rule="evenodd"/><path stroke="#000000" stroke-width="4.0" stroke-linejoin="round" stroke-linecap="butt" d="m690.7533 312.72702l-46.286682 62.30896" fill-rule="evenodd"/><path fill="#000000" stroke="#000000" stroke-width="4.0" stroke-linecap="butt" d="m639.16296 371.0961l-5.521057 18.511597l16.128418 -10.631836z" fill-rule="evenodd"/></g></svg>