<svg version="1.1" viewBox="0.0 0.0 809.0288713910761 216.96062992125985" fill="none" stroke="none" stroke-linecap="square" stroke-miterlimit="10" xmlns:xlink="http://www.w3.org/1999/xlink" xmlns="http://www.w3.org/2000/svg"><clipPath id="p.0"><path d="m0 0l809.0289 0l0 216.96063l-809.0289 0l0 -216.96063z" clip-rule="nonzero"/></clipPath><g clip-path="url(#p.0)"><path fill="#000000" fill-opacity="0.0" d="m0 0l809.0289 0l0 216.96063l-809.0289 0z" fill-rule="evenodd"/><path fill="#000000" fill-opacity="0.0" d="m44.0 5.43832l88.53543 0l0 73.38583l-88.53543 0z" fill-rule="evenodd"/><path stroke="#000000" stroke-width="2.0" stroke-linejoin="round" stroke-linecap="butt" d="m44.0 5.43832l88.53543 0l0 73.38583l-88.53543 0z" fill-rule="evenodd"/><path fill="#666666" d="m59.902054 30.973106l0 -17.5l1.421875 0l0 17.5l-1.421875 0z" fill-rule="nonzero"/><path fill="#666666" d="m59.902054 52.973106l0 -17.5l1.421875 0l0 17.5l-1.421875 0z" fill-rule="nonzero"/><path fill="#666666" d="m59.902054 74.973114l0 -17.500004l1.421875 0l0 17.500004l-1.421875 0z" fill-rule="nonzero"/><path fill="#ff0000" d="m7.874016 179.03412l0 0c0 -10.297714 8.087077 -18.64566 18.062992 -18.64566l0 0c4.7906036 0 9.3849945 1.964447 12.772465 5.4611816c3.3874664 3.4967499 5.2905273 8.239349 5.2905273 13.184479l0 0c0 10.297714 -8.087078 18.645676 -18.062992 18.645676l0 0c-9.975915 0 -18.062992 -8.347961 -18.062992 -18.645676z" fill-rule="evenodd"/><path stroke="#000000" stroke-width="1.0" stroke-linejoin="round" stroke-linecap="butt" d="m7.874016 179.03412l0 0c0 -10.297714 8.087077 -18.64566 18.062992 -18.64566l0 0c4.7906036 0 9.3849945 1.964447 12.772465 5.4611816c3.3874664 3.4967499 5.2905273 8.239349 5.2905273 13.184479l0 0c0 10.297714 -8.087078 18.645676 -18.062992 18.645676l0 0c-9.975915 0 -18.062992 -8.347961 -18.062992 -18.645676z" fill-rule="evenodd"/><path fill="#0000ff" d="m132.53543 160.38846l32.62993 0l0 38.45668l-32.62993 0z" fill-rule="evenodd"/><path stroke="#000000" stroke-width="1.0" stroke-linejoin="round" stroke-linecap="butt" d="m132.53543 160.38846l32.62993 0l0 38.45668l-32.62993 0z" fill-rule="evenodd"/><path fill="#000000" fill-opacity="0.0" d="m88.267715 78.81365l-62.330708 81.57481" fill-rule="evenodd"/><path stroke="#000000" stroke-width="4.0" stroke-linejoin="round" stroke-linecap="butt" d="m88.267715 78.81365l-47.759285 62.50457" fill-rule="evenodd"/><path fill="#000000" stroke="#000000" stroke-width="4.0" stroke-linecap="butt" d="m35.25861 137.30687l-5.771269 18.43512l16.270906 -10.412415z" fill-rule="evenodd"/><path fill="#000000" fill-opacity="0.0" d="m88.267715 78.82415l60.59842 81.57481" fill-rule="evenodd"/><path stroke="#000000" stroke-width="4.0" stroke-linejoin="round" stroke-linecap="butt" d="m88.267715 78.82415l46.28665 62.308952" fill-rule="evenodd"/><path fill="#000000" stroke="#000000" stroke-width="4.0" stroke-linecap="butt" d="m129.25069 145.07297l16.128387 10.631851l-5.521042 -18.511597z" fill-rule="evenodd"/><path fill="#000000" fill-opacity="0.0" d="m289.79266 140.00525l0 -88.53543l73.3858 0l0 88.53543z" fill-rule="evenodd"/><path stroke="#000000" stroke-width="2.0" stroke-linejoin="round" stroke-linecap="butt" d="m289.79266 140.00525l0 -88.53543l73.3858 0l0 88.53543z" fill-rule="evenodd"/><path fill="#666666" d="m315.32742 93.00337l-17.5 0l0 -1.421875l17.5 0l0 1.421875z" fill-rule="nonzero"/><path fill="#666666" d="m337.32742 93.00337l-17.5 0l0 -1.421875l17.5 0l0 1.421875z" fill-rule="nonzero"/><path fill="#666666" d="m359.32745 93.00337l-17.5 0l0 -1.421875l17.5 0l0 1.421875z" fill-rule="nonzero"/><path fill="#ff0000" d="m463.98163 55.53806l0 0c-10.2977295 0 -18.64566 -8.087078 -18.64566 -18.062992l0 0c0 -4.7906036 1.964447 -9.384998 5.4611816 -12.772467c3.4967346 -3.3874664 8.239349 -5.2905273 13.184479 -5.2905273l0 0c10.2977295 0 18.64566 8.087078 18.64566 18.062994l0 0c0 9.975914 -8.347931 18.062992 -18.64566 18.062992z" fill-rule="evenodd"/><path stroke="#000000" stroke-width="1.0" stroke-linejoin="round" stroke-linecap="butt" d="m463.98163 55.53806l0 0c-10.2977295 0 -18.64566 -8.087078 -18.64566 -18.062992l0 0c0 -4.7906036 1.964447 -9.384998 5.4611816 -12.772467c3.4967346 -3.3874664 8.239349 -5.2905273 13.184479 -5.2905273l0 0c10.2977295 0 18.64566 8.087078 18.64566 18.062994l0 0c0 9.975914 -8.347931 18.062992 -18.64566 18.062992z" fill-rule="evenodd"/><path fill="#0000ff" d="m444.7533 190.69292l0 -32.62993l38.456665 0l0 32.62993z" fill-rule="evenodd"/><path stroke="#000000" stroke-width="1.0" stroke-linejoin="round" stroke-linecap="butt" d="m444.7533 190.69292l0 -32.62993l38.456665 0l0 32.62993z" fill-rule="evenodd"/><path fill="#000000" fill-opacity="0.0" d="m363.17847 95.73753l82.17325 -58.267715" fill-rule="evenodd"/><path stroke="#000000" stroke-width="4.0" stroke-linejoin="round" stroke-linecap="butt" d="m363.17847 95.73753l62.59561 -44.38552" fill-rule="evenodd"/><path fill="#000000" stroke="#000000" stroke-width="4.0" stroke-linecap="butt" d="m429.59567 56.741524l10.985931 -15.889305l-18.62915 5.1102905z" fill-rule="evenodd"/><path fill="#000000" fill-opacity="0.0" d="m363.17847 95.73753l81.57483 78.645676" fill-rule="evenodd"/><path stroke="#000000" stroke-width="4.0" stroke-linejoin="round" stroke-linecap="butt" d="m363.17847 95.73753l64.296875 61.988144" fill-rule="evenodd"/><path fill="#000000" stroke="#000000" stroke-width="4.0" stroke-linecap="butt" d="m422.8897 162.4821l17.653809 7.8424835l-8.482544 -17.355331z" fill-rule="evenodd"/><path fill="#cfe2f3" d="m225.82008 94.89968l11.678024 0l0 -12.059944l10.993286 0l0 12.059944l11.67804 0l0 10.993286l-11.67804 0l0 12.059944l-10.993286 0l0 -12.059944l-11.678024 0z" fill-rule="evenodd"/><path stroke="#000000" stroke-width="2.0" stroke-linejoin="round" stroke-linecap="butt" d="m225.82008 94.89968l11.678024 0l0 -12.059944l10.993286 0l0 12.059944l11.67804 0l0 10.993286l-11.67804 0l0 12.059944l-10.993286 0l0 -12.059944l-11.678024 0z" fill-rule="evenodd"/><path fill="#cfe2f3" d="m408.10617 331.6792l11.67804 0l0 -12.059937l10.993286 0l0 12.059937l11.678009 0l0 10.993286l-11.678009 0l0 12.059967l-10.993286 0l0 -12.059967l-11.67804 0z" fill-rule="evenodd"/><path stroke="#000000" stroke-width="2.0" stroke-linejoin="round" stroke-linecap="butt" d="m408.10617 331.6792l11.67804 0l0 -12.059937l10.993286 0l0 12.059937l11.678009 0l0 10.993286l-11.678009 0l0 12.059967l-10.993286 0l0 -12.059967l-11.67804 0z" fill-rule="evenodd"/><path fill="#000000" fill-opacity="0.0" d="m563.15485 240.47244l88.53546 0l0 73.38583l-88.53546 0z" fill-rule="evenodd"/><path stroke="#000000" stroke-width="2.0" stroke-linejoin="round" stroke-linecap="butt" d="m563.15485 240.47244l88.53546 0l0 73.38583l-88.53546 0z" fill-rule="evenodd"/><path fill="#666666" d="m621.8736 266.00723l0 -17.5l1.421875 0l0 17.5l-1.421875 0z" fill-rule="nonzero"/><path fill="#666666" d="m621.8736 288.00723l0 -17.5l1.421875 0l0 17.5l-1.421875 0z" fill-rule="nonzero"/><path fill="#666666" d="m621.8736 310.00723l0 -17.5l1.421875 0l0 17.5l-1.421875 0z" fill-rule="nonzero"/><path fill="#ff0000" d="m644.94226 414.6509l0 0c0 -10.297699 8.087097 -18.64566 18.062988 -18.64566l0 0c4.7905884 0 9.38501 1.964447 12.772461 5.4611816c3.3874512 3.4967651 5.2905273 8.239349 5.2905273 13.184479l0 0c0 10.2977295 -8.087097 18.64569 -18.062988 18.64569l0 0c-9.975891 0 -18.062988 -8.347961 -18.062988 -18.64569z" fill-rule="evenodd"/><path stroke="#000000" stroke-width="1.0" stroke-linejoin="round" stroke-linecap="butt" d="m644.94226 414.6509l0 0c0 -10.297699 8.087097 -18.64566 18.062988 -18.64566l0 0c4.7905884 0 9.38501 1.964447 12.772461 5.4611816c3.3874512 3.4967651 5.2905273 8.239349 5.2905273 13.184479l0 0c0 10.2977295 -8.087097 18.64569 -18.062988 18.64569l0 0c-9.975891 0 -18.062988 -8.347961 -18.062988 -18.64569z" fill-rule="evenodd"/><path fill="#0000ff" d="m530.52496 395.42258l32.629883 0l0 38.456696l-32.629883 0z" fill-rule="evenodd"/><path stroke="#000000" stroke-width="1.0" stroke-linejoin="round" stroke-linecap="butt" d="m530.52496 395.42258l32.629883 0l0 38.456696l-32.629883 0z" fill-rule="evenodd"/><path fill="#000000" fill-opacity="0.0" d="m607.42255 313.85828l55.590576 82.14172" fill-rule="evenodd"/><path stroke="#000000" stroke-width="4.0" stroke-linejoin="round" stroke-linecap="butt" d="m607.42255 313.85828l42.13916 62.265625" fill-rule="evenodd"/><path fill="#000000" stroke="#000000" stroke-width="4.0" stroke-linecap="butt" d="m644.09 379.82693l15.64563 11.330261l-4.7022705 -18.736328z" fill-rule="evenodd"/><path fill="#000000" fill-opacity="0.0" d="m607.42255 313.85828l-60.59839 81.5748" fill-rule="evenodd"/><path stroke="#000000" stroke-width="4.0" stroke-linejoin="round" stroke-linecap="butt" d="m607.42255 313.85828l-46.28662 62.30893" fill-rule="evenodd"/><path fill="#000000" stroke="#000000" stroke-width="4.0" stroke-linecap="butt" d="m555.8323 372.22736l-5.521057 18.511597l16.128357 -10.631866z" fill-rule="evenodd"/></g></svg>