<?xml version="1.0" encoding="utf-8" standalone="no"?>
<!DOCTYPE svg PUBLIC "-//W3C//DTD SVG 1.1//EN"
  "http://www.w3.org/Graphics/SVG/1.1/DTD/svg11.dtd">
<!-- Created with matplotlib (https://matplotlib.org/) -->
<svg height="216pt" version="1.1" viewBox="0 0 288 216" width="288pt" xmlns="http://www.w3.org/2000/svg" xmlns:xlink="http://www.w3.org/1999/xlink">
 <defs>
  <style type="text/css">
*{stroke-linecap:butt;stroke-linejoin:round;}
  </style>
 </defs>
 <g id="figure_1">
  <g id="patch_1">
   <path d="M 0 216 
L 288 216 
L 288 0 
L 0 0 
z
" style="fill:none;"/>
  </g>
  <g id="axes_1">
   <g id="patch_2">
    <path d="M 28.8 194.4 
L 288 194.4 
L 288 0 
L 28.8 0 
z
" style="fill:none;"/>
   </g>
   <g id="PathCollection_1">
    <defs>
     <path d="M 0 3 
C 0.795609 3 1.55874 2.683901 2.12132 2.12132 
C 2.683901 1.55874 3 0.795609 3 0 
C 3 -0.795609 2.683901 -1.55874 2.12132 -2.12132 
C 1.55874 -2.683901 0.795609 -3 0 -3 
C -0.795609 -3 -1.55874 -2.683901 -2.12132 -2.12132 
C -2.683901 -1.55874 -3 -0.795609 -3 0 
C -3 0.795609 -2.683901 1.55874 -2.12132 2.12132 
C -1.55874 2.683901 -0.795609 3 0 3 
z
" id="m470da2a0fe" style="stroke:#000000;"/>
    </defs>
    <g clip-path="url(#p2ff7384540)">
     <use style="stroke:#000000;" x="40.581818" xlink:href="#m470da2a0fe" y="120.654845"/>
     <use style="stroke:#000000;" x="42.961983" xlink:href="#m470da2a0fe" y="134.006471"/>
     <use style="stroke:#000000;" x="45.342149" xlink:href="#m470da2a0fe" y="121.461206"/>
     <use style="stroke:#000000;" x="47.722314" xlink:href="#m470da2a0fe" y="116.689129"/>
     <use style="stroke:#000000;" x="50.102479" xlink:href="#m470da2a0fe" y="84.804376"/>
     <use style="stroke:#000000;" x="52.482645" xlink:href="#m470da2a0fe" y="111.906323"/>
     <use style="stroke:#000000;" x="54.86281" xlink:href="#m470da2a0fe" y="58.904824"/>
     <use style="stroke:#000000;" x="57.242975" xlink:href="#m470da2a0fe" y="81.673435"/>
     <use style="stroke:#000000;" x="59.62314" xlink:href="#m470da2a0fe" y="65.674538"/>
     <use style="stroke:#000000;" x="62.003306" xlink:href="#m470da2a0fe" y="70.186019"/>
     <use style="stroke:#000000;" x="64.383471" xlink:href="#m470da2a0fe" y="50.786314"/>
     <use style="stroke:#000000;" x="66.763636" xlink:href="#m470da2a0fe" y="92.402855"/>
     <use style="stroke:#000000;" x="69.143802" xlink:href="#m470da2a0fe" y="76.241493"/>
     <use style="stroke:#000000;" x="71.523967" xlink:href="#m470da2a0fe" y="81.976247"/>
     <use style="stroke:#000000;" x="73.904132" xlink:href="#m470da2a0fe" y="71.175685"/>
     <use style="stroke:#000000;" x="76.284298" xlink:href="#m470da2a0fe" y="103.872329"/>
     <use style="stroke:#000000;" x="78.664463" xlink:href="#m470da2a0fe" y="101.590084"/>
     <use style="stroke:#000000;" x="81.044628" xlink:href="#m470da2a0fe" y="118.229548"/>
     <use style="stroke:#000000;" x="83.424793" xlink:href="#m470da2a0fe" y="116.604675"/>
     <use style="stroke:#000000;" x="85.804959" xlink:href="#m470da2a0fe" y="119.054769"/>
     <use style="stroke:#000000;" x="88.185124" xlink:href="#m470da2a0fe" y="146.112936"/>
     <use style="stroke:#000000;" x="90.565289" xlink:href="#m470da2a0fe" y="127.88116"/>
     <use style="stroke:#000000;" x="92.945455" xlink:href="#m470da2a0fe" y="136.657511"/>
     <use style="stroke:#000000;" x="95.32562" xlink:href="#m470da2a0fe" y="145.819026"/>
     <use style="stroke:#000000;" x="97.705785" xlink:href="#m470da2a0fe" y="144.386687"/>
     <use style="stroke:#000000;" x="100.08595" xlink:href="#m470da2a0fe" y="163.663859"/>
     <use style="stroke:#000000;" x="102.466116" xlink:href="#m470da2a0fe" y="156.873728"/>
     <use style="stroke:#000000;" x="104.846281" xlink:href="#m470da2a0fe" y="163.793021"/>
     <use style="stroke:#000000;" x="107.226446" xlink:href="#m470da2a0fe" y="152.174551"/>
     <use style="stroke:#000000;" x="109.606612" xlink:href="#m470da2a0fe" y="137.388345"/>
     <use style="stroke:#000000;" x="111.986777" xlink:href="#m470da2a0fe" y="143.911996"/>
     <use style="stroke:#000000;" x="114.366942" xlink:href="#m470da2a0fe" y="131.946279"/>
     <use style="stroke:#000000;" x="116.747107" xlink:href="#m470da2a0fe" y="125.518985"/>
     <use style="stroke:#000000;" x="119.127273" xlink:href="#m470da2a0fe" y="116.801243"/>
     <use style="stroke:#000000;" x="121.507438" xlink:href="#m470da2a0fe" y="103.851467"/>
     <use style="stroke:#000000;" x="123.887603" xlink:href="#m470da2a0fe" y="85.276506"/>
     <use style="stroke:#000000;" x="126.267769" xlink:href="#m470da2a0fe" y="86.838706"/>
     <use style="stroke:#000000;" x="128.647934" xlink:href="#m470da2a0fe" y="61.148856"/>
     <use style="stroke:#000000;" x="131.028099" xlink:href="#m470da2a0fe" y="35.473627"/>
     <use style="stroke:#000000;" x="133.408264" xlink:href="#m470da2a0fe" y="37.438842"/>
     <use style="stroke:#000000;" x="135.78843" xlink:href="#m470da2a0fe" y="40.981775"/>
     <use style="stroke:#000000;" x="138.168595" xlink:href="#m470da2a0fe" y="43.438692"/>
     <use style="stroke:#000000;" x="140.54876" xlink:href="#m470da2a0fe" y="38.204163"/>
     <use style="stroke:#000000;" x="142.928926" xlink:href="#m470da2a0fe" y="8.836364"/>
     <use style="stroke:#000000;" x="145.309091" xlink:href="#m470da2a0fe" y="27.540595"/>
     <use style="stroke:#000000;" x="147.689256" xlink:href="#m470da2a0fe" y="37.351795"/>
     <use style="stroke:#000000;" x="150.069421" xlink:href="#m470da2a0fe" y="31.836121"/>
     <use style="stroke:#000000;" x="152.449587" xlink:href="#m470da2a0fe" y="15.767995"/>
     <use style="stroke:#000000;" x="154.829752" xlink:href="#m470da2a0fe" y="45.176659"/>
     <use style="stroke:#000000;" x="157.209917" xlink:href="#m470da2a0fe" y="47.817975"/>
     <use style="stroke:#000000;" x="159.590083" xlink:href="#m470da2a0fe" y="60.637534"/>
     <use style="stroke:#000000;" x="161.970248" xlink:href="#m470da2a0fe" y="77.913076"/>
     <use style="stroke:#000000;" x="164.350413" xlink:href="#m470da2a0fe" y="97.081957"/>
     <use style="stroke:#000000;" x="166.730579" xlink:href="#m470da2a0fe" y="98.338589"/>
     <use style="stroke:#000000;" x="169.110744" xlink:href="#m470da2a0fe" y="106.637913"/>
     <use style="stroke:#000000;" x="171.490909" xlink:href="#m470da2a0fe" y="106.865607"/>
     <use style="stroke:#000000;" x="173.871074" xlink:href="#m470da2a0fe" y="112.27387"/>
     <use style="stroke:#000000;" x="176.25124" xlink:href="#m470da2a0fe" y="118.265639"/>
     <use style="stroke:#000000;" x="178.631405" xlink:href="#m470da2a0fe" y="131.147052"/>
     <use style="stroke:#000000;" x="181.01157" xlink:href="#m470da2a0fe" y="128.319231"/>
     <use style="stroke:#000000;" x="183.391736" xlink:href="#m470da2a0fe" y="149.068593"/>
     <use style="stroke:#000000;" x="185.771901" xlink:href="#m470da2a0fe" y="126.765778"/>
     <use style="stroke:#000000;" x="188.152066" xlink:href="#m470da2a0fe" y="133.727863"/>
     <use style="stroke:#000000;" x="190.532231" xlink:href="#m470da2a0fe" y="139.750263"/>
     <use style="stroke:#000000;" x="192.912397" xlink:href="#m470da2a0fe" y="126.081138"/>
     <use style="stroke:#000000;" x="195.292562" xlink:href="#m470da2a0fe" y="126.242376"/>
     <use style="stroke:#000000;" x="197.672727" xlink:href="#m470da2a0fe" y="105.149948"/>
     <use style="stroke:#000000;" x="200.052893" xlink:href="#m470da2a0fe" y="92.367428"/>
     <use style="stroke:#000000;" x="202.433058" xlink:href="#m470da2a0fe" y="75.792758"/>
     <use style="stroke:#000000;" x="204.813223" xlink:href="#m470da2a0fe" y="106.931326"/>
     <use style="stroke:#000000;" x="207.193388" xlink:href="#m470da2a0fe" y="98.101429"/>
     <use style="stroke:#000000;" x="209.573554" xlink:href="#m470da2a0fe" y="78.448528"/>
     <use style="stroke:#000000;" x="211.953719" xlink:href="#m470da2a0fe" y="62.577406"/>
     <use style="stroke:#000000;" x="214.333884" xlink:href="#m470da2a0fe" y="47.098545"/>
     <use style="stroke:#000000;" x="216.71405" xlink:href="#m470da2a0fe" y="47.310365"/>
     <use style="stroke:#000000;" x="219.094215" xlink:href="#m470da2a0fe" y="69.110575"/>
     <use style="stroke:#000000;" x="221.47438" xlink:href="#m470da2a0fe" y="46.737077"/>
     <use style="stroke:#000000;" x="223.854545" xlink:href="#m470da2a0fe" y="32.752763"/>
     <use style="stroke:#000000;" x="226.234711" xlink:href="#m470da2a0fe" y="40.242268"/>
     <use style="stroke:#000000;" x="228.614876" xlink:href="#m470da2a0fe" y="36.852675"/>
     <use style="stroke:#000000;" x="230.995041" xlink:href="#m470da2a0fe" y="52.463845"/>
     <use style="stroke:#000000;" x="233.375207" xlink:href="#m470da2a0fe" y="58.443386"/>
     <use style="stroke:#000000;" x="235.755372" xlink:href="#m470da2a0fe" y="61.868238"/>
     <use style="stroke:#000000;" x="238.135537" xlink:href="#m470da2a0fe" y="68.513574"/>
     <use style="stroke:#000000;" x="240.515702" xlink:href="#m470da2a0fe" y="81.190655"/>
     <use style="stroke:#000000;" x="242.895868" xlink:href="#m470da2a0fe" y="93.184784"/>
     <use style="stroke:#000000;" x="245.276033" xlink:href="#m470da2a0fe" y="113.708517"/>
     <use style="stroke:#000000;" x="247.656198" xlink:href="#m470da2a0fe" y="113.605573"/>
     <use style="stroke:#000000;" x="250.036364" xlink:href="#m470da2a0fe" y="128.070532"/>
     <use style="stroke:#000000;" x="252.416529" xlink:href="#m470da2a0fe" y="127.733443"/>
     <use style="stroke:#000000;" x="254.796694" xlink:href="#m470da2a0fe" y="137.179313"/>
     <use style="stroke:#000000;" x="257.17686" xlink:href="#m470da2a0fe" y="157.760348"/>
     <use style="stroke:#000000;" x="259.557025" xlink:href="#m470da2a0fe" y="171.848716"/>
     <use style="stroke:#000000;" x="261.93719" xlink:href="#m470da2a0fe" y="181.008171"/>
     <use style="stroke:#000000;" x="264.317355" xlink:href="#m470da2a0fe" y="173.452519"/>
     <use style="stroke:#000000;" x="266.697521" xlink:href="#m470da2a0fe" y="180.009105"/>
     <use style="stroke:#000000;" x="269.077686" xlink:href="#m470da2a0fe" y="185.563636"/>
     <use style="stroke:#000000;" x="271.457851" xlink:href="#m470da2a0fe" y="180.148857"/>
     <use style="stroke:#000000;" x="273.838017" xlink:href="#m470da2a0fe" y="184.885485"/>
     <use style="stroke:#000000;" x="276.218182" xlink:href="#m470da2a0fe" y="165.619279"/>
    </g>
   </g>
   <g id="matplotlib.axis_1">
    <g id="text_1">
     <!-- x -->
     <defs>
      <path d="M 22.21875 27.984375 
L 2.484375 54.6875 
L 21 54.6875 
L 32.171875 38.484375 
L 43.5 54.6875 
L 62.015625 54.6875 
L 42.28125 28.078125 
L 62.984375 0 
L 44.484375 0 
L 32.171875 17.28125 
L 20.015625 0 
L 1.515625 0 
z
" id="DejaVuSans-Bold-120"/>
     </defs>
     <g transform="translate(151.305 215.116562)scale(0.22 -0.22)">
      <use xlink:href="#DejaVuSans-Bold-120"/>
     </g>
    </g>
   </g>
   <g id="matplotlib.axis_2">
    <g id="text_2">
     <!-- y -->
     <defs>
      <path d="M 1.21875 54.6875 
L 18.703125 54.6875 
L 33.40625 17.578125 
L 45.90625 54.6875 
L 63.375 54.6875 
L 40.375 -5.171875 
Q 36.921875 -14.3125 32.296875 -17.9375 
Q 27.6875 -21.578125 20.125 -21.578125 
L 10.015625 -21.578125 
L 10.015625 -10.109375 
L 15.484375 -10.109375 
Q 19.921875 -10.109375 21.9375 -8.6875 
Q 23.96875 -7.28125 25.09375 -3.609375 
L 25.59375 -2.09375 
z
" id="DejaVuSans-Bold-121"/>
     </defs>
     <g transform="translate(20.052813 104.370625)rotate(-90)scale(0.22 -0.22)">
      <use xlink:href="#DejaVuSans-Bold-121"/>
     </g>
    </g>
   </g>
   <g id="patch_3">
    <path d="M 28.8 194.4 
L 28.8 0 
" style="fill:none;stroke:#000000;stroke-linecap:square;stroke-linejoin:miter;stroke-width:0.8;"/>
   </g>
   <g id="patch_4">
    <path d="M 28.8 194.4 
L 288 194.4 
" style="fill:none;stroke:#000000;stroke-linecap:square;stroke-linejoin:miter;stroke-width:0.8;"/>
   </g>
  </g>
 </g>
 <defs>
  <clipPath id="p2ff7384540">
   <rect height="194.4" width="259.2" x="28.8" y="0"/>
  </clipPath>
 </defs>
</svg>
