<?xml version="1.0" encoding="utf-8" standalone="no"?>
<!DOCTYPE svg PUBLIC "-//W3C//DTD SVG 1.1//EN"
  "http://www.w3.org/Graphics/SVG/1.1/DTD/svg11.dtd">
<!-- Created with matplotlib (https://matplotlib.org/) -->
<svg height="276.48pt" version="1.1" viewBox="0 0 368.64 276.48" width="368.64pt" xmlns="http://www.w3.org/2000/svg" xmlns:xlink="http://www.w3.org/1999/xlink">
 <defs>
  <style type="text/css">
*{stroke-linecap:butt;stroke-linejoin:round;}
  </style>
 </defs>
 <g id="figure_1">
  <g id="patch_1">
   <path d="M 0 276.48 
L 368.64 276.48 
L 368.64 0 
L 0 0 
z
" style="fill:none;"/>
  </g>
  <g id="axes_1">
   <g id="patch_2">
    <path d="M 3.6864 273.7152 
L 364.9536 273.7152 
L 364.9536 2.7648 
L 3.6864 2.7648 
z
" style="fill:none;"/>
   </g>
   <g id="PathCollection_1">
    <defs>
     <path d="M 0 4.472136 
C 1.186024 4.472136 2.323632 4.000923 3.162278 3.162278 
C 4.000923 2.323632 4.472136 1.186024 4.472136 0 
C 4.472136 -1.186024 4.000923 -2.323632 3.162278 -3.162278 
C 2.323632 -4.000923 1.186024 -4.472136 0 -4.472136 
C -1.186024 -4.472136 -2.323632 -4.000923 -3.162278 -3.162278 
C -4.000923 -2.323632 -4.472136 -1.186024 -4.472136 0 
C -4.472136 1.186024 -4.000923 2.323632 -3.162278 3.162278 
C -2.323632 4.000923 -1.186024 4.472136 0 4.472136 
z
" id="m71361e1d1f" style="stroke:#000000;"/>
    </defs>
    <g clip-path="url(#p904d93136f)">
     <use style="fill:#1f77b4;stroke:#000000;" x="55.296" xlink:href="#m71361e1d1f" y="235.008"/>
     <use style="fill:#1f77b4;stroke:#000000;" x="55.296" xlink:href="#m71361e1d1f" y="157.5936"/>
     <use style="fill:#1f77b4;stroke:#000000;" x="81.1008" xlink:href="#m71361e1d1f" y="196.3008"/>
     <use style="fill:#1f77b4;stroke:#000000;" x="75.93984" xlink:href="#m71361e1d1f" y="103.40352"/>
     <use style="fill:#1f77b4;stroke:#000000;" x="29.4912" xlink:href="#m71361e1d1f" y="41.472"/>
     <use style="fill:#1f77b4;stroke:#000000;" x="106.9056" xlink:href="#m71361e1d1f" y="56.95488"/>
    </g>
   </g>
   <g id="PathCollection_2">
    <g clip-path="url(#p904d93136f)">
     <use style="fill:#1f77b4;stroke:#000000;" x="158.5152" xlink:href="#m71361e1d1f" y="22.1184"/>
     <use style="fill:#1f77b4;stroke:#000000;" x="210.1248" xlink:href="#m71361e1d1f" y="60.8256"/>
     <use style="fill:#1f77b4;stroke:#000000;" x="261.7344" xlink:href="#m71361e1d1f" y="49.21344"/>
    </g>
   </g>
   <g id="PathCollection_3">
    <defs>
     <path d="M -4.472136 4.472136 
L 4.472136 4.472136 
L 4.472136 -4.472136 
L -4.472136 -4.472136 
z
" id="mea92c97a95" style="stroke:#000000;"/>
    </defs>
    <g clip-path="url(#p904d93136f)">
     <use style="fill:#ff7f0e;stroke:#000000;" x="158.5152" xlink:href="#mea92c97a95" y="235.008"/>
     <use style="fill:#ff7f0e;stroke:#000000;" x="158.5152" xlink:href="#mea92c97a95" y="118.8864"/>
     <use style="fill:#ff7f0e;stroke:#000000;" x="184.32" xlink:href="#mea92c97a95" y="196.3008"/>
     <use style="fill:#ff7f0e;stroke:#000000;" x="261.7344" xlink:href="#mea92c97a95" y="99.5328"/>
     <use style="fill:#ff7f0e;stroke:#000000;" x="261.7344" xlink:href="#mea92c97a95" y="235.008"/>
     <use style="fill:#ff7f0e;stroke:#000000;" x="323.66592" xlink:href="#mea92c97a95" y="157.5936"/>
     <use style="fill:#ff7f0e;stroke:#000000;" x="251.41248" xlink:href="#mea92c97a95" y="165.33504"/>
    </g>
   </g>
   <g id="PathCollection_4">
    <g clip-path="url(#p904d93136f)">
     <use style="fill:#ff7f0e;stroke:#000000;" x="313.344" xlink:href="#mea92c97a95" y="41.472"/>
    </g>
   </g>
   <g id="PathCollection_5">
    <defs>
     <path d="M 0 9.354143 
C 2.480748 9.354143 4.860225 8.368532 6.614378 6.614378 
C 8.368532 4.860225 9.354143 2.480748 9.354143 0 
C 9.354143 -2.480748 8.368532 -4.860225 6.614378 -6.614378 
C 4.860225 -8.368532 2.480748 -9.354143 0 -9.354143 
C -2.480748 -9.354143 -4.860225 -8.368532 -6.614378 -6.614378 
C -8.368532 -4.860225 -9.354143 -2.480748 -9.354143 0 
C -9.354143 2.480748 -8.368532 4.860225 -6.614378 6.614378 
C -4.860225 8.368532 -2.480748 9.354143 0 9.354143 
z
" id="m00a014fde3" style="stroke:#000000;"/>
    </defs>
    <g clip-path="url(#p904d93136f)">
     <use style="fill:#1f77b4;stroke:#000000;" x="158.5152" xlink:href="#m00a014fde3" y="22.1184"/>
     <use style="fill:#1f77b4;stroke:#000000;" x="210.1248" xlink:href="#m00a014fde3" y="60.8256"/>
     <use style="fill:#1f77b4;stroke:#000000;" x="261.7344" xlink:href="#m00a014fde3" y="49.21344"/>
    </g>
   </g>
   <g id="matplotlib.axis_1"/>
   <g id="matplotlib.axis_2"/>
   <g id="line2d_1">
    <path clip-path="url(#p904d93136f)" d="M 122.38848 273.7152 
L 122.38848 2.7648 
" style="fill:none;stroke:#808080;stroke-dasharray:11.1,4.8;stroke-dashoffset:0;stroke-width:3;"/>
   </g>
   <g id="patch_3">
    <path d="M 3.6864 273.7152 
L 3.6864 2.7648 
" style="fill:none;stroke:#000000;stroke-linecap:square;stroke-linejoin:miter;stroke-width:0.8;"/>
   </g>
   <g id="patch_4">
    <path d="M 3.6864 273.7152 
L 364.9536 273.7152 
" style="fill:none;stroke:#000000;stroke-linecap:square;stroke-linejoin:miter;stroke-width:0.8;"/>
   </g>
  </g>
 </g>
 <defs>
  <clipPath id="p904d93136f">
   <rect height="270.9504" width="361.2672" x="3.6864" y="2.7648"/>
  </clipPath>
 </defs>
</svg>
