<svg version="1.1" viewBox="0.0 0.0 809.0288713910761 216.96062992125985" fill="none" stroke="none" stroke-linecap="square" stroke-miterlimit="10" xmlns:xlink="http://www.w3.org/1999/xlink" xmlns="http://www.w3.org/2000/svg"><clipPath id="p.0"><path d="m0 0l809.0289 0l0 216.96063l-809.0289 0l0 -216.96063z" clip-rule="nonzero"/></clipPath><g clip-path="url(#p.0)"><path fill="#000000" fill-opacity="0.0" d="m0 0l809.0289 0l0 216.96063l-809.0289 0z" fill-rule="evenodd"/><path fill="#000000" fill-opacity="0.0" d="m44.0 5.43832l88.53543 0l0 73.38583l-88.53543 0z" fill-rule="evenodd"/><path stroke="#000000" stroke-width="2.0" stroke-linejoin="round" stroke-linecap="butt" d="m44.0 5.43832l88.53543 0l0 73.38583l-88.53543 0z" fill-rule="evenodd"/><path fill="#666666" d="m59.902054 30.973106l0 -17.5l1.421875 0l0 17.5l-1.421875 0z" fill-rule="nonzero"/><path fill="#666666" d="m59.902054 52.973106l0 -17.5l1.421875 0l0 17.5l-1.421875 0z" fill-rule="nonzero"/><path fill="#666666" d="m59.902054 74.973114l0 -17.500004l1.421875 0l0 17.500004l-1.421875 0z" fill-rule="nonzero"/><path fill="#4a86e8" d="m7.874016 179.03412l0 0c0 -10.297714 8.087077 -18.64566 18.062992 -18.64566l0 0c4.7906036 0 9.3849945 1.964447 12.772465 5.4611816c3.3874664 3.4967499 5.2905273 8.239349 5.2905273 13.184479l0 0c0 10.297714 -8.087078 18.645676 -18.062992 18.645676l0 0c-9.975915 0 -18.062992 -8.347961 -18.062992 -18.645676z" fill-rule="evenodd"/><path stroke="#000000" stroke-width="1.0" stroke-linejoin="round" stroke-linecap="butt" d="m7.874016 179.03412l0 0c0 -10.297714 8.087077 -18.64566 18.062992 -18.64566l0 0c4.7906036 0 9.3849945 1.964447 12.772465 5.4611816c3.3874664 3.4967499 5.2905273 8.239349 5.2905273 13.184479l0 0c0 10.297714 -8.087078 18.645676 -18.062992 18.645676l0 0c-9.975915 0 -18.062992 -8.347961 -18.062992 -18.645676z" fill-rule="evenodd"/><path fill="#ff9900" d="m132.53543 160.38846l32.62993 0l0 38.45668l-32.62993 0z" fill-rule="evenodd"/><path stroke="#000000" stroke-width="1.0" stroke-linejoin="round" stroke-linecap="butt" d="m132.53543 160.38846l32.62993 0l0 38.45668l-32.62993 0z" fill-rule="evenodd"/><path fill="#000000" fill-opacity="0.0" d="m88.267715 78.81365l-62.330708 81.57481" fill-rule="evenodd"/><path stroke="#000000" stroke-width="4.0" stroke-linejoin="round" stroke-linecap="butt" d="m88.267715 78.81365l-47.759285 62.50457" fill-rule="evenodd"/><path fill="#000000" stroke="#000000" stroke-width="4.0" stroke-linecap="butt" d="m35.25861 137.30687l-5.771269 18.43512l16.270906 -10.412415z" fill-rule="evenodd"/><path fill="#000000" fill-opacity="0.0" d="m88.267715 78.82415l60.59842 81.57481" fill-rule="evenodd"/><path stroke="#000000" stroke-width="4.0" stroke-linejoin="round" stroke-linecap="butt" d="m88.267715 78.82415l46.28665 62.308952" fill-rule="evenodd"/><path fill="#000000" stroke="#000000" stroke-width="4.0" stroke-linecap="butt" d="m129.25069 145.07297l16.128387 10.631851l-5.521042 -18.511597z" fill-rule="evenodd"/></g></svg>