<?xml version="1.0" encoding="utf-8" standalone="no"?>
<!DOCTYPE svg PUBLIC "-//W3C//DTD SVG 1.1//EN"
  "http://www.w3.org/Graphics/SVG/1.1/DTD/svg11.dtd">
<!-- Created with matplotlib (https://matplotlib.org/) -->
<svg height="216pt" version="1.1" viewBox="0 0 288 216" width="288pt" xmlns="http://www.w3.org/2000/svg" xmlns:xlink="http://www.w3.org/1999/xlink">
 <defs>
  <style type="text/css">
*{stroke-linecap:butt;stroke-linejoin:round;}
  </style>
 </defs>
 <g id="figure_1">
  <g id="patch_1">
   <path d="M 0 216 
L 288 216 
L 288 0 
L 0 0 
z
" style="fill:none;"/>
  </g>
  <g id="axes_1">
   <g id="patch_2">
    <path d="M 28.8 194.4 
L 288 194.4 
L 288 0 
L 28.8 0 
z
" style="fill:none;"/>
   </g>
   <g id="PathCollection_1">
    <defs>
     <path d="M 0 3 
C 0.795609 3 1.55874 2.683901 2.12132 2.12132 
C 2.683901 1.55874 3 0.795609 3 0 
C 3 -0.795609 2.683901 -1.55874 2.12132 -2.12132 
C 1.55874 -2.683901 0.795609 -3 0 -3 
C -0.795609 -3 -1.55874 -2.683901 -2.12132 -2.12132 
C -2.683901 -1.55874 -3 -0.795609 -3 0 
C -3 0.795609 -2.683901 1.55874 -2.12132 2.12132 
C -1.55874 2.683901 -0.795609 3 0 3 
z
" id="m75dfb56f45" style="stroke:#000000;"/>
    </defs>
    <g clip-path="url(#pbbbed61273)">
     <use style="stroke:#000000;" x="40.581818" xlink:href="#m75dfb56f45" y="107.24005"/>
     <use style="stroke:#000000;" x="42.961983" xlink:href="#m75dfb56f45" y="141.013394"/>
     <use style="stroke:#000000;" x="45.342149" xlink:href="#m75dfb56f45" y="129.222476"/>
     <use style="stroke:#000000;" x="47.722314" xlink:href="#m75dfb56f45" y="130.43696"/>
     <use style="stroke:#000000;" x="50.102479" xlink:href="#m75dfb56f45" y="83.408506"/>
     <use style="stroke:#000000;" x="52.482645" xlink:href="#m75dfb56f45" y="138.401172"/>
     <use style="stroke:#000000;" x="54.86281" xlink:href="#m75dfb56f45" y="52.079127"/>
     <use style="stroke:#000000;" x="57.242975" xlink:href="#m75dfb56f45" y="96.751139"/>
     <use style="stroke:#000000;" x="59.62314" xlink:href="#m75dfb56f45" y="72.089703"/>
     <use style="stroke:#000000;" x="62.003306" xlink:href="#m75dfb56f45" y="81.651516"/>
     <use style="stroke:#000000;" x="64.383471" xlink:href="#m75dfb56f45" y="47.778002"/>
     <use style="stroke:#000000;" x="66.763636" xlink:href="#m75dfb56f45" y="118.968732"/>
     <use style="stroke:#000000;" x="69.143802" xlink:href="#m75dfb56f45" y="87.666127"/>
     <use style="stroke:#000000;" x="71.523967" xlink:href="#m75dfb56f45" y="93.287641"/>
     <use style="stroke:#000000;" x="73.904132" xlink:href="#m75dfb56f45" y="68.844139"/>
     <use style="stroke:#000000;" x="76.284298" xlink:href="#m75dfb56f45" y="119.501084"/>
     <use style="stroke:#000000;" x="78.664463" xlink:href="#m75dfb56f45" y="108.338396"/>
     <use style="stroke:#000000;" x="81.044628" xlink:href="#m75dfb56f45" y="129.854634"/>
     <use style="stroke:#000000;" x="83.424793" xlink:href="#m75dfb56f45" y="119.339554"/>
     <use style="stroke:#000000;" x="85.804959" xlink:href="#m75dfb56f45" y="116.137107"/>
     <use style="stroke:#000000;" x="88.185124" xlink:href="#m75dfb56f45" y="156.426975"/>
     <use style="stroke:#000000;" x="90.565289" xlink:href="#m75dfb56f45" y="118.296984"/>
     <use style="stroke:#000000;" x="92.945455" xlink:href="#m75dfb56f45" y="128.370973"/>
     <use style="stroke:#000000;" x="95.32562" xlink:href="#m75dfb56f45" y="140.323298"/>
     <use style="stroke:#000000;" x="97.705785" xlink:href="#m75dfb56f45" y="135.133609"/>
     <use style="stroke:#000000;" x="100.08595" xlink:href="#m75dfb56f45" y="167.645674"/>
     <use style="stroke:#000000;" x="102.466116" xlink:href="#m75dfb56f45" y="156.167147"/>
     <use style="stroke:#000000;" x="104.846281" xlink:href="#m75dfb56f45" y="170.249997"/>
     <use style="stroke:#000000;" x="107.226446" xlink:href="#m75dfb56f45" y="153.493327"/>
     <use style="stroke:#000000;" x="109.606612" xlink:href="#m75dfb56f45" y="132.679393"/>
     <use style="stroke:#000000;" x="111.986777" xlink:href="#m75dfb56f45" y="150.460773"/>
     <use style="stroke:#000000;" x="114.366942" xlink:href="#m75dfb56f45" y="137.08746"/>
     <use style="stroke:#000000;" x="116.747107" xlink:href="#m75dfb56f45" y="134.340741"/>
     <use style="stroke:#000000;" x="119.127273" xlink:href="#m75dfb56f45" y="128.283508"/>
     <use style="stroke:#000000;" x="121.507438" xlink:href="#m75dfb56f45" y="115.245688"/>
     <use style="stroke:#000000;" x="123.887603" xlink:href="#m75dfb56f45" y="92.500907"/>
     <use style="stroke:#000000;" x="126.267769" xlink:href="#m75dfb56f45" y="104.785722"/>
     <use style="stroke:#000000;" x="128.647934" xlink:href="#m75dfb56f45" y="68.970717"/>
     <use style="stroke:#000000;" x="131.028099" xlink:href="#m75dfb56f45" y="32.440357"/>
     <use style="stroke:#000000;" x="133.408264" xlink:href="#m75dfb56f45" y="43.230023"/>
     <use style="stroke:#000000;" x="135.78843" xlink:href="#m75dfb56f45" y="55.557994"/>
     <use style="stroke:#000000;" x="138.168595" xlink:href="#m75dfb56f45" y="64.58329"/>
     <use style="stroke:#000000;" x="140.54876" xlink:href="#m75dfb56f45" y="58.619706"/>
     <use style="stroke:#000000;" x="142.928926" xlink:href="#m75dfb56f45" y="8.836364"/>
     <use style="stroke:#000000;" x="145.309091" xlink:href="#m75dfb56f45" y="41.411742"/>
     <use style="stroke:#000000;" x="147.689256" xlink:href="#m75dfb56f45" y="56.78577"/>
     <use style="stroke:#000000;" x="150.069421" xlink:href="#m75dfb56f45" y="43.781106"/>
     <use style="stroke:#000000;" x="152.449587" xlink:href="#m75dfb56f45" y="10.863562"/>
     <use style="stroke:#000000;" x="154.829752" xlink:href="#m75dfb56f45" y="56.140293"/>
     <use style="stroke:#000000;" x="157.209917" xlink:href="#m75dfb56f45" y="53.535541"/>
     <use style="stroke:#000000;" x="159.590083" xlink:href="#m75dfb56f45" y="67.873831"/>
     <use style="stroke:#000000;" x="161.970248" xlink:href="#m75dfb56f45" y="89.422003"/>
     <use style="stroke:#000000;" x="164.350413" xlink:href="#m75dfb56f45" y="113.987601"/>
     <use style="stroke:#000000;" x="166.730579" xlink:href="#m75dfb56f45" y="107.24536"/>
     <use style="stroke:#000000;" x="169.110744" xlink:href="#m75dfb56f45" y="113.110713"/>
     <use style="stroke:#000000;" x="171.490909" xlink:href="#m75dfb56f45" y="105.44602"/>
     <use style="stroke:#000000;" x="173.871074" xlink:href="#m75dfb56f45" y="107.67831"/>
     <use style="stroke:#000000;" x="176.25124" xlink:href="#m75dfb56f45" y="112.00458"/>
     <use style="stroke:#000000;" x="178.631405" xlink:href="#m75dfb56f45" y="129.64398"/>
     <use style="stroke:#000000;" x="181.01157" xlink:href="#m75dfb56f45" y="121.245839"/>
     <use style="stroke:#000000;" x="183.391736" xlink:href="#m75dfb56f45" y="155.587846"/>
     <use style="stroke:#000000;" x="185.771901" xlink:href="#m75dfb56f45" y="116.253121"/>
     <use style="stroke:#000000;" x="188.152066" xlink:href="#m75dfb56f45" y="129.65235"/>
     <use style="stroke:#000000;" x="190.532231" xlink:href="#m75dfb56f45" y="142.932954"/>
     <use style="stroke:#000000;" x="192.912397" xlink:href="#m75dfb56f45" y="123.210348"/>
     <use style="stroke:#000000;" x="195.292562" xlink:href="#m75dfb56f45" y="128.927308"/>
     <use style="stroke:#000000;" x="197.672727" xlink:href="#m75dfb56f45" y="98.559125"/>
     <use style="stroke:#000000;" x="200.052893" xlink:href="#m75dfb56f45" y="83.549842"/>
     <use style="stroke:#000000;" x="202.433058" xlink:href="#m75dfb56f45" y="62.482389"/>
     <use style="stroke:#000000;" x="204.813223" xlink:href="#m75dfb56f45" y="125.106622"/>
     <use style="stroke:#000000;" x="207.193388" xlink:href="#m75dfb56f45" y="117.859906"/>
     <use style="stroke:#000000;" x="209.573554" xlink:href="#m75dfb56f45" y="91.39465"/>
     <use style="stroke:#000000;" x="211.953719" xlink:href="#m75dfb56f45" y="70.954518"/>
     <use style="stroke:#000000;" x="214.333884" xlink:href="#m75dfb56f45" y="50.346872"/>
     <use style="stroke:#000000;" x="216.71405" xlink:href="#m75dfb56f45" y="56.07289"/>
     <use style="stroke:#000000;" x="219.094215" xlink:href="#m75dfb56f45" y="98.236023"/>
     <use style="stroke:#000000;" x="221.47438" xlink:href="#m75dfb56f45" y="61.718716"/>
     <use style="stroke:#000000;" x="223.854545" xlink:href="#m75dfb56f45" y="38.284922"/>
     <use style="stroke:#000000;" x="226.234711" xlink:href="#m75dfb56f45" y="50.740871"/>
     <use style="stroke:#000000;" x="228.614876" xlink:href="#m75dfb56f45" y="42.520334"/>
     <use style="stroke:#000000;" x="230.995041" xlink:href="#m75dfb56f45" y="65.894853"/>
     <use style="stroke:#000000;" x="233.375207" xlink:href="#m75dfb56f45" y="70.907808"/>
     <use style="stroke:#000000;" x="235.755372" xlink:href="#m75dfb56f45" y="70.072504"/>
     <use style="stroke:#000000;" x="238.135537" xlink:href="#m75dfb56f45" y="73.671388"/>
     <use style="stroke:#000000;" x="240.515702" xlink:href="#m75dfb56f45" y="86.844449"/>
     <use style="stroke:#000000;" x="242.895868" xlink:href="#m75dfb56f45" y="98.111226"/>
     <use style="stroke:#000000;" x="245.276033" xlink:href="#m75dfb56f45" y="123.855072"/>
     <use style="stroke:#000000;" x="247.656198" xlink:href="#m75dfb56f45" y="113.403371"/>
     <use style="stroke:#000000;" x="250.036364" xlink:href="#m75dfb56f45" y="128.573901"/>
     <use style="stroke:#000000;" x="252.416529" xlink:href="#m75dfb56f45" y="118.318524"/>
     <use style="stroke:#000000;" x="254.796694" xlink:href="#m75dfb56f45" y="125.887949"/>
     <use style="stroke:#000000;" x="257.17686" xlink:href="#m75dfb56f45" y="153.897017"/>
     <use style="stroke:#000000;" x="259.557025" xlink:href="#m75dfb56f45" y="171.750355"/>
     <use style="stroke:#000000;" x="261.93719" xlink:href="#m75dfb56f45" y="182.359969"/>
     <use style="stroke:#000000;" x="264.317355" xlink:href="#m75dfb56f45" y="165.256151"/>
     <use style="stroke:#000000;" x="266.697521" xlink:href="#m75dfb56f45" y="174.40841"/>
     <use style="stroke:#000000;" x="269.077686" xlink:href="#m75dfb56f45" y="183.426629"/>
     <use style="stroke:#000000;" x="271.457851" xlink:href="#m75dfb56f45" y="174.864107"/>
     <use style="stroke:#000000;" x="273.838017" xlink:href="#m75dfb56f45" y="185.563636"/>
     <use style="stroke:#000000;" x="276.218182" xlink:href="#m75dfb56f45" y="155.696016"/>
    </g>
   </g>
   <g id="matplotlib.axis_1">
    <g id="text_1">
     <!-- x -->
     <defs>
      <path d="M 22.21875 27.984375 
L 2.484375 54.6875 
L 21 54.6875 
L 32.171875 38.484375 
L 43.5 54.6875 
L 62.015625 54.6875 
L 42.28125 28.078125 
L 62.984375 0 
L 44.484375 0 
L 32.171875 17.28125 
L 20.015625 0 
L 1.515625 0 
z
" id="DejaVuSans-Bold-120"/>
     </defs>
     <g transform="translate(151.305 215.116562)scale(0.22 -0.22)">
      <use xlink:href="#DejaVuSans-Bold-120"/>
     </g>
    </g>
   </g>
   <g id="matplotlib.axis_2">
    <g id="text_2">
     <!-- y -->
     <defs>
      <path d="M 1.21875 54.6875 
L 18.703125 54.6875 
L 33.40625 17.578125 
L 45.90625 54.6875 
L 63.375 54.6875 
L 40.375 -5.171875 
Q 36.921875 -14.3125 32.296875 -17.9375 
Q 27.6875 -21.578125 20.125 -21.578125 
L 10.015625 -21.578125 
L 10.015625 -10.109375 
L 15.484375 -10.109375 
Q 19.921875 -10.109375 21.9375 -8.6875 
Q 23.96875 -7.28125 25.09375 -3.609375 
L 25.59375 -2.09375 
z
" id="DejaVuSans-Bold-121"/>
     </defs>
     <g transform="translate(20.052813 104.370625)rotate(-90)scale(0.22 -0.22)">
      <use xlink:href="#DejaVuSans-Bold-121"/>
     </g>
    </g>
   </g>
   <g id="line2d_1">
    <path clip-path="url(#pbbbed61273)" d="M 40.581818 116.111739 
L 42.961983 126.581476 
L 45.342149 129.650166 
L 47.722314 125.424588 
L 50.102479 97.729235 
L 52.482645 123.619581 
L 54.86281 81.231878 
L 57.242975 86.304341 
L 59.62314 79.238834 
L 62.003306 77.665037 
L 64.383471 64.557131 
L 66.763636 97.906803 
L 69.143802 92.897788 
L 71.523967 89.571789 
L 73.904132 82.883389 
L 76.284298 108.308007 
L 78.664463 114.708526 
L 81.044628 124.820191 
L 83.424793 119.146187 
L 85.804959 120.007996 
L 88.185124 145.135087 
L 90.565289 129.714444 
L 92.945455 132.233105 
L 95.32562 136.511367 
L 97.705785 142.327139 
L 100.08595 157.034103 
L 102.466116 159.97695 
L 104.846281 164.301399 
L 107.226446 149.965964 
L 109.606612 141.281554 
L 111.986777 145.384755 
L 114.366942 139.966905 
L 116.747107 132.661986 
L 119.127273 128.194701 
L 121.507438 116.492906 
L 123.887603 99.459611 
L 126.267769 95.298329 
L 128.647934 73.525874 
L 131.028099 42.415736 
L 133.408264 41.821559 
L 135.78843 56.644354 
L 138.168595 60.934595 
L 140.54876 55.436528 
L 142.928926 28.136315 
L 145.309091 42.952751 
L 147.689256 49.669507 
L 150.069421 43.905145 
L 152.449587 24.946192 
L 154.829752 53.037068 
L 157.209917 56.397842 
L 159.590083 68.256242 
L 161.970248 84.984777 
L 164.350413 109.723628 
L 166.730579 109.11441 
L 169.110744 110.520634 
L 171.490909 107.745305 
L 173.871074 109.190467 
L 176.25124 112.660638 
L 178.631405 123.413908 
L 181.01157 125.998778 
L 183.391736 141.925629 
L 185.771901 128.864143 
L 188.152066 127.886481 
L 190.532231 137.232309 
L 192.912397 125.108574 
L 195.292562 121.39567 
L 197.672727 104.689492 
L 200.052893 86.821443 
L 202.433058 71.740529 
L 204.813223 106.721466 
L 207.193388 116.785623 
L 209.573554 88.689246 
L 211.953719 74.838921 
L 214.333884 57.857927 
L 216.71405 61.252334 
L 219.094215 84.720954 
L 221.47438 68.917558 
L 223.854545 47.551359 
L 226.234711 48.013186 
L 228.614876 50.280906 
L 230.995041 61.61271 
L 233.375207 68.798594 
L 235.755372 70.882395 
L 238.135537 74.071205 
L 240.515702 83.690373 
L 242.895868 96.061761 
L 245.276033 116.748105 
L 247.656198 119.605169 
L 250.036364 124.416248 
L 252.416529 122.483123 
L 254.796694 126.41874 
L 257.17686 145.451568 
L 259.557025 167.798252 
L 261.93719 177.494586 
L 264.317355 170.430344 
L 266.697521 175.432332 
L 269.077686 180.117057 
L 271.457851 176.404786 
L 273.838017 178.838699 
L 276.218182 165.188832 
" style="fill:none;stroke:#1f77b4;stroke-linecap:square;stroke-width:3;"/>
   </g>
   <g id="patch_3">
    <path d="M 28.8 194.4 
L 28.8 0 
" style="fill:none;stroke:#000000;stroke-linecap:square;stroke-linejoin:miter;stroke-width:0.8;"/>
   </g>
   <g id="patch_4">
    <path d="M 28.8 194.4 
L 288 194.4 
" style="fill:none;stroke:#000000;stroke-linecap:square;stroke-linejoin:miter;stroke-width:0.8;"/>
   </g>
  </g>
 </g>
 <defs>
  <clipPath id="pbbbed61273">
   <rect height="194.4" width="259.2" x="28.8" y="0"/>
  </clipPath>
 </defs>
</svg>
