<?xml version="1.0" encoding="utf-8" standalone="no"?>
<!DOCTYPE svg PUBLIC "-//W3C//DTD SVG 1.1//EN"
  "http://www.w3.org/Graphics/SVG/1.1/DTD/svg11.dtd">
<svg xmlns:xlink="http://www.w3.org/1999/xlink" width="375.6672pt" height="325.18365pt" viewBox="0 0 375.6672 325.18365" xmlns="http://www.w3.org/2000/svg" version="1.1">
 <metadata>
  <rdf:RDF xmlns:dc="http://purl.org/dc/elements/1.1/" xmlns:cc="http://creativecommons.org/ns#" xmlns:rdf="http://www.w3.org/1999/02/22-rdf-syntax-ns#">
   <cc:Work>
    <dc:type rdf:resource="http://purl.org/dc/dcmitype/StillImage"/>
    <dc:date>2025-06-11T15:44:33.638773</dc:date>
    <dc:format>image/svg+xml</dc:format>
    <dc:creator>
     <cc:Agent>
      <dc:title>Matplotlib v3.10.1, https://matplotlib.org/</dc:title>
     </cc:Agent>
    </dc:creator>
   </cc:Work>
  </rdf:RDF>
 </metadata>
 <defs>
  <style type="text/css">*{stroke-linejoin: round; stroke-linecap: butt}</style>
 </defs>
 <g id="figure_1">
  <g id="patch_1">
   <path d="M 0 325.18365 
L 375.6672 325.18365 
L 375.6672 0 
L 0 0 
L 0 325.18365 
z
" style="fill: none"/>
  </g>
  <g id="axes_1">
   <g id="patch_2">
    <path d="M 7.2 317.98365 
L 368.4672 317.98365 
L 368.4672 47.03325 
L 7.2 47.03325 
L 7.2 317.98365 
z
" style="fill: none"/>
   </g>
   <g id="PathCollection_1">
    <defs>
     <path id="C0_0_7bea2db2af" d="M 0 2.738613 
C 0.726289 2.738613 1.422928 2.450055 1.936492 1.936492 
C 2.450055 1.422928 2.738613 0.726289 2.738613 -0 
C 2.738613 -0.726289 2.450055 -1.422928 1.936492 -1.936492 
C 1.422928 -2.450055 0.726289 -2.738613 0 -2.738613 
C -0.726289 -2.738613 -1.422928 -2.450055 -1.936492 -1.936492 
C -2.450055 -1.422928 -2.738613 -0.726289 -2.738613 0 
C -2.738613 0.726289 -2.450055 1.422928 -1.936492 1.936492 
C -1.422928 2.450055 -0.726289 2.738613 0 2.738613 
z
"/>
    </defs>
    <g clip-path="url(#pd7d9927484)">
     <use xlink:href="#C0_0_7bea2db2af" x="209.99407" y="194.624118" style="fill: #21918c; stroke: #000000; stroke-width: 1.5"/>
    </g>
    <g clip-path="url(#pd7d9927484)">
     <use xlink:href="#C0_0_7bea2db2af" x="206.128872" y="192.42127" style="fill: #21918c; stroke: #000000; stroke-width: 1.5"/>
    </g>
    <g clip-path="url(#pd7d9927484)">
     <use xlink:href="#C0_0_7bea2db2af" x="240.915656" y="196.826967" style="fill: #21918c; stroke: #000000; stroke-width: 1.5"/>
    </g>
    <g clip-path="url(#pd7d9927484)">
     <use xlink:href="#C0_0_7bea2db2af" x="316.931223" y="234.275396" style="fill: #21918c; stroke: #000000; stroke-width: 1.5"/>
    </g>
    <g clip-path="url(#pd7d9927484)">
     <use xlink:href="#C0_0_7bea2db2af" x="124.959708" y="194.624118" style="fill: #fde725; stroke: #000000; stroke-width: 1.5"/>
    </g>
    <g clip-path="url(#pd7d9927484)">
     <use xlink:href="#C0_0_7bea2db2af" x="309.200826" y="192.42127" style="fill: #21918c; stroke: #000000; stroke-width: 1.5"/>
    </g>
    <g clip-path="url(#pd7d9927484)">
     <use xlink:href="#C0_0_7bea2db2af" x="267.972045" y="199.029816" style="fill: #21918c; stroke: #000000; stroke-width: 1.5"/>
    </g>
    <g clip-path="url(#pd7d9927484)">
     <use xlink:href="#C0_0_7bea2db2af" x="269.260444" y="190.218421" style="fill: #21918c; stroke: #000000; stroke-width: 1.5"/>
    </g>
    <g clip-path="url(#pd7d9927484)">
     <use xlink:href="#C0_0_7bea2db2af" x="204.840472" y="185.812723" style="fill: #21918c; stroke: #000000; stroke-width: 1.5"/>
    </g>
    <g clip-path="url(#pd7d9927484)">
     <use xlink:href="#C0_0_7bea2db2af" x="204.840472" y="201.232665" style="fill: #21918c; stroke: #000000; stroke-width: 1.5"/>
    </g>
    <g clip-path="url(#pd7d9927484)">
     <use xlink:href="#C0_0_7bea2db2af" x="324.661619" y="148.364294" style="fill: #21918c; stroke: #000000; stroke-width: 1.5"/>
    </g>
    <g clip-path="url(#pd7d9927484)">
     <use xlink:href="#C0_0_7bea2db2af" x="265.395246" y="165.987084" style="fill: #21918c; stroke: #000000; stroke-width: 1.5"/>
    </g>
    <g clip-path="url(#pd7d9927484)">
     <use xlink:href="#C0_0_7bea2db2af" x="275.702441" y="170.392782" style="fill: #21918c; stroke: #000000; stroke-width: 1.5"/>
    </g>
    <g clip-path="url(#pd7d9927484)">
     <use xlink:href="#C0_0_7bea2db2af" x="231.89686" y="148.364294" style="fill: #21918c; stroke: #000000; stroke-width: 1.5"/>
    </g>
    <g clip-path="url(#pd7d9927484)">
     <use xlink:href="#C0_0_7bea2db2af" x="334.195775" y="159.378538" style="fill: #21918c; stroke: #000000; stroke-width: 1.5"/>
    </g>
    <g clip-path="url(#pd7d9927484)">
     <use xlink:href="#C0_0_7bea2db2af" x="273.125642" y="141.755748" style="fill: #21918c; stroke: #000000; stroke-width: 1.5"/>
    </g>
    <g clip-path="url(#pd7d9927484)">
     <use xlink:href="#C0_0_7bea2db2af" x="265.395246" y="188.015572" style="fill: #21918c; stroke: #000000; stroke-width: 1.5"/>
    </g>
    <g clip-path="url(#pd7d9927484)">
     <use xlink:href="#C0_0_7bea2db2af" x="226.743263" y="174.798479" style="fill: #21918c; stroke: #000000; stroke-width: 1.5"/>
    </g>
    <g clip-path="url(#pd7d9927484)">
     <use xlink:href="#C0_0_7bea2db2af" x="368.4672" y="152.769991" style="fill: #21918c; stroke: #000000; stroke-width: 1.5"/>
    </g>
    <g clip-path="url(#pd7d9927484)">
     <use xlink:href="#C0_0_7bea2db2af" x="153.304495" y="212.246909" style="fill: #21918c; stroke: #000000; stroke-width: 1.5"/>
    </g>
    <g clip-path="url(#pd7d9927484)">
     <use xlink:href="#C0_0_7bea2db2af" x="136.555303" y="183.609874" style="fill: #fde725; stroke: #000000; stroke-width: 1.5"/>
    </g>
    <g clip-path="url(#pd7d9927484)">
     <use xlink:href="#C0_0_7bea2db2af" x="133.978504" y="196.826967" style="fill: #fde725; stroke: #000000; stroke-width: 1.5"/>
    </g>
    <g clip-path="url(#pd7d9927484)">
     <use xlink:href="#C0_0_7bea2db2af" x="202.263674" y="179.204177" style="fill: #21918c; stroke: #000000; stroke-width: 1.5"/>
    </g>
    <g clip-path="url(#pd7d9927484)">
     <use xlink:href="#C0_0_7bea2db2af" x="197.110076" y="183.609874" style="fill: #21918c; stroke: #000000; stroke-width: 1.5"/>
    </g>
    <g clip-path="url(#pd7d9927484)">
     <use xlink:href="#C0_0_7bea2db2af" x="153.304495" y="177.001328" style="fill: #fde725; stroke: #000000; stroke-width: 1.5"/>
    </g>
    <g clip-path="url(#pd7d9927484)">
     <use xlink:href="#C0_0_7bea2db2af" x="149.439297" y="174.798479" style="fill: #fde725; stroke: #000000; stroke-width: 1.5"/>
    </g>
    <g clip-path="url(#pd7d9927484)">
     <use xlink:href="#C0_0_7bea2db2af" x="243.492455" y="221.058304" style="fill: #21918c; stroke: #000000; stroke-width: 1.5"/>
    </g>
    <g clip-path="url(#pd7d9927484)">
     <use xlink:href="#C0_0_7bea2db2af" x="266.683645" y="199.029816" style="fill: #21918c; stroke: #000000; stroke-width: 1.5"/>
    </g>
    <g clip-path="url(#pd7d9927484)">
     <use xlink:href="#C0_0_7bea2db2af" x="171.342087" y="148.364294" style="fill: #21918c; stroke: #000000; stroke-width: 1.5"/>
    </g>
    <g clip-path="url(#pd7d9927484)">
     <use xlink:href="#C0_0_7bea2db2af" x="202.263674" y="194.624118" style="fill: #21918c; stroke: #000000; stroke-width: 1.5"/>
    </g>
    <g clip-path="url(#pd7d9927484)">
     <use xlink:href="#C0_0_7bea2db2af" x="266.683645" y="161.581387" style="fill: #21918c; stroke: #000000; stroke-width: 1.5"/>
    </g>
    <g clip-path="url(#pd7d9927484)">
     <use xlink:href="#C0_0_7bea2db2af" x="325.950019" y="183.609874" style="fill: #21918c; stroke: #000000; stroke-width: 1.5"/>
    </g>
    <g clip-path="url(#pd7d9927484)">
     <use xlink:href="#C0_0_7bea2db2af" x="190.668079" y="152.769991" style="fill: #21918c; stroke: #000000; stroke-width: 1.5"/>
    </g>
    <g clip-path="url(#pd7d9927484)">
     <use xlink:href="#C0_0_7bea2db2af" x="253.799651" y="148.364294" style="fill: #21918c; stroke: #000000; stroke-width: 1.5"/>
    </g>
    <g clip-path="url(#pd7d9927484)">
     <use xlink:href="#C0_0_7bea2db2af" x="217.724467" y="181.407026" style="fill: #21918c; stroke: #000000; stroke-width: 1.5"/>
    </g>
    <g clip-path="url(#pd7d9927484)">
     <use xlink:href="#C0_0_7bea2db2af" x="172.630487" y="194.624118" style="fill: #21918c; stroke: #000000; stroke-width: 1.5"/>
    </g>
    <g clip-path="url(#pd7d9927484)">
     <use xlink:href="#C0_0_7bea2db2af" x="162.323291" y="183.609874" style="fill: #21918c; stroke: #000000; stroke-width: 1.5"/>
    </g>
    <g clip-path="url(#pd7d9927484)">
     <use xlink:href="#C0_0_7bea2db2af" x="220.301266" y="177.001328" style="fill: #21918c; stroke: #000000; stroke-width: 1.5"/>
    </g>
    <g clip-path="url(#pd7d9927484)">
     <use xlink:href="#C0_0_7bea2db2af" x="198.398475" y="163.784235" style="fill: #21918c; stroke: #000000; stroke-width: 1.5"/>
    </g>
    <g clip-path="url(#pd7d9927484)">
     <use xlink:href="#C0_0_7bea2db2af" x="131.401705" y="227.66685" style="fill: #440154; stroke: #000000; stroke-width: 1.5"/>
    </g>
    <g clip-path="url(#pd7d9927484)">
     <use xlink:href="#C0_0_7bea2db2af" x="140.420501" y="214.449757" style="fill: #fde725; stroke: #000000; stroke-width: 1.5"/>
    </g>
    <g clip-path="url(#pd7d9927484)">
     <use xlink:href="#C0_0_7bea2db2af" x="202.263674" y="223.261152" style="fill: #21918c; stroke: #000000; stroke-width: 1.5"/>
    </g>
    <g clip-path="url(#pd7d9927484)">
     <use xlink:href="#C0_0_7bea2db2af" x="217.724467" y="229.869699" style="fill: #21918c; stroke: #000000; stroke-width: 1.5"/>
    </g>
    <g clip-path="url(#pd7d9927484)">
     <use xlink:href="#C0_0_7bea2db2af" x="110.787314" y="243.086791" style="fill: #440154; stroke: #000000; stroke-width: 1.5"/>
    </g>
    <g clip-path="url(#pd7d9927484)">
     <use xlink:href="#C0_0_7bea2db2af" x="163.611691" y="229.869699" style="fill: #440154; stroke: #000000; stroke-width: 1.5"/>
    </g>
    <g clip-path="url(#pd7d9927484)">
     <use xlink:href="#C0_0_7bea2db2af" x="213.859268" y="232.072548" style="fill: #21918c; stroke: #000000; stroke-width: 1.5"/>
    </g>
    <g clip-path="url(#pd7d9927484)">
     <use xlink:href="#C0_0_7bea2db2af" x="209.99407" y="194.624118" style="fill: #21918c; stroke: #000000; stroke-width: 1.5"/>
    </g>
    <g clip-path="url(#pd7d9927484)">
     <use xlink:href="#C0_0_7bea2db2af" x="189.379679" y="223.261152" style="fill: #21918c; stroke: #000000; stroke-width: 1.5"/>
    </g>
    <g clip-path="url(#pd7d9927484)">
     <use xlink:href="#C0_0_7bea2db2af" x="208.705671" y="188.015572" style="fill: #21918c; stroke: #000000; stroke-width: 1.5"/>
    </g>
    <g clip-path="url(#pd7d9927484)">
     <use xlink:href="#C0_0_7bea2db2af" x="260.241648" y="177.001328" style="fill: #21918c; stroke: #000000; stroke-width: 1.5"/>
    </g>
    <g clip-path="url(#pd7d9927484)">
     <use xlink:href="#C0_0_7bea2db2af" x="231.89686" y="177.001328" style="fill: #21918c; stroke: #000000; stroke-width: 1.5"/>
    </g>
    <g clip-path="url(#pd7d9927484)">
     <use xlink:href="#C0_0_7bea2db2af" x="261.530047" y="150.567143" style="fill: #21918c; stroke: #000000; stroke-width: 1.5"/>
    </g>
    <g clip-path="url(#pd7d9927484)">
     <use xlink:href="#C0_0_7bea2db2af" x="242.204056" y="201.232665" style="fill: #21918c; stroke: #000000; stroke-width: 1.5"/>
    </g>
    <g clip-path="url(#pd7d9927484)">
     <use xlink:href="#C0_0_7bea2db2af" x="289.874835" y="174.798479" style="fill: #21918c; stroke: #000000; stroke-width: 1.5"/>
    </g>
    <g clip-path="url(#pd7d9927484)">
     <use xlink:href="#C0_0_7bea2db2af" x="208.705671" y="221.058304" style="fill: #21918c; stroke: #000000; stroke-width: 1.5"/>
    </g>
    <g clip-path="url(#pd7d9927484)">
     <use xlink:href="#C0_0_7bea2db2af" x="224.166464" y="207.841211" style="fill: #21918c; stroke: #000000; stroke-width: 1.5"/>
    </g>
    <g clip-path="url(#pd7d9927484)">
     <use xlink:href="#C0_0_7bea2db2af" x="185.514481" y="216.652606" style="fill: #21918c; stroke: #000000; stroke-width: 1.5"/>
    </g>
    <g clip-path="url(#pd7d9927484)">
     <use xlink:href="#C0_0_7bea2db2af" x="262.818447" y="188.015572" style="fill: #21918c; stroke: #000000; stroke-width: 1.5"/>
    </g>
    <g clip-path="url(#pd7d9927484)">
     <use xlink:href="#C0_0_7bea2db2af" x="266.683645" y="227.66685" style="fill: #21918c; stroke: #000000; stroke-width: 1.5"/>
    </g>
    <g clip-path="url(#pd7d9927484)">
     <use xlink:href="#C0_0_7bea2db2af" x="69.558532" y="192.42127" style="fill: #fde725; stroke: #000000; stroke-width: 1.5"/>
    </g>
    <g clip-path="url(#pd7d9927484)">
     <use xlink:href="#C0_0_7bea2db2af" x="110.787314" y="148.364294" style="fill: #fde725; stroke: #000000; stroke-width: 1.5"/>
    </g>
    <g clip-path="url(#pd7d9927484)">
     <use xlink:href="#C0_0_7bea2db2af" x="51.52094" y="207.841211" style="fill: #fde725; stroke: #000000; stroke-width: 1.5"/>
    </g>
    <g clip-path="url(#pd7d9927484)">
     <use xlink:href="#C0_0_7bea2db2af" x="97.90332" y="152.769991" style="fill: #fde725; stroke: #000000; stroke-width: 1.5"/>
    </g>
    <g clip-path="url(#pd7d9927484)">
     <use xlink:href="#C0_0_7bea2db2af" x="43.790544" y="154.97284" style="fill: #fde725; stroke: #000000; stroke-width: 1.5"/>
    </g>
    <g clip-path="url(#pd7d9927484)">
     <use xlink:href="#C0_0_7bea2db2af" x="27.041351" y="104.307318" style="fill: #fde725; stroke: #000000; stroke-width: 1.5"/>
    </g>
    <g clip-path="url(#pd7d9927484)">
     <use xlink:href="#C0_0_7bea2db2af" x="110.271954" y="161.581387" style="fill: #fde725; stroke: #000000; stroke-width: 1.5"/>
    </g>
    <g clip-path="url(#pd7d9927484)">
     <use xlink:href="#C0_0_7bea2db2af" x="64.920294" y="177.001328" style="fill: #fde725; stroke: #000000; stroke-width: 1.5"/>
    </g>
    <g clip-path="url(#pd7d9927484)">
     <use xlink:href="#C0_0_7bea2db2af" x="66.981734" y="177.001328" style="fill: #fde725; stroke: #000000; stroke-width: 1.5"/>
    </g>
    <g clip-path="url(#pd7d9927484)">
     <use xlink:href="#C0_0_7bea2db2af" x="128.824906" y="199.029816" style="fill: #fde725; stroke: #000000; stroke-width: 1.5"/>
    </g>
    <g clip-path="url(#pd7d9927484)">
     <use xlink:href="#C0_0_7bea2db2af" x="120.57915" y="141.755748" style="fill: #fde725; stroke: #000000; stroke-width: 1.5"/>
    </g>
    <g clip-path="url(#pd7d9927484)">
     <use xlink:href="#C0_0_7bea2db2af" x="159.746492" y="224.142292" style="fill: #21918c; stroke: #000000; stroke-width: 1.5"/>
    </g>
    <g clip-path="url(#pd7d9927484)">
     <use xlink:href="#C0_0_7bea2db2af" x="41.213745" y="124.132957" style="fill: #fde725; stroke: #000000; stroke-width: 1.5"/>
    </g>
    <g clip-path="url(#pd7d9927484)">
     <use xlink:href="#C0_0_7bea2db2af" x="57.189898" y="207.841211" style="fill: #fde725; stroke: #000000; stroke-width: 1.5"/>
    </g>
    <g clip-path="url(#pd7d9927484)">
     <use xlink:href="#C0_0_7bea2db2af" x="189.379679" y="135.147201" style="fill: #21918c; stroke: #000000; stroke-width: 1.5"/>
    </g>
    <g clip-path="url(#pd7d9927484)">
     <use xlink:href="#C0_0_7bea2db2af" x="163.869371" y="205.638362" style="fill: #21918c; stroke: #000000; stroke-width: 1.5"/>
    </g>
    <g clip-path="url(#pd7d9927484)">
     <use xlink:href="#C0_0_7bea2db2af" x="45.851983" y="152.769991" style="fill: #fde725; stroke: #000000; stroke-width: 1.5"/>
    </g>
    <g clip-path="url(#pd7d9927484)">
     <use xlink:href="#C0_0_7bea2db2af" x="36.575507" y="161.581387" style="fill: #fde725; stroke: #000000; stroke-width: 1.5"/>
    </g>
    <g clip-path="url(#pd7d9927484)">
     <use xlink:href="#C0_0_7bea2db2af" x="64.404935" y="212.246909" style="fill: #fde725; stroke: #000000; stroke-width: 1.5"/>
    </g>
    <g clip-path="url(#pd7d9927484)">
     <use xlink:href="#C0_0_7bea2db2af" x="128.824906" y="190.218421" style="fill: #fde725; stroke: #000000; stroke-width: 1.5"/>
    </g>
    <g clip-path="url(#pd7d9927484)">
     <use xlink:href="#C0_0_7bea2db2af" x="54.870779" y="161.581387" style="fill: #fde725; stroke: #000000; stroke-width: 1.5"/>
    </g>
    <g clip-path="url(#pd7d9927484)">
     <use xlink:href="#C0_0_7bea2db2af" x="7.2" y="119.72726" style="fill: #fde725; stroke: #000000; stroke-width: 1.5"/>
    </g>
    <g clip-path="url(#pd7d9927484)">
     <use xlink:href="#C0_0_7bea2db2af" x="119.54843" y="168.189933" style="fill: #fde725; stroke: #000000; stroke-width: 1.5"/>
    </g>
    <g clip-path="url(#pd7d9927484)">
     <use xlink:href="#C0_0_7bea2db2af" x="97.90332" y="135.147201" style="fill: #fde725; stroke: #000000; stroke-width: 1.5"/>
    </g>
    <g clip-path="url(#pd7d9927484)">
     <use xlink:href="#C0_0_7bea2db2af" x="68.270133" y="238.681094" style="fill: #440154; stroke: #000000; stroke-width: 1.5"/>
    </g>
    <g clip-path="url(#pd7d9927484)">
     <use xlink:href="#C0_0_7bea2db2af" x="69.558532" y="249.695338" style="fill: #440154; stroke: #000000; stroke-width: 1.5"/>
    </g>
    <g clip-path="url(#pd7d9927484)">
     <use xlink:href="#C0_0_7bea2db2af" x="51.52094" y="152.769991" style="fill: #fde725; stroke: #000000; stroke-width: 1.5"/>
    </g>
    <g clip-path="url(#pd7d9927484)">
     <use xlink:href="#C0_0_7bea2db2af" x="63.116535" y="130.741504" style="fill: #fde725; stroke: #000000; stroke-width: 1.5"/>
    </g>
    <g clip-path="url(#pd7d9927484)">
     <use xlink:href="#C0_0_7bea2db2af" x="80.381088" y="124.132957" style="fill: #fde725; stroke: #000000; stroke-width: 1.5"/>
    </g>
    <g clip-path="url(#pd7d9927484)">
     <use xlink:href="#C0_0_7bea2db2af" x="110.787314" y="203.435513" style="fill: #fde725; stroke: #000000; stroke-width: 1.5"/>
    </g>
    <g clip-path="url(#pd7d9927484)">
     <use xlink:href="#C0_0_7bea2db2af" x="96.61492" y="188.015572" style="fill: #fde725; stroke: #000000; stroke-width: 1.5"/>
    </g>
    <g clip-path="url(#pd7d9927484)">
     <use xlink:href="#C0_0_7bea2db2af" x="59.251337" y="185.812723" style="fill: #fde725; stroke: #000000; stroke-width: 1.5"/>
    </g>
    <g clip-path="url(#pd7d9927484)">
     <use xlink:href="#C0_0_7bea2db2af" x="51.52094" y="192.42127" style="fill: #fde725; stroke: #000000; stroke-width: 1.5"/>
    </g>
    <g clip-path="url(#pd7d9927484)">
     <use xlink:href="#C0_0_7bea2db2af" x="63.116535" y="212.246909" style="fill: #fde725; stroke: #000000; stroke-width: 1.5"/>
    </g>
    <g clip-path="url(#pd7d9927484)">
     <use xlink:href="#C0_0_7bea2db2af" x="10.292159" y="170.392782" style="fill: #fde725; stroke: #000000; stroke-width: 1.5"/>
    </g>
    <g clip-path="url(#pd7d9927484)">
     <use xlink:href="#C0_0_7bea2db2af" x="24.464552" y="168.189933" style="fill: #fde725; stroke: #000000; stroke-width: 1.5"/>
    </g>
    <g clip-path="url(#pd7d9927484)">
     <use xlink:href="#C0_0_7bea2db2af" x="177.011045" y="168.189933" style="fill: #21918c; stroke: #000000; stroke-width: 1.5"/>
    </g>
    <g clip-path="url(#pd7d9927484)">
     <use xlink:href="#C0_0_7bea2db2af" x="96.61492" y="214.449757" style="fill: #fde725; stroke: #000000; stroke-width: 1.5"/>
    </g>
    <g clip-path="url(#pd7d9927484)">
     <use xlink:href="#C0_0_7bea2db2af" x="45.851983" y="152.769991" style="fill: #fde725; stroke: #000000; stroke-width: 1.5"/>
    </g>
    <g clip-path="url(#pd7d9927484)">
     <use xlink:href="#C0_0_7bea2db2af" x="105.633716" y="194.624118" style="fill: #fde725; stroke: #000000; stroke-width: 1.5"/>
    </g>
    <g clip-path="url(#pd7d9927484)">
     <use xlink:href="#C0_0_7bea2db2af" x="40.183025" y="110.915865" style="fill: #fde725; stroke: #000000; stroke-width: 1.5"/>
    </g>
    <g clip-path="url(#pd7d9927484)">
     <use xlink:href="#C0_0_7bea2db2af" x="118.517711" y="143.958596" style="fill: #fde725; stroke: #000000; stroke-width: 1.5"/>
    </g>
    <g clip-path="url(#pd7d9927484)">
     <use xlink:href="#C0_0_7bea2db2af" x="80.381088" y="194.624118" style="fill: #fde725; stroke: #000000; stroke-width: 1.5"/>
    </g>
    <g clip-path="url(#pd7d9927484)">
     <use xlink:href="#C0_0_7bea2db2af" x="48.428782" y="247.492489" style="fill: #440154; stroke: #000000; stroke-width: 1.5"/>
    </g>
    <g clip-path="url(#pd7d9927484)">
     <use xlink:href="#C0_0_7bea2db2af" x="42.502144" y="216.652606" style="fill: #fde725; stroke: #000000; stroke-width: 1.5"/>
    </g>
    <g clip-path="url(#pd7d9927484)">
     <use xlink:href="#C0_0_7bea2db2af" x="108.725875" y="194.624118" style="fill: #fde725; stroke: #000000; stroke-width: 1.5"/>
    </g>
    <g clip-path="url(#pd7d9927484)">
     <use xlink:href="#C0_0_7bea2db2af" x="16.734156" y="234.275396" style="fill: #440154; stroke: #000000; stroke-width: 1.5"/>
    </g>
    <g clip-path="url(#pd7d9927484)">
     <use xlink:href="#C0_0_7bea2db2af" x="66.981734" y="203.435513" style="fill: #fde725; stroke: #000000; stroke-width: 1.5"/>
    </g>
    <g clip-path="url(#pd7d9927484)">
     <use xlink:href="#C0_0_7bea2db2af" x="61.312776" y="229.869699" style="fill: #440154; stroke: #000000; stroke-width: 1.5"/>
    </g>
    <g clip-path="url(#pd7d9927484)">
     <use xlink:href="#C0_0_7bea2db2af" x="15.961116" y="234.275396" style="fill: #440154; stroke: #000000; stroke-width: 1.5"/>
    </g>
    <g clip-path="url(#pd7d9927484)">
     <use xlink:href="#C0_0_7bea2db2af" x="110.787314" y="212.246909" style="fill: #fde725; stroke: #000000; stroke-width: 1.5"/>
    </g>
    <g clip-path="url(#pd7d9927484)">
     <use xlink:href="#C0_0_7bea2db2af" x="80.381088" y="258.506733" style="fill: #440154; stroke: #000000; stroke-width: 1.5"/>
    </g>
    <g clip-path="url(#pd7d9927484)">
     <use xlink:href="#C0_0_7bea2db2af" x="19.310955" y="225.464001" style="fill: #440154; stroke: #000000; stroke-width: 1.5"/>
    </g>
    <g clip-path="url(#pd7d9927484)">
     <use xlink:href="#C0_0_7bea2db2af" x="91.976682" y="152.769991" style="fill: #fde725; stroke: #000000; stroke-width: 1.5"/>
    </g>
    <g clip-path="url(#pd7d9927484)">
     <use xlink:href="#C0_0_7bea2db2af" x="47.398062" y="181.407026" style="fill: #fde725; stroke: #000000; stroke-width: 1.5"/>
    </g>
    <g clip-path="url(#pd7d9927484)">
     <use xlink:href="#C0_0_7bea2db2af" x="34.771748" y="218.855455" style="fill: #fde725; stroke: #000000; stroke-width: 1.5"/>
    </g>
    <g clip-path="url(#pd7d9927484)">
     <use xlink:href="#C0_0_7bea2db2af" x="40.440705" y="47.03325" style="fill: #fde725; stroke: #000000; stroke-width: 1.5"/>
    </g>
    <g clip-path="url(#pd7d9927484)">
     <use xlink:href="#C0_0_7bea2db2af" x="63.116535" y="214.449757" style="fill: #fde725; stroke: #000000; stroke-width: 1.5"/>
    </g>
    <g clip-path="url(#pd7d9927484)">
     <use xlink:href="#C0_0_7bea2db2af" x="24.464552" y="190.218421" style="fill: #fde725; stroke: #000000; stroke-width: 1.5"/>
    </g>
    <g clip-path="url(#pd7d9927484)">
     <use xlink:href="#C0_0_7bea2db2af" x="31.421909" y="269.520977" style="fill: #440154; stroke: #000000; stroke-width: 1.5"/>
    </g>
    <g clip-path="url(#pd7d9927484)">
     <use xlink:href="#C0_0_7bea2db2af" x="80.896447" y="218.855455" style="fill: #fde725; stroke: #000000; stroke-width: 1.5"/>
    </g>
    <g clip-path="url(#pd7d9927484)">
     <use xlink:href="#C0_0_7bea2db2af" x="96.61492" y="247.492489" style="fill: #440154; stroke: #000000; stroke-width: 1.5"/>
    </g>
    <g clip-path="url(#pd7d9927484)">
     <use xlink:href="#C0_0_7bea2db2af" x="55.386139" y="218.855455" style="fill: #fde725; stroke: #000000; stroke-width: 1.5"/>
    </g>
    <g clip-path="url(#pd7d9927484)">
     <use xlink:href="#C0_0_7bea2db2af" x="29.61815" y="221.058304" style="fill: #fde725; stroke: #000000; stroke-width: 1.5"/>
    </g>
    <g clip-path="url(#pd7d9927484)">
     <use xlink:href="#C0_0_7bea2db2af" x="33.483348" y="262.91243" style="fill: #440154; stroke: #000000; stroke-width: 1.5"/>
    </g>
    <g clip-path="url(#pd7d9927484)">
     <use xlink:href="#C0_0_7bea2db2af" x="33.483348" y="258.506733" style="fill: #440154; stroke: #000000; stroke-width: 1.5"/>
    </g>
    <g clip-path="url(#pd7d9927484)">
     <use xlink:href="#C0_0_7bea2db2af" x="32.967989" y="234.275396" style="fill: #440154; stroke: #000000; stroke-width: 1.5"/>
    </g>
    <g clip-path="url(#pd7d9927484)">
     <use xlink:href="#C0_0_7bea2db2af" x="26.268312" y="271.723826" style="fill: #440154; stroke: #000000; stroke-width: 1.5"/>
    </g>
    <g clip-path="url(#pd7d9927484)">
     <use xlink:href="#C0_0_7bea2db2af" x="55.643819" y="210.04406" style="fill: #fde725; stroke: #000000; stroke-width: 1.5"/>
    </g>
    <g clip-path="url(#pd7d9927484)">
     <use xlink:href="#C0_0_7bea2db2af" x="23.691513" y="227.66685" style="fill: #440154; stroke: #000000; stroke-width: 1.5"/>
    </g>
    <g clip-path="url(#pd7d9927484)">
     <use xlink:href="#C0_0_7bea2db2af" x="85.019326" y="249.695338" style="fill: #440154; stroke: #000000; stroke-width: 1.5"/>
    </g>
    <g clip-path="url(#pd7d9927484)">
     <use xlink:href="#C0_0_7bea2db2af" x="97.90332" y="256.303884" style="fill: #440154; stroke: #000000; stroke-width: 1.5"/>
    </g>
    <g clip-path="url(#pd7d9927484)">
     <use xlink:href="#C0_0_7bea2db2af" x="72.135331" y="260.709582" style="fill: #440154; stroke: #000000; stroke-width: 1.5"/>
    </g>
    <g clip-path="url(#pd7d9927484)">
     <use xlink:href="#C0_0_7bea2db2af" x="79.865728" y="278.332372" style="fill: #440154; stroke: #000000; stroke-width: 1.5"/>
    </g>
    <g clip-path="url(#pd7d9927484)">
     <use xlink:href="#C0_0_7bea2db2af" x="90.172923" y="251.898187" style="fill: #440154; stroke: #000000; stroke-width: 1.5"/>
    </g>
    <g clip-path="url(#pd7d9927484)">
     <use xlink:href="#C0_0_7bea2db2af" x="103.056918" y="258.506733" style="fill: #440154; stroke: #000000; stroke-width: 1.5"/>
    </g>
    <g clip-path="url(#pd7d9927484)">
     <use xlink:href="#C0_0_7bea2db2af" x="114.652512" y="262.91243" style="fill: #440154; stroke: #000000; stroke-width: 1.5"/>
    </g>
    <g clip-path="url(#pd7d9927484)">
     <use xlink:href="#C0_0_7bea2db2af" x="121.09451" y="258.506733" style="fill: #440154; stroke: #000000; stroke-width: 1.5"/>
    </g>
    <g clip-path="url(#pd7d9927484)">
     <use xlink:href="#C0_0_7bea2db2af" x="68.270133" y="243.086791" style="fill: #440154; stroke: #000000; stroke-width: 1.5"/>
    </g>
    <g clip-path="url(#pd7d9927484)">
     <use xlink:href="#C0_0_7bea2db2af" x="85.019326" y="245.28964" style="fill: #440154; stroke: #000000; stroke-width: 1.5"/>
    </g>
    <g clip-path="url(#pd7d9927484)">
     <use xlink:href="#C0_0_7bea2db2af" x="87.596124" y="227.66685" style="fill: #440154; stroke: #000000; stroke-width: 1.5"/>
    </g>
    <g clip-path="url(#pd7d9927484)">
     <use xlink:href="#C0_0_7bea2db2af" x="90.172923" y="254.101035" style="fill: #440154; stroke: #000000; stroke-width: 1.5"/>
    </g>
    <g clip-path="url(#pd7d9927484)">
     <use xlink:href="#C0_0_7bea2db2af" x="136.555303" y="269.520977" style="fill: #440154; stroke: #000000; stroke-width: 1.5"/>
    </g>
    <g clip-path="url(#pd7d9927484)">
     <use xlink:href="#C0_0_7bea2db2af" x="69.558532" y="227.66685" style="fill: #440154; stroke: #000000; stroke-width: 1.5"/>
    </g>
    <g clip-path="url(#pd7d9927484)">
     <use xlink:href="#C0_0_7bea2db2af" x="77.288929" y="223.261152" style="fill: #440154; stroke: #000000; stroke-width: 1.5"/>
    </g>
    <g clip-path="url(#pd7d9927484)">
     <use xlink:href="#C0_0_7bea2db2af" x="155.881294" y="280.535221" style="fill: #440154; stroke: #000000; stroke-width: 1.5"/>
    </g>
    <g clip-path="url(#pd7d9927484)">
     <use xlink:href="#C0_0_7bea2db2af" x="149.439297" y="291.549465" style="fill: #440154; stroke: #000000; stroke-width: 1.5"/>
    </g>
    <g clip-path="url(#pd7d9927484)">
     <use xlink:href="#C0_0_7bea2db2af" x="42.502144" y="295.955162" style="fill: #440154; stroke: #000000; stroke-width: 1.5"/>
    </g>
    <g clip-path="url(#pd7d9927484)">
     <use xlink:href="#C0_0_7bea2db2af" x="96.61492" y="304.766557" style="fill: #440154; stroke: #000000; stroke-width: 1.5"/>
    </g>
    <g clip-path="url(#pd7d9927484)">
     <use xlink:href="#C0_0_7bea2db2af" x="103.056918" y="302.563709" style="fill: #440154; stroke: #000000; stroke-width: 1.5"/>
    </g>
    <g clip-path="url(#pd7d9927484)">
     <use xlink:href="#C0_0_7bea2db2af" x="77.288929" y="298.158011" style="fill: #440154; stroke: #000000; stroke-width: 1.5"/>
    </g>
    <g clip-path="url(#pd7d9927484)">
     <use xlink:href="#C0_0_7bea2db2af" x="64.404935" y="293.752313" style="fill: #440154; stroke: #000000; stroke-width: 1.5"/>
    </g>
    <g clip-path="url(#pd7d9927484)">
     <use xlink:href="#C0_0_7bea2db2af" x="59.251337" y="317.98365" style="fill: #440154; stroke: #000000; stroke-width: 1.5"/>
    </g>
    <g clip-path="url(#pd7d9927484)">
     <use xlink:href="#C0_0_7bea2db2af" x="45.078943" y="289.346616" style="fill: #440154; stroke: #000000; stroke-width: 1.5"/>
    </g>
    <g clip-path="url(#pd7d9927484)">
     <use xlink:href="#C0_0_7bea2db2af" x="109.498915" y="300.36086" style="fill: #440154; stroke: #000000; stroke-width: 1.5"/>
    </g>
    <g clip-path="url(#pd7d9927484)">
     <use xlink:href="#C0_0_7bea2db2af" x="100.480119" y="295.955162" style="fill: #440154; stroke: #000000; stroke-width: 1.5"/>
    </g>
    <g clip-path="url(#pd7d9927484)">
     <use xlink:href="#C0_0_7bea2db2af" x="122.382909" y="291.549465" style="fill: #440154; stroke: #000000; stroke-width: 1.5"/>
    </g>
    <g clip-path="url(#pd7d9927484)">
     <use xlink:href="#C0_0_7bea2db2af" x="59.251337" y="298.158011" style="fill: #440154; stroke: #000000; stroke-width: 1.5"/>
    </g>
    <g clip-path="url(#pd7d9927484)">
     <use xlink:href="#C0_0_7bea2db2af" x="162.323291" y="276.129523" style="fill: #440154; stroke: #000000; stroke-width: 1.5"/>
    </g>
    <g clip-path="url(#pd7d9927484)">
     <use xlink:href="#C0_0_7bea2db2af" x="105.633716" y="298.158011" style="fill: #440154; stroke: #000000; stroke-width: 1.5"/>
    </g>
    <g clip-path="url(#pd7d9927484)">
     <use xlink:href="#C0_0_7bea2db2af" x="95.326521" y="298.158011" style="fill: #440154; stroke: #000000; stroke-width: 1.5"/>
    </g>
    <g clip-path="url(#pd7d9927484)">
     <use xlink:href="#C0_0_7bea2db2af" x="69.558532" y="300.36086" style="fill: #440154; stroke: #000000; stroke-width: 1.5"/>
    </g>
    <g clip-path="url(#pd7d9927484)">
     <use xlink:href="#C0_0_7bea2db2af" x="110.787314" y="212.246909" style="fill: #fde725; stroke: #000000; stroke-width: 1.5"/>
    </g>
    <g clip-path="url(#pd7d9927484)">
     <use xlink:href="#C0_0_7bea2db2af" x="82.442527" y="232.072548" style="fill: #440154; stroke: #000000; stroke-width: 1.5"/>
    </g>
    <g clip-path="url(#pd7d9927484)">
     <use xlink:href="#C0_0_7bea2db2af" x="109.498915" y="273.926674" style="fill: #440154; stroke: #000000; stroke-width: 1.5"/>
    </g>
    <g clip-path="url(#pd7d9927484)">
     <use xlink:href="#C0_0_7bea2db2af" x="94.038122" y="269.520977" style="fill: #440154; stroke: #000000; stroke-width: 1.5"/>
    </g>
    <g clip-path="url(#pd7d9927484)">
     <use xlink:href="#C0_0_7bea2db2af" x="69.558532" y="251.898187" style="fill: #440154; stroke: #000000; stroke-width: 1.5"/>
    </g>
    <g clip-path="url(#pd7d9927484)">
     <use xlink:href="#C0_0_7bea2db2af" x="114.652512" y="236.478245" style="fill: #440154; stroke: #000000; stroke-width: 1.5"/>
    </g>
    <g clip-path="url(#pd7d9927484)">
     <use xlink:href="#C0_0_7bea2db2af" x="112.075714" y="265.115279" style="fill: #440154; stroke: #000000; stroke-width: 1.5"/>
    </g>
    <g clip-path="url(#pd7d9927484)">
     <use xlink:href="#C0_0_7bea2db2af" x="128.824906" y="260.709582" style="fill: #440154; stroke: #000000; stroke-width: 1.5"/>
    </g>
    <g clip-path="url(#pd7d9927484)">
     <use xlink:href="#C0_0_7bea2db2af" x="97.90332" y="276.129523" style="fill: #440154; stroke: #000000; stroke-width: 1.5"/>
    </g>
    <g clip-path="url(#pd7d9927484)">
     <use xlink:href="#C0_0_7bea2db2af" x="66.981734" y="278.332372" style="fill: #440154; stroke: #000000; stroke-width: 1.5"/>
    </g>
    <g clip-path="url(#pd7d9927484)">
     <use xlink:href="#C0_0_7bea2db2af" x="56.674538" y="298.158011" style="fill: #440154; stroke: #000000; stroke-width: 1.5"/>
    </g>
    <g clip-path="url(#pd7d9927484)">
     <use xlink:href="#C0_0_7bea2db2af" x="105.633716" y="287.143767" style="fill: #440154; stroke: #000000; stroke-width: 1.5"/>
    </g>
    <g clip-path="url(#pd7d9927484)">
     <use xlink:href="#C0_0_7bea2db2af" x="126.248107" y="282.73807" style="fill: #440154; stroke: #000000; stroke-width: 1.5"/>
    </g>
    <g clip-path="url(#pd7d9927484)">
     <use xlink:href="#C0_0_7bea2db2af" x="128.824906" y="269.520977" style="fill: #440154; stroke: #000000; stroke-width: 1.5"/>
    </g>
    <g clip-path="url(#pd7d9927484)">
     <use xlink:href="#C0_0_7bea2db2af" x="150.727696" y="293.752313" style="fill: #440154; stroke: #000000; stroke-width: 1.5"/>
    </g>
    <g clip-path="url(#pd7d9927484)">
     <use xlink:href="#C0_0_7bea2db2af" x="152.016096" y="291.549465" style="fill: #440154; stroke: #000000; stroke-width: 1.5"/>
    </g>
    <g clip-path="url(#pd7d9927484)">
     <use xlink:href="#C0_0_7bea2db2af" x="79.865728" y="289.346616" style="fill: #440154; stroke: #000000; stroke-width: 1.5"/>
    </g>
   </g>
   <g id="matplotlib.axis_1"/>
   <g id="matplotlib.axis_2"/>
   <g id="patch_3">
    <path d="M 7.2 317.98365 
L 7.2 47.03325 
" style="fill: none; stroke: #000000; stroke-width: 1.875; stroke-linejoin: miter; stroke-linecap: square"/>
   </g>
   <g id="patch_4">
    <path d="M 7.2 317.98365 
L 368.4672 317.98365 
" style="fill: none; stroke: #000000; stroke-width: 1.875; stroke-linejoin: miter; stroke-linecap: square"/>
   </g>
   <g id="text_1">
    <!-- K-means clusters -->
    <g transform="translate(111.261881 20.877187) scale(0.18 -0.18)">
     <defs>
      <path id="DejaVuSans-4b" d="M 628 4666 
L 1259 4666 
L 1259 2694 
L 3353 4666 
L 4166 4666 
L 1850 2491 
L 4331 0 
L 3500 0 
L 1259 2247 
L 1259 0 
L 628 0 
L 628 4666 
z
" transform="scale(0.015625)"/>
      <path id="DejaVuSans-2d" d="M 313 2009 
L 1997 2009 
L 1997 1497 
L 313 1497 
L 313 2009 
z
" transform="scale(0.015625)"/>
      <path id="DejaVuSans-6d" d="M 3328 2828 
Q 3544 3216 3844 3400 
Q 4144 3584 4550 3584 
Q 5097 3584 5394 3201 
Q 5691 2819 5691 2113 
L 5691 0 
L 5113 0 
L 5113 2094 
Q 5113 2597 4934 2840 
Q 4756 3084 4391 3084 
Q 3944 3084 3684 2787 
Q 3425 2491 3425 1978 
L 3425 0 
L 2847 0 
L 2847 2094 
Q 2847 2600 2669 2842 
Q 2491 3084 2119 3084 
Q 1678 3084 1418 2786 
Q 1159 2488 1159 1978 
L 1159 0 
L 581 0 
L 581 3500 
L 1159 3500 
L 1159 2956 
Q 1356 3278 1631 3431 
Q 1906 3584 2284 3584 
Q 2666 3584 2933 3390 
Q 3200 3197 3328 2828 
z
" transform="scale(0.015625)"/>
      <path id="DejaVuSans-65" d="M 3597 1894 
L 3597 1613 
L 953 1613 
Q 991 1019 1311 708 
Q 1631 397 2203 397 
Q 2534 397 2845 478 
Q 3156 559 3463 722 
L 3463 178 
Q 3153 47 2828 -22 
Q 2503 -91 2169 -91 
Q 1331 -91 842 396 
Q 353 884 353 1716 
Q 353 2575 817 3079 
Q 1281 3584 2069 3584 
Q 2775 3584 3186 3129 
Q 3597 2675 3597 1894 
z
M 3022 2063 
Q 3016 2534 2758 2815 
Q 2500 3097 2075 3097 
Q 1594 3097 1305 2825 
Q 1016 2553 972 2059 
L 3022 2063 
z
" transform="scale(0.015625)"/>
      <path id="DejaVuSans-61" d="M 2194 1759 
Q 1497 1759 1228 1600 
Q 959 1441 959 1056 
Q 959 750 1161 570 
Q 1363 391 1709 391 
Q 2188 391 2477 730 
Q 2766 1069 2766 1631 
L 2766 1759 
L 2194 1759 
z
M 3341 1997 
L 3341 0 
L 2766 0 
L 2766 531 
Q 2569 213 2275 61 
Q 1981 -91 1556 -91 
Q 1019 -91 701 211 
Q 384 513 384 1019 
Q 384 1609 779 1909 
Q 1175 2209 1959 2209 
L 2766 2209 
L 2766 2266 
Q 2766 2663 2505 2880 
Q 2244 3097 1772 3097 
Q 1472 3097 1187 3025 
Q 903 2953 641 2809 
L 641 3341 
Q 956 3463 1253 3523 
Q 1550 3584 1831 3584 
Q 2591 3584 2966 3190 
Q 3341 2797 3341 1997 
z
" transform="scale(0.015625)"/>
      <path id="DejaVuSans-6e" d="M 3513 2113 
L 3513 0 
L 2938 0 
L 2938 2094 
Q 2938 2591 2744 2837 
Q 2550 3084 2163 3084 
Q 1697 3084 1428 2787 
Q 1159 2491 1159 1978 
L 1159 0 
L 581 0 
L 581 3500 
L 1159 3500 
L 1159 2956 
Q 1366 3272 1645 3428 
Q 1925 3584 2291 3584 
Q 2894 3584 3203 3211 
Q 3513 2838 3513 2113 
z
" transform="scale(0.015625)"/>
      <path id="DejaVuSans-73" d="M 2834 3397 
L 2834 2853 
Q 2591 2978 2328 3040 
Q 2066 3103 1784 3103 
Q 1356 3103 1142 2972 
Q 928 2841 928 2578 
Q 928 2378 1081 2264 
Q 1234 2150 1697 2047 
L 1894 2003 
Q 2506 1872 2764 1633 
Q 3022 1394 3022 966 
Q 3022 478 2636 193 
Q 2250 -91 1575 -91 
Q 1294 -91 989 -36 
Q 684 19 347 128 
L 347 722 
Q 666 556 975 473 
Q 1284 391 1588 391 
Q 1994 391 2212 530 
Q 2431 669 2431 922 
Q 2431 1156 2273 1281 
Q 2116 1406 1581 1522 
L 1381 1569 
Q 847 1681 609 1914 
Q 372 2147 372 2553 
Q 372 3047 722 3315 
Q 1072 3584 1716 3584 
Q 2034 3584 2315 3537 
Q 2597 3491 2834 3397 
z
" transform="scale(0.015625)"/>
      <path id="DejaVuSans-20" transform="scale(0.015625)"/>
      <path id="DejaVuSans-63" d="M 3122 3366 
L 3122 2828 
Q 2878 2963 2633 3030 
Q 2388 3097 2138 3097 
Q 1578 3097 1268 2742 
Q 959 2388 959 1747 
Q 959 1106 1268 751 
Q 1578 397 2138 397 
Q 2388 397 2633 464 
Q 2878 531 3122 666 
L 3122 134 
Q 2881 22 2623 -34 
Q 2366 -91 2075 -91 
Q 1284 -91 818 406 
Q 353 903 353 1747 
Q 353 2603 823 3093 
Q 1294 3584 2113 3584 
Q 2378 3584 2631 3529 
Q 2884 3475 3122 3366 
z
" transform="scale(0.015625)"/>
      <path id="DejaVuSans-6c" d="M 603 4863 
L 1178 4863 
L 1178 0 
L 603 0 
L 603 4863 
z
" transform="scale(0.015625)"/>
      <path id="DejaVuSans-75" d="M 544 1381 
L 544 3500 
L 1119 3500 
L 1119 1403 
Q 1119 906 1312 657 
Q 1506 409 1894 409 
Q 2359 409 2629 706 
Q 2900 1003 2900 1516 
L 2900 3500 
L 3475 3500 
L 3475 0 
L 2900 0 
L 2900 538 
Q 2691 219 2414 64 
Q 2138 -91 1772 -91 
Q 1169 -91 856 284 
Q 544 659 544 1381 
z
M 1991 3584 
L 1991 3584 
z
" transform="scale(0.015625)"/>
      <path id="DejaVuSans-74" d="M 1172 4494 
L 1172 3500 
L 2356 3500 
L 2356 3053 
L 1172 3053 
L 1172 1153 
Q 1172 725 1289 603 
Q 1406 481 1766 481 
L 2356 481 
L 2356 0 
L 1766 0 
Q 1100 0 847 248 
Q 594 497 594 1153 
L 594 3053 
L 172 3053 
L 172 3500 
L 594 3500 
L 594 4494 
L 1172 4494 
z
" transform="scale(0.015625)"/>
      <path id="DejaVuSans-72" d="M 2631 2963 
Q 2534 3019 2420 3045 
Q 2306 3072 2169 3072 
Q 1681 3072 1420 2755 
Q 1159 2438 1159 1844 
L 1159 0 
L 581 0 
L 581 3500 
L 1159 3500 
L 1159 2956 
Q 1341 3275 1631 3429 
Q 1922 3584 2338 3584 
Q 2397 3584 2469 3576 
Q 2541 3569 2628 3553 
L 2631 2963 
z
" transform="scale(0.015625)"/>
     </defs>
     <use xlink:href="#DejaVuSans-4b"/>
     <use xlink:href="#DejaVuSans-2d" transform="translate(55.076172 0)"/>
     <use xlink:href="#DejaVuSans-6d" transform="translate(91.160156 0)"/>
     <use xlink:href="#DejaVuSans-65" transform="translate(188.572266 0)"/>
     <use xlink:href="#DejaVuSans-61" transform="translate(250.095703 0)"/>
     <use xlink:href="#DejaVuSans-6e" transform="translate(311.375 0)"/>
     <use xlink:href="#DejaVuSans-73" transform="translate(374.753906 0)"/>
     <use xlink:href="#DejaVuSans-20" transform="translate(426.853516 0)"/>
     <use xlink:href="#DejaVuSans-63" transform="translate(458.640625 0)"/>
     <use xlink:href="#DejaVuSans-6c" transform="translate(513.621094 0)"/>
     <use xlink:href="#DejaVuSans-75" transform="translate(541.404297 0)"/>
     <use xlink:href="#DejaVuSans-73" transform="translate(604.783203 0)"/>
     <use xlink:href="#DejaVuSans-74" transform="translate(656.882812 0)"/>
     <use xlink:href="#DejaVuSans-65" transform="translate(696.091797 0)"/>
     <use xlink:href="#DejaVuSans-72" transform="translate(757.615234 0)"/>
     <use xlink:href="#DejaVuSans-73" transform="translate(798.728516 0)"/>
    </g>
    <!-- with scaling -->
    <g transform="translate(134.310319 41.03325) scale(0.18 -0.18)">
     <defs>
      <path id="DejaVuSans-77" d="M 269 3500 
L 844 3500 
L 1563 769 
L 2278 3500 
L 2956 3500 
L 3675 769 
L 4391 3500 
L 4966 3500 
L 4050 0 
L 3372 0 
L 2619 2869 
L 1863 0 
L 1184 0 
L 269 3500 
z
" transform="scale(0.015625)"/>
      <path id="DejaVuSans-69" d="M 603 3500 
L 1178 3500 
L 1178 0 
L 603 0 
L 603 3500 
z
M 603 4863 
L 1178 4863 
L 1178 4134 
L 603 4134 
L 603 4863 
z
" transform="scale(0.015625)"/>
      <path id="DejaVuSans-68" d="M 3513 2113 
L 3513 0 
L 2938 0 
L 2938 2094 
Q 2938 2591 2744 2837 
Q 2550 3084 2163 3084 
Q 1697 3084 1428 2787 
Q 1159 2491 1159 1978 
L 1159 0 
L 581 0 
L 581 4863 
L 1159 4863 
L 1159 2956 
Q 1366 3272 1645 3428 
Q 1925 3584 2291 3584 
Q 2894 3584 3203 3211 
Q 3513 2838 3513 2113 
z
" transform="scale(0.015625)"/>
      <path id="DejaVuSans-67" d="M 2906 1791 
Q 2906 2416 2648 2759 
Q 2391 3103 1925 3103 
Q 1463 3103 1205 2759 
Q 947 2416 947 1791 
Q 947 1169 1205 825 
Q 1463 481 1925 481 
Q 2391 481 2648 825 
Q 2906 1169 2906 1791 
z
M 3481 434 
Q 3481 -459 3084 -895 
Q 2688 -1331 1869 -1331 
Q 1566 -1331 1297 -1286 
Q 1028 -1241 775 -1147 
L 775 -588 
Q 1028 -725 1275 -790 
Q 1522 -856 1778 -856 
Q 2344 -856 2625 -561 
Q 2906 -266 2906 331 
L 2906 616 
Q 2728 306 2450 153 
Q 2172 0 1784 0 
Q 1141 0 747 490 
Q 353 981 353 1791 
Q 353 2603 747 3093 
Q 1141 3584 1784 3584 
Q 2172 3584 2450 3431 
Q 2728 3278 2906 2969 
L 2906 3500 
L 3481 3500 
L 3481 434 
z
" transform="scale(0.015625)"/>
     </defs>
     <use xlink:href="#DejaVuSans-77"/>
     <use xlink:href="#DejaVuSans-69" transform="translate(81.787109 0)"/>
     <use xlink:href="#DejaVuSans-74" transform="translate(109.570312 0)"/>
     <use xlink:href="#DejaVuSans-68" transform="translate(148.779297 0)"/>
     <use xlink:href="#DejaVuSans-20" transform="translate(212.158203 0)"/>
     <use xlink:href="#DejaVuSans-73" transform="translate(243.945312 0)"/>
     <use xlink:href="#DejaVuSans-63" transform="translate(296.044922 0)"/>
     <use xlink:href="#DejaVuSans-61" transform="translate(351.025391 0)"/>
     <use xlink:href="#DejaVuSans-6c" transform="translate(412.304688 0)"/>
     <use xlink:href="#DejaVuSans-69" transform="translate(440.087891 0)"/>
     <use xlink:href="#DejaVuSans-6e" transform="translate(467.871094 0)"/>
     <use xlink:href="#DejaVuSans-67" transform="translate(531.25 0)"/>
    </g>
   </g>
  </g>
 </g>
 <defs>
  <clipPath id="pd7d9927484">
   <rect x="7.2" y="47.03325" width="361.2672" height="270.9504"/>
  </clipPath>
 </defs>
</svg>
