<?xml version="1.0" encoding="utf-8" standalone="no"?>
<!DOCTYPE svg PUBLIC "-//W3C//DTD SVG 1.1//EN"
  "http://www.w3.org/Graphics/SVG/1.1/DTD/svg11.dtd">
<!-- Created with matplotlib (https://matplotlib.org/) -->
<svg height="172.8pt" version="1.1" viewBox="0 0 230.4 172.8" width="230.4pt" xmlns="http://www.w3.org/2000/svg" xmlns:xlink="http://www.w3.org/1999/xlink">
 <metadata>
  <rdf:RDF xmlns:cc="http://creativecommons.org/ns#" xmlns:dc="http://purl.org/dc/elements/1.1/" xmlns:rdf="http://www.w3.org/1999/02/22-rdf-syntax-ns#">
   <cc:Work>
    <dc:type rdf:resource="http://purl.org/dc/dcmitype/StillImage"/>
    <dc:date>2020-12-09T16:36:52.052435</dc:date>
    <dc:format>image/svg+xml</dc:format>
    <dc:creator>
     <cc:Agent>
      <dc:title>Matplotlib v3.3.3, https://matplotlib.org/</dc:title>
     </cc:Agent>
    </dc:creator>
   </cc:Work>
  </rdf:RDF>
 </metadata>
 <defs>
  <style type="text/css">*{stroke-linecap:butt;stroke-linejoin:round;}</style>
 </defs>
 <g id="figure_1">
  <g id="patch_1">
   <path d="M 0 172.8 
L 230.4 172.8 
L 230.4 0 
L 0 0 
z
" style="fill:none;"/>
  </g>
  <g id="axes_1">
   <g id="PathCollection_1">
    <defs>
     <path d="M 0 1.5 
C 0.397805 1.5 0.77937 1.341951 1.06066 1.06066 
C 1.341951 0.77937 1.5 0.397805 1.5 0 
C 1.5 -0.397805 1.341951 -0.77937 1.06066 -1.06066 
C 0.77937 -1.341951 0.397805 -1.5 0 -1.5 
C -0.397805 -1.5 -0.77937 -1.341951 -1.06066 -1.06066 
C -1.341951 -0.77937 -1.5 -0.397805 -1.5 0 
C -1.5 0.397805 -1.341951 0.77937 -1.06066 1.06066 
C -0.77937 1.341951 -0.397805 1.5 0 1.5 
z
" id="m60afe72c81" style="stroke:#000000;stroke-opacity:0.8;"/>
    </defs>
    <g clip-path="url(#p033d23a10d)">
     <use style="fill-opacity:0.8;stroke:#000000;stroke-opacity:0.8;" x="135.921789" xlink:href="#m60afe72c81" y="151.740499"/>
     <use style="fill-opacity:0.8;stroke:#000000;stroke-opacity:0.8;" x="167.285152" xlink:href="#m60afe72c81" y="59.996038"/>
     <use style="fill-opacity:0.8;stroke:#000000;stroke-opacity:0.8;" x="146.091831" xlink:href="#m60afe72c81" y="123.345443"/>
     <use style="fill-opacity:0.8;stroke:#000000;stroke-opacity:0.8;" x="135.180888" xlink:href="#m60afe72c81" y="124.059515"/>
     <use style="fill-opacity:0.8;stroke:#000000;stroke-opacity:0.8;" x="112.328236" xlink:href="#m60afe72c81" y="140.924321"/>
     <use style="fill-opacity:0.8;stroke:#000000;stroke-opacity:0.8;" x="154.222367" xlink:href="#m60afe72c81" y="92.282766"/>
     <use style="fill-opacity:0.8;stroke:#000000;stroke-opacity:0.8;" x="114.954622" xlink:href="#m60afe72c81" y="149.334455"/>
     <use style="fill-opacity:0.8;stroke:#000000;stroke-opacity:0.8;" x="200.572772" xlink:href="#m60afe72c81" y="86.196113"/>
     <use style="fill-opacity:0.8;stroke:#000000;stroke-opacity:0.8;" x="214.124645" xlink:href="#m60afe72c81" y="102.641479"/>
     <use style="fill-opacity:0.8;stroke:#000000;stroke-opacity:0.8;" x="104.747667" xlink:href="#m60afe72c81" y="103.005563"/>
     <use style="fill-opacity:0.8;stroke:#000000;stroke-opacity:0.8;" x="181.712822" xlink:href="#m60afe72c81" y="104.424327"/>
     <use style="fill-opacity:0.8;stroke:#000000;stroke-opacity:0.8;" x="132.166955" xlink:href="#m60afe72c81" y="140.637515"/>
     <use style="fill-opacity:0.8;stroke:#000000;stroke-opacity:0.8;" x="139.547018" xlink:href="#m60afe72c81" y="114.384699"/>
     <use style="fill-opacity:0.8;stroke:#000000;stroke-opacity:0.8;" x="206.948835" xlink:href="#m60afe72c81" y="70.836682"/>
     <use style="fill-opacity:0.8;stroke:#000000;stroke-opacity:0.8;" x="45.856397" xlink:href="#m60afe72c81" y="51.555789"/>
     <use style="fill-opacity:0.8;stroke:#000000;stroke-opacity:0.8;" x="48.89012" xlink:href="#m60afe72c81" y="53.35286"/>
     <use style="fill-opacity:0.8;stroke:#000000;stroke-opacity:0.8;" x="36.276806" xlink:href="#m60afe72c81" y="36.520284"/>
     <use style="fill-opacity:0.8;stroke:#000000;stroke-opacity:0.8;" x="189.421865" xlink:href="#m60afe72c81" y="95.802257"/>
     <use style="fill-opacity:0.8;stroke:#000000;stroke-opacity:0.8;" x="179.155076" xlink:href="#m60afe72c81" y="109.75391"/>
     <use style="fill-opacity:0.8;stroke:#000000;stroke-opacity:0.8;" x="196.470654" xlink:href="#m60afe72c81" y="91.350838"/>
     <use style="fill-opacity:0.8;stroke:#000000;stroke-opacity:0.8;" x="216.943909" xlink:href="#m60afe72c81" y="103.873418"/>
     <use style="fill-opacity:0.8;stroke:#000000;stroke-opacity:0.8;" x="183.114109" xlink:href="#m60afe72c81" y="130.061679"/>
     <use style="fill-opacity:0.8;stroke:#000000;stroke-opacity:0.8;" x="119.45851" xlink:href="#m60afe72c81" y="110.723217"/>
     <use style="fill-opacity:0.8;stroke:#000000;stroke-opacity:0.8;" x="179.6023" xlink:href="#m60afe72c81" y="103.513891"/>
     <use style="fill-opacity:0.8;stroke:#000000;stroke-opacity:0.8;" x="54.761259" xlink:href="#m60afe72c81" y="106.7474"/>
     <use style="fill-opacity:0.8;stroke:#000000;stroke-opacity:0.8;" x="153.096385" xlink:href="#m60afe72c81" y="99.632106"/>
     <use style="fill-opacity:0.8;stroke:#000000;stroke-opacity:0.8;" x="59.488852" xlink:href="#m60afe72c81" y="98.07113"/>
     <use style="fill-opacity:0.8;stroke:#000000;stroke-opacity:0.8;" x="210.544133" xlink:href="#m60afe72c81" y="79.748762"/>
     <use style="fill-opacity:0.8;stroke:#000000;stroke-opacity:0.8;" x="130.838607" xlink:href="#m60afe72c81" y="98.901094"/>
     <use style="fill-opacity:0.8;stroke:#000000;stroke-opacity:0.8;" x="110.633" xlink:href="#m60afe72c81" y="110.28173"/>
     <use style="fill-opacity:0.8;stroke:#000000;stroke-opacity:0.8;" x="82.336592" xlink:href="#m60afe72c81" y="75.502086"/>
     <use style="fill-opacity:0.8;stroke:#000000;stroke-opacity:0.8;" x="178.415543" xlink:href="#m60afe72c81" y="122.584247"/>
     <use style="fill-opacity:0.8;stroke:#000000;stroke-opacity:0.8;" x="118.453939" xlink:href="#m60afe72c81" y="105.682374"/>
     <use style="fill-opacity:0.8;stroke:#000000;stroke-opacity:0.8;" x="139.620421" xlink:href="#m60afe72c81" y="128.753446"/>
     <use style="fill-opacity:0.8;stroke:#000000;stroke-opacity:0.8;" x="36.007503" xlink:href="#m60afe72c81" y="40.603556"/>
     <use style="fill-opacity:0.8;stroke:#000000;stroke-opacity:0.8;" x="148.895361" xlink:href="#m60afe72c81" y="123.983616"/>
     <use style="fill-opacity:0.8;stroke:#000000;stroke-opacity:0.8;" x="147.851063" xlink:href="#m60afe72c81" y="118.469402"/>
     <use style="fill-opacity:0.8;stroke:#000000;stroke-opacity:0.8;" x="148.763121" xlink:href="#m60afe72c81" y="110.118156"/>
     <use style="fill-opacity:0.8;stroke:#000000;stroke-opacity:0.8;" x="210.370547" xlink:href="#m60afe72c81" y="106.345421"/>
     <use style="fill-opacity:0.8;stroke:#000000;stroke-opacity:0.8;" x="160.994779" xlink:href="#m60afe72c81" y="86.454799"/>
     <use style="fill-opacity:0.8;stroke:#000000;stroke-opacity:0.8;" x="100.235962" xlink:href="#m60afe72c81" y="99.691871"/>
     <use style="fill-opacity:0.8;stroke:#000000;stroke-opacity:0.8;" x="114.849951" xlink:href="#m60afe72c81" y="147.615458"/>
     <use style="fill-opacity:0.8;stroke:#000000;stroke-opacity:0.8;" x="163.975277" xlink:href="#m60afe72c81" y="72.011339"/>
     <use style="fill-opacity:0.8;stroke:#000000;stroke-opacity:0.8;" x="43.818503" xlink:href="#m60afe72c81" y="6.204131"/>
     <use style="fill-opacity:0.8;stroke:#000000;stroke-opacity:0.8;" x="158.157042" xlink:href="#m60afe72c81" y="81.755381"/>
     <use style="fill-opacity:0.8;stroke:#000000;stroke-opacity:0.8;" x="158.88679" xlink:href="#m60afe72c81" y="111.17026"/>
     <use style="fill-opacity:0.8;stroke:#000000;stroke-opacity:0.8;" x="72.12448" xlink:href="#m60afe72c81" y="115.838741"/>
     <use style="fill-opacity:0.8;stroke:#000000;stroke-opacity:0.8;" x="56.769234" xlink:href="#m60afe72c81" y="51.143698"/>
     <use style="fill-opacity:0.8;stroke:#000000;stroke-opacity:0.8;" x="91.926566" xlink:href="#m60afe72c81" y="114.995837"/>
     <use style="fill-opacity:0.8;stroke:#000000;stroke-opacity:0.8;" x="101.028241" xlink:href="#m60afe72c81" y="83.415799"/>
    </g>
   </g>
   <g id="line2d_1">
    <path clip-path="url(#p033d23a10d)" d="M 32.465455 23.118204 
L 34.369587 27.395373 
L 36.273719 31.591521 
L 38.177851 35.704503 
L 40.081983 39.732278 
L 41.986116 43.672904 
L 43.890248 47.524543 
L 45.79438 51.28546 
L 47.698512 54.95402 
L 49.602645 58.528692 
L 51.506777 62.008046 
L 53.410909 65.390755 
L 55.315041 68.675593 
L 57.219174 71.861438 
L 59.123306 74.947268 
L 61.027438 77.932164 
L 62.93157 80.81531 
L 64.835702 83.595992 
L 66.739835 86.273597 
L 68.643967 88.847615 
L 70.548099 91.317637 
L 72.452231 93.683359 
L 74.356364 95.944575 
L 76.260496 98.101186 
L 78.164628 100.153191 
L 80.06876 102.100693 
L 81.972893 103.943897 
L 83.877025 105.68311 
L 85.781157 107.318741 
L 87.685289 108.851301 
L 89.589421 110.281405 
L 91.493554 111.609768 
L 93.397686 112.837208 
L 95.301818 113.964644 
L 97.20595 114.993098 
L 99.110083 115.923696 
L 101.014215 116.757664 
L 102.918347 117.49633 
L 104.822479 118.141124 
L 106.726612 118.693581 
L 108.630744 119.155334 
L 110.534876 119.528122 
L 112.439008 119.813783 
L 114.34314 120.014259 
L 116.247273 120.131595 
L 118.151405 120.167934 
L 120.055537 120.125527 
L 121.959669 120.006722 
L 123.863802 119.813973 
L 125.767934 119.549833 
L 127.672066 119.21696 
L 129.576198 118.818111 
L 131.480331 118.356149 
L 133.384463 117.834036 
L 135.288595 117.254837 
L 137.192727 116.62172 
L 139.09686 115.937954 
L 141.000992 115.206911 
L 142.905124 114.432065 
L 144.809256 113.616993 
L 146.713388 112.765371 
L 148.617521 111.880981 
L 150.521653 110.967705 
L 152.425785 110.029527 
L 154.329917 109.070535 
L 156.23405 108.094918 
L 158.138182 107.106965 
L 160.042314 106.111072 
L 161.946446 105.111733 
L 163.850579 104.113546 
L 165.754711 103.12121 
L 167.658843 102.139528 
L 169.562975 101.173403 
L 171.467107 100.227842 
L 173.37124 99.307953 
L 175.275372 98.418947 
L 177.179504 97.566136 
L 179.083636 96.754935 
L 180.987769 95.990861 
L 182.891901 95.279533 
L 184.796033 94.626673 
L 186.700165 94.038104 
L 188.604298 93.519751 
L 190.50843 93.077643 
L 192.412562 92.717908 
L 194.316694 92.44678 
L 196.220826 92.270593 
L 198.124959 92.195782 
L 200.029091 92.228887 
L 201.933223 92.376548 
L 203.837355 92.645508 
L 205.741488 93.042612 
L 207.64562 93.574807 
L 209.549752 94.249142 
L 211.453884 95.07277 
L 213.358017 96.052942 
L 215.262149 97.197017 
L 217.166281 98.51245 
L 219.070413 100.006803 
L 220.974545 101.687737 
" style="fill:none;stroke:#d62728;stroke-linecap:square;stroke-width:3;"/>
   </g>
   <g id="line2d_2">
    <path clip-path="url(#p033d23a10d)" d="M 32.465455 27.77599 
L 34.369587 27.77599 
L 36.273719 27.77599 
L 38.177851 27.77599 
L 40.081983 27.77599 
L 41.986116 27.77599 
L 43.890248 27.77599 
L 45.79438 52.454324 
L 47.698512 52.454324 
L 49.602645 52.454324 
L 51.506777 52.454324 
L 53.410909 113.894683 
L 55.315041 113.894683 
L 57.219174 113.894683 
L 59.123306 113.894683 
L 61.027438 113.894683 
L 62.93157 113.894683 
L 64.835702 113.894683 
L 66.739835 113.894683 
L 68.643967 113.894683 
L 70.548099 113.894683 
L 72.452231 113.894683 
L 74.356364 113.894683 
L 76.260496 113.894683 
L 78.164628 113.894683 
L 80.06876 113.894683 
L 81.972893 113.894683 
L 83.877025 113.894683 
L 85.781157 113.894683 
L 87.685289 113.894683 
L 89.589421 113.894683 
L 91.493554 113.894683 
L 93.397686 113.894683 
L 95.301818 113.894683 
L 97.20595 113.894683 
L 99.110083 113.894683 
L 101.014215 113.894683 
L 102.918347 113.894683 
L 104.822479 113.894683 
L 106.726612 113.894683 
L 108.630744 113.894683 
L 110.534876 113.894683 
L 112.439008 113.894683 
L 114.34314 113.894683 
L 116.247273 113.894683 
L 118.151405 113.894683 
L 120.055537 113.894683 
L 121.959669 113.894683 
L 123.863802 113.894683 
L 125.767934 113.894683 
L 127.672066 113.894683 
L 129.576198 113.894683 
L 131.480331 113.894683 
L 133.384463 113.894683 
L 135.288595 113.894683 
L 137.192727 113.894683 
L 139.09686 113.894683 
L 141.000992 113.894683 
L 142.905124 113.894683 
L 144.809256 113.894683 
L 146.713388 113.894683 
L 148.617521 113.894683 
L 150.521653 113.894683 
L 152.425785 95.521786 
L 154.329917 95.521786 
L 156.23405 95.521786 
L 158.138182 95.521786 
L 160.042314 95.521786 
L 161.946446 95.521786 
L 163.850579 95.521786 
L 165.754711 95.521786 
L 167.658843 95.521786 
L 169.562975 95.521786 
L 171.467107 95.521786 
L 173.37124 95.521786 
L 175.275372 95.521786 
L 177.179504 95.521786 
L 179.083636 95.521786 
L 180.987769 95.521786 
L 182.891901 95.521786 
L 184.796033 95.521786 
L 186.700165 95.521786 
L 188.604298 95.521786 
L 190.50843 95.521786 
L 192.412562 95.521786 
L 194.316694 95.521786 
L 196.220826 95.521786 
L 198.124959 95.521786 
L 200.029091 95.521786 
L 201.933223 95.521786 
L 203.837355 95.521786 
L 205.741488 95.521786 
L 207.64562 95.521786 
L 209.549752 95.521786 
L 211.453884 95.521786 
L 213.358017 95.521786 
L 215.262149 95.521786 
L 217.166281 95.521786 
L 219.070413 95.521786 
L 220.974545 95.521786 
" style="fill:none;stroke:#1f77b4;stroke-linecap:square;stroke-width:3;"/>
   </g>
   <g id="legend_1">
    <g id="line2d_3">
     <path d="M 53.301094 7.377188 
L 71.301094 7.377188 
" style="fill:none;stroke:#d62728;stroke-linecap:square;stroke-width:3;"/>
    </g>
    <g id="line2d_4"/>
    <g id="text_1">
     <!-- Polynomial -->
     <g transform="translate(80.301094 13.677188)scale(0.18 -0.18)">
      <defs>
       <path d="M 19.671875 64.796875 
L 19.671875 37.40625 
L 32.078125 37.40625 
Q 38.96875 37.40625 42.71875 40.96875 
Q 46.484375 44.53125 46.484375 51.125 
Q 46.484375 57.671875 42.71875 61.234375 
Q 38.96875 64.796875 32.078125 64.796875 
z
M 9.8125 72.90625 
L 32.078125 72.90625 
Q 44.34375 72.90625 50.609375 67.359375 
Q 56.890625 61.8125 56.890625 51.125 
Q 56.890625 40.328125 50.609375 34.8125 
Q 44.34375 29.296875 32.078125 29.296875 
L 19.671875 29.296875 
L 19.671875 0 
L 9.8125 0 
z
" id="DejaVuSans-80"/>
       <path d="M 30.609375 48.390625 
Q 23.390625 48.390625 19.1875 42.75 
Q 14.984375 37.109375 14.984375 27.296875 
Q 14.984375 17.484375 19.15625 11.84375 
Q 23.34375 6.203125 30.609375 6.203125 
Q 37.796875 6.203125 41.984375 11.859375 
Q 46.1875 17.53125 46.1875 27.296875 
Q 46.1875 37.015625 41.984375 42.703125 
Q 37.796875 48.390625 30.609375 48.390625 
z
M 30.609375 56 
Q 42.328125 56 49.015625 48.375 
Q 55.71875 40.765625 55.71875 27.296875 
Q 55.71875 13.875 49.015625 6.21875 
Q 42.328125 -1.421875 30.609375 -1.421875 
Q 18.84375 -1.421875 12.171875 6.21875 
Q 5.515625 13.875 5.515625 27.296875 
Q 5.515625 40.765625 12.171875 48.375 
Q 18.84375 56 30.609375 56 
z
" id="DejaVuSans-111"/>
       <path d="M 9.421875 75.984375 
L 18.40625 75.984375 
L 18.40625 0 
L 9.421875 0 
z
" id="DejaVuSans-108"/>
       <path d="M 32.171875 -5.078125 
Q 28.375 -14.84375 24.75 -17.8125 
Q 21.140625 -20.796875 15.09375 -20.796875 
L 7.90625 -20.796875 
L 7.90625 -13.28125 
L 13.1875 -13.28125 
Q 16.890625 -13.28125 18.9375 -11.515625 
Q 21 -9.765625 23.484375 -3.21875 
L 25.09375 0.875 
L 2.984375 54.6875 
L 12.5 54.6875 
L 29.59375 11.921875 
L 46.6875 54.6875 
L 56.203125 54.6875 
z
" id="DejaVuSans-121"/>
       <path d="M 54.890625 33.015625 
L 54.890625 0 
L 45.90625 0 
L 45.90625 32.71875 
Q 45.90625 40.484375 42.875 44.328125 
Q 39.84375 48.1875 33.796875 48.1875 
Q 26.515625 48.1875 22.3125 43.546875 
Q 18.109375 38.921875 18.109375 30.90625 
L 18.109375 0 
L 9.078125 0 
L 9.078125 54.6875 
L 18.109375 54.6875 
L 18.109375 46.1875 
Q 21.34375 51.125 25.703125 53.5625 
Q 30.078125 56 35.796875 56 
Q 45.21875 56 50.046875 50.171875 
Q 54.890625 44.34375 54.890625 33.015625 
z
" id="DejaVuSans-110"/>
       <path d="M 52 44.1875 
Q 55.375 50.25 60.0625 53.125 
Q 64.75 56 71.09375 56 
Q 79.640625 56 84.28125 50.015625 
Q 88.921875 44.046875 88.921875 33.015625 
L 88.921875 0 
L 79.890625 0 
L 79.890625 32.71875 
Q 79.890625 40.578125 77.09375 44.375 
Q 74.3125 48.1875 68.609375 48.1875 
Q 61.625 48.1875 57.5625 43.546875 
Q 53.515625 38.921875 53.515625 30.90625 
L 53.515625 0 
L 44.484375 0 
L 44.484375 32.71875 
Q 44.484375 40.625 41.703125 44.40625 
Q 38.921875 48.1875 33.109375 48.1875 
Q 26.21875 48.1875 22.15625 43.53125 
Q 18.109375 38.875 18.109375 30.90625 
L 18.109375 0 
L 9.078125 0 
L 9.078125 54.6875 
L 18.109375 54.6875 
L 18.109375 46.1875 
Q 21.1875 51.21875 25.484375 53.609375 
Q 29.78125 56 35.6875 56 
Q 41.65625 56 45.828125 52.96875 
Q 50 49.953125 52 44.1875 
z
" id="DejaVuSans-109"/>
       <path d="M 9.421875 54.6875 
L 18.40625 54.6875 
L 18.40625 0 
L 9.421875 0 
z
M 9.421875 75.984375 
L 18.40625 75.984375 
L 18.40625 64.59375 
L 9.421875 64.59375 
z
" id="DejaVuSans-105"/>
       <path d="M 34.28125 27.484375 
Q 23.390625 27.484375 19.1875 25 
Q 14.984375 22.515625 14.984375 16.5 
Q 14.984375 11.71875 18.140625 8.90625 
Q 21.296875 6.109375 26.703125 6.109375 
Q 34.1875 6.109375 38.703125 11.40625 
Q 43.21875 16.703125 43.21875 25.484375 
L 43.21875 27.484375 
z
M 52.203125 31.203125 
L 52.203125 0 
L 43.21875 0 
L 43.21875 8.296875 
Q 40.140625 3.328125 35.546875 0.953125 
Q 30.953125 -1.421875 24.3125 -1.421875 
Q 15.921875 -1.421875 10.953125 3.296875 
Q 6 8.015625 6 15.921875 
Q 6 25.140625 12.171875 29.828125 
Q 18.359375 34.515625 30.609375 34.515625 
L 43.21875 34.515625 
L 43.21875 35.40625 
Q 43.21875 41.609375 39.140625 45 
Q 35.0625 48.390625 27.6875 48.390625 
Q 23 48.390625 18.546875 47.265625 
Q 14.109375 46.140625 10.015625 43.890625 
L 10.015625 52.203125 
Q 14.9375 54.109375 19.578125 55.046875 
Q 24.21875 56 28.609375 56 
Q 40.484375 56 46.34375 49.84375 
Q 52.203125 43.703125 52.203125 31.203125 
z
" id="DejaVuSans-97"/>
      </defs>
      <use xlink:href="#DejaVuSans-80"/>
      <use x="56.677734" xlink:href="#DejaVuSans-111"/>
      <use x="117.859375" xlink:href="#DejaVuSans-108"/>
      <use x="145.642578" xlink:href="#DejaVuSans-121"/>
      <use x="204.822266" xlink:href="#DejaVuSans-110"/>
      <use x="268.201172" xlink:href="#DejaVuSans-111"/>
      <use x="329.382812" xlink:href="#DejaVuSans-109"/>
      <use x="426.794922" xlink:href="#DejaVuSans-105"/>
      <use x="454.578125" xlink:href="#DejaVuSans-97"/>
      <use x="515.857422" xlink:href="#DejaVuSans-108"/>
     </g>
    </g>
    <g id="line2d_5">
     <path d="M 53.301094 33.797813 
L 71.301094 33.797813 
" style="fill:none;stroke:#1f77b4;stroke-linecap:square;stroke-width:3;"/>
    </g>
    <g id="line2d_6"/>
    <g id="text_2">
     <!-- Decision Tree -->
     <g transform="translate(80.301094 40.097813)scale(0.18 -0.18)">
      <defs>
       <path d="M 19.671875 64.796875 
L 19.671875 8.109375 
L 31.59375 8.109375 
Q 46.6875 8.109375 53.6875 14.9375 
Q 60.6875 21.78125 60.6875 36.53125 
Q 60.6875 51.171875 53.6875 57.984375 
Q 46.6875 64.796875 31.59375 64.796875 
z
M 9.8125 72.90625 
L 30.078125 72.90625 
Q 51.265625 72.90625 61.171875 64.09375 
Q 71.09375 55.28125 71.09375 36.53125 
Q 71.09375 17.671875 61.125 8.828125 
Q 51.171875 0 30.078125 0 
L 9.8125 0 
z
" id="DejaVuSans-68"/>
       <path d="M 56.203125 29.59375 
L 56.203125 25.203125 
L 14.890625 25.203125 
Q 15.484375 15.921875 20.484375 11.0625 
Q 25.484375 6.203125 34.421875 6.203125 
Q 39.59375 6.203125 44.453125 7.46875 
Q 49.3125 8.734375 54.109375 11.28125 
L 54.109375 2.78125 
Q 49.265625 0.734375 44.1875 -0.34375 
Q 39.109375 -1.421875 33.890625 -1.421875 
Q 20.796875 -1.421875 13.15625 6.1875 
Q 5.515625 13.8125 5.515625 26.8125 
Q 5.515625 40.234375 12.765625 48.109375 
Q 20.015625 56 32.328125 56 
Q 43.359375 56 49.78125 48.890625 
Q 56.203125 41.796875 56.203125 29.59375 
z
M 47.21875 32.234375 
Q 47.125 39.59375 43.09375 43.984375 
Q 39.0625 48.390625 32.421875 48.390625 
Q 24.90625 48.390625 20.390625 44.140625 
Q 15.875 39.890625 15.1875 32.171875 
z
" id="DejaVuSans-101"/>
       <path d="M 48.78125 52.59375 
L 48.78125 44.1875 
Q 44.96875 46.296875 41.140625 47.34375 
Q 37.3125 48.390625 33.40625 48.390625 
Q 24.65625 48.390625 19.8125 42.84375 
Q 14.984375 37.3125 14.984375 27.296875 
Q 14.984375 17.28125 19.8125 11.734375 
Q 24.65625 6.203125 33.40625 6.203125 
Q 37.3125 6.203125 41.140625 7.25 
Q 44.96875 8.296875 48.78125 10.40625 
L 48.78125 2.09375 
Q 45.015625 0.34375 40.984375 -0.53125 
Q 36.96875 -1.421875 32.421875 -1.421875 
Q 20.0625 -1.421875 12.78125 6.34375 
Q 5.515625 14.109375 5.515625 27.296875 
Q 5.515625 40.671875 12.859375 48.328125 
Q 20.21875 56 33.015625 56 
Q 37.15625 56 41.109375 55.140625 
Q 45.0625 54.296875 48.78125 52.59375 
z
" id="DejaVuSans-99"/>
       <path d="M 44.28125 53.078125 
L 44.28125 44.578125 
Q 40.484375 46.53125 36.375 47.5 
Q 32.28125 48.484375 27.875 48.484375 
Q 21.1875 48.484375 17.84375 46.4375 
Q 14.5 44.390625 14.5 40.28125 
Q 14.5 37.15625 16.890625 35.375 
Q 19.28125 33.59375 26.515625 31.984375 
L 29.59375 31.296875 
Q 39.15625 29.25 43.1875 25.515625 
Q 47.21875 21.78125 47.21875 15.09375 
Q 47.21875 7.46875 41.1875 3.015625 
Q 35.15625 -1.421875 24.609375 -1.421875 
Q 20.21875 -1.421875 15.453125 -0.5625 
Q 10.6875 0.296875 5.421875 2 
L 5.421875 11.28125 
Q 10.40625 8.6875 15.234375 7.390625 
Q 20.0625 6.109375 24.8125 6.109375 
Q 31.15625 6.109375 34.5625 8.28125 
Q 37.984375 10.453125 37.984375 14.40625 
Q 37.984375 18.0625 35.515625 20.015625 
Q 33.0625 21.96875 24.703125 23.78125 
L 21.578125 24.515625 
Q 13.234375 26.265625 9.515625 29.90625 
Q 5.8125 33.546875 5.8125 39.890625 
Q 5.8125 47.609375 11.28125 51.796875 
Q 16.75 56 26.8125 56 
Q 31.78125 56 36.171875 55.265625 
Q 40.578125 54.546875 44.28125 53.078125 
z
" id="DejaVuSans-115"/>
       <path id="DejaVuSans-32"/>
       <path d="M -0.296875 72.90625 
L 61.375 72.90625 
L 61.375 64.59375 
L 35.5 64.59375 
L 35.5 0 
L 25.59375 0 
L 25.59375 64.59375 
L -0.296875 64.59375 
z
" id="DejaVuSans-84"/>
       <path d="M 41.109375 46.296875 
Q 39.59375 47.171875 37.8125 47.578125 
Q 36.03125 48 33.890625 48 
Q 26.265625 48 22.1875 43.046875 
Q 18.109375 38.09375 18.109375 28.8125 
L 18.109375 0 
L 9.078125 0 
L 9.078125 54.6875 
L 18.109375 54.6875 
L 18.109375 46.1875 
Q 20.953125 51.171875 25.484375 53.578125 
Q 30.03125 56 36.53125 56 
Q 37.453125 56 38.578125 55.875 
Q 39.703125 55.765625 41.0625 55.515625 
z
" id="DejaVuSans-114"/>
      </defs>
      <use xlink:href="#DejaVuSans-68"/>
      <use x="77.001953" xlink:href="#DejaVuSans-101"/>
      <use x="138.525391" xlink:href="#DejaVuSans-99"/>
      <use x="193.505859" xlink:href="#DejaVuSans-105"/>
      <use x="221.289062" xlink:href="#DejaVuSans-115"/>
      <use x="273.388672" xlink:href="#DejaVuSans-105"/>
      <use x="301.171875" xlink:href="#DejaVuSans-111"/>
      <use x="362.353516" xlink:href="#DejaVuSans-110"/>
      <use x="425.732422" xlink:href="#DejaVuSans-32"/>
      <use x="457.519531" xlink:href="#DejaVuSans-84"/>
      <use x="503.853516" xlink:href="#DejaVuSans-114"/>
      <use x="542.716797" xlink:href="#DejaVuSans-101"/>
      <use x="604.240234" xlink:href="#DejaVuSans-101"/>
     </g>
    </g>
   </g>
  </g>
 </g>
 <defs>
  <clipPath id="p033d23a10d">
   <rect height="155.52" width="207.36" x="23.04" y="0"/>
  </clipPath>
 </defs>
</svg>
