<?xml version="1.0" encoding="UTF-8" standalone="no"?>
<!-- Generator: Adobe Illustrator 18.0.0, SVG Export Plug-In . SVG Version: 6.00 Build 0)  -->

<svg
   xmlns:dc="http://purl.org/dc/elements/1.1/"
   xmlns:cc="http://creativecommons.org/ns#"
   xmlns:rdf="http://www.w3.org/1999/02/22-rdf-syntax-ns#"
   xmlns:svg="http://www.w3.org/2000/svg"
   xmlns="http://www.w3.org/2000/svg"
   xmlns:sodipodi="http://sodipodi.sourceforge.net/DTD/sodipodi-0.dtd"
   xmlns:inkscape="http://www.inkscape.org/namespaces/inkscape"
   version="1.1"
   id="Слой_2"
   x="0px"
   y="0px"
   viewBox="323 115 549.62402 1190.4306"
   enable-background="new 323 115 943 1187.4"
   xml:space="preserve"
   sodipodi:docname="iris-silhouette_gray.svg"
   inkscape:version="0.92.4 (5da689c313, 2019-01-14)"
   width="549.62402"
   height="1190.4307"><metadata
   id="metadata9"><rdf:RDF><cc:Work
       rdf:about=""><dc:format>image/svg+xml</dc:format><dc:type
         rdf:resource="http://purl.org/dc/dcmitype/StillImage" /><dc:title></dc:title></cc:Work></rdf:RDF></metadata><defs
   id="defs7" /><sodipodi:namedview
   pagecolor="#ffffff"
   bordercolor="#666666"
   borderopacity="1"
   objecttolerance="10"
   gridtolerance="10"
   guidetolerance="10"
   inkscape:pageopacity="0"
   inkscape:pageshadow="2"
   inkscape:window-width="2560"
   inkscape:window-height="1369"
   id="namedview5"
   showgrid="false"
   inkscape:zoom="0.14054"
   inkscape:cx="-2719.2171"
   inkscape:cy="1285.6658"
   inkscape:window-x="0"
   inkscape:window-y="34"
   inkscape:window-maximized="1"
   inkscape:current-layer="Слой_2"
   fit-margin-top="0"
   fit-margin-left="0"
   fit-margin-right="0"
   fit-margin-bottom="0" />
<path
   d="m 323.28043,322.27284 c 0.8,-3 2.9,-4.9 3.4,-7.7 0.9,-4.7 0.9,-12.9 7.1,-14.4 0.1,-5 6.4,-7.2 10.4,-5.5 0.1,-7.8 8.2,-8.2 12.2,-2.4 1.7,-1.2 3.6,-1 4.5,0.9 l 3.2,0.8 c 0.9,1.4 -1.9,-3.7 -2.5,-4.7 -1.2,-1.9 -2.6,-3.6 -4,-5.5 -3,-4.2 -4.4,-8.7 -6.7,-12.9 -2.4,-4.5 -4.4,-6.6 -1.2,-11.9 4.3,-6.9 5.2,-1 7.9,2.3 0.2,-4.2 0.4,-13.6 4.7,-15.6 0.3,1 0.8,1.2 0.9,2 -0.1,-4.2 3.5,-12.1 7.9,-11.5 0.2,3.3 -0.1,6.7 0.2,10 0.4,0.3 0.9,0.3 1.3,0 -0.2,-1.1 0.4,-2.8 0.2,-3.8 0.4,-0.3 0.9,-0.3 1.3,0 0.2,6.6 8.2,15.4 11.5,21.3 3.6,6.5 10.3,10 13.9,15.8 0.1,-0.4 0.2,-0.9 0.3,-1.3 5,-1.9 4.5,-4.4 9.2,0 2.3,2.3 5.1,5.1 8.1,6.2 15.1,5.5 77.4,-8.7 80.1,-10.6 -3.3,-2.5 -8.5,-4.3 -12.6,-6.2 -4.7,-2.2 -9,-5.1 -13.3,-8.2 -8.2,-5.7 -13.6,-14.2 -19,-22.1 -5.8,-8.5 -9.8,-15.1 -19.9,-19.2 -8.9,-3.6 -19,-4.7 -28.8,-6.2 -12.1,-1.8 -23.6,-4 -35,-9.4 -4.9,-2.3 -10,-5 -14.2,-8.3 -4.7,-3.9 -6.8,-8.7 -9.7,-13.9 -2.8,-5 -5.4,-9.8 -7.6,-15.2 -0.7,-1.7 -3.5,-6.3 -2.6,-7.9 1.5,-2.8 5.3,-1.3 7.9,-1.5 12.7,-1.1 24.4,-3.6 37.3,-0.2 11.7,3.2 17.1,7.6 24.4,17.6 5.5,7.5 12.4,17 20,22.4 5.3,3.8 11.5,5.3 16.8,9.2 4.3,3.2 7.8,7.3 12.7,8.9 12.5,4.4 25,-2.6 37.8,0 -4,-2.9 -8.3,-4.2 -12.2,-7.4 -4.4,-3.5 -8.6,-7.3 -12.7,-11.1 -6.6,-6.3 -12.5,-12.9 -18.2,-19.9 -6.7,-7.9 -8.8,-18.1 -7.3,-28.3 0.8,-5.6 1.9,-10.4 3.2,-15.9 1.2,-5.1 3.5,-9.4 1.9,-14.1 9,-0.8 18.4,-2.4 27.5,-1.7 11,0.9 25,4.6 33.1,12.1 3.3,3.1 8.9,6.3 11.1,10.3 2.3,4.4 -1,12 -1.4,17.2 -0.9,12.8 1.4,25 7.7,35.8 5.2,9 11.4,19.3 18.3,27 7.2,7.9 14.3,17.9 25.6,16.9 12.5,-1.1 50.3,-5.4 56.2,-6 6.1,-0.6 12.4,1.1 18.2,1.7 6.7,0.6 11.1,1.7 17.4,4 3.4,1.2 6.3,1.8 9.6,2.3 2,0.3 6.6,0.6 7.9,1.7 0,0 6.7,-11.1 8.9,-13.2 3.8,-3.9 8.3,-6.9 13.1,-9.2 10.6,-4.7 19.9,-8.7 30.6,-11.5 26.4,-6.8 48.1,7.2 69.8,20.3 7.3,4.4 13.5,11.6 16.3,19.4 1.5,4.2 1.3,8.9 2.5,13.3 0.9,3.2 1.8,4.6 3.2,11 0,0 23.2,80 36.1,174.7 5,5.4 8.2,14 9.9,19.6 4,12.6 5.6,25.9 4.7,39 -0.4,6.1 -1.5,21.8 -6.7,28.8 0.4,11.2 0.7,22.5 0.4,33.5 -1.7,120.6 -19.7,279.2 -40.4,418.9 -20.61124,134.40396 -63.28605,294.07436 -36.2,312.29996 0.4,13.7 -11.6,11.5 -22.8,6.5 -0.1,0.4 -0.3,0.9 -0.4,1.2 h -23.2 c 12.5,-44.6 98.7,-483.49996 100.5,-747.59996 0.1,-12.7 -0.2,-25.8 -1,-39.2 -3.1,-7.1 -4.9,-14.8 -5.8,-20.8 -0.4,-3 -2,-5.6 -2.4,-8.7 -0.6,-3.5 0.2,-7.5 0,-11.1 -0.4,-7.1 -1.1,-14.7 -1.7,-21.4 -1.1,-14.7 -10.6,-27.1 -19.2,-38.7 -3.3,-4.4 -7.3,-9.8 -11.7,-13 -6.4,-4.9 -14.2,-7.5 -21.4,-10.7 -13.7,-6.2 -24.6,-13.1 -35.5,-23.3 -9,-8.4 -16.7,-17.4 -22.2,-28.6 -3,-5.8 -3.5,-11.9 -5,-18.2 -1.3,-5.5 -3.1,-13.3 -2.2,-19 3,0 2.9,3.6 4.4,5.6 2.2,3 6.6,6.4 9.7,8.6 9.7,6.8 19.7,13.7 29.6,20.6 15.9,11.1 31,23.3 46.7,34.3 8.1,5.7 16.1,12.5 22.7,20.2 -10.8,-67.7 -23.6,-120.2 -23.6,-120.2 -2.6,-6.6 -4.6,-9.5 -6.2,-11.4 -3.2,-4.1 -6.7,-8.5 -11.9,-9.5 -5,-1 -8.7,2.1 -13.7,3.3 -5.1,1.2 -10.6,1.8 -15.8,3 -10.8,2.6 -21.7,5.8 -32.5,9.7 -4.5,1.7 -9.2,3.3 -14,4.2 -5.3,0.9 -10.6,-0.6 -16,-0.2 0,0 -10,8.9 -14.4,15.7 -11.7,17.6 -28.7,31.4 -40.9,48.8 -14,19.9 -25.5,46.8 -20.2,70.6 2.5,11.4 10.4,19.6 14.4,30.8 4.1,11.1 3.6,24.4 1.5,36.4 -2,11.5 -20.8,33.5 -25.9,35.8 -4.7,2.1 -12,1.9 -15.3,5.8 -1.3,-3.8 -4.9,-6.7 -6.9,-10.1 -2.6,-4.4 -16.8,-31.9 -15.2,-40 -6.9,6.7 -22.5,46.1 -28.8,53.6 -12.9,15.6 -14.8,40.7 -36.1,45.9 -1.4,-0.2 -2.5,-0.7 -4.1,0 -0.7,-6.1 -1.9,-10.6 -3.5,-16.5 -1.4,-5.4 -1.4,-10.7 -1.4,-16.7 0,-11.1 -5.2,-21.5 -3.3,-31.9 4,-23.2 17,-45.1 23.1,-67.4 3.2,-11.9 6.3,-23.5 14.3,-33.2 3.2,-3.9 7.1,-7.5 9.7,-11.9 2.6,-4.4 4.2,-9 7.1,-13.3 -7.8,3 -16.3,7.2 -23.5,11.9 -9,6 -18.6,10.4 -27.1,17.1 -8.1,6.4 -15.4,16.5 -19.9,25.6 -2.5,5.2 -4.4,10.8 -4.7,16.7 -0.4,6.4 2.5,11.2 2.4,17.4 -0.2,6 -1.1,29.4 -11.9,23.8 -0.3,0.8 -2.3,4.4 -2.5,5.4 -3.6,1.7 -8.1,-1.3 -10.8,0.3 -2.6,1.5 -0.1,7.8 -5.6,6.1 -0.7,-1.5 -1.2,-2.6 -0.9,-4.3 -4,5.3 -8.5,-10.7 -9.6,-12.7 -0.1,0.4 -0.2,0.7 -0.6,1 -6.5,-1.5 -3.9,-5.6 -4.3,-10.6 -0.4,-0.1 -0.9,-0.2 -1.3,-0.3 -2.4,-6.4 -1.3,-11.7 0.6,-17.8 -4.2,2.9 -5.5,7.9 -6.4,12.2 -4.3,0.3 -6.5,-0.4 -10,-2.4 -0.1,-0.4 -0.2,-0.9 -0.3,-1.3 -2.2,1.1 -7.7,9.3 -10.1,9.4 -5.1,0.3 -2.5,-9.9 -1,-12.9 1.9,-3.5 5.7,-5.6 7.9,-8.7 2.2,-3.1 2.1,-7.4 2.6,-11.4 -6.5,6.5 -10,13.9 -17.5,19.3 -1.8,1.3 -1.2,-4.5 -3.1,-3.8 -1.9,0.7 -6.1,7.3 -7.9,7.9 -2.6,0.9 -10,5.2 -7.8,-2 -8.2,5.1 -1.7,-9.5 -1.8,-10.6 -1.1,3 -3.4,3.3 -5.2,5.6 -1.8,2.3 -0.8,6.7 -4.7,6.1 -2.3,-4.3 0.2,-8.3 0.9,-12.4 0.7,-4.2 1.2,-8.1 1.4,-12.6 -5.4,3 -6.3,-6.2 -6.4,-10.1 -0.4,8.7 -18.5,-0.7 -10.6,-6.1 -2.5,0.9 -3.5,-4.7 -2.1,-6.8 1.3,-2.1 4.7,-3.5 7.1,-4.3 0.8,-1.2 1,-3.1 0.8,-4.5 -2.3,-0.2 -7.2,1 -7.1,-2.4 0,-3.1 5.2,-2.4 5.5,-5.4 -3.6,0 -5.2,-2.8 -8.5,-3.4 0.2,-1 -0.4,-2.6 -0.2,-3.7 -5.6,-0.6 -11.9,-2.2 -7.2,-9 3.2,-4.7 8.9,-3.4 13.6,-5.5 0.8,-1.3 1.4,-2.5 2.2,-3.9 -3.4,-2.1 -10,-1.4 -6.8,-7.8 -1.8,0.1 -3.8,-0.2 -5.3,-1.1 0.8,-4.9 -6.7,-11.3 -9,-15.6 -3,-5.5 -5.2,-9.5 -6.7,-15.4 -1.8,-3.3 -3.2,-4.3 -2.3,-7.8 z"
   id="path2"
   inkscape:connector-curvature="0"
   style="fill:#cccccc;fill-opacity:1"
   sodipodi:nodetypes="ccccccccccccccccccccccccccccccccccccccccccccccccccccccccccccccccccccccccccccccccccccccccccccccccccccccccccccccccccccscccscccccccccccccccccccccsccscccscccccccccccccccccccc" />
</svg>