<?xml version="1.0" encoding="utf-8" standalone="no"?>
<!DOCTYPE svg PUBLIC "-//W3C//DTD SVG 1.1//EN"
  "http://www.w3.org/Graphics/SVG/1.1/DTD/svg11.dtd">
<!-- Created with matplotlib (https://matplotlib.org/) -->
<svg height="144pt" version="1.1" viewBox="0 0 180 144" width="180pt" xmlns="http://www.w3.org/2000/svg" xmlns:xlink="http://www.w3.org/1999/xlink">
 <defs>
  <style type="text/css">
*{stroke-linecap:butt;stroke-linejoin:round;}
  </style>
 </defs>
 <g id="figure_1">
  <g id="patch_1">
   <path d="M 0 144 
L 180 144 
L 180 0 
L 0 0 
z
" style="fill:#ffffff;"/>
  </g>
  <g id="axes_1">
   <g id="patch_2">
    <path d="M 1.8 142.56 
L 178.2 142.56 
L 178.2 1.44 
L 1.8 1.44 
z
" style="fill:none;"/>
   </g>
   <g id="patch_3">
    <path clip-path="url(#p7ea559d3b8)" d="M 9.818182 142.56 
L 18.258373 142.56 
L 18.258373 142.56 
L 9.818182 142.56 
z
" style="fill:#1f77b4;"/>
   </g>
   <g id="patch_4">
    <path clip-path="url(#p7ea559d3b8)" d="M 18.258373 142.56 
L 26.698565 142.56 
L 26.698565 142.56 
L 18.258373 142.56 
z
" style="fill:#1f77b4;"/>
   </g>
   <g id="patch_5">
    <path clip-path="url(#p7ea559d3b8)" d="M 26.698565 142.56 
L 35.138756 142.56 
L 35.138756 133.6 
L 26.698565 133.6 
z
" style="fill:#1f77b4;"/>
   </g>
   <g id="patch_6">
    <path clip-path="url(#p7ea559d3b8)" d="M 35.138756 142.56 
L 43.578947 142.56 
L 43.578947 142.56 
L 35.138756 142.56 
z
" style="fill:#1f77b4;"/>
   </g>
   <g id="patch_7">
    <path clip-path="url(#p7ea559d3b8)" d="M 43.578947 142.56 
L 52.019139 142.56 
L 52.019139 142.56 
L 43.578947 142.56 
z
" style="fill:#1f77b4;"/>
   </g>
   <g id="patch_8">
    <path clip-path="url(#p7ea559d3b8)" d="M 52.019139 142.56 
L 60.45933 142.56 
L 60.45933 142.56 
L 52.019139 142.56 
z
" style="fill:#1f77b4;"/>
   </g>
   <g id="patch_9">
    <path clip-path="url(#p7ea559d3b8)" d="M 60.45933 142.56 
L 68.899522 142.56 
L 68.899522 142.56 
L 60.45933 142.56 
z
" style="fill:#1f77b4;"/>
   </g>
   <g id="patch_10">
    <path clip-path="url(#p7ea559d3b8)" d="M 68.899522 142.56 
L 77.339713 142.56 
L 77.339713 79.84 
L 68.899522 79.84 
z
" style="fill:#1f77b4;"/>
   </g>
   <g id="patch_11">
    <path clip-path="url(#p7ea559d3b8)" d="M 77.339713 142.56 
L 85.779904 142.56 
L 85.779904 106.72 
L 77.339713 106.72 
z
" style="fill:#1f77b4;"/>
   </g>
   <g id="patch_12">
    <path clip-path="url(#p7ea559d3b8)" d="M 85.779904 142.56 
L 94.220096 142.56 
L 94.220096 97.76 
L 85.779904 97.76 
z
" style="fill:#1f77b4;"/>
   </g>
   <g id="patch_13">
    <path clip-path="url(#p7ea559d3b8)" d="M 94.220096 142.56 
L 102.660287 142.56 
L 102.660287 124.64 
L 94.220096 124.64 
z
" style="fill:#1f77b4;"/>
   </g>
   <g id="patch_14">
    <path clip-path="url(#p7ea559d3b8)" d="M 102.660287 142.56 
L 111.100478 142.56 
L 111.100478 8.16 
L 102.660287 8.16 
z
" style="fill:#1f77b4;"/>
   </g>
   <g id="patch_15">
    <path clip-path="url(#p7ea559d3b8)" d="M 111.100478 142.56 
L 119.54067 142.56 
L 119.54067 115.68 
L 111.100478 115.68 
z
" style="fill:#1f77b4;"/>
   </g>
   <g id="patch_16">
    <path clip-path="url(#p7ea559d3b8)" d="M 119.54067 142.56 
L 127.980861 142.56 
L 127.980861 115.68 
L 119.54067 115.68 
z
" style="fill:#1f77b4;"/>
   </g>
   <g id="patch_17">
    <path clip-path="url(#p7ea559d3b8)" d="M 127.980861 142.56 
L 136.421053 142.56 
L 136.421053 106.72 
L 127.980861 106.72 
z
" style="fill:#1f77b4;"/>
   </g>
   <g id="patch_18">
    <path clip-path="url(#p7ea559d3b8)" d="M 136.421053 142.56 
L 144.861244 142.56 
L 144.861244 115.68 
L 136.421053 115.68 
z
" style="fill:#1f77b4;"/>
   </g>
   <g id="patch_19">
    <path clip-path="url(#p7ea559d3b8)" d="M 144.861244 142.56 
L 153.301435 142.56 
L 153.301435 133.6 
L 144.861244 133.6 
z
" style="fill:#1f77b4;"/>
   </g>
   <g id="patch_20">
    <path clip-path="url(#p7ea559d3b8)" d="M 153.301435 142.56 
L 161.741627 142.56 
L 161.741627 133.6 
L 153.301435 133.6 
z
" style="fill:#1f77b4;"/>
   </g>
   <g id="patch_21">
    <path clip-path="url(#p7ea559d3b8)" d="M 161.741627 142.56 
L 170.181818 142.56 
L 170.181818 133.6 
L 161.741627 133.6 
z
" style="fill:#1f77b4;"/>
   </g>
   <g id="patch_22">
    <path clip-path="url(#p7ea559d3b8)" d="M 9.818182 142.56 
L 18.258373 142.56 
L 18.258373 133.6 
L 9.818182 133.6 
z
" style="fill:#ff7f0e;"/>
   </g>
   <g id="patch_23">
    <path clip-path="url(#p7ea559d3b8)" d="M 18.258373 142.56 
L 26.698565 142.56 
L 26.698565 124.64 
L 18.258373 124.64 
z
" style="fill:#ff7f0e;"/>
   </g>
   <g id="patch_24">
    <path clip-path="url(#p7ea559d3b8)" d="M 26.698565 142.56 
L 35.138756 142.56 
L 35.138756 115.68 
L 26.698565 115.68 
z
" style="fill:#ff7f0e;"/>
   </g>
   <g id="patch_25">
    <path clip-path="url(#p7ea559d3b8)" d="M 35.138756 142.56 
L 43.578947 142.56 
L 43.578947 79.84 
L 35.138756 79.84 
z
" style="fill:#ff7f0e;"/>
   </g>
   <g id="patch_26">
    <path clip-path="url(#p7ea559d3b8)" d="M 43.578947 142.56 
L 52.019139 142.56 
L 52.019139 115.68 
L 43.578947 115.68 
z
" style="fill:#ff7f0e;"/>
   </g>
   <g id="patch_27">
    <path clip-path="url(#p7ea559d3b8)" d="M 52.019139 142.56 
L 60.45933 142.56 
L 60.45933 97.76 
L 52.019139 97.76 
z
" style="fill:#ff7f0e;"/>
   </g>
   <g id="patch_28">
    <path clip-path="url(#p7ea559d3b8)" d="M 60.45933 142.56 
L 68.899522 142.56 
L 68.899522 88.8 
L 60.45933 88.8 
z
" style="fill:#ff7f0e;"/>
   </g>
   <g id="patch_29">
    <path clip-path="url(#p7ea559d3b8)" d="M 68.899522 142.56 
L 77.339713 142.56 
L 77.339713 8.16 
L 68.899522 8.16 
z
" style="fill:#ff7f0e;"/>
   </g>
   <g id="patch_30">
    <path clip-path="url(#p7ea559d3b8)" d="M 77.339713 142.56 
L 85.779904 142.56 
L 85.779904 115.68 
L 77.339713 115.68 
z
" style="fill:#ff7f0e;"/>
   </g>
   <g id="patch_31">
    <path clip-path="url(#p7ea559d3b8)" d="M 85.779904 142.56 
L 94.220096 142.56 
L 94.220096 115.68 
L 85.779904 115.68 
z
" style="fill:#ff7f0e;"/>
   </g>
   <g id="patch_32">
    <path clip-path="url(#p7ea559d3b8)" d="M 94.220096 142.56 
L 102.660287 142.56 
L 102.660287 133.6 
L 94.220096 133.6 
z
" style="fill:#ff7f0e;"/>
   </g>
   <g id="patch_33">
    <path clip-path="url(#p7ea559d3b8)" d="M 102.660287 142.56 
L 111.100478 142.56 
L 111.100478 133.6 
L 102.660287 133.6 
z
" style="fill:#ff7f0e;"/>
   </g>
   <g id="patch_34">
    <path clip-path="url(#p7ea559d3b8)" d="M 111.100478 142.56 
L 119.54067 142.56 
L 119.54067 142.56 
L 111.100478 142.56 
z
" style="fill:#ff7f0e;"/>
   </g>
   <g id="patch_35">
    <path clip-path="url(#p7ea559d3b8)" d="M 119.54067 142.56 
L 127.980861 142.56 
L 127.980861 142.56 
L 119.54067 142.56 
z
" style="fill:#ff7f0e;"/>
   </g>
   <g id="patch_36">
    <path clip-path="url(#p7ea559d3b8)" d="M 127.980861 142.56 
L 136.421053 142.56 
L 136.421053 142.56 
L 127.980861 142.56 
z
" style="fill:#ff7f0e;"/>
   </g>
   <g id="patch_37">
    <path clip-path="url(#p7ea559d3b8)" d="M 136.421053 142.56 
L 144.861244 142.56 
L 144.861244 142.56 
L 136.421053 142.56 
z
" style="fill:#ff7f0e;"/>
   </g>
   <g id="patch_38">
    <path clip-path="url(#p7ea559d3b8)" d="M 144.861244 142.56 
L 153.301435 142.56 
L 153.301435 142.56 
L 144.861244 142.56 
z
" style="fill:#ff7f0e;"/>
   </g>
   <g id="patch_39">
    <path clip-path="url(#p7ea559d3b8)" d="M 153.301435 142.56 
L 161.741627 142.56 
L 161.741627 142.56 
L 153.301435 142.56 
z
" style="fill:#ff7f0e;"/>
   </g>
   <g id="patch_40">
    <path clip-path="url(#p7ea559d3b8)" d="M 161.741627 142.56 
L 170.181818 142.56 
L 170.181818 142.56 
L 161.741627 142.56 
z
" style="fill:#ff7f0e;"/>
   </g>
   <g id="patch_41">
    <path clip-path="url(#p7ea559d3b8)" d="M 9.818182 142.56 
L 18.258373 142.56 
L 18.258373 142.56 
L 9.818182 142.56 
z
" style="fill:#2ca02c;"/>
   </g>
   <g id="patch_42">
    <path clip-path="url(#p7ea559d3b8)" d="M 18.258373 142.56 
L 26.698565 142.56 
L 26.698565 133.6 
L 18.258373 133.6 
z
" style="fill:#2ca02c;"/>
   </g>
   <g id="patch_43">
    <path clip-path="url(#p7ea559d3b8)" d="M 26.698565 142.56 
L 35.138756 142.56 
L 35.138756 142.56 
L 26.698565 142.56 
z
" style="fill:#2ca02c;"/>
   </g>
   <g id="patch_44">
    <path clip-path="url(#p7ea559d3b8)" d="M 35.138756 142.56 
L 43.578947 142.56 
L 43.578947 106.72 
L 35.138756 106.72 
z
" style="fill:#2ca02c;"/>
   </g>
   <g id="patch_45">
    <path clip-path="url(#p7ea559d3b8)" d="M 43.578947 142.56 
L 52.019139 142.56 
L 52.019139 124.64 
L 43.578947 124.64 
z
" style="fill:#2ca02c;"/>
   </g>
   <g id="patch_46">
    <path clip-path="url(#p7ea559d3b8)" d="M 52.019139 142.56 
L 60.45933 142.56 
L 60.45933 106.72 
L 52.019139 106.72 
z
" style="fill:#2ca02c;"/>
   </g>
   <g id="patch_47">
    <path clip-path="url(#p7ea559d3b8)" d="M 60.45933 142.56 
L 68.899522 142.56 
L 68.899522 70.88 
L 60.45933 70.88 
z
" style="fill:#2ca02c;"/>
   </g>
   <g id="patch_48">
    <path clip-path="url(#p7ea559d3b8)" d="M 68.899522 142.56 
L 77.339713 142.56 
L 77.339713 17.12 
L 68.899522 17.12 
z
" style="fill:#2ca02c;"/>
   </g>
   <g id="patch_49">
    <path clip-path="url(#p7ea559d3b8)" d="M 77.339713 142.56 
L 85.779904 142.56 
L 85.779904 106.72 
L 77.339713 106.72 
z
" style="fill:#2ca02c;"/>
   </g>
   <g id="patch_50">
    <path clip-path="url(#p7ea559d3b8)" d="M 85.779904 142.56 
L 94.220096 142.56 
L 94.220096 97.76 
L 85.779904 97.76 
z
" style="fill:#2ca02c;"/>
   </g>
   <g id="patch_51">
    <path clip-path="url(#p7ea559d3b8)" d="M 94.220096 142.56 
L 102.660287 142.56 
L 102.660287 115.68 
L 94.220096 115.68 
z
" style="fill:#2ca02c;"/>
   </g>
   <g id="patch_52">
    <path clip-path="url(#p7ea559d3b8)" d="M 102.660287 142.56 
L 111.100478 142.56 
L 111.100478 124.64 
L 102.660287 124.64 
z
" style="fill:#2ca02c;"/>
   </g>
   <g id="patch_53">
    <path clip-path="url(#p7ea559d3b8)" d="M 111.100478 142.56 
L 119.54067 142.56 
L 119.54067 133.6 
L 111.100478 133.6 
z
" style="fill:#2ca02c;"/>
   </g>
   <g id="patch_54">
    <path clip-path="url(#p7ea559d3b8)" d="M 119.54067 142.56 
L 127.980861 142.56 
L 127.980861 142.56 
L 119.54067 142.56 
z
" style="fill:#2ca02c;"/>
   </g>
   <g id="patch_55">
    <path clip-path="url(#p7ea559d3b8)" d="M 127.980861 142.56 
L 136.421053 142.56 
L 136.421053 124.64 
L 127.980861 124.64 
z
" style="fill:#2ca02c;"/>
   </g>
   <g id="patch_56">
    <path clip-path="url(#p7ea559d3b8)" d="M 136.421053 142.56 
L 144.861244 142.56 
L 144.861244 142.56 
L 136.421053 142.56 
z
" style="fill:#2ca02c;"/>
   </g>
   <g id="patch_57">
    <path clip-path="url(#p7ea559d3b8)" d="M 144.861244 142.56 
L 153.301435 142.56 
L 153.301435 142.56 
L 144.861244 142.56 
z
" style="fill:#2ca02c;"/>
   </g>
   <g id="patch_58">
    <path clip-path="url(#p7ea559d3b8)" d="M 153.301435 142.56 
L 161.741627 142.56 
L 161.741627 142.56 
L 153.301435 142.56 
z
" style="fill:#2ca02c;"/>
   </g>
   <g id="patch_59">
    <path clip-path="url(#p7ea559d3b8)" d="M 161.741627 142.56 
L 170.181818 142.56 
L 170.181818 142.56 
L 161.741627 142.56 
z
" style="fill:#2ca02c;"/>
   </g>
   <g id="matplotlib.axis_1"/>
   <g id="matplotlib.axis_2"/>
   <g id="patch_60">
    <path d="M 1.8 142.56 
L 1.8 1.44 
" style="fill:none;stroke:#000000;stroke-linecap:square;stroke-linejoin:miter;stroke-width:0.8;"/>
   </g>
   <g id="patch_61">
    <path d="M 1.8 142.56 
L 178.2 142.56 
" style="fill:none;stroke:#000000;stroke-linecap:square;stroke-linejoin:miter;stroke-width:0.8;"/>
   </g>
  </g>
 </g>
 <defs>
  <clipPath id="p7ea559d3b8">
   <rect height="141.12" width="176.4" x="1.8" y="1.44"/>
  </clipPath>
 </defs>
</svg>
