<?xml version="1.0" encoding="utf-8" standalone="no"?>
<!DOCTYPE svg PUBLIC "-//W3C//DTD SVG 1.1//EN"
  "http://www.w3.org/Graphics/SVG/1.1/DTD/svg11.dtd">
<!-- Created with matplotlib (https://matplotlib.org/) -->
<svg height="144pt" version="1.1" viewBox="0 0 180 144" width="180pt" xmlns="http://www.w3.org/2000/svg" xmlns:xlink="http://www.w3.org/1999/xlink">
 <defs>
  <style type="text/css">
*{stroke-linecap:butt;stroke-linejoin:round;}
  </style>
 </defs>
 <g id="figure_1">
  <g id="patch_1">
   <path d="M 0 144 
L 180 144 
L 180 0 
L 0 0 
z
" style="fill:#ffffff;"/>
  </g>
  <g id="axes_1">
   <g id="patch_2">
    <path d="M 1.8 142.56 
L 178.2 142.56 
L 178.2 1.44 
L 1.8 1.44 
z
" style="fill:none;"/>
   </g>
   <g id="patch_3">
    <path clip-path="url(#p2ca6c2a5fa)" d="M 9.818182 142.56 
L 18.258373 142.56 
L 18.258373 97.76 
L 9.818182 97.76 
z
" style="fill:#1f77b4;"/>
   </g>
   <g id="patch_4">
    <path clip-path="url(#p2ca6c2a5fa)" d="M 18.258373 142.56 
L 26.698565 142.56 
L 26.698565 86.56 
L 18.258373 86.56 
z
" style="fill:#1f77b4;"/>
   </g>
   <g id="patch_5">
    <path clip-path="url(#p2ca6c2a5fa)" d="M 26.698565 142.56 
L 35.138756 142.56 
L 35.138756 64.16 
L 26.698565 64.16 
z
" style="fill:#1f77b4;"/>
   </g>
   <g id="patch_6">
    <path clip-path="url(#p2ca6c2a5fa)" d="M 35.138756 142.56 
L 43.578947 142.56 
L 43.578947 8.16 
L 35.138756 8.16 
z
" style="fill:#1f77b4;"/>
   </g>
   <g id="patch_7">
    <path clip-path="url(#p2ca6c2a5fa)" d="M 43.578947 142.56 
L 52.019139 142.56 
L 52.019139 19.36 
L 43.578947 19.36 
z
" style="fill:#1f77b4;"/>
   </g>
   <g id="patch_8">
    <path clip-path="url(#p2ca6c2a5fa)" d="M 52.019139 142.56 
L 60.45933 142.56 
L 60.45933 75.36 
L 52.019139 75.36 
z
" style="fill:#1f77b4;"/>
   </g>
   <g id="patch_9">
    <path clip-path="url(#p2ca6c2a5fa)" d="M 60.45933 142.56 
L 68.899522 142.56 
L 68.899522 120.16 
L 60.45933 120.16 
z
" style="fill:#1f77b4;"/>
   </g>
   <g id="patch_10">
    <path clip-path="url(#p2ca6c2a5fa)" d="M 68.899522 142.56 
L 77.339713 142.56 
L 77.339713 108.96 
L 68.899522 108.96 
z
" style="fill:#1f77b4;"/>
   </g>
   <g id="patch_11">
    <path clip-path="url(#p2ca6c2a5fa)" d="M 77.339713 142.56 
L 85.779904 142.56 
L 85.779904 142.56 
L 77.339713 142.56 
z
" style="fill:#1f77b4;"/>
   </g>
   <g id="patch_12">
    <path clip-path="url(#p2ca6c2a5fa)" d="M 85.779904 142.56 
L 94.220096 142.56 
L 94.220096 142.56 
L 85.779904 142.56 
z
" style="fill:#1f77b4;"/>
   </g>
   <g id="patch_13">
    <path clip-path="url(#p2ca6c2a5fa)" d="M 94.220096 142.56 
L 102.660287 142.56 
L 102.660287 142.56 
L 94.220096 142.56 
z
" style="fill:#1f77b4;"/>
   </g>
   <g id="patch_14">
    <path clip-path="url(#p2ca6c2a5fa)" d="M 102.660287 142.56 
L 111.100478 142.56 
L 111.100478 142.56 
L 102.660287 142.56 
z
" style="fill:#1f77b4;"/>
   </g>
   <g id="patch_15">
    <path clip-path="url(#p2ca6c2a5fa)" d="M 111.100478 142.56 
L 119.54067 142.56 
L 119.54067 142.56 
L 111.100478 142.56 
z
" style="fill:#1f77b4;"/>
   </g>
   <g id="patch_16">
    <path clip-path="url(#p2ca6c2a5fa)" d="M 119.54067 142.56 
L 127.980861 142.56 
L 127.980861 142.56 
L 119.54067 142.56 
z
" style="fill:#1f77b4;"/>
   </g>
   <g id="patch_17">
    <path clip-path="url(#p2ca6c2a5fa)" d="M 127.980861 142.56 
L 136.421053 142.56 
L 136.421053 142.56 
L 127.980861 142.56 
z
" style="fill:#1f77b4;"/>
   </g>
   <g id="patch_18">
    <path clip-path="url(#p2ca6c2a5fa)" d="M 136.421053 142.56 
L 144.861244 142.56 
L 144.861244 142.56 
L 136.421053 142.56 
z
" style="fill:#1f77b4;"/>
   </g>
   <g id="patch_19">
    <path clip-path="url(#p2ca6c2a5fa)" d="M 144.861244 142.56 
L 153.301435 142.56 
L 153.301435 142.56 
L 144.861244 142.56 
z
" style="fill:#1f77b4;"/>
   </g>
   <g id="patch_20">
    <path clip-path="url(#p2ca6c2a5fa)" d="M 153.301435 142.56 
L 161.741627 142.56 
L 161.741627 142.56 
L 153.301435 142.56 
z
" style="fill:#1f77b4;"/>
   </g>
   <g id="patch_21">
    <path clip-path="url(#p2ca6c2a5fa)" d="M 161.741627 142.56 
L 170.181818 142.56 
L 170.181818 142.56 
L 161.741627 142.56 
z
" style="fill:#1f77b4;"/>
   </g>
   <g id="patch_22">
    <path clip-path="url(#p2ca6c2a5fa)" d="M 9.818182 142.56 
L 18.258373 142.56 
L 18.258373 142.56 
L 9.818182 142.56 
z
" style="fill:#ff7f0e;"/>
   </g>
   <g id="patch_23">
    <path clip-path="url(#p2ca6c2a5fa)" d="M 18.258373 142.56 
L 26.698565 142.56 
L 26.698565 142.56 
L 18.258373 142.56 
z
" style="fill:#ff7f0e;"/>
   </g>
   <g id="patch_24">
    <path clip-path="url(#p2ca6c2a5fa)" d="M 26.698565 142.56 
L 35.138756 142.56 
L 35.138756 142.56 
L 26.698565 142.56 
z
" style="fill:#ff7f0e;"/>
   </g>
   <g id="patch_25">
    <path clip-path="url(#p2ca6c2a5fa)" d="M 35.138756 142.56 
L 43.578947 142.56 
L 43.578947 108.96 
L 35.138756 108.96 
z
" style="fill:#ff7f0e;"/>
   </g>
   <g id="patch_26">
    <path clip-path="url(#p2ca6c2a5fa)" d="M 43.578947 142.56 
L 52.019139 142.56 
L 52.019139 120.16 
L 43.578947 120.16 
z
" style="fill:#ff7f0e;"/>
   </g>
   <g id="patch_27">
    <path clip-path="url(#p2ca6c2a5fa)" d="M 52.019139 142.56 
L 60.45933 142.56 
L 60.45933 131.36 
L 52.019139 131.36 
z
" style="fill:#ff7f0e;"/>
   </g>
   <g id="patch_28">
    <path clip-path="url(#p2ca6c2a5fa)" d="M 60.45933 142.56 
L 68.899522 142.56 
L 68.899522 30.56 
L 60.45933 30.56 
z
" style="fill:#ff7f0e;"/>
   </g>
   <g id="patch_29">
    <path clip-path="url(#p2ca6c2a5fa)" d="M 68.899522 142.56 
L 77.339713 142.56 
L 77.339713 52.96 
L 68.899522 52.96 
z
" style="fill:#ff7f0e;"/>
   </g>
   <g id="patch_30">
    <path clip-path="url(#p2ca6c2a5fa)" d="M 77.339713 142.56 
L 85.779904 142.56 
L 85.779904 75.36 
L 77.339713 75.36 
z
" style="fill:#ff7f0e;"/>
   </g>
   <g id="patch_31">
    <path clip-path="url(#p2ca6c2a5fa)" d="M 85.779904 142.56 
L 94.220096 142.56 
L 94.220096 97.76 
L 85.779904 97.76 
z
" style="fill:#ff7f0e;"/>
   </g>
   <g id="patch_32">
    <path clip-path="url(#p2ca6c2a5fa)" d="M 94.220096 142.56 
L 102.660287 142.56 
L 102.660287 86.56 
L 94.220096 86.56 
z
" style="fill:#ff7f0e;"/>
   </g>
   <g id="patch_33">
    <path clip-path="url(#p2ca6c2a5fa)" d="M 102.660287 142.56 
L 111.100478 142.56 
L 111.100478 108.96 
L 102.660287 108.96 
z
" style="fill:#ff7f0e;"/>
   </g>
   <g id="patch_34">
    <path clip-path="url(#p2ca6c2a5fa)" d="M 111.100478 142.56 
L 119.54067 142.56 
L 119.54067 86.56 
L 111.100478 86.56 
z
" style="fill:#ff7f0e;"/>
   </g>
   <g id="patch_35">
    <path clip-path="url(#p2ca6c2a5fa)" d="M 119.54067 142.56 
L 127.980861 142.56 
L 127.980861 120.16 
L 119.54067 120.16 
z
" style="fill:#ff7f0e;"/>
   </g>
   <g id="patch_36">
    <path clip-path="url(#p2ca6c2a5fa)" d="M 127.980861 142.56 
L 136.421053 142.56 
L 136.421053 131.36 
L 127.980861 131.36 
z
" style="fill:#ff7f0e;"/>
   </g>
   <g id="patch_37">
    <path clip-path="url(#p2ca6c2a5fa)" d="M 136.421053 142.56 
L 144.861244 142.56 
L 144.861244 142.56 
L 136.421053 142.56 
z
" style="fill:#ff7f0e;"/>
   </g>
   <g id="patch_38">
    <path clip-path="url(#p2ca6c2a5fa)" d="M 144.861244 142.56 
L 153.301435 142.56 
L 153.301435 142.56 
L 144.861244 142.56 
z
" style="fill:#ff7f0e;"/>
   </g>
   <g id="patch_39">
    <path clip-path="url(#p2ca6c2a5fa)" d="M 153.301435 142.56 
L 161.741627 142.56 
L 161.741627 142.56 
L 153.301435 142.56 
z
" style="fill:#ff7f0e;"/>
   </g>
   <g id="patch_40">
    <path clip-path="url(#p2ca6c2a5fa)" d="M 161.741627 142.56 
L 170.181818 142.56 
L 170.181818 142.56 
L 161.741627 142.56 
z
" style="fill:#ff7f0e;"/>
   </g>
   <g id="patch_41">
    <path clip-path="url(#p2ca6c2a5fa)" d="M 9.818182 142.56 
L 18.258373 142.56 
L 18.258373 142.56 
L 9.818182 142.56 
z
" style="fill:#2ca02c;"/>
   </g>
   <g id="patch_42">
    <path clip-path="url(#p2ca6c2a5fa)" d="M 18.258373 142.56 
L 26.698565 142.56 
L 26.698565 142.56 
L 18.258373 142.56 
z
" style="fill:#2ca02c;"/>
   </g>
   <g id="patch_43">
    <path clip-path="url(#p2ca6c2a5fa)" d="M 26.698565 142.56 
L 35.138756 142.56 
L 35.138756 142.56 
L 26.698565 142.56 
z
" style="fill:#2ca02c;"/>
   </g>
   <g id="patch_44">
    <path clip-path="url(#p2ca6c2a5fa)" d="M 35.138756 142.56 
L 43.578947 142.56 
L 43.578947 131.36 
L 35.138756 131.36 
z
" style="fill:#2ca02c;"/>
   </g>
   <g id="patch_45">
    <path clip-path="url(#p2ca6c2a5fa)" d="M 43.578947 142.56 
L 52.019139 142.56 
L 52.019139 142.56 
L 43.578947 142.56 
z
" style="fill:#2ca02c;"/>
   </g>
   <g id="patch_46">
    <path clip-path="url(#p2ca6c2a5fa)" d="M 52.019139 142.56 
L 60.45933 142.56 
L 60.45933 142.56 
L 52.019139 142.56 
z
" style="fill:#2ca02c;"/>
   </g>
   <g id="patch_47">
    <path clip-path="url(#p2ca6c2a5fa)" d="M 60.45933 142.56 
L 68.899522 142.56 
L 68.899522 131.36 
L 60.45933 131.36 
z
" style="fill:#2ca02c;"/>
   </g>
   <g id="patch_48">
    <path clip-path="url(#p2ca6c2a5fa)" d="M 68.899522 142.56 
L 77.339713 142.56 
L 77.339713 97.76 
L 68.899522 97.76 
z
" style="fill:#2ca02c;"/>
   </g>
   <g id="patch_49">
    <path clip-path="url(#p2ca6c2a5fa)" d="M 77.339713 142.56 
L 85.779904 142.56 
L 85.779904 108.96 
L 77.339713 108.96 
z
" style="fill:#2ca02c;"/>
   </g>
   <g id="patch_50">
    <path clip-path="url(#p2ca6c2a5fa)" d="M 85.779904 142.56 
L 94.220096 142.56 
L 94.220096 120.16 
L 85.779904 120.16 
z
" style="fill:#2ca02c;"/>
   </g>
   <g id="patch_51">
    <path clip-path="url(#p2ca6c2a5fa)" d="M 94.220096 142.56 
L 102.660287 142.56 
L 102.660287 52.96 
L 94.220096 52.96 
z
" style="fill:#2ca02c;"/>
   </g>
   <g id="patch_52">
    <path clip-path="url(#p2ca6c2a5fa)" d="M 102.660287 142.56 
L 111.100478 142.56 
L 111.100478 41.76 
L 102.660287 41.76 
z
" style="fill:#2ca02c;"/>
   </g>
   <g id="patch_53">
    <path clip-path="url(#p2ca6c2a5fa)" d="M 111.100478 142.56 
L 119.54067 142.56 
L 119.54067 86.56 
L 111.100478 86.56 
z
" style="fill:#2ca02c;"/>
   </g>
   <g id="patch_54">
    <path clip-path="url(#p2ca6c2a5fa)" d="M 119.54067 142.56 
L 127.980861 142.56 
L 127.980861 86.56 
L 119.54067 86.56 
z
" style="fill:#2ca02c;"/>
   </g>
   <g id="patch_55">
    <path clip-path="url(#p2ca6c2a5fa)" d="M 127.980861 142.56 
L 136.421053 142.56 
L 136.421053 131.36 
L 127.980861 131.36 
z
" style="fill:#2ca02c;"/>
   </g>
   <g id="patch_56">
    <path clip-path="url(#p2ca6c2a5fa)" d="M 136.421053 142.56 
L 144.861244 142.56 
L 144.861244 97.76 
L 136.421053 97.76 
z
" style="fill:#2ca02c;"/>
   </g>
   <g id="patch_57">
    <path clip-path="url(#p2ca6c2a5fa)" d="M 144.861244 142.56 
L 153.301435 142.56 
L 153.301435 131.36 
L 144.861244 131.36 
z
" style="fill:#2ca02c;"/>
   </g>
   <g id="patch_58">
    <path clip-path="url(#p2ca6c2a5fa)" d="M 153.301435 142.56 
L 161.741627 142.56 
L 161.741627 86.56 
L 153.301435 86.56 
z
" style="fill:#2ca02c;"/>
   </g>
   <g id="patch_59">
    <path clip-path="url(#p2ca6c2a5fa)" d="M 161.741627 142.56 
L 170.181818 142.56 
L 170.181818 131.36 
L 161.741627 131.36 
z
" style="fill:#2ca02c;"/>
   </g>
   <g id="matplotlib.axis_1"/>
   <g id="matplotlib.axis_2"/>
   <g id="patch_60">
    <path d="M 1.8 142.56 
L 1.8 1.44 
" style="fill:none;stroke:#000000;stroke-linecap:square;stroke-linejoin:miter;stroke-width:0.8;"/>
   </g>
   <g id="patch_61">
    <path d="M 1.8 142.56 
L 178.2 142.56 
" style="fill:none;stroke:#000000;stroke-linecap:square;stroke-linejoin:miter;stroke-width:0.8;"/>
   </g>
  </g>
 </g>
 <defs>
  <clipPath id="p2ca6c2a5fa">
   <rect height="141.12" width="176.4" x="1.8" y="1.44"/>
  </clipPath>
 </defs>
</svg>
