<?xml version="1.0" encoding="utf-8" standalone="no"?>
<!DOCTYPE svg PUBLIC "-//W3C//DTD SVG 1.1//EN"
  "http://www.w3.org/Graphics/SVG/1.1/DTD/svg11.dtd">
<!-- Created with matplotlib (https://matplotlib.org/) -->
<svg height="276.48pt" version="1.1" viewBox="0 0 368.64 276.48" width="368.64pt" xmlns="http://www.w3.org/2000/svg" xmlns:xlink="http://www.w3.org/1999/xlink">
 <defs>
  <style type="text/css">
*{stroke-linecap:butt;stroke-linejoin:round;}
  </style>
 </defs>
 <g id="figure_1">
  <g id="patch_1">
   <path d="M 0 276.48 
L 368.64 276.48 
L 368.64 0 
L 0 0 
z
" style="fill:none;"/>
  </g>
  <g id="axes_1">
   <g id="patch_2">
    <path d="M 36.864 248.832 
L 368.64 248.832 
L 368.64 0 
L 36.864 0 
z
" style="fill:none;"/>
   </g>
   <g id="matplotlib.axis_1">
    <g id="text_1">
     <!-- x -->
     <defs>
      <path d="M 22.21875 27.984375 
L 2.484375 54.6875 
L 21 54.6875 
L 32.171875 38.484375 
L 43.5 54.6875 
L 62.015625 54.6875 
L 42.28125 28.078125 
L 62.984375 0 
L 44.484375 0 
L 32.171875 17.28125 
L 20.015625 0 
L 1.515625 0 
z
" id="DejaVuSans-Bold-120"/>
     </defs>
     <g transform="translate(195.657 269.548563)scale(0.22 -0.22)">
      <use xlink:href="#DejaVuSans-Bold-120"/>
     </g>
    </g>
   </g>
   <g id="matplotlib.axis_2">
    <g id="text_2">
     <!-- y -->
     <defs>
      <path d="M 1.21875 54.6875 
L 18.703125 54.6875 
L 33.40625 17.578125 
L 45.90625 54.6875 
L 63.375 54.6875 
L 40.375 -5.171875 
Q 36.921875 -14.3125 32.296875 -17.9375 
Q 27.6875 -21.578125 20.125 -21.578125 
L 10.015625 -21.578125 
L 10.015625 -10.109375 
L 15.484375 -10.109375 
Q 19.921875 -10.109375 21.9375 -8.6875 
Q 23.96875 -7.28125 25.09375 -3.609375 
L 25.59375 -2.09375 
z
" id="DejaVuSans-Bold-121"/>
     </defs>
     <g transform="translate(28.116813 131.586625)rotate(-90)scale(0.22 -0.22)">
      <use xlink:href="#DejaVuSans-Bold-121"/>
     </g>
    </g>
   </g>
   <g id="line2d_1">
    <defs>
     <path d="M 0 5 
C 1.326016 5 2.597899 4.473168 3.535534 3.535534 
C 4.473168 2.597899 5 1.326016 5 0 
C 5 -1.326016 4.473168 -2.597899 3.535534 -3.535534 
C 2.597899 -4.473168 1.326016 -5 0 -5 
C -1.326016 -5 -2.597899 -4.473168 -3.535534 -3.535534 
C -4.473168 -2.597899 -5 -1.326016 -5 0 
C -5 1.326016 -4.473168 2.597899 -3.535534 3.535534 
C -2.597899 4.473168 -1.326016 5 0 5 
z
" id="m114f21ec42" style="stroke:#1f77b4;"/>
    </defs>
    <g clip-path="url(#p357e56f1ff)">
     <use style="fill:#1f77b4;stroke:#1f77b4;" x="149.071512" xlink:href="#m114f21ec42" y="186.624"/>
     <use style="fill:#1f77b4;stroke:#1f77b4;" x="209.390128" xlink:href="#m114f21ec42" y="124.416"/>
    </g>
   </g>
   <g id="line2d_2">
    <path clip-path="url(#p357e56f1ff)" d="M 60.974993 277.48 
L 330.996989 -1 
" style="fill:none;stroke:#ff7f0e;stroke-linecap:square;stroke-width:1.5;"/>
   </g>
   <g id="line2d_3">
    <defs>
     <path d="M 0 5 
C 1.326016 5 2.597899 4.473168 3.535534 3.535534 
C 4.473168 2.597899 5 1.326016 5 0 
C 5 -1.326016 4.473168 -2.597899 3.535534 -3.535534 
C 2.597899 -4.473168 1.326016 -5 0 -5 
C -1.326016 -5 -2.597899 -4.473168 -3.535534 -3.535534 
C -4.473168 -2.597899 -5 -1.326016 -5 0 
C -5 1.326016 -4.473168 2.597899 -3.535534 3.535534 
C -2.597899 4.473168 -1.326016 5 0 5 
z
" id="mc1203a12bc" style="stroke:#2ca02c;"/>
    </defs>
    <g clip-path="url(#p357e56f1ff)">
     <use style="fill:#2ca02c;stroke:#2ca02c;" x="136.044089" xlink:href="#mc1203a12bc" y="186.624"/>
     <use style="fill:#2ca02c;stroke:#2ca02c;" x="239.925729" xlink:href="#mc1203a12bc" y="124.416"/>
    </g>
   </g>
   <g id="line2d_4">
    <path clip-path="url(#p357e56f1ff)" d="M 36.864 246.016545 
L 368.64 47.337343 
" style="fill:none;stroke:#d62728;stroke-linecap:square;stroke-width:1.5;"/>
   </g>
   <g id="line2d_5">
    <defs>
     <path d="M 0 5 
C 1.326016 5 2.597899 4.473168 3.535534 3.535534 
C 4.473168 2.597899 5 1.326016 5 0 
C 5 -1.326016 4.473168 -2.597899 3.535534 -3.535534 
C 2.597899 -4.473168 1.326016 -5 0 -5 
C -1.326016 -5 -2.597899 -4.473168 -3.535534 -3.535534 
C -4.473168 -2.597899 -5 -1.326016 -5 0 
C -5 1.326016 -4.473168 2.597899 -3.535534 3.535534 
C -2.597899 4.473168 -1.326016 5 0 5 
z
" id="md076cbb8b6" style="stroke:#9467bd;"/>
    </defs>
    <g clip-path="url(#p357e56f1ff)">
     <use style="fill:#9467bd;stroke:#9467bd;" x="150.788546" xlink:href="#md076cbb8b6" y="186.624"/>
     <use style="fill:#9467bd;stroke:#9467bd;" x="186.540133" xlink:href="#md076cbb8b6" y="124.416"/>
    </g>
   </g>
   <g id="line2d_6">
    <path clip-path="url(#p357e56f1ff)" d="M 98.572655 277.48 
L 258.618017 -1 
" style="fill:none;stroke:#8c564b;stroke-linecap:square;stroke-width:1.5;"/>
   </g>
   <g id="line2d_7">
    <defs>
     <path d="M 0 5 
C 1.326016 5 2.597899 4.473168 3.535534 3.535534 
C 4.473168 2.597899 5 1.326016 5 0 
C 5 -1.326016 4.473168 -2.597899 3.535534 -3.535534 
C 2.597899 -4.473168 1.326016 -5 0 -5 
C -1.326016 -5 -2.597899 -4.473168 -3.535534 -3.535534 
C -4.473168 -2.597899 -5 -1.326016 -5 0 
C -5 1.326016 -4.473168 2.597899 -3.535534 3.535534 
C -2.597899 4.473168 -1.326016 5 0 5 
z
" id="m98401f62d2" style="stroke:#e377c2;"/>
    </defs>
    <g clip-path="url(#p357e56f1ff)">
     <use style="fill:#e377c2;stroke:#e377c2;" x="135.568827" xlink:href="#m98401f62d2" y="186.624"/>
     <use style="fill:#e377c2;stroke:#e377c2;" x="200.241166" xlink:href="#m98401f62d2" y="124.416"/>
    </g>
   </g>
   <g id="line2d_8">
    <path clip-path="url(#p357e56f1ff)" d="M 41.113612 277.48 
L 330.625458 -1 
" style="fill:none;stroke:#7f7f7f;stroke-linecap:square;stroke-width:1.5;"/>
   </g>
   <g id="line2d_9">
    <defs>
     <path d="M 0 5 
C 1.326016 5 2.597899 4.473168 3.535534 3.535534 
C 4.473168 2.597899 5 1.326016 5 0 
C 5 -1.326016 4.473168 -2.597899 3.535534 -3.535534 
C 2.597899 -4.473168 1.326016 -5 0 -5 
C -1.326016 -5 -2.597899 -4.473168 -3.535534 -3.535534 
C -4.473168 -2.597899 -5 -1.326016 -5 0 
C -5 1.326016 -4.473168 2.597899 -3.535534 3.535534 
C -2.597899 4.473168 -1.326016 5 0 5 
z
" id="m78a1ba84e3" style="stroke:#bcbd22;"/>
    </defs>
    <g clip-path="url(#p357e56f1ff)">
     <use style="fill:#bcbd22;stroke:#bcbd22;" x="118.095723" xlink:href="#m78a1ba84e3" y="186.624"/>
     <use style="fill:#bcbd22;stroke:#bcbd22;" x="209.563336" xlink:href="#m78a1ba84e3" y="124.416"/>
    </g>
   </g>
   <g id="line2d_10">
    <path clip-path="url(#p357e56f1ff)" d="M 36.864 241.870473 
L 368.64 16.226437 
" style="fill:none;stroke:#17becf;stroke-linecap:square;stroke-width:1.5;"/>
   </g>
   <g id="patch_3">
    <path d="M 36.864 248.832 
L 36.864 0 
" style="fill:none;stroke:#000000;stroke-linecap:square;stroke-linejoin:miter;stroke-width:0.8;"/>
   </g>
   <g id="patch_4">
    <path d="M 36.864 248.832 
L 368.64 248.832 
" style="fill:none;stroke:#000000;stroke-linecap:square;stroke-linejoin:miter;stroke-width:0.8;"/>
   </g>
  </g>
 </g>
 <defs>
  <clipPath id="p357e56f1ff">
   <rect height="248.832" width="331.776" x="36.864" y="0"/>
  </clipPath>
 </defs>
</svg>
