<?xml version="1.0" encoding="utf-8" standalone="no"?>
<!DOCTYPE svg PUBLIC "-//W3C//DTD SVG 1.1//EN"
  "http://www.w3.org/Graphics/SVG/1.1/DTD/svg11.dtd">
<!-- Created with matplotlib (https://matplotlib.org/) -->
<svg height="288pt" version="1.1" viewBox="0 0 432 288" width="432pt" xmlns="http://www.w3.org/2000/svg" xmlns:xlink="http://www.w3.org/1999/xlink">
 <defs>
  <style type="text/css">
*{stroke-linecap:butt;stroke-linejoin:round;white-space:pre;}
  </style>
 </defs>
 <g id="figure_1">
  <g id="patch_1">
   <path d="M 0 288 
L 432 288 
L 432 0 
L 0 0 
z
" style="fill:none;"/>
  </g>
  <g id="axes_1">
   <g id="patch_2">
    <path d="M 43.2 259.2 
L 432 259.2 
L 432 0 
L 43.2 0 
z
" style="fill:none;"/>
   </g>
   <g id="matplotlib.axis_1">
    <g id="text_1">
     <!-- x -->
     <defs>
      <path d="M 22.21875 27.984375 
L 2.484375 54.6875 
L 21 54.6875 
L 32.171875 38.484375 
L 43.5 54.6875 
L 62.015625 54.6875 
L 42.28125 28.078125 
L 62.984375 0 
L 44.484375 0 
L 32.171875 17.28125 
L 20.015625 0 
L 1.515625 0 
z
" id="DejaVuSans-Bold-120"/>
     </defs>
     <g transform="translate(232.44 275.3575)scale(0.16 -0.16)">
      <use xlink:href="#DejaVuSans-Bold-120"/>
     </g>
    </g>
   </g>
   <g id="matplotlib.axis_2">
    <g id="text_2">
     <!-- y -->
     <defs>
      <path d="M 1.21875 54.6875 
L 18.703125 54.6875 
L 33.40625 17.578125 
L 45.90625 54.6875 
L 63.375 54.6875 
L 40.375 -5.171875 
Q 36.921875 -14.3125 32.296875 -17.9375 
Q 27.6875 -21.578125 20.125 -21.578125 
L 10.015625 -21.578125 
L 10.015625 -10.109375 
L 15.484375 -10.109375 
Q 19.921875 -10.109375 21.9375 -8.6875 
Q 23.96875 -7.28125 25.09375 -3.609375 
L 25.59375 -2.09375 
z
" id="DejaVuSans-Bold-121"/>
     </defs>
     <g transform="translate(35.7475 134.815)rotate(-90)scale(0.16 -0.16)">
      <use xlink:href="#DejaVuSans-Bold-121"/>
     </g>
    </g>
   </g>
   <g id="line2d_1">
    <defs>
     <path d="M 0 3 
C 0.795609 3 1.55874 2.683901 2.12132 2.12132 
C 2.683901 1.55874 3 0.795609 3 0 
C 3 -0.795609 2.683901 -1.55874 2.12132 -2.12132 
C 1.55874 -2.683901 0.795609 -3 0 -3 
C -0.795609 -3 -1.55874 -2.683901 -2.12132 -2.12132 
C -2.683901 -1.55874 -3 -0.795609 -3 0 
C -3 0.795609 -2.683901 1.55874 -2.12132 2.12132 
C -1.55874 2.683901 -0.795609 3 0 3 
z
" id="m3a96a8b3c1" style="stroke:#1f77b4;"/>
    </defs>
    <g clip-path="url(#pc1e26da363)">
     <use style="fill:#1f77b4;stroke:#1f77b4;" x="174.693178" xlink:href="#m3a96a8b3c1" y="194.4"/>
     <use style="fill:#1f77b4;stroke:#1f77b4;" x="245.379056" xlink:href="#m3a96a8b3c1" y="129.6"/>
    </g>
   </g>
   <g id="line2d_2">
    <path clip-path="url(#pc1e26da363)" d="M 71.500522 289 
L 387.841645 -1 
" style="fill:none;stroke:#ff7f0e;stroke-linecap:square;stroke-width:1.5;"/>
   </g>
   <g id="line2d_3">
    <defs>
     <path d="M 0 3 
C 0.795609 3 1.55874 2.683901 2.12132 2.12132 
C 2.683901 1.55874 3 0.795609 3 0 
C 3 -0.795609 2.683901 -1.55874 2.12132 -2.12132 
C 1.55874 -2.683901 0.795609 -3 0 -3 
C -0.795609 -3 -1.55874 -2.683901 -2.12132 -2.12132 
C -2.683901 -1.55874 -3 -0.795609 -3 0 
C -3 0.795609 -2.683901 1.55874 -2.12132 2.12132 
C -1.55874 2.683901 -0.795609 3 0 3 
z
" id="ma1e5742440" style="stroke:#2ca02c;"/>
    </defs>
    <g clip-path="url(#pc1e26da363)">
     <use style="fill:#2ca02c;stroke:#2ca02c;" x="159.426666" xlink:href="#ma1e5742440" y="194.4"/>
     <use style="fill:#2ca02c;stroke:#2ca02c;" x="281.162964" xlink:href="#ma1e5742440" y="129.6"/>
    </g>
   </g>
   <g id="line2d_4">
    <path clip-path="url(#pc1e26da363)" d="M 43.2 256.267234 
L 432 49.309732 
" style="fill:none;stroke:#d62728;stroke-linecap:square;stroke-width:1.5;"/>
   </g>
   <g id="line2d_5">
    <defs>
     <path d="M 0 3 
C 0.795609 3 1.55874 2.683901 2.12132 2.12132 
C 2.683901 1.55874 3 0.795609 3 0 
C 3 -0.795609 2.683901 -1.55874 2.12132 -2.12132 
C 1.55874 -2.683901 0.795609 -3 0 -3 
C -0.795609 -3 -1.55874 -2.683901 -2.12132 -2.12132 
C -2.683901 -1.55874 -3 -0.795609 -3 0 
C -3 0.795609 -2.683901 1.55874 -2.12132 2.12132 
C -1.55874 2.683901 -0.795609 3 0 3 
z
" id="mc28386078e" style="stroke:#9467bd;"/>
    </defs>
    <g clip-path="url(#pc1e26da363)">
     <use style="fill:#9467bd;stroke:#9467bd;" x="176.705327" xlink:href="#mc28386078e" y="194.4"/>
     <use style="fill:#9467bd;stroke:#9467bd;" x="218.601718" xlink:href="#mc28386078e" y="129.6"/>
    </g>
   </g>
   <g id="line2d_6">
    <path clip-path="url(#pc1e26da363)" d="M 115.541769 289 
L 303.041049 -1 
" style="fill:none;stroke:#8c564b;stroke-linecap:square;stroke-width:1.5;"/>
   </g>
   <g id="line2d_7">
    <defs>
     <path d="M 0 3 
C 0.795609 3 1.55874 2.683901 2.12132 2.12132 
C 2.683901 1.55874 3 0.795609 3 0 
C 3 -0.795609 2.683901 -1.55874 2.12132 -2.12132 
C 1.55874 -2.683901 0.795609 -3 0 -3 
C -0.795609 -3 -1.55874 -2.683901 -2.12132 -2.12132 
C -2.683901 -1.55874 -3 -0.795609 -3 0 
C -3 0.795609 -2.683901 1.55874 -2.12132 2.12132 
C -1.55874 2.683901 -0.795609 3 0 3 
z
" id="meb15186e5f" style="stroke:#e377c2;"/>
    </defs>
    <g clip-path="url(#pc1e26da363)">
     <use style="fill:#e377c2;stroke:#e377c2;" x="158.869719" xlink:href="#meb15186e5f" y="194.4"/>
     <use style="fill:#e377c2;stroke:#e377c2;" x="234.657616" xlink:href="#meb15186e5f" y="129.6"/>
    </g>
   </g>
   <g id="line2d_8">
    <path clip-path="url(#pc1e26da363)" d="M 48.228746 289 
L 387.402976 -1 
" style="fill:none;stroke:#7f7f7f;stroke-linecap:square;stroke-width:1.5;"/>
   </g>
   <g id="line2d_9">
    <defs>
     <path d="M 0 3 
C 0.795609 3 1.55874 2.683901 2.12132 2.12132 
C 2.683901 1.55874 3 0.795609 3 0 
C 3 -0.795609 2.683901 -1.55874 2.12132 -2.12132 
C 1.55874 -2.683901 0.795609 -3 0 -3 
C -0.795609 -3 -1.55874 -2.683901 -2.12132 -2.12132 
C -2.683901 -1.55874 -3 -0.795609 -3 0 
C -3 0.795609 -2.683901 1.55874 -2.12132 2.12132 
C -1.55874 2.683901 -0.795609 3 0 3 
z
" id="md5fe0b7906" style="stroke:#bcbd22;"/>
    </defs>
    <g clip-path="url(#pc1e26da363)">
     <use style="fill:#bcbd22;stroke:#bcbd22;" x="138.393426" xlink:href="#md5fe0b7906" y="194.4"/>
     <use style="fill:#bcbd22;stroke:#bcbd22;" x="245.582035" xlink:href="#md5fe0b7906" y="129.6"/>
    </g>
   </g>
   <g id="line2d_10">
    <path clip-path="url(#pc1e26da363)" d="M 43.2 251.948409 
L 432 16.902539 
" style="fill:none;stroke:#17becf;stroke-linecap:square;stroke-width:1.5;"/>
   </g>
   <g id="line2d_11">
    <g clip-path="url(#pc1e26da363)">
     <use style="fill:#1f77b4;stroke:#1f77b4;" x="143.200207" xlink:href="#m3a96a8b3c1" y="194.4"/>
     <use style="fill:#1f77b4;stroke:#1f77b4;" x="265.871077" xlink:href="#m3a96a8b3c1" y="129.6"/>
    </g>
   </g>
   <g id="line2d_12">
    <path clip-path="url(#pc1e26da363)" d="M 43.2 247.224386 
L 432 41.843598 
" style="fill:none;stroke:#ff7f0e;stroke-linecap:square;stroke-width:1.5;"/>
   </g>
   <g id="patch_3">
    <path d="M 43.2 259.2 
L 43.2 0 
" style="fill:none;stroke:#000000;stroke-linecap:square;stroke-linejoin:miter;stroke-width:0.8;"/>
   </g>
   <g id="patch_4">
    <path d="M 43.2 259.2 
L 432 259.2 
" style="fill:none;stroke:#000000;stroke-linecap:square;stroke-linejoin:miter;stroke-width:0.8;"/>
   </g>
  </g>
 </g>
 <defs>
  <clipPath id="pc1e26da363">
   <rect height="259.2" width="388.8" x="43.2" y="0"/>
  </clipPath>
 </defs>
</svg>
