<?xml version="1.0" encoding="utf-8" standalone="no"?>
<!DOCTYPE svg PUBLIC "-//W3C//DTD SVG 1.1//EN"
  "http://www.w3.org/Graphics/SVG/1.1/DTD/svg11.dtd">
<!-- Created with matplotlib (https://matplotlib.org/) -->
<svg height="276.48pt" version="1.1" viewBox="0 0 368.64 276.48" width="368.64pt" xmlns="http://www.w3.org/2000/svg" xmlns:xlink="http://www.w3.org/1999/xlink">
 <defs>
  <style type="text/css">
*{stroke-linecap:butt;stroke-linejoin:round;}
  </style>
 </defs>
 <g id="figure_1">
  <g id="patch_1">
   <path d="M 0 276.48 
L 368.64 276.48 
L 368.64 0 
L 0 0 
z
" style="fill:none;"/>
  </g>
  <g id="axes_1">
   <g id="patch_2">
    <path d="M 36.864 248.832 
L 368.64 248.832 
L 368.64 0 
L 36.864 0 
z
" style="fill:none;"/>
   </g>
   <g id="matplotlib.axis_1">
    <g id="text_1">
     <!-- x -->
     <defs>
      <path d="M 22.21875 27.984375 
L 2.484375 54.6875 
L 21 54.6875 
L 32.171875 38.484375 
L 43.5 54.6875 
L 62.015625 54.6875 
L 42.28125 28.078125 
L 62.984375 0 
L 44.484375 0 
L 32.171875 17.28125 
L 20.015625 0 
L 1.515625 0 
z
" id="DejaVuSans-Bold-120"/>
     </defs>
     <g transform="translate(197.592 264.9895)scale(0.16 -0.16)">
      <use xlink:href="#DejaVuSans-Bold-120"/>
     </g>
    </g>
   </g>
   <g id="matplotlib.axis_2">
    <g id="text_2">
     <!-- y -->
     <defs>
      <path d="M 1.21875 54.6875 
L 18.703125 54.6875 
L 33.40625 17.578125 
L 45.90625 54.6875 
L 63.375 54.6875 
L 40.375 -5.171875 
Q 36.921875 -14.3125 32.296875 -17.9375 
Q 27.6875 -21.578125 20.125 -21.578125 
L 10.015625 -21.578125 
L 10.015625 -10.109375 
L 15.484375 -10.109375 
Q 19.921875 -10.109375 21.9375 -8.6875 
Q 23.96875 -7.28125 25.09375 -3.609375 
L 25.59375 -2.09375 
z
" id="DejaVuSans-Bold-121"/>
     </defs>
     <g transform="translate(29.4115 129.631)rotate(-90)scale(0.16 -0.16)">
      <use xlink:href="#DejaVuSans-Bold-121"/>
     </g>
    </g>
   </g>
   <g id="line2d_1">
    <defs>
     <path d="M 0 3 
C 0.795609 3 1.55874 2.683901 2.12132 2.12132 
C 2.683901 1.55874 3 0.795609 3 0 
C 3 -0.795609 2.683901 -1.55874 2.12132 -2.12132 
C 1.55874 -2.683901 0.795609 -3 0 -3 
C -0.795609 -3 -1.55874 -2.683901 -2.12132 -2.12132 
C -2.683901 -1.55874 -3 -0.795609 -3 0 
C -3 0.795609 -2.683901 1.55874 -2.12132 2.12132 
C -1.55874 2.683901 -0.795609 3 0 3 
z
" id="m1dbf55b8c4" style="stroke:#1f77b4;"/>
    </defs>
    <g clip-path="url(#pbf66a6c2cb)">
     <use style="fill:#1f77b4;stroke:#1f77b4;" x="149.071512" xlink:href="#m1dbf55b8c4" y="186.624"/>
     <use style="fill:#1f77b4;stroke:#1f77b4;" x="209.390128" xlink:href="#m1dbf55b8c4" y="124.416"/>
    </g>
   </g>
   <g id="line2d_2">
    <path clip-path="url(#pbf66a6c2cb)" d="M 60.974993 277.48 
L 330.996989 -1 
" style="fill:none;stroke:#ff7f0e;stroke-linecap:square;stroke-width:1.5;"/>
   </g>
   <g id="line2d_3">
    <defs>
     <path d="M 0 3 
C 0.795609 3 1.55874 2.683901 2.12132 2.12132 
C 2.683901 1.55874 3 0.795609 3 0 
C 3 -0.795609 2.683901 -1.55874 2.12132 -2.12132 
C 1.55874 -2.683901 0.795609 -3 0 -3 
C -0.795609 -3 -1.55874 -2.683901 -2.12132 -2.12132 
C -2.683901 -1.55874 -3 -0.795609 -3 0 
C -3 0.795609 -2.683901 1.55874 -2.12132 2.12132 
C -1.55874 2.683901 -0.795609 3 0 3 
z
" id="m782c077ca4" style="stroke:#2ca02c;"/>
    </defs>
    <g clip-path="url(#pbf66a6c2cb)">
     <use style="fill:#2ca02c;stroke:#2ca02c;" x="136.044089" xlink:href="#m782c077ca4" y="186.624"/>
     <use style="fill:#2ca02c;stroke:#2ca02c;" x="239.925729" xlink:href="#m782c077ca4" y="124.416"/>
    </g>
   </g>
   <g id="line2d_4">
    <path clip-path="url(#pbf66a6c2cb)" d="M 36.864 246.016545 
L 368.64 47.337343 
" style="fill:none;stroke:#d62728;stroke-linecap:square;stroke-width:1.5;"/>
   </g>
   <g id="line2d_5">
    <defs>
     <path d="M 0 3 
C 0.795609 3 1.55874 2.683901 2.12132 2.12132 
C 2.683901 1.55874 3 0.795609 3 0 
C 3 -0.795609 2.683901 -1.55874 2.12132 -2.12132 
C 1.55874 -2.683901 0.795609 -3 0 -3 
C -0.795609 -3 -1.55874 -2.683901 -2.12132 -2.12132 
C -2.683901 -1.55874 -3 -0.795609 -3 0 
C -3 0.795609 -2.683901 1.55874 -2.12132 2.12132 
C -1.55874 2.683901 -0.795609 3 0 3 
z
" id="m33c1bc6e65" style="stroke:#9467bd;"/>
    </defs>
    <g clip-path="url(#pbf66a6c2cb)">
     <use style="fill:#9467bd;stroke:#9467bd;" x="150.788546" xlink:href="#m33c1bc6e65" y="186.624"/>
     <use style="fill:#9467bd;stroke:#9467bd;" x="186.540133" xlink:href="#m33c1bc6e65" y="124.416"/>
    </g>
   </g>
   <g id="line2d_6">
    <path clip-path="url(#pbf66a6c2cb)" d="M 98.572655 277.48 
L 258.618017 -1 
" style="fill:none;stroke:#8c564b;stroke-linecap:square;stroke-width:1.5;"/>
   </g>
   <g id="line2d_7">
    <defs>
     <path d="M 0 3 
C 0.795609 3 1.55874 2.683901 2.12132 2.12132 
C 2.683901 1.55874 3 0.795609 3 0 
C 3 -0.795609 2.683901 -1.55874 2.12132 -2.12132 
C 1.55874 -2.683901 0.795609 -3 0 -3 
C -0.795609 -3 -1.55874 -2.683901 -2.12132 -2.12132 
C -2.683901 -1.55874 -3 -0.795609 -3 0 
C -3 0.795609 -2.683901 1.55874 -2.12132 2.12132 
C -1.55874 2.683901 -0.795609 3 0 3 
z
" id="m38138947e0" style="stroke:#e377c2;"/>
    </defs>
    <g clip-path="url(#pbf66a6c2cb)">
     <use style="fill:#e377c2;stroke:#e377c2;" x="135.568827" xlink:href="#m38138947e0" y="186.624"/>
     <use style="fill:#e377c2;stroke:#e377c2;" x="200.241166" xlink:href="#m38138947e0" y="124.416"/>
    </g>
   </g>
   <g id="line2d_8">
    <path clip-path="url(#pbf66a6c2cb)" d="M 41.113612 277.48 
L 330.625458 -1 
" style="fill:none;stroke:#7f7f7f;stroke-linecap:square;stroke-width:1.5;"/>
   </g>
   <g id="line2d_9">
    <defs>
     <path d="M 0 3 
C 0.795609 3 1.55874 2.683901 2.12132 2.12132 
C 2.683901 1.55874 3 0.795609 3 0 
C 3 -0.795609 2.683901 -1.55874 2.12132 -2.12132 
C 1.55874 -2.683901 0.795609 -3 0 -3 
C -0.795609 -3 -1.55874 -2.683901 -2.12132 -2.12132 
C -2.683901 -1.55874 -3 -0.795609 -3 0 
C -3 0.795609 -2.683901 1.55874 -2.12132 2.12132 
C -1.55874 2.683901 -0.795609 3 0 3 
z
" id="m36e72a904d" style="stroke:#bcbd22;"/>
    </defs>
    <g clip-path="url(#pbf66a6c2cb)">
     <use style="fill:#bcbd22;stroke:#bcbd22;" x="118.095723" xlink:href="#m36e72a904d" y="186.624"/>
     <use style="fill:#bcbd22;stroke:#bcbd22;" x="209.563336" xlink:href="#m36e72a904d" y="124.416"/>
    </g>
   </g>
   <g id="line2d_10">
    <path clip-path="url(#pbf66a6c2cb)" d="M 36.864 241.870473 
L 368.64 16.226437 
" style="fill:none;stroke:#17becf;stroke-linecap:square;stroke-width:1.5;"/>
   </g>
   <g id="line2d_11">
    <g clip-path="url(#pbf66a6c2cb)">
     <use style="fill:#1f77b4;stroke:#1f77b4;" x="122.19751" xlink:href="#m1dbf55b8c4" y="186.624"/>
     <use style="fill:#1f77b4;stroke:#1f77b4;" x="226.876652" xlink:href="#m1dbf55b8c4" y="124.416"/>
    </g>
   </g>
   <g id="line2d_12">
    <path clip-path="url(#pbf66a6c2cb)" d="M 36.864 237.335411 
L 368.64 40.169854 
" style="fill:none;stroke:#ff7f0e;stroke-linecap:square;stroke-width:1.5;"/>
   </g>
   <g id="patch_3">
    <path d="M 36.864 248.832 
L 36.864 0 
" style="fill:none;stroke:#000000;stroke-linecap:square;stroke-linejoin:miter;stroke-width:0.8;"/>
   </g>
   <g id="patch_4">
    <path d="M 36.864 248.832 
L 368.64 248.832 
" style="fill:none;stroke:#000000;stroke-linecap:square;stroke-linejoin:miter;stroke-width:0.8;"/>
   </g>
  </g>
 </g>
 <defs>
  <clipPath id="pbf66a6c2cb">
   <rect height="248.832" width="331.776" x="36.864" y="0"/>
  </clipPath>
 </defs>
</svg>
