<?xml version="1.0" encoding="utf-8" standalone="no"?>
<!DOCTYPE svg PUBLIC "-//W3C//DTD SVG 1.1//EN"
  "http://www.w3.org/Graphics/SVG/1.1/DTD/svg11.dtd">
<!-- Created with matplotlib (https://matplotlib.org/) -->
<svg height="172.8pt" version="1.1" viewBox="0 0 230.4 172.8" width="230.4pt" xmlns="http://www.w3.org/2000/svg" xmlns:xlink="http://www.w3.org/1999/xlink">
 <defs>
  <style type="text/css">
*{stroke-linecap:butt;stroke-linejoin:round;}
  </style>
 </defs>
 <g id="figure_1">
  <g id="patch_1">
   <path d="M 0 172.8 
L 230.4 172.8 
L 230.4 0 
L 0 0 
z
" style="fill:none;"/>
  </g>
  <g id="axes_1">
   <g id="patch_2">
    <path d="M 23.04 155.52 
L 230.4 155.52 
L 230.4 0 
L 23.04 0 
z
" style="fill:none;"/>
   </g>
   <g id="PathCollection_1">
    <defs>
     <path d="M 0 1.5 
C 0.397805 1.5 0.77937 1.341951 1.06066 1.06066 
C 1.341951 0.77937 1.5 0.397805 1.5 0 
C 1.5 -0.397805 1.341951 -0.77937 1.06066 -1.06066 
C 0.77937 -1.341951 0.397805 -1.5 0 -1.5 
C -0.397805 -1.5 -0.77937 -1.341951 -1.06066 -1.06066 
C -1.341951 -0.77937 -1.5 -0.397805 -1.5 0 
C -1.5 0.397805 -1.341951 0.77937 -1.06066 1.06066 
C -0.77937 1.341951 -0.397805 1.5 0 1.5 
z
" id="m1590d66af0" style="stroke:#000000;"/>
    </defs>
    <g clip-path="url(#p2be4236bc2)">
     <use style="stroke:#000000;" x="136.841968" xlink:href="#m1590d66af0" y="133.553556"/>
     <use style="stroke:#000000;" x="171.341667" xlink:href="#m1590d66af0" y="62.219872"/>
     <use style="stroke:#000000;" x="148.029014" xlink:href="#m1590d66af0" y="110.194639"/>
     <use style="stroke:#000000;" x="136.026977" xlink:href="#m1590d66af0" y="106.564365"/>
     <use style="stroke:#000000;" x="110.889059" xlink:href="#m1590d66af0" y="119.38064"/>
     <use style="stroke:#000000;" x="156.972603" xlink:href="#m1590d66af0" y="84.52411"/>
     <use style="stroke:#000000;" x="113.778084" xlink:href="#m1590d66af0" y="127.533696"/>
     <use style="stroke:#000000;" x="207.958049" xlink:href="#m1590d66af0" y="114.470666"/>
     <use style="stroke:#000000;" x="222.86511" xlink:href="#m1590d66af0" y="131.549866"/>
     <use style="stroke:#000000;" x="102.550433" xlink:href="#m1590d66af0" y="83.201506"/>
     <use style="stroke:#000000;" x="187.212104" xlink:href="#m1590d66af0" y="117.124188"/>
     <use style="stroke:#000000;" x="132.711651" xlink:href="#m1590d66af0" y="121.69881"/>
     <use style="stroke:#000000;" x="140.82972" xlink:href="#m1590d66af0" y="98.734017"/>
     <use style="stroke:#000000;" x="214.971719" xlink:href="#m1590d66af0" y="102.136253"/>
     <use style="stroke:#000000;" x="37.770037" xlink:href="#m1590d66af0" y="78.567426"/>
     <use style="stroke:#000000;" x="41.107132" xlink:href="#m1590d66af0" y="74.160752"/>
     <use style="stroke:#000000;" x="27.232487" xlink:href="#m1590d66af0" y="91.546004"/>
     <use style="stroke:#000000;" x="195.692051" xlink:href="#m1590d66af0" y="115.484324"/>
     <use style="stroke:#000000;" x="184.398584" xlink:href="#m1590d66af0" y="120.050338"/>
     <use style="stroke:#000000;" x="203.445719" xlink:href="#m1590d66af0" y="116.78325"/>
     <use style="stroke:#000000;" x="225.966299" xlink:href="#m1590d66af0" y="130.3538"/>
     <use style="stroke:#000000;" x="188.75352" xlink:href="#m1590d66af0" y="143.125435"/>
     <use style="stroke:#000000;" x="118.732361" xlink:href="#m1590d66af0" y="90.48747"/>
     <use style="stroke:#000000;" x="184.89053" xlink:href="#m1590d66af0" y="114.407204"/>
     <use style="stroke:#000000;" x="47.565385" xlink:href="#m1590d66af0" y="116.210243"/>
     <use style="stroke:#000000;" x="155.734023" xlink:href="#m1590d66af0" y="90.967678"/>
     <use style="stroke:#000000;" x="52.765738" xlink:href="#m1590d66af0" y="101.824116"/>
     <use style="stroke:#000000;" x="218.926547" xlink:href="#m1590d66af0" y="110.80067"/>
     <use style="stroke:#000000;" x="131.250468" xlink:href="#m1590d66af0" y="81.015701"/>
     <use style="stroke:#000000;" x="109.0243" xlink:href="#m1590d66af0" y="89.802103"/>
     <use style="stroke:#000000;" x="77.898252" xlink:href="#m1590d66af0" y="62.927994"/>
     <use style="stroke:#000000;" x="183.585098" xlink:href="#m1590d66af0" y="131.811305"/>
     <use style="stroke:#000000;" x="117.627333" xlink:href="#m1590d66af0" y="85.531652"/>
     <use style="stroke:#000000;" x="140.910464" xlink:href="#m1590d66af0" y="112.647951"/>
     <use style="stroke:#000000;" x="26.936253" xlink:href="#m1590d66af0" y="96.499578"/>
     <use style="stroke:#000000;" x="151.112897" xlink:href="#m1590d66af0" y="112.202898"/>
     <use style="stroke:#000000;" x="149.964169" xlink:href="#m1590d66af0" y="106.342231"/>
     <use style="stroke:#000000;" x="150.967434" xlink:href="#m1590d66af0" y="98.735067"/>
     <use style="stroke:#000000;" x="218.735602" xlink:href="#m1590d66af0" y="136.530872"/>
     <use style="stroke:#000000;" x="164.422257" xlink:href="#m1590d66af0" y="83.226127"/>
     <use style="stroke:#000000;" x="97.587558" xlink:href="#m1590d66af0" y="80.659695"/>
     <use style="stroke:#000000;" x="113.662946" xlink:href="#m1590d66af0" y="125.869598"/>
     <use style="stroke:#000000;" x="167.700805" xlink:href="#m1590d66af0" y="71.369087"/>
     <use style="stroke:#000000;" x="35.528354" xlink:href="#m1590d66af0" y="39.447662"/>
     <use style="stroke:#000000;" x="161.300746" xlink:href="#m1590d66af0" y="76.792233"/>
     <use style="stroke:#000000;" x="162.103469" xlink:href="#m1590d66af0" y="105.695175"/>
     <use style="stroke:#000000;" x="66.664928" xlink:href="#m1590d66af0" y="107.733588"/>
     <use style="stroke:#000000;" x="49.774157" xlink:href="#m1590d66af0" y="59.769977"/>
     <use style="stroke:#000000;" x="88.447223" xlink:href="#m1590d66af0" y="97.44078"/>
     <use style="stroke:#000000;" x="98.459065" xlink:href="#m1590d66af0" y="64.793467"/>
    </g>
   </g>
   <g id="matplotlib.axis_1">
    <g id="text_1">
     <!-- x -->
     <defs>
      <path d="M 22.21875 27.984375 
L 2.484375 54.6875 
L 21 54.6875 
L 32.171875 38.484375 
L 43.5 54.6875 
L 62.015625 54.6875 
L 42.28125 28.078125 
L 62.984375 0 
L 44.484375 0 
L 32.171875 17.28125 
L 20.015625 0 
L 1.515625 0 
z
" id="DejaVuSans-Bold-120"/>
     </defs>
     <g transform="translate(121.56 171.6775)scale(0.16 -0.16)">
      <use xlink:href="#DejaVuSans-Bold-120"/>
     </g>
    </g>
   </g>
   <g id="matplotlib.axis_2">
    <g id="text_2">
     <!-- y -->
     <defs>
      <path d="M 1.21875 54.6875 
L 18.703125 54.6875 
L 33.40625 17.578125 
L 45.90625 54.6875 
L 63.375 54.6875 
L 40.375 -5.171875 
Q 36.921875 -14.3125 32.296875 -17.9375 
Q 27.6875 -21.578125 20.125 -21.578125 
L 10.015625 -21.578125 
L 10.015625 -10.109375 
L 15.484375 -10.109375 
Q 19.921875 -10.109375 21.9375 -8.6875 
Q 23.96875 -7.28125 25.09375 -3.609375 
L 25.59375 -2.09375 
z
" id="DejaVuSans-Bold-121"/>
     </defs>
     <g transform="translate(15.5875 82.975)rotate(-90)scale(0.16 -0.16)">
      <use xlink:href="#DejaVuSans-Bold-121"/>
     </g>
    </g>
   </g>
   <g id="line2d_1">
    <path clip-path="url(#p2be4236bc2)" d="M 23.04 77.532269 
L 230.4 120.579156 
" style="fill:none;stroke:#1f77b4;stroke-linecap:square;stroke-width:3;"/>
   </g>
   <g id="patch_3">
    <path d="M 23.04 155.52 
L 23.04 0 
" style="fill:none;stroke:#000000;stroke-linecap:square;stroke-linejoin:miter;stroke-width:0.8;"/>
   </g>
   <g id="patch_4">
    <path d="M 23.04 155.52 
L 230.4 155.52 
" style="fill:none;stroke:#000000;stroke-linecap:square;stroke-linejoin:miter;stroke-width:0.8;"/>
   </g>
  </g>
 </g>
 <defs>
  <clipPath id="p2be4236bc2">
   <rect height="155.52" width="207.36" x="23.04" y="0"/>
  </clipPath>
 </defs>
</svg>
