<?xml version="1.0" encoding="utf-8" standalone="no"?>
<!DOCTYPE svg PUBLIC "-//W3C//DTD SVG 1.1//EN"
  "http://www.w3.org/Graphics/SVG/1.1/DTD/svg11.dtd">
<!-- Created with matplotlib (https://matplotlib.org/) -->
<svg height="216pt" version="1.1" viewBox="0 0 288 216" width="288pt" xmlns="http://www.w3.org/2000/svg" xmlns:xlink="http://www.w3.org/1999/xlink">
 <defs>
  <style type="text/css">
*{stroke-linecap:butt;stroke-linejoin:round;white-space:pre;}
  </style>
 </defs>
 <g id="figure_1">
  <g id="patch_1">
   <path d="M 0 216 
L 288 216 
L 288 0 
L 0 0 
z
" style="fill:#ffffff;"/>
  </g>
  <g id="axes_1">
   <g id="patch_2">
    <path d="M 28.8 194.4 
L 288 194.4 
L 288 0 
L 28.8 0 
z
" style="fill:none;"/>
   </g>
   <g id="PathCollection_1">
    <defs>
     <path d="M 0 1.5 
C 0.397805 1.5 0.77937 1.341951 1.06066 1.06066 
C 1.341951 0.77937 1.5 0.397805 1.5 0 
C 1.5 -0.397805 1.341951 -0.77937 1.06066 -1.06066 
C 0.77937 -1.341951 0.397805 -1.5 0 -1.5 
C -0.397805 -1.5 -0.77937 -1.341951 -1.06066 -1.06066 
C -1.341951 -0.77937 -1.5 -0.397805 -1.5 0 
C -1.5 0.397805 -1.341951 0.77937 -1.06066 1.06066 
C -0.77937 1.341951 -0.397805 1.5 0 1.5 
z
" id="mb5f0c43560" style="stroke:#000000;"/>
    </defs>
    <g clip-path="url(#p55cf8240e9)">
     <use style="stroke:#000000;" x="169.902237" xlink:href="#mb5f0c43560" y="75.203584"/>
     <use style="stroke:#000000;" x="209.10644" xlink:href="#mb5f0c43560" y="86.182092"/>
     <use style="stroke:#000000;" x="182.614788" xlink:href="#mb5f0c43560" y="90.485206"/>
     <use style="stroke:#000000;" x="168.97611" xlink:href="#mb5f0c43560" y="119.380277"/>
     <use style="stroke:#000000;" x="140.410295" xlink:href="#mb5f0c43560" y="166.026049"/>
     <use style="stroke:#000000;" x="192.777958" xlink:href="#mb5f0c43560" y="78.799235"/>
     <use style="stroke:#000000;" x="143.693277" xlink:href="#mb5f0c43560" y="100.714671"/>
     <use style="stroke:#000000;" x="250.715965" xlink:href="#mb5f0c43560" y="74.270466"/>
     <use style="stroke:#000000;" x="267.655807" xlink:href="#mb5f0c43560" y="9.314903"/>
     <use style="stroke:#000000;" x="130.934583" xlink:href="#mb5f0c43560" y="150.573442"/>
     <use style="stroke:#000000;" x="227.141027" xlink:href="#mb5f0c43560" y="72.020359"/>
     <use style="stroke:#000000;" x="165.208694" xlink:href="#mb5f0c43560" y="108.955126"/>
     <use style="stroke:#000000;" x="174.433773" xlink:href="#mb5f0c43560" y="72.098177"/>
     <use style="stroke:#000000;" x="258.686044" xlink:href="#mb5f0c43560" y="28.928361"/>
     <use style="stroke:#000000;" x="57.320497" xlink:href="#mb5f0c43560" y="159.381143"/>
     <use style="stroke:#000000;" x="61.11265" xlink:href="#mb5f0c43560" y="153.231932"/>
     <use style="stroke:#000000;" x="45.346008" xlink:href="#mb5f0c43560" y="185.085097"/>
     <use style="stroke:#000000;" x="236.777331" xlink:href="#mb5f0c43560" y="104.653136"/>
     <use style="stroke:#000000;" x="223.943845" xlink:href="#mb5f0c43560" y="81.027809"/>
     <use style="stroke:#000000;" x="245.588317" xlink:href="#mb5f0c43560" y="60.252237"/>
    </g>
   </g>
   <g id="matplotlib.axis_1">
    <g id="text_1">
     <!-- x -->
     <defs>
      <path d="M 22.21875 27.984375 
L 2.484375 54.6875 
L 21 54.6875 
L 32.171875 38.484375 
L 43.5 54.6875 
L 62.015625 54.6875 
L 42.28125 28.078125 
L 62.984375 0 
L 44.484375 0 
L 32.171875 17.28125 
L 20.015625 0 
L 1.515625 0 
z
" id="DejaVuSans-Bold-120"/>
     </defs>
     <g transform="translate(153.24 210.5575)scale(0.16 -0.16)">
      <use xlink:href="#DejaVuSans-Bold-120"/>
     </g>
    </g>
   </g>
   <g id="matplotlib.axis_2">
    <g id="text_2">
     <!-- y -->
     <defs>
      <path d="M 1.21875 54.6875 
L 18.703125 54.6875 
L 33.40625 17.578125 
L 45.90625 54.6875 
L 63.375 54.6875 
L 40.375 -5.171875 
Q 36.921875 -14.3125 32.296875 -17.9375 
Q 27.6875 -21.578125 20.125 -21.578125 
L 10.015625 -21.578125 
L 10.015625 -10.109375 
L 15.484375 -10.109375 
Q 19.921875 -10.109375 21.9375 -8.6875 
Q 23.96875 -7.28125 25.09375 -3.609375 
L 25.59375 -2.09375 
z
" id="DejaVuSans-Bold-121"/>
     </defs>
     <g transform="translate(21.3475 102.415)rotate(-90)scale(0.16 -0.16)">
      <use xlink:href="#DejaVuSans-Bold-121"/>
     </g>
    </g>
   </g>
   <g id="line2d_1">
    <path clip-path="url(#p55cf8240e9)" d="M 169.902237 103.459831 
L 169.902237 75.203584 
" style="fill:none;stroke:#ff0000;stroke-linecap:square;"/>
   </g>
   <g id="line2d_2">
    <path clip-path="url(#p55cf8240e9)" d="M 209.10644 79.928982 
L 209.10644 86.182092 
" style="fill:none;stroke:#ff0000;stroke-linecap:square;"/>
   </g>
   <g id="line2d_3">
    <path clip-path="url(#p55cf8240e9)" d="M 182.614788 95.8296 
L 182.614788 90.485206 
" style="fill:none;stroke:#ff0000;stroke-linecap:square;"/>
   </g>
   <g id="line2d_4">
    <path clip-path="url(#p55cf8240e9)" d="M 168.97611 104.015704 
L 168.97611 119.380277 
" style="fill:none;stroke:#ff0000;stroke-linecap:square;"/>
   </g>
   <g id="line2d_5">
    <path clip-path="url(#p55cf8240e9)" d="M 140.410295 121.161261 
L 140.410295 166.026049 
" style="fill:none;stroke:#ff0000;stroke-linecap:square;"/>
   </g>
   <g id="line2d_6">
    <path clip-path="url(#p55cf8240e9)" d="M 192.777958 89.729539 
L 192.777958 78.799235 
" style="fill:none;stroke:#ff0000;stroke-linecap:square;"/>
   </g>
   <g id="line2d_7">
    <path clip-path="url(#p55cf8240e9)" d="M 143.693277 119.190774 
L 143.693277 100.714671 
" style="fill:none;stroke:#ff0000;stroke-linecap:square;"/>
   </g>
   <g id="line2d_8">
    <path clip-path="url(#p55cf8240e9)" d="M 250.715965 54.954429 
L 250.715965 74.270466 
" style="fill:none;stroke:#ff0000;stroke-linecap:square;"/>
   </g>
   <g id="line2d_9">
    <path clip-path="url(#p55cf8240e9)" d="M 267.655807 44.786926 
L 267.655807 9.314903 
" style="fill:none;stroke:#ff0000;stroke-linecap:square;"/>
   </g>
   <g id="line2d_10">
    <path clip-path="url(#p55cf8240e9)" d="M 130.934583 126.8487 
L 130.934583 150.573442 
" style="fill:none;stroke:#ff0000;stroke-linecap:square;"/>
   </g>
   <g id="line2d_11">
    <path clip-path="url(#p55cf8240e9)" d="M 227.141027 69.104399 
L 227.141027 72.020359 
" style="fill:none;stroke:#ff0000;stroke-linecap:square;"/>
   </g>
   <g id="line2d_12">
    <path clip-path="url(#p55cf8240e9)" d="M 165.208694 106.276954 
L 165.208694 108.955126 
" style="fill:none;stroke:#ff0000;stroke-linecap:square;"/>
   </g>
   <g id="line2d_13">
    <path clip-path="url(#p55cf8240e9)" d="M 174.433773 100.739947 
L 174.433773 72.098177 
" style="fill:none;stroke:#ff0000;stroke-linecap:square;"/>
   </g>
   <g id="line2d_14">
    <path clip-path="url(#p55cf8240e9)" d="M 258.686044 50.170688 
L 258.686044 28.928361 
" style="fill:none;stroke:#ff0000;stroke-linecap:square;"/>
   </g>
   <g id="line2d_15">
    <path clip-path="url(#p55cf8240e9)" d="M 57.320497 171.032788 
L 57.320497 159.381143 
" style="fill:none;stroke:#ff0000;stroke-linecap:square;"/>
   </g>
   <g id="line2d_16">
    <path clip-path="url(#p55cf8240e9)" d="M 61.11265 168.756691 
L 61.11265 153.231932 
" style="fill:none;stroke:#ff0000;stroke-linecap:square;"/>
   </g>
   <g id="line2d_17">
    <path clip-path="url(#p55cf8240e9)" d="M 45.346008 178.220025 
L 45.346008 185.085097 
" style="fill:none;stroke:#ff0000;stroke-linecap:square;"/>
   </g>
   <g id="line2d_18">
    <path clip-path="url(#p55cf8240e9)" d="M 236.777331 63.32057 
L 236.777331 104.653136 
" style="fill:none;stroke:#ff0000;stroke-linecap:square;"/>
   </g>
   <g id="line2d_19">
    <path clip-path="url(#p55cf8240e9)" d="M 223.943845 71.023387 
L 223.943845 81.027809 
" style="fill:none;stroke:#ff0000;stroke-linecap:square;"/>
   </g>
   <g id="line2d_20">
    <path clip-path="url(#p55cf8240e9)" d="M 245.588317 58.032107 
L 245.588317 60.252237 
" style="fill:none;stroke:#ff0000;stroke-linecap:square;"/>
   </g>
   <g id="line2d_21">
    <path clip-path="url(#p55cf8240e9)" d="M 40.581818 181.079551 
L 276.218182 39.647682 
L 276.218182 39.647682 
" style="fill:none;stroke:#1f77b4;stroke-linecap:square;stroke-width:2;"/>
   </g>
   <g id="patch_3">
    <path d="M 28.8 194.4 
L 28.8 0 
" style="fill:none;stroke:#000000;stroke-linecap:square;stroke-linejoin:miter;stroke-width:0.8;"/>
   </g>
   <g id="patch_4">
    <path d="M 28.8 194.4 
L 288 194.4 
" style="fill:none;stroke:#000000;stroke-linecap:square;stroke-linejoin:miter;stroke-width:0.8;"/>
   </g>
  </g>
 </g>
 <defs>
  <clipPath id="p55cf8240e9">
   <rect height="194.4" width="259.2" x="28.8" y="0"/>
  </clipPath>
 </defs>
</svg>
