<?xml version="1.0" encoding="utf-8" standalone="no"?>
<!DOCTYPE svg PUBLIC "-//W3C//DTD SVG 1.1//EN"
  "http://www.w3.org/Graphics/SVG/1.1/DTD/svg11.dtd">
<!-- Created with matplotlib (https://matplotlib.org/) -->
<svg height="216pt" version="1.1" viewBox="0 0 288 216" width="288pt" xmlns="http://www.w3.org/2000/svg" xmlns:xlink="http://www.w3.org/1999/xlink">
 <defs>
  <style type="text/css">
*{stroke-linecap:butt;stroke-linejoin:round;}
  </style>
 </defs>
 <g id="figure_1">
  <g id="patch_1">
   <path d="M 0 216 
L 288 216 
L 288 0 
L 0 0 
z
" style="fill:#ffffff;"/>
  </g>
  <g id="axes_1">
   <g id="patch_2">
    <path d="M 28.8 194.4 
L 288 194.4 
L 288 0 
L 28.8 0 
z
" style="fill:none;"/>
   </g>
   <g id="PathCollection_1">
    <defs>
     <path d="M 0 1.5 
C 0.397805 1.5 0.77937 1.341951 1.06066 1.06066 
C 1.341951 0.77937 1.5 0.397805 1.5 0 
C 1.5 -0.397805 1.341951 -0.77937 1.06066 -1.06066 
C 0.77937 -1.341951 0.397805 -1.5 0 -1.5 
C -0.397805 -1.5 -0.77937 -1.341951 -1.06066 -1.06066 
C -1.341951 -0.77937 -1.5 -0.397805 -1.5 0 
C -1.5 0.397805 -1.341951 0.77937 -1.06066 1.06066 
C -0.77937 1.341951 -0.397805 1.5 0 1.5 
z
" id="ma54d8fa0c9" style="stroke:#000000;"/>
    </defs>
    <g clip-path="url(#p419451ce1a)">
     <use style="stroke:#000000;" x="171.05246" xlink:href="#ma54d8fa0c9" y="75.083813"/>
     <use style="stroke:#000000;" x="214.177084" xlink:href="#ma54d8fa0c9" y="86.122099"/>
     <use style="stroke:#000000;" x="185.036267" xlink:href="#ma54d8fa0c9" y="90.448643"/>
     <use style="stroke:#000000;" x="170.033721" xlink:href="#ma54d8fa0c9" y="119.501049"/>
     <use style="stroke:#000000;" x="138.611324" xlink:href="#ma54d8fa0c9" y="166.400811"/>
     <use style="stroke:#000000;" x="196.215754" xlink:href="#ma54d8fa0c9" y="78.699041"/>
     <use style="stroke:#000000;" x="142.222605" xlink:href="#ma54d8fa0c9" y="100.733809"/>
     <use style="stroke:#000000;" x="259.947562" xlink:href="#ma54d8fa0c9" y="74.145614"/>
     <use style="stroke:#000000;" x="278.581388" xlink:href="#ma54d8fa0c9" y="8.836364"/>
     <use style="stroke:#000000;" x="128.188042" xlink:href="#ma54d8fa0c9" y="150.864063"/>
     <use style="stroke:#000000;" x="234.01513" xlink:href="#ma54d8fa0c9" y="71.883255"/>
     <use style="stroke:#000000;" x="165.889563" xlink:href="#ma54d8fa0c9" y="109.019133"/>
     <use style="stroke:#000000;" x="176.03715" xlink:href="#ma54d8fa0c9" y="71.961496"/>
     <use style="stroke:#000000;" x="268.714649" xlink:href="#ma54d8fa0c9" y="28.556619"/>
     <use style="stroke:#000000;" x="47.212546" xlink:href="#ma54d8fa0c9" y="159.719722"/>
     <use style="stroke:#000000;" x="51.383914" xlink:href="#ma54d8fa0c9" y="153.537028"/>
     <use style="stroke:#000000;" x="34.040609" xlink:href="#ma54d8fa0c9" y="185.563636"/>
     <use style="stroke:#000000;" x="244.615064" xlink:href="#ma54d8fa0c9" y="104.693719"/>
     <use style="stroke:#000000;" x="230.49823" xlink:href="#ma54d8fa0c9" y="80.939751"/>
     <use style="stroke:#000000;" x="254.307149" xlink:href="#ma54d8fa0c9" y="60.051055"/>
    </g>
   </g>
   <g id="matplotlib.axis_1">
    <g id="text_1">
     <!-- x -->
     <defs>
      <path d="M 22.21875 27.984375 
L 2.484375 54.6875 
L 21 54.6875 
L 32.171875 38.484375 
L 43.5 54.6875 
L 62.015625 54.6875 
L 42.28125 28.078125 
L 62.984375 0 
L 44.484375 0 
L 32.171875 17.28125 
L 20.015625 0 
L 1.515625 0 
z
" id="DejaVuSans-Bold-120"/>
     </defs>
     <g transform="translate(153.24 210.5575)scale(0.16 -0.16)">
      <use xlink:href="#DejaVuSans-Bold-120"/>
     </g>
    </g>
   </g>
   <g id="matplotlib.axis_2">
    <g id="text_2">
     <!-- y -->
     <defs>
      <path d="M 1.21875 54.6875 
L 18.703125 54.6875 
L 33.40625 17.578125 
L 45.90625 54.6875 
L 63.375 54.6875 
L 40.375 -5.171875 
Q 36.921875 -14.3125 32.296875 -17.9375 
Q 27.6875 -21.578125 20.125 -21.578125 
L 10.015625 -21.578125 
L 10.015625 -10.109375 
L 15.484375 -10.109375 
Q 19.921875 -10.109375 21.9375 -8.6875 
Q 23.96875 -7.28125 25.09375 -3.609375 
L 25.59375 -2.09375 
z
" id="DejaVuSans-Bold-121"/>
     </defs>
     <g transform="translate(21.3475 102.415)rotate(-90)scale(0.16 -0.16)">
      <use xlink:href="#DejaVuSans-Bold-121"/>
     </g>
    </g>
   </g>
   <g id="line2d_1">
    <path clip-path="url(#p419451ce1a)" d="M 171.05246 103.493916 
L 171.05246 75.083813 
" style="fill:none;stroke:#ff0000;stroke-linecap:square;"/>
   </g>
   <g id="line2d_2">
    <path clip-path="url(#p419451ce1a)" d="M 214.177084 79.834941 
L 214.177084 86.122099 
" style="fill:none;stroke:#ff0000;stroke-linecap:square;"/>
   </g>
   <g id="line2d_3">
    <path clip-path="url(#p419451ce1a)" d="M 185.036267 95.822138 
L 185.036267 90.448643 
" style="fill:none;stroke:#ff0000;stroke-linecap:square;"/>
   </g>
   <g id="line2d_4">
    <path clip-path="url(#p419451ce1a)" d="M 170.033721 104.052816 
L 170.033721 119.501049 
" style="fill:none;stroke:#ff0000;stroke-linecap:square;"/>
   </g>
   <g id="line2d_5">
    <path clip-path="url(#p419451ce1a)" d="M 138.611324 121.291731 
L 138.611324 166.400811 
" style="fill:none;stroke:#ff0000;stroke-linecap:square;"/>
   </g>
   <g id="line2d_6">
    <path clip-path="url(#p419451ce1a)" d="M 196.215754 89.688862 
L 196.215754 78.699041 
" style="fill:none;stroke:#ff0000;stroke-linecap:square;"/>
   </g>
   <g id="line2d_7">
    <path clip-path="url(#p419451ce1a)" d="M 142.222605 119.310515 
L 142.222605 100.733809 
" style="fill:none;stroke:#ff0000;stroke-linecap:square;"/>
   </g>
   <g id="line2d_8">
    <path clip-path="url(#p419451ce1a)" d="M 259.947562 54.724399 
L 259.947562 74.145614 
" style="fill:none;stroke:#ff0000;stroke-linecap:square;"/>
   </g>
   <g id="line2d_9">
    <path clip-path="url(#p419451ce1a)" d="M 278.581388 44.501534 
L 278.581388 8.836364 
" style="fill:none;stroke:#ff0000;stroke-linecap:square;"/>
   </g>
   <g id="line2d_10">
    <path clip-path="url(#p419451ce1a)" d="M 128.188042 127.010139 
L 128.188042 150.864063 
" style="fill:none;stroke:#ff0000;stroke-linecap:square;"/>
   </g>
   <g id="line2d_11">
    <path clip-path="url(#p419451ce1a)" d="M 234.01513 68.951417 
L 234.01513 71.883255 
" style="fill:none;stroke:#ff0000;stroke-linecap:square;"/>
   </g>
   <g id="line2d_12">
    <path clip-path="url(#p419451ce1a)" d="M 165.889563 106.326378 
L 165.889563 109.019133 
" style="fill:none;stroke:#ff0000;stroke-linecap:square;"/>
   </g>
   <g id="line2d_13">
    <path clip-path="url(#p419451ce1a)" d="M 176.03715 100.759222 
L 176.03715 71.961496 
" style="fill:none;stroke:#ff0000;stroke-linecap:square;"/>
   </g>
   <g id="line2d_14">
    <path clip-path="url(#p419451ce1a)" d="M 268.714649 49.914611 
L 268.714649 28.556619 
" style="fill:none;stroke:#ff0000;stroke-linecap:square;"/>
   </g>
   <g id="line2d_15">
    <path clip-path="url(#p419451ce1a)" d="M 47.212546 171.434812 
L 47.212546 159.719722 
" style="fill:none;stroke:#ff0000;stroke-linecap:square;"/>
   </g>
   <g id="line2d_16">
    <path clip-path="url(#p419451ce1a)" d="M 51.383914 169.146321 
L 51.383914 153.537028 
" style="fill:none;stroke:#ff0000;stroke-linecap:square;"/>
   </g>
   <g id="line2d_17">
    <path clip-path="url(#p419451ce1a)" d="M 34.040609 178.661183 
L 34.040609 185.563636 
" style="fill:none;stroke:#ff0000;stroke-linecap:square;"/>
   </g>
   <g id="line2d_18">
    <path clip-path="url(#p419451ce1a)" d="M 244.615064 63.136095 
L 244.615064 104.693719 
" style="fill:none;stroke:#ff0000;stroke-linecap:square;"/>
   </g>
   <g id="line2d_19">
    <path clip-path="url(#p419451ce1a)" d="M 230.49823 70.880854 
L 230.49823 80.939751 
" style="fill:none;stroke:#ff0000;stroke-linecap:square;"/>
   </g>
   <g id="line2d_20">
    <path clip-path="url(#p419451ce1a)" d="M 254.307149 57.818835 
L 254.307149 60.051055 
" style="fill:none;stroke:#ff0000;stroke-linecap:square;"/>
   </g>
   <g id="line2d_21">
    <path clip-path="url(#p419451ce1a)" d="M 28.8 181.536279 
L 288 39.334306 
L 288 39.334306 
" style="fill:none;stroke:#1f77b4;stroke-linecap:square;stroke-width:2;"/>
   </g>
   <g id="patch_3">
    <path d="M 28.8 194.4 
L 28.8 0 
" style="fill:none;stroke:#000000;stroke-linecap:square;stroke-linejoin:miter;stroke-width:0.8;"/>
   </g>
   <g id="patch_4">
    <path d="M 28.8 194.4 
L 288 194.4 
" style="fill:none;stroke:#000000;stroke-linecap:square;stroke-linejoin:miter;stroke-width:0.8;"/>
   </g>
  </g>
 </g>
 <defs>
  <clipPath id="p419451ce1a">
   <rect height="194.4" width="259.2" x="28.8" y="0"/>
  </clipPath>
 </defs>
</svg>
