<?xml version="1.0" encoding="utf-8" standalone="no"?>
<!DOCTYPE svg PUBLIC "-//W3C//DTD SVG 1.1//EN"
  "http://www.w3.org/Graphics/SVG/1.1/DTD/svg11.dtd">
<!-- Created with matplotlib (https://matplotlib.org/) -->
<svg height="216pt" version="1.1" viewBox="0 0 288 216" width="288pt" xmlns="http://www.w3.org/2000/svg" xmlns:xlink="http://www.w3.org/1999/xlink">
 <defs>
  <style type="text/css">
*{stroke-linecap:butt;stroke-linejoin:round;}
  </style>
 </defs>
 <g id="figure_1">
  <g id="patch_1">
   <path d="M 0 216 
L 288 216 
L 288 0 
L 0 0 
z
" style="fill:none;"/>
  </g>
  <g id="axes_1">
   <g id="patch_2">
    <path d="M 2.88 213.84 
L 285.12 213.84 
L 285.12 2.16 
L 2.88 2.16 
z
" style="fill:none;"/>
   </g>
   <g id="PathCollection_1">
    <defs>
     <path d="M 0 1.5 
C 0.397805 1.5 0.77937 1.341951 1.06066 1.06066 
C 1.341951 0.77937 1.5 0.397805 1.5 0 
C 1.5 -0.397805 1.341951 -0.77937 1.06066 -1.06066 
C 0.77937 -1.341951 0.397805 -1.5 0 -1.5 
C -0.397805 -1.5 -0.77937 -1.341951 -1.06066 -1.06066 
C -1.341951 -0.77937 -1.5 -0.397805 -1.5 0 
C -1.5 0.397805 -1.341951 0.77937 -1.06066 1.06066 
C -0.77937 1.341951 -0.397805 1.5 0 1.5 
z
" id="mf11d3a2961" style="stroke:#000000;"/>
    </defs>
    <g clip-path="url(#pa8bb15f11a)">
     <use style="stroke:#000000;" x="159.467323" xlink:href="#mf11d3a2961" y="83.917929"/>
     <use style="stroke:#000000;" x="204.715377" xlink:href="#mf11d3a2961" y="95.937397"/>
     <use style="stroke:#000000;" x="174.139684" xlink:href="#mf11d3a2961" y="100.648523"/>
     <use style="stroke:#000000;" x="158.398421" xlink:href="#mf11d3a2961" y="132.283365"/>
     <use style="stroke:#000000;" x="125.428805" xlink:href="#mf11d3a2961" y="183.351994"/>
     <use style="stroke:#000000;" x="185.869642" xlink:href="#mf11d3a2961" y="87.854512"/>
     <use style="stroke:#000000;" x="129.217903" xlink:href="#mf11d3a2961" y="111.847925"/>
     <use style="stroke:#000000;" x="252.739565" xlink:href="#mf11d3a2961" y="82.896335"/>
     <use style="stroke:#000000;" x="272.290909" xlink:href="#mf11d3a2961" y="11.781818"/>
     <use style="stroke:#000000;" x="114.492286" xlink:href="#mf11d3a2961" y="166.434202"/>
     <use style="stroke:#000000;" x="225.530236" xlink:href="#mf11d3a2961" y="80.432877"/>
     <use style="stroke:#000000;" x="154.050208" xlink:href="#mf11d3a2961" y="120.869723"/>
     <use style="stroke:#000000;" x="164.697456" xlink:href="#mf11d3a2961" y="80.518074"/>
     <use style="stroke:#000000;" x="261.938338" xlink:href="#mf11d3a2961" y="33.254985"/>
     <use style="stroke:#000000;" x="29.529607" xlink:href="#mf11d3a2961" y="176.077031"/>
     <use style="stroke:#000000;" x="33.906371" xlink:href="#mf11d3a2961" y="169.344764"/>
     <use style="stroke:#000000;" x="15.709091" xlink:href="#mf11d3a2961" y="204.218182"/>
     <use style="stroke:#000000;" x="236.652104" xlink:href="#mf11d3a2961" y="116.159828"/>
     <use style="stroke:#000000;" x="221.840166" xlink:href="#mf11d3a2961" y="90.294395"/>
     <use style="stroke:#000000;" x="246.821422" xlink:href="#mf11d3a2961" y="67.548926"/>
    </g>
   </g>
   <g id="matplotlib.axis_1">
    <g id="text_1">
     <!-- x -->
     <defs>
      <path d="M 22.21875 27.984375 
L 2.484375 54.6875 
L 21 54.6875 
L 32.171875 38.484375 
L 43.5 54.6875 
L 62.015625 54.6875 
L 42.28125 28.078125 
L 62.984375 0 
L 44.484375 0 
L 32.171875 17.28125 
L 20.015625 0 
L 1.515625 0 
z
" id="DejaVuSans-Bold-120"/>
     </defs>
     <g transform="translate(138.84 229.9975)scale(0.16 -0.16)">
      <use xlink:href="#DejaVuSans-Bold-120"/>
     </g>
    </g>
   </g>
   <g id="matplotlib.axis_2">
    <g id="text_2">
     <!-- y -->
     <defs>
      <path d="M 1.21875 54.6875 
L 18.703125 54.6875 
L 33.40625 17.578125 
L 45.90625 54.6875 
L 63.375 54.6875 
L 40.375 -5.171875 
Q 36.921875 -14.3125 32.296875 -17.9375 
Q 27.6875 -21.578125 20.125 -21.578125 
L 10.015625 -21.578125 
L 10.015625 -10.109375 
L 15.484375 -10.109375 
Q 19.921875 -10.109375 21.9375 -8.6875 
Q 23.96875 -7.28125 25.09375 -3.609375 
L 25.59375 -2.09375 
z
" id="DejaVuSans-Bold-121"/>
     </defs>
     <g transform="translate(-4.5725 113.215)rotate(-90)scale(0.16 -0.16)">
      <use xlink:href="#DejaVuSans-Bold-121"/>
     </g>
    </g>
   </g>
   <g id="patch_3">
    <path d="M 2.88 213.84 
L 2.88 2.16 
" style="fill:none;stroke:#000000;stroke-linecap:square;stroke-linejoin:miter;stroke-width:0.8;"/>
   </g>
   <g id="patch_4">
    <path d="M 2.88 213.84 
L 285.12 213.84 
" style="fill:none;stroke:#000000;stroke-linecap:square;stroke-linejoin:miter;stroke-width:0.8;"/>
   </g>
  </g>
 </g>
 <defs>
  <clipPath id="pa8bb15f11a">
   <rect height="211.68" width="282.24" x="2.88" y="2.16"/>
  </clipPath>
 </defs>
</svg>
