<?xml version="1.0" encoding="utf-8" standalone="no"?>
<!DOCTYPE svg PUBLIC "-//W3C//DTD SVG 1.1//EN"
  "http://www.w3.org/Graphics/SVG/1.1/DTD/svg11.dtd">
<!-- Created with matplotlib (https://matplotlib.org/) -->
<svg height="172.8pt" version="1.1" viewBox="0 0 230.4 172.8" width="230.4pt" xmlns="http://www.w3.org/2000/svg" xmlns:xlink="http://www.w3.org/1999/xlink">
 <defs>
  <style type="text/css">
*{stroke-linecap:butt;stroke-linejoin:round;}
  </style>
 </defs>
 <g id="figure_1">
  <g id="patch_1">
   <path d="M 0 172.8 
L 230.4 172.8 
L 230.4 0 
L 0 0 
z
" style="fill:none;"/>
  </g>
  <g id="axes_1">
   <g id="patch_2">
    <path d="M 23.04 155.52 
L 230.4 155.52 
L 230.4 0 
L 23.04 0 
z
" style="fill:none;"/>
   </g>
   <g id="matplotlib.axis_1">
    <g id="text_1">
     <!-- x -->
     <defs>
      <path d="M 22.21875 27.984375 
L 2.484375 54.6875 
L 21 54.6875 
L 32.171875 38.484375 
L 43.5 54.6875 
L 62.015625 54.6875 
L 42.28125 28.078125 
L 62.984375 0 
L 44.484375 0 
L 32.171875 17.28125 
L 20.015625 0 
L 1.515625 0 
z
" id="DejaVuSans-Bold-120"/>
     </defs>
     <g transform="translate(121.56 171.6775)scale(0.16 -0.16)">
      <use xlink:href="#DejaVuSans-Bold-120"/>
     </g>
    </g>
   </g>
   <g id="matplotlib.axis_2">
    <g id="text_2">
     <!-- y -->
     <defs>
      <path d="M 1.21875 54.6875 
L 18.703125 54.6875 
L 33.40625 17.578125 
L 45.90625 54.6875 
L 63.375 54.6875 
L 40.375 -5.171875 
Q 36.921875 -14.3125 32.296875 -17.9375 
Q 27.6875 -21.578125 20.125 -21.578125 
L 10.015625 -21.578125 
L 10.015625 -10.109375 
L 15.484375 -10.109375 
Q 19.921875 -10.109375 21.9375 -8.6875 
Q 23.96875 -7.28125 25.09375 -3.609375 
L 25.59375 -2.09375 
z
" id="DejaVuSans-Bold-121"/>
     </defs>
     <g transform="translate(15.5875 82.975)rotate(-90)scale(0.16 -0.16)">
      <use xlink:href="#DejaVuSans-Bold-121"/>
     </g>
    </g>
   </g>
   <g id="line2d_1">
    <path clip-path="url(#paf63d8ed31)" d="M 23.04 170.942424 
L 25.117062 129.108506 
L 27.194124 92.181884 
L 28.925008 65.158327 
L 30.655893 41.542615 
L 31.694424 29.273049 
L 32.386778 24.047417 
L 32.732955 22.602036 
L 33.079132 21.934945 
L 33.425309 22.046143 
L 33.771486 22.935631 
L 34.117663 24.603409 
L 34.810017 30.273833 
L 35.502371 39.057416 
L 36.194725 50.954158 
L 37.233255 71.634495 
L 37.925609 79.978652 
L 38.271786 82.154388 
L 38.617963 82.99923 
L 38.96414 82.513177 
L 39.310317 80.696229 
L 40.002671 75.844303 
L 40.348848 74.485244 
L 40.695025 73.885274 
L 41.041202 74.044396 
L 41.387379 74.962608 
L 41.733556 76.639911 
L 42.42591 82.271788 
L 43.118264 90.940028 
L 43.810618 102.64463 
L 44.849149 123.301417 
L 45.195326 127.887513 
L 45.541503 130.869887 
L 45.887679 132.248538 
L 46.233856 132.023468 
L 46.580033 130.194675 
L 46.92621 126.762159 
L 47.618564 115.085962 
L 48.310918 96.994875 
L 49.349449 66.206332 
L 49.695626 60.649089 
L 50.041803 57.833793 
L 50.38798 57.760445 
L 50.734157 60.429045 
L 51.080334 65.839592 
L 52.811219 102.669596 
L 53.84975 119.996755 
L 54.88828 133.532253 
L 55.580634 140.44944 
L 56.272988 145.681443 
L 56.965342 149.228264 
L 57.311519 150.369731 
L 57.657696 151.089902 
L 58.003873 151.388777 
L 58.35005 151.266357 
L 58.696227 150.72264 
L 59.042404 149.757628 
L 59.734758 146.564389 
L 64.927412 117.263731 
L 70.120067 89.1909 
L 73.235659 73.325823 
L 74.27419 69.31462 
L 75.312721 66.275003 
L 76.005075 64.78836 
L 76.697429 63.733534 
L 77.389783 63.110522 
L 78.082137 62.919327 
L 78.774491 63.159947 
L 79.466845 63.832382 
L 80.159199 64.936633 
L 80.851553 66.472699 
L 81.543907 68.440581 
L 82.582437 72.202058 
L 84.313322 79.964429 
L 87.082738 91.904342 
L 89.852154 102.902434 
L 92.621569 112.958705 
L 93.313923 115.123648 
L 93.6601 115.538223 
L 94.006277 115.387582 
L 94.352454 114.671724 
L 94.698631 113.39065 
L 95.390985 109.132852 
L 96.083339 102.614187 
L 96.775693 93.834657 
L 97.468047 82.794261 
L 98.506578 64.130132 
L 98.852755 60.221853 
L 99.198932 57.940011 
L 99.545109 57.284608 
L 99.891285 58.255642 
L 100.237462 60.853113 
L 101.62217 76.544101 
L 102.314524 81.835323 
L 103.006878 85.214604 
L 103.353055 86.187266 
L 103.699232 86.681943 
L 104.045409 86.698635 
L 104.391586 86.237341 
L 104.737763 85.298062 
L 105.08394 83.880798 
L 105.776294 79.612313 
L 106.122471 77.358461 
L 106.468648 75.900969 
L 106.814825 75.240489 
L 107.161002 75.37702 
L 107.507179 76.310563 
L 107.853356 78.041118 
L 108.54571 83.893262 
L 109.238063 92.933454 
L 110.968948 120.080841 
L 111.315125 122.252286 
L 111.661302 123.021873 
L 112.007479 122.389602 
L 112.353656 120.436618 
L 112.699833 119.336702 
L 113.04601 120.06013 
L 113.392187 122.606901 
L 114.084541 130.717388 
L 114.430718 131.850154 
L 114.776895 130.369414 
L 115.123072 126.27517 
L 115.469249 119.567422 
L 116.161603 102.104 
L 116.853957 90.471173 
L 117.200134 87.209333 
L 117.546311 85.650541 
L 117.892487 85.794799 
L 119.277195 92.612142 
L 119.623372 93.389932 
L 119.969549 93.723111 
L 120.315726 93.611678 
L 120.661903 93.055634 
L 121.00808 92.054979 
L 121.700434 88.719835 
L 122.392788 83.606246 
L 123.085142 76.714212 
L 123.777496 68.043732 
L 124.816027 51.703429 
L 125.508381 40.085962 
L 126.200735 31.895236 
L 126.546912 29.149607 
L 126.893088 27.303801 
L 127.239265 26.357817 
L 127.585442 26.311655 
L 127.931619 27.165316 
L 128.277796 28.9188 
L 128.623973 31.572106 
L 129.316327 39.578186 
L 130.008681 51.183556 
L 130.701035 66.388216 
L 131.739566 95.943874 
L 132.43192 116.625004 
L 132.778097 122.591869 
L 133.124274 125.306139 
L 133.470451 124.767815 
L 133.816628 120.976897 
L 134.162805 113.933385 
L 134.855159 97.517232 
L 135.201336 95.073621 
L 135.547513 96.920363 
L 135.893689 103.057458 
L 136.93222 134.844749 
L 137.278397 134.960826 
L 137.624574 127.404245 
L 137.970751 112.175006 
L 138.316928 89.273109 
L 139.355459 2.083054 
L 139.584829 -1 
M 139.746438 -1 
L 140.047813 9.561544 
L 140.39399 38.477849 
L 141.086344 141.720782 
L 141.305062 173.8 
M 145.918255 173.8 
L 146.278998 156.288884 
L 146.971352 130.398731 
L 147.663706 114.529333 
L 148.009883 110.352418 
L 148.35606 108.680692 
L 148.702237 109.514154 
L 149.048414 112.774145 
L 149.394591 114.057019 
L 149.740768 110.824967 
L 150.086945 103.077991 
L 150.433122 90.81609 
L 150.779299 87.985297 
L 151.81783 162.779594 
L 152.099971 173.8 
M 153.13775 173.8 
L 153.202538 172.145862 
L 154.241068 127.20442 
L 154.933422 105.834198 
L 155.625776 92.360443 
L 155.971953 88.584741 
L 156.31813 86.783156 
L 156.664307 85.884632 
L 157.010484 84.319731 
L 157.702838 79.149672 
L 158.395192 71.259272 
L 159.433723 55.610062 
L 159.7799 53.352228 
L 160.126077 53.910232 
L 160.472254 57.284075 
L 160.818431 63.473756 
L 161.510785 84.300633 
L 162.203139 108.003905 
L 162.549316 112.679403 
L 162.895492 112.163158 
L 163.241669 106.455172 
L 163.934023 91.287238 
L 164.626377 80.504044 
L 165.318731 74.117379 
L 165.664908 72.572746 
L 166.011085 72.127245 
L 166.357262 72.313538 
L 166.703439 72.331815 
L 167.049616 72.168477 
L 167.395793 71.823524 
L 168.088147 70.588774 
L 168.780501 68.627565 
L 170.511386 62.664896 
L 170.857563 62.244186 
L 171.20374 62.159799 
L 171.549917 62.411733 
L 171.896093 62.999989 
L 172.24227 63.924566 
L 172.934624 66.782686 
L 173.626978 70.986093 
L 174.319332 76.534786 
L 175.357863 87.380239 
L 176.396394 101.252588 
L 178.819633 138.105907 
L 179.511987 144.405667 
L 180.204341 148.252839 
L 180.550518 149.256704 
L 180.896694 149.647423 
L 181.242871 149.424994 
L 181.589048 148.589418 
L 181.935225 147.140696 
L 182.627579 142.403809 
L 183.319933 135.214335 
L 185.050818 113.003727 
L 185.396995 110.74878 
L 185.743172 109.554877 
L 186.089349 109.422913 
L 186.435526 110.441342 
L 186.781703 112.668787 
L 187.12788 116.105246 
L 187.820234 126.605211 
L 188.512588 139.443184 
L 189.204942 148.819436 
L 189.897295 154.498708 
L 190.243472 155.951977 
L 190.589649 156.481002 
L 190.935826 156.085781 
L 191.282003 154.766317 
L 191.62818 152.522607 
L 192.320534 145.308825 
L 193.359065 133.706462 
L 194.397596 124.254623 
L 195.436127 116.953308 
L 196.128481 113.2805 
L 196.820835 110.56348 
L 197.513189 108.802249 
L 197.859366 108.280055 
L 198.205543 107.996807 
L 198.55172 107.952506 
L 198.897896 108.147153 
L 199.244073 108.580746 
L 200.628781 111.500456 
L 202.359666 114.887361 
L 204.090551 117.825279 
L 205.821436 120.290912 
L 206.167613 120.404583 
L 206.51379 120.109642 
L 206.859967 119.40609 
L 207.206144 118.293927 
L 207.898497 114.843766 
L 208.590851 109.75916 
L 209.283205 103.040109 
L 210.321736 89.896947 
L 211.360267 73.076284 
L 212.052621 63.082906 
L 212.398798 60.818082 
L 212.744975 60.408967 
L 213.091152 61.855563 
L 213.437329 65.157868 
L 213.783506 70.315883 
L 214.47586 86.199042 
L 215.168214 109.505039 
L 215.860568 140.233876 
L 216.473566 173.8 
M 218.390447 173.8 
L 218.97616 104.459694 
L 219.668514 41.055308 
L 220.014691 26.907702 
L 220.360868 24.463156 
L 220.707045 33.721668 
L 221.745576 90.050358 
L 222.43793 118.339456 
L 223.130284 138.121087 
L 223.822638 149.39525 
L 224.168815 151.842031 
L 224.514992 152.161945 
L 224.861169 150.354992 
L 225.207346 146.421171 
L 225.553523 140.360484 
L 226.245876 121.858509 
L 226.93823 94.849066 
L 227.630584 59.332154 
L 228.546939 -1 
L 228.546939 -1 
" style="fill:none;stroke:#1f77b4;stroke-linecap:square;stroke-width:3;"/>
   </g>
   <g id="patch_3">
    <path d="M 23.04 155.52 
L 23.04 0 
" style="fill:none;stroke:#000000;stroke-linecap:square;stroke-linejoin:miter;stroke-width:0.8;"/>
   </g>
   <g id="patch_4">
    <path d="M 23.04 155.52 
L 230.4 155.52 
" style="fill:none;stroke:#000000;stroke-linecap:square;stroke-linejoin:miter;stroke-width:0.8;"/>
   </g>
   <g id="PathCollection_1">
    <defs>
     <path d="M 0 1.5 
C 0.397805 1.5 0.77937 1.341951 1.06066 1.06066 
C 1.341951 0.77937 1.5 0.397805 1.5 0 
C 1.5 -0.397805 1.341951 -0.77937 1.06066 -1.06066 
C 0.77937 -1.341951 0.397805 -1.5 0 -1.5 
C -0.397805 -1.5 -0.77937 -1.341951 -1.06066 -1.06066 
C -1.341951 -0.77937 -1.5 -0.397805 -1.5 0 
C -1.5 0.397805 -1.341951 0.77937 -1.06066 1.06066 
C -0.77937 1.341951 -0.397805 1.5 0 1.5 
z
" id="m0429684e7b" style="stroke:#000000;"/>
    </defs>
    <g clip-path="url(#paf63d8ed31)">
     <use style="stroke:#000000;" x="136.841968" xlink:href="#m0429684e7b" y="133.553556"/>
     <use style="stroke:#000000;" x="171.341667" xlink:href="#m0429684e7b" y="62.219872"/>
     <use style="stroke:#000000;" x="148.029014" xlink:href="#m0429684e7b" y="110.194639"/>
     <use style="stroke:#000000;" x="136.026977" xlink:href="#m0429684e7b" y="106.564365"/>
     <use style="stroke:#000000;" x="110.889059" xlink:href="#m0429684e7b" y="119.38064"/>
     <use style="stroke:#000000;" x="156.972603" xlink:href="#m0429684e7b" y="84.52411"/>
     <use style="stroke:#000000;" x="113.778084" xlink:href="#m0429684e7b" y="127.533696"/>
     <use style="stroke:#000000;" x="207.958049" xlink:href="#m0429684e7b" y="114.470666"/>
     <use style="stroke:#000000;" x="222.86511" xlink:href="#m0429684e7b" y="131.549866"/>
     <use style="stroke:#000000;" x="102.550433" xlink:href="#m0429684e7b" y="83.201506"/>
     <use style="stroke:#000000;" x="187.212104" xlink:href="#m0429684e7b" y="117.124188"/>
     <use style="stroke:#000000;" x="132.711651" xlink:href="#m0429684e7b" y="121.69881"/>
     <use style="stroke:#000000;" x="140.82972" xlink:href="#m0429684e7b" y="98.734017"/>
     <use style="stroke:#000000;" x="214.971719" xlink:href="#m0429684e7b" y="102.136253"/>
     <use style="stroke:#000000;" x="37.770037" xlink:href="#m0429684e7b" y="78.567426"/>
     <use style="stroke:#000000;" x="41.107132" xlink:href="#m0429684e7b" y="74.160752"/>
     <use style="stroke:#000000;" x="27.232487" xlink:href="#m0429684e7b" y="91.546004"/>
     <use style="stroke:#000000;" x="195.692051" xlink:href="#m0429684e7b" y="115.484324"/>
     <use style="stroke:#000000;" x="184.398584" xlink:href="#m0429684e7b" y="120.050338"/>
     <use style="stroke:#000000;" x="203.445719" xlink:href="#m0429684e7b" y="116.78325"/>
     <use style="stroke:#000000;" x="225.966299" xlink:href="#m0429684e7b" y="130.3538"/>
     <use style="stroke:#000000;" x="188.75352" xlink:href="#m0429684e7b" y="143.125435"/>
     <use style="stroke:#000000;" x="118.732361" xlink:href="#m0429684e7b" y="90.48747"/>
     <use style="stroke:#000000;" x="184.89053" xlink:href="#m0429684e7b" y="114.407204"/>
     <use style="stroke:#000000;" x="47.565385" xlink:href="#m0429684e7b" y="116.210243"/>
     <use style="stroke:#000000;" x="155.734023" xlink:href="#m0429684e7b" y="90.967678"/>
     <use style="stroke:#000000;" x="52.765738" xlink:href="#m0429684e7b" y="101.824116"/>
     <use style="stroke:#000000;" x="218.926547" xlink:href="#m0429684e7b" y="110.80067"/>
     <use style="stroke:#000000;" x="131.250468" xlink:href="#m0429684e7b" y="81.015701"/>
     <use style="stroke:#000000;" x="109.0243" xlink:href="#m0429684e7b" y="89.802103"/>
     <use style="stroke:#000000;" x="77.898252" xlink:href="#m0429684e7b" y="62.927994"/>
     <use style="stroke:#000000;" x="183.585098" xlink:href="#m0429684e7b" y="131.811305"/>
     <use style="stroke:#000000;" x="117.627333" xlink:href="#m0429684e7b" y="85.531652"/>
     <use style="stroke:#000000;" x="140.910464" xlink:href="#m0429684e7b" y="112.647951"/>
     <use style="stroke:#000000;" x="26.936253" xlink:href="#m0429684e7b" y="96.499578"/>
     <use style="stroke:#000000;" x="151.112897" xlink:href="#m0429684e7b" y="112.202898"/>
     <use style="stroke:#000000;" x="149.964169" xlink:href="#m0429684e7b" y="106.342231"/>
     <use style="stroke:#000000;" x="150.967434" xlink:href="#m0429684e7b" y="98.735067"/>
     <use style="stroke:#000000;" x="218.735602" xlink:href="#m0429684e7b" y="136.530872"/>
     <use style="stroke:#000000;" x="164.422257" xlink:href="#m0429684e7b" y="83.226127"/>
     <use style="stroke:#000000;" x="97.587558" xlink:href="#m0429684e7b" y="80.659695"/>
     <use style="stroke:#000000;" x="113.662946" xlink:href="#m0429684e7b" y="125.869598"/>
     <use style="stroke:#000000;" x="167.700805" xlink:href="#m0429684e7b" y="71.369087"/>
     <use style="stroke:#000000;" x="35.528354" xlink:href="#m0429684e7b" y="39.447662"/>
     <use style="stroke:#000000;" x="161.300746" xlink:href="#m0429684e7b" y="76.792233"/>
     <use style="stroke:#000000;" x="162.103469" xlink:href="#m0429684e7b" y="105.695175"/>
     <use style="stroke:#000000;" x="66.664928" xlink:href="#m0429684e7b" y="107.733588"/>
     <use style="stroke:#000000;" x="49.774157" xlink:href="#m0429684e7b" y="59.769977"/>
     <use style="stroke:#000000;" x="88.447223" xlink:href="#m0429684e7b" y="97.44078"/>
     <use style="stroke:#000000;" x="98.459065" xlink:href="#m0429684e7b" y="64.793467"/>
    </g>
   </g>
  </g>
 </g>
 <defs>
  <clipPath id="paf63d8ed31">
   <rect height="155.52" width="207.36" x="23.04" y="0"/>
  </clipPath>
 </defs>
</svg>
