<?xml version="1.0" encoding="utf-8" standalone="no"?>
<!DOCTYPE svg PUBLIC "-//W3C//DTD SVG 1.1//EN"
  "http://www.w3.org/Graphics/SVG/1.1/DTD/svg11.dtd">
<!-- Created with matplotlib (https://matplotlib.org/) -->
<svg height="216pt" version="1.1" viewBox="0 0 288 216" width="288pt" xmlns="http://www.w3.org/2000/svg" xmlns:xlink="http://www.w3.org/1999/xlink">
 <defs>
  <style type="text/css">
*{stroke-linecap:butt;stroke-linejoin:round;}
  </style>
 </defs>
 <g id="figure_1">
  <g id="patch_1">
   <path d="M 0 216 
L 288 216 
L 288 0 
L 0 0 
z
" style="fill:none;"/>
  </g>
  <g id="axes_1">
   <g id="patch_2">
    <path d="M 28.8 194.4 
L 288 194.4 
L 288 0 
L 28.8 0 
z
" style="fill:none;"/>
   </g>
   <g id="PathCollection_1">
    <defs>
     <path d="M 0 1.5 
C 0.397805 1.5 0.77937 1.341951 1.06066 1.06066 
C 1.341951 0.77937 1.5 0.397805 1.5 0 
C 1.5 -0.397805 1.341951 -0.77937 1.06066 -1.06066 
C 0.77937 -1.341951 0.397805 -1.5 0 -1.5 
C -0.397805 -1.5 -0.77937 -1.341951 -1.06066 -1.06066 
C -1.341951 -0.77937 -1.5 -0.397805 -1.5 0 
C -1.5 0.397805 -1.341951 0.77937 -1.06066 1.06066 
C -0.77937 1.341951 -0.397805 1.5 0 1.5 
z
" id="m4d137e3fa5" style="stroke:#000000;"/>
    </defs>
    <g clip-path="url(#pc3a7360431)">
     <use style="stroke:#000000;" x="171.05246" xlink:href="#m4d137e3fa5" y="75.170179"/>
     <use style="stroke:#000000;" x="214.177084" xlink:href="#m4d137e3fa5" y="86.16536"/>
     <use style="stroke:#000000;" x="185.036267" xlink:href="#m4d137e3fa5" y="90.475008"/>
     <use style="stroke:#000000;" x="170.033721" xlink:href="#m4d137e3fa5" y="119.413961"/>
     <use style="stroke:#000000;" x="138.611324" xlink:href="#m4d137e3fa5" y="166.130573"/>
     <use style="stroke:#000000;" x="196.215754" xlink:href="#m4d137e3fa5" y="78.77129"/>
     <use style="stroke:#000000;" x="142.222605" xlink:href="#m4d137e3fa5" y="100.720009"/>
     <use style="stroke:#000000;" x="259.947562" xlink:href="#m4d137e3fa5" y="74.235644"/>
     <use style="stroke:#000000;" x="278.581388" xlink:href="#m4d137e3fa5" y="9.181435"/>
     <use style="stroke:#000000;" x="128.188042" xlink:href="#m4d137e3fa5" y="150.654498"/>
     <use style="stroke:#000000;" x="234.01513" xlink:href="#m4d137e3fa5" y="71.98212"/>
     <use style="stroke:#000000;" x="165.889563" xlink:href="#m4d137e3fa5" y="108.972978"/>
     <use style="stroke:#000000;" x="176.03715" xlink:href="#m4d137e3fa5" y="72.060056"/>
     <use style="stroke:#000000;" x="268.714649" xlink:href="#m4d137e3fa5" y="28.82468"/>
     <use style="stroke:#000000;" x="47.212546" xlink:href="#m4d137e3fa5" y="159.475575"/>
     <use style="stroke:#000000;" x="51.383914" xlink:href="#m4d137e3fa5" y="153.317025"/>
     <use style="stroke:#000000;" x="34.040609" xlink:href="#m4d137e3fa5" y="185.218565"/>
     <use style="stroke:#000000;" x="244.615064" xlink:href="#m4d137e3fa5" y="104.664455"/>
     <use style="stroke:#000000;" x="230.49823" xlink:href="#m4d137e3fa5" y="81.003249"/>
     <use style="stroke:#000000;" x="254.307149" xlink:href="#m4d137e3fa5" y="60.196126"/>
    </g>
   </g>
   <g id="matplotlib.axis_1">
    <g id="text_1">
     <!-- x -->
     <defs>
      <path d="M 22.21875 27.984375 
L 2.484375 54.6875 
L 21 54.6875 
L 32.171875 38.484375 
L 43.5 54.6875 
L 62.015625 54.6875 
L 42.28125 28.078125 
L 62.984375 0 
L 44.484375 0 
L 32.171875 17.28125 
L 20.015625 0 
L 1.515625 0 
z
" id="DejaVuSans-Bold-120"/>
     </defs>
     <g transform="translate(153.24 210.5575)scale(0.16 -0.16)">
      <use xlink:href="#DejaVuSans-Bold-120"/>
     </g>
    </g>
   </g>
   <g id="matplotlib.axis_2">
    <g id="text_2">
     <!-- y -->
     <defs>
      <path d="M 1.21875 54.6875 
L 18.703125 54.6875 
L 33.40625 17.578125 
L 45.90625 54.6875 
L 63.375 54.6875 
L 40.375 -5.171875 
Q 36.921875 -14.3125 32.296875 -17.9375 
Q 27.6875 -21.578125 20.125 -21.578125 
L 10.015625 -21.578125 
L 10.015625 -10.109375 
L 15.484375 -10.109375 
Q 19.921875 -10.109375 21.9375 -8.6875 
Q 23.96875 -7.28125 25.09375 -3.609375 
L 25.59375 -2.09375 
z
" id="DejaVuSans-Bold-121"/>
     </defs>
     <g transform="translate(21.3475 102.415)rotate(-90)scale(0.16 -0.16)">
      <use xlink:href="#DejaVuSans-Bold-121"/>
     </g>
    </g>
   </g>
   <g id="patch_3">
    <path d="M 28.8 194.4 
L 28.8 0 
" style="fill:none;stroke:#000000;stroke-linecap:square;stroke-linejoin:miter;stroke-width:0.8;"/>
   </g>
   <g id="patch_4">
    <path d="M 28.8 194.4 
L 288 194.4 
" style="fill:none;stroke:#000000;stroke-linecap:square;stroke-linejoin:miter;stroke-width:0.8;"/>
   </g>
  </g>
 </g>
 <defs>
  <clipPath id="pc3a7360431">
   <rect height="194.4" width="259.2" x="28.8" y="0"/>
  </clipPath>
 </defs>
</svg>
