<?xml version="1.0" encoding="utf-8" standalone="no"?>
<!DOCTYPE svg PUBLIC "-//W3C//DTD SVG 1.1//EN"
  "http://www.w3.org/Graphics/SVG/1.1/DTD/svg11.dtd">
<!-- Created with matplotlib (https://matplotlib.org/) -->
<svg height="216pt" version="1.1" viewBox="0 0 288 216" width="288pt" xmlns="http://www.w3.org/2000/svg" xmlns:xlink="http://www.w3.org/1999/xlink">
 <metadata>
  <rdf:RDF xmlns:cc="http://creativecommons.org/ns#" xmlns:dc="http://purl.org/dc/elements/1.1/" xmlns:rdf="http://www.w3.org/1999/02/22-rdf-syntax-ns#">
   <cc:Work>
    <dc:type rdf:resource="http://purl.org/dc/dcmitype/StillImage"/>
    <dc:date>2021-04-23T17:39:34.855276</dc:date>
    <dc:format>image/svg+xml</dc:format>
    <dc:creator>
     <cc:Agent>
      <dc:title>Matplotlib v3.3.4, https://matplotlib.org/</dc:title>
     </cc:Agent>
    </dc:creator>
   </cc:Work>
  </rdf:RDF>
 </metadata>
 <defs>
  <style type="text/css">*{stroke-linecap:butt;stroke-linejoin:round;}</style>
 </defs>
 <g id="figure_1">
  <g id="patch_1">
   <path d="M 0 216 
L 288 216 
L 288 0 
L 0 0 
z
" style="fill:none;"/>
  </g>
  <g id="axes_1">
   <g id="patch_2">
    <path d="M 28.8 194.4 
L 288 194.4 
L 288 0 
L 28.8 0 
z
" style="fill:none;"/>
   </g>
   <g id="matplotlib.axis_1">
    <g id="text_1">
     <!-- x -->
     <g transform="translate(151.305 215.116562)scale(0.22 -0.22)">
      <defs>
       <path d="M 22.21875 27.984375 
L 2.484375 54.6875 
L 21 54.6875 
L 32.171875 38.484375 
L 43.5 54.6875 
L 62.015625 54.6875 
L 42.28125 28.078125 
L 62.984375 0 
L 44.484375 0 
L 32.171875 17.28125 
L 20.015625 0 
L 1.515625 0 
z
" id="DejaVuSans-Bold-120"/>
      </defs>
      <use xlink:href="#DejaVuSans-Bold-120"/>
     </g>
    </g>
   </g>
   <g id="matplotlib.axis_2">
    <g id="text_2">
     <!-- y -->
     <g transform="translate(20.052813 104.370625)rotate(-90)scale(0.22 -0.22)">
      <defs>
       <path d="M 1.21875 54.6875 
L 18.703125 54.6875 
L 33.40625 17.578125 
L 45.90625 54.6875 
L 63.375 54.6875 
L 40.375 -5.171875 
Q 36.921875 -14.3125 32.296875 -17.9375 
Q 27.6875 -21.578125 20.125 -21.578125 
L 10.015625 -21.578125 
L 10.015625 -10.109375 
L 15.484375 -10.109375 
Q 19.921875 -10.109375 21.9375 -8.6875 
Q 23.96875 -7.28125 25.09375 -3.609375 
L 25.59375 -2.09375 
z
" id="DejaVuSans-Bold-121"/>
      </defs>
      <use xlink:href="#DejaVuSans-Bold-121"/>
     </g>
    </g>
   </g>
   <g id="line2d_1">
    <defs>
     <path d="M 0 7.5 
C 1.989023 7.5 3.896849 6.709753 5.303301 5.303301 
C 6.709753 3.896849 7.5 1.989023 7.5 0 
C 7.5 -1.989023 6.709753 -3.896849 5.303301 -5.303301 
C 3.896849 -6.709753 1.989023 -7.5 0 -7.5 
C -1.989023 -7.5 -3.896849 -6.709753 -5.303301 -5.303301 
C -6.709753 -3.896849 -7.5 -1.989023 -7.5 0 
C -7.5 1.989023 -6.709753 3.896849 -5.303301 5.303301 
C -3.896849 6.709753 -1.989023 7.5 0 7.5 
z
" id="mc4d39de5e7" style="stroke:#808080;stroke-opacity:0.2;"/>
    </defs>
    <g clip-path="url(#p4ec8a5855b)">
     <use style="fill:#808080;fill-opacity:0.2;stroke:#808080;stroke-opacity:0.2;" x="183.732555" xlink:href="#mc4d39de5e7" y="98.886242"/>
     <use style="fill:#808080;fill-opacity:0.2;stroke:#808080;stroke-opacity:0.2;" x="155.755881" xlink:href="#mc4d39de5e7" y="110.781163"/>
     <use style="fill:#808080;fill-opacity:0.2;stroke:#808080;stroke-opacity:0.2;" x="190.384373" xlink:href="#mc4d39de5e7" y="116.088853"/>
     <use style="fill:#808080;fill-opacity:0.2;stroke:#808080;stroke-opacity:0.2;" x="228.951254" xlink:href="#mc4d39de5e7" y="76.640459"/>
     <use style="fill:#808080;fill-opacity:0.2;stroke:#808080;stroke-opacity:0.2;" x="151.53108" xlink:href="#mc4d39de5e7" y="114.075072"/>
     <use style="fill:#808080;fill-opacity:0.2;stroke:#808080;stroke-opacity:0.2;" x="151.531804" xlink:href="#mc4d39de5e7" y="136.30609"/>
     <use style="fill:#808080;fill-opacity:0.2;stroke:#808080;stroke-opacity:0.2;" x="231.426633" xlink:href="#mc4d39de5e7" y="39.352831"/>
     <use style="fill:#808080;fill-opacity:0.2;stroke:#808080;stroke-opacity:0.2;" x="195.6603" xlink:href="#mc4d39de5e7" y="87.983533"/>
     <use style="fill:#808080;fill-opacity:0.2;stroke:#808080;stroke-opacity:0.2;" x="141.163013" xlink:href="#mc4d39de5e7" y="152.024577"/>
     <use style="fill:#808080;fill-opacity:0.2;stroke:#808080;stroke-opacity:0.2;" x="185.75249" xlink:href="#mc4d39de5e7" y="88.913768"/>
     <use style="fill:#808080;fill-opacity:0.2;stroke:#808080;stroke-opacity:0.2;" x="141.429867" xlink:href="#mc4d39de5e7" y="147.110607"/>
     <use style="fill:#808080;fill-opacity:0.2;stroke:#808080;stroke-opacity:0.2;" x="141.327999" xlink:href="#mc4d39de5e7" y="108.283757"/>
     <use style="fill:#808080;fill-opacity:0.2;stroke:#808080;stroke-opacity:0.2;" x="172.508378" xlink:href="#mc4d39de5e7" y="84.468388"/>
     <use style="fill:#808080;fill-opacity:0.2;stroke:#808080;stroke-opacity:0.2;" x="77.550011" xlink:href="#mc4d39de5e7" y="175.707137"/>
     <use style="fill:#808080;fill-opacity:0.2;stroke:#808080;stroke-opacity:0.2;" x="85.849117" xlink:href="#mc4d39de5e7" y="132.180635"/>
     <use style="fill:#808080;fill-opacity:0.2;stroke:#808080;stroke-opacity:0.2;" x="137.073736" xlink:href="#mc4d39de5e7" y="118.674517"/>
     <use style="fill:#808080;fill-opacity:0.2;stroke:#808080;stroke-opacity:0.2;" x="117.223123" xlink:href="#mc4d39de5e7" y="119.585121"/>
     <use style="fill:#808080;fill-opacity:0.2;stroke:#808080;stroke-opacity:0.2;" x="175.693204" xlink:href="#mc4d39de5e7" y="66.583023"/>
     <use style="fill:#808080;fill-opacity:0.2;stroke:#808080;stroke-opacity:0.2;" x="121.840843" xlink:href="#mc4d39de5e7" y="140.828257"/>
     <use style="fill:#808080;fill-opacity:0.2;stroke:#808080;stroke-opacity:0.2;" x="99.622661" xlink:href="#mc4d39de5e7" y="163.174473"/>
     <use style="fill:#808080;fill-opacity:0.2;stroke:#808080;stroke-opacity:0.2;" x="226.423087" xlink:href="#mc4d39de5e7" y="102.661397"/>
     <use style="fill:#808080;fill-opacity:0.2;stroke:#808080;stroke-opacity:0.2;" x="151.900168" xlink:href="#mc4d39de5e7" y="138.36054"/>
     <use style="fill:#808080;fill-opacity:0.2;stroke:#808080;stroke-opacity:0.2;" x="164.822944" xlink:href="#mc4d39de5e7" y="115.586536"/>
     <use style="fill:#808080;fill-opacity:0.2;stroke:#808080;stroke-opacity:0.2;" x="99.074367" xlink:href="#mc4d39de5e7" y="139.28759"/>
     <use style="fill:#808080;fill-opacity:0.2;stroke:#808080;stroke-opacity:0.2;" x="137.862608" xlink:href="#mc4d39de5e7" y="121.282578"/>
     <use style="fill:#808080;fill-opacity:0.2;stroke:#808080;stroke-opacity:0.2;" x="166.734868" xlink:href="#mc4d39de5e7" y="94.673572"/>
     <use style="fill:#808080;fill-opacity:0.2;stroke:#808080;stroke-opacity:0.2;" x="111.135789" xlink:href="#mc4d39de5e7" y="140.487965"/>
     <use style="fill:#808080;fill-opacity:0.2;stroke:#808080;stroke-opacity:0.2;" x="178.400675" xlink:href="#mc4d39de5e7" y="75.008596"/>
     <use style="fill:#808080;fill-opacity:0.2;stroke:#808080;stroke-opacity:0.2;" x="135.384012" xlink:href="#mc4d39de5e7" y="134.470228"/>
     <use style="fill:#808080;fill-opacity:0.2;stroke:#808080;stroke-opacity:0.2;" x="148.995895" xlink:href="#mc4d39de5e7" y="61.784762"/>
     <use style="fill:#808080;fill-opacity:0.2;stroke:#808080;stroke-opacity:0.2;" x="135.336961" xlink:href="#mc4d39de5e7" y="114.846518"/>
     <use style="fill:#808080;fill-opacity:0.2;stroke:#808080;stroke-opacity:0.2;" x="243.457688" xlink:href="#mc4d39de5e7" y="93.415395"/>
     <use style="fill:#808080;fill-opacity:0.2;stroke:#808080;stroke-opacity:0.2;" x="161.253025" xlink:href="#mc4d39de5e7" y="139.3051"/>
     <use style="fill:#808080;fill-opacity:0.2;stroke:#808080;stroke-opacity:0.2;" x="115.245753" xlink:href="#mc4d39de5e7" y="128.069379"/>
     <use style="fill:#808080;fill-opacity:0.2;stroke:#808080;stroke-opacity:0.2;" x="198.088413" xlink:href="#mc4d39de5e7" y="102.154996"/>
     <use style="fill:#808080;fill-opacity:0.2;stroke:#808080;stroke-opacity:0.2;" x="108.058248" xlink:href="#mc4d39de5e7" y="126.560061"/>
     <use style="fill:#808080;fill-opacity:0.2;stroke:#808080;stroke-opacity:0.2;" x="171.050075" xlink:href="#mc4d39de5e7" y="100.322968"/>
     <use style="fill:#808080;fill-opacity:0.2;stroke:#808080;stroke-opacity:0.2;" x="75.506108" xlink:href="#mc4d39de5e7" y="160.227553"/>
     <use style="fill:#808080;fill-opacity:0.2;stroke:#808080;stroke-opacity:0.2;" x="103.328822" xlink:href="#mc4d39de5e7" y="163.371754"/>
     <use style="fill:#808080;fill-opacity:0.2;stroke:#808080;stroke-opacity:0.2;" x="170.52126" xlink:href="#mc4d39de5e7" y="144.459998"/>
     <use style="fill:#808080;fill-opacity:0.2;stroke:#808080;stroke-opacity:0.2;" x="194.383985" xlink:href="#mc4d39de5e7" y="108.932614"/>
     <use style="fill:#808080;fill-opacity:0.2;stroke:#808080;stroke-opacity:0.2;" x="169.39806" xlink:href="#mc4d39de5e7" y="92.694968"/>
     <use style="fill:#808080;fill-opacity:0.2;stroke:#808080;stroke-opacity:0.2;" x="156.752326" xlink:href="#mc4d39de5e7" y="113.202822"/>
     <use style="fill:#808080;fill-opacity:0.2;stroke:#808080;stroke-opacity:0.2;" x="148.581299" xlink:href="#mc4d39de5e7" y="149.510301"/>
     <use style="fill:#808080;fill-opacity:0.2;stroke:#808080;stroke-opacity:0.2;" x="96.705133" xlink:href="#mc4d39de5e7" y="144.180956"/>
     <use style="fill:#808080;fill-opacity:0.2;stroke:#808080;stroke-opacity:0.2;" x="130.131907" xlink:href="#mc4d39de5e7" y="122.757461"/>
     <use style="fill:#808080;fill-opacity:0.2;stroke:#808080;stroke-opacity:0.2;" x="141.552304" xlink:href="#mc4d39de5e7" y="145.045014"/>
     <use style="fill:#808080;fill-opacity:0.2;stroke:#808080;stroke-opacity:0.2;" x="208.423714" xlink:href="#mc4d39de5e7" y="88.654835"/>
     <use style="fill:#808080;fill-opacity:0.2;stroke:#808080;stroke-opacity:0.2;" x="176.987266" xlink:href="#mc4d39de5e7" y="106.507934"/>
     <use style="fill:#808080;fill-opacity:0.2;stroke:#808080;stroke-opacity:0.2;" x="84.169477" xlink:href="#mc4d39de5e7" y="179.503813"/>
     <use style="fill:#808080;fill-opacity:0.2;stroke:#808080;stroke-opacity:0.2;" x="176.126599" xlink:href="#mc4d39de5e7" y="100.328041"/>
     <use style="fill:#808080;fill-opacity:0.2;stroke:#808080;stroke-opacity:0.2;" x="144.881266" xlink:href="#mc4d39de5e7" y="111.497954"/>
     <use style="fill:#808080;fill-opacity:0.2;stroke:#808080;stroke-opacity:0.2;" x="132.023027" xlink:href="#mc4d39de5e7" y="106.412994"/>
     <use style="fill:#808080;fill-opacity:0.2;stroke:#808080;stroke-opacity:0.2;" x="188.7977" xlink:href="#mc4d39de5e7" y="78.622241"/>
     <use style="fill:#808080;fill-opacity:0.2;stroke:#808080;stroke-opacity:0.2;" x="207.272767" xlink:href="#mc4d39de5e7" y="123.025428"/>
     <use style="fill:#808080;fill-opacity:0.2;stroke:#808080;stroke-opacity:0.2;" x="202.879205" xlink:href="#mc4d39de5e7" y="115.519703"/>
     <use style="fill:#808080;fill-opacity:0.2;stroke:#808080;stroke-opacity:0.2;" x="124.872408" xlink:href="#mc4d39de5e7" y="122.529182"/>
     <use style="fill:#808080;fill-opacity:0.2;stroke:#808080;stroke-opacity:0.2;" x="148.224037" xlink:href="#mc4d39de5e7" y="110.860834"/>
     <use style="fill:#808080;fill-opacity:0.2;stroke:#808080;stroke-opacity:0.2;" x="176.44292" xlink:href="#mc4d39de5e7" y="96.699257"/>
     <use style="fill:#808080;fill-opacity:0.2;stroke:#808080;stroke-opacity:0.2;" x="204.829488" xlink:href="#mc4d39de5e7" y="8.827021"/>
     <use style="fill:#808080;fill-opacity:0.2;stroke:#808080;stroke-opacity:0.2;" x="140.735645" xlink:href="#mc4d39de5e7" y="113.351319"/>
     <use style="fill:#808080;fill-opacity:0.2;stroke:#808080;stroke-opacity:0.2;" x="153.667707" xlink:href="#mc4d39de5e7" y="94.413157"/>
     <use style="fill:#808080;fill-opacity:0.2;stroke:#808080;stroke-opacity:0.2;" x="113.103414" xlink:href="#mc4d39de5e7" y="118.736894"/>
     <use style="fill:#808080;fill-opacity:0.2;stroke:#808080;stroke-opacity:0.2;" x="109.143736" xlink:href="#mc4d39de5e7" y="127.398015"/>
     <use style="fill:#808080;fill-opacity:0.2;stroke:#808080;stroke-opacity:0.2;" x="197.64698" xlink:href="#mc4d39de5e7" y="104.402037"/>
     <use style="fill:#808080;fill-opacity:0.2;stroke:#808080;stroke-opacity:0.2;" x="221.60262" xlink:href="#mc4d39de5e7" y="68.69778"/>
     <use style="fill:#808080;fill-opacity:0.2;stroke:#808080;stroke-opacity:0.2;" x="158.67499" xlink:href="#mc4d39de5e7" y="134.018721"/>
     <use style="fill:#808080;fill-opacity:0.2;stroke:#808080;stroke-opacity:0.2;" x="206.062608" xlink:href="#mc4d39de5e7" y="98.455764"/>
     <use style="fill:#808080;fill-opacity:0.2;stroke:#808080;stroke-opacity:0.2;" x="177.781114" xlink:href="#mc4d39de5e7" y="118.105636"/>
     <use style="fill:#808080;fill-opacity:0.2;stroke:#808080;stroke-opacity:0.2;" x="133.42421" xlink:href="#mc4d39de5e7" y="127.804725"/>
     <use style="fill:#808080;fill-opacity:0.2;stroke:#808080;stroke-opacity:0.2;" x="177.770521" xlink:href="#mc4d39de5e7" y="56.321305"/>
     <use style="fill:#808080;fill-opacity:0.2;stroke:#808080;stroke-opacity:0.2;" x="229.612439" xlink:href="#mc4d39de5e7" y="122.640543"/>
     <use style="fill:#808080;fill-opacity:0.2;stroke:#808080;stroke-opacity:0.2;" x="160.269234" xlink:href="#mc4d39de5e7" y="101.021782"/>
     <use style="fill:#808080;fill-opacity:0.2;stroke:#808080;stroke-opacity:0.2;" x="230.784727" xlink:href="#mc4d39de5e7" y="116.436109"/>
     <use style="fill:#808080;fill-opacity:0.2;stroke:#808080;stroke-opacity:0.2;" x="46.4237" xlink:href="#mc4d39de5e7" y="183.601019"/>
     <use style="fill:#808080;fill-opacity:0.2;stroke:#808080;stroke-opacity:0.2;" x="198.060109" xlink:href="#mc4d39de5e7" y="73.20742"/>
     <use style="fill:#808080;fill-opacity:0.2;stroke:#808080;stroke-opacity:0.2;" x="165.682931" xlink:href="#mc4d39de5e7" y="112.035854"/>
     <use style="fill:#808080;fill-opacity:0.2;stroke:#808080;stroke-opacity:0.2;" x="148.673663" xlink:href="#mc4d39de5e7" y="145.756823"/>
     <use style="fill:#808080;fill-opacity:0.2;stroke:#808080;stroke-opacity:0.2;" x="165.890613" xlink:href="#mc4d39de5e7" y="129.135339"/>
     <use style="fill:#808080;fill-opacity:0.2;stroke:#808080;stroke-opacity:0.2;" x="74.276908" xlink:href="#mc4d39de5e7" y="144.238996"/>
     <use style="fill:#808080;fill-opacity:0.2;stroke:#808080;stroke-opacity:0.2;" x="152.169124" xlink:href="#mc4d39de5e7" y="136.340298"/>
     <use style="fill:#808080;fill-opacity:0.2;stroke:#808080;stroke-opacity:0.2;" x="177.581814" xlink:href="#mc4d39de5e7" y="102.71796"/>
     <use style="fill:#808080;fill-opacity:0.2;stroke:#808080;stroke-opacity:0.2;" x="226.962604" xlink:href="#mc4d39de5e7" y="81.756108"/>
     <use style="fill:#808080;fill-opacity:0.2;stroke:#808080;stroke-opacity:0.2;" x="139.013105" xlink:href="#mc4d39de5e7" y="141.191454"/>
     <use style="fill:#808080;fill-opacity:0.2;stroke:#808080;stroke-opacity:0.2;" x="126.226081" xlink:href="#mc4d39de5e7" y="85.905148"/>
     <use style="fill:#808080;fill-opacity:0.2;stroke:#808080;stroke-opacity:0.2;" x="139.740664" xlink:href="#mc4d39de5e7" y="112.458781"/>
     <use style="fill:#808080;fill-opacity:0.2;stroke:#808080;stroke-opacity:0.2;" x="202.179632" xlink:href="#mc4d39de5e7" y="139.864529"/>
     <use style="fill:#808080;fill-opacity:0.2;stroke:#808080;stroke-opacity:0.2;" x="176.332229" xlink:href="#mc4d39de5e7" y="104.005949"/>
     <use style="fill:#808080;fill-opacity:0.2;stroke:#808080;stroke-opacity:0.2;" x="138.506865" xlink:href="#mc4d39de5e7" y="141.669792"/>
     <use style="fill:#808080;fill-opacity:0.2;stroke:#808080;stroke-opacity:0.2;" x="184.46188" xlink:href="#mc4d39de5e7" y="85.237598"/>
     <use style="fill:#808080;fill-opacity:0.2;stroke:#808080;stroke-opacity:0.2;" x="166.124866" xlink:href="#mc4d39de5e7" y="130.722002"/>
     <use style="fill:#808080;fill-opacity:0.2;stroke:#808080;stroke-opacity:0.2;" x="204.525473" xlink:href="#mc4d39de5e7" y="96.5316"/>
     <use style="fill:#808080;fill-opacity:0.2;stroke:#808080;stroke-opacity:0.2;" x="130.91577" xlink:href="#mc4d39de5e7" y="119.724033"/>
     <use style="fill:#808080;fill-opacity:0.2;stroke:#808080;stroke-opacity:0.2;" x="147.411154" xlink:href="#mc4d39de5e7" y="103.500876"/>
     <use style="fill:#808080;fill-opacity:0.2;stroke:#808080;stroke-opacity:0.2;" x="144.571711" xlink:href="#mc4d39de5e7" y="150.515745"/>
     <use style="fill:#808080;fill-opacity:0.2;stroke:#808080;stroke-opacity:0.2;" x="97.366332" xlink:href="#mc4d39de5e7" y="155.05309"/>
     <use style="fill:#808080;fill-opacity:0.2;stroke:#808080;stroke-opacity:0.2;" x="174.894539" xlink:href="#mc4d39de5e7" y="119.321503"/>
     <use style="fill:#808080;fill-opacity:0.2;stroke:#808080;stroke-opacity:0.2;" x="173.349601" xlink:href="#mc4d39de5e7" y="124.031799"/>
     <use style="fill:#808080;fill-opacity:0.2;stroke:#808080;stroke-opacity:0.2;" x="162.072997" xlink:href="#mc4d39de5e7" y="76.303176"/>
     <use style="fill:#808080;fill-opacity:0.2;stroke:#808080;stroke-opacity:0.2;" x="151.511969" xlink:href="#mc4d39de5e7" y="111.615081"/>
     <use style="fill:#808080;fill-opacity:0.2;stroke:#808080;stroke-opacity:0.2;" x="99.48753" xlink:href="#mc4d39de5e7" y="174.433665"/>
     <use style="fill:#808080;fill-opacity:0.2;stroke:#808080;stroke-opacity:0.2;" x="143.314385" xlink:href="#mc4d39de5e7" y="104.402918"/>
     <use style="fill:#808080;fill-opacity:0.2;stroke:#808080;stroke-opacity:0.2;" x="146.747958" xlink:href="#mc4d39de5e7" y="76.107349"/>
     <use style="fill:#808080;fill-opacity:0.2;stroke:#808080;stroke-opacity:0.2;" x="126.499968" xlink:href="#mc4d39de5e7" y="110.295587"/>
     <use style="fill:#808080;fill-opacity:0.2;stroke:#808080;stroke-opacity:0.2;" x="154.741575" xlink:href="#mc4d39de5e7" y="152.463231"/>
     <use style="fill:#808080;fill-opacity:0.2;stroke:#808080;stroke-opacity:0.2;" x="179.64988" xlink:href="#mc4d39de5e7" y="117.14472"/>
     <use style="fill:#808080;fill-opacity:0.2;stroke:#808080;stroke-opacity:0.2;" x="244.951637" xlink:href="#mc4d39de5e7" y="45.794136"/>
     <use style="fill:#808080;fill-opacity:0.2;stroke:#808080;stroke-opacity:0.2;" x="169.53947" xlink:href="#mc4d39de5e7" y="127.139301"/>
     <use style="fill:#808080;fill-opacity:0.2;stroke:#808080;stroke-opacity:0.2;" x="173.195179" xlink:href="#mc4d39de5e7" y="99.897757"/>
     <use style="fill:#808080;fill-opacity:0.2;stroke:#808080;stroke-opacity:0.2;" x="158.567671" xlink:href="#mc4d39de5e7" y="99.923834"/>
     <use style="fill:#808080;fill-opacity:0.2;stroke:#808080;stroke-opacity:0.2;" x="77.308083" xlink:href="#mc4d39de5e7" y="178.172946"/>
     <use style="fill:#808080;fill-opacity:0.2;stroke:#808080;stroke-opacity:0.2;" x="160.679521" xlink:href="#mc4d39de5e7" y="117.273948"/>
     <use style="fill:#808080;fill-opacity:0.2;stroke:#808080;stroke-opacity:0.2;" x="164.5014" xlink:href="#mc4d39de5e7" y="185.572979"/>
     <use style="fill:#808080;fill-opacity:0.2;stroke:#808080;stroke-opacity:0.2;" x="270.3763" xlink:href="#mc4d39de5e7" y="83.623275"/>
     <use style="fill:#808080;fill-opacity:0.2;stroke:#808080;stroke-opacity:0.2;" x="153.372422" xlink:href="#mc4d39de5e7" y="125.193769"/>
     <use style="fill:#808080;fill-opacity:0.2;stroke:#808080;stroke-opacity:0.2;" x="175.133652" xlink:href="#mc4d39de5e7" y="136.256382"/>
     <use style="fill:#808080;fill-opacity:0.2;stroke:#808080;stroke-opacity:0.2;" x="160.318328" xlink:href="#mc4d39de5e7" y="80.117953"/>
     <use style="fill:#808080;fill-opacity:0.2;stroke:#808080;stroke-opacity:0.2;" x="110.356625" xlink:href="#mc4d39de5e7" y="172.724858"/>
     <use style="fill:#808080;fill-opacity:0.2;stroke:#808080;stroke-opacity:0.2;" x="212.199617" xlink:href="#mc4d39de5e7" y="99.866674"/>
     <use style="fill:#808080;fill-opacity:0.2;stroke:#808080;stroke-opacity:0.2;" x="194.977307" xlink:href="#mc4d39de5e7" y="95.896826"/>
     <use style="fill:#808080;fill-opacity:0.2;stroke:#808080;stroke-opacity:0.2;" x="196.699976" xlink:href="#mc4d39de5e7" y="66.113758"/>
     <use style="fill:#808080;fill-opacity:0.2;stroke:#808080;stroke-opacity:0.2;" x="121.780774" xlink:href="#mc4d39de5e7" y="167.129193"/>
     <use style="fill:#808080;fill-opacity:0.2;stroke:#808080;stroke-opacity:0.2;" x="223.653766" xlink:href="#mc4d39de5e7" y="58.750856"/>
     <use style="fill:#808080;fill-opacity:0.2;stroke:#808080;stroke-opacity:0.2;" x="100.083197" xlink:href="#mc4d39de5e7" y="146.084877"/>
     <use style="fill:#808080;fill-opacity:0.2;stroke:#808080;stroke-opacity:0.2;" x="187.704185" xlink:href="#mc4d39de5e7" y="124.084267"/>
     <use style="fill:#808080;fill-opacity:0.2;stroke:#808080;stroke-opacity:0.2;" x="258.357533" xlink:href="#mc4d39de5e7" y="56.839783"/>
     <use style="fill:#808080;fill-opacity:0.2;stroke:#808080;stroke-opacity:0.2;" x="118.205415" xlink:href="#mc4d39de5e7" y="132.841225"/>
     <use style="fill:#808080;fill-opacity:0.2;stroke:#808080;stroke-opacity:0.2;" x="136.897049" xlink:href="#mc4d39de5e7" y="141.117396"/>
     <use style="fill:#808080;fill-opacity:0.2;stroke:#808080;stroke-opacity:0.2;" x="166.238266" xlink:href="#mc4d39de5e7" y="111.63585"/>
     <use style="fill:#808080;fill-opacity:0.2;stroke:#808080;stroke-opacity:0.2;" x="139.664943" xlink:href="#mc4d39de5e7" y="134.988677"/>
     <use style="fill:#808080;fill-opacity:0.2;stroke:#808080;stroke-opacity:0.2;" x="93.526636" xlink:href="#mc4d39de5e7" y="147.08957"/>
     <use style="fill:#808080;fill-opacity:0.2;stroke:#808080;stroke-opacity:0.2;" x="164.868535" xlink:href="#mc4d39de5e7" y="99.250652"/>
     <use style="fill:#808080;fill-opacity:0.2;stroke:#808080;stroke-opacity:0.2;" x="115.043398" xlink:href="#mc4d39de5e7" y="103.818206"/>
     <use style="fill:#808080;fill-opacity:0.2;stroke:#808080;stroke-opacity:0.2;" x="182.713829" xlink:href="#mc4d39de5e7" y="132.239806"/>
     <use style="fill:#808080;fill-opacity:0.2;stroke:#808080;stroke-opacity:0.2;" x="121.338561" xlink:href="#mc4d39de5e7" y="88.593888"/>
     <use style="fill:#808080;fill-opacity:0.2;stroke:#808080;stroke-opacity:0.2;" x="230.136648" xlink:href="#mc4d39de5e7" y="124.249814"/>
     <use style="fill:#808080;fill-opacity:0.2;stroke:#808080;stroke-opacity:0.2;" x="127.33815" xlink:href="#mc4d39de5e7" y="136.009282"/>
     <use style="fill:#808080;fill-opacity:0.2;stroke:#808080;stroke-opacity:0.2;" x="147.657914" xlink:href="#mc4d39de5e7" y="109.499661"/>
     <use style="fill:#808080;fill-opacity:0.2;stroke:#808080;stroke-opacity:0.2;" x="197.69066" xlink:href="#mc4d39de5e7" y="91.222135"/>
     <use style="fill:#808080;fill-opacity:0.2;stroke:#808080;stroke-opacity:0.2;" x="107.616744" xlink:href="#mc4d39de5e7" y="156.278891"/>
     <use style="fill:#808080;fill-opacity:0.2;stroke:#808080;stroke-opacity:0.2;" x="171.869416" xlink:href="#mc4d39de5e7" y="114.948537"/>
     <use style="fill:#808080;fill-opacity:0.2;stroke:#808080;stroke-opacity:0.2;" x="219.439431" xlink:href="#mc4d39de5e7" y="97.409155"/>
     <use style="fill:#808080;fill-opacity:0.2;stroke:#808080;stroke-opacity:0.2;" x="91.023198" xlink:href="#mc4d39de5e7" y="163.854333"/>
     <use style="fill:#808080;fill-opacity:0.2;stroke:#808080;stroke-opacity:0.2;" x="169.982531" xlink:href="#mc4d39de5e7" y="92.552216"/>
     <use style="fill:#808080;fill-opacity:0.2;stroke:#808080;stroke-opacity:0.2;" x="173.297943" xlink:href="#mc4d39de5e7" y="101.761837"/>
     <use style="fill:#808080;fill-opacity:0.2;stroke:#808080;stroke-opacity:0.2;" x="196.294231" xlink:href="#mc4d39de5e7" y="113.413174"/>
     <use style="fill:#808080;fill-opacity:0.2;stroke:#808080;stroke-opacity:0.2;" x="107.348582" xlink:href="#mc4d39de5e7" y="122.81978"/>
     <use style="fill:#808080;fill-opacity:0.2;stroke:#808080;stroke-opacity:0.2;" x="103.669375" xlink:href="#mc4d39de5e7" y="137.733171"/>
     <use style="fill:#808080;fill-opacity:0.2;stroke:#808080;stroke-opacity:0.2;" x="184.844056" xlink:href="#mc4d39de5e7" y="85.919421"/>
     <use style="fill:#808080;fill-opacity:0.2;stroke:#808080;stroke-opacity:0.2;" x="174.932624" xlink:href="#mc4d39de5e7" y="94.927179"/>
    </g>
   </g>
   <g id="line2d_2">
    <defs>
     <path d="M 0 7.5 
C 1.989023 7.5 3.896849 6.709753 5.303301 5.303301 
C 6.709753 3.896849 7.5 1.989023 7.5 0 
C 7.5 -1.989023 6.709753 -3.896849 5.303301 -5.303301 
C 3.896849 -6.709753 1.989023 -7.5 0 -7.5 
C -1.989023 -7.5 -3.896849 -6.709753 -5.303301 -5.303301 
C -6.709753 -3.896849 -7.5 -1.989023 -7.5 0 
C -7.5 1.989023 -6.709753 3.896849 -5.303301 5.303301 
C -3.896849 6.709753 -1.989023 7.5 0 7.5 
z
" id="m4ef25dc632" style="stroke:#2ca02c;"/>
    </defs>
    <g clip-path="url(#p4ec8a5855b)">
     <use style="fill:#2ca02c;stroke:#2ca02c;" x="244.951637" xlink:href="#m4ef25dc632" y="45.794136"/>
     <use style="fill:#2ca02c;stroke:#2ca02c;" x="147.411154" xlink:href="#m4ef25dc632" y="103.500876"/>
     <use style="fill:#2ca02c;stroke:#2ca02c;" x="202.879205" xlink:href="#m4ef25dc632" y="115.519703"/>
     <use style="fill:#2ca02c;stroke:#2ca02c;" x="196.699976" xlink:href="#m4ef25dc632" y="66.113758"/>
     <use style="fill:#2ca02c;stroke:#2ca02c;" x="141.552304" xlink:href="#m4ef25dc632" y="145.045014"/>
    </g>
   </g>
   <g id="line2d_3">
    <path clip-path="url(#p4ec8a5855b)" d="M 46.4237 198.754659 
L 48.685847 197.084599 
L 50.947995 195.414539 
L 53.210142 193.74448 
L 55.47229 192.07442 
L 57.734437 190.40436 
L 59.996585 188.7343 
L 62.258732 187.06424 
L 64.52088 185.39418 
L 66.783027 183.72412 
L 69.045175 182.05406 
L 71.307322 180.384001 
L 73.569469 178.713941 
L 75.831617 177.043881 
L 78.093764 175.373821 
L 80.355912 173.703761 
L 82.618059 172.033701 
L 84.880207 170.363641 
L 87.142354 168.693582 
L 89.404502 167.023522 
L 91.666649 165.353462 
L 93.928797 163.683402 
L 96.190944 162.013342 
L 98.453092 160.343282 
L 100.715239 158.673222 
L 102.977387 157.003163 
L 105.239534 155.333103 
L 107.501682 153.663043 
L 109.763829 151.992983 
L 112.025977 150.322923 
L 114.288124 148.652863 
L 116.550272 146.982803 
L 118.812419 145.312743 
L 121.074567 143.642684 
L 123.336714 141.972624 
L 125.598862 140.302564 
L 127.861009 138.632504 
L 130.123156 136.962444 
L 132.385304 135.292384 
L 134.647451 133.622324 
L 136.909599 131.952265 
L 139.171746 130.282205 
L 141.433894 128.612145 
L 143.696041 126.942085 
L 145.958189 125.272025 
L 148.220336 123.601965 
L 150.482484 121.931905 
L 152.744631 120.261846 
L 155.006779 118.591786 
L 157.268926 116.921726 
L 159.531074 115.251666 
L 161.793221 113.581606 
L 164.055369 111.911546 
L 166.317516 110.241486 
L 168.579664 108.571426 
L 170.841811 106.901367 
L 173.103959 105.231307 
L 175.366106 103.561247 
L 177.628254 101.891187 
L 179.890401 100.221127 
L 182.152549 98.551067 
L 184.414696 96.881007 
L 186.676844 95.210948 
L 188.938991 93.540888 
L 191.201138 91.870828 
L 193.463286 90.200768 
L 195.725433 88.530708 
L 197.987581 86.860648 
L 200.249728 85.190588 
L 202.511876 83.520529 
L 204.774023 81.850469 
L 207.036171 80.180409 
L 209.298318 78.510349 
L 211.560466 76.840289 
L 213.822613 75.170229 
L 216.084761 73.500169 
L 218.346908 71.830109 
L 220.609056 70.16005 
L 222.871203 68.48999 
L 225.133351 66.81993 
L 227.395498 65.14987 
L 229.657646 63.47981 
L 231.919793 61.80975 
L 234.181941 60.13969 
L 236.444088 58.469631 
L 238.706236 56.799571 
L 240.968383 55.129511 
L 243.230531 53.459451 
L 245.492678 51.789391 
L 247.754825 50.119331 
L 250.016973 48.449271 
L 252.27912 46.779212 
L 254.541268 45.109152 
L 256.803415 43.439092 
L 259.065563 41.769032 
L 261.32771 40.098972 
L 263.589858 38.428912 
L 265.852005 36.758852 
L 268.114153 35.088792 
L 270.3763 33.418733 
" style="fill:none;stroke:#2ca02c;stroke-linecap:square;stroke-width:1.5;"/>
   </g>
   <g id="patch_3">
    <path d="M 28.8 194.4 
L 28.8 0 
" style="fill:none;stroke:#000000;stroke-linecap:square;stroke-linejoin:miter;stroke-width:0.8;"/>
   </g>
   <g id="patch_4">
    <path d="M 28.8 194.4 
L 288 194.4 
" style="fill:none;stroke:#000000;stroke-linecap:square;stroke-linejoin:miter;stroke-width:0.8;"/>
   </g>
  </g>
 </g>
 <defs>
  <clipPath id="p4ec8a5855b">
   <rect height="194.4" width="259.2" x="28.8" y="0"/>
  </clipPath>
 </defs>
</svg>
