<?xml version="1.0" encoding="utf-8" standalone="no"?>
<!DOCTYPE svg PUBLIC "-//W3C//DTD SVG 1.1//EN"
  "http://www.w3.org/Graphics/SVG/1.1/DTD/svg11.dtd">
<!-- Created with matplotlib (https://matplotlib.org/) -->
<svg height="216pt" version="1.1" viewBox="0 0 288 216" width="288pt" xmlns="http://www.w3.org/2000/svg" xmlns:xlink="http://www.w3.org/1999/xlink">
 <metadata>
  <rdf:RDF xmlns:cc="http://creativecommons.org/ns#" xmlns:dc="http://purl.org/dc/elements/1.1/" xmlns:rdf="http://www.w3.org/1999/02/22-rdf-syntax-ns#">
   <cc:Work>
    <dc:type rdf:resource="http://purl.org/dc/dcmitype/StillImage"/>
    <dc:date>2021-04-23T17:39:34.869835</dc:date>
    <dc:format>image/svg+xml</dc:format>
    <dc:creator>
     <cc:Agent>
      <dc:title>Matplotlib v3.3.4, https://matplotlib.org/</dc:title>
     </cc:Agent>
    </dc:creator>
   </cc:Work>
  </rdf:RDF>
 </metadata>
 <defs>
  <style type="text/css">*{stroke-linecap:butt;stroke-linejoin:round;}</style>
 </defs>
 <g id="figure_1">
  <g id="patch_1">
   <path d="M 0 216 
L 288 216 
L 288 0 
L 0 0 
z
" style="fill:none;"/>
  </g>
  <g id="axes_1">
   <g id="patch_2">
    <path d="M 28.8 194.4 
L 288 194.4 
L 288 0 
L 28.8 0 
z
" style="fill:none;"/>
   </g>
   <g id="matplotlib.axis_1">
    <g id="text_1">
     <!-- x -->
     <g transform="translate(151.305 215.116562)scale(0.22 -0.22)">
      <defs>
       <path d="M 22.21875 27.984375 
L 2.484375 54.6875 
L 21 54.6875 
L 32.171875 38.484375 
L 43.5 54.6875 
L 62.015625 54.6875 
L 42.28125 28.078125 
L 62.984375 0 
L 44.484375 0 
L 32.171875 17.28125 
L 20.015625 0 
L 1.515625 0 
z
" id="DejaVuSans-Bold-120"/>
      </defs>
      <use xlink:href="#DejaVuSans-Bold-120"/>
     </g>
    </g>
   </g>
   <g id="matplotlib.axis_2">
    <g id="text_2">
     <!-- y -->
     <g transform="translate(20.052813 104.370625)rotate(-90)scale(0.22 -0.22)">
      <defs>
       <path d="M 1.21875 54.6875 
L 18.703125 54.6875 
L 33.40625 17.578125 
L 45.90625 54.6875 
L 63.375 54.6875 
L 40.375 -5.171875 
Q 36.921875 -14.3125 32.296875 -17.9375 
Q 27.6875 -21.578125 20.125 -21.578125 
L 10.015625 -21.578125 
L 10.015625 -10.109375 
L 15.484375 -10.109375 
Q 19.921875 -10.109375 21.9375 -8.6875 
Q 23.96875 -7.28125 25.09375 -3.609375 
L 25.59375 -2.09375 
z
" id="DejaVuSans-Bold-121"/>
      </defs>
      <use xlink:href="#DejaVuSans-Bold-121"/>
     </g>
    </g>
   </g>
   <g id="line2d_1">
    <defs>
     <path d="M 0 7.5 
C 1.989023 7.5 3.896849 6.709753 5.303301 5.303301 
C 6.709753 3.896849 7.5 1.989023 7.5 0 
C 7.5 -1.989023 6.709753 -3.896849 5.303301 -5.303301 
C 3.896849 -6.709753 1.989023 -7.5 0 -7.5 
C -1.989023 -7.5 -3.896849 -6.709753 -5.303301 -5.303301 
C -6.709753 -3.896849 -7.5 -1.989023 -7.5 0 
C -7.5 1.989023 -6.709753 3.896849 -5.303301 5.303301 
C -3.896849 6.709753 -1.989023 7.5 0 7.5 
z
" id="me1bf99d8fe" style="stroke:#808080;stroke-opacity:0.2;"/>
    </defs>
    <g clip-path="url(#pb82b1785da)">
     <use style="fill:#808080;fill-opacity:0.2;stroke:#808080;stroke-opacity:0.2;" x="183.732555" xlink:href="#me1bf99d8fe" y="98.886242"/>
     <use style="fill:#808080;fill-opacity:0.2;stroke:#808080;stroke-opacity:0.2;" x="155.755881" xlink:href="#me1bf99d8fe" y="110.781163"/>
     <use style="fill:#808080;fill-opacity:0.2;stroke:#808080;stroke-opacity:0.2;" x="190.384373" xlink:href="#me1bf99d8fe" y="116.088853"/>
     <use style="fill:#808080;fill-opacity:0.2;stroke:#808080;stroke-opacity:0.2;" x="228.951254" xlink:href="#me1bf99d8fe" y="76.640459"/>
     <use style="fill:#808080;fill-opacity:0.2;stroke:#808080;stroke-opacity:0.2;" x="151.53108" xlink:href="#me1bf99d8fe" y="114.075072"/>
     <use style="fill:#808080;fill-opacity:0.2;stroke:#808080;stroke-opacity:0.2;" x="151.531804" xlink:href="#me1bf99d8fe" y="136.30609"/>
     <use style="fill:#808080;fill-opacity:0.2;stroke:#808080;stroke-opacity:0.2;" x="231.426633" xlink:href="#me1bf99d8fe" y="39.352831"/>
     <use style="fill:#808080;fill-opacity:0.2;stroke:#808080;stroke-opacity:0.2;" x="195.6603" xlink:href="#me1bf99d8fe" y="87.983533"/>
     <use style="fill:#808080;fill-opacity:0.2;stroke:#808080;stroke-opacity:0.2;" x="141.163013" xlink:href="#me1bf99d8fe" y="152.024577"/>
     <use style="fill:#808080;fill-opacity:0.2;stroke:#808080;stroke-opacity:0.2;" x="185.75249" xlink:href="#me1bf99d8fe" y="88.913768"/>
     <use style="fill:#808080;fill-opacity:0.2;stroke:#808080;stroke-opacity:0.2;" x="141.429867" xlink:href="#me1bf99d8fe" y="147.110607"/>
     <use style="fill:#808080;fill-opacity:0.2;stroke:#808080;stroke-opacity:0.2;" x="141.327999" xlink:href="#me1bf99d8fe" y="108.283757"/>
     <use style="fill:#808080;fill-opacity:0.2;stroke:#808080;stroke-opacity:0.2;" x="172.508378" xlink:href="#me1bf99d8fe" y="84.468388"/>
     <use style="fill:#808080;fill-opacity:0.2;stroke:#808080;stroke-opacity:0.2;" x="77.550011" xlink:href="#me1bf99d8fe" y="175.707137"/>
     <use style="fill:#808080;fill-opacity:0.2;stroke:#808080;stroke-opacity:0.2;" x="85.849117" xlink:href="#me1bf99d8fe" y="132.180635"/>
     <use style="fill:#808080;fill-opacity:0.2;stroke:#808080;stroke-opacity:0.2;" x="137.073736" xlink:href="#me1bf99d8fe" y="118.674517"/>
     <use style="fill:#808080;fill-opacity:0.2;stroke:#808080;stroke-opacity:0.2;" x="117.223123" xlink:href="#me1bf99d8fe" y="119.585121"/>
     <use style="fill:#808080;fill-opacity:0.2;stroke:#808080;stroke-opacity:0.2;" x="175.693204" xlink:href="#me1bf99d8fe" y="66.583023"/>
     <use style="fill:#808080;fill-opacity:0.2;stroke:#808080;stroke-opacity:0.2;" x="121.840843" xlink:href="#me1bf99d8fe" y="140.828257"/>
     <use style="fill:#808080;fill-opacity:0.2;stroke:#808080;stroke-opacity:0.2;" x="99.622661" xlink:href="#me1bf99d8fe" y="163.174473"/>
     <use style="fill:#808080;fill-opacity:0.2;stroke:#808080;stroke-opacity:0.2;" x="226.423087" xlink:href="#me1bf99d8fe" y="102.661397"/>
     <use style="fill:#808080;fill-opacity:0.2;stroke:#808080;stroke-opacity:0.2;" x="151.900168" xlink:href="#me1bf99d8fe" y="138.36054"/>
     <use style="fill:#808080;fill-opacity:0.2;stroke:#808080;stroke-opacity:0.2;" x="164.822944" xlink:href="#me1bf99d8fe" y="115.586536"/>
     <use style="fill:#808080;fill-opacity:0.2;stroke:#808080;stroke-opacity:0.2;" x="99.074367" xlink:href="#me1bf99d8fe" y="139.28759"/>
     <use style="fill:#808080;fill-opacity:0.2;stroke:#808080;stroke-opacity:0.2;" x="137.862608" xlink:href="#me1bf99d8fe" y="121.282578"/>
     <use style="fill:#808080;fill-opacity:0.2;stroke:#808080;stroke-opacity:0.2;" x="166.734868" xlink:href="#me1bf99d8fe" y="94.673572"/>
     <use style="fill:#808080;fill-opacity:0.2;stroke:#808080;stroke-opacity:0.2;" x="111.135789" xlink:href="#me1bf99d8fe" y="140.487965"/>
     <use style="fill:#808080;fill-opacity:0.2;stroke:#808080;stroke-opacity:0.2;" x="178.400675" xlink:href="#me1bf99d8fe" y="75.008596"/>
     <use style="fill:#808080;fill-opacity:0.2;stroke:#808080;stroke-opacity:0.2;" x="135.384012" xlink:href="#me1bf99d8fe" y="134.470228"/>
     <use style="fill:#808080;fill-opacity:0.2;stroke:#808080;stroke-opacity:0.2;" x="148.995895" xlink:href="#me1bf99d8fe" y="61.784762"/>
     <use style="fill:#808080;fill-opacity:0.2;stroke:#808080;stroke-opacity:0.2;" x="135.336961" xlink:href="#me1bf99d8fe" y="114.846518"/>
     <use style="fill:#808080;fill-opacity:0.2;stroke:#808080;stroke-opacity:0.2;" x="243.457688" xlink:href="#me1bf99d8fe" y="93.415395"/>
     <use style="fill:#808080;fill-opacity:0.2;stroke:#808080;stroke-opacity:0.2;" x="161.253025" xlink:href="#me1bf99d8fe" y="139.3051"/>
     <use style="fill:#808080;fill-opacity:0.2;stroke:#808080;stroke-opacity:0.2;" x="115.245753" xlink:href="#me1bf99d8fe" y="128.069379"/>
     <use style="fill:#808080;fill-opacity:0.2;stroke:#808080;stroke-opacity:0.2;" x="198.088413" xlink:href="#me1bf99d8fe" y="102.154996"/>
     <use style="fill:#808080;fill-opacity:0.2;stroke:#808080;stroke-opacity:0.2;" x="108.058248" xlink:href="#me1bf99d8fe" y="126.560061"/>
     <use style="fill:#808080;fill-opacity:0.2;stroke:#808080;stroke-opacity:0.2;" x="171.050075" xlink:href="#me1bf99d8fe" y="100.322968"/>
     <use style="fill:#808080;fill-opacity:0.2;stroke:#808080;stroke-opacity:0.2;" x="75.506108" xlink:href="#me1bf99d8fe" y="160.227553"/>
     <use style="fill:#808080;fill-opacity:0.2;stroke:#808080;stroke-opacity:0.2;" x="103.328822" xlink:href="#me1bf99d8fe" y="163.371754"/>
     <use style="fill:#808080;fill-opacity:0.2;stroke:#808080;stroke-opacity:0.2;" x="170.52126" xlink:href="#me1bf99d8fe" y="144.459998"/>
     <use style="fill:#808080;fill-opacity:0.2;stroke:#808080;stroke-opacity:0.2;" x="194.383985" xlink:href="#me1bf99d8fe" y="108.932614"/>
     <use style="fill:#808080;fill-opacity:0.2;stroke:#808080;stroke-opacity:0.2;" x="169.39806" xlink:href="#me1bf99d8fe" y="92.694968"/>
     <use style="fill:#808080;fill-opacity:0.2;stroke:#808080;stroke-opacity:0.2;" x="156.752326" xlink:href="#me1bf99d8fe" y="113.202822"/>
     <use style="fill:#808080;fill-opacity:0.2;stroke:#808080;stroke-opacity:0.2;" x="148.581299" xlink:href="#me1bf99d8fe" y="149.510301"/>
     <use style="fill:#808080;fill-opacity:0.2;stroke:#808080;stroke-opacity:0.2;" x="96.705133" xlink:href="#me1bf99d8fe" y="144.180956"/>
     <use style="fill:#808080;fill-opacity:0.2;stroke:#808080;stroke-opacity:0.2;" x="130.131907" xlink:href="#me1bf99d8fe" y="122.757461"/>
     <use style="fill:#808080;fill-opacity:0.2;stroke:#808080;stroke-opacity:0.2;" x="141.552304" xlink:href="#me1bf99d8fe" y="145.045014"/>
     <use style="fill:#808080;fill-opacity:0.2;stroke:#808080;stroke-opacity:0.2;" x="208.423714" xlink:href="#me1bf99d8fe" y="88.654835"/>
     <use style="fill:#808080;fill-opacity:0.2;stroke:#808080;stroke-opacity:0.2;" x="176.987266" xlink:href="#me1bf99d8fe" y="106.507934"/>
     <use style="fill:#808080;fill-opacity:0.2;stroke:#808080;stroke-opacity:0.2;" x="84.169477" xlink:href="#me1bf99d8fe" y="179.503813"/>
     <use style="fill:#808080;fill-opacity:0.2;stroke:#808080;stroke-opacity:0.2;" x="176.126599" xlink:href="#me1bf99d8fe" y="100.328041"/>
     <use style="fill:#808080;fill-opacity:0.2;stroke:#808080;stroke-opacity:0.2;" x="144.881266" xlink:href="#me1bf99d8fe" y="111.497954"/>
     <use style="fill:#808080;fill-opacity:0.2;stroke:#808080;stroke-opacity:0.2;" x="132.023027" xlink:href="#me1bf99d8fe" y="106.412994"/>
     <use style="fill:#808080;fill-opacity:0.2;stroke:#808080;stroke-opacity:0.2;" x="188.7977" xlink:href="#me1bf99d8fe" y="78.622241"/>
     <use style="fill:#808080;fill-opacity:0.2;stroke:#808080;stroke-opacity:0.2;" x="207.272767" xlink:href="#me1bf99d8fe" y="123.025428"/>
     <use style="fill:#808080;fill-opacity:0.2;stroke:#808080;stroke-opacity:0.2;" x="202.879205" xlink:href="#me1bf99d8fe" y="115.519703"/>
     <use style="fill:#808080;fill-opacity:0.2;stroke:#808080;stroke-opacity:0.2;" x="124.872408" xlink:href="#me1bf99d8fe" y="122.529182"/>
     <use style="fill:#808080;fill-opacity:0.2;stroke:#808080;stroke-opacity:0.2;" x="148.224037" xlink:href="#me1bf99d8fe" y="110.860834"/>
     <use style="fill:#808080;fill-opacity:0.2;stroke:#808080;stroke-opacity:0.2;" x="176.44292" xlink:href="#me1bf99d8fe" y="96.699257"/>
     <use style="fill:#808080;fill-opacity:0.2;stroke:#808080;stroke-opacity:0.2;" x="204.829488" xlink:href="#me1bf99d8fe" y="8.827021"/>
     <use style="fill:#808080;fill-opacity:0.2;stroke:#808080;stroke-opacity:0.2;" x="140.735645" xlink:href="#me1bf99d8fe" y="113.351319"/>
     <use style="fill:#808080;fill-opacity:0.2;stroke:#808080;stroke-opacity:0.2;" x="153.667707" xlink:href="#me1bf99d8fe" y="94.413157"/>
     <use style="fill:#808080;fill-opacity:0.2;stroke:#808080;stroke-opacity:0.2;" x="113.103414" xlink:href="#me1bf99d8fe" y="118.736894"/>
     <use style="fill:#808080;fill-opacity:0.2;stroke:#808080;stroke-opacity:0.2;" x="109.143736" xlink:href="#me1bf99d8fe" y="127.398015"/>
     <use style="fill:#808080;fill-opacity:0.2;stroke:#808080;stroke-opacity:0.2;" x="197.64698" xlink:href="#me1bf99d8fe" y="104.402037"/>
     <use style="fill:#808080;fill-opacity:0.2;stroke:#808080;stroke-opacity:0.2;" x="221.60262" xlink:href="#me1bf99d8fe" y="68.69778"/>
     <use style="fill:#808080;fill-opacity:0.2;stroke:#808080;stroke-opacity:0.2;" x="158.67499" xlink:href="#me1bf99d8fe" y="134.018721"/>
     <use style="fill:#808080;fill-opacity:0.2;stroke:#808080;stroke-opacity:0.2;" x="206.062608" xlink:href="#me1bf99d8fe" y="98.455764"/>
     <use style="fill:#808080;fill-opacity:0.2;stroke:#808080;stroke-opacity:0.2;" x="177.781114" xlink:href="#me1bf99d8fe" y="118.105636"/>
     <use style="fill:#808080;fill-opacity:0.2;stroke:#808080;stroke-opacity:0.2;" x="133.42421" xlink:href="#me1bf99d8fe" y="127.804725"/>
     <use style="fill:#808080;fill-opacity:0.2;stroke:#808080;stroke-opacity:0.2;" x="177.770521" xlink:href="#me1bf99d8fe" y="56.321305"/>
     <use style="fill:#808080;fill-opacity:0.2;stroke:#808080;stroke-opacity:0.2;" x="229.612439" xlink:href="#me1bf99d8fe" y="122.640543"/>
     <use style="fill:#808080;fill-opacity:0.2;stroke:#808080;stroke-opacity:0.2;" x="160.269234" xlink:href="#me1bf99d8fe" y="101.021782"/>
     <use style="fill:#808080;fill-opacity:0.2;stroke:#808080;stroke-opacity:0.2;" x="230.784727" xlink:href="#me1bf99d8fe" y="116.436109"/>
     <use style="fill:#808080;fill-opacity:0.2;stroke:#808080;stroke-opacity:0.2;" x="46.4237" xlink:href="#me1bf99d8fe" y="183.601019"/>
     <use style="fill:#808080;fill-opacity:0.2;stroke:#808080;stroke-opacity:0.2;" x="198.060109" xlink:href="#me1bf99d8fe" y="73.20742"/>
     <use style="fill:#808080;fill-opacity:0.2;stroke:#808080;stroke-opacity:0.2;" x="165.682931" xlink:href="#me1bf99d8fe" y="112.035854"/>
     <use style="fill:#808080;fill-opacity:0.2;stroke:#808080;stroke-opacity:0.2;" x="148.673663" xlink:href="#me1bf99d8fe" y="145.756823"/>
     <use style="fill:#808080;fill-opacity:0.2;stroke:#808080;stroke-opacity:0.2;" x="165.890613" xlink:href="#me1bf99d8fe" y="129.135339"/>
     <use style="fill:#808080;fill-opacity:0.2;stroke:#808080;stroke-opacity:0.2;" x="74.276908" xlink:href="#me1bf99d8fe" y="144.238996"/>
     <use style="fill:#808080;fill-opacity:0.2;stroke:#808080;stroke-opacity:0.2;" x="152.169124" xlink:href="#me1bf99d8fe" y="136.340298"/>
     <use style="fill:#808080;fill-opacity:0.2;stroke:#808080;stroke-opacity:0.2;" x="177.581814" xlink:href="#me1bf99d8fe" y="102.71796"/>
     <use style="fill:#808080;fill-opacity:0.2;stroke:#808080;stroke-opacity:0.2;" x="226.962604" xlink:href="#me1bf99d8fe" y="81.756108"/>
     <use style="fill:#808080;fill-opacity:0.2;stroke:#808080;stroke-opacity:0.2;" x="139.013105" xlink:href="#me1bf99d8fe" y="141.191454"/>
     <use style="fill:#808080;fill-opacity:0.2;stroke:#808080;stroke-opacity:0.2;" x="126.226081" xlink:href="#me1bf99d8fe" y="85.905148"/>
     <use style="fill:#808080;fill-opacity:0.2;stroke:#808080;stroke-opacity:0.2;" x="139.740664" xlink:href="#me1bf99d8fe" y="112.458781"/>
     <use style="fill:#808080;fill-opacity:0.2;stroke:#808080;stroke-opacity:0.2;" x="202.179632" xlink:href="#me1bf99d8fe" y="139.864529"/>
     <use style="fill:#808080;fill-opacity:0.2;stroke:#808080;stroke-opacity:0.2;" x="176.332229" xlink:href="#me1bf99d8fe" y="104.005949"/>
     <use style="fill:#808080;fill-opacity:0.2;stroke:#808080;stroke-opacity:0.2;" x="138.506865" xlink:href="#me1bf99d8fe" y="141.669792"/>
     <use style="fill:#808080;fill-opacity:0.2;stroke:#808080;stroke-opacity:0.2;" x="184.46188" xlink:href="#me1bf99d8fe" y="85.237598"/>
     <use style="fill:#808080;fill-opacity:0.2;stroke:#808080;stroke-opacity:0.2;" x="166.124866" xlink:href="#me1bf99d8fe" y="130.722002"/>
     <use style="fill:#808080;fill-opacity:0.2;stroke:#808080;stroke-opacity:0.2;" x="204.525473" xlink:href="#me1bf99d8fe" y="96.5316"/>
     <use style="fill:#808080;fill-opacity:0.2;stroke:#808080;stroke-opacity:0.2;" x="130.91577" xlink:href="#me1bf99d8fe" y="119.724033"/>
     <use style="fill:#808080;fill-opacity:0.2;stroke:#808080;stroke-opacity:0.2;" x="147.411154" xlink:href="#me1bf99d8fe" y="103.500876"/>
     <use style="fill:#808080;fill-opacity:0.2;stroke:#808080;stroke-opacity:0.2;" x="144.571711" xlink:href="#me1bf99d8fe" y="150.515745"/>
     <use style="fill:#808080;fill-opacity:0.2;stroke:#808080;stroke-opacity:0.2;" x="97.366332" xlink:href="#me1bf99d8fe" y="155.05309"/>
     <use style="fill:#808080;fill-opacity:0.2;stroke:#808080;stroke-opacity:0.2;" x="174.894539" xlink:href="#me1bf99d8fe" y="119.321503"/>
     <use style="fill:#808080;fill-opacity:0.2;stroke:#808080;stroke-opacity:0.2;" x="173.349601" xlink:href="#me1bf99d8fe" y="124.031799"/>
     <use style="fill:#808080;fill-opacity:0.2;stroke:#808080;stroke-opacity:0.2;" x="162.072997" xlink:href="#me1bf99d8fe" y="76.303176"/>
     <use style="fill:#808080;fill-opacity:0.2;stroke:#808080;stroke-opacity:0.2;" x="151.511969" xlink:href="#me1bf99d8fe" y="111.615081"/>
     <use style="fill:#808080;fill-opacity:0.2;stroke:#808080;stroke-opacity:0.2;" x="99.48753" xlink:href="#me1bf99d8fe" y="174.433665"/>
     <use style="fill:#808080;fill-opacity:0.2;stroke:#808080;stroke-opacity:0.2;" x="143.314385" xlink:href="#me1bf99d8fe" y="104.402918"/>
     <use style="fill:#808080;fill-opacity:0.2;stroke:#808080;stroke-opacity:0.2;" x="146.747958" xlink:href="#me1bf99d8fe" y="76.107349"/>
     <use style="fill:#808080;fill-opacity:0.2;stroke:#808080;stroke-opacity:0.2;" x="126.499968" xlink:href="#me1bf99d8fe" y="110.295587"/>
     <use style="fill:#808080;fill-opacity:0.2;stroke:#808080;stroke-opacity:0.2;" x="154.741575" xlink:href="#me1bf99d8fe" y="152.463231"/>
     <use style="fill:#808080;fill-opacity:0.2;stroke:#808080;stroke-opacity:0.2;" x="179.64988" xlink:href="#me1bf99d8fe" y="117.14472"/>
     <use style="fill:#808080;fill-opacity:0.2;stroke:#808080;stroke-opacity:0.2;" x="244.951637" xlink:href="#me1bf99d8fe" y="45.794136"/>
     <use style="fill:#808080;fill-opacity:0.2;stroke:#808080;stroke-opacity:0.2;" x="169.53947" xlink:href="#me1bf99d8fe" y="127.139301"/>
     <use style="fill:#808080;fill-opacity:0.2;stroke:#808080;stroke-opacity:0.2;" x="173.195179" xlink:href="#me1bf99d8fe" y="99.897757"/>
     <use style="fill:#808080;fill-opacity:0.2;stroke:#808080;stroke-opacity:0.2;" x="158.567671" xlink:href="#me1bf99d8fe" y="99.923834"/>
     <use style="fill:#808080;fill-opacity:0.2;stroke:#808080;stroke-opacity:0.2;" x="77.308083" xlink:href="#me1bf99d8fe" y="178.172946"/>
     <use style="fill:#808080;fill-opacity:0.2;stroke:#808080;stroke-opacity:0.2;" x="160.679521" xlink:href="#me1bf99d8fe" y="117.273948"/>
     <use style="fill:#808080;fill-opacity:0.2;stroke:#808080;stroke-opacity:0.2;" x="164.5014" xlink:href="#me1bf99d8fe" y="185.572979"/>
     <use style="fill:#808080;fill-opacity:0.2;stroke:#808080;stroke-opacity:0.2;" x="270.3763" xlink:href="#me1bf99d8fe" y="83.623275"/>
     <use style="fill:#808080;fill-opacity:0.2;stroke:#808080;stroke-opacity:0.2;" x="153.372422" xlink:href="#me1bf99d8fe" y="125.193769"/>
     <use style="fill:#808080;fill-opacity:0.2;stroke:#808080;stroke-opacity:0.2;" x="175.133652" xlink:href="#me1bf99d8fe" y="136.256382"/>
     <use style="fill:#808080;fill-opacity:0.2;stroke:#808080;stroke-opacity:0.2;" x="160.318328" xlink:href="#me1bf99d8fe" y="80.117953"/>
     <use style="fill:#808080;fill-opacity:0.2;stroke:#808080;stroke-opacity:0.2;" x="110.356625" xlink:href="#me1bf99d8fe" y="172.724858"/>
     <use style="fill:#808080;fill-opacity:0.2;stroke:#808080;stroke-opacity:0.2;" x="212.199617" xlink:href="#me1bf99d8fe" y="99.866674"/>
     <use style="fill:#808080;fill-opacity:0.2;stroke:#808080;stroke-opacity:0.2;" x="194.977307" xlink:href="#me1bf99d8fe" y="95.896826"/>
     <use style="fill:#808080;fill-opacity:0.2;stroke:#808080;stroke-opacity:0.2;" x="196.699976" xlink:href="#me1bf99d8fe" y="66.113758"/>
     <use style="fill:#808080;fill-opacity:0.2;stroke:#808080;stroke-opacity:0.2;" x="121.780774" xlink:href="#me1bf99d8fe" y="167.129193"/>
     <use style="fill:#808080;fill-opacity:0.2;stroke:#808080;stroke-opacity:0.2;" x="223.653766" xlink:href="#me1bf99d8fe" y="58.750856"/>
     <use style="fill:#808080;fill-opacity:0.2;stroke:#808080;stroke-opacity:0.2;" x="100.083197" xlink:href="#me1bf99d8fe" y="146.084877"/>
     <use style="fill:#808080;fill-opacity:0.2;stroke:#808080;stroke-opacity:0.2;" x="187.704185" xlink:href="#me1bf99d8fe" y="124.084267"/>
     <use style="fill:#808080;fill-opacity:0.2;stroke:#808080;stroke-opacity:0.2;" x="258.357533" xlink:href="#me1bf99d8fe" y="56.839783"/>
     <use style="fill:#808080;fill-opacity:0.2;stroke:#808080;stroke-opacity:0.2;" x="118.205415" xlink:href="#me1bf99d8fe" y="132.841225"/>
     <use style="fill:#808080;fill-opacity:0.2;stroke:#808080;stroke-opacity:0.2;" x="136.897049" xlink:href="#me1bf99d8fe" y="141.117396"/>
     <use style="fill:#808080;fill-opacity:0.2;stroke:#808080;stroke-opacity:0.2;" x="166.238266" xlink:href="#me1bf99d8fe" y="111.63585"/>
     <use style="fill:#808080;fill-opacity:0.2;stroke:#808080;stroke-opacity:0.2;" x="139.664943" xlink:href="#me1bf99d8fe" y="134.988677"/>
     <use style="fill:#808080;fill-opacity:0.2;stroke:#808080;stroke-opacity:0.2;" x="93.526636" xlink:href="#me1bf99d8fe" y="147.08957"/>
     <use style="fill:#808080;fill-opacity:0.2;stroke:#808080;stroke-opacity:0.2;" x="164.868535" xlink:href="#me1bf99d8fe" y="99.250652"/>
     <use style="fill:#808080;fill-opacity:0.2;stroke:#808080;stroke-opacity:0.2;" x="115.043398" xlink:href="#me1bf99d8fe" y="103.818206"/>
     <use style="fill:#808080;fill-opacity:0.2;stroke:#808080;stroke-opacity:0.2;" x="182.713829" xlink:href="#me1bf99d8fe" y="132.239806"/>
     <use style="fill:#808080;fill-opacity:0.2;stroke:#808080;stroke-opacity:0.2;" x="121.338561" xlink:href="#me1bf99d8fe" y="88.593888"/>
     <use style="fill:#808080;fill-opacity:0.2;stroke:#808080;stroke-opacity:0.2;" x="230.136648" xlink:href="#me1bf99d8fe" y="124.249814"/>
     <use style="fill:#808080;fill-opacity:0.2;stroke:#808080;stroke-opacity:0.2;" x="127.33815" xlink:href="#me1bf99d8fe" y="136.009282"/>
     <use style="fill:#808080;fill-opacity:0.2;stroke:#808080;stroke-opacity:0.2;" x="147.657914" xlink:href="#me1bf99d8fe" y="109.499661"/>
     <use style="fill:#808080;fill-opacity:0.2;stroke:#808080;stroke-opacity:0.2;" x="197.69066" xlink:href="#me1bf99d8fe" y="91.222135"/>
     <use style="fill:#808080;fill-opacity:0.2;stroke:#808080;stroke-opacity:0.2;" x="107.616744" xlink:href="#me1bf99d8fe" y="156.278891"/>
     <use style="fill:#808080;fill-opacity:0.2;stroke:#808080;stroke-opacity:0.2;" x="171.869416" xlink:href="#me1bf99d8fe" y="114.948537"/>
     <use style="fill:#808080;fill-opacity:0.2;stroke:#808080;stroke-opacity:0.2;" x="219.439431" xlink:href="#me1bf99d8fe" y="97.409155"/>
     <use style="fill:#808080;fill-opacity:0.2;stroke:#808080;stroke-opacity:0.2;" x="91.023198" xlink:href="#me1bf99d8fe" y="163.854333"/>
     <use style="fill:#808080;fill-opacity:0.2;stroke:#808080;stroke-opacity:0.2;" x="169.982531" xlink:href="#me1bf99d8fe" y="92.552216"/>
     <use style="fill:#808080;fill-opacity:0.2;stroke:#808080;stroke-opacity:0.2;" x="173.297943" xlink:href="#me1bf99d8fe" y="101.761837"/>
     <use style="fill:#808080;fill-opacity:0.2;stroke:#808080;stroke-opacity:0.2;" x="196.294231" xlink:href="#me1bf99d8fe" y="113.413174"/>
     <use style="fill:#808080;fill-opacity:0.2;stroke:#808080;stroke-opacity:0.2;" x="107.348582" xlink:href="#me1bf99d8fe" y="122.81978"/>
     <use style="fill:#808080;fill-opacity:0.2;stroke:#808080;stroke-opacity:0.2;" x="103.669375" xlink:href="#me1bf99d8fe" y="137.733171"/>
     <use style="fill:#808080;fill-opacity:0.2;stroke:#808080;stroke-opacity:0.2;" x="184.844056" xlink:href="#me1bf99d8fe" y="85.919421"/>
     <use style="fill:#808080;fill-opacity:0.2;stroke:#808080;stroke-opacity:0.2;" x="174.932624" xlink:href="#me1bf99d8fe" y="94.927179"/>
    </g>
   </g>
   <g id="line2d_2">
    <defs>
     <path d="M 0 7.5 
C 1.989023 7.5 3.896849 6.709753 5.303301 5.303301 
C 6.709753 3.896849 7.5 1.989023 7.5 0 
C 7.5 -1.989023 6.709753 -3.896849 5.303301 -5.303301 
C 3.896849 -6.709753 1.989023 -7.5 0 -7.5 
C -1.989023 -7.5 -3.896849 -6.709753 -5.303301 -5.303301 
C -6.709753 -3.896849 -7.5 -1.989023 -7.5 0 
C -7.5 1.989023 -6.709753 3.896849 -5.303301 5.303301 
C -3.896849 6.709753 -1.989023 7.5 0 7.5 
z
" id="m08b8ce64b4" style="stroke:#d62728;"/>
    </defs>
    <g clip-path="url(#pb82b1785da)">
     <use style="fill:#d62728;stroke:#d62728;" x="176.987266" xlink:href="#m08b8ce64b4" y="106.507934"/>
     <use style="fill:#d62728;stroke:#d62728;" x="144.571711" xlink:href="#m08b8ce64b4" y="150.515745"/>
     <use style="fill:#d62728;stroke:#d62728;" x="147.411154" xlink:href="#m08b8ce64b4" y="103.500876"/>
     <use style="fill:#d62728;stroke:#d62728;" x="75.506108" xlink:href="#m08b8ce64b4" y="160.227553"/>
     <use style="fill:#d62728;stroke:#d62728;" x="91.023198" xlink:href="#m08b8ce64b4" y="163.854333"/>
    </g>
   </g>
   <g id="line2d_3">
    <path clip-path="url(#pb82b1785da)" d="M 46.4237 183.4214 
L 48.685847 182.117545 
L 50.947995 180.813689 
L 53.210142 179.509833 
L 55.47229 178.205977 
L 57.734437 176.902122 
L 59.996585 175.598266 
L 62.258732 174.29441 
L 64.52088 172.990554 
L 66.783027 171.686698 
L 69.045175 170.382843 
L 71.307322 169.078987 
L 73.569469 167.775131 
L 75.831617 166.471275 
L 78.093764 165.16742 
L 80.355912 163.863564 
L 82.618059 162.559708 
L 84.880207 161.255852 
L 87.142354 159.951997 
L 89.404502 158.648141 
L 91.666649 157.344285 
L 93.928797 156.040429 
L 96.190944 154.736574 
L 98.453092 153.432718 
L 100.715239 152.128862 
L 102.977387 150.825006 
L 105.239534 149.521151 
L 107.501682 148.217295 
L 109.763829 146.913439 
L 112.025977 145.609583 
L 114.288124 144.305728 
L 116.550272 143.001872 
L 118.812419 141.698016 
L 121.074567 140.39416 
L 123.336714 139.090304 
L 125.598862 137.786449 
L 127.861009 136.482593 
L 130.123156 135.178737 
L 132.385304 133.874881 
L 134.647451 132.571026 
L 136.909599 131.26717 
L 139.171746 129.963314 
L 141.433894 128.659458 
L 143.696041 127.355603 
L 145.958189 126.051747 
L 148.220336 124.747891 
L 150.482484 123.444035 
L 152.744631 122.14018 
L 155.006779 120.836324 
L 157.268926 119.532468 
L 159.531074 118.228612 
L 161.793221 116.924757 
L 164.055369 115.620901 
L 166.317516 114.317045 
L 168.579664 113.013189 
L 170.841811 111.709333 
L 173.103959 110.405478 
L 175.366106 109.101622 
L 177.628254 107.797766 
L 179.890401 106.49391 
L 182.152549 105.190055 
L 184.414696 103.886199 
L 186.676844 102.582343 
L 188.938991 101.278487 
L 191.201138 99.974632 
L 193.463286 98.670776 
L 195.725433 97.36692 
L 197.987581 96.063064 
L 200.249728 94.759209 
L 202.511876 93.455353 
L 204.774023 92.151497 
L 207.036171 90.847641 
L 209.298318 89.543786 
L 211.560466 88.23993 
L 213.822613 86.936074 
L 216.084761 85.632218 
L 218.346908 84.328362 
L 220.609056 83.024507 
L 222.871203 81.720651 
L 225.133351 80.416795 
L 227.395498 79.112939 
L 229.657646 77.809084 
L 231.919793 76.505228 
L 234.181941 75.201372 
L 236.444088 73.897516 
L 238.706236 72.593661 
L 240.968383 71.289805 
L 243.230531 69.985949 
L 245.492678 68.682093 
L 247.754825 67.378238 
L 250.016973 66.074382 
L 252.27912 64.770526 
L 254.541268 63.46667 
L 256.803415 62.162815 
L 259.065563 60.858959 
L 261.32771 59.555103 
L 263.589858 58.251247 
L 265.852005 56.947392 
L 268.114153 55.643536 
L 270.3763 54.33968 
" style="fill:none;stroke:#d62728;stroke-linecap:square;stroke-width:1.5;"/>
   </g>
   <g id="patch_3">
    <path d="M 28.8 194.4 
L 28.8 0 
" style="fill:none;stroke:#000000;stroke-linecap:square;stroke-linejoin:miter;stroke-width:0.8;"/>
   </g>
   <g id="patch_4">
    <path d="M 28.8 194.4 
L 288 194.4 
" style="fill:none;stroke:#000000;stroke-linecap:square;stroke-linejoin:miter;stroke-width:0.8;"/>
   </g>
  </g>
 </g>
 <defs>
  <clipPath id="pb82b1785da">
   <rect height="194.4" width="259.2" x="28.8" y="0"/>
  </clipPath>
 </defs>
</svg>
