<?xml version="1.0" encoding="utf-8" standalone="no"?>
<!DOCTYPE svg PUBLIC "-//W3C//DTD SVG 1.1//EN"
  "http://www.w3.org/Graphics/SVG/1.1/DTD/svg11.dtd">
<!-- Created with matplotlib (https://matplotlib.org/) -->
<svg height="216pt" version="1.1" viewBox="0 0 288 216" width="288pt" xmlns="http://www.w3.org/2000/svg" xmlns:xlink="http://www.w3.org/1999/xlink">
 <defs>
  <style type="text/css">
*{stroke-linecap:butt;stroke-linejoin:round;}
  </style>
 </defs>
 <g id="figure_1">
  <g id="patch_1">
   <path d="M 0 216 
L 288 216 
L 288 0 
L 0 0 
z
" style="fill:none;"/>
  </g>
  <g id="axes_1">
   <g id="patch_2">
    <path d="M 28.8 194.4 
L 288 194.4 
L 288 0 
L 28.8 0 
z
" style="fill:none;"/>
   </g>
   <g id="matplotlib.axis_1">
    <g id="text_1">
     <!-- x -->
     <defs>
      <path d="M 22.21875 27.984375 
L 2.484375 54.6875 
L 21 54.6875 
L 32.171875 38.484375 
L 43.5 54.6875 
L 62.015625 54.6875 
L 42.28125 28.078125 
L 62.984375 0 
L 44.484375 0 
L 32.171875 17.28125 
L 20.015625 0 
L 1.515625 0 
z
" id="DejaVuSans-Bold-120"/>
     </defs>
     <g transform="translate(153.24 210.5575)scale(0.16 -0.16)">
      <use xlink:href="#DejaVuSans-Bold-120"/>
     </g>
    </g>
   </g>
   <g id="matplotlib.axis_2">
    <g id="text_2">
     <!-- y -->
     <defs>
      <path d="M 1.21875 54.6875 
L 18.703125 54.6875 
L 33.40625 17.578125 
L 45.90625 54.6875 
L 63.375 54.6875 
L 40.375 -5.171875 
Q 36.921875 -14.3125 32.296875 -17.9375 
Q 27.6875 -21.578125 20.125 -21.578125 
L 10.015625 -21.578125 
L 10.015625 -10.109375 
L 15.484375 -10.109375 
Q 19.921875 -10.109375 21.9375 -8.6875 
Q 23.96875 -7.28125 25.09375 -3.609375 
L 25.59375 -2.09375 
z
" id="DejaVuSans-Bold-121"/>
     </defs>
     <g transform="translate(21.3475 102.415)rotate(-90)scale(0.16 -0.16)">
      <use xlink:href="#DejaVuSans-Bold-121"/>
     </g>
    </g>
   </g>
   <g id="line2d_1">
    <path clip-path="url(#p46e7f2527c)" d="M 8.861538 185.563636 
L 13.529406 182.322346 
L 18.197273 178.795501 
L 22.86514 174.974142 
L 27.533007 170.852603 
L 32.200875 166.429217 
L 36.868742 161.706979 
L 41.536609 156.69415 
L 47.13805 150.315283 
L 52.739491 143.574021 
L 59.274505 135.316 
L 66.743092 125.479412 
L 78.879547 109.025376 
L 90.082429 93.94482 
L 97.551016 84.273927 
L 103.152457 77.339144 
L 108.753898 70.739633 
L 114.355338 64.518463 
L 119.023206 59.645553 
L 123.691073 55.067941 
L 128.35894 50.791261 
L 133.026807 46.81616 
L 137.694675 43.138939 
L 142.362542 39.752244 
L 147.030409 36.645765 
L 151.698276 33.806915 
L 156.366144 31.221458 
L 161.034011 28.874072 
L 165.701878 26.748829 
L 171.303319 24.469077 
L 176.904759 22.458461 
L 182.5062 20.690341 
L 188.107641 19.139428 
L 194.642655 17.573114 
L 201.177669 16.235914 
L 208.646257 14.948697 
L 216.114844 13.879716 
L 224.517005 12.894382 
L 233.85274 12.020086 
L 245.055621 11.212952 
L 257.192076 10.565784 
L 272.129251 10.004476 
L 288 9.605487 
L 288 9.605487 
" style="fill:none;stroke:#00bfbf;stroke-linecap:square;stroke-width:3;"/>
   </g>
   <g id="patch_3">
    <path d="M 28.8 194.4 
L 28.8 0 
" style="fill:none;stroke:#000000;stroke-linecap:square;stroke-linejoin:miter;stroke-width:0.8;"/>
   </g>
   <g id="patch_4">
    <path d="M 28.8 194.4 
L 288 194.4 
" style="fill:none;stroke:#000000;stroke-linecap:square;stroke-linejoin:miter;stroke-width:0.8;"/>
   </g>
   <g id="PathCollection_1">
    <defs>
     <path d="M 0 3.162278 
C 0.838646 3.162278 1.643056 2.82908 2.236068 2.236068 
C 2.82908 1.643056 3.162278 0.838646 3.162278 0 
C 3.162278 -0.838646 2.82908 -1.643056 2.236068 -2.236068 
C 1.643056 -2.82908 0.838646 -3.162278 0 -3.162278 
C -0.838646 -3.162278 -1.643056 -2.82908 -2.236068 -2.236068 
C -2.82908 -1.643056 -3.162278 -0.838646 -3.162278 0 
C -3.162278 0.838646 -2.82908 1.643056 -2.236068 2.236068 
C -1.643056 2.82908 -0.838646 3.162278 0 3.162278 
z
" id="C0_0_6d81b6f4b4"/>
    </defs>
    <g clip-path="url(#p46e7f2527c)">
     <use style="fill:#a6cee3;stroke:#000000;" x="98.584615" xlink:href="#C0_0_6d81b6f4b4" y="111.842852"/>
    </g>
    <g clip-path="url(#p46e7f2527c)">
     <use style="fill:#b15928;stroke:#000000;" x="108.553846" xlink:href="#C0_0_6d81b6f4b4" y="8.836364"/>
    </g>
   </g>
  </g>
 </g>
 <defs>
  <clipPath id="p46e7f2527c">
   <rect height="194.4" width="259.2" x="28.8" y="0"/>
  </clipPath>
 </defs>
</svg>
