<?xml version="1.0" encoding="utf-8" standalone="no"?>
<!DOCTYPE svg PUBLIC "-//W3C//DTD SVG 1.1//EN"
  "http://www.w3.org/Graphics/SVG/1.1/DTD/svg11.dtd">
<!-- Created with matplotlib (https://matplotlib.org/) -->
<svg height="172.8pt" version="1.1" viewBox="0 0 230.4 172.8" width="230.4pt" xmlns="http://www.w3.org/2000/svg" xmlns:xlink="http://www.w3.org/1999/xlink">
 <defs>
  <style type="text/css">
*{stroke-linecap:butt;stroke-linejoin:round;}
  </style>
 </defs>
 <g id="figure_1">
  <g id="patch_1">
   <path d="M 0 172.8 
L 230.4 172.8 
L 230.4 0 
L 0 0 
z
" style="fill:none;"/>
  </g>
  <g id="axes_1">
   <g id="patch_2">
    <path d="M 23.04 155.52 
L 230.4 155.52 
L 230.4 0 
L 23.04 0 
z
" style="fill:none;"/>
   </g>
   <g id="PathCollection_1">
    <defs>
     <path d="M 0 1.5 
C 0.397805 1.5 0.77937 1.341951 1.06066 1.06066 
C 1.341951 0.77937 1.5 0.397805 1.5 0 
C 1.5 -0.397805 1.341951 -0.77937 1.06066 -1.06066 
C 0.77937 -1.341951 0.397805 -1.5 0 -1.5 
C -0.397805 -1.5 -0.77937 -1.341951 -1.06066 -1.06066 
C -1.341951 -0.77937 -1.5 -0.397805 -1.5 0 
C -1.5 0.397805 -1.341951 0.77937 -1.06066 1.06066 
C -0.77937 1.341951 -0.397805 1.5 0 1.5 
z
" id="m63aa62a9d1" style="stroke:#000000;"/>
    </defs>
    <g clip-path="url(#p90de018f81)">
     <use style="stroke:#000000;" x="41.066485" xlink:href="#m63aa62a9d1" y="142.773702"/>
     <use style="stroke:#000000;" x="43.098259" xlink:href="#m63aa62a9d1" y="131.898683"/>
     <use style="stroke:#000000;" x="45.130032" xlink:href="#m63aa62a9d1" y="133.317164"/>
     <use style="stroke:#000000;" x="47.161806" xlink:href="#m63aa62a9d1" y="123.624212"/>
     <use style="stroke:#000000;" x="48.177693" xlink:href="#m63aa62a9d1" y="148.447626"/>
     <use style="stroke:#000000;" x="50.209467" xlink:href="#m63aa62a9d1" y="119.132356"/>
     <use style="stroke:#000000;" x="53.257127" xlink:href="#m63aa62a9d1" y="46.789836"/>
     <use style="stroke:#000000;" x="55.288901" xlink:href="#m63aa62a9d1" y="147.501972"/>
     <use style="stroke:#000000;" x="60.368335" xlink:href="#m63aa62a9d1" y="124.806279"/>
     <use style="stroke:#000000;" x="63.415996" xlink:href="#m63aa62a9d1" y="100.692106"/>
     <use style="stroke:#000000;" x="64.431883" xlink:href="#m63aa62a9d1" y="106.366029"/>
     <use style="stroke:#000000;" x="66.463657" xlink:href="#m63aa62a9d1" y="132.37151"/>
     <use style="stroke:#000000;" x="68.49543" xlink:href="#m63aa62a9d1" y="104.474721"/>
     <use style="stroke:#000000;" x="70.527204" xlink:href="#m63aa62a9d1" y="135.208472"/>
     <use style="stroke:#000000;" x="72.558978" xlink:href="#m63aa62a9d1" y="105.420375"/>
     <use style="stroke:#000000;" x="74.590752" xlink:href="#m63aa62a9d1" y="109.675818"/>
     <use style="stroke:#000000;" x="77.638412" xlink:href="#m63aa62a9d1" y="140.882395"/>
     <use style="stroke:#000000;" x="78.654299" xlink:href="#m63aa62a9d1" y="120.708446"/>
     <use style="stroke:#000000;" x="80.686073" xlink:href="#m63aa62a9d1" y="81.306202"/>
     <use style="stroke:#000000;" x="83.733733" xlink:href="#m63aa62a9d1" y="83.19751"/>
     <use style="stroke:#000000;" x="86.781394" xlink:href="#m63aa62a9d1" y="142.300876"/>
     <use style="stroke:#000000;" x="87.797281" xlink:href="#m63aa62a9d1" y="74.213798"/>
     <use style="stroke:#000000;" x="90.844941" xlink:href="#m63aa62a9d1" y="90.0535"/>
     <use style="stroke:#000000;" x="95.924376" xlink:href="#m63aa62a9d1" y="90.289914"/>
     <use style="stroke:#000000;" x="96.940263" xlink:href="#m63aa62a9d1" y="68.539875"/>
     <use style="stroke:#000000;" x="97.95615" xlink:href="#m63aa62a9d1" y="137.099779"/>
     <use style="stroke:#000000;" x="102.019697" xlink:href="#m63aa62a9d1" y="102.583414"/>
     <use style="stroke:#000000;" x="104.051471" xlink:href="#m63aa62a9d1" y="103.765481"/>
     <use style="stroke:#000000;" x="112.178566" xlink:href="#m63aa62a9d1" y="108.257337"/>
     <use style="stroke:#000000;" x="114.21034" xlink:href="#m63aa62a9d1" y="34.969163"/>
     <use style="stroke:#000000;" x="117.258" xlink:href="#m63aa62a9d1" y="94.781769"/>
     <use style="stroke:#000000;" x="121.321548" xlink:href="#m63aa62a9d1" y="99.510039"/>
     <use style="stroke:#000000;" x="123.353321" xlink:href="#m63aa62a9d1" y="49.390384"/>
     <use style="stroke:#000000;" x="129.448643" xlink:href="#m63aa62a9d1" y="40.643086"/>
     <use style="stroke:#000000;" x="131.480416" xlink:href="#m63aa62a9d1" y="94.072529"/>
     <use style="stroke:#000000;" x="133.51219" xlink:href="#m63aa62a9d1" y="59.556163"/>
     <use style="stroke:#000000;" x="134.528077" xlink:href="#m63aa62a9d1" y="23.14849"/>
     <use style="stroke:#000000;" x="136.559851" xlink:href="#m63aa62a9d1" y="84.61599"/>
     <use style="stroke:#000000;" x="138.591624" xlink:href="#m63aa62a9d1" y="67.594221"/>
     <use style="stroke:#000000;" x="140.623398" xlink:href="#m63aa62a9d1" y="126.22476"/>
     <use style="stroke:#000000;" x="141.639285" xlink:href="#m63aa62a9d1" y="63.811606"/>
     <use style="stroke:#000000;" x="144.686946" xlink:href="#m63aa62a9d1" y="34.496336"/>
     <use style="stroke:#000000;" x="147.734606" xlink:href="#m63aa62a9d1" y="101.164933"/>
     <use style="stroke:#000000;" x="148.750493" xlink:href="#m63aa62a9d1" y="73.740971"/>
     <use style="stroke:#000000;" x="149.76638" xlink:href="#m63aa62a9d1" y="104.947548"/>
     <use style="stroke:#000000;" x="150.782267" xlink:href="#m63aa62a9d1" y="63.338779"/>
     <use style="stroke:#000000;" x="151.798154" xlink:href="#m63aa62a9d1" y="83.670337"/>
     <use style="stroke:#000000;" x="152.814041" xlink:href="#m63aa62a9d1" y="16.056086"/>
     <use style="stroke:#000000;" x="158.909362" xlink:href="#m63aa62a9d1" y="98.800798"/>
     <use style="stroke:#000000;" x="160.941136" xlink:href="#m63aa62a9d1" y="37.333298"/>
     <use style="stroke:#000000;" x="163.988796" xlink:href="#m63aa62a9d1" y="82.488269"/>
     <use style="stroke:#000000;" x="166.02057" xlink:href="#m63aa62a9d1" y="94.545356"/>
     <use style="stroke:#000000;" x="174.147665" xlink:href="#m63aa62a9d1" y="29.768067"/>
     <use style="stroke:#000000;" x="178.211212" xlink:href="#m63aa62a9d1" y="35.914817"/>
     <use style="stroke:#000000;" x="195.481289" xlink:href="#m63aa62a9d1" y="105.420375"/>
     <use style="stroke:#000000;" x="211.735479" xlink:href="#m63aa62a9d1" y="43.952875"/>
     <use style="stroke:#000000;" x="212.751366" xlink:href="#m63aa62a9d1" y="7.072374"/>
    </g>
   </g>
   <g id="matplotlib.axis_1">
    <g id="text_1">
     <!-- x -->
     <defs>
      <path d="M 22.21875 27.984375 
L 2.484375 54.6875 
L 21 54.6875 
L 32.171875 38.484375 
L 43.5 54.6875 
L 62.015625 54.6875 
L 42.28125 28.078125 
L 62.984375 0 
L 44.484375 0 
L 32.171875 17.28125 
L 20.015625 0 
L 1.515625 0 
z
" id="DejaVuSans-Bold-120"/>
     </defs>
     <g transform="translate(121.56 171.6775)scale(0.16 -0.16)">
      <use xlink:href="#DejaVuSans-Bold-120"/>
     </g>
    </g>
   </g>
   <g id="matplotlib.axis_2">
    <g id="text_2">
     <!-- y -->
     <defs>
      <path d="M 1.21875 54.6875 
L 18.703125 54.6875 
L 33.40625 17.578125 
L 45.90625 54.6875 
L 63.375 54.6875 
L 40.375 -5.171875 
Q 36.921875 -14.3125 32.296875 -17.9375 
Q 27.6875 -21.578125 20.125 -21.578125 
L 10.015625 -21.578125 
L 10.015625 -10.109375 
L 15.484375 -10.109375 
Q 19.921875 -10.109375 21.9375 -8.6875 
Q 23.96875 -7.28125 25.09375 -3.609375 
L 25.59375 -2.09375 
z
" id="DejaVuSans-Bold-121"/>
     </defs>
     <g transform="translate(15.5875 82.975)rotate(-90)scale(0.16 -0.16)">
      <use xlink:href="#DejaVuSans-Bold-121"/>
     </g>
    </g>
   </g>
   <g id="line2d_1">
    <path clip-path="url(#p90de018f81)" d="M 32.465455 131.573278 
L 220.974545 31.329711 
" style="fill:none;stroke:#1f77b4;stroke-linecap:square;stroke-width:3;"/>
   </g>
   <g id="patch_3">
    <path d="M 23.04 155.52 
L 23.04 0 
" style="fill:none;stroke:#000000;stroke-linecap:square;stroke-linejoin:miter;stroke-width:0.8;"/>
   </g>
   <g id="patch_4">
    <path d="M 23.04 155.52 
L 230.4 155.52 
" style="fill:none;stroke:#000000;stroke-linecap:square;stroke-linejoin:miter;stroke-width:0.8;"/>
   </g>
  </g>
 </g>
 <defs>
  <clipPath id="p90de018f81">
   <rect height="155.52" width="207.36" x="23.04" y="0"/>
  </clipPath>
 </defs>
</svg>
