<?xml version="1.0" encoding="utf-8" standalone="no"?>
<!DOCTYPE svg PUBLIC "-//W3C//DTD SVG 1.1//EN"
  "http://www.w3.org/Graphics/SVG/1.1/DTD/svg11.dtd">
<!-- Created with matplotlib (https://matplotlib.org/) -->
<svg height="176.4pt" version="1.1" viewBox="0 0 230.4 176.4" width="230.4pt" xmlns="http://www.w3.org/2000/svg" xmlns:xlink="http://www.w3.org/1999/xlink">
 <defs>
  <style type="text/css">
*{stroke-linecap:butt;stroke-linejoin:round;}
  </style>
 </defs>
 <g id="figure_1">
  <g id="patch_1">
   <path d="M 0 176.4 
L 230.4 176.4 
L 230.4 0 
L 0 0 
z
" style="fill:none;"/>
  </g>
  <g id="axes_1">
   <g id="PathCollection_1">
    <defs>
     <path d="M 0 2.236068 
C 0.593012 2.236068 1.161816 2.000462 1.581139 1.581139 
C 2.000462 1.161816 2.236068 0.593012 2.236068 0 
C 2.236068 -0.593012 2.000462 -1.161816 1.581139 -1.581139 
C 1.161816 -2.000462 0.593012 -2.236068 0 -2.236068 
C -0.593012 -2.236068 -1.161816 -2.000462 -1.581139 -1.581139 
C -2.000462 -1.161816 -2.236068 -0.593012 -2.236068 0 
C -2.236068 0.593012 -2.000462 1.161816 -1.581139 1.581139 
C -1.161816 2.000462 -0.593012 2.236068 0 2.236068 
z
" id="m4ad8110959" style="stroke:#000000;"/>
    </defs>
    <g clip-path="url(#p7fd721268e)">
     <use style="stroke:#000000;" x="125.42421" xlink:href="#m4ad8110959" y="149.162962"/>
     <use style="stroke:#000000;" x="160.272391" xlink:href="#m4ad8110959" y="70.353338"/>
     <use style="stroke:#000000;" x="136.724256" xlink:href="#m4ad8110959" y="124.771259"/>
     <use style="stroke:#000000;" x="124.600987" xlink:href="#m4ad8110959" y="125.384655"/>
     <use style="stroke:#000000;" x="99.209151" xlink:href="#m4ad8110959" y="139.871732"/>
     <use style="stroke:#000000;" x="145.758185" xlink:href="#m4ad8110959" y="98.088036"/>
     <use style="stroke:#000000;" x="102.127358" xlink:href="#m4ad8110959" y="147.09614"/>
     <use style="stroke:#000000;" x="197.258636" xlink:href="#m4ad8110959" y="92.859526"/>
     <use style="stroke:#000000;" x="212.316273" xlink:href="#m4ad8110959" y="106.986297"/>
     <use style="stroke:#000000;" x="90.786296" xlink:href="#m4ad8110959" y="107.29905"/>
     <use style="stroke:#000000;" x="176.303135" xlink:href="#m4ad8110959" y="108.517786"/>
     <use style="stroke:#000000;" x="121.252172" xlink:href="#m4ad8110959" y="139.625362"/>
     <use style="stroke:#000000;" x="129.452243" xlink:href="#m4ad8110959" y="117.073868"/>
     <use style="stroke:#000000;" x="204.34315" xlink:href="#m4ad8110959" y="79.665584"/>
     <use style="stroke:#000000;" x="25.351553" xlink:href="#m4ad8110959" y="63.103059"/>
     <use style="stroke:#000000;" x="28.722355" xlink:href="#m4ad8110959" y="64.646766"/>
     <use style="stroke:#000000;" x="14.707563" xlink:href="#m4ad8110959" y="50.187374"/>
     <use style="stroke:#000000;" x="184.868739" xlink:href="#m4ad8110959" y="101.111321"/>
     <use style="stroke:#000000;" x="173.461196" xlink:href="#m4ad8110959" y="113.095964"/>
     <use style="stroke:#000000;" x="192.700726" xlink:href="#m4ad8110959" y="97.287498"/>
     <use style="stroke:#000000;" x="215.448787" xlink:href="#m4ad8110959" y="108.044549"/>
     <use style="stroke:#000000;" x="177.860121" xlink:href="#m4ad8110959" y="130.540588"/>
     <use style="stroke:#000000;" x="107.131677" xlink:href="#m4ad8110959" y="113.928611"/>
     <use style="stroke:#000000;" x="173.958111" xlink:href="#m4ad8110959" y="107.735711"/>
     <use style="stroke:#000000;" x="35.245843" xlink:href="#m4ad8110959" y="110.513334"/>
     <use style="stroke:#000000;" x="144.507094" xlink:href="#m4ad8110959" y="104.401209"/>
     <use style="stroke:#000000;" x="40.498725" xlink:href="#m4ad8110959" y="103.060311"/>
     <use style="stroke:#000000;" x="208.337926" xlink:href="#m4ad8110959" y="87.321171"/>
     <use style="stroke:#000000;" x="119.77623" xlink:href="#m4ad8110959" y="103.773261"/>
     <use style="stroke:#000000;" x="97.325555" xlink:href="#m4ad8110959" y="113.549368"/>
     <use style="stroke:#000000;" x="65.885103" xlink:href="#m4ad8110959" y="83.673224"/>
     <use style="stroke:#000000;" x="172.639493" xlink:href="#m4ad8110959" y="124.117382"/>
     <use style="stroke:#000000;" x="106.015488" xlink:href="#m4ad8110959" y="109.598464"/>
     <use style="stroke:#000000;" x="129.533802" xlink:href="#m4ad8110959" y="129.4168"/>
     <use style="stroke:#000000;" x="14.408336" xlink:href="#m4ad8110959" y="53.694956"/>
     <use style="stroke:#000000;" x="139.83929" xlink:href="#m4ad8110959" y="125.319457"/>
     <use style="stroke:#000000;" x="138.678959" xlink:href="#m4ad8110959" y="120.582679"/>
     <use style="stroke:#000000;" x="139.692357" xlink:href="#m4ad8110959" y="113.408856"/>
     <use style="stroke:#000000;" x="208.145052" xlink:href="#m4ad8110959" y="110.168029"/>
     <use style="stroke:#000000;" x="153.283088" xlink:href="#m4ad8110959" y="93.08174"/>
     <use style="stroke:#000000;" x="85.773291" xlink:href="#m4ad8110959" y="104.452548"/>
     <use style="stroke:#000000;" x="102.011057" xlink:href="#m4ad8110959" y="145.619501"/>
     <use style="stroke:#000000;" x="156.594752" xlink:href="#m4ad8110959" y="80.674629"/>
     <use style="stroke:#000000;" x="23.087226" xlink:href="#m4ad8110959" y="24.145425"/>
     <use style="stroke:#000000;" x="150.130047" xlink:href="#m4ad8110959" y="89.044881"/>
     <use style="stroke:#000000;" x="150.940877" xlink:href="#m4ad8110959" y="114.312626"/>
     <use style="stroke:#000000;" x="54.538311" xlink:href="#m4ad8110959" y="118.322909"/>
     <use style="stroke:#000000;" x="37.476926" xlink:href="#m4ad8110959" y="62.749068"/>
     <use style="stroke:#000000;" x="76.540629" xlink:href="#m4ad8110959" y="117.598843"/>
     <use style="stroke:#000000;" x="86.653601" xlink:href="#m4ad8110959" y="90.471201"/>
    </g>
   </g>
   <g id="line2d_1">
    <path clip-path="url(#p7fd721268e)" d="M 10.472727 86.316104 
L 12.58843 86.644203 
L 14.704132 86.972302 
L 16.819835 87.300401 
L 18.935537 87.6285 
L 21.05124 87.956599 
L 23.166942 88.284698 
L 25.282645 88.612797 
L 27.398347 88.940896 
L 29.51405 89.268995 
L 31.629752 89.597094 
L 33.745455 89.925193 
L 35.861157 90.253292 
L 37.97686 90.581391 
L 40.092562 90.90949 
L 42.208264 91.237589 
L 44.323967 91.565688 
L 46.439669 91.893787 
L 48.555372 92.221886 
L 50.671074 92.549985 
L 52.786777 92.878084 
L 54.902479 93.206183 
L 57.018182 93.534281 
L 59.133884 93.86238 
L 61.249587 94.190479 
L 63.365289 94.518578 
L 65.480992 94.846677 
L 67.596694 95.174776 
L 69.712397 95.502875 
L 71.828099 95.830974 
L 73.943802 96.159073 
L 76.059504 96.487172 
L 78.175207 96.815271 
L 80.290909 97.14337 
L 82.406612 97.471469 
L 84.522314 97.799568 
L 86.638017 98.127667 
L 88.753719 98.455766 
L 90.869421 98.783865 
L 92.985124 99.111964 
L 95.100826 99.440063 
L 97.216529 99.768162 
L 99.332231 100.096261 
L 101.447934 100.42436 
L 103.563636 100.752459 
L 105.679339 101.080558 
L 107.795041 101.408656 
L 109.910744 101.736755 
L 112.026446 102.064854 
L 114.142149 102.392953 
L 116.257851 102.721052 
L 118.373554 103.049151 
L 120.489256 103.37725 
L 122.604959 103.705349 
L 124.720661 104.033448 
L 126.836364 104.361547 
L 128.952066 104.689646 
L 131.067769 105.017745 
L 133.183471 105.345844 
L 135.299174 105.673943 
L 137.414876 106.002042 
L 139.530579 106.330141 
L 141.646281 106.65824 
L 143.761983 106.986339 
L 145.877686 107.314438 
L 147.993388 107.642537 
L 150.109091 107.970636 
L 152.224793 108.298735 
L 154.340496 108.626834 
L 156.456198 108.954933 
L 158.571901 109.283031 
L 160.687603 109.61113 
L 162.803306 109.939229 
L 164.919008 110.267328 
L 167.034711 110.595427 
L 169.150413 110.923526 
L 171.266116 111.251625 
L 173.381818 111.579724 
L 175.497521 111.907823 
L 177.613223 112.235922 
L 179.728926 112.564021 
L 181.844628 112.89212 
L 183.960331 113.220219 
L 186.076033 113.548318 
L 188.191736 113.876417 
L 190.307438 114.204516 
L 192.42314 114.532615 
L 194.538843 114.860714 
L 196.654545 115.188813 
L 198.770248 115.516912 
L 200.88595 115.845011 
L 203.001653 116.17311 
L 205.117355 116.501209 
L 207.233058 116.829308 
L 209.34876 117.157407 
L 211.464463 117.485505 
L 213.580165 117.813604 
L 215.695868 118.141703 
L 217.81157 118.469802 
L 219.927273 118.797901 
" style="fill:none;stroke:#1f77b4;stroke-linecap:square;stroke-width:3;"/>
   </g>
   <g id="line2d_2">
    <path clip-path="url(#p7fd721268e)" d="M 10.472727 23.52 
L 12.58843 31.270273 
L 14.704132 38.24125 
L 16.819835 44.522842 
L 18.935537 50.194947 
L 21.05124 55.328427 
L 23.166942 59.986017 
L 25.282645 64.223141 
L 27.398347 68.088677 
L 29.51405 71.625638 
L 31.629752 74.87181 
L 33.745455 77.860315 
L 35.861157 80.620135 
L 37.97686 83.17658 
L 40.092562 85.551713 
L 42.208264 87.764729 
L 44.323967 89.832301 
L 46.439669 91.768884 
L 48.555372 93.586995 
L 50.671074 95.297451 
L 52.786777 96.909591 
L 54.902479 98.431465 
L 57.018182 99.870006 
L 59.133884 101.231178 
L 61.249587 102.520106 
L 63.365289 103.741189 
L 65.480992 104.898202 
L 67.596694 105.994379 
L 69.712397 107.032489 
L 71.828099 108.014898 
L 73.943802 108.943623 
L 76.059504 109.820382 
L 78.175207 110.64663 
L 80.290909 111.423595 
L 82.406612 112.152306 
L 84.522314 112.833616 
L 86.638017 113.468225 
L 88.753719 114.056697 
L 90.869421 114.599475 
L 92.985124 115.096895 
L 95.100826 115.549197 
L 97.216529 115.956536 
L 99.332231 116.318991 
L 101.447934 116.636575 
L 103.563636 116.909245 
L 105.679339 117.136905 
L 107.795041 117.319418 
L 109.910744 117.456615 
L 112.026446 117.548296 
L 114.142149 117.594245 
L 116.257851 117.594236 
L 118.373554 117.548035 
L 120.489256 117.455415 
L 122.604959 117.316159 
L 124.720661 117.13007 
L 126.836364 116.896977 
L 128.952066 116.616743 
L 131.067769 116.289274 
L 133.183471 115.914524 
L 135.299174 115.492507 
L 137.414876 115.023303 
L 139.530579 114.507067 
L 141.646281 113.944038 
L 143.761983 113.334552 
L 145.877686 112.679053 
L 147.993388 111.978104 
L 150.109091 111.232405 
L 152.224793 110.44281 
L 154.340496 109.610347 
L 156.456198 108.736245 
L 158.571901 107.821958 
L 160.687603 106.869204 
L 162.803306 105.880001 
L 164.919008 104.856714 
L 167.034711 103.802113 
L 169.150413 102.719431 
L 171.266116 101.612443 
L 173.381818 100.485549 
L 175.497521 99.343874 
L 177.613223 98.193381 
L 179.728926 97.041003 
L 181.844628 95.89479 
L 183.960331 94.764082 
L 186.076033 93.659695 
L 188.191736 92.594147 
L 190.307438 91.581892 
L 192.42314 90.639603 
L 194.538843 89.786477 
L 196.654545 89.044574 
L 198.770248 88.439206 
L 200.88595 87.999353 
L 203.001653 87.75814 
L 205.117355 87.753351 
L 207.233058 88.028 
L 209.34876 88.630963 
L 211.464463 89.617667 
L 213.580165 91.050844 
L 215.695868 93.001358 
L 217.81157 95.549106 
L 219.927273 98.784 
" style="fill:none;stroke:#000000;stroke-dasharray:11.1,4.8;stroke-dashoffset:0;stroke-width:3;"/>
   </g>
   <g id="legend_1">
    <g id="line2d_3">
     <path d="M 42.84 17.181 
L 66.84 17.181 
" style="fill:none;stroke:#1f77b4;stroke-linecap:square;stroke-width:3;"/>
    </g>
    <g id="line2d_4"/>
    <g id="text_1">
     <!-- Fitted model -->
     <defs>
      <path d="M 9.8125 72.90625 
L 51.703125 72.90625 
L 51.703125 64.59375 
L 19.671875 64.59375 
L 19.671875 43.109375 
L 48.578125 43.109375 
L 48.578125 34.8125 
L 19.671875 34.8125 
L 19.671875 0 
L 9.8125 0 
z
" id="DejaVuSans-70"/>
      <path d="M 9.421875 54.6875 
L 18.40625 54.6875 
L 18.40625 0 
L 9.421875 0 
z
M 9.421875 75.984375 
L 18.40625 75.984375 
L 18.40625 64.59375 
L 9.421875 64.59375 
z
" id="DejaVuSans-105"/>
      <path d="M 18.3125 70.21875 
L 18.3125 54.6875 
L 36.8125 54.6875 
L 36.8125 47.703125 
L 18.3125 47.703125 
L 18.3125 18.015625 
Q 18.3125 11.328125 20.140625 9.421875 
Q 21.96875 7.515625 27.59375 7.515625 
L 36.8125 7.515625 
L 36.8125 0 
L 27.59375 0 
Q 17.1875 0 13.234375 3.875 
Q 9.28125 7.765625 9.28125 18.015625 
L 9.28125 47.703125 
L 2.6875 47.703125 
L 2.6875 54.6875 
L 9.28125 54.6875 
L 9.28125 70.21875 
z
" id="DejaVuSans-116"/>
      <path d="M 56.203125 29.59375 
L 56.203125 25.203125 
L 14.890625 25.203125 
Q 15.484375 15.921875 20.484375 11.0625 
Q 25.484375 6.203125 34.421875 6.203125 
Q 39.59375 6.203125 44.453125 7.46875 
Q 49.3125 8.734375 54.109375 11.28125 
L 54.109375 2.78125 
Q 49.265625 0.734375 44.1875 -0.34375 
Q 39.109375 -1.421875 33.890625 -1.421875 
Q 20.796875 -1.421875 13.15625 6.1875 
Q 5.515625 13.8125 5.515625 26.8125 
Q 5.515625 40.234375 12.765625 48.109375 
Q 20.015625 56 32.328125 56 
Q 43.359375 56 49.78125 48.890625 
Q 56.203125 41.796875 56.203125 29.59375 
z
M 47.21875 32.234375 
Q 47.125 39.59375 43.09375 43.984375 
Q 39.0625 48.390625 32.421875 48.390625 
Q 24.90625 48.390625 20.390625 44.140625 
Q 15.875 39.890625 15.1875 32.171875 
z
" id="DejaVuSans-101"/>
      <path d="M 45.40625 46.390625 
L 45.40625 75.984375 
L 54.390625 75.984375 
L 54.390625 0 
L 45.40625 0 
L 45.40625 8.203125 
Q 42.578125 3.328125 38.25 0.953125 
Q 33.9375 -1.421875 27.875 -1.421875 
Q 17.96875 -1.421875 11.734375 6.484375 
Q 5.515625 14.40625 5.515625 27.296875 
Q 5.515625 40.1875 11.734375 48.09375 
Q 17.96875 56 27.875 56 
Q 33.9375 56 38.25 53.625 
Q 42.578125 51.265625 45.40625 46.390625 
z
M 14.796875 27.296875 
Q 14.796875 17.390625 18.875 11.75 
Q 22.953125 6.109375 30.078125 6.109375 
Q 37.203125 6.109375 41.296875 11.75 
Q 45.40625 17.390625 45.40625 27.296875 
Q 45.40625 37.203125 41.296875 42.84375 
Q 37.203125 48.484375 30.078125 48.484375 
Q 22.953125 48.484375 18.875 42.84375 
Q 14.796875 37.203125 14.796875 27.296875 
z
" id="DejaVuSans-100"/>
      <path id="DejaVuSans-32"/>
      <path d="M 52 44.1875 
Q 55.375 50.25 60.0625 53.125 
Q 64.75 56 71.09375 56 
Q 79.640625 56 84.28125 50.015625 
Q 88.921875 44.046875 88.921875 33.015625 
L 88.921875 0 
L 79.890625 0 
L 79.890625 32.71875 
Q 79.890625 40.578125 77.09375 44.375 
Q 74.3125 48.1875 68.609375 48.1875 
Q 61.625 48.1875 57.5625 43.546875 
Q 53.515625 38.921875 53.515625 30.90625 
L 53.515625 0 
L 44.484375 0 
L 44.484375 32.71875 
Q 44.484375 40.625 41.703125 44.40625 
Q 38.921875 48.1875 33.109375 48.1875 
Q 26.21875 48.1875 22.15625 43.53125 
Q 18.109375 38.875 18.109375 30.90625 
L 18.109375 0 
L 9.078125 0 
L 9.078125 54.6875 
L 18.109375 54.6875 
L 18.109375 46.1875 
Q 21.1875 51.21875 25.484375 53.609375 
Q 29.78125 56 35.6875 56 
Q 41.65625 56 45.828125 52.96875 
Q 50 49.953125 52 44.1875 
z
" id="DejaVuSans-109"/>
      <path d="M 30.609375 48.390625 
Q 23.390625 48.390625 19.1875 42.75 
Q 14.984375 37.109375 14.984375 27.296875 
Q 14.984375 17.484375 19.15625 11.84375 
Q 23.34375 6.203125 30.609375 6.203125 
Q 37.796875 6.203125 41.984375 11.859375 
Q 46.1875 17.53125 46.1875 27.296875 
Q 46.1875 37.015625 41.984375 42.703125 
Q 37.796875 48.390625 30.609375 48.390625 
z
M 30.609375 56 
Q 42.328125 56 49.015625 48.375 
Q 55.71875 40.765625 55.71875 27.296875 
Q 55.71875 13.875 49.015625 6.21875 
Q 42.328125 -1.421875 30.609375 -1.421875 
Q 18.84375 -1.421875 12.171875 6.21875 
Q 5.515625 13.875 5.515625 27.296875 
Q 5.515625 40.765625 12.171875 48.375 
Q 18.84375 56 30.609375 56 
z
" id="DejaVuSans-111"/>
      <path d="M 9.421875 75.984375 
L 18.40625 75.984375 
L 18.40625 0 
L 9.421875 0 
z
" id="DejaVuSans-108"/>
     </defs>
     <g transform="translate(74.84 12.093)scale(0.16 -0.16)">
      <use xlink:href="#DejaVuSans-70"/>
      <use x="57.410156" xlink:href="#DejaVuSans-105"/>
      <use x="85.193359" xlink:href="#DejaVuSans-116"/>
      <use x="124.402344" xlink:href="#DejaVuSans-116"/>
      <use x="163.611328" xlink:href="#DejaVuSans-101"/>
      <use x="225.134766" xlink:href="#DejaVuSans-100"/>
      <use x="288.611328" xlink:href="#DejaVuSans-32"/>
      <use x="320.398438" xlink:href="#DejaVuSans-109"/>
      <use x="417.810547" xlink:href="#DejaVuSans-111"/>
      <use x="478.992188" xlink:href="#DejaVuSans-100"/>
      <use x="542.46875" xlink:href="#DejaVuSans-101"/>
      <use x="603.992188" xlink:href="#DejaVuSans-108"/>
     </g>
     <!-- $\approx$best possible fit -->
     <defs>
      <path d="M 73.1875 30.421875 
L 73.1875 21.6875 
Q 68.0625 17.875 63.6875 16.1875 
Q 59.328125 14.5 54.59375 14.5 
Q 49.21875 14.5 42.09375 17.390625 
Q 41.609375 17.578125 41.265625 17.71875 
Q 40.96875 17.828125 40.234375 18.109375 
Q 32.671875 21.09375 28.078125 21.09375 
Q 23.78125 21.09375 19.578125 19.234375 
Q 15.375 17.390625 10.59375 13.28125 
L 10.59375 22.015625 
Q 15.71875 25.828125 20.09375 27.515625 
Q 24.46875 29.203125 29.203125 29.203125 
Q 34.578125 29.203125 41.75 26.3125 
Q 42.28125 26.078125 42.53125 25.984375 
Q 42.828125 25.875 43.5625 25.59375 
Q 51.125 22.609375 55.71875 22.609375 
Q 59.90625 22.609375 64.03125 24.4375 
Q 68.171875 26.265625 73.1875 30.421875 
z
M 73.1875 49.421875 
L 73.1875 40.71875 
Q 68.0625 36.859375 63.6875 35.171875 
Q 59.328125 33.5 54.59375 33.5 
Q 49.21875 33.5 42.09375 36.375 
Q 41.609375 36.578125 41.265625 36.71875 
Q 40.96875 36.8125 40.234375 37.109375 
Q 32.671875 40.09375 28.078125 40.09375 
Q 23.78125 40.09375 19.578125 38.234375 
Q 15.375 36.375 10.59375 32.328125 
L 10.59375 41.015625 
Q 15.71875 44.828125 20.09375 46.5 
Q 24.46875 48.1875 29.203125 48.1875 
Q 34.578125 48.1875 41.75 45.3125 
Q 42.234375 45.125 42.484375 45.015625 
Q 42.828125 44.875 43.5625 44.578125 
Q 51.125 41.609375 55.71875 41.609375 
Q 59.90625 41.609375 64.03125 43.4375 
Q 68.171875 45.265625 73.1875 49.421875 
z
" id="DejaVuSans-8776"/>
      <path d="M 48.6875 27.296875 
Q 48.6875 37.203125 44.609375 42.84375 
Q 40.53125 48.484375 33.40625 48.484375 
Q 26.265625 48.484375 22.1875 42.84375 
Q 18.109375 37.203125 18.109375 27.296875 
Q 18.109375 17.390625 22.1875 11.75 
Q 26.265625 6.109375 33.40625 6.109375 
Q 40.53125 6.109375 44.609375 11.75 
Q 48.6875 17.390625 48.6875 27.296875 
z
M 18.109375 46.390625 
Q 20.953125 51.265625 25.265625 53.625 
Q 29.59375 56 35.59375 56 
Q 45.5625 56 51.78125 48.09375 
Q 58.015625 40.1875 58.015625 27.296875 
Q 58.015625 14.40625 51.78125 6.484375 
Q 45.5625 -1.421875 35.59375 -1.421875 
Q 29.59375 -1.421875 25.265625 0.953125 
Q 20.953125 3.328125 18.109375 8.203125 
L 18.109375 0 
L 9.078125 0 
L 9.078125 75.984375 
L 18.109375 75.984375 
z
" id="DejaVuSans-98"/>
      <path d="M 44.28125 53.078125 
L 44.28125 44.578125 
Q 40.484375 46.53125 36.375 47.5 
Q 32.28125 48.484375 27.875 48.484375 
Q 21.1875 48.484375 17.84375 46.4375 
Q 14.5 44.390625 14.5 40.28125 
Q 14.5 37.15625 16.890625 35.375 
Q 19.28125 33.59375 26.515625 31.984375 
L 29.59375 31.296875 
Q 39.15625 29.25 43.1875 25.515625 
Q 47.21875 21.78125 47.21875 15.09375 
Q 47.21875 7.46875 41.1875 3.015625 
Q 35.15625 -1.421875 24.609375 -1.421875 
Q 20.21875 -1.421875 15.453125 -0.5625 
Q 10.6875 0.296875 5.421875 2 
L 5.421875 11.28125 
Q 10.40625 8.6875 15.234375 7.390625 
Q 20.0625 6.109375 24.8125 6.109375 
Q 31.15625 6.109375 34.5625 8.28125 
Q 37.984375 10.453125 37.984375 14.40625 
Q 37.984375 18.0625 35.515625 20.015625 
Q 33.0625 21.96875 24.703125 23.78125 
L 21.578125 24.515625 
Q 13.234375 26.265625 9.515625 29.90625 
Q 5.8125 33.546875 5.8125 39.890625 
Q 5.8125 47.609375 11.28125 51.796875 
Q 16.75 56 26.8125 56 
Q 31.78125 56 36.171875 55.265625 
Q 40.578125 54.546875 44.28125 53.078125 
z
" id="DejaVuSans-115"/>
      <path d="M 18.109375 8.203125 
L 18.109375 -20.796875 
L 9.078125 -20.796875 
L 9.078125 54.6875 
L 18.109375 54.6875 
L 18.109375 46.390625 
Q 20.953125 51.265625 25.265625 53.625 
Q 29.59375 56 35.59375 56 
Q 45.5625 56 51.78125 48.09375 
Q 58.015625 40.1875 58.015625 27.296875 
Q 58.015625 14.40625 51.78125 6.484375 
Q 45.5625 -1.421875 35.59375 -1.421875 
Q 29.59375 -1.421875 25.265625 0.953125 
Q 20.953125 3.328125 18.109375 8.203125 
z
M 48.6875 27.296875 
Q 48.6875 37.203125 44.609375 42.84375 
Q 40.53125 48.484375 33.40625 48.484375 
Q 26.265625 48.484375 22.1875 42.84375 
Q 18.109375 37.203125 18.109375 27.296875 
Q 18.109375 17.390625 22.1875 11.75 
Q 26.265625 6.109375 33.40625 6.109375 
Q 40.53125 6.109375 44.609375 11.75 
Q 48.6875 17.390625 48.6875 27.296875 
z
" id="DejaVuSans-112"/>
      <path d="M 37.109375 75.984375 
L 37.109375 68.5 
L 28.515625 68.5 
Q 23.6875 68.5 21.796875 66.546875 
Q 19.921875 64.59375 19.921875 59.515625 
L 19.921875 54.6875 
L 34.71875 54.6875 
L 34.71875 47.703125 
L 19.921875 47.703125 
L 19.921875 0 
L 10.890625 0 
L 10.890625 47.703125 
L 2.296875 47.703125 
L 2.296875 54.6875 
L 10.890625 54.6875 
L 10.890625 58.5 
Q 10.890625 67.625 15.140625 71.796875 
Q 19.390625 75.984375 28.609375 75.984375 
z
" id="DejaVuSans-102"/>
     </defs>
     <g transform="translate(74.84 30.0125)scale(0.16 -0.16)">
      <use transform="translate(19.482422 0.015625)" xlink:href="#DejaVuSans-8776"/>
      <use transform="translate(122.753906 0.015625)" xlink:href="#DejaVuSans-98"/>
      <use transform="translate(186.230469 0.015625)" xlink:href="#DejaVuSans-101"/>
      <use transform="translate(247.753906 0.015625)" xlink:href="#DejaVuSans-115"/>
      <use transform="translate(299.853516 0.015625)" xlink:href="#DejaVuSans-116"/>
      <use transform="translate(339.0625 0.015625)" xlink:href="#DejaVuSans-32"/>
      <use transform="translate(370.849609 0.015625)" xlink:href="#DejaVuSans-112"/>
      <use transform="translate(434.326172 0.015625)" xlink:href="#DejaVuSans-111"/>
      <use transform="translate(495.507812 0.015625)" xlink:href="#DejaVuSans-115"/>
      <use transform="translate(547.607422 0.015625)" xlink:href="#DejaVuSans-115"/>
      <use transform="translate(599.707031 0.015625)" xlink:href="#DejaVuSans-105"/>
      <use transform="translate(627.490234 0.015625)" xlink:href="#DejaVuSans-98"/>
      <use transform="translate(690.966797 0.015625)" xlink:href="#DejaVuSans-108"/>
      <use transform="translate(718.75 0.015625)" xlink:href="#DejaVuSans-101"/>
      <use transform="translate(780.273438 0.015625)" xlink:href="#DejaVuSans-32"/>
      <use transform="translate(812.060547 0.015625)" xlink:href="#DejaVuSans-102"/>
      <use transform="translate(847.265625 0.015625)" xlink:href="#DejaVuSans-105"/>
      <use transform="translate(875.048828 0.015625)" xlink:href="#DejaVuSans-116"/>
     </g>
    </g>
    <g id="line2d_5">
     <path d="M 42.84 46.362 
L 66.84 46.362 
" style="fill:none;stroke:#000000;stroke-dasharray:11.1,4.8;stroke-dashoffset:0;stroke-width:3;"/>
    </g>
    <g id="line2d_6"/>
    <g id="text_2">
     <!-- Generative process -->
     <defs>
      <path d="M 59.515625 10.40625 
L 59.515625 29.984375 
L 43.40625 29.984375 
L 43.40625 38.09375 
L 69.28125 38.09375 
L 69.28125 6.78125 
Q 63.578125 2.734375 56.6875 0.65625 
Q 49.8125 -1.421875 42 -1.421875 
Q 24.90625 -1.421875 15.25 8.5625 
Q 5.609375 18.5625 5.609375 36.375 
Q 5.609375 54.25 15.25 64.234375 
Q 24.90625 74.21875 42 74.21875 
Q 49.125 74.21875 55.546875 72.453125 
Q 61.96875 70.703125 67.390625 67.28125 
L 67.390625 56.78125 
Q 61.921875 61.421875 55.765625 63.765625 
Q 49.609375 66.109375 42.828125 66.109375 
Q 29.4375 66.109375 22.71875 58.640625 
Q 16.015625 51.171875 16.015625 36.375 
Q 16.015625 21.625 22.71875 14.15625 
Q 29.4375 6.6875 42.828125 6.6875 
Q 48.046875 6.6875 52.140625 7.59375 
Q 56.25 8.5 59.515625 10.40625 
z
" id="DejaVuSans-71"/>
      <path d="M 54.890625 33.015625 
L 54.890625 0 
L 45.90625 0 
L 45.90625 32.71875 
Q 45.90625 40.484375 42.875 44.328125 
Q 39.84375 48.1875 33.796875 48.1875 
Q 26.515625 48.1875 22.3125 43.546875 
Q 18.109375 38.921875 18.109375 30.90625 
L 18.109375 0 
L 9.078125 0 
L 9.078125 54.6875 
L 18.109375 54.6875 
L 18.109375 46.1875 
Q 21.34375 51.125 25.703125 53.5625 
Q 30.078125 56 35.796875 56 
Q 45.21875 56 50.046875 50.171875 
Q 54.890625 44.34375 54.890625 33.015625 
z
" id="DejaVuSans-110"/>
      <path d="M 41.109375 46.296875 
Q 39.59375 47.171875 37.8125 47.578125 
Q 36.03125 48 33.890625 48 
Q 26.265625 48 22.1875 43.046875 
Q 18.109375 38.09375 18.109375 28.8125 
L 18.109375 0 
L 9.078125 0 
L 9.078125 54.6875 
L 18.109375 54.6875 
L 18.109375 46.1875 
Q 20.953125 51.171875 25.484375 53.578125 
Q 30.03125 56 36.53125 56 
Q 37.453125 56 38.578125 55.875 
Q 39.703125 55.765625 41.0625 55.515625 
z
" id="DejaVuSans-114"/>
      <path d="M 34.28125 27.484375 
Q 23.390625 27.484375 19.1875 25 
Q 14.984375 22.515625 14.984375 16.5 
Q 14.984375 11.71875 18.140625 8.90625 
Q 21.296875 6.109375 26.703125 6.109375 
Q 34.1875 6.109375 38.703125 11.40625 
Q 43.21875 16.703125 43.21875 25.484375 
L 43.21875 27.484375 
z
M 52.203125 31.203125 
L 52.203125 0 
L 43.21875 0 
L 43.21875 8.296875 
Q 40.140625 3.328125 35.546875 0.953125 
Q 30.953125 -1.421875 24.3125 -1.421875 
Q 15.921875 -1.421875 10.953125 3.296875 
Q 6 8.015625 6 15.921875 
Q 6 25.140625 12.171875 29.828125 
Q 18.359375 34.515625 30.609375 34.515625 
L 43.21875 34.515625 
L 43.21875 35.40625 
Q 43.21875 41.609375 39.140625 45 
Q 35.0625 48.390625 27.6875 48.390625 
Q 23 48.390625 18.546875 47.265625 
Q 14.109375 46.140625 10.015625 43.890625 
L 10.015625 52.203125 
Q 14.9375 54.109375 19.578125 55.046875 
Q 24.21875 56 28.609375 56 
Q 40.484375 56 46.34375 49.84375 
Q 52.203125 43.703125 52.203125 31.203125 
z
" id="DejaVuSans-97"/>
      <path d="M 2.984375 54.6875 
L 12.5 54.6875 
L 29.59375 8.796875 
L 46.6875 54.6875 
L 56.203125 54.6875 
L 35.6875 0 
L 23.484375 0 
z
" id="DejaVuSans-118"/>
      <path d="M 48.78125 52.59375 
L 48.78125 44.1875 
Q 44.96875 46.296875 41.140625 47.34375 
Q 37.3125 48.390625 33.40625 48.390625 
Q 24.65625 48.390625 19.8125 42.84375 
Q 14.984375 37.3125 14.984375 27.296875 
Q 14.984375 17.28125 19.8125 11.734375 
Q 24.65625 6.203125 33.40625 6.203125 
Q 37.3125 6.203125 41.140625 7.25 
Q 44.96875 8.296875 48.78125 10.40625 
L 48.78125 2.09375 
Q 45.015625 0.34375 40.984375 -0.53125 
Q 36.96875 -1.421875 32.421875 -1.421875 
Q 20.0625 -1.421875 12.78125 6.34375 
Q 5.515625 14.109375 5.515625 27.296875 
Q 5.515625 40.671875 12.859375 48.328125 
Q 20.21875 56 33.015625 56 
Q 37.15625 56 41.109375 55.140625 
Q 45.0625 54.296875 48.78125 52.59375 
z
" id="DejaVuSans-99"/>
     </defs>
     <g transform="translate(74.84 51.962)scale(0.16 -0.16)">
      <use xlink:href="#DejaVuSans-71"/>
      <use x="77.490234" xlink:href="#DejaVuSans-101"/>
      <use x="139.013672" xlink:href="#DejaVuSans-110"/>
      <use x="202.392578" xlink:href="#DejaVuSans-101"/>
      <use x="263.916016" xlink:href="#DejaVuSans-114"/>
      <use x="305.029297" xlink:href="#DejaVuSans-97"/>
      <use x="366.308594" xlink:href="#DejaVuSans-116"/>
      <use x="405.517578" xlink:href="#DejaVuSans-105"/>
      <use x="433.300781" xlink:href="#DejaVuSans-118"/>
      <use x="492.480469" xlink:href="#DejaVuSans-101"/>
      <use x="554.003906" xlink:href="#DejaVuSans-32"/>
      <use x="585.791016" xlink:href="#DejaVuSans-112"/>
      <use x="649.267578" xlink:href="#DejaVuSans-114"/>
      <use x="690.349609" xlink:href="#DejaVuSans-111"/>
      <use x="751.53125" xlink:href="#DejaVuSans-99"/>
      <use x="806.511719" xlink:href="#DejaVuSans-101"/>
      <use x="868.035156" xlink:href="#DejaVuSans-115"/>
      <use x="920.134766" xlink:href="#DejaVuSans-115"/>
     </g>
    </g>
   </g>
  </g>
 </g>
 <defs>
  <clipPath id="p7fd721268e">
   <rect height="176.4" width="230.4" x="0" y="0"/>
  </clipPath>
 </defs>
</svg>
