<?xml version="1.0" encoding="utf-8" standalone="no"?>
<!DOCTYPE svg PUBLIC "-//W3C//DTD SVG 1.1//EN"
  "http://www.w3.org/Graphics/SVG/1.1/DTD/svg11.dtd">
<!-- Created with matplotlib (https://matplotlib.org/) -->
<svg height="176.4pt" version="1.1" viewBox="0 0 230.4 176.4" width="230.4pt" xmlns="http://www.w3.org/2000/svg" xmlns:xlink="http://www.w3.org/1999/xlink">
 <metadata>
  <rdf:RDF xmlns:cc="http://creativecommons.org/ns#" xmlns:dc="http://purl.org/dc/elements/1.1/" xmlns:rdf="http://www.w3.org/1999/02/22-rdf-syntax-ns#">
   <cc:Work>
    <dc:type rdf:resource="http://purl.org/dc/dcmitype/StillImage"/>
    <dc:date>2020-12-10T16:30:38.816219</dc:date>
    <dc:format>image/svg+xml</dc:format>
    <dc:creator>
     <cc:Agent>
      <dc:title>Matplotlib v3.3.3, https://matplotlib.org/</dc:title>
     </cc:Agent>
    </dc:creator>
   </cc:Work>
  </rdf:RDF>
 </metadata>
 <defs>
  <style type="text/css">*{stroke-linecap:butt;stroke-linejoin:round;}</style>
 </defs>
 <g id="figure_1">
  <g id="patch_1">
   <path d="M 0 176.4 
L 230.4 176.4 
L 230.4 0 
L 0 0 
z
" style="fill:none;"/>
  </g>
  <g id="axes_1">
   <g id="line2d_1">
    <path clip-path="url(#p39e8900c5c)" d="M 10.472727 158.361166 
L 12.58843 89.416624 
L 14.704132 46.071336 
L 16.819835 22.236002 
L 18.935537 12.858201 
L 21.05124 13.792321 
L 23.166942 21.681421 
L 25.282645 33.850246 
L 27.398347 48.208666 
L 29.51405 63.16484 
L 31.629752 77.547423 
L 33.745455 90.536177 
L 35.861157 101.600371 
L 37.97686 110.444373 
L 40.092562 116.959889 
L 42.208264 121.184297 
L 44.323967 123.264581 
L 46.439669 123.426383 
L 48.555372 121.947703 
L 50.671074 119.136831 
L 52.786777 115.314087 
L 54.902479 110.796994 
L 57.018182 105.888517 
L 59.133884 100.868023 
L 61.249587 95.984644 
L 63.365289 91.452751 
L 65.480992 87.449247 
L 67.596694 84.112429 
L 69.712397 81.542178 
L 71.828099 79.801245 
L 73.943802 78.917445 
L 76.059504 78.886556 
L 78.175207 79.675767 
L 80.290909 81.227499 
L 82.406612 83.463494 
L 84.522314 86.289003 
L 86.638017 89.597007 
L 88.753719 93.272345 
L 90.869421 97.19567 
L 92.985124 101.247178 
L 95.100826 105.310025 
L 97.216529 109.27341 
L 99.332231 113.035262 
L 101.447934 116.50452 
L 103.563636 119.602986 
L 105.679339 122.266729 
L 107.795041 124.447055 
L 109.910744 126.111036 
L 112.026446 127.241621 
L 114.142149 127.837343 
L 116.257851 127.911648 
L 118.373554 127.491876 
L 120.489256 126.617937 
L 122.604959 125.340709 
L 124.720661 123.720206 
L 126.836364 121.823569 
L 128.952066 119.722914 
L 131.067769 117.493094 
L 133.183471 115.20943 
L 135.299174 112.945446 
L 137.414876 110.77068 
L 139.530579 108.748598 
L 141.646281 106.934681 
L 143.761983 105.374713 
L 145.877686 104.103322 
L 147.993388 103.142824 
L 150.109091 102.502385 
L 152.224793 102.177548 
L 154.340496 102.15016 
L 156.456198 102.388694 
L 158.571901 102.849016 
L 160.687603 103.475572 
L 162.803306 104.203029 
L 164.919008 104.95833 
L 167.034711 105.663184 
L 169.150413 106.236934 
L 171.266116 106.599789 
L 173.381818 106.676369 
L 175.497521 106.399512 
L 177.613223 105.714269 
L 179.728926 104.58201 
L 181.844628 102.984559 
L 183.960331 100.928239 
L 186.076033 98.44771 
L 188.191736 95.609484 
L 190.307438 92.514938 
L 192.42314 89.302689 
L 194.538843 86.150131 
L 196.654545 83.273946 
L 198.770248 80.929372 
L 200.88595 79.407985 
L 203.001653 79.033762 
L 205.117355 80.157133 
L 207.233058 83.146744 
L 209.34876 88.378611 
L 211.464463 96.222335 
L 213.580165 107.024025 
L 215.695868 121.085546 
L 217.81157 138.639698 
L 219.927273 159.820894 
" style="fill:none;stroke:#d62728;stroke-linecap:square;stroke-opacity:0.5;stroke-width:3;"/>
   </g>
   <g id="line2d_2">
    <path clip-path="url(#p39e8900c5c)" d="M 10.472727 27.953691 
L 12.58843 26.242474 
L 14.704132 28.064304 
L 16.819835 32.378493 
L 18.935537 38.328975 
L 21.05124 45.222228 
L 23.166942 52.50699 
L 25.282645 59.755667 
L 27.398347 66.64735 
L 29.51405 72.952349 
L 31.629752 78.518162 
L 33.745455 83.256798 
L 35.861157 87.133365 
L 37.97686 90.155862 
L 40.092562 92.366084 
L 42.208264 93.831577 
L 44.323967 94.638569 
L 46.439669 94.885812 
L 48.555372 94.679269 
L 50.671074 94.127576 
L 52.786777 93.338234 
L 54.902479 92.414454 
L 57.018182 91.452614 
L 59.133884 90.540263 
L 61.249587 89.754629 
L 63.365289 89.161577 
L 65.480992 88.814967 
L 67.596694 88.756372 
L 69.712397 89.015114 
L 71.828099 89.60857 
L 73.943802 90.542711 
L 76.059504 91.81285 
L 78.175207 93.40454 
L 80.290909 95.294613 
L 82.406612 97.452315 
L 84.522314 99.840513 
L 86.638017 102.416948 
L 88.753719 105.135508 
L 90.869421 107.947493 
L 92.985124 110.802867 
L 95.100826 113.651454 
L 97.216529 116.444086 
L 99.332231 119.133664 
L 101.447934 121.676137 
L 103.563636 124.031381 
L 105.679339 126.163955 
L 107.795041 128.043756 
L 109.910744 129.646529 
L 112.026446 130.95426 
L 114.142149 131.955425 
L 116.257851 132.645112 
L 118.373554 133.024994 
L 120.489256 133.103185 
L 122.604959 132.89395 
L 124.720661 132.417298 
L 126.836364 131.698451 
L 128.952066 130.767203 
L 131.067769 129.657175 
L 133.183471 128.404984 
L 135.299174 127.049323 
L 137.414876 125.629987 
L 139.530579 124.186844 
L 141.646281 122.758766 
L 143.761983 121.382562 
L 145.877686 120.091896 
L 147.993388 118.916242 
L 150.109091 117.879885 
L 152.224793 117.000985 
L 154.340496 116.290744 
L 156.456198 115.752692 
L 158.571901 115.382113 
L 160.687603 115.16566 
L 162.803306 115.081167 
L 164.919008 115.097696 
L 167.034711 115.175858 
L 169.150413 115.268432 
L 171.266116 115.321314 
L 173.381818 115.274848 
L 175.497521 115.065546 
L 177.613223 114.628267 
L 179.728926 113.898869 
L 181.844628 112.817381 
L 183.960331 111.331735 
L 186.076033 109.40211 
L 188.191736 107.005903 
L 190.307438 104.143396 
L 192.42314 100.844156 
L 194.538843 97.174198 
L 196.654545 93.243984 
L 198.770248 89.217271 
L 200.88595 85.32089 
L 203.001653 81.855469 
L 205.117355 79.207183 
L 207.233058 77.860549 
L 209.34876 78.412337 
L 211.464463 81.586643 
L 213.580165 88.251169 
L 215.695868 99.434766 
L 217.81157 116.346297 
L 219.927273 140.394867 
" style="fill:none;stroke:#d62728;stroke-linecap:square;stroke-opacity:0.5;stroke-width:3;"/>
   </g>
   <g id="line2d_3">
    <path clip-path="url(#p39e8900c5c)" d="M 10.472727 75.428996 
L 12.58843 58.804164 
L 14.704132 49.405878 
L 16.819835 45.38862 
L 18.935537 45.259574 
L 21.05124 47.826176 
L 23.166942 52.14965 
L 25.282645 57.504038 
L 27.398347 63.340261 
L 29.51405 69.254747 
L 31.629752 74.962224 
L 33.745455 80.272271 
L 35.861157 85.069256 
L 37.97686 89.295323 
L 40.092562 92.936089 
L 42.208264 96.008762 
L 44.323967 98.552382 
L 46.439669 100.619946 
L 48.555372 102.272151 
L 50.671074 103.572551 
L 52.786777 104.583921 
L 54.902479 105.36563 
L 57.018182 105.971876 
L 59.133884 106.450611 
L 61.249587 106.843026 
L 63.365289 107.183479 
L 65.480992 107.499753 
L 67.596694 107.81355 
L 69.712397 108.141139 
L 71.828099 108.49409 
L 73.943802 108.880044 
L 76.059504 109.303447 
L 78.175207 109.766244 
L 80.290909 110.268476 
L 82.406612 110.808779 
L 84.522314 111.384757 
L 86.638017 111.99324 
L 88.753719 112.630423 
L 90.869421 113.291875 
L 92.985124 113.972469 
L 95.100826 114.666205 
L 97.216529 115.365975 
L 99.332231 116.063289 
L 101.447934 116.747966 
L 103.563636 117.407849 
L 105.679339 118.028535 
L 107.795041 118.593175 
L 109.910744 119.082353 
L 112.026446 119.474075 
L 114.142149 119.743886 
L 116.257851 119.865137 
L 118.373554 119.809414 
L 120.489256 119.547146 
L 122.604959 119.048389 
L 124.720661 118.283794 
L 126.836364 117.22575 
L 128.952066 115.849679 
L 131.067769 114.135487 
L 133.183471 112.069106 
L 135.299174 109.644119 
L 137.414876 106.863394 
L 139.530579 103.740689 
L 141.646281 100.302132 
L 143.761983 96.587519 
L 145.877686 92.651302 
L 147.993388 88.563189 
L 150.109091 84.408206 
L 152.224793 80.286089 
L 154.340496 76.309862 
L 156.456198 72.603403 
L 158.571901 69.297839 
L 160.687603 66.526537 
L 162.803306 64.41848 
L 164.919008 63.08978 
L 167.034711 62.633057 
L 169.150413 63.104405 
L 171.266116 64.507635 
L 173.381818 66.775464 
L 175.497521 69.747298 
L 177.613223 73.143233 
L 179.728926 76.533878 
L 181.844628 79.305563 
L 183.960331 80.620494 
L 186.076033 79.371369 
L 188.191736 74.12995 
L 190.307438 63.089066 
L 192.42314 43.997475 
L 194.538843 14.086999 
L 195.262714 -1 
" style="fill:none;stroke:#d62728;stroke-linecap:square;stroke-opacity:0.5;stroke-width:3;"/>
   </g>
   <g id="line2d_4">
    <path clip-path="url(#p39e8900c5c)" d="M 10.472727 20.412114 
L 12.58843 29.005828 
L 14.704132 37.163492 
L 16.819835 44.836628 
L 18.935537 52.002933 
L 21.05124 58.659476 
L 23.166942 64.817041 
L 25.282645 70.495497 
L 27.398347 75.720087 
L 29.51405 80.518508 
L 31.629752 84.918702 
L 33.745455 88.947246 
L 35.861157 92.628265 
L 37.97686 95.982782 
L 40.092562 99.028435 
L 42.208264 101.779485 
L 44.323967 104.247067 
L 46.439669 106.439614 
L 48.555372 108.363414 
L 50.671074 110.023246 
L 52.786777 111.423069 
L 54.902479 112.566711 
L 57.018182 113.458546 
L 59.133884 114.104122 
L 61.249587 114.51072 
L 63.365289 114.687836 
L 65.480992 114.647556 
L 67.596694 114.404833 
L 69.712397 113.977647 
L 71.828099 113.387046 
L 73.943802 112.657073 
L 76.059504 111.814582 
L 78.175207 110.888934 
L 80.290909 109.911604 
L 82.406612 108.915683 
L 84.522314 107.935308 
L 86.638017 107.005014 
L 88.753719 106.159033 
L 90.869421 105.430557 
L 92.985124 104.850971 
L 95.100826 104.44908 
L 97.216529 104.250344 
L 99.332231 104.276141 
L 101.447934 104.543075 
L 103.563636 105.06234 
L 105.679339 105.839169 
L 107.795041 106.87237 
L 109.910744 108.153975 
L 112.026446 109.669009 
L 114.142149 111.395398 
L 116.257851 113.304021 
L 118.373554 115.358922 
L 120.489256 117.517675 
L 122.604959 119.731936 
L 124.720661 121.948144 
L 126.836364 124.108411 
L 128.952066 126.151575 
L 131.067769 128.014406 
L 133.183471 129.632981 
L 135.299174 130.944182 
L 137.414876 131.887332 
L 139.530579 132.40592 
L 141.646281 132.44941 
L 143.761983 131.975099 
L 145.877686 130.949977 
L 147.993388 129.352577 
L 150.109091 127.174739 
L 152.224793 124.423263 
L 154.340496 121.121382 
L 156.456198 117.31 
L 158.571901 113.048624 
L 160.687603 108.415919 
L 162.803306 103.509808 
L 164.919008 98.44702 
L 167.034711 93.362006 
L 169.150413 88.405119 
L 171.266116 83.739933 
L 173.381818 79.539617 
L 175.497521 75.982205 
L 177.613223 73.24466 
L 179.728926 71.49557 
L 181.844628 70.886345 
L 183.960331 71.540737 
L 186.076033 73.542547 
L 188.191736 76.921302 
L 190.307438 81.635762 
L 192.42314 87.555029 
L 194.538843 94.437064 
L 196.654545 101.904407 
L 198.770248 109.416858 
L 200.88595 116.240902 
L 203.001653 121.41561 
L 205.117355 123.714781 
L 207.233058 121.605045 
L 209.34876 113.199644 
L 211.464463 96.207611 
L 213.580165 67.878031 
L 215.695868 24.939078 
L 216.589558 -1 
" style="fill:none;stroke:#d62728;stroke-linecap:square;stroke-opacity:0.5;stroke-width:3;"/>
   </g>
   <g id="line2d_5">
    <path clip-path="url(#p39e8900c5c)" d="M 10.472727 47.47293 
L 12.58843 30.865786 
L 14.704132 22.720811 
L 16.819835 20.952864 
L 18.935537 23.819434 
L 21.05124 29.880764 
L 23.166942 37.963273 
L 25.282645 47.126069 
L 27.398347 56.630412 
L 29.51405 65.911918 
L 31.629752 74.555361 
L 33.745455 82.271897 
L 35.861157 88.878576 
L 37.97686 94.279969 
L 40.092562 98.451787 
L 42.208264 101.426342 
L 44.323967 103.279731 
L 46.439669 104.120604 
L 48.555372 104.080404 
L 50.671074 103.304961 
L 52.786777 101.94733 
L 54.902479 100.161769 
L 57.018182 98.098751 
L 59.133884 95.900926 
L 61.249587 93.699934 
L 63.365289 91.613977 
L 65.480992 89.74609 
L 67.596694 88.183012 
L 69.712397 86.994592 
L 71.828099 86.23367 
L 73.943802 85.936357 
L 76.059504 86.122659 
L 78.175207 86.797388 
L 80.290909 87.951314 
L 82.406612 89.562499 
L 84.522314 91.597771 
L 86.638017 94.014306 
L 88.753719 96.76127 
L 90.869421 99.781487 
L 92.985124 103.013108 
L 95.100826 106.391248 
L 97.216529 109.849572 
L 99.332231 113.321793 
L 101.447934 116.743086 
L 103.563636 120.051381 
L 105.679339 123.188532 
L 107.795041 126.101345 
L 109.910744 128.742466 
L 112.026446 131.07111 
L 114.142149 133.053632 
L 116.257851 134.663947 
L 118.373554 135.883779 
L 120.489256 136.702763 
L 122.604959 137.118391 
L 124.720661 137.135805 
L 126.836364 136.767456 
L 128.952066 136.032633 
L 131.067769 134.956862 
L 133.183471 133.571204 
L 135.299174 131.91145 
L 137.414876 130.017242 
L 139.530579 127.931115 
L 141.646281 125.697496 
L 143.761983 123.361667 
L 145.877686 120.968704 
L 147.993388 118.562432 
L 150.109091 116.184383 
L 152.224793 113.872805 
L 154.340496 111.661726 
L 156.456198 109.580097 
L 158.571901 107.651035 
L 160.687603 105.891185 
L 162.803306 104.310217 
L 164.919008 102.910488 
L 167.034711 101.686881 
L 169.150413 100.626838 
L 171.266116 99.710611 
L 173.381818 98.911754 
L 175.497521 98.197859 
L 177.613223 97.531563 
L 179.728926 96.871849 
L 181.844628 96.175631 
L 183.960331 95.399672 
L 186.076033 94.502814 
L 188.191736 93.448556 
L 190.307438 92.207975 
L 192.42314 90.76301 
L 194.538843 89.110108 
L 196.654545 87.264241 
L 198.770248 85.263296 
L 200.88595 83.172844 
L 203.001653 81.091283 
L 205.117355 79.155356 
L 207.233058 77.546042 
L 209.34876 76.4948 
L 211.464463 76.290185 
L 213.580165 77.284787 
L 215.695868 79.902518 
L 217.81157 84.646198 
L 219.927273 92.105443 
" style="fill:none;stroke:#d62728;stroke-linecap:square;stroke-opacity:0.5;stroke-width:3;"/>
   </g>
   <g id="line2d_6">
    <path clip-path="url(#p39e8900c5c)" d="M 15.811947 177.4 
L 16.819835 154.637993 
L 18.935537 120.725013 
L 21.05124 97.528838 
L 23.166942 82.467102 
L 25.282645 73.446368 
L 27.398347 68.79086 
L 29.51405 67.178941 
L 31.629752 67.586754 
L 33.745455 69.238447 
L 35.861157 71.562457 
L 37.97686 74.153325 
L 40.092562 76.738571 
L 42.208264 79.150168 
L 44.323967 81.300175 
L 46.439669 83.160137 
L 48.555372 84.74385 
L 50.671074 86.093152 
L 52.786777 87.266392 
L 54.902479 88.329262 
L 57.018182 89.347709 
L 59.133884 90.382648 
L 61.249587 91.486231 
L 63.365289 92.699434 
L 65.480992 94.050757 
L 67.596694 95.55584 
L 69.712397 97.217815 
L 71.828099 99.028238 
L 73.943802 100.968462 
L 76.059504 103.01131 
L 78.175207 105.12295 
L 80.290909 107.26486 
L 82.406612 109.395804 
L 84.522314 111.47375 
L 86.638017 113.457656 
L 88.753719 115.30909 
L 90.869421 116.99363 
L 92.985124 118.482031 
L 95.100826 119.75113 
L 97.216529 120.784469 
L 99.332231 121.572663 
L 101.447934 122.11348 
L 103.563636 122.411674 
L 105.679339 122.478573 
L 107.795041 122.331442 
L 109.910744 121.992665 
L 112.026446 121.488751 
L 114.142149 120.849225 
L 116.257851 120.105412 
L 118.373554 119.289179 
L 120.489256 118.431659 
L 122.604959 117.561993 
L 124.720661 116.70614 
L 126.836364 115.885795 
L 128.952066 115.117435 
L 131.067769 114.411545 
L 133.183471 113.772049 
L 135.299174 113.19597 
L 137.414876 112.67335 
L 139.530579 112.187444 
L 141.646281 111.7152 
L 143.761983 111.228032 
L 145.877686 110.692891 
L 147.993388 110.073615 
L 150.109091 109.33255 
L 152.224793 108.43241 
L 154.340496 107.338346 
L 156.456198 106.020171 
L 158.571901 104.454687 
L 160.687603 102.628046 
L 162.803306 100.538061 
L 164.919008 98.196369 
L 167.034711 95.630338 
L 169.150413 92.884608 
L 171.266116 90.022095 
L 173.381818 87.124341 
L 175.497521 84.291006 
L 177.613223 81.638338 
L 179.728926 79.296395 
L 181.844628 77.404798 
L 183.960331 76.106789 
L 186.076033 75.541288 
L 188.191736 75.83271 
L 190.307438 77.078195 
L 192.42314 79.331949 
L 194.538843 82.586327 
L 196.654545 86.749289 
L 198.770248 91.617826 
L 200.88595 96.846936 
L 203.001653 101.913694 
L 205.117355 106.075939 
L 207.233058 108.325083 
L 209.34876 107.332492 
L 211.464463 101.388909 
L 213.580165 88.336293 
L 215.695868 65.491494 
L 217.81157 29.561087 
L 219.031204 -1 
" style="fill:none;stroke:#d62728;stroke-linecap:square;stroke-opacity:0.5;stroke-width:3;"/>
   </g>
   <g id="line2d_7">
    <path clip-path="url(#p39e8900c5c)" d="M 14.426452 -1 
L 14.704132 2.373158 
L 16.819835 22.792907 
L 18.935537 38.778444 
L 21.05124 51.079762 
L 23.166942 60.357413 
L 25.282645 67.189625 
L 27.398347 72.079108 
L 29.51405 75.459559 
L 31.629752 77.701852 
L 33.745455 79.11992 
L 35.861157 79.976331 
L 37.97686 80.487553 
L 40.092562 80.828914 
L 42.208264 81.139269 
L 44.323967 81.525355 
L 46.439669 82.065868 
L 48.555372 82.815241 
L 50.671074 83.80715 
L 52.786777 85.057736 
L 54.902479 86.568571 
L 57.018182 88.329351 
L 59.133884 90.320353 
L 61.249587 92.514633 
L 63.365289 94.880007 
L 65.480992 97.380796 
L 67.596694 99.979364 
L 69.712397 102.637448 
L 71.828099 105.317303 
L 73.943802 107.982653 
L 76.059504 110.599479 
L 78.175207 113.13665 
L 80.290909 115.566394 
L 82.406612 117.864641 
L 84.522314 120.011235 
L 86.638017 121.990037 
L 88.753719 123.788916 
L 90.869421 125.399656 
L 92.985124 126.817777 
L 95.100826 128.04229 
L 97.216529 129.075391 
L 99.332231 129.922106 
L 101.447934 130.589903 
L 103.563636 131.088266 
L 105.679339 131.428268 
L 107.795041 131.622116 
L 109.910744 131.682713 
L 112.026446 131.62322 
L 114.142149 131.456637 
L 116.257851 131.19541 
L 118.373554 130.851075 
L 120.489256 130.433924 
L 122.604959 129.952738 
L 124.720661 129.414549 
L 126.836364 128.824468 
L 128.952066 128.185565 
L 131.067769 127.498815 
L 133.183471 126.763092 
L 135.299174 125.97525 
L 137.414876 125.130243 
L 139.530579 124.221326 
L 141.646281 123.240309 
L 143.761983 122.177876 
L 145.877686 121.023951 
L 147.993388 119.76812 
L 150.109091 118.400101 
L 152.224793 116.910247 
L 154.340496 115.290075 
L 156.456198 113.532827 
L 158.571901 111.634027 
L 160.687603 109.592044 
L 162.803306 107.408637 
L 164.919008 105.089464 
L 167.034711 102.644557 
L 169.150413 100.088713 
L 171.266116 97.441819 
L 173.381818 94.729063 
L 175.497521 91.981018 
L 177.613223 89.23358 
L 179.728926 86.527724 
L 181.844628 83.90906 
L 183.960331 81.427155 
L 186.076033 79.134593 
L 188.191736 77.085735 
L 190.307438 75.335154 
L 192.42314 73.935697 
L 194.538843 72.936152 
L 196.654545 72.378455 
L 198.770248 72.294427 
L 200.88595 72.701964 
L 203.001653 73.60066 
L 205.117355 74.9668 
L 207.233058 76.747678 
L 209.34876 78.85518 
L 211.464463 81.158592 
L 213.580165 83.476561 
L 215.695868 85.568156 
L 217.81157 87.122968 
L 219.927273 87.750179 
" style="fill:none;stroke:#d62728;stroke-linecap:square;stroke-opacity:0.5;stroke-width:3;"/>
   </g>
   <g id="line2d_8">
    <path clip-path="url(#p39e8900c5c)" d="M 10.472727 138.493342 
L 12.58843 91.642694 
L 14.704132 62.436105 
L 16.819835 46.296271 
L 18.935537 39.533832 
L 21.05124 39.218051 
L 23.166942 43.061332 
L 25.282645 49.316556 
L 27.398347 56.686226 
L 29.51405 64.242502 
L 31.629752 71.357214 
L 33.745455 77.64102 
L 35.861157 82.890896 
L 37.97686 87.045199 
L 40.092562 90.145591 
L 42.208264 92.30514 
L 44.323967 93.681968 
L 46.439669 94.457841 
L 48.555372 94.821149 
L 50.671074 94.953744 
L 52.786777 95.021164 
L 54.902479 95.165774 
L 57.018182 95.502406 
L 59.133884 96.116133 
L 61.249587 97.061788 
L 63.365289 98.364933 
L 65.480992 100.02396 
L 67.596694 102.013074 
L 69.712397 104.2859 
L 71.828099 106.779511 
L 73.943802 109.418678 
L 76.059504 112.120188 
L 78.175207 114.797063 
L 80.290909 117.36258 
L 82.406612 119.733976 
L 84.522314 121.835763 
L 86.638017 123.602572 
L 88.753719 124.981499 
L 90.869421 125.933905 
L 92.985124 126.436654 
L 95.100826 126.482801 
L 97.216529 126.081706 
L 99.332231 125.258636 
L 101.447934 124.053847 
L 103.563636 122.521215 
L 105.679339 120.726446 
L 107.795041 118.744928 
L 109.910744 116.659293 
L 112.026446 114.556736 
L 114.142149 112.526184 
L 116.257851 110.655373 
L 118.373554 109.027914 
L 120.489256 107.720423 
L 122.604959 106.799785 
L 124.720661 106.320634 
L 126.836364 106.323111 
L 128.952066 106.830971 
L 131.067769 107.850102 
L 133.183471 109.367503 
L 135.299174 111.350786 
L 137.414876 113.748224 
L 139.530579 116.489386 
L 141.646281 119.486383 
L 143.761983 122.635722 
L 145.877686 125.820779 
L 147.993388 128.914858 
L 150.109091 131.78482 
L 152.224793 134.295219 
L 154.340496 136.312899 
L 156.456198 137.711943 
L 158.571901 138.378895 
L 160.687603 138.218124 
L 162.803306 137.15718 
L 164.919008 135.151987 
L 167.034711 132.191674 
L 169.150413 128.302834 
L 171.266116 123.552967 
L 173.381818 118.052844 
L 175.497521 111.957494 
L 177.613223 105.465486 
L 179.728926 98.816163 
L 181.844628 92.284426 
L 183.960331 86.172662 
L 186.076033 80.799365 
L 188.191736 76.483946 
L 190.307438 73.527236 
L 192.42314 72.187107 
L 194.538843 72.648611 
L 196.654545 74.988019 
L 198.770248 79.130063 
L 200.88595 84.797683 
L 203.001653 91.453504 
L 205.117355 98.232257 
L 207.233058 103.863285 
L 209.34876 106.582236 
L 211.464463 104.031031 
L 213.580165 93.145086 
L 215.695868 70.026779 
L 217.81157 29.804059 
L 218.840644 -1 
" style="fill:none;stroke:#d62728;stroke-linecap:square;stroke-opacity:0.5;stroke-width:3;"/>
   </g>
   <g id="line2d_9">
    <path clip-path="url(#p39e8900c5c)" d="M 10.472727 27.612414 
L 12.58843 24.700641 
L 14.704132 26.854005 
L 16.819835 32.474193 
L 18.935537 40.282488 
L 21.05124 49.274071 
L 23.166942 58.677058 
L 25.282645 67.915956 
L 27.398347 76.579181 
L 29.51405 84.390342 
L 31.629752 91.182982 
L 33.745455 96.878493 
L 35.861157 101.466938 
L 37.97686 104.990523 
L 40.092562 107.529474 
L 42.208264 109.190096 
L 44.323967 110.094797 
L 46.439669 110.373869 
L 48.555372 110.158848 
L 50.671074 109.577268 
L 52.786777 108.748638 
L 54.902479 107.781498 
L 57.018182 106.771408 
L 59.133884 105.799728 
L 61.249587 104.933082 
L 63.365289 104.223379 
L 65.480992 103.708292 
L 67.596694 103.412116 
L 69.712397 103.346891 
L 71.828099 103.513742 
L 73.943802 103.904356 
L 76.059504 104.502528 
L 78.175207 105.285742 
L 80.290909 106.226726 
L 82.406612 107.294944 
L 84.522314 108.458004 
L 86.638017 109.682941 
L 88.753719 110.937363 
L 90.869421 112.190443 
L 92.985124 113.413745 
L 95.100826 114.58188 
L 97.216529 115.672991 
L 99.332231 116.669065 
L 101.447934 117.556086 
L 103.563636 118.324032 
L 105.679339 118.966726 
L 107.795041 119.481567 
L 109.910744 119.869143 
L 112.026446 120.132753 
L 114.142149 120.277861 
L 116.257851 120.31149 
L 118.373554 120.241596 
L 120.489256 120.076423 
L 122.604959 119.823884 
L 124.720661 119.490965 
L 126.836364 119.083195 
L 128.952066 118.604189 
L 131.067769 118.055287 
L 133.183471 117.435301 
L 135.299174 116.740391 
L 137.414876 115.964082 
L 139.530579 115.09742 
L 141.646281 114.129289 
L 143.761983 113.046879 
L 145.877686 111.836308 
L 147.993388 110.483396 
L 150.109091 108.974572 
L 152.224793 107.297904 
L 154.340496 105.444236 
L 156.456198 103.408389 
L 158.571901 101.190416 
L 160.687603 98.796852 
L 162.803306 96.241926 
L 164.919008 93.548676 
L 167.034711 90.749909 
L 169.150413 87.888937 
L 171.266116 85.020012 
L 173.381818 82.208377 
L 175.497521 79.529839 
L 177.613223 77.069757 
L 179.728926 74.921335 
L 181.844628 73.183105 
L 183.960331 71.955445 
L 186.076033 71.336019 
L 188.191736 71.413955 
L 190.307438 72.262613 
L 192.42314 73.930762 
L 194.538843 76.431969 
L 196.654545 79.732002 
L 198.770248 83.73404 
L 200.88595 88.261439 
L 203.001653 93.037841 
L 205.117355 97.664345 
L 207.233058 101.593484 
L 209.34876 104.099717 
L 211.464463 104.246144 
L 213.580165 100.847115 
L 215.695868 92.426414 
L 217.81157 77.170672 
L 219.927273 52.877634 
" style="fill:none;stroke:#d62728;stroke-linecap:square;stroke-opacity:0.5;stroke-width:3;"/>
   </g>
   <g id="line2d_10">
    <path clip-path="url(#p39e8900c5c)" d="M 10.472727 10.25041 
L 12.58843 17.096912 
L 14.704132 24.335201 
L 16.819835 31.802596 
L 18.935537 39.346851 
L 21.05124 46.828969 
L 23.166942 54.125235 
L 25.282645 61.128566 
L 27.398347 67.749266 
L 29.51405 73.915261 
L 31.629752 79.571887 
L 33.745455 84.681309 
L 35.861157 89.221626 
L 37.97686 93.185723 
L 40.092562 96.579933 
L 42.208264 99.422545 
L 44.323967 101.742217 
L 46.439669 103.57632 
L 48.555372 104.969271 
L 50.671074 105.970865 
L 52.786777 106.634654 
L 54.902479 107.016383 
L 57.018182 107.172518 
L 59.133884 107.158877 
L 61.249587 107.029384 
L 63.365289 106.834952 
L 65.480992 106.622511 
L 67.596694 106.434186 
L 69.712397 106.306625 
L 71.828099 106.270487 
L 73.943802 106.350079 
L 76.059504 106.563152 
L 78.175207 106.920837 
L 80.290909 107.42773 
L 82.406612 108.082102 
L 84.522314 108.876243 
L 86.638017 109.796907 
L 88.753719 110.825869 
L 90.869421 111.940564 
L 92.985124 113.114801 
L 95.100826 114.319542 
L 97.216529 115.523715 
L 99.332231 116.69507 
L 101.447934 117.801038 
L 103.563636 118.809595 
L 105.679339 119.690102 
L 107.795041 120.41412 
L 109.910744 120.956171 
L 112.026446 121.294438 
L 114.142149 121.411391 
L 116.257851 121.294324 
L 118.373554 120.935787 
L 120.489256 120.333914 
L 122.604959 119.492625 
L 124.720661 118.4217 
L 126.836364 117.136724 
L 128.952066 115.658884 
L 131.067769 114.014635 
L 133.183471 112.235219 
L 135.299174 110.356044 
L 137.414876 108.41593 
L 139.530579 106.456231 
L 141.646281 104.519833 
L 143.761983 102.650047 
L 145.877686 100.889423 
L 147.993388 99.278478 
L 150.109091 97.85439 
L 152.224793 96.649662 
L 154.340496 95.690797 
L 156.456198 94.997015 
L 158.571901 94.579046 
L 160.687603 94.438044 
L 162.803306 94.564672 
L 164.919008 94.938394 
L 167.034711 95.527053 
L 169.150413 96.286766 
L 171.266116 97.162226 
L 173.381818 98.087464 
L 175.497521 98.98716 
L 177.613223 99.778565 
L 179.728926 100.374146 
L 181.844628 100.685015 
L 183.960331 100.625271 
L 186.076033 100.11733 
L 188.191736 99.098381 
L 190.307438 97.528058 
L 192.42314 95.397468 
L 194.538843 92.739701 
L 196.654545 89.641953 
L 198.770248 86.259412 
L 200.88595 82.831055 
L 203.001653 79.697508 
L 205.117355 77.32115 
L 207.233058 76.30861 
L 209.34876 77.435864 
L 211.464463 81.676098 
L 213.580165 90.230548 
L 215.695868 104.562514 
L 217.81157 126.434769 
L 219.927273 157.950569 
" style="fill:none;stroke:#d62728;stroke-linecap:square;stroke-opacity:0.5;stroke-width:3;"/>
   </g>
   <g id="line2d_11">
    <path clip-path="url(#p39e8900c5c)" d="M 10.472727 23.52 
L 12.58843 31.270273 
L 14.704132 38.24125 
L 16.819835 44.522842 
L 18.935537 50.194947 
L 21.05124 55.328427 
L 23.166942 59.986017 
L 25.282645 64.223141 
L 27.398347 68.088677 
L 29.51405 71.625638 
L 31.629752 74.87181 
L 33.745455 77.860315 
L 35.861157 80.620135 
L 37.97686 83.17658 
L 40.092562 85.551713 
L 42.208264 87.764729 
L 44.323967 89.832301 
L 46.439669 91.768884 
L 48.555372 93.586995 
L 50.671074 95.297451 
L 52.786777 96.909591 
L 54.902479 98.431465 
L 57.018182 99.870006 
L 59.133884 101.231178 
L 61.249587 102.520106 
L 63.365289 103.741189 
L 65.480992 104.898202 
L 67.596694 105.994379 
L 69.712397 107.032489 
L 71.828099 108.014898 
L 73.943802 108.943623 
L 76.059504 109.820382 
L 78.175207 110.64663 
L 80.290909 111.423595 
L 82.406612 112.152306 
L 84.522314 112.833616 
L 86.638017 113.468225 
L 88.753719 114.056697 
L 90.869421 114.599475 
L 92.985124 115.096895 
L 95.100826 115.549197 
L 97.216529 115.956536 
L 99.332231 116.318991 
L 101.447934 116.636575 
L 103.563636 116.909245 
L 105.679339 117.136905 
L 107.795041 117.319418 
L 109.910744 117.456615 
L 112.026446 117.548296 
L 114.142149 117.594245 
L 116.257851 117.594236 
L 118.373554 117.548035 
L 120.489256 117.455415 
L 122.604959 117.316159 
L 124.720661 117.13007 
L 126.836364 116.896977 
L 128.952066 116.616743 
L 131.067769 116.289274 
L 133.183471 115.914524 
L 135.299174 115.492507 
L 137.414876 115.023303 
L 139.530579 114.507067 
L 141.646281 113.944038 
L 143.761983 113.334552 
L 145.877686 112.679053 
L 147.993388 111.978104 
L 150.109091 111.232405 
L 152.224793 110.44281 
L 154.340496 109.610347 
L 156.456198 108.736245 
L 158.571901 107.821958 
L 160.687603 106.869204 
L 162.803306 105.880001 
L 164.919008 104.856714 
L 167.034711 103.802113 
L 169.150413 102.719431 
L 171.266116 101.612443 
L 173.381818 100.485549 
L 175.497521 99.343874 
L 177.613223 98.193381 
L 179.728926 97.041003 
L 181.844628 95.89479 
L 183.960331 94.764082 
L 186.076033 93.659695 
L 188.191736 92.594147 
L 190.307438 91.581892 
L 192.42314 90.639603 
L 194.538843 89.786477 
L 196.654545 89.044574 
L 198.770248 88.439206 
L 200.88595 87.999353 
L 203.001653 87.75814 
L 205.117355 87.753351 
L 207.233058 88.028 
L 209.34876 88.630963 
L 211.464463 89.617667 
L 213.580165 91.050844 
L 215.695868 93.001358 
L 217.81157 95.549106 
L 219.927273 98.784 
" style="fill:none;stroke:#000000;stroke-dasharray:11.1,4.8;stroke-dashoffset:0;stroke-width:3;"/>
   </g>
   <g id="legend_1">
    <g id="line2d_12">
     <path d="M 77.5 14.872813 
L 116.5 14.872813 
" style="fill:none;stroke:#d62728;stroke-linecap:square;stroke-opacity:0.5;stroke-width:3;"/>
    </g>
    <g id="line2d_13"/>
    <g id="text_1">
     <!-- $\hat{f}$ -->
     <g transform="translate(129.5 23.972813)scale(0.26 -0.26)">
      <defs>
       <path d="M -28.609375 79.984375 
L -21.390625 79.984375 
L -9.421875 61.625 
L -16.21875 61.625 
L -25 73.578125 
L -33.796875 61.625 
L -40.578125 61.625 
z
M -25 56 
z
" id="DejaVuSans-770"/>
       <path d="M 47.796875 75.984375 
L 46.390625 68.5 
L 37.796875 68.5 
Q 32.90625 68.5 30.6875 66.578125 
Q 28.46875 64.65625 27.390625 59.515625 
L 26.421875 54.6875 
L 41.21875 54.6875 
L 39.890625 47.703125 
L 25.09375 47.703125 
L 15.828125 0 
L 6.78125 0 
L 16.109375 47.703125 
L 7.515625 47.703125 
L 8.796875 54.6875 
L 17.390625 54.6875 
L 18.109375 58.5 
Q 19.96875 68.171875 24.625 72.078125 
Q 29.296875 75.984375 39.3125 75.984375 
z
" id="DejaVuSans-Oblique-102"/>
      </defs>
      <use transform="translate(47.379395 33.015625)" xlink:href="#DejaVuSans-770"/>
      <use transform="translate(0 0.53125)" xlink:href="#DejaVuSans-Oblique-102"/>
     </g>
    </g>
    <g id="line2d_14">
     <path d="M 77.5 50.435938 
L 116.5 50.435938 
" style="fill:none;stroke:#000000;stroke-dasharray:11.1,4.8;stroke-dashoffset:0;stroke-width:3;"/>
    </g>
    <g id="line2d_15"/>
    <g id="text_2">
     <!-- $f^{\star}$ -->
     <g transform="translate(129.5 59.535938)scale(0.26 -0.26)">
      <defs>
       <path d="M 12.15625 37.359375 
L 26.765625 37.359375 
L 31.296875 51.21875 
L 35.890625 37.359375 
L 50.4375 37.359375 
L 38.625 28.765625 
L 43.21875 14.890625 
L 31.296875 23.484375 
L 19.4375 14.890625 
L 23.96875 28.765625 
z
" id="DejaVuSans-8902"/>
      </defs>
      <use transform="translate(0 0.015625)" xlink:href="#DejaVuSans-Oblique-102"/>
      <use transform="translate(42.652786 38.296875)scale(0.7)" xlink:href="#DejaVuSans-8902"/>
     </g>
    </g>
   </g>
  </g>
 </g>
 <defs>
  <clipPath id="p39e8900c5c">
   <rect height="176.4" width="230.4" x="0" y="0"/>
  </clipPath>
 </defs>
</svg>
