<?xml version="1.0" encoding="utf-8" standalone="no"?>
<!DOCTYPE svg PUBLIC "-//W3C//DTD SVG 1.1//EN"
  "http://www.w3.org/Graphics/SVG/1.1/DTD/svg11.dtd">
<!-- Created with matplotlib (https://matplotlib.org/) -->
<svg height="176.4pt" version="1.1" viewBox="0 0 230.4 176.4" width="230.4pt" xmlns="http://www.w3.org/2000/svg" xmlns:xlink="http://www.w3.org/1999/xlink">
 <metadata>
  <rdf:RDF xmlns:cc="http://creativecommons.org/ns#" xmlns:dc="http://purl.org/dc/elements/1.1/" xmlns:rdf="http://www.w3.org/1999/02/22-rdf-syntax-ns#">
   <cc:Work>
    <dc:type rdf:resource="http://purl.org/dc/dcmitype/StillImage"/>
    <dc:date>2020-12-10T15:55:06.622110</dc:date>
    <dc:format>image/svg+xml</dc:format>
    <dc:creator>
     <cc:Agent>
      <dc:title>Matplotlib v3.3.3, https://matplotlib.org/</dc:title>
     </cc:Agent>
    </dc:creator>
   </cc:Work>
  </rdf:RDF>
 </metadata>
 <defs>
  <style type="text/css">*{stroke-linecap:butt;stroke-linejoin:round;}</style>
 </defs>
 <g id="figure_1">
  <g id="patch_1">
   <path d="M 0 176.4 
L 230.4 176.4 
L 230.4 0 
L 0 0 
z
" style="fill:none;"/>
  </g>
  <g id="axes_1">
   <g id="PathCollection_1">
    <defs>
     <path d="M 0 2.236068 
C 0.593012 2.236068 1.161816 2.000462 1.581139 1.581139 
C 2.000462 1.161816 2.236068 0.593012 2.236068 0 
C 2.236068 -0.593012 2.000462 -1.161816 1.581139 -1.581139 
C 1.161816 -2.000462 0.593012 -2.236068 0 -2.236068 
C -0.593012 -2.236068 -1.161816 -2.000462 -1.581139 -1.581139 
C -2.000462 -1.161816 -2.236068 -0.593012 -2.236068 0 
C -2.236068 0.593012 -2.000462 1.161816 -1.581139 1.581139 
C -1.161816 2.000462 -0.593012 2.236068 0 2.236068 
z
" id="m1ae2951104" style="stroke:#000000;"/>
    </defs>
    <g clip-path="url(#p7f811730ce)">
     <use style="stroke:#000000;" x="125.42421" xlink:href="#m1ae2951104" y="149.162962"/>
     <use style="stroke:#000000;" x="160.272391" xlink:href="#m1ae2951104" y="70.353338"/>
     <use style="stroke:#000000;" x="136.724256" xlink:href="#m1ae2951104" y="124.771259"/>
     <use style="stroke:#000000;" x="124.600987" xlink:href="#m1ae2951104" y="125.384655"/>
     <use style="stroke:#000000;" x="99.209151" xlink:href="#m1ae2951104" y="139.871732"/>
     <use style="stroke:#000000;" x="145.758185" xlink:href="#m1ae2951104" y="98.088036"/>
     <use style="stroke:#000000;" x="102.127358" xlink:href="#m1ae2951104" y="147.09614"/>
     <use style="stroke:#000000;" x="197.258636" xlink:href="#m1ae2951104" y="92.859526"/>
     <use style="stroke:#000000;" x="212.316273" xlink:href="#m1ae2951104" y="106.986297"/>
     <use style="stroke:#000000;" x="90.786296" xlink:href="#m1ae2951104" y="107.29905"/>
     <use style="stroke:#000000;" x="176.303135" xlink:href="#m1ae2951104" y="108.517786"/>
     <use style="stroke:#000000;" x="121.252172" xlink:href="#m1ae2951104" y="139.625362"/>
     <use style="stroke:#000000;" x="129.452243" xlink:href="#m1ae2951104" y="117.073868"/>
     <use style="stroke:#000000;" x="204.34315" xlink:href="#m1ae2951104" y="79.665584"/>
     <use style="stroke:#000000;" x="25.351553" xlink:href="#m1ae2951104" y="63.103059"/>
     <use style="stroke:#000000;" x="28.722355" xlink:href="#m1ae2951104" y="64.646766"/>
     <use style="stroke:#000000;" x="14.707563" xlink:href="#m1ae2951104" y="50.187374"/>
     <use style="stroke:#000000;" x="184.868739" xlink:href="#m1ae2951104" y="101.111321"/>
     <use style="stroke:#000000;" x="173.461196" xlink:href="#m1ae2951104" y="113.095964"/>
     <use style="stroke:#000000;" x="192.700726" xlink:href="#m1ae2951104" y="97.287498"/>
     <use style="stroke:#000000;" x="215.448787" xlink:href="#m1ae2951104" y="108.044549"/>
     <use style="stroke:#000000;" x="177.860121" xlink:href="#m1ae2951104" y="130.540588"/>
     <use style="stroke:#000000;" x="107.131677" xlink:href="#m1ae2951104" y="113.928611"/>
     <use style="stroke:#000000;" x="173.958111" xlink:href="#m1ae2951104" y="107.735711"/>
     <use style="stroke:#000000;" x="35.245843" xlink:href="#m1ae2951104" y="110.513334"/>
     <use style="stroke:#000000;" x="144.507094" xlink:href="#m1ae2951104" y="104.401209"/>
     <use style="stroke:#000000;" x="40.498725" xlink:href="#m1ae2951104" y="103.060311"/>
     <use style="stroke:#000000;" x="208.337926" xlink:href="#m1ae2951104" y="87.321171"/>
     <use style="stroke:#000000;" x="119.77623" xlink:href="#m1ae2951104" y="103.773261"/>
     <use style="stroke:#000000;" x="97.325555" xlink:href="#m1ae2951104" y="113.549368"/>
     <use style="stroke:#000000;" x="65.885103" xlink:href="#m1ae2951104" y="83.673224"/>
     <use style="stroke:#000000;" x="172.639493" xlink:href="#m1ae2951104" y="124.117382"/>
     <use style="stroke:#000000;" x="106.015488" xlink:href="#m1ae2951104" y="109.598464"/>
     <use style="stroke:#000000;" x="129.533802" xlink:href="#m1ae2951104" y="129.4168"/>
     <use style="stroke:#000000;" x="14.408336" xlink:href="#m1ae2951104" y="53.694956"/>
     <use style="stroke:#000000;" x="139.83929" xlink:href="#m1ae2951104" y="125.319457"/>
     <use style="stroke:#000000;" x="138.678959" xlink:href="#m1ae2951104" y="120.582679"/>
     <use style="stroke:#000000;" x="139.692357" xlink:href="#m1ae2951104" y="113.408856"/>
     <use style="stroke:#000000;" x="208.145052" xlink:href="#m1ae2951104" y="110.168029"/>
     <use style="stroke:#000000;" x="153.283088" xlink:href="#m1ae2951104" y="93.08174"/>
     <use style="stroke:#000000;" x="85.773291" xlink:href="#m1ae2951104" y="104.452548"/>
     <use style="stroke:#000000;" x="102.011057" xlink:href="#m1ae2951104" y="145.619501"/>
     <use style="stroke:#000000;" x="156.594752" xlink:href="#m1ae2951104" y="80.674629"/>
     <use style="stroke:#000000;" x="23.087226" xlink:href="#m1ae2951104" y="24.145425"/>
     <use style="stroke:#000000;" x="150.130047" xlink:href="#m1ae2951104" y="89.044881"/>
     <use style="stroke:#000000;" x="150.940877" xlink:href="#m1ae2951104" y="114.312626"/>
     <use style="stroke:#000000;" x="54.538311" xlink:href="#m1ae2951104" y="118.322909"/>
     <use style="stroke:#000000;" x="37.476926" xlink:href="#m1ae2951104" y="62.749068"/>
     <use style="stroke:#000000;" x="76.540629" xlink:href="#m1ae2951104" y="117.598843"/>
     <use style="stroke:#000000;" x="86.653601" xlink:href="#m1ae2951104" y="90.471201"/>
    </g>
   </g>
   <g id="line2d_1">
    <path clip-path="url(#p7f811730ce)" d="M 10.472727 107.760085 
L 12.58843 72.42745 
L 14.704132 50.276495 
L 16.819835 38.285956 
L 18.935537 33.923866 
L 21.05124 35.090134 
L 23.166942 40.063937 
L 25.282645 47.455661 
L 27.398347 56.163113 
L 29.51405 65.331759 
L 31.629752 74.318737 
L 33.745455 82.660407 
L 35.861157 90.04321 
L 37.97686 96.277614 
L 40.092562 101.274941 
L 42.208264 105.026863 
L 44.323967 107.587388 
L 46.439669 109.057124 
L 48.555372 109.569675 
L 50.671074 109.279969 
L 52.786777 108.35437 
L 54.902479 106.962424 
L 57.018182 105.270072 
L 59.133884 103.434212 
L 61.249587 101.598454 
L 63.365289 99.889968 
L 65.480992 98.417276 
L 67.596694 97.268895 
L 69.712397 96.51273 
L 71.828099 96.196084 
L 73.943802 96.34624 
L 76.059504 96.971478 
L 78.175207 98.062486 
L 80.290909 99.594061 
L 82.406612 101.52705 
L 84.522314 103.810445 
L 86.638017 106.3836 
L 88.753719 109.178488 
L 90.869421 112.121971 
L 92.985124 115.138023 
L 95.100826 118.149881 
L 97.216529 121.082079 
L 99.332231 123.862334 
L 101.447934 126.423273 
L 103.563636 128.703956 
L 105.679339 130.651202 
L 107.795041 132.220688 
L 109.910744 133.377814 
L 112.026446 134.098332 
L 114.142149 134.368735 
L 116.257851 134.186406 
L 118.373554 133.559526 
L 120.489256 132.506755 
L 122.604959 131.056696 
L 124.720661 129.247142 
L 126.836364 127.124138 
L 128.952066 124.740866 
L 131.067769 122.156366 
L 133.183471 119.434134 
L 135.299174 116.640598 
L 137.414876 113.843519 
L 139.530579 111.110326 
L 141.646281 108.506424 
L 143.761983 106.093505 
L 145.877686 103.927889 
L 147.993388 102.058933 
L 150.109091 100.527533 
L 152.224793 99.364764 
L 154.340496 98.590685 
L 156.456198 98.213351 
L 158.571901 98.228057 
L 160.687603 98.616864 
L 162.803306 99.348434 
L 164.919008 100.378213 
L 167.034711 101.648994 
L 169.150413 103.091905 
L 171.266116 104.627849 
L 173.381818 106.169426 
L 175.497521 107.623386 
L 177.613223 108.893631 
L 179.728926 109.884803 
L 181.844628 110.506491 
L 183.960331 110.678083 
L 186.076033 110.334282 
L 188.191736 109.431331 
L 190.307438 107.953956 
L 192.42314 105.923047 
L 194.538843 103.404107 
L 196.654545 100.516483 
L 198.770248 97.443387 
L 200.88595 94.442729 
L 203.001653 91.858766 
L 205.117355 90.134571 
L 207.233058 89.82534 
L 209.34876 91.612516 
L 211.464463 96.318745 
L 213.580165 104.923653 
L 215.695868 118.580426 
L 217.81157 138.633194 
L 219.927273 166.63519 
" style="fill:none;stroke:#d62728;stroke-linecap:square;stroke-width:3;"/>
   </g>
   <g id="line2d_2">
    <path clip-path="url(#p7f811730ce)" d="M 10.472727 23.52 
L 12.58843 31.270273 
L 14.704132 38.24125 
L 16.819835 44.522842 
L 18.935537 50.194947 
L 21.05124 55.328427 
L 23.166942 59.986017 
L 25.282645 64.223141 
L 27.398347 68.088677 
L 29.51405 71.625638 
L 31.629752 74.87181 
L 33.745455 77.860315 
L 35.861157 80.620135 
L 37.97686 83.17658 
L 40.092562 85.551713 
L 42.208264 87.764729 
L 44.323967 89.832301 
L 46.439669 91.768884 
L 48.555372 93.586995 
L 50.671074 95.297451 
L 52.786777 96.909591 
L 54.902479 98.431465 
L 57.018182 99.870006 
L 59.133884 101.231178 
L 61.249587 102.520106 
L 63.365289 103.741189 
L 65.480992 104.898202 
L 67.596694 105.994379 
L 69.712397 107.032489 
L 71.828099 108.014898 
L 73.943802 108.943623 
L 76.059504 109.820382 
L 78.175207 110.64663 
L 80.290909 111.423595 
L 82.406612 112.152306 
L 84.522314 112.833616 
L 86.638017 113.468225 
L 88.753719 114.056697 
L 90.869421 114.599475 
L 92.985124 115.096895 
L 95.100826 115.549197 
L 97.216529 115.956536 
L 99.332231 116.318991 
L 101.447934 116.636575 
L 103.563636 116.909245 
L 105.679339 117.136905 
L 107.795041 117.319418 
L 109.910744 117.456615 
L 112.026446 117.548296 
L 114.142149 117.594245 
L 116.257851 117.594236 
L 118.373554 117.548035 
L 120.489256 117.455415 
L 122.604959 117.316159 
L 124.720661 117.13007 
L 126.836364 116.896977 
L 128.952066 116.616743 
L 131.067769 116.289274 
L 133.183471 115.914524 
L 135.299174 115.492507 
L 137.414876 115.023303 
L 139.530579 114.507067 
L 141.646281 113.944038 
L 143.761983 113.334552 
L 145.877686 112.679053 
L 147.993388 111.978104 
L 150.109091 111.232405 
L 152.224793 110.44281 
L 154.340496 109.610347 
L 156.456198 108.736245 
L 158.571901 107.821958 
L 160.687603 106.869204 
L 162.803306 105.880001 
L 164.919008 104.856714 
L 167.034711 103.802113 
L 169.150413 102.719431 
L 171.266116 101.612443 
L 173.381818 100.485549 
L 175.497521 99.343874 
L 177.613223 98.193381 
L 179.728926 97.041003 
L 181.844628 95.89479 
L 183.960331 94.764082 
L 186.076033 93.659695 
L 188.191736 92.594147 
L 190.307438 91.581892 
L 192.42314 90.639603 
L 194.538843 89.786477 
L 196.654545 89.044574 
L 198.770248 88.439206 
L 200.88595 87.999353 
L 203.001653 87.75814 
L 205.117355 87.753351 
L 207.233058 88.028 
L 209.34876 88.630963 
L 211.464463 89.617667 
L 213.580165 91.050844 
L 215.695868 93.001358 
L 217.81157 95.549106 
L 219.927273 98.784 
" style="fill:none;stroke:#000000;stroke-dasharray:11.1,4.8;stroke-dashoffset:0;stroke-width:3;"/>
   </g>
   <g id="legend_1">
    <g id="line2d_3">
     <path d="M 77.5 14.872813 
L 116.5 14.872813 
" style="fill:none;stroke:#d62728;stroke-linecap:square;stroke-width:3;"/>
    </g>
    <g id="line2d_4"/>
    <g id="text_1">
     <!-- $\hat{f}$ -->
     <g transform="translate(129.5 23.972813)scale(0.26 -0.26)">
      <defs>
       <path d="M -28.609375 79.984375 
L -21.390625 79.984375 
L -9.421875 61.625 
L -16.21875 61.625 
L -25 73.578125 
L -33.796875 61.625 
L -40.578125 61.625 
z
M -25 56 
z
" id="DejaVuSans-770"/>
       <path d="M 47.796875 75.984375 
L 46.390625 68.5 
L 37.796875 68.5 
Q 32.90625 68.5 30.6875 66.578125 
Q 28.46875 64.65625 27.390625 59.515625 
L 26.421875 54.6875 
L 41.21875 54.6875 
L 39.890625 47.703125 
L 25.09375 47.703125 
L 15.828125 0 
L 6.78125 0 
L 16.109375 47.703125 
L 7.515625 47.703125 
L 8.796875 54.6875 
L 17.390625 54.6875 
L 18.109375 58.5 
Q 19.96875 68.171875 24.625 72.078125 
Q 29.296875 75.984375 39.3125 75.984375 
z
" id="DejaVuSans-Oblique-102"/>
      </defs>
      <use transform="translate(47.379395 33.015625)" xlink:href="#DejaVuSans-770"/>
      <use transform="translate(0 0.53125)" xlink:href="#DejaVuSans-Oblique-102"/>
     </g>
    </g>
    <g id="line2d_5">
     <path d="M 77.5 50.435938 
L 116.5 50.435938 
" style="fill:none;stroke:#000000;stroke-dasharray:11.1,4.8;stroke-dashoffset:0;stroke-width:3;"/>
    </g>
    <g id="line2d_6"/>
    <g id="text_2">
     <!-- $f^{\star}$ -->
     <g transform="translate(129.5 59.535938)scale(0.26 -0.26)">
      <defs>
       <path d="M 12.15625 37.359375 
L 26.765625 37.359375 
L 31.296875 51.21875 
L 35.890625 37.359375 
L 50.4375 37.359375 
L 38.625 28.765625 
L 43.21875 14.890625 
L 31.296875 23.484375 
L 19.4375 14.890625 
L 23.96875 28.765625 
z
" id="DejaVuSans-8902"/>
      </defs>
      <use transform="translate(0 0.015625)" xlink:href="#DejaVuSans-Oblique-102"/>
      <use transform="translate(42.652786 38.296875)scale(0.7)" xlink:href="#DejaVuSans-8902"/>
     </g>
    </g>
   </g>
  </g>
 </g>
 <defs>
  <clipPath id="p7f811730ce">
   <rect height="176.4" width="230.4" x="0" y="0"/>
  </clipPath>
 </defs>
</svg>
