<?xml version="1.0" encoding="utf-8" standalone="no"?>
<!DOCTYPE svg PUBLIC "-//W3C//DTD SVG 1.1//EN"
  "http://www.w3.org/Graphics/SVG/1.1/DTD/svg11.dtd">
<!-- Created with matplotlib (https://matplotlib.org/) -->
<svg height="276.48pt" version="1.1" viewBox="0 0 368.64 276.48" width="368.64pt" xmlns="http://www.w3.org/2000/svg" xmlns:xlink="http://www.w3.org/1999/xlink">
 <metadata>
  <rdf:RDF xmlns:cc="http://creativecommons.org/ns#" xmlns:dc="http://purl.org/dc/elements/1.1/" xmlns:rdf="http://www.w3.org/1999/02/22-rdf-syntax-ns#">
   <cc:Work>
    <dc:type rdf:resource="http://purl.org/dc/dcmitype/StillImage"/>
    <dc:date>2020-12-10T15:55:06.307157</dc:date>
    <dc:format>image/svg+xml</dc:format>
    <dc:creator>
     <cc:Agent>
      <dc:title>Matplotlib v3.3.3, https://matplotlib.org/</dc:title>
     </cc:Agent>
    </dc:creator>
   </cc:Work>
  </rdf:RDF>
 </metadata>
 <defs>
  <style type="text/css">*{stroke-linecap:butt;stroke-linejoin:round;}</style>
 </defs>
 <g id="figure_1">
  <g id="patch_1">
   <path d="M 0 276.48 
L 368.64 276.48 
L 368.64 0 
L 0 0 
z
" style="fill:none;"/>
  </g>
  <g id="axes_1">
   <g id="PathCollection_1">
    <defs>
     <path d="M 0 2.236068 
C 0.593012 2.236068 1.161816 2.000462 1.581139 1.581139 
C 2.000462 1.161816 2.236068 0.593012 2.236068 0 
C 2.236068 -0.593012 2.000462 -1.161816 1.581139 -1.581139 
C 1.161816 -2.000462 0.593012 -2.236068 0 -2.236068 
C -0.593012 -2.236068 -1.161816 -2.000462 -1.581139 -1.581139 
C -2.000462 -1.161816 -2.236068 -0.593012 -2.236068 0 
C -2.236068 0.593012 -2.000462 1.161816 -1.581139 1.581139 
C -1.161816 2.000462 -0.593012 2.236068 0 2.236068 
z
" id="m7809836455" style="stroke:#000000;"/>
    </defs>
    <g clip-path="url(#p80e3cc0fa6)">
     <use style="stroke:#000000;" x="200.678736" xlink:href="#m7809836455" y="270.029652"/>
     <use style="stroke:#000000;" x="256.435825" xlink:href="#m7809836455" y="113.452439"/>
     <use style="stroke:#000000;" x="218.75881" xlink:href="#m7809836455" y="221.568757"/>
     <use style="stroke:#000000;" x="199.361579" xlink:href="#m7809836455" y="222.787439"/>
     <use style="stroke:#000000;" x="158.734641" xlink:href="#m7809836455" y="251.570041"/>
     <use style="stroke:#000000;" x="233.213096" xlink:href="#m7809836455" y="168.555121"/>
     <use style="stroke:#000000;" x="163.403772" xlink:href="#m7809836455" y="265.923336"/>
     <use style="stroke:#000000;" x="315.613817" xlink:href="#m7809836455" y="158.167234"/>
     <use style="stroke:#000000;" x="339.706036" xlink:href="#m7809836455" y="186.23399"/>
     <use style="stroke:#000000;" x="145.258074" xlink:href="#m7809836455" y="186.855361"/>
     <use style="stroke:#000000;" x="282.085016" xlink:href="#m7809836455" y="189.276718"/>
     <use style="stroke:#000000;" x="194.003476" xlink:href="#m7809836455" y="251.08056"/>
     <use style="stroke:#000000;" x="207.123588" xlink:href="#m7809836455" y="206.275753"/>
     <use style="stroke:#000000;" x="326.949041" xlink:href="#m7809836455" y="131.953804"/>
     <use style="stroke:#000000;" x="40.562484" xlink:href="#m7809836455" y="99.047746"/>
     <use style="stroke:#000000;" x="45.955768" xlink:href="#m7809836455" y="102.114748"/>
     <use style="stroke:#000000;" x="23.5321" xlink:href="#m7809836455" y="73.387151"/>
     <use style="stroke:#000000;" x="295.789982" xlink:href="#m7809836455" y="174.561718"/>
     <use style="stroke:#000000;" x="277.537913" xlink:href="#m7809836455" y="198.37254"/>
     <use style="stroke:#000000;" x="308.321162" xlink:href="#m7809836455" y="166.96463"/>
     <use style="stroke:#000000;" x="344.71806" xlink:href="#m7809836455" y="188.3365"/>
     <use style="stroke:#000000;" x="284.576194" xlink:href="#m7809836455" y="233.031132"/>
     <use style="stroke:#000000;" x="171.410684" xlink:href="#m7809836455" y="200.026824"/>
     <use style="stroke:#000000;" x="278.332978" xlink:href="#m7809836455" y="187.722908"/>
     <use style="stroke:#000000;" x="56.393349" xlink:href="#m7809836455" y="193.241429"/>
     <use style="stroke:#000000;" x="231.21135" xlink:href="#m7809836455" y="181.097995"/>
     <use style="stroke:#000000;" x="64.79796" xlink:href="#m7809836455" y="178.433928"/>
     <use style="stroke:#000000;" x="333.340681" xlink:href="#m7809836455" y="147.163754"/>
     <use style="stroke:#000000;" x="191.641968" xlink:href="#m7809836455" y="179.850401"/>
     <use style="stroke:#000000;" x="155.720889" xlink:href="#m7809836455" y="199.273353"/>
     <use style="stroke:#000000;" x="105.416164" xlink:href="#m7809836455" y="139.916094"/>
     <use style="stroke:#000000;" x="276.223188" xlink:href="#m7809836455" y="220.269649"/>
     <use style="stroke:#000000;" x="169.62478" xlink:href="#m7809836455" y="191.423784"/>
     <use style="stroke:#000000;" x="207.254083" xlink:href="#m7809836455" y="230.798415"/>
     <use style="stroke:#000000;" x="23.053338" xlink:href="#m7809836455" y="80.355935"/>
     <use style="stroke:#000000;" x="223.742863" xlink:href="#m7809836455" y="222.657904"/>
     <use style="stroke:#000000;" x="221.886334" xlink:href="#m7809836455" y="213.246979"/>
     <use style="stroke:#000000;" x="223.507771" xlink:href="#m7809836455" y="198.994186"/>
     <use style="stroke:#000000;" x="333.032083" xlink:href="#m7809836455" y="192.555385"/>
     <use style="stroke:#000000;" x="245.252941" xlink:href="#m7809836455" y="158.608723"/>
     <use style="stroke:#000000;" x="137.237266" xlink:href="#m7809836455" y="181.199994"/>
     <use style="stroke:#000000;" x="163.21769" xlink:href="#m7809836455" y="262.989582"/>
     <use style="stroke:#000000;" x="250.551604" xlink:href="#m7809836455" y="133.958551"/>
     <use style="stroke:#000000;" x="36.939562" xlink:href="#m7809836455" y="21.647584"/>
     <use style="stroke:#000000;" x="240.208075" xlink:href="#m7809836455" y="150.588383"/>
     <use style="stroke:#000000;" x="241.505404" xlink:href="#m7809836455" y="200.789776"/>
     <use style="stroke:#000000;" x="87.261298" xlink:href="#m7809836455" y="208.757318"/>
     <use style="stroke:#000000;" x="59.963082" xlink:href="#m7809836455" y="98.344445"/>
     <use style="stroke:#000000;" x="122.465007" xlink:href="#m7809836455" y="207.318761"/>
     <use style="stroke:#000000;" x="138.645762" xlink:href="#m7809836455" y="153.422164"/>
    </g>
   </g>
   <g id="line2d_1">
    <path clip-path="url(#p80e3cc0fa6)" d="M 16.756364 145.16691 
L 20.141488 145.818769 
L 23.526612 146.470629 
L 26.911736 147.122489 
L 30.29686 147.774348 
L 33.681983 148.426208 
L 37.067107 149.078068 
L 40.452231 149.729928 
L 43.837355 150.381787 
L 47.222479 151.033647 
L 50.607603 151.685507 
L 53.992727 152.337367 
L 57.377851 152.989226 
L 60.762975 153.641086 
L 64.148099 154.292946 
L 67.533223 154.944805 
L 70.918347 155.596665 
L 74.303471 156.248525 
L 77.688595 156.900385 
L 81.073719 157.552244 
L 84.458843 158.204104 
L 87.843967 158.855964 
L 91.229091 159.507824 
L 94.614215 160.159683 
L 97.999339 160.811543 
L 101.384463 161.463403 
L 104.769587 162.115263 
L 108.154711 162.767122 
L 111.539835 163.418982 
L 114.924959 164.070842 
L 118.310083 164.722701 
L 121.695207 165.374561 
L 125.080331 166.026421 
L 128.465455 166.678281 
L 131.850579 167.33014 
L 135.235702 167.982 
L 138.620826 168.63386 
L 142.00595 169.28572 
L 145.391074 169.937579 
L 148.776198 170.589439 
L 152.161322 171.241299 
L 155.546446 171.893158 
L 158.93157 172.545018 
L 162.316694 173.196878 
L 165.701818 173.848738 
L 169.086942 174.500597 
L 172.472066 175.152457 
L 175.85719 175.804317 
L 179.242314 176.456177 
L 182.627438 177.108036 
L 186.012562 177.759896 
L 189.397686 178.411756 
L 192.78281 179.063616 
L 196.167934 179.715475 
L 199.553058 180.367335 
L 202.938182 181.019195 
L 206.323306 181.671054 
L 209.70843 182.322914 
L 213.093554 182.974774 
L 216.478678 183.626634 
L 219.863802 184.278493 
L 223.248926 184.930353 
L 226.63405 185.582213 
L 230.019174 186.234073 
L 233.404298 186.885932 
L 236.789421 187.537792 
L 240.174545 188.189652 
L 243.559669 188.841511 
L 246.944793 189.493371 
L 250.329917 190.145231 
L 253.715041 190.797091 
L 257.100165 191.44895 
L 260.485289 192.10081 
L 263.870413 192.75267 
L 267.255537 193.40453 
L 270.640661 194.056389 
L 274.025785 194.708249 
L 277.410909 195.360109 
L 280.796033 196.011969 
L 284.181157 196.663828 
L 287.566281 197.315688 
L 290.951405 197.967548 
L 294.336529 198.619407 
L 297.721653 199.271267 
L 301.106777 199.923127 
L 304.491901 200.574987 
L 307.877025 201.226846 
L 311.262149 201.878706 
L 314.647273 202.530566 
L 318.032397 203.182426 
L 321.417521 203.834285 
L 324.802645 204.486145 
L 328.187769 205.138005 
L 331.572893 205.789864 
L 334.958017 206.441724 
L 338.34314 207.093584 
L 341.728264 207.745444 
L 345.113388 208.397303 
L 348.498512 209.049163 
L 351.883636 209.701023 
" style="fill:none;stroke:#1f77b4;stroke-linecap:square;stroke-width:4;"/>
   </g>
   <g id="line2d_2">
    <path clip-path="url(#p80e3cc0fa6)" d="M 16.756364 76.35942 
L 20.141488 81.030763 
L 23.526612 85.619328 
L 26.911736 90.125115 
L 30.29686 94.548125 
L 33.681983 98.888357 
L 37.067107 103.145812 
L 40.452231 107.320489 
L 43.837355 111.412388 
L 47.222479 115.42151 
L 50.607603 119.347854 
L 53.992727 123.191421 
L 57.377851 126.95221 
L 60.762975 130.630221 
L 64.148099 134.225455 
L 67.533223 137.737911 
L 70.918347 141.16759 
L 74.303471 144.51449 
L 77.688595 147.778614 
L 81.073719 150.95996 
L 84.458843 154.058528 
L 87.843967 157.074318 
L 91.229091 160.007331 
L 94.614215 162.857566 
L 97.999339 165.625024 
L 101.384463 168.309704 
L 104.769587 170.911607 
L 108.154711 173.430731 
L 111.539835 175.867079 
L 114.924959 178.220648 
L 118.310083 180.49144 
L 121.695207 182.679455 
L 125.080331 184.784692 
L 128.465455 186.807151 
L 131.850579 188.746832 
L 135.235702 190.603736 
L 138.620826 192.377863 
L 142.00595 194.069212 
L 145.391074 195.677783 
L 148.776198 197.203576 
L 152.161322 198.646592 
L 155.546446 200.006831 
L 158.93157 201.284292 
L 162.316694 202.478975 
L 165.701818 203.59088 
L 169.086942 204.620008 
L 172.472066 205.566359 
L 175.85719 206.429931 
L 179.242314 207.210726 
L 182.627438 207.908744 
L 186.012562 208.523984 
L 189.397686 209.056446 
L 192.78281 209.506131 
L 196.167934 209.873038 
L 199.553058 210.157167 
L 202.938182 210.358519 
L 206.323306 210.477094 
L 209.70843 210.51289 
L 213.093554 210.465909 
L 216.478678 210.336151 
L 219.863802 210.123615 
L 223.248926 209.828301 
L 226.63405 209.45021 
L 230.019174 208.989341 
L 233.404298 208.445694 
L 236.789421 207.81927 
L 240.174545 207.110068 
L 243.559669 206.318089 
L 246.944793 205.443332 
L 250.329917 204.485797 
L 253.715041 203.445485 
L 257.100165 202.322395 
L 260.485289 201.116527 
L 263.870413 199.827882 
L 267.255537 198.45646 
L 270.640661 197.00226 
L 274.025785 195.465282 
L 277.410909 193.845526 
L 280.796033 192.142993 
L 284.181157 190.357682 
L 287.566281 188.489594 
L 290.951405 186.538728 
L 294.336529 184.505085 
L 297.721653 182.388664 
L 301.106777 180.189465 
L 304.491901 177.907489 
L 307.877025 175.542735 
L 311.262149 173.095203 
L 314.647273 170.564894 
L 318.032397 167.951807 
L 321.417521 165.255943 
L 324.802645 162.477301 
L 328.187769 159.615881 
L 331.572893 156.671684 
L 334.958017 153.644709 
L 338.34314 150.534957 
L 341.728264 147.342427 
L 345.113388 144.06712 
L 348.498512 140.709034 
L 351.883636 137.268172 
" style="fill:none;stroke:#ff7f0e;stroke-linecap:square;stroke-width:4;"/>
   </g>
   <g id="line2d_3">
    <path clip-path="url(#p80e3cc0fa6)" d="M 16.756364 49.900092 
L 20.141488 57.369429 
L 23.526612 64.677005 
L 26.911736 71.821077 
L 30.29686 78.799984 
L 33.681983 85.612152 
L 37.067107 92.256095 
L 40.452231 98.730417 
L 43.837355 105.033816 
L 47.222479 111.165082 
L 50.607603 117.123102 
L 53.992727 122.906861 
L 57.377851 128.515444 
L 60.762975 133.948036 
L 64.148099 139.203927 
L 67.533223 144.282514 
L 70.918347 149.183298 
L 74.303471 153.905891 
L 77.688595 158.450017 
L 81.073719 162.815512 
L 84.458843 167.002328 
L 87.843967 171.010532 
L 91.229091 174.840312 
L 94.614215 178.491975 
L 97.999339 181.965952 
L 101.384463 185.262798 
L 104.769587 188.383194 
L 108.154711 191.32795 
L 111.539835 194.098005 
L 114.924959 196.694431 
L 118.310083 199.118434 
L 121.695207 201.371357 
L 125.080331 203.454679 
L 128.465455 205.370019 
L 131.850579 207.119139 
L 135.235702 208.703942 
L 138.620826 210.12648 
L 142.00595 211.388949 
L 145.391074 212.493695 
L 148.776198 213.443218 
L 152.161322 214.240167 
L 155.546446 214.887348 
L 158.93157 215.387723 
L 162.316694 215.744414 
L 165.701818 215.960703 
L 169.086942 216.040034 
L 172.472066 215.986016 
L 175.85719 215.802425 
L 179.242314 215.493203 
L 182.627438 215.062464 
L 186.012562 214.514495 
L 189.397686 213.853754 
L 192.78281 213.084877 
L 196.167934 212.212677 
L 199.553058 211.242147 
L 202.938182 210.178462 
L 206.323306 209.02698 
L 209.70843 207.793243 
L 213.093554 206.482983 
L 216.478678 205.102118 
L 219.863802 203.65676 
L 223.248926 202.153213 
L 226.63405 200.597974 
L 230.019174 198.997739 
L 233.404298 197.359403 
L 236.789421 195.69006 
L 240.174545 193.997006 
L 243.559669 192.287744 
L 246.944793 190.56998 
L 250.329917 188.851632 
L 253.715041 187.140824 
L 257.100165 185.445895 
L 260.485289 183.775396 
L 263.870413 182.138096 
L 267.255537 180.542979 
L 270.640661 178.99925 
L 274.025785 177.516336 
L 277.410909 176.103886 
L 280.796033 174.771776 
L 284.181157 173.530107 
L 287.566281 172.389211 
L 290.951405 171.359651 
L 294.336529 170.452221 
L 297.721653 169.677951 
L 301.106777 169.048108 
L 304.491901 168.574198 
L 307.877025 168.267966 
L 311.262149 168.1414 
L 314.647273 168.206733 
L 318.032397 168.476444 
L 321.417521 168.96326 
L 324.802645 169.680156 
L 328.187769 170.640363 
L 331.572893 171.857362 
L 334.958017 173.344893 
L 338.34314 175.116949 
L 341.728264 177.187789 
L 345.113388 179.571927 
L 348.498512 182.284144 
L 351.883636 185.339485 
" style="fill:none;stroke:#2ca02c;stroke-linecap:square;stroke-width:4;"/>
   </g>
   <g id="line2d_4">
    <path clip-path="url(#p80e3cc0fa6)" d="M 16.756364 187.771335 
L 20.141488 117.573239 
L 23.526612 73.564213 
L 26.911736 49.741677 
L 30.29686 41.075173 
L 33.681983 43.392288 
L 37.067107 53.27413 
L 40.452231 67.959843 
L 43.837355 85.259615 
L 47.222479 103.475677 
L 50.607603 121.330806 
L 53.992727 137.903851 
L 57.377851 152.571841 
L 60.762975 164.958216 
L 64.148099 174.886793 
L 67.533223 182.34103 
L 70.918347 187.428223 
L 74.303471 190.348263 
L 77.688595 191.366588 
L 81.073719 190.791006 
L 84.458843 188.952047 
L 87.843967 186.186559 
L 91.229091 182.824232 
L 94.614215 179.176785 
L 97.999339 175.529543 
L 101.384463 172.135161 
L 104.769587 169.209248 
L 108.154711 166.927672 
L 111.539835 165.425338 
L 114.924959 164.796234 
L 118.310083 165.09456 
L 121.695207 166.336769 
L 125.080331 168.504359 
L 128.465455 171.547259 
L 131.850579 175.387678 
L 135.235702 179.924277 
L 138.620826 185.036564 
L 142.00595 190.589386 
L 145.391074 196.437432 
L 148.776198 202.429657 
L 152.161322 208.413551 
L 155.546446 214.239176 
L 158.93157 219.762926 
L 162.316694 224.850942 
L 165.701818 229.382152 
L 169.086942 233.250898 
L 172.472066 236.369118 
L 175.85719 238.66807 
L 179.242314 240.099579 
L 182.627438 240.63681 
L 186.012562 240.274563 
L 189.397686 239.029091 
L 192.78281 236.93747 
L 196.167934 234.056524 
L 199.553058 230.461342 
L 202.938182 226.243406 
L 206.323306 221.508373 
L 209.70843 216.373546 
L 213.093554 210.965075 
L 216.478678 205.414941 
L 219.863802 199.857767 
L 223.248926 194.427519 
L 226.63405 189.254144 
L 230.019174 184.46021 
L 233.404298 180.157613 
L 236.789421 176.444413 
L 240.174545 173.401861 
L 243.559669 171.091697 
L 246.944793 169.553775 
L 250.329917 168.804096 
L 253.715041 168.833313 
L 257.100165 169.605786 
L 260.485289 171.059253 
L 263.870413 173.105194 
L 267.255537 175.629954 
L 270.640661 178.496699 
L 274.025785 181.548278 
L 277.410909 184.611049 
L 280.796033 187.499744 
L 284.181157 190.023438 
L 287.566281 191.992676 
L 290.951405 193.227834 
L 294.336529 193.568748 
L 297.721653 192.885691 
L 301.106777 191.091729 
L 304.491901 188.156514 
L 307.877025 184.121548 
L 311.262149 179.116973 
L 314.647273 173.379906 
L 318.032397 167.274347 
L 321.417521 161.312707 
L 324.802645 156.178946 
L 328.187769 152.753354 
L 331.572893 152.138981 
L 334.958017 155.689702 
L 338.34314 165.039934 
L 341.728264 182.135974 
L 345.113388 209.268947 
L 348.498512 249.109343 
L 350.22477 277.48 
" style="fill:none;stroke:#d62728;stroke-linecap:square;stroke-width:4;"/>
   </g>
   <g id="legend_1">
    <g id="line2d_5">
     <path d="M 74.517188 18.436388 
L 101.517188 18.436388 
" style="fill:none;stroke:#1f77b4;stroke-linecap:square;stroke-width:4;"/>
    </g>
    <g id="line2d_6"/>
    <g id="text_1">
     <!-- Fitted degree 1 poly. -->
     <g transform="translate(110.517188 24.736388)scale(0.18 -0.18)">
      <defs>
       <path d="M 9.8125 72.90625 
L 51.703125 72.90625 
L 51.703125 64.59375 
L 19.671875 64.59375 
L 19.671875 43.109375 
L 48.578125 43.109375 
L 48.578125 34.8125 
L 19.671875 34.8125 
L 19.671875 0 
L 9.8125 0 
z
" id="DejaVuSans-70"/>
       <path d="M 9.421875 54.6875 
L 18.40625 54.6875 
L 18.40625 0 
L 9.421875 0 
z
M 9.421875 75.984375 
L 18.40625 75.984375 
L 18.40625 64.59375 
L 9.421875 64.59375 
z
" id="DejaVuSans-105"/>
       <path d="M 18.3125 70.21875 
L 18.3125 54.6875 
L 36.8125 54.6875 
L 36.8125 47.703125 
L 18.3125 47.703125 
L 18.3125 18.015625 
Q 18.3125 11.328125 20.140625 9.421875 
Q 21.96875 7.515625 27.59375 7.515625 
L 36.8125 7.515625 
L 36.8125 0 
L 27.59375 0 
Q 17.1875 0 13.234375 3.875 
Q 9.28125 7.765625 9.28125 18.015625 
L 9.28125 47.703125 
L 2.6875 47.703125 
L 2.6875 54.6875 
L 9.28125 54.6875 
L 9.28125 70.21875 
z
" id="DejaVuSans-116"/>
       <path d="M 56.203125 29.59375 
L 56.203125 25.203125 
L 14.890625 25.203125 
Q 15.484375 15.921875 20.484375 11.0625 
Q 25.484375 6.203125 34.421875 6.203125 
Q 39.59375 6.203125 44.453125 7.46875 
Q 49.3125 8.734375 54.109375 11.28125 
L 54.109375 2.78125 
Q 49.265625 0.734375 44.1875 -0.34375 
Q 39.109375 -1.421875 33.890625 -1.421875 
Q 20.796875 -1.421875 13.15625 6.1875 
Q 5.515625 13.8125 5.515625 26.8125 
Q 5.515625 40.234375 12.765625 48.109375 
Q 20.015625 56 32.328125 56 
Q 43.359375 56 49.78125 48.890625 
Q 56.203125 41.796875 56.203125 29.59375 
z
M 47.21875 32.234375 
Q 47.125 39.59375 43.09375 43.984375 
Q 39.0625 48.390625 32.421875 48.390625 
Q 24.90625 48.390625 20.390625 44.140625 
Q 15.875 39.890625 15.1875 32.171875 
z
" id="DejaVuSans-101"/>
       <path d="M 45.40625 46.390625 
L 45.40625 75.984375 
L 54.390625 75.984375 
L 54.390625 0 
L 45.40625 0 
L 45.40625 8.203125 
Q 42.578125 3.328125 38.25 0.953125 
Q 33.9375 -1.421875 27.875 -1.421875 
Q 17.96875 -1.421875 11.734375 6.484375 
Q 5.515625 14.40625 5.515625 27.296875 
Q 5.515625 40.1875 11.734375 48.09375 
Q 17.96875 56 27.875 56 
Q 33.9375 56 38.25 53.625 
Q 42.578125 51.265625 45.40625 46.390625 
z
M 14.796875 27.296875 
Q 14.796875 17.390625 18.875 11.75 
Q 22.953125 6.109375 30.078125 6.109375 
Q 37.203125 6.109375 41.296875 11.75 
Q 45.40625 17.390625 45.40625 27.296875 
Q 45.40625 37.203125 41.296875 42.84375 
Q 37.203125 48.484375 30.078125 48.484375 
Q 22.953125 48.484375 18.875 42.84375 
Q 14.796875 37.203125 14.796875 27.296875 
z
" id="DejaVuSans-100"/>
       <path id="DejaVuSans-32"/>
       <path d="M 45.40625 27.984375 
Q 45.40625 37.75 41.375 43.109375 
Q 37.359375 48.484375 30.078125 48.484375 
Q 22.859375 48.484375 18.828125 43.109375 
Q 14.796875 37.75 14.796875 27.984375 
Q 14.796875 18.265625 18.828125 12.890625 
Q 22.859375 7.515625 30.078125 7.515625 
Q 37.359375 7.515625 41.375 12.890625 
Q 45.40625 18.265625 45.40625 27.984375 
z
M 54.390625 6.78125 
Q 54.390625 -7.171875 48.1875 -13.984375 
Q 42 -20.796875 29.203125 -20.796875 
Q 24.46875 -20.796875 20.265625 -20.09375 
Q 16.0625 -19.390625 12.109375 -17.921875 
L 12.109375 -9.1875 
Q 16.0625 -11.328125 19.921875 -12.34375 
Q 23.78125 -13.375 27.78125 -13.375 
Q 36.625 -13.375 41.015625 -8.765625 
Q 45.40625 -4.15625 45.40625 5.171875 
L 45.40625 9.625 
Q 42.625 4.78125 38.28125 2.390625 
Q 33.9375 0 27.875 0 
Q 17.828125 0 11.671875 7.65625 
Q 5.515625 15.328125 5.515625 27.984375 
Q 5.515625 40.671875 11.671875 48.328125 
Q 17.828125 56 27.875 56 
Q 33.9375 56 38.28125 53.609375 
Q 42.625 51.21875 45.40625 46.390625 
L 45.40625 54.6875 
L 54.390625 54.6875 
z
" id="DejaVuSans-103"/>
       <path d="M 41.109375 46.296875 
Q 39.59375 47.171875 37.8125 47.578125 
Q 36.03125 48 33.890625 48 
Q 26.265625 48 22.1875 43.046875 
Q 18.109375 38.09375 18.109375 28.8125 
L 18.109375 0 
L 9.078125 0 
L 9.078125 54.6875 
L 18.109375 54.6875 
L 18.109375 46.1875 
Q 20.953125 51.171875 25.484375 53.578125 
Q 30.03125 56 36.53125 56 
Q 37.453125 56 38.578125 55.875 
Q 39.703125 55.765625 41.0625 55.515625 
z
" id="DejaVuSans-114"/>
       <path d="M 12.40625 8.296875 
L 28.515625 8.296875 
L 28.515625 63.921875 
L 10.984375 60.40625 
L 10.984375 69.390625 
L 28.421875 72.90625 
L 38.28125 72.90625 
L 38.28125 8.296875 
L 54.390625 8.296875 
L 54.390625 0 
L 12.40625 0 
z
" id="DejaVuSans-49"/>
       <path d="M 18.109375 8.203125 
L 18.109375 -20.796875 
L 9.078125 -20.796875 
L 9.078125 54.6875 
L 18.109375 54.6875 
L 18.109375 46.390625 
Q 20.953125 51.265625 25.265625 53.625 
Q 29.59375 56 35.59375 56 
Q 45.5625 56 51.78125 48.09375 
Q 58.015625 40.1875 58.015625 27.296875 
Q 58.015625 14.40625 51.78125 6.484375 
Q 45.5625 -1.421875 35.59375 -1.421875 
Q 29.59375 -1.421875 25.265625 0.953125 
Q 20.953125 3.328125 18.109375 8.203125 
z
M 48.6875 27.296875 
Q 48.6875 37.203125 44.609375 42.84375 
Q 40.53125 48.484375 33.40625 48.484375 
Q 26.265625 48.484375 22.1875 42.84375 
Q 18.109375 37.203125 18.109375 27.296875 
Q 18.109375 17.390625 22.1875 11.75 
Q 26.265625 6.109375 33.40625 6.109375 
Q 40.53125 6.109375 44.609375 11.75 
Q 48.6875 17.390625 48.6875 27.296875 
z
" id="DejaVuSans-112"/>
       <path d="M 30.609375 48.390625 
Q 23.390625 48.390625 19.1875 42.75 
Q 14.984375 37.109375 14.984375 27.296875 
Q 14.984375 17.484375 19.15625 11.84375 
Q 23.34375 6.203125 30.609375 6.203125 
Q 37.796875 6.203125 41.984375 11.859375 
Q 46.1875 17.53125 46.1875 27.296875 
Q 46.1875 37.015625 41.984375 42.703125 
Q 37.796875 48.390625 30.609375 48.390625 
z
M 30.609375 56 
Q 42.328125 56 49.015625 48.375 
Q 55.71875 40.765625 55.71875 27.296875 
Q 55.71875 13.875 49.015625 6.21875 
Q 42.328125 -1.421875 30.609375 -1.421875 
Q 18.84375 -1.421875 12.171875 6.21875 
Q 5.515625 13.875 5.515625 27.296875 
Q 5.515625 40.765625 12.171875 48.375 
Q 18.84375 56 30.609375 56 
z
" id="DejaVuSans-111"/>
       <path d="M 9.421875 75.984375 
L 18.40625 75.984375 
L 18.40625 0 
L 9.421875 0 
z
" id="DejaVuSans-108"/>
       <path d="M 32.171875 -5.078125 
Q 28.375 -14.84375 24.75 -17.8125 
Q 21.140625 -20.796875 15.09375 -20.796875 
L 7.90625 -20.796875 
L 7.90625 -13.28125 
L 13.1875 -13.28125 
Q 16.890625 -13.28125 18.9375 -11.515625 
Q 21 -9.765625 23.484375 -3.21875 
L 25.09375 0.875 
L 2.984375 54.6875 
L 12.5 54.6875 
L 29.59375 11.921875 
L 46.6875 54.6875 
L 56.203125 54.6875 
z
" id="DejaVuSans-121"/>
       <path d="M 10.6875 12.40625 
L 21 12.40625 
L 21 0 
L 10.6875 0 
z
" id="DejaVuSans-46"/>
      </defs>
      <use xlink:href="#DejaVuSans-70"/>
      <use x="50.269531" xlink:href="#DejaVuSans-105"/>
      <use x="78.052734" xlink:href="#DejaVuSans-116"/>
      <use x="117.261719" xlink:href="#DejaVuSans-116"/>
      <use x="156.470703" xlink:href="#DejaVuSans-101"/>
      <use x="217.994141" xlink:href="#DejaVuSans-100"/>
      <use x="281.470703" xlink:href="#DejaVuSans-32"/>
      <use x="313.257812" xlink:href="#DejaVuSans-100"/>
      <use x="376.734375" xlink:href="#DejaVuSans-101"/>
      <use x="438.257812" xlink:href="#DejaVuSans-103"/>
      <use x="501.734375" xlink:href="#DejaVuSans-114"/>
      <use x="540.597656" xlink:href="#DejaVuSans-101"/>
      <use x="602.121094" xlink:href="#DejaVuSans-101"/>
      <use x="663.644531" xlink:href="#DejaVuSans-32"/>
      <use x="695.431641" xlink:href="#DejaVuSans-49"/>
      <use x="759.054688" xlink:href="#DejaVuSans-32"/>
      <use x="790.841797" xlink:href="#DejaVuSans-112"/>
      <use x="854.318359" xlink:href="#DejaVuSans-111"/>
      <use x="915.5" xlink:href="#DejaVuSans-108"/>
      <use x="943.283203" xlink:href="#DejaVuSans-121"/>
      <use x="988.212891" xlink:href="#DejaVuSans-46"/>
     </g>
    </g>
    <g id="line2d_7">
     <path d="M 74.517188 44.857013 
L 101.517188 44.857013 
" style="fill:none;stroke:#ff7f0e;stroke-linecap:square;stroke-width:4;"/>
    </g>
    <g id="line2d_8"/>
    <g id="text_2">
     <!-- Fitted degree 2 poly. -->
     <g transform="translate(110.517188 51.157013)scale(0.18 -0.18)">
      <defs>
       <path d="M 19.1875 8.296875 
L 53.609375 8.296875 
L 53.609375 0 
L 7.328125 0 
L 7.328125 8.296875 
Q 12.9375 14.109375 22.625 23.890625 
Q 32.328125 33.6875 34.8125 36.53125 
Q 39.546875 41.84375 41.421875 45.53125 
Q 43.3125 49.21875 43.3125 52.78125 
Q 43.3125 58.59375 39.234375 62.25 
Q 35.15625 65.921875 28.609375 65.921875 
Q 23.96875 65.921875 18.8125 64.3125 
Q 13.671875 62.703125 7.8125 59.421875 
L 7.8125 69.390625 
Q 13.765625 71.78125 18.9375 73 
Q 24.125 74.21875 28.421875 74.21875 
Q 39.75 74.21875 46.484375 68.546875 
Q 53.21875 62.890625 53.21875 53.421875 
Q 53.21875 48.921875 51.53125 44.890625 
Q 49.859375 40.875 45.40625 35.40625 
Q 44.1875 33.984375 37.640625 27.21875 
Q 31.109375 20.453125 19.1875 8.296875 
z
" id="DejaVuSans-50"/>
      </defs>
      <use xlink:href="#DejaVuSans-70"/>
      <use x="50.269531" xlink:href="#DejaVuSans-105"/>
      <use x="78.052734" xlink:href="#DejaVuSans-116"/>
      <use x="117.261719" xlink:href="#DejaVuSans-116"/>
      <use x="156.470703" xlink:href="#DejaVuSans-101"/>
      <use x="217.994141" xlink:href="#DejaVuSans-100"/>
      <use x="281.470703" xlink:href="#DejaVuSans-32"/>
      <use x="313.257812" xlink:href="#DejaVuSans-100"/>
      <use x="376.734375" xlink:href="#DejaVuSans-101"/>
      <use x="438.257812" xlink:href="#DejaVuSans-103"/>
      <use x="501.734375" xlink:href="#DejaVuSans-114"/>
      <use x="540.597656" xlink:href="#DejaVuSans-101"/>
      <use x="602.121094" xlink:href="#DejaVuSans-101"/>
      <use x="663.644531" xlink:href="#DejaVuSans-32"/>
      <use x="695.431641" xlink:href="#DejaVuSans-50"/>
      <use x="759.054688" xlink:href="#DejaVuSans-32"/>
      <use x="790.841797" xlink:href="#DejaVuSans-112"/>
      <use x="854.318359" xlink:href="#DejaVuSans-111"/>
      <use x="915.5" xlink:href="#DejaVuSans-108"/>
      <use x="943.283203" xlink:href="#DejaVuSans-121"/>
      <use x="988.212891" xlink:href="#DejaVuSans-46"/>
     </g>
    </g>
    <g id="line2d_9">
     <path d="M 74.517188 71.277638 
L 101.517188 71.277638 
" style="fill:none;stroke:#2ca02c;stroke-linecap:square;stroke-width:4;"/>
    </g>
    <g id="line2d_10"/>
    <g id="text_3">
     <!-- Fitted degree 5 poly. -->
     <g transform="translate(110.517188 77.577638)scale(0.18 -0.18)">
      <defs>
       <path d="M 10.796875 72.90625 
L 49.515625 72.90625 
L 49.515625 64.59375 
L 19.828125 64.59375 
L 19.828125 46.734375 
Q 21.96875 47.46875 24.109375 47.828125 
Q 26.265625 48.1875 28.421875 48.1875 
Q 40.625 48.1875 47.75 41.5 
Q 54.890625 34.8125 54.890625 23.390625 
Q 54.890625 11.625 47.5625 5.09375 
Q 40.234375 -1.421875 26.90625 -1.421875 
Q 22.3125 -1.421875 17.546875 -0.640625 
Q 12.796875 0.140625 7.71875 1.703125 
L 7.71875 11.625 
Q 12.109375 9.234375 16.796875 8.0625 
Q 21.484375 6.890625 26.703125 6.890625 
Q 35.15625 6.890625 40.078125 11.328125 
Q 45.015625 15.765625 45.015625 23.390625 
Q 45.015625 31 40.078125 35.4375 
Q 35.15625 39.890625 26.703125 39.890625 
Q 22.75 39.890625 18.8125 39.015625 
Q 14.890625 38.140625 10.796875 36.28125 
z
" id="DejaVuSans-53"/>
      </defs>
      <use xlink:href="#DejaVuSans-70"/>
      <use x="50.269531" xlink:href="#DejaVuSans-105"/>
      <use x="78.052734" xlink:href="#DejaVuSans-116"/>
      <use x="117.261719" xlink:href="#DejaVuSans-116"/>
      <use x="156.470703" xlink:href="#DejaVuSans-101"/>
      <use x="217.994141" xlink:href="#DejaVuSans-100"/>
      <use x="281.470703" xlink:href="#DejaVuSans-32"/>
      <use x="313.257812" xlink:href="#DejaVuSans-100"/>
      <use x="376.734375" xlink:href="#DejaVuSans-101"/>
      <use x="438.257812" xlink:href="#DejaVuSans-103"/>
      <use x="501.734375" xlink:href="#DejaVuSans-114"/>
      <use x="540.597656" xlink:href="#DejaVuSans-101"/>
      <use x="602.121094" xlink:href="#DejaVuSans-101"/>
      <use x="663.644531" xlink:href="#DejaVuSans-32"/>
      <use x="695.431641" xlink:href="#DejaVuSans-53"/>
      <use x="759.054688" xlink:href="#DejaVuSans-32"/>
      <use x="790.841797" xlink:href="#DejaVuSans-112"/>
      <use x="854.318359" xlink:href="#DejaVuSans-111"/>
      <use x="915.5" xlink:href="#DejaVuSans-108"/>
      <use x="943.283203" xlink:href="#DejaVuSans-121"/>
      <use x="988.212891" xlink:href="#DejaVuSans-46"/>
     </g>
    </g>
    <g id="line2d_11">
     <path d="M 74.517188 97.698263 
L 101.517188 97.698263 
" style="fill:none;stroke:#d62728;stroke-linecap:square;stroke-width:4;"/>
    </g>
    <g id="line2d_12"/>
    <g id="text_4">
     <!-- Fitted degree 9 poly. -->
     <g transform="translate(110.517188 103.998263)scale(0.18 -0.18)">
      <defs>
       <path d="M 10.984375 1.515625 
L 10.984375 10.5 
Q 14.703125 8.734375 18.5 7.8125 
Q 22.3125 6.890625 25.984375 6.890625 
Q 35.75 6.890625 40.890625 13.453125 
Q 46.046875 20.015625 46.78125 33.40625 
Q 43.953125 29.203125 39.59375 26.953125 
Q 35.25 24.703125 29.984375 24.703125 
Q 19.046875 24.703125 12.671875 31.3125 
Q 6.296875 37.9375 6.296875 49.421875 
Q 6.296875 60.640625 12.9375 67.421875 
Q 19.578125 74.21875 30.609375 74.21875 
Q 43.265625 74.21875 49.921875 64.515625 
Q 56.59375 54.828125 56.59375 36.375 
Q 56.59375 19.140625 48.40625 8.859375 
Q 40.234375 -1.421875 26.421875 -1.421875 
Q 22.703125 -1.421875 18.890625 -0.6875 
Q 15.09375 0.046875 10.984375 1.515625 
z
M 30.609375 32.421875 
Q 37.25 32.421875 41.125 36.953125 
Q 45.015625 41.5 45.015625 49.421875 
Q 45.015625 57.28125 41.125 61.84375 
Q 37.25 66.40625 30.609375 66.40625 
Q 23.96875 66.40625 20.09375 61.84375 
Q 16.21875 57.28125 16.21875 49.421875 
Q 16.21875 41.5 20.09375 36.953125 
Q 23.96875 32.421875 30.609375 32.421875 
z
" id="DejaVuSans-57"/>
      </defs>
      <use xlink:href="#DejaVuSans-70"/>
      <use x="50.269531" xlink:href="#DejaVuSans-105"/>
      <use x="78.052734" xlink:href="#DejaVuSans-116"/>
      <use x="117.261719" xlink:href="#DejaVuSans-116"/>
      <use x="156.470703" xlink:href="#DejaVuSans-101"/>
      <use x="217.994141" xlink:href="#DejaVuSans-100"/>
      <use x="281.470703" xlink:href="#DejaVuSans-32"/>
      <use x="313.257812" xlink:href="#DejaVuSans-100"/>
      <use x="376.734375" xlink:href="#DejaVuSans-101"/>
      <use x="438.257812" xlink:href="#DejaVuSans-103"/>
      <use x="501.734375" xlink:href="#DejaVuSans-114"/>
      <use x="540.597656" xlink:href="#DejaVuSans-101"/>
      <use x="602.121094" xlink:href="#DejaVuSans-101"/>
      <use x="663.644531" xlink:href="#DejaVuSans-32"/>
      <use x="695.431641" xlink:href="#DejaVuSans-57"/>
      <use x="759.054688" xlink:href="#DejaVuSans-32"/>
      <use x="790.841797" xlink:href="#DejaVuSans-112"/>
      <use x="854.318359" xlink:href="#DejaVuSans-111"/>
      <use x="915.5" xlink:href="#DejaVuSans-108"/>
      <use x="943.283203" xlink:href="#DejaVuSans-121"/>
      <use x="988.212891" xlink:href="#DejaVuSans-46"/>
     </g>
    </g>
   </g>
  </g>
 </g>
 <defs>
  <clipPath id="p80e3cc0fa6">
   <rect height="265.4208" width="368.64" x="0" y="11.0592"/>
  </clipPath>
 </defs>
</svg>
