<?xml version="1.0" encoding="utf-8" standalone="no"?>
<!DOCTYPE svg PUBLIC "-//W3C//DTD SVG 1.1//EN"
  "http://www.w3.org/Graphics/SVG/1.1/DTD/svg11.dtd">
<!-- Created with matplotlib (https://matplotlib.org/) -->
<svg height="176.4pt" version="1.1" viewBox="0 0 230.4 176.4" width="230.4pt" xmlns="http://www.w3.org/2000/svg" xmlns:xlink="http://www.w3.org/1999/xlink">
 <metadata>
  <rdf:RDF xmlns:cc="http://creativecommons.org/ns#" xmlns:dc="http://purl.org/dc/elements/1.1/" xmlns:rdf="http://www.w3.org/1999/02/22-rdf-syntax-ns#">
   <cc:Work>
    <dc:type rdf:resource="http://purl.org/dc/dcmitype/StillImage"/>
    <dc:date>2020-12-10T16:34:14.851416</dc:date>
    <dc:format>image/svg+xml</dc:format>
    <dc:creator>
     <cc:Agent>
      <dc:title>Matplotlib v3.3.3, https://matplotlib.org/</dc:title>
     </cc:Agent>
    </dc:creator>
   </cc:Work>
  </rdf:RDF>
 </metadata>
 <defs>
  <style type="text/css">*{stroke-linecap:butt;stroke-linejoin:round;}</style>
 </defs>
 <g id="figure_1">
  <g id="patch_1">
   <path d="M 0 176.4 
L 230.4 176.4 
L 230.4 0 
L 0 0 
z
" style="fill:none;"/>
  </g>
  <g id="axes_1">
   <g id="line2d_1">
    <path clip-path="url(#p230963f42b)" d="M 10.472727 87.112361 
L 12.58843 87.359164 
L 14.704132 87.605967 
L 16.819835 87.852769 
L 18.935537 88.099572 
L 21.05124 88.346375 
L 23.166942 88.593178 
L 25.282645 88.83998 
L 27.398347 89.086783 
L 29.51405 89.333586 
L 31.629752 89.580389 
L 33.745455 89.827191 
L 35.861157 90.073994 
L 37.97686 90.320797 
L 40.092562 90.567599 
L 42.208264 90.814402 
L 44.323967 91.061205 
L 46.439669 91.308008 
L 48.555372 91.55481 
L 50.671074 91.801613 
L 52.786777 92.048416 
L 54.902479 92.295219 
L 57.018182 92.542021 
L 59.133884 92.788824 
L 61.249587 93.035627 
L 63.365289 93.28243 
L 65.480992 93.529232 
L 67.596694 93.776035 
L 69.712397 94.022838 
L 71.828099 94.26964 
L 73.943802 94.516443 
L 76.059504 94.763246 
L 78.175207 95.010049 
L 80.290909 95.256851 
L 82.406612 95.503654 
L 84.522314 95.750457 
L 86.638017 95.99726 
L 88.753719 96.244062 
L 90.869421 96.490865 
L 92.985124 96.737668 
L 95.100826 96.984471 
L 97.216529 97.231273 
L 99.332231 97.478076 
L 101.447934 97.724879 
L 103.563636 97.971682 
L 105.679339 98.218484 
L 107.795041 98.465287 
L 109.910744 98.71209 
L 112.026446 98.958892 
L 114.142149 99.205695 
L 116.257851 99.452498 
L 118.373554 99.699301 
L 120.489256 99.946103 
L 122.604959 100.192906 
L 124.720661 100.439709 
L 126.836364 100.686512 
L 128.952066 100.933314 
L 131.067769 101.180117 
L 133.183471 101.42692 
L 135.299174 101.673723 
L 137.414876 101.920525 
L 139.530579 102.167328 
L 141.646281 102.414131 
L 143.761983 102.660933 
L 145.877686 102.907736 
L 147.993388 103.154539 
L 150.109091 103.401342 
L 152.224793 103.648144 
L 154.340496 103.894947 
L 156.456198 104.14175 
L 158.571901 104.388553 
L 160.687603 104.635355 
L 162.803306 104.882158 
L 164.919008 105.128961 
L 167.034711 105.375764 
L 169.150413 105.622566 
L 171.266116 105.869369 
L 173.381818 106.116172 
L 175.497521 106.362974 
L 177.613223 106.609777 
L 179.728926 106.85658 
L 181.844628 107.103383 
L 183.960331 107.350185 
L 186.076033 107.596988 
L 188.191736 107.843791 
L 190.307438 108.090594 
L 192.42314 108.337396 
L 194.538843 108.584199 
L 196.654545 108.831002 
L 198.770248 109.077805 
L 200.88595 109.324607 
L 203.001653 109.57141 
L 205.117355 109.818213 
L 207.233058 110.065015 
L 209.34876 110.311818 
L 211.464463 110.558621 
L 213.580165 110.805424 
L 215.695868 111.052226 
L 217.81157 111.299029 
L 219.927273 111.545832 
" style="fill:none;stroke:#1f77b4;stroke-linecap:square;stroke-opacity:0.5;stroke-width:3;"/>
   </g>
   <g id="line2d_2">
    <path clip-path="url(#p230963f42b)" d="M 10.472727 74.435396 
L 12.58843 74.920025 
L 14.704132 75.404653 
L 16.819835 75.889282 
L 18.935537 76.373911 
L 21.05124 76.858539 
L 23.166942 77.343168 
L 25.282645 77.827797 
L 27.398347 78.312425 
L 29.51405 78.797054 
L 31.629752 79.281682 
L 33.745455 79.766311 
L 35.861157 80.25094 
L 37.97686 80.735568 
L 40.092562 81.220197 
L 42.208264 81.704826 
L 44.323967 82.189454 
L 46.439669 82.674083 
L 48.555372 83.158711 
L 50.671074 83.64334 
L 52.786777 84.127969 
L 54.902479 84.612597 
L 57.018182 85.097226 
L 59.133884 85.581854 
L 61.249587 86.066483 
L 63.365289 86.551112 
L 65.480992 87.03574 
L 67.596694 87.520369 
L 69.712397 88.004998 
L 71.828099 88.489626 
L 73.943802 88.974255 
L 76.059504 89.458883 
L 78.175207 89.943512 
L 80.290909 90.428141 
L 82.406612 90.912769 
L 84.522314 91.397398 
L 86.638017 91.882027 
L 88.753719 92.366655 
L 90.869421 92.851284 
L 92.985124 93.335912 
L 95.100826 93.820541 
L 97.216529 94.30517 
L 99.332231 94.789798 
L 101.447934 95.274427 
L 103.563636 95.759055 
L 105.679339 96.243684 
L 107.795041 96.728313 
L 109.910744 97.212941 
L 112.026446 97.69757 
L 114.142149 98.182199 
L 116.257851 98.666827 
L 118.373554 99.151456 
L 120.489256 99.636084 
L 122.604959 100.120713 
L 124.720661 100.605342 
L 126.836364 101.08997 
L 128.952066 101.574599 
L 131.067769 102.059228 
L 133.183471 102.543856 
L 135.299174 103.028485 
L 137.414876 103.513113 
L 139.530579 103.997742 
L 141.646281 104.482371 
L 143.761983 104.966999 
L 145.877686 105.451628 
L 147.993388 105.936256 
L 150.109091 106.420885 
L 152.224793 106.905514 
L 154.340496 107.390142 
L 156.456198 107.874771 
L 158.571901 108.3594 
L 160.687603 108.844028 
L 162.803306 109.328657 
L 164.919008 109.813285 
L 167.034711 110.297914 
L 169.150413 110.782543 
L 171.266116 111.267171 
L 173.381818 111.7518 
L 175.497521 112.236429 
L 177.613223 112.721057 
L 179.728926 113.205686 
L 181.844628 113.690314 
L 183.960331 114.174943 
L 186.076033 114.659572 
L 188.191736 115.1442 
L 190.307438 115.628829 
L 192.42314 116.113457 
L 194.538843 116.598086 
L 196.654545 117.082715 
L 198.770248 117.567343 
L 200.88595 118.051972 
L 203.001653 118.536601 
L 205.117355 119.021229 
L 207.233058 119.505858 
L 209.34876 119.990486 
L 211.464463 120.475115 
L 213.580165 120.959744 
L 215.695868 121.444372 
L 217.81157 121.929001 
L 219.927273 122.41363 
" style="fill:none;stroke:#1f77b4;stroke-linecap:square;stroke-opacity:0.5;stroke-width:3;"/>
   </g>
   <g id="line2d_3">
    <path clip-path="url(#p230963f42b)" d="M 10.472727 88.831653 
L 12.58843 89.076246 
L 14.704132 89.320838 
L 16.819835 89.565431 
L 18.935537 89.810023 
L 21.05124 90.054615 
L 23.166942 90.299208 
L 25.282645 90.5438 
L 27.398347 90.788393 
L 29.51405 91.032985 
L 31.629752 91.277578 
L 33.745455 91.52217 
L 35.861157 91.766763 
L 37.97686 92.011355 
L 40.092562 92.255947 
L 42.208264 92.50054 
L 44.323967 92.745132 
L 46.439669 92.989725 
L 48.555372 93.234317 
L 50.671074 93.47891 
L 52.786777 93.723502 
L 54.902479 93.968094 
L 57.018182 94.212687 
L 59.133884 94.457279 
L 61.249587 94.701872 
L 63.365289 94.946464 
L 65.480992 95.191057 
L 67.596694 95.435649 
L 69.712397 95.680242 
L 71.828099 95.924834 
L 73.943802 96.169426 
L 76.059504 96.414019 
L 78.175207 96.658611 
L 80.290909 96.903204 
L 82.406612 97.147796 
L 84.522314 97.392389 
L 86.638017 97.636981 
L 88.753719 97.881574 
L 90.869421 98.126166 
L 92.985124 98.370758 
L 95.100826 98.615351 
L 97.216529 98.859943 
L 99.332231 99.104536 
L 101.447934 99.349128 
L 103.563636 99.593721 
L 105.679339 99.838313 
L 107.795041 100.082905 
L 109.910744 100.327498 
L 112.026446 100.57209 
L 114.142149 100.816683 
L 116.257851 101.061275 
L 118.373554 101.305868 
L 120.489256 101.55046 
L 122.604959 101.795053 
L 124.720661 102.039645 
L 126.836364 102.284237 
L 128.952066 102.52883 
L 131.067769 102.773422 
L 133.183471 103.018015 
L 135.299174 103.262607 
L 137.414876 103.5072 
L 139.530579 103.751792 
L 141.646281 103.996385 
L 143.761983 104.240977 
L 145.877686 104.485569 
L 147.993388 104.730162 
L 150.109091 104.974754 
L 152.224793 105.219347 
L 154.340496 105.463939 
L 156.456198 105.708532 
L 158.571901 105.953124 
L 160.687603 106.197716 
L 162.803306 106.442309 
L 164.919008 106.686901 
L 167.034711 106.931494 
L 169.150413 107.176086 
L 171.266116 107.420679 
L 173.381818 107.665271 
L 175.497521 107.909864 
L 177.613223 108.154456 
L 179.728926 108.399048 
L 181.844628 108.643641 
L 183.960331 108.888233 
L 186.076033 109.132826 
L 188.191736 109.377418 
L 190.307438 109.622011 
L 192.42314 109.866603 
L 194.538843 110.111195 
L 196.654545 110.355788 
L 198.770248 110.60038 
L 200.88595 110.844973 
L 203.001653 111.089565 
L 205.117355 111.334158 
L 207.233058 111.57875 
L 209.34876 111.823343 
L 211.464463 112.067935 
L 213.580165 112.312527 
L 215.695868 112.55712 
L 217.81157 112.801712 
L 219.927273 113.046305 
" style="fill:none;stroke:#1f77b4;stroke-linecap:square;stroke-opacity:0.5;stroke-width:3;"/>
   </g>
   <g id="line2d_4">
    <path clip-path="url(#p230963f42b)" d="M 10.472727 85.521888 
L 12.58843 85.982588 
L 14.704132 86.443288 
L 16.819835 86.903988 
L 18.935537 87.364688 
L 21.05124 87.825388 
L 23.166942 88.286088 
L 25.282645 88.746788 
L 27.398347 89.207488 
L 29.51405 89.668188 
L 31.629752 90.128888 
L 33.745455 90.589588 
L 35.861157 91.050288 
L 37.97686 91.510988 
L 40.092562 91.971688 
L 42.208264 92.432388 
L 44.323967 92.893088 
L 46.439669 93.353788 
L 48.555372 93.814488 
L 50.671074 94.275188 
L 52.786777 94.735888 
L 54.902479 95.196588 
L 57.018182 95.657288 
L 59.133884 96.117988 
L 61.249587 96.578688 
L 63.365289 97.039388 
L 65.480992 97.500088 
L 67.596694 97.960788 
L 69.712397 98.421488 
L 71.828099 98.882188 
L 73.943802 99.342888 
L 76.059504 99.803588 
L 78.175207 100.264288 
L 80.290909 100.724989 
L 82.406612 101.185689 
L 84.522314 101.646389 
L 86.638017 102.107089 
L 88.753719 102.567789 
L 90.869421 103.028489 
L 92.985124 103.489189 
L 95.100826 103.949889 
L 97.216529 104.410589 
L 99.332231 104.871289 
L 101.447934 105.331989 
L 103.563636 105.792689 
L 105.679339 106.253389 
L 107.795041 106.714089 
L 109.910744 107.174789 
L 112.026446 107.635489 
L 114.142149 108.096189 
L 116.257851 108.556889 
L 118.373554 109.017589 
L 120.489256 109.478289 
L 122.604959 109.938989 
L 124.720661 110.399689 
L 126.836364 110.860389 
L 128.952066 111.321089 
L 131.067769 111.781789 
L 133.183471 112.242489 
L 135.299174 112.703189 
L 137.414876 113.163889 
L 139.530579 113.624589 
L 141.646281 114.085289 
L 143.761983 114.545989 
L 145.877686 115.006689 
L 147.993388 115.467389 
L 150.109091 115.928089 
L 152.224793 116.388789 
L 154.340496 116.849489 
L 156.456198 117.310189 
L 158.571901 117.770889 
L 160.687603 118.231589 
L 162.803306 118.692289 
L 164.919008 119.152989 
L 167.034711 119.613689 
L 169.150413 120.074389 
L 171.266116 120.535089 
L 173.381818 120.995789 
L 175.497521 121.456489 
L 177.613223 121.917189 
L 179.728926 122.377889 
L 181.844628 122.838589 
L 183.960331 123.299289 
L 186.076033 123.759989 
L 188.191736 124.220689 
L 190.307438 124.681389 
L 192.42314 125.142089 
L 194.538843 125.602789 
L 196.654545 126.063489 
L 198.770248 126.524189 
L 200.88595 126.984889 
L 203.001653 127.445589 
L 205.117355 127.906289 
L 207.233058 128.366989 
L 209.34876 128.827689 
L 211.464463 129.288389 
L 213.580165 129.749089 
L 215.695868 130.209789 
L 217.81157 130.670489 
L 219.927273 131.131189 
" style="fill:none;stroke:#1f77b4;stroke-linecap:square;stroke-opacity:0.5;stroke-width:3;"/>
   </g>
   <g id="line2d_5">
    <path clip-path="url(#p230963f42b)" d="M 10.472727 81.634361 
L 12.58843 81.830835 
L 14.704132 82.027309 
L 16.819835 82.223783 
L 18.935537 82.420257 
L 21.05124 82.616731 
L 23.166942 82.813205 
L 25.282645 83.009678 
L 27.398347 83.206152 
L 29.51405 83.402626 
L 31.629752 83.5991 
L 33.745455 83.795574 
L 35.861157 83.992048 
L 37.97686 84.188522 
L 40.092562 84.384996 
L 42.208264 84.58147 
L 44.323967 84.777944 
L 46.439669 84.974418 
L 48.555372 85.170892 
L 50.671074 85.367366 
L 52.786777 85.56384 
L 54.902479 85.760314 
L 57.018182 85.956788 
L 59.133884 86.153262 
L 61.249587 86.349736 
L 63.365289 86.54621 
L 65.480992 86.742684 
L 67.596694 86.939158 
L 69.712397 87.135632 
L 71.828099 87.332106 
L 73.943802 87.52858 
L 76.059504 87.725054 
L 78.175207 87.921528 
L 80.290909 88.118002 
L 82.406612 88.314476 
L 84.522314 88.51095 
L 86.638017 88.707424 
L 88.753719 88.903898 
L 90.869421 89.100372 
L 92.985124 89.296846 
L 95.100826 89.49332 
L 97.216529 89.689794 
L 99.332231 89.886268 
L 101.447934 90.082742 
L 103.563636 90.279216 
L 105.679339 90.47569 
L 107.795041 90.672164 
L 109.910744 90.868638 
L 112.026446 91.065112 
L 114.142149 91.261586 
L 116.257851 91.45806 
L 118.373554 91.654534 
L 120.489256 91.851008 
L 122.604959 92.047482 
L 124.720661 92.243956 
L 126.836364 92.44043 
L 128.952066 92.636904 
L 131.067769 92.833378 
L 133.183471 93.029852 
L 135.299174 93.226326 
L 137.414876 93.4228 
L 139.530579 93.619274 
L 141.646281 93.815748 
L 143.761983 94.012222 
L 145.877686 94.208696 
L 147.993388 94.40517 
L 150.109091 94.601644 
L 152.224793 94.798118 
L 154.340496 94.994592 
L 156.456198 95.191066 
L 158.571901 95.38754 
L 160.687603 95.584014 
L 162.803306 95.780488 
L 164.919008 95.976962 
L 167.034711 96.173436 
L 169.150413 96.36991 
L 171.266116 96.566384 
L 173.381818 96.762858 
L 175.497521 96.959332 
L 177.613223 97.155806 
L 179.728926 97.35228 
L 181.844628 97.548754 
L 183.960331 97.745228 
L 186.076033 97.941702 
L 188.191736 98.138176 
L 190.307438 98.33465 
L 192.42314 98.531124 
L 194.538843 98.727598 
L 196.654545 98.924072 
L 198.770248 99.120546 
L 200.88595 99.31702 
L 203.001653 99.513494 
L 205.117355 99.709968 
L 207.233058 99.906442 
L 209.34876 100.102916 
L 211.464463 100.29939 
L 213.580165 100.495864 
L 215.695868 100.692338 
L 217.81157 100.888812 
L 219.927273 101.085286 
" style="fill:none;stroke:#1f77b4;stroke-linecap:square;stroke-opacity:0.5;stroke-width:3;"/>
   </g>
   <g id="line2d_6">
    <path clip-path="url(#p230963f42b)" d="M 10.472727 90.461927 
L 12.58843 90.6198 
L 14.704132 90.777673 
L 16.819835 90.935546 
L 18.935537 91.093419 
L 21.05124 91.251292 
L 23.166942 91.409165 
L 25.282645 91.567038 
L 27.398347 91.724911 
L 29.51405 91.882784 
L 31.629752 92.040657 
L 33.745455 92.19853 
L 35.861157 92.356403 
L 37.97686 92.514276 
L 40.092562 92.672149 
L 42.208264 92.830022 
L 44.323967 92.987895 
L 46.439669 93.145768 
L 48.555372 93.303641 
L 50.671074 93.461514 
L 52.786777 93.619387 
L 54.902479 93.77726 
L 57.018182 93.935133 
L 59.133884 94.093006 
L 61.249587 94.250879 
L 63.365289 94.408752 
L 65.480992 94.566625 
L 67.596694 94.724498 
L 69.712397 94.882371 
L 71.828099 95.040244 
L 73.943802 95.198117 
L 76.059504 95.35599 
L 78.175207 95.513863 
L 80.290909 95.671736 
L 82.406612 95.829609 
L 84.522314 95.987482 
L 86.638017 96.145355 
L 88.753719 96.303228 
L 90.869421 96.461101 
L 92.985124 96.618974 
L 95.100826 96.776847 
L 97.216529 96.93472 
L 99.332231 97.092593 
L 101.447934 97.250466 
L 103.563636 97.40834 
L 105.679339 97.566213 
L 107.795041 97.724086 
L 109.910744 97.881959 
L 112.026446 98.039832 
L 114.142149 98.197705 
L 116.257851 98.355578 
L 118.373554 98.513451 
L 120.489256 98.671324 
L 122.604959 98.829197 
L 124.720661 98.98707 
L 126.836364 99.144943 
L 128.952066 99.302816 
L 131.067769 99.460689 
L 133.183471 99.618562 
L 135.299174 99.776435 
L 137.414876 99.934308 
L 139.530579 100.092181 
L 141.646281 100.250054 
L 143.761983 100.407927 
L 145.877686 100.5658 
L 147.993388 100.723673 
L 150.109091 100.881546 
L 152.224793 101.039419 
L 154.340496 101.197292 
L 156.456198 101.355165 
L 158.571901 101.513038 
L 160.687603 101.670911 
L 162.803306 101.828784 
L 164.919008 101.986657 
L 167.034711 102.14453 
L 169.150413 102.302403 
L 171.266116 102.460276 
L 173.381818 102.618149 
L 175.497521 102.776022 
L 177.613223 102.933895 
L 179.728926 103.091768 
L 181.844628 103.249641 
L 183.960331 103.407514 
L 186.076033 103.565387 
L 188.191736 103.72326 
L 190.307438 103.881133 
L 192.42314 104.039006 
L 194.538843 104.196879 
L 196.654545 104.354752 
L 198.770248 104.512625 
L 200.88595 104.670498 
L 203.001653 104.828371 
L 205.117355 104.986244 
L 207.233058 105.144117 
L 209.34876 105.30199 
L 211.464463 105.459863 
L 213.580165 105.617736 
L 215.695868 105.775609 
L 217.81157 105.933482 
L 219.927273 106.091355 
" style="fill:none;stroke:#1f77b4;stroke-linecap:square;stroke-opacity:0.5;stroke-width:3;"/>
   </g>
   <g id="line2d_7">
    <path clip-path="url(#p230963f42b)" d="M 10.472727 98.82885 
L 12.58843 98.886612 
L 14.704132 98.944374 
L 16.819835 99.002137 
L 18.935537 99.059899 
L 21.05124 99.117662 
L 23.166942 99.175424 
L 25.282645 99.233187 
L 27.398347 99.290949 
L 29.51405 99.348711 
L 31.629752 99.406474 
L 33.745455 99.464236 
L 35.861157 99.521999 
L 37.97686 99.579761 
L 40.092562 99.637524 
L 42.208264 99.695286 
L 44.323967 99.753048 
L 46.439669 99.810811 
L 48.555372 99.868573 
L 50.671074 99.926336 
L 52.786777 99.984098 
L 54.902479 100.041861 
L 57.018182 100.099623 
L 59.133884 100.157385 
L 61.249587 100.215148 
L 63.365289 100.27291 
L 65.480992 100.330673 
L 67.596694 100.388435 
L 69.712397 100.446198 
L 71.828099 100.50396 
L 73.943802 100.561722 
L 76.059504 100.619485 
L 78.175207 100.677247 
L 80.290909 100.73501 
L 82.406612 100.792772 
L 84.522314 100.850534 
L 86.638017 100.908297 
L 88.753719 100.966059 
L 90.869421 101.023822 
L 92.985124 101.081584 
L 95.100826 101.139347 
L 97.216529 101.197109 
L 99.332231 101.254871 
L 101.447934 101.312634 
L 103.563636 101.370396 
L 105.679339 101.428159 
L 107.795041 101.485921 
L 109.910744 101.543684 
L 112.026446 101.601446 
L 114.142149 101.659208 
L 116.257851 101.716971 
L 118.373554 101.774733 
L 120.489256 101.832496 
L 122.604959 101.890258 
L 124.720661 101.948021 
L 126.836364 102.005783 
L 128.952066 102.063545 
L 131.067769 102.121308 
L 133.183471 102.17907 
L 135.299174 102.236833 
L 137.414876 102.294595 
L 139.530579 102.352357 
L 141.646281 102.41012 
L 143.761983 102.467882 
L 145.877686 102.525645 
L 147.993388 102.583407 
L 150.109091 102.64117 
L 152.224793 102.698932 
L 154.340496 102.756694 
L 156.456198 102.814457 
L 158.571901 102.872219 
L 160.687603 102.929982 
L 162.803306 102.987744 
L 164.919008 103.045507 
L 167.034711 103.103269 
L 169.150413 103.161031 
L 171.266116 103.218794 
L 173.381818 103.276556 
L 175.497521 103.334319 
L 177.613223 103.392081 
L 179.728926 103.449844 
L 181.844628 103.507606 
L 183.960331 103.565368 
L 186.076033 103.623131 
L 188.191736 103.680893 
L 190.307438 103.738656 
L 192.42314 103.796418 
L 194.538843 103.854181 
L 196.654545 103.911943 
L 198.770248 103.969705 
L 200.88595 104.027468 
L 203.001653 104.08523 
L 205.117355 104.142993 
L 207.233058 104.200755 
L 209.34876 104.258517 
L 211.464463 104.31628 
L 213.580165 104.374042 
L 215.695868 104.431805 
L 217.81157 104.489567 
L 219.927273 104.54733 
" style="fill:none;stroke:#1f77b4;stroke-linecap:square;stroke-opacity:0.5;stroke-width:3;"/>
   </g>
   <g id="line2d_8">
    <path clip-path="url(#p230963f42b)" d="M 10.472727 80.865778 
L 12.58843 81.267829 
L 14.704132 81.66988 
L 16.819835 82.07193 
L 18.935537 82.473981 
L 21.05124 82.876031 
L 23.166942 83.278082 
L 25.282645 83.680132 
L 27.398347 84.082183 
L 29.51405 84.484233 
L 31.629752 84.886284 
L 33.745455 85.288334 
L 35.861157 85.690385 
L 37.97686 86.092435 
L 40.092562 86.494486 
L 42.208264 86.896536 
L 44.323967 87.298587 
L 46.439669 87.700637 
L 48.555372 88.102688 
L 50.671074 88.504739 
L 52.786777 88.906789 
L 54.902479 89.30884 
L 57.018182 89.71089 
L 59.133884 90.112941 
L 61.249587 90.514991 
L 63.365289 90.917042 
L 65.480992 91.319092 
L 67.596694 91.721143 
L 69.712397 92.123193 
L 71.828099 92.525244 
L 73.943802 92.927294 
L 76.059504 93.329345 
L 78.175207 93.731395 
L 80.290909 94.133446 
L 82.406612 94.535497 
L 84.522314 94.937547 
L 86.638017 95.339598 
L 88.753719 95.741648 
L 90.869421 96.143699 
L 92.985124 96.545749 
L 95.100826 96.9478 
L 97.216529 97.34985 
L 99.332231 97.751901 
L 101.447934 98.153951 
L 103.563636 98.556002 
L 105.679339 98.958052 
L 107.795041 99.360103 
L 109.910744 99.762153 
L 112.026446 100.164204 
L 114.142149 100.566255 
L 116.257851 100.968305 
L 118.373554 101.370356 
L 120.489256 101.772406 
L 122.604959 102.174457 
L 124.720661 102.576507 
L 126.836364 102.978558 
L 128.952066 103.380608 
L 131.067769 103.782659 
L 133.183471 104.184709 
L 135.299174 104.58676 
L 137.414876 104.98881 
L 139.530579 105.390861 
L 141.646281 105.792911 
L 143.761983 106.194962 
L 145.877686 106.597013 
L 147.993388 106.999063 
L 150.109091 107.401114 
L 152.224793 107.803164 
L 154.340496 108.205215 
L 156.456198 108.607265 
L 158.571901 109.009316 
L 160.687603 109.411366 
L 162.803306 109.813417 
L 164.919008 110.215467 
L 167.034711 110.617518 
L 169.150413 111.019568 
L 171.266116 111.421619 
L 173.381818 111.823669 
L 175.497521 112.22572 
L 177.613223 112.62777 
L 179.728926 113.029821 
L 181.844628 113.431872 
L 183.960331 113.833922 
L 186.076033 114.235973 
L 188.191736 114.638023 
L 190.307438 115.040074 
L 192.42314 115.442124 
L 194.538843 115.844175 
L 196.654545 116.246225 
L 198.770248 116.648276 
L 200.88595 117.050326 
L 203.001653 117.452377 
L 205.117355 117.854427 
L 207.233058 118.256478 
L 209.34876 118.658528 
L 211.464463 119.060579 
L 213.580165 119.46263 
L 215.695868 119.86468 
L 217.81157 120.266731 
L 219.927273 120.668781 
" style="fill:none;stroke:#1f77b4;stroke-linecap:square;stroke-opacity:0.5;stroke-width:3;"/>
   </g>
   <g id="line2d_9">
    <path clip-path="url(#p230963f42b)" d="M 10.472727 96.46641 
L 12.58843 96.516976 
L 14.704132 96.567542 
L 16.819835 96.618109 
L 18.935537 96.668675 
L 21.05124 96.719242 
L 23.166942 96.769808 
L 25.282645 96.820374 
L 27.398347 96.870941 
L 29.51405 96.921507 
L 31.629752 96.972074 
L 33.745455 97.02264 
L 35.861157 97.073207 
L 37.97686 97.123773 
L 40.092562 97.174339 
L 42.208264 97.224906 
L 44.323967 97.275472 
L 46.439669 97.326039 
L 48.555372 97.376605 
L 50.671074 97.427171 
L 52.786777 97.477738 
L 54.902479 97.528304 
L 57.018182 97.578871 
L 59.133884 97.629437 
L 61.249587 97.680004 
L 63.365289 97.73057 
L 65.480992 97.781136 
L 67.596694 97.831703 
L 69.712397 97.882269 
L 71.828099 97.932836 
L 73.943802 97.983402 
L 76.059504 98.033968 
L 78.175207 98.084535 
L 80.290909 98.135101 
L 82.406612 98.185668 
L 84.522314 98.236234 
L 86.638017 98.2868 
L 88.753719 98.337367 
L 90.869421 98.387933 
L 92.985124 98.4385 
L 95.100826 98.489066 
L 97.216529 98.539633 
L 99.332231 98.590199 
L 101.447934 98.640765 
L 103.563636 98.691332 
L 105.679339 98.741898 
L 107.795041 98.792465 
L 109.910744 98.843031 
L 112.026446 98.893597 
L 114.142149 98.944164 
L 116.257851 98.99473 
L 118.373554 99.045297 
L 120.489256 99.095863 
L 122.604959 99.14643 
L 124.720661 99.196996 
L 126.836364 99.247562 
L 128.952066 99.298129 
L 131.067769 99.348695 
L 133.183471 99.399262 
L 135.299174 99.449828 
L 137.414876 99.500394 
L 139.530579 99.550961 
L 141.646281 99.601527 
L 143.761983 99.652094 
L 145.877686 99.70266 
L 147.993388 99.753227 
L 150.109091 99.803793 
L 152.224793 99.854359 
L 154.340496 99.904926 
L 156.456198 99.955492 
L 158.571901 100.006059 
L 160.687603 100.056625 
L 162.803306 100.107191 
L 164.919008 100.157758 
L 167.034711 100.208324 
L 169.150413 100.258891 
L 171.266116 100.309457 
L 173.381818 100.360024 
L 175.497521 100.41059 
L 177.613223 100.461156 
L 179.728926 100.511723 
L 181.844628 100.562289 
L 183.960331 100.612856 
L 186.076033 100.663422 
L 188.191736 100.713988 
L 190.307438 100.764555 
L 192.42314 100.815121 
L 194.538843 100.865688 
L 196.654545 100.916254 
L 198.770248 100.96682 
L 200.88595 101.017387 
L 203.001653 101.067953 
L 205.117355 101.11852 
L 207.233058 101.169086 
L 209.34876 101.219653 
L 211.464463 101.270219 
L 213.580165 101.320785 
L 215.695868 101.371352 
L 217.81157 101.421918 
L 219.927273 101.472485 
" style="fill:none;stroke:#1f77b4;stroke-linecap:square;stroke-opacity:0.5;stroke-width:3;"/>
   </g>
   <g id="line2d_10">
    <path clip-path="url(#p230963f42b)" d="M 10.472727 88.680317 
L 12.58843 88.833037 
L 14.704132 88.985756 
L 16.819835 89.138475 
L 18.935537 89.291195 
L 21.05124 89.443914 
L 23.166942 89.596634 
L 25.282645 89.749353 
L 27.398347 89.902072 
L 29.51405 90.054792 
L 31.629752 90.207511 
L 33.745455 90.360231 
L 35.861157 90.51295 
L 37.97686 90.66567 
L 40.092562 90.818389 
L 42.208264 90.971108 
L 44.323967 91.123828 
L 46.439669 91.276547 
L 48.555372 91.429267 
L 50.671074 91.581986 
L 52.786777 91.734705 
L 54.902479 91.887425 
L 57.018182 92.040144 
L 59.133884 92.192864 
L 61.249587 92.345583 
L 63.365289 92.498303 
L 65.480992 92.651022 
L 67.596694 92.803741 
L 69.712397 92.956461 
L 71.828099 93.10918 
L 73.943802 93.2619 
L 76.059504 93.414619 
L 78.175207 93.567338 
L 80.290909 93.720058 
L 82.406612 93.872777 
L 84.522314 94.025497 
L 86.638017 94.178216 
L 88.753719 94.330936 
L 90.869421 94.483655 
L 92.985124 94.636374 
L 95.100826 94.789094 
L 97.216529 94.941813 
L 99.332231 95.094533 
L 101.447934 95.247252 
L 103.563636 95.399971 
L 105.679339 95.552691 
L 107.795041 95.70541 
L 109.910744 95.85813 
L 112.026446 96.010849 
L 114.142149 96.163569 
L 116.257851 96.316288 
L 118.373554 96.469007 
L 120.489256 96.621727 
L 122.604959 96.774446 
L 124.720661 96.927166 
L 126.836364 97.079885 
L 128.952066 97.232604 
L 131.067769 97.385324 
L 133.183471 97.538043 
L 135.299174 97.690763 
L 137.414876 97.843482 
L 139.530579 97.996202 
L 141.646281 98.148921 
L 143.761983 98.30164 
L 145.877686 98.45436 
L 147.993388 98.607079 
L 150.109091 98.759799 
L 152.224793 98.912518 
L 154.340496 99.065237 
L 156.456198 99.217957 
L 158.571901 99.370676 
L 160.687603 99.523396 
L 162.803306 99.676115 
L 164.919008 99.828835 
L 167.034711 99.981554 
L 169.150413 100.134273 
L 171.266116 100.286993 
L 173.381818 100.439712 
L 175.497521 100.592432 
L 177.613223 100.745151 
L 179.728926 100.89787 
L 181.844628 101.05059 
L 183.960331 101.203309 
L 186.076033 101.356029 
L 188.191736 101.508748 
L 190.307438 101.661468 
L 192.42314 101.814187 
L 194.538843 101.966906 
L 196.654545 102.119626 
L 198.770248 102.272345 
L 200.88595 102.425065 
L 203.001653 102.577784 
L 205.117355 102.730503 
L 207.233058 102.883223 
L 209.34876 103.035942 
L 211.464463 103.188662 
L 213.580165 103.341381 
L 215.695868 103.494101 
L 217.81157 103.64682 
L 219.927273 103.799539 
" style="fill:none;stroke:#1f77b4;stroke-linecap:square;stroke-opacity:0.5;stroke-width:3;"/>
   </g>
   <g id="line2d_11">
    <path clip-path="url(#p230963f42b)" d="M 10.472727 23.52 
L 12.58843 31.270273 
L 14.704132 38.24125 
L 16.819835 44.522842 
L 18.935537 50.194947 
L 21.05124 55.328427 
L 23.166942 59.986017 
L 25.282645 64.223141 
L 27.398347 68.088677 
L 29.51405 71.625638 
L 31.629752 74.87181 
L 33.745455 77.860315 
L 35.861157 80.620135 
L 37.97686 83.17658 
L 40.092562 85.551713 
L 42.208264 87.764729 
L 44.323967 89.832301 
L 46.439669 91.768884 
L 48.555372 93.586995 
L 50.671074 95.297451 
L 52.786777 96.909591 
L 54.902479 98.431465 
L 57.018182 99.870006 
L 59.133884 101.231178 
L 61.249587 102.520106 
L 63.365289 103.741189 
L 65.480992 104.898202 
L 67.596694 105.994379 
L 69.712397 107.032489 
L 71.828099 108.014898 
L 73.943802 108.943623 
L 76.059504 109.820382 
L 78.175207 110.64663 
L 80.290909 111.423595 
L 82.406612 112.152306 
L 84.522314 112.833616 
L 86.638017 113.468225 
L 88.753719 114.056697 
L 90.869421 114.599475 
L 92.985124 115.096895 
L 95.100826 115.549197 
L 97.216529 115.956536 
L 99.332231 116.318991 
L 101.447934 116.636575 
L 103.563636 116.909245 
L 105.679339 117.136905 
L 107.795041 117.319418 
L 109.910744 117.456615 
L 112.026446 117.548296 
L 114.142149 117.594245 
L 116.257851 117.594236 
L 118.373554 117.548035 
L 120.489256 117.455415 
L 122.604959 117.316159 
L 124.720661 117.13007 
L 126.836364 116.896977 
L 128.952066 116.616743 
L 131.067769 116.289274 
L 133.183471 115.914524 
L 135.299174 115.492507 
L 137.414876 115.023303 
L 139.530579 114.507067 
L 141.646281 113.944038 
L 143.761983 113.334552 
L 145.877686 112.679053 
L 147.993388 111.978104 
L 150.109091 111.232405 
L 152.224793 110.44281 
L 154.340496 109.610347 
L 156.456198 108.736245 
L 158.571901 107.821958 
L 160.687603 106.869204 
L 162.803306 105.880001 
L 164.919008 104.856714 
L 167.034711 103.802113 
L 169.150413 102.719431 
L 171.266116 101.612443 
L 173.381818 100.485549 
L 175.497521 99.343874 
L 177.613223 98.193381 
L 179.728926 97.041003 
L 181.844628 95.89479 
L 183.960331 94.764082 
L 186.076033 93.659695 
L 188.191736 92.594147 
L 190.307438 91.581892 
L 192.42314 90.639603 
L 194.538843 89.786477 
L 196.654545 89.044574 
L 198.770248 88.439206 
L 200.88595 87.999353 
L 203.001653 87.75814 
L 205.117355 87.753351 
L 207.233058 88.028 
L 209.34876 88.630963 
L 211.464463 89.617667 
L 213.580165 91.050844 
L 215.695868 93.001358 
L 217.81157 95.549106 
L 219.927273 98.784 
" style="fill:none;stroke:#000000;stroke-dasharray:11.1,4.8;stroke-dashoffset:0;stroke-width:3;"/>
   </g>
   <g id="legend_1">
    <g id="line2d_12">
     <path d="M 77.5 14.872813 
L 116.5 14.872813 
" style="fill:none;stroke:#1f77b4;stroke-linecap:square;stroke-opacity:0.5;stroke-width:3;"/>
    </g>
    <g id="line2d_13"/>
    <g id="text_1">
     <!-- $\hat{f}$ -->
     <g transform="translate(129.5 23.972813)scale(0.26 -0.26)">
      <defs>
       <path d="M -28.609375 79.984375 
L -21.390625 79.984375 
L -9.421875 61.625 
L -16.21875 61.625 
L -25 73.578125 
L -33.796875 61.625 
L -40.578125 61.625 
z
M -25 56 
z
" id="DejaVuSans-770"/>
       <path d="M 47.796875 75.984375 
L 46.390625 68.5 
L 37.796875 68.5 
Q 32.90625 68.5 30.6875 66.578125 
Q 28.46875 64.65625 27.390625 59.515625 
L 26.421875 54.6875 
L 41.21875 54.6875 
L 39.890625 47.703125 
L 25.09375 47.703125 
L 15.828125 0 
L 6.78125 0 
L 16.109375 47.703125 
L 7.515625 47.703125 
L 8.796875 54.6875 
L 17.390625 54.6875 
L 18.109375 58.5 
Q 19.96875 68.171875 24.625 72.078125 
Q 29.296875 75.984375 39.3125 75.984375 
z
" id="DejaVuSans-Oblique-102"/>
      </defs>
      <use transform="translate(47.379395 33.015625)" xlink:href="#DejaVuSans-770"/>
      <use transform="translate(0 0.53125)" xlink:href="#DejaVuSans-Oblique-102"/>
     </g>
    </g>
    <g id="line2d_14">
     <path d="M 77.5 50.435938 
L 116.5 50.435938 
" style="fill:none;stroke:#000000;stroke-dasharray:11.1,4.8;stroke-dashoffset:0;stroke-width:3;"/>
    </g>
    <g id="line2d_15"/>
    <g id="text_2">
     <!-- $f^{\star}$ -->
     <g transform="translate(129.5 59.535938)scale(0.26 -0.26)">
      <defs>
       <path d="M 12.15625 37.359375 
L 26.765625 37.359375 
L 31.296875 51.21875 
L 35.890625 37.359375 
L 50.4375 37.359375 
L 38.625 28.765625 
L 43.21875 14.890625 
L 31.296875 23.484375 
L 19.4375 14.890625 
L 23.96875 28.765625 
z
" id="DejaVuSans-8902"/>
      </defs>
      <use transform="translate(0 0.015625)" xlink:href="#DejaVuSans-Oblique-102"/>
      <use transform="translate(42.652786 38.296875)scale(0.7)" xlink:href="#DejaVuSans-8902"/>
     </g>
    </g>
   </g>
  </g>
 </g>
 <defs>
  <clipPath id="p230963f42b">
   <rect height="176.4" width="230.4" x="0" y="0"/>
  </clipPath>
 </defs>
</svg>
