<?xml version="1.0" encoding="utf-8" standalone="no"?>
<!DOCTYPE svg PUBLIC "-//W3C//DTD SVG 1.1//EN"
  "http://www.w3.org/Graphics/SVG/1.1/DTD/svg11.dtd">
<!-- Created with matplotlib (https://matplotlib.org/) -->
<svg height="172.8pt" version="1.1" viewBox="0 0 230.4 172.8" width="230.4pt" xmlns="http://www.w3.org/2000/svg" xmlns:xlink="http://www.w3.org/1999/xlink">
 <defs>
  <style type="text/css">
*{stroke-linecap:butt;stroke-linejoin:round;}
  </style>
 </defs>
 <g id="figure_1">
  <g id="patch_1">
   <path d="M 0 172.8 
L 230.4 172.8 
L 230.4 0 
L 0 0 
z
" style="fill:none;"/>
  </g>
  <g id="axes_1">
   <g id="PathCollection_1">
    <defs>
     <path d="M 0 2.236068 
C 0.593012 2.236068 1.161816 2.000462 1.581139 1.581139 
C 2.000462 1.161816 2.236068 0.593012 2.236068 0 
C 2.236068 -0.593012 2.000462 -1.161816 1.581139 -1.581139 
C 1.161816 -2.000462 0.593012 -2.236068 0 -2.236068 
C -0.593012 -2.236068 -1.161816 -2.000462 -1.581139 -1.581139 
C -2.000462 -1.161816 -2.236068 -0.593012 -2.236068 0 
C -2.236068 0.593012 -2.000462 1.161816 -1.581139 1.581139 
C -1.161816 2.000462 -0.593012 2.236068 0 2.236068 
z
" id="m507cf19268" style="stroke:#000000;"/>
    </defs>
    <g clip-path="url(#pdce6f8a8a7)">
     <use style="stroke:#000000;" x="125.42421" xlink:href="#m507cf19268" y="146.84832"/>
     <use style="stroke:#000000;" x="160.272391" xlink:href="#m507cf19268" y="63.802876"/>
     <use style="stroke:#000000;" x="136.724256" xlink:href="#m507cf19268" y="121.145623"/>
     <use style="stroke:#000000;" x="124.600987" xlink:href="#m507cf19268" y="121.791988"/>
     <use style="stroke:#000000;" x="99.209151" xlink:href="#m507cf19268" y="137.057709"/>
     <use style="stroke:#000000;" x="145.758185" xlink:href="#m507cf19268" y="93.028244"/>
     <use style="stroke:#000000;" x="102.127358" xlink:href="#m507cf19268" y="144.670411"/>
     <use style="stroke:#000000;" x="197.258636" xlink:href="#m507cf19268" y="87.518715"/>
     <use style="stroke:#000000;" x="212.316273" xlink:href="#m507cf19268" y="102.404765"/>
     <use style="stroke:#000000;" x="90.786296" xlink:href="#m507cf19268" y="102.734328"/>
     <use style="stroke:#000000;" x="176.303135" xlink:href="#m507cf19268" y="104.018568"/>
     <use style="stroke:#000000;" x="121.252172" xlink:href="#m507cf19268" y="136.798097"/>
     <use style="stroke:#000000;" x="129.452243" xlink:href="#m507cf19268" y="113.034518"/>
     <use style="stroke:#000000;" x="204.34315" xlink:href="#m507cf19268" y="73.615632"/>
     <use style="stroke:#000000;" x="25.351553" xlink:href="#m507cf19268" y="56.162913"/>
     <use style="stroke:#000000;" x="28.722355" xlink:href="#m507cf19268" y="57.78959"/>
     <use style="stroke:#000000;" x="14.707563" xlink:href="#m507cf19268" y="42.553043"/>
     <use style="stroke:#000000;" x="184.868739" xlink:href="#m507cf19268" y="96.214024"/>
     <use style="stroke:#000000;" x="173.461196" xlink:href="#m507cf19268" y="108.842811"/>
     <use style="stroke:#000000;" x="192.700726" xlink:href="#m507cf19268" y="92.184679"/>
     <use style="stroke:#000000;" x="215.448787" xlink:href="#m507cf19268" y="103.519895"/>
     <use style="stroke:#000000;" x="177.860121" xlink:href="#m507cf19268" y="127.225039"/>
     <use style="stroke:#000000;" x="107.131677" xlink:href="#m507cf19268" y="109.72021"/>
     <use style="stroke:#000000;" x="173.958111" xlink:href="#m507cf19268" y="103.194457"/>
     <use style="stroke:#000000;" x="35.245843" xlink:href="#m507cf19268" y="106.121371"/>
     <use style="stroke:#000000;" x="144.507094" xlink:href="#m507cf19268" y="99.680735"/>
     <use style="stroke:#000000;" x="40.498725" xlink:href="#m507cf19268" y="98.267767"/>
     <use style="stroke:#000000;" x="208.337926" xlink:href="#m507cf19268" y="81.682688"/>
     <use style="stroke:#000000;" x="119.77623" xlink:href="#m507cf19268" y="99.019036"/>
     <use style="stroke:#000000;" x="97.325555" xlink:href="#m507cf19268" y="109.320584"/>
     <use style="stroke:#000000;" x="65.885103" xlink:href="#m507cf19268" y="77.838673"/>
     <use style="stroke:#000000;" x="172.639493" xlink:href="#m507cf19268" y="120.456602"/>
     <use style="stroke:#000000;" x="106.015488" xlink:href="#m507cf19268" y="105.157329"/>
     <use style="stroke:#000000;" x="129.533802" xlink:href="#m507cf19268" y="126.040851"/>
     <use style="stroke:#000000;" x="14.408336" xlink:href="#m507cf19268" y="46.249147"/>
     <use style="stroke:#000000;" x="139.83929" xlink:href="#m507cf19268" y="121.723286"/>
     <use style="stroke:#000000;" x="138.678959" xlink:href="#m507cf19268" y="116.731918"/>
     <use style="stroke:#000000;" x="139.692357" xlink:href="#m507cf19268" y="109.17252"/>
     <use style="stroke:#000000;" x="208.145052" xlink:href="#m507cf19268" y="105.757507"/>
     <use style="stroke:#000000;" x="153.283088" xlink:href="#m507cf19268" y="87.752872"/>
     <use style="stroke:#000000;" x="85.773291" xlink:href="#m507cf19268" y="99.734833"/>
     <use style="stroke:#000000;" x="102.011057" xlink:href="#m507cf19268" y="143.114406"/>
     <use style="stroke:#000000;" x="156.594752" xlink:href="#m507cf19268" y="74.67891"/>
     <use style="stroke:#000000;" x="23.087226" xlink:href="#m507cf19268" y="15.111404"/>
     <use style="stroke:#000000;" x="150.130047" xlink:href="#m507cf19268" y="83.499043"/>
     <use style="stroke:#000000;" x="150.940877" xlink:href="#m507cf19268" y="110.124865"/>
     <use style="stroke:#000000;" x="54.538311" xlink:href="#m507cf19268" y="114.350691"/>
     <use style="stroke:#000000;" x="37.476926" xlink:href="#m507cf19268" y="55.789896"/>
     <use style="stroke:#000000;" x="76.540629" xlink:href="#m507cf19268" y="113.587709"/>
     <use style="stroke:#000000;" x="86.653601" xlink:href="#m507cf19268" y="85.002024"/>
    </g>
   </g>
   <g id="line2d_1">
    <path clip-path="url(#pdce6f8a8a7)" d="M 10.472727 103.220142 
L 12.58843 65.988466 
L 14.704132 42.646953 
L 16.819835 30.011953 
L 18.935537 25.415411 
L 21.05124 26.644363 
L 23.166942 31.885496 
L 25.282645 39.674507 
L 27.398347 48.849962 
L 29.51405 58.511399 
L 31.629752 67.981405 
L 33.745455 76.771419 
L 35.861157 84.551029 
L 37.97686 91.120517 
L 40.092562 96.386437 
L 42.208264 100.340016 
L 44.323967 103.038162 
L 46.439669 104.586894 
L 48.555372 105.126993 
L 50.671074 104.821716 
L 52.786777 103.846368 
L 54.902479 102.379608 
L 57.018182 100.596297 
L 59.133884 98.661764 
L 61.249587 96.727339 
L 63.365289 94.927026 
L 65.480992 93.37518 
L 67.596694 92.165077 
L 69.712397 91.368269 
L 71.828099 91.034605 
L 73.943802 91.192831 
L 76.059504 91.851674 
L 78.175207 93.001321 
L 80.290909 94.615215 
L 82.406612 96.652096 
L 84.522314 99.058219 
L 86.638017 101.769674 
L 88.753719 104.714781 
L 90.869421 107.816468 
L 92.985124 110.994625 
L 95.100826 114.168364 
L 97.216529 117.25816 
L 99.332231 120.187847 
L 101.447934 122.886429 
L 103.563636 125.289693 
L 105.679339 127.341599 
L 107.795041 128.995441 
L 109.910744 130.21476 
L 112.026446 130.974003 
L 114.142149 131.25894 
L 116.257851 131.066811 
L 118.373554 130.406238 
L 120.489256 129.296883 
L 122.604959 127.768887 
L 124.720661 125.862074 
L 126.836364 123.624964 
L 128.952066 121.113597 
L 131.067769 118.390187 
L 133.183471 115.521641 
L 135.299174 112.57796 
L 137.414876 109.630545 
L 139.530579 106.75045 
L 141.646281 104.006595 
L 143.761983 101.463987 
L 145.877686 99.181975 
L 147.993388 97.212568 
L 150.109091 95.598858 
L 152.224793 94.373593 
L 154.340496 93.55791 
L 156.456198 93.160295 
L 158.571901 93.175791 
L 160.687603 93.585496 
L 162.803306 94.356386 
L 164.919008 95.441512 
L 167.034711 96.780595 
L 169.150413 98.301059 
L 171.266116 99.919556 
L 173.381818 101.543989 
L 175.497521 103.076096 
L 177.613223 104.414613 
L 179.728926 105.459058 
L 181.844628 106.114161 
L 183.960331 106.294975 
L 186.076033 105.932695 
L 188.191736 104.981213 
L 190.307438 103.424433 
L 192.42314 101.284367 
L 194.538843 98.630041 
L 196.654545 95.587214 
L 198.770248 92.348947 
L 200.88595 89.187012 
L 203.001653 86.464166 
L 205.117355 84.647301 
L 207.233058 84.321449 
L 209.34876 86.204681 
L 211.464463 91.163859 
L 213.580165 100.231258 
L 215.695868 114.622049 
L 217.81157 135.752603 
L 219.927273 165.259636 
" style="fill:none;stroke:#d62728;stroke-linecap:square;stroke-width:3;"/>
   </g>
   <g id="line2d_2">
    <path clip-path="url(#pdce6f8a8a7)" d="M 10.472727 14.452364 
L 12.58843 22.619195 
L 14.704132 29.964844 
L 16.819835 36.584056 
L 18.935537 42.561022 
L 21.05124 47.970414 
L 23.166942 52.878337 
L 25.282645 57.343197 
L 27.398347 61.416495 
L 29.51405 65.143559 
L 31.629752 68.564204 
L 33.745455 71.713334 
L 35.861157 74.621487 
L 37.97686 77.315336 
L 40.092562 79.818126 
L 42.208264 82.150086 
L 44.323967 84.328784 
L 46.439669 86.369454 
L 48.555372 88.285284 
L 50.671074 90.087672 
L 52.786777 91.786461 
L 54.902479 93.390132 
L 57.018182 94.905991 
L 59.133884 96.340323 
L 61.249587 97.698527 
L 63.365289 98.98524 
L 65.480992 100.20444 
L 67.596694 101.359534 
L 69.712397 102.45344 
L 71.828099 103.48865 
L 73.943802 104.467292 
L 76.059504 105.391174 
L 78.175207 106.261831 
L 80.290909 107.080556 
L 82.406612 107.848433 
L 84.522314 108.566362 
L 86.638017 109.23508 
L 88.753719 109.855181 
L 90.869421 110.427132 
L 92.985124 110.951287 
L 95.100826 111.427899 
L 97.216529 111.857131 
L 99.332231 112.239067 
L 101.447934 112.573721 
L 103.563636 112.861046 
L 105.679339 113.100942 
L 107.795041 113.293265 
L 109.910744 113.437835 
L 112.026446 113.534444 
L 114.142149 113.582864 
L 116.257851 113.582853 
L 118.373554 113.534169 
L 120.489256 113.436571 
L 122.604959 113.289831 
L 124.720661 113.09374 
L 126.836364 112.848119 
L 128.952066 112.552823 
L 131.067769 112.207753 
L 133.183471 111.812861 
L 135.299174 111.368162 
L 137.414876 110.87374 
L 139.530579 110.329757 
L 141.646281 109.736466 
L 143.761983 109.094223 
L 145.877686 108.403492 
L 147.993388 107.664869 
L 150.109091 106.87909 
L 152.224793 106.047056 
L 154.340496 105.169851 
L 156.456198 104.248768 
L 158.571901 103.28534 
L 160.687603 102.281378 
L 162.803306 101.239008 
L 164.919008 100.160722 
L 167.034711 99.049439 
L 169.150413 97.908566 
L 171.266116 96.74208 
L 173.381818 95.554618 
L 175.497521 94.351581 
L 177.613223 93.139251 
L 179.728926 91.924936 
L 181.844628 90.717117 
L 183.960331 89.525636 
L 186.076033 88.361892 
L 188.191736 87.239072 
L 190.307438 86.172411 
L 192.42314 85.179477 
L 194.538843 84.280497 
L 196.654545 83.498719 
L 198.770248 82.860814 
L 200.88595 82.39732 
L 203.001653 82.143143 
L 205.117355 82.138096 
L 207.233058 82.427506 
L 209.34876 83.062877 
L 211.464463 84.102614 
L 213.580165 85.612821 
L 215.695868 87.66817 
L 217.81157 90.352853 
L 219.927273 93.761615 
" style="fill:none;stroke:#000000;stroke-dasharray:11.1,4.8;stroke-dashoffset:0;stroke-width:3;"/>
   </g>
   <g id="legend_1">
    <g id="line2d_3">
     <path d="M 77.5 21.784813 
L 116.5 21.784813 
" style="fill:none;stroke:#d62728;stroke-linecap:square;stroke-width:3;"/>
    </g>
    <g id="line2d_4"/>
    <g id="text_1">
     <!-- $\hat{f}$ -->
     <defs>
      <path d="M -28.609375 79.984375 
L -21.390625 79.984375 
L -9.421875 61.625 
L -16.21875 61.625 
L -25 73.578125 
L -33.796875 61.625 
L -40.578125 61.625 
z
M -25 56 
z
" id="DejaVuSans-770"/>
      <path d="M 47.796875 75.984375 
L 46.390625 68.5 
L 37.796875 68.5 
Q 32.90625 68.5 30.6875 66.578125 
Q 28.46875 64.65625 27.390625 59.515625 
L 26.421875 54.6875 
L 41.21875 54.6875 
L 39.890625 47.703125 
L 25.09375 47.703125 
L 15.828125 0 
L 6.78125 0 
L 16.109375 47.703125 
L 7.515625 47.703125 
L 8.796875 54.6875 
L 17.390625 54.6875 
L 18.109375 58.5 
Q 19.96875 68.171875 24.625 72.078125 
Q 29.296875 75.984375 39.3125 75.984375 
z
" id="DejaVuSans-Oblique-102"/>
     </defs>
     <g transform="translate(129.5 30.884813)scale(0.26 -0.26)">
      <use transform="translate(47.379395 33.015625)" xlink:href="#DejaVuSans-770"/>
      <use transform="translate(0 0.53125)" xlink:href="#DejaVuSans-Oblique-102"/>
     </g>
    </g>
    <g id="line2d_5">
     <path d="M 77.5 52.147938 
L 116.5 52.147938 
" style="fill:none;stroke:#000000;stroke-dasharray:11.1,4.8;stroke-dashoffset:0;stroke-width:3;"/>
    </g>
    <g id="line2d_6"/>
    <g id="text_2">
     <!-- $f^{\star}$ -->
     <defs>
      <path d="M 12.15625 37.359375 
L 26.765625 37.359375 
L 31.296875 51.21875 
L 35.890625 37.359375 
L 50.4375 37.359375 
L 38.625 28.765625 
L 43.21875 14.890625 
L 31.296875 23.484375 
L 19.4375 14.890625 
L 23.96875 28.765625 
z
" id="DejaVuSans-8902"/>
     </defs>
     <g transform="translate(129.5 61.247938)scale(0.26 -0.26)">
      <use transform="translate(0 0.015625)" xlink:href="#DejaVuSans-Oblique-102"/>
      <use transform="translate(42.652786 38.296875)scale(0.7)" xlink:href="#DejaVuSans-8902"/>
     </g>
    </g>
   </g>
  </g>
 </g>
 <defs>
  <clipPath id="pdce6f8a8a7">
   <rect height="165.888" width="230.4" x="0" y="6.912"/>
  </clipPath>
 </defs>
</svg>
