<?xml version="1.0" encoding="utf-8" standalone="no"?>
<!DOCTYPE svg PUBLIC "-//W3C//DTD SVG 1.1//EN"
  "http://www.w3.org/Graphics/SVG/1.1/DTD/svg11.dtd">
<!-- Created with matplotlib (https://matplotlib.org/) -->
<svg height="176.4pt" version="1.1" viewBox="0 0 230.4 176.4" width="230.4pt" xmlns="http://www.w3.org/2000/svg" xmlns:xlink="http://www.w3.org/1999/xlink">
 <metadata>
  <rdf:RDF xmlns:cc="http://creativecommons.org/ns#" xmlns:dc="http://purl.org/dc/elements/1.1/" xmlns:rdf="http://www.w3.org/1999/02/22-rdf-syntax-ns#">
   <cc:Work>
    <dc:type rdf:resource="http://purl.org/dc/dcmitype/StillImage"/>
    <dc:date>2020-12-10T16:30:38.630870</dc:date>
    <dc:format>image/svg+xml</dc:format>
    <dc:creator>
     <cc:Agent>
      <dc:title>Matplotlib v3.3.3, https://matplotlib.org/</dc:title>
     </cc:Agent>
    </dc:creator>
   </cc:Work>
  </rdf:RDF>
 </metadata>
 <defs>
  <style type="text/css">*{stroke-linecap:butt;stroke-linejoin:round;}</style>
 </defs>
 <g id="figure_1">
  <g id="patch_1">
   <path d="M 0 176.4 
L 230.4 176.4 
L 230.4 0 
L 0 0 
z
" style="fill:none;"/>
  </g>
  <g id="axes_1">
   <g id="PathCollection_1">
    <defs>
     <path d="M 0 2.236068 
C 0.593012 2.236068 1.161816 2.000462 1.581139 1.581139 
C 2.000462 1.161816 2.236068 0.593012 2.236068 0 
C 2.236068 -0.593012 2.000462 -1.161816 1.581139 -1.581139 
C 1.161816 -2.000462 0.593012 -2.236068 0 -2.236068 
C -0.593012 -2.236068 -1.161816 -2.000462 -1.581139 -1.581139 
C -2.000462 -1.161816 -2.236068 -0.593012 -2.236068 0 
C -2.236068 0.593012 -2.000462 1.161816 -1.581139 1.581139 
C -1.161816 2.000462 -0.593012 2.236068 0 2.236068 
z
" id="m47bf91660e" style="stroke:#000000;"/>
    </defs>
    <g clip-path="url(#p4ec4ec3986)">
     <use style="stroke:#000000;" x="125.42421" xlink:href="#m47bf91660e" y="100.792551"/>
     <use style="stroke:#000000;" x="160.272391" xlink:href="#m47bf91660e" y="121.023704"/>
     <use style="stroke:#000000;" x="136.724256" xlink:href="#m47bf91660e" y="72.47394"/>
     <use style="stroke:#000000;" x="124.600987" xlink:href="#m47bf91660e" y="144.507194"/>
     <use style="stroke:#000000;" x="99.209151" xlink:href="#m47bf91660e" y="115.438142"/>
     <use style="stroke:#000000;" x="145.758185" xlink:href="#m47bf91660e" y="116.239346"/>
     <use style="stroke:#000000;" x="102.127358" xlink:href="#m47bf91660e" y="87.888265"/>
     <use style="stroke:#000000;" x="197.258636" xlink:href="#m47bf91660e" y="61.20915"/>
     <use style="stroke:#000000;" x="212.316273" xlink:href="#m47bf91660e" y="87.221708"/>
     <use style="stroke:#000000;" x="90.786296" xlink:href="#m47bf91660e" y="107.463502"/>
     <use style="stroke:#000000;" x="176.303135" xlink:href="#m47bf91660e" y="115.611053"/>
     <use style="stroke:#000000;" x="121.252172" xlink:href="#m47bf91660e" y="154.681253"/>
     <use style="stroke:#000000;" x="129.452243" xlink:href="#m47bf91660e" y="123.089907"/>
     <use style="stroke:#000000;" x="204.34315" xlink:href="#m47bf91660e" y="84.783215"/>
     <use style="stroke:#000000;" x="25.351553" xlink:href="#m47bf91660e" y="41.205498"/>
     <use style="stroke:#000000;" x="28.722355" xlink:href="#m47bf91660e" y="47.714098"/>
     <use style="stroke:#000000;" x="14.707563" xlink:href="#m47bf91660e" y="45.539911"/>
     <use style="stroke:#000000;" x="184.868739" xlink:href="#m47bf91660e" y="99.974112"/>
     <use style="stroke:#000000;" x="173.461196" xlink:href="#m47bf91660e" y="120.17252"/>
     <use style="stroke:#000000;" x="192.700726" xlink:href="#m47bf91660e" y="117.241203"/>
     <use style="stroke:#000000;" x="215.448787" xlink:href="#m47bf91660e" y="124.849568"/>
     <use style="stroke:#000000;" x="177.860121" xlink:href="#m47bf91660e" y="61.353064"/>
     <use style="stroke:#000000;" x="107.131677" xlink:href="#m47bf91660e" y="126.856676"/>
     <use style="stroke:#000000;" x="173.958111" xlink:href="#m47bf91660e" y="108.418607"/>
     <use style="stroke:#000000;" x="35.245843" xlink:href="#m47bf91660e" y="103.41212"/>
     <use style="stroke:#000000;" x="144.507094" xlink:href="#m47bf91660e" y="98.479662"/>
     <use style="stroke:#000000;" x="40.498725" xlink:href="#m47bf91660e" y="116.355687"/>
     <use style="stroke:#000000;" x="208.337926" xlink:href="#m47bf91660e" y="92.301497"/>
     <use style="stroke:#000000;" x="119.77623" xlink:href="#m47bf91660e" y="134.340928"/>
     <use style="stroke:#000000;" x="97.325555" xlink:href="#m47bf91660e" y="108.696353"/>
    </g>
   </g>
   <g id="line2d_1">
    <path clip-path="url(#p4ec4ec3986)" d="M 10.472727 158.361166 
L 12.58843 89.416624 
L 14.704132 46.071336 
L 16.819835 22.236002 
L 18.935537 12.858201 
L 21.05124 13.792321 
L 23.166942 21.681421 
L 25.282645 33.850246 
L 27.398347 48.208666 
L 29.51405 63.16484 
L 31.629752 77.547423 
L 33.745455 90.536177 
L 35.861157 101.600371 
L 37.97686 110.444373 
L 40.092562 116.959889 
L 42.208264 121.184297 
L 44.323967 123.264581 
L 46.439669 123.426383 
L 48.555372 121.947703 
L 50.671074 119.136831 
L 52.786777 115.314087 
L 54.902479 110.796994 
L 57.018182 105.888517 
L 59.133884 100.868023 
L 61.249587 95.984644 
L 63.365289 91.452751 
L 65.480992 87.449247 
L 67.596694 84.112429 
L 69.712397 81.542178 
L 71.828099 79.801245 
L 73.943802 78.917445 
L 76.059504 78.886556 
L 78.175207 79.675767 
L 80.290909 81.227499 
L 82.406612 83.463494 
L 84.522314 86.289003 
L 86.638017 89.597007 
L 88.753719 93.272345 
L 90.869421 97.19567 
L 92.985124 101.247178 
L 95.100826 105.310025 
L 97.216529 109.27341 
L 99.332231 113.035262 
L 101.447934 116.50452 
L 103.563636 119.602986 
L 105.679339 122.266729 
L 107.795041 124.447055 
L 109.910744 126.111036 
L 112.026446 127.241621 
L 114.142149 127.837343 
L 116.257851 127.911648 
L 118.373554 127.491876 
L 120.489256 126.617937 
L 122.604959 125.340709 
L 124.720661 123.720206 
L 126.836364 121.823569 
L 128.952066 119.722914 
L 131.067769 117.493094 
L 133.183471 115.20943 
L 135.299174 112.945446 
L 137.414876 110.77068 
L 139.530579 108.748598 
L 141.646281 106.934681 
L 143.761983 105.374713 
L 145.877686 104.103322 
L 147.993388 103.142824 
L 150.109091 102.502385 
L 152.224793 102.177548 
L 154.340496 102.15016 
L 156.456198 102.388694 
L 158.571901 102.849016 
L 160.687603 103.475572 
L 162.803306 104.203029 
L 164.919008 104.95833 
L 167.034711 105.663184 
L 169.150413 106.236934 
L 171.266116 106.599789 
L 173.381818 106.676369 
L 175.497521 106.399512 
L 177.613223 105.714269 
L 179.728926 104.58201 
L 181.844628 102.984559 
L 183.960331 100.928239 
L 186.076033 98.44771 
L 188.191736 95.609484 
L 190.307438 92.514938 
L 192.42314 89.302689 
L 194.538843 86.150131 
L 196.654545 83.273946 
L 198.770248 80.929372 
L 200.88595 79.407985 
L 203.001653 79.033762 
L 205.117355 80.157133 
L 207.233058 83.146744 
L 209.34876 88.378611 
L 211.464463 96.222335 
L 213.580165 107.024025 
L 215.695868 121.085546 
L 217.81157 138.639698 
L 219.927273 159.820894 
" style="fill:none;stroke:#d62728;stroke-linecap:square;stroke-width:3;"/>
   </g>
   <g id="line2d_2">
    <path clip-path="url(#p4ec4ec3986)" d="M 10.472727 23.52 
L 12.58843 31.270273 
L 14.704132 38.24125 
L 16.819835 44.522842 
L 18.935537 50.194947 
L 21.05124 55.328427 
L 23.166942 59.986017 
L 25.282645 64.223141 
L 27.398347 68.088677 
L 29.51405 71.625638 
L 31.629752 74.87181 
L 33.745455 77.860315 
L 35.861157 80.620135 
L 37.97686 83.17658 
L 40.092562 85.551713 
L 42.208264 87.764729 
L 44.323967 89.832301 
L 46.439669 91.768884 
L 48.555372 93.586995 
L 50.671074 95.297451 
L 52.786777 96.909591 
L 54.902479 98.431465 
L 57.018182 99.870006 
L 59.133884 101.231178 
L 61.249587 102.520106 
L 63.365289 103.741189 
L 65.480992 104.898202 
L 67.596694 105.994379 
L 69.712397 107.032489 
L 71.828099 108.014898 
L 73.943802 108.943623 
L 76.059504 109.820382 
L 78.175207 110.64663 
L 80.290909 111.423595 
L 82.406612 112.152306 
L 84.522314 112.833616 
L 86.638017 113.468225 
L 88.753719 114.056697 
L 90.869421 114.599475 
L 92.985124 115.096895 
L 95.100826 115.549197 
L 97.216529 115.956536 
L 99.332231 116.318991 
L 101.447934 116.636575 
L 103.563636 116.909245 
L 105.679339 117.136905 
L 107.795041 117.319418 
L 109.910744 117.456615 
L 112.026446 117.548296 
L 114.142149 117.594245 
L 116.257851 117.594236 
L 118.373554 117.548035 
L 120.489256 117.455415 
L 122.604959 117.316159 
L 124.720661 117.13007 
L 126.836364 116.896977 
L 128.952066 116.616743 
L 131.067769 116.289274 
L 133.183471 115.914524 
L 135.299174 115.492507 
L 137.414876 115.023303 
L 139.530579 114.507067 
L 141.646281 113.944038 
L 143.761983 113.334552 
L 145.877686 112.679053 
L 147.993388 111.978104 
L 150.109091 111.232405 
L 152.224793 110.44281 
L 154.340496 109.610347 
L 156.456198 108.736245 
L 158.571901 107.821958 
L 160.687603 106.869204 
L 162.803306 105.880001 
L 164.919008 104.856714 
L 167.034711 103.802113 
L 169.150413 102.719431 
L 171.266116 101.612443 
L 173.381818 100.485549 
L 175.497521 99.343874 
L 177.613223 98.193381 
L 179.728926 97.041003 
L 181.844628 95.89479 
L 183.960331 94.764082 
L 186.076033 93.659695 
L 188.191736 92.594147 
L 190.307438 91.581892 
L 192.42314 90.639603 
L 194.538843 89.786477 
L 196.654545 89.044574 
L 198.770248 88.439206 
L 200.88595 87.999353 
L 203.001653 87.75814 
L 205.117355 87.753351 
L 207.233058 88.028 
L 209.34876 88.630963 
L 211.464463 89.617667 
L 213.580165 91.050844 
L 215.695868 93.001358 
L 217.81157 95.549106 
L 219.927273 98.784 
" style="fill:none;stroke:#000000;stroke-dasharray:11.1,4.8;stroke-dashoffset:0;stroke-width:3;"/>
   </g>
   <g id="legend_1">
    <g id="line2d_3">
     <path d="M 77.5 14.872813 
L 116.5 14.872813 
" style="fill:none;stroke:#d62728;stroke-linecap:square;stroke-width:3;"/>
    </g>
    <g id="line2d_4"/>
    <g id="text_1">
     <!-- $\hat{f}$ -->
     <g transform="translate(129.5 23.972813)scale(0.26 -0.26)">
      <defs>
       <path d="M -28.609375 79.984375 
L -21.390625 79.984375 
L -9.421875 61.625 
L -16.21875 61.625 
L -25 73.578125 
L -33.796875 61.625 
L -40.578125 61.625 
z
M -25 56 
z
" id="DejaVuSans-770"/>
       <path d="M 47.796875 75.984375 
L 46.390625 68.5 
L 37.796875 68.5 
Q 32.90625 68.5 30.6875 66.578125 
Q 28.46875 64.65625 27.390625 59.515625 
L 26.421875 54.6875 
L 41.21875 54.6875 
L 39.890625 47.703125 
L 25.09375 47.703125 
L 15.828125 0 
L 6.78125 0 
L 16.109375 47.703125 
L 7.515625 47.703125 
L 8.796875 54.6875 
L 17.390625 54.6875 
L 18.109375 58.5 
Q 19.96875 68.171875 24.625 72.078125 
Q 29.296875 75.984375 39.3125 75.984375 
z
" id="DejaVuSans-Oblique-102"/>
      </defs>
      <use transform="translate(47.379395 33.015625)" xlink:href="#DejaVuSans-770"/>
      <use transform="translate(0 0.53125)" xlink:href="#DejaVuSans-Oblique-102"/>
     </g>
    </g>
    <g id="line2d_5">
     <path d="M 77.5 50.435938 
L 116.5 50.435938 
" style="fill:none;stroke:#000000;stroke-dasharray:11.1,4.8;stroke-dashoffset:0;stroke-width:3;"/>
    </g>
    <g id="line2d_6"/>
    <g id="text_2">
     <!-- $f^{\star}$ -->
     <g transform="translate(129.5 59.535938)scale(0.26 -0.26)">
      <defs>
       <path d="M 12.15625 37.359375 
L 26.765625 37.359375 
L 31.296875 51.21875 
L 35.890625 37.359375 
L 50.4375 37.359375 
L 38.625 28.765625 
L 43.21875 14.890625 
L 31.296875 23.484375 
L 19.4375 14.890625 
L 23.96875 28.765625 
z
" id="DejaVuSans-8902"/>
      </defs>
      <use transform="translate(0 0.015625)" xlink:href="#DejaVuSans-Oblique-102"/>
      <use transform="translate(42.652786 38.296875)scale(0.7)" xlink:href="#DejaVuSans-8902"/>
     </g>
    </g>
   </g>
  </g>
 </g>
 <defs>
  <clipPath id="p4ec4ec3986">
   <rect height="176.4" width="230.4" x="0" y="0"/>
  </clipPath>
 </defs>
</svg>
