<?xml version="1.0" encoding="utf-8" standalone="no"?>
<!DOCTYPE svg PUBLIC "-//W3C//DTD SVG 1.1//EN"
  "http://www.w3.org/Graphics/SVG/1.1/DTD/svg11.dtd">
<!-- Created with matplotlib (https://matplotlib.org/) -->
<svg height="176.4pt" version="1.1" viewBox="0 0 230.4 176.4" width="230.4pt" xmlns="http://www.w3.org/2000/svg" xmlns:xlink="http://www.w3.org/1999/xlink">
 <defs>
  <style type="text/css">
*{stroke-linecap:butt;stroke-linejoin:round;}
  </style>
 </defs>
 <g id="figure_1">
  <g id="patch_1">
   <path d="M 0 176.4 
L 230.4 176.4 
L 230.4 0 
L 0 0 
z
" style="fill:none;"/>
  </g>
  <g id="axes_1">
   <g id="PathCollection_1">
    <defs>
     <path d="M 0 2.236068 
C 0.593012 2.236068 1.161816 2.000462 1.581139 1.581139 
C 2.000462 1.161816 2.236068 0.593012 2.236068 0 
C 2.236068 -0.593012 2.000462 -1.161816 1.581139 -1.581139 
C 1.161816 -2.000462 0.593012 -2.236068 0 -2.236068 
C -0.593012 -2.236068 -1.161816 -2.000462 -1.581139 -1.581139 
C -2.000462 -1.161816 -2.236068 -0.593012 -2.236068 0 
C -2.236068 0.593012 -2.000462 1.161816 -1.581139 1.581139 
C -1.161816 2.000462 -0.593012 2.236068 0 2.236068 
z
" id="m210c600fd7" style="stroke:#000000;"/>
    </defs>
    <g clip-path="url(#pd58c8e4134)">
     <use style="stroke:#000000;" x="125.42421" xlink:href="#m210c600fd7" y="149.707703"/>
     <use style="stroke:#000000;" x="160.272391" xlink:href="#m210c600fd7" y="72.474271"/>
     <use style="stroke:#000000;" x="136.724256" xlink:href="#m210c600fd7" y="125.803833"/>
     <use style="stroke:#000000;" x="124.600987" xlink:href="#m210c600fd7" y="126.404962"/>
     <use style="stroke:#000000;" x="99.209151" xlink:href="#m210c600fd7" y="140.602297"/>
     <use style="stroke:#000000;" x="145.758185" xlink:href="#m210c600fd7" y="99.654275"/>
     <use style="stroke:#000000;" x="102.127358" xlink:href="#m210c600fd7" y="147.682218"/>
     <use style="stroke:#000000;" x="197.258636" xlink:href="#m210c600fd7" y="94.530335"/>
     <use style="stroke:#000000;" x="212.316273" xlink:href="#m210c600fd7" y="108.374571"/>
     <use style="stroke:#000000;" x="90.786296" xlink:href="#m210c600fd7" y="108.681069"/>
     <use style="stroke:#000000;" x="176.303135" xlink:href="#m210c600fd7" y="109.875431"/>
     <use style="stroke:#000000;" x="121.252172" xlink:href="#m210c600fd7" y="140.360855"/>
     <use style="stroke:#000000;" x="129.452243" xlink:href="#m210c600fd7" y="118.260391"/>
     <use style="stroke:#000000;" x="204.34315" xlink:href="#m210c600fd7" y="81.600273"/>
     <use style="stroke:#000000;" x="25.351553" xlink:href="#m210c600fd7" y="65.368998"/>
     <use style="stroke:#000000;" x="28.722355" xlink:href="#m210c600fd7" y="66.88183"/>
     <use style="stroke:#000000;" x="14.707563" xlink:href="#m210c600fd7" y="52.711627"/>
     <use style="stroke:#000000;" x="184.868739" xlink:href="#m210c600fd7" y="102.617095"/>
     <use style="stroke:#000000;" x="173.461196" xlink:href="#m210c600fd7" y="114.362044"/>
     <use style="stroke:#000000;" x="192.700726" xlink:href="#m210c600fd7" y="98.869748"/>
     <use style="stroke:#000000;" x="215.448787" xlink:href="#m210c600fd7" y="109.411658"/>
     <use style="stroke:#000000;" x="177.860121" xlink:href="#m210c600fd7" y="131.457776"/>
     <use style="stroke:#000000;" x="107.131677" xlink:href="#m210c600fd7" y="115.178038"/>
     <use style="stroke:#000000;" x="173.958111" xlink:href="#m210c600fd7" y="109.108996"/>
     <use style="stroke:#000000;" x="35.245843" xlink:href="#m210c600fd7" y="111.831067"/>
     <use style="stroke:#000000;" x="144.507094" xlink:href="#m210c600fd7" y="105.841185"/>
     <use style="stroke:#000000;" x="40.498725" xlink:href="#m210c600fd7" y="104.527105"/>
     <use style="stroke:#000000;" x="208.337926" xlink:href="#m210c600fd7" y="89.102748"/>
     <use style="stroke:#000000;" x="119.77623" xlink:href="#m210c600fd7" y="105.225796"/>
     <use style="stroke:#000000;" x="97.325555" xlink:href="#m210c600fd7" y="114.80638"/>
     <use style="stroke:#000000;" x="65.885103" xlink:href="#m210c600fd7" y="85.52776"/>
     <use style="stroke:#000000;" x="172.639493" xlink:href="#m210c600fd7" y="125.163034"/>
     <use style="stroke:#000000;" x="106.015488" xlink:href="#m210c600fd7" y="110.934494"/>
     <use style="stroke:#000000;" x="129.533802" xlink:href="#m210c600fd7" y="130.356464"/>
     <use style="stroke:#000000;" x="14.408336" xlink:href="#m210c600fd7" y="56.149057"/>
     <use style="stroke:#000000;" x="139.83929" xlink:href="#m210c600fd7" y="126.341068"/>
     <use style="stroke:#000000;" x="138.678959" xlink:href="#m210c600fd7" y="121.699025"/>
     <use style="stroke:#000000;" x="139.692357" xlink:href="#m210c600fd7" y="114.668679"/>
     <use style="stroke:#000000;" x="208.145052" xlink:href="#m210c600fd7" y="111.492669"/>
     <use style="stroke:#000000;" x="153.283088" xlink:href="#m210c600fd7" y="94.748105"/>
     <use style="stroke:#000000;" x="85.773291" xlink:href="#m210c600fd7" y="105.891497"/>
     <use style="stroke:#000000;" x="102.011057" xlink:href="#m210c600fd7" y="146.235111"/>
     <use style="stroke:#000000;" x="156.594752" xlink:href="#m210c600fd7" y="82.589136"/>
     <use style="stroke:#000000;" x="23.087226" xlink:href="#m210c600fd7" y="27.190517"/>
     <use style="stroke:#000000;" x="150.130047" xlink:href="#m210c600fd7" y="90.791984"/>
     <use style="stroke:#000000;" x="150.940877" xlink:href="#m210c600fd7" y="115.554373"/>
     <use style="stroke:#000000;" x="54.538311" xlink:href="#m210c600fd7" y="119.48445"/>
     <use style="stroke:#000000;" x="37.476926" xlink:href="#m210c600fd7" y="65.022087"/>
     <use style="stroke:#000000;" x="76.540629" xlink:href="#m210c600fd7" y="118.774867"/>
     <use style="stroke:#000000;" x="86.653601" xlink:href="#m210c600fd7" y="92.189777"/>
    </g>
   </g>
   <g id="line2d_1">
    <path clip-path="url(#pd58c8e4134)" d="M 10.472727 109.132884 
L 12.58843 74.506901 
L 14.704132 52.798965 
L 16.819835 41.048237 
L 18.935537 36.773389 
L 21.05124 37.916331 
L 23.166942 42.790659 
L 25.282645 50.034548 
L 27.398347 58.567851 
L 29.51405 67.553123 
L 31.629752 76.360362 
L 33.745455 84.535199 
L 35.861157 91.770346 
L 37.97686 97.880062 
L 40.092562 102.777442 
L 42.208264 106.454326 
L 44.323967 108.96364 
L 46.439669 110.403982 
L 48.555372 110.906282 
L 50.671074 110.622369 
L 52.786777 109.715283 
L 54.902479 108.351175 
L 57.018182 106.692671 
L 59.133884 104.893527 
L 61.249587 103.094485 
L 63.365289 101.420169 
L 65.480992 99.97693 
L 67.596694 98.851518 
L 69.712397 98.110475 
L 71.828099 97.800163 
L 73.943802 97.947315 
L 76.059504 98.560048 
L 78.175207 99.629236 
L 80.290909 101.13018 
L 82.406612 103.024509 
L 84.522314 105.262236 
L 86.638017 107.783928 
L 88.753719 110.522918 
L 90.869421 113.407531 
L 92.985124 116.363262 
L 95.100826 119.314884 
L 97.216529 122.188437 
L 99.332231 124.913088 
L 101.447934 127.422807 
L 103.563636 129.657877 
L 105.679339 131.566178 
L 107.795041 133.104275 
L 109.910744 134.238258 
L 112.026446 134.944365 
L 114.142149 135.209361 
L 116.257851 135.030678 
L 118.373554 134.416335 
L 120.489256 133.38462 
L 122.604959 131.963562 
L 124.720661 130.190199 
L 126.836364 128.109656 
L 128.952066 125.774049 
L 131.067769 123.241239 
L 133.183471 120.573451 
L 135.299174 117.835786 
L 137.414876 115.094649 
L 139.530579 112.41612 
L 141.646281 109.864295 
L 143.761983 107.499635 
L 145.877686 105.377332 
L 147.993388 103.545755 
L 150.109091 102.044982 
L 152.224793 100.905469 
L 154.340496 100.146872 
L 156.456198 99.777084 
L 158.571901 99.791496 
L 160.687603 100.172527 
L 162.803306 100.889465 
L 164.919008 101.898648 
L 167.034711 103.144014 
L 169.150413 104.558067 
L 171.266116 106.063292 
L 173.381818 107.574038 
L 175.497521 108.998918 
L 177.613223 110.243758 
L 179.728926 111.215106 
L 181.844628 111.824362 
L 183.960331 111.992521 
L 186.076033 111.655596 
L 188.191736 110.770705 
L 190.307438 109.322877 
L 192.42314 107.332586 
L 194.538843 104.864025 
L 196.654545 102.034153 
L 198.770248 99.022519 
L 200.88595 96.081875 
L 203.001653 93.54959 
L 205.117355 91.85988 
L 207.233058 91.556833 
L 209.34876 93.308266 
L 211.464463 97.92037 
L 213.580165 106.35318 
L 215.695868 119.736817 
L 217.81157 139.38853 
L 219.927273 166.830487 
" style="fill:none;stroke:#d62728;stroke-linecap:square;stroke-width:3;"/>
   </g>
   <g id="line2d_2">
    <path clip-path="url(#pd58c8e4134)" d="M 10.472727 26.5776 
L 12.58843 34.172868 
L 14.704132 41.004425 
L 16.819835 47.160385 
L 18.935537 52.719048 
L 21.05124 57.749859 
L 23.166942 62.314297 
L 25.282645 66.466679 
L 27.398347 70.254903 
L 29.51405 73.721126 
L 31.629752 76.902374 
L 33.745455 79.831108 
L 35.861157 82.535732 
L 37.97686 85.041049 
L 40.092562 87.368679 
L 42.208264 89.537435 
L 44.323967 91.563655 
L 46.439669 93.461507 
L 48.555372 95.243255 
L 50.671074 96.919502 
L 52.786777 98.499399 
L 54.902479 99.990836 
L 57.018182 101.400606 
L 59.133884 102.734555 
L 61.249587 103.997704 
L 63.365289 105.194365 
L 65.480992 106.328238 
L 67.596694 107.402492 
L 69.712397 108.41984 
L 71.828099 109.3826 
L 73.943802 110.29275 
L 76.059504 111.151974 
L 78.175207 111.961697 
L 80.290909 112.723123 
L 82.406612 113.43726 
L 84.522314 114.104943 
L 86.638017 114.72686 
L 88.753719 115.303563 
L 90.869421 115.835486 
L 92.985124 116.322957 
L 95.100826 116.766213 
L 97.216529 117.165405 
L 99.332231 117.520611 
L 101.447934 117.831844 
L 103.563636 118.09906 
L 105.679339 118.322167 
L 107.795041 118.50103 
L 109.910744 118.635482 
L 112.026446 118.72533 
L 114.142149 118.770361 
L 116.257851 118.770351 
L 118.373554 118.725074 
L 120.489256 118.634307 
L 122.604959 118.497836 
L 124.720661 118.315469 
L 126.836364 118.087038 
L 128.952066 117.812408 
L 131.067769 117.491488 
L 133.183471 117.124234 
L 135.299174 116.710657 
L 137.414876 116.250837 
L 139.530579 115.744925 
L 141.646281 115.193157 
L 143.761983 114.595861 
L 145.877686 113.953472 
L 147.993388 113.266542 
L 150.109091 112.535757 
L 152.224793 111.761954 
L 154.340496 110.94614 
L 156.456198 110.08952 
L 158.571901 109.193519 
L 160.687603 108.25982 
L 162.803306 107.290401 
L 164.919008 106.28758 
L 167.034711 105.254071 
L 169.150413 104.193043 
L 171.266116 103.108194 
L 173.381818 102.003838 
L 175.497521 100.884997 
L 177.613223 99.757513 
L 179.728926 98.628183 
L 181.844628 97.504894 
L 183.960331 96.3968 
L 186.076033 95.314502 
L 188.191736 94.270264 
L 190.307438 93.278254 
L 192.42314 92.354811 
L 194.538843 91.518747 
L 196.654545 90.791683 
L 198.770248 90.198422 
L 200.88595 89.767366 
L 203.001653 89.530978 
L 205.117355 89.526284 
L 207.233058 89.79544 
L 209.34876 90.386344 
L 211.464463 91.353314 
L 213.580165 92.757827 
L 215.695868 94.66933 
L 217.81157 97.166124 
L 219.927273 100.33632 
" style="fill:none;stroke:#000000;stroke-dasharray:11.1,4.8;stroke-dashoffset:0;stroke-width:3;"/>
   </g>
   <g id="legend_1">
    <g id="line2d_3">
     <path d="M 77.5 18.400812 
L 116.5 18.400812 
" style="fill:none;stroke:#d62728;stroke-linecap:square;stroke-width:3;"/>
    </g>
    <g id="line2d_4"/>
    <g id="text_1">
     <!-- $\hat{f}$ -->
     <defs>
      <path d="M -28.609375 79.984375 
L -21.390625 79.984375 
L -9.421875 61.625 
L -16.21875 61.625 
L -25 73.578125 
L -33.796875 61.625 
L -40.578125 61.625 
z
M -25 56 
z
" id="DejaVuSans-770"/>
      <path d="M 47.796875 75.984375 
L 46.390625 68.5 
L 37.796875 68.5 
Q 32.90625 68.5 30.6875 66.578125 
Q 28.46875 64.65625 27.390625 59.515625 
L 26.421875 54.6875 
L 41.21875 54.6875 
L 39.890625 47.703125 
L 25.09375 47.703125 
L 15.828125 0 
L 6.78125 0 
L 16.109375 47.703125 
L 7.515625 47.703125 
L 8.796875 54.6875 
L 17.390625 54.6875 
L 18.109375 58.5 
Q 19.96875 68.171875 24.625 72.078125 
Q 29.296875 75.984375 39.3125 75.984375 
z
" id="DejaVuSans-Oblique-102"/>
     </defs>
     <g transform="translate(129.5 27.500812)scale(0.26 -0.26)">
      <use transform="translate(47.379395 33.015625)" xlink:href="#DejaVuSans-770"/>
      <use transform="translate(0 0.53125)" xlink:href="#DejaVuSans-Oblique-102"/>
     </g>
    </g>
    <g id="line2d_5">
     <path d="M 77.5 53.963938 
L 116.5 53.963938 
" style="fill:none;stroke:#000000;stroke-dasharray:11.1,4.8;stroke-dashoffset:0;stroke-width:3;"/>
    </g>
    <g id="line2d_6"/>
    <g id="text_2">
     <!-- $f^{\star}$ -->
     <defs>
      <path d="M 12.15625 37.359375 
L 26.765625 37.359375 
L 31.296875 51.21875 
L 35.890625 37.359375 
L 50.4375 37.359375 
L 38.625 28.765625 
L 43.21875 14.890625 
L 31.296875 23.484375 
L 19.4375 14.890625 
L 23.96875 28.765625 
z
" id="DejaVuSans-8902"/>
     </defs>
     <g transform="translate(129.5 63.063938)scale(0.26 -0.26)">
      <use transform="translate(0 0.015625)" xlink:href="#DejaVuSans-Oblique-102"/>
      <use transform="translate(42.652786 38.296875)scale(0.7)" xlink:href="#DejaVuSans-8902"/>
     </g>
    </g>
   </g>
  </g>
 </g>
 <defs>
  <clipPath id="pd58c8e4134">
   <rect height="172.872" width="230.4" x="0" y="3.528"/>
  </clipPath>
 </defs>
</svg>
