<?xml version="1.0" encoding="utf-8" standalone="no"?>
<!DOCTYPE svg PUBLIC "-//W3C//DTD SVG 1.1//EN"
  "http://www.w3.org/Graphics/SVG/1.1/DTD/svg11.dtd">
<!-- Created with matplotlib (https://matplotlib.org/) -->
<svg height="176.4pt" version="1.1" viewBox="0 0 230.4 176.4" width="230.4pt" xmlns="http://www.w3.org/2000/svg" xmlns:xlink="http://www.w3.org/1999/xlink">
 <metadata>
  <rdf:RDF xmlns:cc="http://creativecommons.org/ns#" xmlns:dc="http://purl.org/dc/elements/1.1/" xmlns:rdf="http://www.w3.org/1999/02/22-rdf-syntax-ns#">
   <cc:Work>
    <dc:type rdf:resource="http://purl.org/dc/dcmitype/StillImage"/>
    <dc:date>2020-12-10T16:34:14.796523</dc:date>
    <dc:format>image/svg+xml</dc:format>
    <dc:creator>
     <cc:Agent>
      <dc:title>Matplotlib v3.3.3, https://matplotlib.org/</dc:title>
     </cc:Agent>
    </dc:creator>
   </cc:Work>
  </rdf:RDF>
 </metadata>
 <defs>
  <style type="text/css">*{stroke-linecap:butt;stroke-linejoin:round;}</style>
 </defs>
 <g id="figure_1">
  <g id="patch_1">
   <path d="M 0 176.4 
L 230.4 176.4 
L 230.4 0 
L 0 0 
z
" style="fill:none;"/>
  </g>
  <g id="axes_1">
   <g id="PathCollection_1">
    <defs>
     <path d="M 0 2.236068 
C 0.593012 2.236068 1.161816 2.000462 1.581139 1.581139 
C 2.000462 1.161816 2.236068 0.593012 2.236068 0 
C 2.236068 -0.593012 2.000462 -1.161816 1.581139 -1.581139 
C 1.161816 -2.000462 0.593012 -2.236068 0 -2.236068 
C -0.593012 -2.236068 -1.161816 -2.000462 -1.581139 -1.581139 
C -2.000462 -1.161816 -2.236068 -0.593012 -2.236068 0 
C -2.236068 0.593012 -2.000462 1.161816 -1.581139 1.581139 
C -1.161816 2.000462 -0.593012 2.236068 0 2.236068 
z
" id="mf6c241503c" style="stroke:#000000;"/>
    </defs>
    <g clip-path="url(#p9dbe2a903a)">
     <use style="stroke:#000000;" x="101.793841" xlink:href="#mf6c241503c" y="143.425852"/>
     <use style="stroke:#000000;" x="15.903094" xlink:href="#mf6c241503c" y="44.768474"/>
     <use style="stroke:#000000;" x="125.602032" xlink:href="#mf6c241503c" y="122.101264"/>
     <use style="stroke:#000000;" x="101.652981" xlink:href="#mf6c241503c" y="74.679571"/>
     <use style="stroke:#000000;" x="98.520674" xlink:href="#mf6c241503c" y="161.997848"/>
     <use style="stroke:#000000;" x="79.662857" xlink:href="#mf6c241503c" y="109.076968"/>
     <use style="stroke:#000000;" x="53.337314" xlink:href="#mf6c241503c" y="90.34371"/>
     <use style="stroke:#000000;" x="140.181846" xlink:href="#mf6c241503c" y="88.755852"/>
     <use style="stroke:#000000;" x="73.236761" xlink:href="#mf6c241503c" y="99.19617"/>
     <use style="stroke:#000000;" x="66.360913" xlink:href="#mf6c241503c" y="121.246048"/>
     <use style="stroke:#000000;" x="140.572032" xlink:href="#mf6c241503c" y="114.235561"/>
     <use style="stroke:#000000;" x="121.303944" xlink:href="#mf6c241503c" y="107.202419"/>
     <use style="stroke:#000000;" x="38.661109" xlink:href="#mf6c241503c" y="89.862559"/>
     <use style="stroke:#000000;" x="118.043999" xlink:href="#mf6c241503c" y="103.050921"/>
     <use style="stroke:#000000;" x="49.104495" xlink:href="#mf6c241503c" y="129.190875"/>
     <use style="stroke:#000000;" x="174.964744" xlink:href="#mf6c241503c" y="67.058481"/>
     <use style="stroke:#000000;" x="189.341734" xlink:href="#mf6c241503c" y="64.420482"/>
     <use style="stroke:#000000;" x="113.992879" xlink:href="#mf6c241503c" y="123.908613"/>
     <use style="stroke:#000000;" x="187.788878" xlink:href="#mf6c241503c" y="81.290416"/>
     <use style="stroke:#000000;" x="27.154834" xlink:href="#mf6c241503c" y="66.758646"/>
     <use style="stroke:#000000;" x="116.298817" xlink:href="#mf6c241503c" y="133.19479"/>
     <use style="stroke:#000000;" x="24.147282" xlink:href="#mf6c241503c" y="60.34816"/>
     <use style="stroke:#000000;" x="100.144895" xlink:href="#mf6c241503c" y="97.623403"/>
     <use style="stroke:#000000;" x="30.691566" xlink:href="#mf6c241503c" y="80.636628"/>
     <use style="stroke:#000000;" x="37.106961" xlink:href="#mf6c241503c" y="89.217197"/>
     <use style="stroke:#000000;" x="135.463745" xlink:href="#mf6c241503c" y="116.858943"/>
     <use style="stroke:#000000;" x="57.811968" xlink:href="#mf6c241503c" y="92.232811"/>
     <use style="stroke:#000000;" x="32.872987" xlink:href="#mf6c241503c" y="52.603212"/>
     <use style="stroke:#000000;" x="56.616864" xlink:href="#mf6c241503c" y="111.545377"/>
     <use style="stroke:#000000;" x="83.745433" xlink:href="#mf6c241503c" y="103.022916"/>
    </g>
   </g>
   <g id="line2d_1">
    <path clip-path="url(#p9dbe2a903a)" d="M 10.472727 88.831653 
L 12.58843 89.076246 
L 14.704132 89.320838 
L 16.819835 89.565431 
L 18.935537 89.810023 
L 21.05124 90.054615 
L 23.166942 90.299208 
L 25.282645 90.5438 
L 27.398347 90.788393 
L 29.51405 91.032985 
L 31.629752 91.277578 
L 33.745455 91.52217 
L 35.861157 91.766763 
L 37.97686 92.011355 
L 40.092562 92.255947 
L 42.208264 92.50054 
L 44.323967 92.745132 
L 46.439669 92.989725 
L 48.555372 93.234317 
L 50.671074 93.47891 
L 52.786777 93.723502 
L 54.902479 93.968094 
L 57.018182 94.212687 
L 59.133884 94.457279 
L 61.249587 94.701872 
L 63.365289 94.946464 
L 65.480992 95.191057 
L 67.596694 95.435649 
L 69.712397 95.680242 
L 71.828099 95.924834 
L 73.943802 96.169426 
L 76.059504 96.414019 
L 78.175207 96.658611 
L 80.290909 96.903204 
L 82.406612 97.147796 
L 84.522314 97.392389 
L 86.638017 97.636981 
L 88.753719 97.881574 
L 90.869421 98.126166 
L 92.985124 98.370758 
L 95.100826 98.615351 
L 97.216529 98.859943 
L 99.332231 99.104536 
L 101.447934 99.349128 
L 103.563636 99.593721 
L 105.679339 99.838313 
L 107.795041 100.082905 
L 109.910744 100.327498 
L 112.026446 100.57209 
L 114.142149 100.816683 
L 116.257851 101.061275 
L 118.373554 101.305868 
L 120.489256 101.55046 
L 122.604959 101.795053 
L 124.720661 102.039645 
L 126.836364 102.284237 
L 128.952066 102.52883 
L 131.067769 102.773422 
L 133.183471 103.018015 
L 135.299174 103.262607 
L 137.414876 103.5072 
L 139.530579 103.751792 
L 141.646281 103.996385 
L 143.761983 104.240977 
L 145.877686 104.485569 
L 147.993388 104.730162 
L 150.109091 104.974754 
L 152.224793 105.219347 
L 154.340496 105.463939 
L 156.456198 105.708532 
L 158.571901 105.953124 
L 160.687603 106.197716 
L 162.803306 106.442309 
L 164.919008 106.686901 
L 167.034711 106.931494 
L 169.150413 107.176086 
L 171.266116 107.420679 
L 173.381818 107.665271 
L 175.497521 107.909864 
L 177.613223 108.154456 
L 179.728926 108.399048 
L 181.844628 108.643641 
L 183.960331 108.888233 
L 186.076033 109.132826 
L 188.191736 109.377418 
L 190.307438 109.622011 
L 192.42314 109.866603 
L 194.538843 110.111195 
L 196.654545 110.355788 
L 198.770248 110.60038 
L 200.88595 110.844973 
L 203.001653 111.089565 
L 205.117355 111.334158 
L 207.233058 111.57875 
L 209.34876 111.823343 
L 211.464463 112.067935 
L 213.580165 112.312527 
L 215.695868 112.55712 
L 217.81157 112.801712 
L 219.927273 113.046305 
" style="fill:none;stroke:#1f77b4;stroke-linecap:square;stroke-width:3;"/>
   </g>
   <g id="line2d_2">
    <path clip-path="url(#p9dbe2a903a)" d="M 10.472727 23.52 
L 12.58843 31.270273 
L 14.704132 38.24125 
L 16.819835 44.522842 
L 18.935537 50.194947 
L 21.05124 55.328427 
L 23.166942 59.986017 
L 25.282645 64.223141 
L 27.398347 68.088677 
L 29.51405 71.625638 
L 31.629752 74.87181 
L 33.745455 77.860315 
L 35.861157 80.620135 
L 37.97686 83.17658 
L 40.092562 85.551713 
L 42.208264 87.764729 
L 44.323967 89.832301 
L 46.439669 91.768884 
L 48.555372 93.586995 
L 50.671074 95.297451 
L 52.786777 96.909591 
L 54.902479 98.431465 
L 57.018182 99.870006 
L 59.133884 101.231178 
L 61.249587 102.520106 
L 63.365289 103.741189 
L 65.480992 104.898202 
L 67.596694 105.994379 
L 69.712397 107.032489 
L 71.828099 108.014898 
L 73.943802 108.943623 
L 76.059504 109.820382 
L 78.175207 110.64663 
L 80.290909 111.423595 
L 82.406612 112.152306 
L 84.522314 112.833616 
L 86.638017 113.468225 
L 88.753719 114.056697 
L 90.869421 114.599475 
L 92.985124 115.096895 
L 95.100826 115.549197 
L 97.216529 115.956536 
L 99.332231 116.318991 
L 101.447934 116.636575 
L 103.563636 116.909245 
L 105.679339 117.136905 
L 107.795041 117.319418 
L 109.910744 117.456615 
L 112.026446 117.548296 
L 114.142149 117.594245 
L 116.257851 117.594236 
L 118.373554 117.548035 
L 120.489256 117.455415 
L 122.604959 117.316159 
L 124.720661 117.13007 
L 126.836364 116.896977 
L 128.952066 116.616743 
L 131.067769 116.289274 
L 133.183471 115.914524 
L 135.299174 115.492507 
L 137.414876 115.023303 
L 139.530579 114.507067 
L 141.646281 113.944038 
L 143.761983 113.334552 
L 145.877686 112.679053 
L 147.993388 111.978104 
L 150.109091 111.232405 
L 152.224793 110.44281 
L 154.340496 109.610347 
L 156.456198 108.736245 
L 158.571901 107.821958 
L 160.687603 106.869204 
L 162.803306 105.880001 
L 164.919008 104.856714 
L 167.034711 103.802113 
L 169.150413 102.719431 
L 171.266116 101.612443 
L 173.381818 100.485549 
L 175.497521 99.343874 
L 177.613223 98.193381 
L 179.728926 97.041003 
L 181.844628 95.89479 
L 183.960331 94.764082 
L 186.076033 93.659695 
L 188.191736 92.594147 
L 190.307438 91.581892 
L 192.42314 90.639603 
L 194.538843 89.786477 
L 196.654545 89.044574 
L 198.770248 88.439206 
L 200.88595 87.999353 
L 203.001653 87.75814 
L 205.117355 87.753351 
L 207.233058 88.028 
L 209.34876 88.630963 
L 211.464463 89.617667 
L 213.580165 91.050844 
L 215.695868 93.001358 
L 217.81157 95.549106 
L 219.927273 98.784 
" style="fill:none;stroke:#000000;stroke-dasharray:11.1,4.8;stroke-dashoffset:0;stroke-width:3;"/>
   </g>
   <g id="legend_1">
    <g id="line2d_3">
     <path d="M 77.5 14.872813 
L 116.5 14.872813 
" style="fill:none;stroke:#1f77b4;stroke-linecap:square;stroke-width:3;"/>
    </g>
    <g id="line2d_4"/>
    <g id="text_1">
     <!-- $\hat{f}$ -->
     <g transform="translate(129.5 23.972813)scale(0.26 -0.26)">
      <defs>
       <path d="M -28.609375 79.984375 
L -21.390625 79.984375 
L -9.421875 61.625 
L -16.21875 61.625 
L -25 73.578125 
L -33.796875 61.625 
L -40.578125 61.625 
z
M -25 56 
z
" id="DejaVuSans-770"/>
       <path d="M 47.796875 75.984375 
L 46.390625 68.5 
L 37.796875 68.5 
Q 32.90625 68.5 30.6875 66.578125 
Q 28.46875 64.65625 27.390625 59.515625 
L 26.421875 54.6875 
L 41.21875 54.6875 
L 39.890625 47.703125 
L 25.09375 47.703125 
L 15.828125 0 
L 6.78125 0 
L 16.109375 47.703125 
L 7.515625 47.703125 
L 8.796875 54.6875 
L 17.390625 54.6875 
L 18.109375 58.5 
Q 19.96875 68.171875 24.625 72.078125 
Q 29.296875 75.984375 39.3125 75.984375 
z
" id="DejaVuSans-Oblique-102"/>
      </defs>
      <use transform="translate(47.379395 33.015625)" xlink:href="#DejaVuSans-770"/>
      <use transform="translate(0 0.53125)" xlink:href="#DejaVuSans-Oblique-102"/>
     </g>
    </g>
    <g id="line2d_5">
     <path d="M 77.5 50.435938 
L 116.5 50.435938 
" style="fill:none;stroke:#000000;stroke-dasharray:11.1,4.8;stroke-dashoffset:0;stroke-width:3;"/>
    </g>
    <g id="line2d_6"/>
    <g id="text_2">
     <!-- $f^{\star}$ -->
     <g transform="translate(129.5 59.535938)scale(0.26 -0.26)">
      <defs>
       <path d="M 12.15625 37.359375 
L 26.765625 37.359375 
L 31.296875 51.21875 
L 35.890625 37.359375 
L 50.4375 37.359375 
L 38.625 28.765625 
L 43.21875 14.890625 
L 31.296875 23.484375 
L 19.4375 14.890625 
L 23.96875 28.765625 
z
" id="DejaVuSans-8902"/>
      </defs>
      <use transform="translate(0 0.015625)" xlink:href="#DejaVuSans-Oblique-102"/>
      <use transform="translate(42.652786 38.296875)scale(0.7)" xlink:href="#DejaVuSans-8902"/>
     </g>
    </g>
   </g>
  </g>
 </g>
 <defs>
  <clipPath id="p9dbe2a903a">
   <rect height="176.4" width="230.4" x="0" y="0"/>
  </clipPath>
 </defs>
</svg>
