<?xml version="1.0" encoding="utf-8" standalone="no"?>
<!DOCTYPE svg PUBLIC "-//W3C//DTD SVG 1.1//EN"
  "http://www.w3.org/Graphics/SVG/1.1/DTD/svg11.dtd">
<!-- Created with matplotlib (https://matplotlib.org/) -->
<svg height="176.4pt" version="1.1" viewBox="0 0 230.4 176.4" width="230.4pt" xmlns="http://www.w3.org/2000/svg" xmlns:xlink="http://www.w3.org/1999/xlink">
 <metadata>
  <rdf:RDF xmlns:cc="http://creativecommons.org/ns#" xmlns:dc="http://purl.org/dc/elements/1.1/" xmlns:rdf="http://www.w3.org/1999/02/22-rdf-syntax-ns#">
   <cc:Work>
    <dc:type rdf:resource="http://purl.org/dc/dcmitype/StillImage"/>
    <dc:date>2020-12-10T17:02:20.780885</dc:date>
    <dc:format>image/svg+xml</dc:format>
    <dc:creator>
     <cc:Agent>
      <dc:title>Matplotlib v3.3.3, https://matplotlib.org/</dc:title>
     </cc:Agent>
    </dc:creator>
   </cc:Work>
  </rdf:RDF>
 </metadata>
 <defs>
  <style type="text/css">*{stroke-linecap:butt;stroke-linejoin:round;}</style>
 </defs>
 <g id="figure_1">
  <g id="patch_1">
   <path d="M 0 176.4 
L 230.4 176.4 
L 230.4 0 
L 0 0 
z
" style="fill:none;"/>
  </g>
  <g id="axes_1">
   <g id="PathCollection_1">
    <defs>
     <path d="M 0 2.236068 
C 0.593012 2.236068 1.161816 2.000462 1.581139 1.581139 
C 2.000462 1.161816 2.236068 0.593012 2.236068 0 
C 2.236068 -0.593012 2.000462 -1.161816 1.581139 -1.581139 
C 1.161816 -2.000462 0.593012 -2.236068 0 -2.236068 
C -0.593012 -2.236068 -1.161816 -2.000462 -1.581139 -1.581139 
C -2.000462 -1.161816 -2.236068 -0.593012 -2.236068 0 
C -2.236068 0.593012 -2.000462 1.161816 -1.581139 1.581139 
C -1.161816 2.000462 -0.593012 2.236068 0 2.236068 
z
" id="m9dc2b2b39f" style="stroke:#000000;"/>
    </defs>
    <g clip-path="url(#pfae96a5077)">
     <use style="stroke:#000000;" x="125.42421" xlink:href="#m9dc2b2b39f" y="132.357943"/>
     <use style="stroke:#000000;" x="160.272391" xlink:href="#m9dc2b2b39f" y="139.540861"/>
     <use style="stroke:#000000;" x="136.724256" xlink:href="#m9dc2b2b39f" y="111.843193"/>
     <use style="stroke:#000000;" x="124.600987" xlink:href="#m9dc2b2b39f" y="124.701759"/>
     <use style="stroke:#000000;" x="99.209151" xlink:href="#m9dc2b2b39f" y="146.972946"/>
     <use style="stroke:#000000;" x="145.758185" xlink:href="#m9dc2b2b39f" y="104.009583"/>
     <use style="stroke:#000000;" x="102.127358" xlink:href="#m9dc2b2b39f" y="133.800764"/>
     <use style="stroke:#000000;" x="197.258636" xlink:href="#m9dc2b2b39f" y="87.8792"/>
     <use style="stroke:#000000;" x="212.316273" xlink:href="#m9dc2b2b39f" y="76.418631"/>
     <use style="stroke:#000000;" x="90.786296" xlink:href="#m9dc2b2b39f" y="112.152065"/>
     <use style="stroke:#000000;" x="176.303135" xlink:href="#m9dc2b2b39f" y="77.467514"/>
     <use style="stroke:#000000;" x="121.252172" xlink:href="#m9dc2b2b39f" y="140.645069"/>
     <use style="stroke:#000000;" x="129.452243" xlink:href="#m9dc2b2b39f" y="108.973131"/>
     <use style="stroke:#000000;" x="204.34315" xlink:href="#m9dc2b2b39f" y="100.610464"/>
     <use style="stroke:#000000;" x="25.351553" xlink:href="#m9dc2b2b39f" y="80.739566"/>
     <use style="stroke:#000000;" x="28.722355" xlink:href="#m9dc2b2b39f" y="81.229712"/>
     <use style="stroke:#000000;" x="14.707563" xlink:href="#m9dc2b2b39f" y="44.114142"/>
     <use style="stroke:#000000;" x="184.868739" xlink:href="#m9dc2b2b39f" y="93.229176"/>
     <use style="stroke:#000000;" x="173.461196" xlink:href="#m9dc2b2b39f" y="122.366407"/>
     <use style="stroke:#000000;" x="192.700726" xlink:href="#m9dc2b2b39f" y="73.572194"/>
     <use style="stroke:#000000;" x="215.448787" xlink:href="#m9dc2b2b39f" y="83.982484"/>
     <use style="stroke:#000000;" x="177.860121" xlink:href="#m9dc2b2b39f" y="126.964815"/>
     <use style="stroke:#000000;" x="107.131677" xlink:href="#m9dc2b2b39f" y="89.264108"/>
     <use style="stroke:#000000;" x="173.958111" xlink:href="#m9dc2b2b39f" y="64.50275"/>
     <use style="stroke:#000000;" x="35.245843" xlink:href="#m9dc2b2b39f" y="57.659606"/>
     <use style="stroke:#000000;" x="144.507094" xlink:href="#m9dc2b2b39f" y="116.494386"/>
     <use style="stroke:#000000;" x="40.498725" xlink:href="#m9dc2b2b39f" y="106.135866"/>
     <use style="stroke:#000000;" x="208.337926" xlink:href="#m9dc2b2b39f" y="68.458012"/>
     <use style="stroke:#000000;" x="119.77623" xlink:href="#m9dc2b2b39f" y="125.078006"/>
     <use style="stroke:#000000;" x="97.325555" xlink:href="#m9dc2b2b39f" y="92.974784"/>
     <use style="stroke:#000000;" x="65.885103" xlink:href="#m9dc2b2b39f" y="101.193285"/>
     <use style="stroke:#000000;" x="172.639493" xlink:href="#m9dc2b2b39f" y="82.506459"/>
     <use style="stroke:#000000;" x="106.015488" xlink:href="#m9dc2b2b39f" y="110.463534"/>
     <use style="stroke:#000000;" x="129.533802" xlink:href="#m9dc2b2b39f" y="103.236532"/>
     <use style="stroke:#000000;" x="14.408336" xlink:href="#m9dc2b2b39f" y="37.112468"/>
     <use style="stroke:#000000;" x="139.83929" xlink:href="#m9dc2b2b39f" y="80.824882"/>
     <use style="stroke:#000000;" x="138.678959" xlink:href="#m9dc2b2b39f" y="112.332528"/>
     <use style="stroke:#000000;" x="139.692357" xlink:href="#m9dc2b2b39f" y="106.901831"/>
     <use style="stroke:#000000;" x="208.145052" xlink:href="#m9dc2b2b39f" y="52.811207"/>
     <use style="stroke:#000000;" x="153.283088" xlink:href="#m9dc2b2b39f" y="135.391125"/>
     <use style="stroke:#000000;" x="85.773291" xlink:href="#m9dc2b2b39f" y="137.119898"/>
     <use style="stroke:#000000;" x="102.011057" xlink:href="#m9dc2b2b39f" y="98.473371"/>
     <use style="stroke:#000000;" x="156.594752" xlink:href="#m9dc2b2b39f" y="130.751072"/>
     <use style="stroke:#000000;" x="23.087226" xlink:href="#m9dc2b2b39f" y="23.2473"/>
     <use style="stroke:#000000;" x="150.130047" xlink:href="#m9dc2b2b39f" y="119.007452"/>
     <use style="stroke:#000000;" x="150.940877" xlink:href="#m9dc2b2b39f" y="124.99127"/>
     <use style="stroke:#000000;" x="54.538311" xlink:href="#m9dc2b2b39f" y="61.99355"/>
     <use style="stroke:#000000;" x="37.476926" xlink:href="#m9dc2b2b39f" y="54.732265"/>
     <use style="stroke:#000000;" x="76.540629" xlink:href="#m9dc2b2b39f" y="74.872677"/>
     <use style="stroke:#000000;" x="86.653601" xlink:href="#m9dc2b2b39f" y="96.424591"/>
     <use style="stroke:#000000;" x="129.903033" xlink:href="#m9dc2b2b39f" y="132.680223"/>
     <use style="stroke:#000000;" x="102.339808" xlink:href="#m9dc2b2b39f" y="80.817218"/>
     <use style="stroke:#000000;" x="217.49212" xlink:href="#m9dc2b2b39f" y="100.165461"/>
     <use style="stroke:#000000;" x="31.846477" xlink:href="#m9dc2b2b39f" y="60.090246"/>
     <use style="stroke:#000000;" x="54.222913" xlink:href="#m9dc2b2b39f" y="80.128541"/>
     <use style="stroke:#000000;" x="44.259739" xlink:href="#m9dc2b2b39f" y="92.6882"/>
     <use style="stroke:#000000;" x="147.269235" xlink:href="#m9dc2b2b39f" y="100.66858"/>
     <use style="stroke:#000000;" x="63.525805" xlink:href="#m9dc2b2b39f" y="86.478932"/>
     <use style="stroke:#000000;" x="108.143638" xlink:href="#m9dc2b2b39f" y="110.262324"/>
     <use style="stroke:#000000;" x="61.668779" xlink:href="#m9dc2b2b39f" y="123.45363"/>
     <use style="stroke:#000000;" x="43.769629" xlink:href="#m9dc2b2b39f" y="83.69214"/>
     <use style="stroke:#000000;" x="33.591302" xlink:href="#m9dc2b2b39f" y="52.693344"/>
     <use style="stroke:#000000;" x="147.943943" xlink:href="#m9dc2b2b39f" y="125.063988"/>
     <use style="stroke:#000000;" x="39.415775" xlink:href="#m9dc2b2b39f" y="87.625961"/>
     <use style="stroke:#000000;" x="51.647796" xlink:href="#m9dc2b2b39f" y="104.241252"/>
     <use style="stroke:#000000;" x="87.70389" xlink:href="#m9dc2b2b39f" y="78.974682"/>
     <use style="stroke:#000000;" x="182.433491" xlink:href="#m9dc2b2b39f" y="82.928191"/>
     <use style="stroke:#000000;" x="30.811031" xlink:href="#m9dc2b2b39f" y="65.981107"/>
     <use style="stroke:#000000;" x="185.984097" xlink:href="#m9dc2b2b39f" y="108.193716"/>
     <use style="stroke:#000000;" x="30.600976" xlink:href="#m9dc2b2b39f" y="63.180952"/>
     <use style="stroke:#000000;" x="214.996601" xlink:href="#m9dc2b2b39f" y="104.98297"/>
     <use style="stroke:#000000;" x="108.633852" xlink:href="#m9dc2b2b39f" y="116.780321"/>
     <use style="stroke:#000000;" x="215.059777" xlink:href="#m9dc2b2b39f" y="104.32005"/>
     <use style="stroke:#000000;" x="137.160371" xlink:href="#m9dc2b2b39f" y="102.354469"/>
     <use style="stroke:#000000;" x="165.314844" xlink:href="#m9dc2b2b39f" y="93.812562"/>
     <use style="stroke:#000000;" x="18.680788" xlink:href="#m9dc2b2b39f" y="53.461171"/>
     <use style="stroke:#000000;" x="69.707931" xlink:href="#m9dc2b2b39f" y="99.579095"/>
     <use style="stroke:#000000;" x="35.648443" xlink:href="#m9dc2b2b39f" y="100.919295"/>
     <use style="stroke:#000000;" x="72.500638" xlink:href="#m9dc2b2b39f" y="136.375356"/>
     <use style="stroke:#000000;" x="35.340788" xlink:href="#m9dc2b2b39f" y="71.693523"/>
    </g>
   </g>
   <g id="line2d_1">
    <path clip-path="url(#pfae96a5077)" d="M 10.472727 80.594472 
L 12.58843 80.91109 
L 14.704132 81.227708 
L 16.819835 81.544326 
L 18.935537 81.860944 
L 21.05124 82.177562 
L 23.166942 82.49418 
L 25.282645 82.810798 
L 27.398347 83.127416 
L 29.51405 83.444034 
L 31.629752 83.760652 
L 33.745455 84.07727 
L 35.861157 84.393888 
L 37.97686 84.710506 
L 40.092562 85.027124 
L 42.208264 85.343742 
L 44.323967 85.66036 
L 46.439669 85.976978 
L 48.555372 86.293596 
L 50.671074 86.610214 
L 52.786777 86.926832 
L 54.902479 87.24345 
L 57.018182 87.560068 
L 59.133884 87.876686 
L 61.249587 88.193304 
L 63.365289 88.509922 
L 65.480992 88.82654 
L 67.596694 89.143158 
L 69.712397 89.459776 
L 71.828099 89.776394 
L 73.943802 90.093012 
L 76.059504 90.40963 
L 78.175207 90.726248 
L 80.290909 91.042866 
L 82.406612 91.359484 
L 84.522314 91.676102 
L 86.638017 91.99272 
L 88.753719 92.309338 
L 90.869421 92.625956 
L 92.985124 92.942574 
L 95.100826 93.259192 
L 97.216529 93.57581 
L 99.332231 93.892428 
L 101.447934 94.209046 
L 103.563636 94.525664 
L 105.679339 94.842282 
L 107.795041 95.1589 
L 109.910744 95.475518 
L 112.026446 95.792136 
L 114.142149 96.108754 
L 116.257851 96.425372 
L 118.373554 96.74199 
L 120.489256 97.058608 
L 122.604959 97.375226 
L 124.720661 97.691844 
L 126.836364 98.008462 
L 128.952066 98.32508 
L 131.067769 98.641698 
L 133.183471 98.958316 
L 135.299174 99.274934 
L 137.414876 99.591552 
L 139.530579 99.90817 
L 141.646281 100.224788 
L 143.761983 100.541406 
L 145.877686 100.858024 
L 147.993388 101.174642 
L 150.109091 101.49126 
L 152.224793 101.807878 
L 154.340496 102.124496 
L 156.456198 102.441114 
L 158.571901 102.757732 
L 160.687603 103.07435 
L 162.803306 103.390968 
L 164.919008 103.707586 
L 167.034711 104.024204 
L 169.150413 104.340822 
L 171.266116 104.65744 
L 173.381818 104.974058 
L 175.497521 105.290676 
L 177.613223 105.607294 
L 179.728926 105.923912 
L 181.844628 106.24053 
L 183.960331 106.557148 
L 186.076033 106.873766 
L 188.191736 107.190384 
L 190.307438 107.507002 
L 192.42314 107.82362 
L 194.538843 108.140238 
L 196.654545 108.456856 
L 198.770248 108.773474 
L 200.88595 109.090092 
L 203.001653 109.40671 
L 205.117355 109.723328 
L 207.233058 110.039947 
L 209.34876 110.356565 
L 211.464463 110.673183 
L 213.580165 110.989801 
L 215.695868 111.306419 
L 217.81157 111.623037 
L 219.927273 111.939655 
" style="fill:none;stroke:#1f77b4;stroke-linecap:square;stroke-width:3;"/>
   </g>
   <g id="line2d_2">
    <path clip-path="url(#pfae96a5077)" d="M 10.472727 23.52 
L 12.58843 31.270273 
L 14.704132 38.24125 
L 16.819835 44.522842 
L 18.935537 50.194947 
L 21.05124 55.328427 
L 23.166942 59.986017 
L 25.282645 64.223141 
L 27.398347 68.088677 
L 29.51405 71.625638 
L 31.629752 74.87181 
L 33.745455 77.860315 
L 35.861157 80.620135 
L 37.97686 83.17658 
L 40.092562 85.551713 
L 42.208264 87.764729 
L 44.323967 89.832301 
L 46.439669 91.768884 
L 48.555372 93.586995 
L 50.671074 95.297451 
L 52.786777 96.909591 
L 54.902479 98.431465 
L 57.018182 99.870006 
L 59.133884 101.231178 
L 61.249587 102.520106 
L 63.365289 103.741189 
L 65.480992 104.898202 
L 67.596694 105.994379 
L 69.712397 107.032489 
L 71.828099 108.014898 
L 73.943802 108.943623 
L 76.059504 109.820382 
L 78.175207 110.64663 
L 80.290909 111.423595 
L 82.406612 112.152306 
L 84.522314 112.833616 
L 86.638017 113.468225 
L 88.753719 114.056697 
L 90.869421 114.599475 
L 92.985124 115.096895 
L 95.100826 115.549197 
L 97.216529 115.956536 
L 99.332231 116.318991 
L 101.447934 116.636575 
L 103.563636 116.909245 
L 105.679339 117.136905 
L 107.795041 117.319418 
L 109.910744 117.456615 
L 112.026446 117.548296 
L 114.142149 117.594245 
L 116.257851 117.594236 
L 118.373554 117.548035 
L 120.489256 117.455415 
L 122.604959 117.316159 
L 124.720661 117.13007 
L 126.836364 116.896977 
L 128.952066 116.616743 
L 131.067769 116.289274 
L 133.183471 115.914524 
L 135.299174 115.492507 
L 137.414876 115.023303 
L 139.530579 114.507067 
L 141.646281 113.944038 
L 143.761983 113.334552 
L 145.877686 112.679053 
L 147.993388 111.978104 
L 150.109091 111.232405 
L 152.224793 110.44281 
L 154.340496 109.610347 
L 156.456198 108.736245 
L 158.571901 107.821958 
L 160.687603 106.869204 
L 162.803306 105.880001 
L 164.919008 104.856714 
L 167.034711 103.802113 
L 169.150413 102.719431 
L 171.266116 101.612443 
L 173.381818 100.485549 
L 175.497521 99.343874 
L 177.613223 98.193381 
L 179.728926 97.041003 
L 181.844628 95.89479 
L 183.960331 94.764082 
L 186.076033 93.659695 
L 188.191736 92.594147 
L 190.307438 91.581892 
L 192.42314 90.639603 
L 194.538843 89.786477 
L 196.654545 89.044574 
L 198.770248 88.439206 
L 200.88595 87.999353 
L 203.001653 87.75814 
L 205.117355 87.753351 
L 207.233058 88.028 
L 209.34876 88.630963 
L 211.464463 89.617667 
L 213.580165 91.050844 
L 215.695868 93.001358 
L 217.81157 95.549106 
L 219.927273 98.784 
" style="fill:none;stroke:#000000;stroke-dasharray:11.1,4.8;stroke-dashoffset:0;stroke-width:3;"/>
   </g>
   <g id="legend_1">
    <g id="line2d_3">
     <path d="M 37.4675 6.5575 
L 61.4675 6.5575 
" style="fill:none;stroke:#1f77b4;stroke-linecap:square;stroke-width:3;"/>
    </g>
    <g id="line2d_4"/>
    <g id="text_1">
     <!-- Fitted model -->
     <g transform="translate(69.4675 12.1575)scale(0.16 -0.16)">
      <defs>
       <path d="M 9.8125 72.90625 
L 51.703125 72.90625 
L 51.703125 64.59375 
L 19.671875 64.59375 
L 19.671875 43.109375 
L 48.578125 43.109375 
L 48.578125 34.8125 
L 19.671875 34.8125 
L 19.671875 0 
L 9.8125 0 
z
" id="DejaVuSans-70"/>
       <path d="M 9.421875 54.6875 
L 18.40625 54.6875 
L 18.40625 0 
L 9.421875 0 
z
M 9.421875 75.984375 
L 18.40625 75.984375 
L 18.40625 64.59375 
L 9.421875 64.59375 
z
" id="DejaVuSans-105"/>
       <path d="M 18.3125 70.21875 
L 18.3125 54.6875 
L 36.8125 54.6875 
L 36.8125 47.703125 
L 18.3125 47.703125 
L 18.3125 18.015625 
Q 18.3125 11.328125 20.140625 9.421875 
Q 21.96875 7.515625 27.59375 7.515625 
L 36.8125 7.515625 
L 36.8125 0 
L 27.59375 0 
Q 17.1875 0 13.234375 3.875 
Q 9.28125 7.765625 9.28125 18.015625 
L 9.28125 47.703125 
L 2.6875 47.703125 
L 2.6875 54.6875 
L 9.28125 54.6875 
L 9.28125 70.21875 
z
" id="DejaVuSans-116"/>
       <path d="M 56.203125 29.59375 
L 56.203125 25.203125 
L 14.890625 25.203125 
Q 15.484375 15.921875 20.484375 11.0625 
Q 25.484375 6.203125 34.421875 6.203125 
Q 39.59375 6.203125 44.453125 7.46875 
Q 49.3125 8.734375 54.109375 11.28125 
L 54.109375 2.78125 
Q 49.265625 0.734375 44.1875 -0.34375 
Q 39.109375 -1.421875 33.890625 -1.421875 
Q 20.796875 -1.421875 13.15625 6.1875 
Q 5.515625 13.8125 5.515625 26.8125 
Q 5.515625 40.234375 12.765625 48.109375 
Q 20.015625 56 32.328125 56 
Q 43.359375 56 49.78125 48.890625 
Q 56.203125 41.796875 56.203125 29.59375 
z
M 47.21875 32.234375 
Q 47.125 39.59375 43.09375 43.984375 
Q 39.0625 48.390625 32.421875 48.390625 
Q 24.90625 48.390625 20.390625 44.140625 
Q 15.875 39.890625 15.1875 32.171875 
z
" id="DejaVuSans-101"/>
       <path d="M 45.40625 46.390625 
L 45.40625 75.984375 
L 54.390625 75.984375 
L 54.390625 0 
L 45.40625 0 
L 45.40625 8.203125 
Q 42.578125 3.328125 38.25 0.953125 
Q 33.9375 -1.421875 27.875 -1.421875 
Q 17.96875 -1.421875 11.734375 6.484375 
Q 5.515625 14.40625 5.515625 27.296875 
Q 5.515625 40.1875 11.734375 48.09375 
Q 17.96875 56 27.875 56 
Q 33.9375 56 38.25 53.625 
Q 42.578125 51.265625 45.40625 46.390625 
z
M 14.796875 27.296875 
Q 14.796875 17.390625 18.875 11.75 
Q 22.953125 6.109375 30.078125 6.109375 
Q 37.203125 6.109375 41.296875 11.75 
Q 45.40625 17.390625 45.40625 27.296875 
Q 45.40625 37.203125 41.296875 42.84375 
Q 37.203125 48.484375 30.078125 48.484375 
Q 22.953125 48.484375 18.875 42.84375 
Q 14.796875 37.203125 14.796875 27.296875 
z
" id="DejaVuSans-100"/>
       <path id="DejaVuSans-32"/>
       <path d="M 52 44.1875 
Q 55.375 50.25 60.0625 53.125 
Q 64.75 56 71.09375 56 
Q 79.640625 56 84.28125 50.015625 
Q 88.921875 44.046875 88.921875 33.015625 
L 88.921875 0 
L 79.890625 0 
L 79.890625 32.71875 
Q 79.890625 40.578125 77.09375 44.375 
Q 74.3125 48.1875 68.609375 48.1875 
Q 61.625 48.1875 57.5625 43.546875 
Q 53.515625 38.921875 53.515625 30.90625 
L 53.515625 0 
L 44.484375 0 
L 44.484375 32.71875 
Q 44.484375 40.625 41.703125 44.40625 
Q 38.921875 48.1875 33.109375 48.1875 
Q 26.21875 48.1875 22.15625 43.53125 
Q 18.109375 38.875 18.109375 30.90625 
L 18.109375 0 
L 9.078125 0 
L 9.078125 54.6875 
L 18.109375 54.6875 
L 18.109375 46.1875 
Q 21.1875 51.21875 25.484375 53.609375 
Q 29.78125 56 35.6875 56 
Q 41.65625 56 45.828125 52.96875 
Q 50 49.953125 52 44.1875 
z
" id="DejaVuSans-109"/>
       <path d="M 30.609375 48.390625 
Q 23.390625 48.390625 19.1875 42.75 
Q 14.984375 37.109375 14.984375 27.296875 
Q 14.984375 17.484375 19.15625 11.84375 
Q 23.34375 6.203125 30.609375 6.203125 
Q 37.796875 6.203125 41.984375 11.859375 
Q 46.1875 17.53125 46.1875 27.296875 
Q 46.1875 37.015625 41.984375 42.703125 
Q 37.796875 48.390625 30.609375 48.390625 
z
M 30.609375 56 
Q 42.328125 56 49.015625 48.375 
Q 55.71875 40.765625 55.71875 27.296875 
Q 55.71875 13.875 49.015625 6.21875 
Q 42.328125 -1.421875 30.609375 -1.421875 
Q 18.84375 -1.421875 12.171875 6.21875 
Q 5.515625 13.875 5.515625 27.296875 
Q 5.515625 40.765625 12.171875 48.375 
Q 18.84375 56 30.609375 56 
z
" id="DejaVuSans-111"/>
       <path d="M 9.421875 75.984375 
L 18.40625 75.984375 
L 18.40625 0 
L 9.421875 0 
z
" id="DejaVuSans-108"/>
      </defs>
      <use xlink:href="#DejaVuSans-70"/>
      <use x="50.269531" xlink:href="#DejaVuSans-105"/>
      <use x="78.052734" xlink:href="#DejaVuSans-116"/>
      <use x="117.261719" xlink:href="#DejaVuSans-116"/>
      <use x="156.470703" xlink:href="#DejaVuSans-101"/>
      <use x="217.994141" xlink:href="#DejaVuSans-100"/>
      <use x="281.470703" xlink:href="#DejaVuSans-32"/>
      <use x="313.257812" xlink:href="#DejaVuSans-109"/>
      <use x="410.669922" xlink:href="#DejaVuSans-111"/>
      <use x="471.851562" xlink:href="#DejaVuSans-100"/>
      <use x="535.328125" xlink:href="#DejaVuSans-101"/>
      <use x="596.851562" xlink:href="#DejaVuSans-108"/>
     </g>
    </g>
    <g id="line2d_5">
     <path d="M 37.4675 28.4425 
L 61.4675 28.4425 
" style="fill:none;stroke:#000000;stroke-dasharray:11.1,4.8;stroke-dashoffset:0;stroke-width:3;"/>
    </g>
    <g id="line2d_6"/>
    <g id="text_2">
     <!-- Best possible model -->
     <g transform="translate(69.4675 34.0425)scale(0.16 -0.16)">
      <defs>
       <path d="M 19.671875 34.8125 
L 19.671875 8.109375 
L 35.5 8.109375 
Q 43.453125 8.109375 47.28125 11.40625 
Q 51.125 14.703125 51.125 21.484375 
Q 51.125 28.328125 47.28125 31.5625 
Q 43.453125 34.8125 35.5 34.8125 
z
M 19.671875 64.796875 
L 19.671875 42.828125 
L 34.28125 42.828125 
Q 41.5 42.828125 45.03125 45.53125 
Q 48.578125 48.25 48.578125 53.8125 
Q 48.578125 59.328125 45.03125 62.0625 
Q 41.5 64.796875 34.28125 64.796875 
z
M 9.8125 72.90625 
L 35.015625 72.90625 
Q 46.296875 72.90625 52.390625 68.21875 
Q 58.5 63.53125 58.5 54.890625 
Q 58.5 48.1875 55.375 44.234375 
Q 52.25 40.28125 46.1875 39.3125 
Q 53.46875 37.75 57.5 32.78125 
Q 61.53125 27.828125 61.53125 20.40625 
Q 61.53125 10.640625 54.890625 5.3125 
Q 48.25 0 35.984375 0 
L 9.8125 0 
z
" id="DejaVuSans-66"/>
       <path d="M 44.28125 53.078125 
L 44.28125 44.578125 
Q 40.484375 46.53125 36.375 47.5 
Q 32.28125 48.484375 27.875 48.484375 
Q 21.1875 48.484375 17.84375 46.4375 
Q 14.5 44.390625 14.5 40.28125 
Q 14.5 37.15625 16.890625 35.375 
Q 19.28125 33.59375 26.515625 31.984375 
L 29.59375 31.296875 
Q 39.15625 29.25 43.1875 25.515625 
Q 47.21875 21.78125 47.21875 15.09375 
Q 47.21875 7.46875 41.1875 3.015625 
Q 35.15625 -1.421875 24.609375 -1.421875 
Q 20.21875 -1.421875 15.453125 -0.5625 
Q 10.6875 0.296875 5.421875 2 
L 5.421875 11.28125 
Q 10.40625 8.6875 15.234375 7.390625 
Q 20.0625 6.109375 24.8125 6.109375 
Q 31.15625 6.109375 34.5625 8.28125 
Q 37.984375 10.453125 37.984375 14.40625 
Q 37.984375 18.0625 35.515625 20.015625 
Q 33.0625 21.96875 24.703125 23.78125 
L 21.578125 24.515625 
Q 13.234375 26.265625 9.515625 29.90625 
Q 5.8125 33.546875 5.8125 39.890625 
Q 5.8125 47.609375 11.28125 51.796875 
Q 16.75 56 26.8125 56 
Q 31.78125 56 36.171875 55.265625 
Q 40.578125 54.546875 44.28125 53.078125 
z
" id="DejaVuSans-115"/>
       <path d="M 18.109375 8.203125 
L 18.109375 -20.796875 
L 9.078125 -20.796875 
L 9.078125 54.6875 
L 18.109375 54.6875 
L 18.109375 46.390625 
Q 20.953125 51.265625 25.265625 53.625 
Q 29.59375 56 35.59375 56 
Q 45.5625 56 51.78125 48.09375 
Q 58.015625 40.1875 58.015625 27.296875 
Q 58.015625 14.40625 51.78125 6.484375 
Q 45.5625 -1.421875 35.59375 -1.421875 
Q 29.59375 -1.421875 25.265625 0.953125 
Q 20.953125 3.328125 18.109375 8.203125 
z
M 48.6875 27.296875 
Q 48.6875 37.203125 44.609375 42.84375 
Q 40.53125 48.484375 33.40625 48.484375 
Q 26.265625 48.484375 22.1875 42.84375 
Q 18.109375 37.203125 18.109375 27.296875 
Q 18.109375 17.390625 22.1875 11.75 
Q 26.265625 6.109375 33.40625 6.109375 
Q 40.53125 6.109375 44.609375 11.75 
Q 48.6875 17.390625 48.6875 27.296875 
z
" id="DejaVuSans-112"/>
       <path d="M 48.6875 27.296875 
Q 48.6875 37.203125 44.609375 42.84375 
Q 40.53125 48.484375 33.40625 48.484375 
Q 26.265625 48.484375 22.1875 42.84375 
Q 18.109375 37.203125 18.109375 27.296875 
Q 18.109375 17.390625 22.1875 11.75 
Q 26.265625 6.109375 33.40625 6.109375 
Q 40.53125 6.109375 44.609375 11.75 
Q 48.6875 17.390625 48.6875 27.296875 
z
M 18.109375 46.390625 
Q 20.953125 51.265625 25.265625 53.625 
Q 29.59375 56 35.59375 56 
Q 45.5625 56 51.78125 48.09375 
Q 58.015625 40.1875 58.015625 27.296875 
Q 58.015625 14.40625 51.78125 6.484375 
Q 45.5625 -1.421875 35.59375 -1.421875 
Q 29.59375 -1.421875 25.265625 0.953125 
Q 20.953125 3.328125 18.109375 8.203125 
L 18.109375 0 
L 9.078125 0 
L 9.078125 75.984375 
L 18.109375 75.984375 
z
" id="DejaVuSans-98"/>
      </defs>
      <use xlink:href="#DejaVuSans-66"/>
      <use x="68.603516" xlink:href="#DejaVuSans-101"/>
      <use x="130.126953" xlink:href="#DejaVuSans-115"/>
      <use x="182.226562" xlink:href="#DejaVuSans-116"/>
      <use x="221.435547" xlink:href="#DejaVuSans-32"/>
      <use x="253.222656" xlink:href="#DejaVuSans-112"/>
      <use x="316.699219" xlink:href="#DejaVuSans-111"/>
      <use x="377.880859" xlink:href="#DejaVuSans-115"/>
      <use x="429.980469" xlink:href="#DejaVuSans-115"/>
      <use x="482.080078" xlink:href="#DejaVuSans-105"/>
      <use x="509.863281" xlink:href="#DejaVuSans-98"/>
      <use x="573.339844" xlink:href="#DejaVuSans-108"/>
      <use x="601.123047" xlink:href="#DejaVuSans-101"/>
      <use x="662.646484" xlink:href="#DejaVuSans-32"/>
      <use x="694.433594" xlink:href="#DejaVuSans-109"/>
      <use x="791.845703" xlink:href="#DejaVuSans-111"/>
      <use x="853.027344" xlink:href="#DejaVuSans-100"/>
      <use x="916.503906" xlink:href="#DejaVuSans-101"/>
      <use x="978.027344" xlink:href="#DejaVuSans-108"/>
     </g>
    </g>
   </g>
  </g>
 </g>
 <defs>
  <clipPath id="pfae96a5077">
   <rect height="176.4" width="230.4" x="0" y="0"/>
  </clipPath>
 </defs>
</svg>
