<?xml version="1.0" encoding="utf-8" standalone="no"?>
<!DOCTYPE svg PUBLIC "-//W3C//DTD SVG 1.1//EN"
  "http://www.w3.org/Graphics/SVG/1.1/DTD/svg11.dtd">
<!-- Created with matplotlib (https://matplotlib.org/) -->
<svg height="176.4pt" version="1.1" viewBox="0 0 230.4 176.4" width="230.4pt" xmlns="http://www.w3.org/2000/svg" xmlns:xlink="http://www.w3.org/1999/xlink">
 <metadata>
  <rdf:RDF xmlns:cc="http://creativecommons.org/ns#" xmlns:dc="http://purl.org/dc/elements/1.1/" xmlns:rdf="http://www.w3.org/1999/02/22-rdf-syntax-ns#">
   <cc:Work>
    <dc:type rdf:resource="http://purl.org/dc/dcmitype/StillImage"/>
    <dc:date>2020-12-10T16:30:38.701679</dc:date>
    <dc:format>image/svg+xml</dc:format>
    <dc:creator>
     <cc:Agent>
      <dc:title>Matplotlib v3.3.3, https://matplotlib.org/</dc:title>
     </cc:Agent>
    </dc:creator>
   </cc:Work>
  </rdf:RDF>
 </metadata>
 <defs>
  <style type="text/css">*{stroke-linecap:butt;stroke-linejoin:round;}</style>
 </defs>
 <g id="figure_1">
  <g id="patch_1">
   <path d="M 0 176.4 
L 230.4 176.4 
L 230.4 0 
L 0 0 
z
" style="fill:none;"/>
  </g>
  <g id="axes_1">
   <g id="PathCollection_1">
    <defs>
     <path d="M 0 2.236068 
C 0.593012 2.236068 1.161816 2.000462 1.581139 1.581139 
C 2.000462 1.161816 2.236068 0.593012 2.236068 0 
C 2.236068 -0.593012 2.000462 -1.161816 1.581139 -1.581139 
C 1.161816 -2.000462 0.593012 -2.236068 0 -2.236068 
C -0.593012 -2.236068 -1.161816 -2.000462 -1.581139 -1.581139 
C -2.000462 -1.161816 -2.236068 -0.593012 -2.236068 0 
C -2.236068 0.593012 -2.000462 1.161816 -1.581139 1.581139 
C -1.161816 2.000462 -0.593012 2.236068 0 2.236068 
z
" id="mf1dfa8e2bb" style="stroke:#000000;"/>
    </defs>
    <g clip-path="url(#pb57c63841f)">
     <use style="stroke:#000000;" x="97.819882" xlink:href="#mf1dfa8e2bb" y="119.308882"/>
     <use style="stroke:#000000;" x="161.347967" xlink:href="#mf1dfa8e2bb" y="123.082042"/>
     <use style="stroke:#000000;" x="10.496684" xlink:href="#mf1dfa8e2bb" y="22.818189"/>
     <use style="stroke:#000000;" x="73.797659" xlink:href="#mf1dfa8e2bb" y="97.914909"/>
     <use style="stroke:#000000;" x="41.211416" xlink:href="#mf1dfa8e2bb" y="107.450364"/>
     <use style="stroke:#000000;" x="29.813466" xlink:href="#mf1dfa8e2bb" y="50.562769"/>
     <use style="stroke:#000000;" x="49.485775" xlink:href="#mf1dfa8e2bb" y="77.387533"/>
     <use style="stroke:#000000;" x="82.851992" xlink:href="#mf1dfa8e2bb" y="102.844709"/>
     <use style="stroke:#000000;" x="93.577478" xlink:href="#mf1dfa8e2bb" y="98.277565"/>
     <use style="stroke:#000000;" x="123.330341" xlink:href="#mf1dfa8e2bb" y="130.122666"/>
     <use style="stroke:#000000;" x="98.274924" xlink:href="#mf1dfa8e2bb" y="118.455767"/>
     <use style="stroke:#000000;" x="153.995066" xlink:href="#mf1dfa8e2bb" y="127.35658"/>
     <use style="stroke:#000000;" x="53.29618" xlink:href="#mf1dfa8e2bb" y="102.324569"/>
     <use style="stroke:#000000;" x="194.398416" xlink:href="#mf1dfa8e2bb" y="79.860747"/>
     <use style="stroke:#000000;" x="16.209183" xlink:href="#mf1dfa8e2bb" y="55.790001"/>
     <use style="stroke:#000000;" x="150.905195" xlink:href="#mf1dfa8e2bb" y="118.405707"/>
     <use style="stroke:#000000;" x="97.879115" xlink:href="#mf1dfa8e2bb" y="129.004715"/>
     <use style="stroke:#000000;" x="127.492851" xlink:href="#mf1dfa8e2bb" y="132.718462"/>
     <use style="stroke:#000000;" x="39.87741" xlink:href="#mf1dfa8e2bb" y="97.948052"/>
     <use style="stroke:#000000;" x="51.965985" xlink:href="#mf1dfa8e2bb" y="96.533586"/>
     <use style="stroke:#000000;" x="178.192317" xlink:href="#mf1dfa8e2bb" y="118.901142"/>
     <use style="stroke:#000000;" x="213.279515" xlink:href="#mf1dfa8e2bb" y="86.406621"/>
     <use style="stroke:#000000;" x="76.120846" xlink:href="#mf1dfa8e2bb" y="78.614205"/>
     <use style="stroke:#000000;" x="155.482846" xlink:href="#mf1dfa8e2bb" y="95.181167"/>
     <use style="stroke:#000000;" x="194.036419" xlink:href="#mf1dfa8e2bb" y="93.589454"/>
     <use style="stroke:#000000;" x="197.852159" xlink:href="#mf1dfa8e2bb" y="105.384989"/>
     <use style="stroke:#000000;" x="28.285624" xlink:href="#mf1dfa8e2bb" y="83.668242"/>
     <use style="stroke:#000000;" x="18.652929" xlink:href="#mf1dfa8e2bb" y="17.624692"/>
     <use style="stroke:#000000;" x="46.044481" xlink:href="#mf1dfa8e2bb" y="90.460504"/>
     <use style="stroke:#000000;" x="194.403666" xlink:href="#mf1dfa8e2bb" y="101.823619"/>
    </g>
   </g>
   <g id="line2d_1">
    <path clip-path="url(#pb57c63841f)" d="M 10.472727 27.953691 
L 12.58843 26.242474 
L 14.704132 28.064304 
L 16.819835 32.378493 
L 18.935537 38.328975 
L 21.05124 45.222228 
L 23.166942 52.50699 
L 25.282645 59.755667 
L 27.398347 66.64735 
L 29.51405 72.952349 
L 31.629752 78.518162 
L 33.745455 83.256798 
L 35.861157 87.133365 
L 37.97686 90.155862 
L 40.092562 92.366084 
L 42.208264 93.831577 
L 44.323967 94.638569 
L 46.439669 94.885812 
L 48.555372 94.679269 
L 50.671074 94.127576 
L 52.786777 93.338234 
L 54.902479 92.414454 
L 57.018182 91.452614 
L 59.133884 90.540263 
L 61.249587 89.754629 
L 63.365289 89.161577 
L 65.480992 88.814967 
L 67.596694 88.756372 
L 69.712397 89.015114 
L 71.828099 89.60857 
L 73.943802 90.542711 
L 76.059504 91.81285 
L 78.175207 93.40454 
L 80.290909 95.294613 
L 82.406612 97.452315 
L 84.522314 99.840513 
L 86.638017 102.416948 
L 88.753719 105.135508 
L 90.869421 107.947493 
L 92.985124 110.802867 
L 95.100826 113.651454 
L 97.216529 116.444086 
L 99.332231 119.133664 
L 101.447934 121.676137 
L 103.563636 124.031381 
L 105.679339 126.163955 
L 107.795041 128.043756 
L 109.910744 129.646529 
L 112.026446 130.95426 
L 114.142149 131.955425 
L 116.257851 132.645112 
L 118.373554 133.024994 
L 120.489256 133.103185 
L 122.604959 132.89395 
L 124.720661 132.417298 
L 126.836364 131.698451 
L 128.952066 130.767203 
L 131.067769 129.657175 
L 133.183471 128.404984 
L 135.299174 127.049323 
L 137.414876 125.629987 
L 139.530579 124.186844 
L 141.646281 122.758766 
L 143.761983 121.382562 
L 145.877686 120.091896 
L 147.993388 118.916242 
L 150.109091 117.879885 
L 152.224793 117.000985 
L 154.340496 116.290744 
L 156.456198 115.752692 
L 158.571901 115.382113 
L 160.687603 115.16566 
L 162.803306 115.081167 
L 164.919008 115.097696 
L 167.034711 115.175858 
L 169.150413 115.268432 
L 171.266116 115.321314 
L 173.381818 115.274848 
L 175.497521 115.065546 
L 177.613223 114.628267 
L 179.728926 113.898869 
L 181.844628 112.817381 
L 183.960331 111.331735 
L 186.076033 109.40211 
L 188.191736 107.005903 
L 190.307438 104.143396 
L 192.42314 100.844156 
L 194.538843 97.174198 
L 196.654545 93.243984 
L 198.770248 89.217271 
L 200.88595 85.32089 
L 203.001653 81.855469 
L 205.117355 79.207183 
L 207.233058 77.860549 
L 209.34876 78.412337 
L 211.464463 81.586643 
L 213.580165 88.251169 
L 215.695868 99.434766 
L 217.81157 116.346297 
L 219.927273 140.394867 
" style="fill:none;stroke:#d62728;stroke-linecap:square;stroke-width:3;"/>
   </g>
   <g id="line2d_2">
    <path clip-path="url(#pb57c63841f)" d="M 10.472727 23.52 
L 12.58843 31.270273 
L 14.704132 38.24125 
L 16.819835 44.522842 
L 18.935537 50.194947 
L 21.05124 55.328427 
L 23.166942 59.986017 
L 25.282645 64.223141 
L 27.398347 68.088677 
L 29.51405 71.625638 
L 31.629752 74.87181 
L 33.745455 77.860315 
L 35.861157 80.620135 
L 37.97686 83.17658 
L 40.092562 85.551713 
L 42.208264 87.764729 
L 44.323967 89.832301 
L 46.439669 91.768884 
L 48.555372 93.586995 
L 50.671074 95.297451 
L 52.786777 96.909591 
L 54.902479 98.431465 
L 57.018182 99.870006 
L 59.133884 101.231178 
L 61.249587 102.520106 
L 63.365289 103.741189 
L 65.480992 104.898202 
L 67.596694 105.994379 
L 69.712397 107.032489 
L 71.828099 108.014898 
L 73.943802 108.943623 
L 76.059504 109.820382 
L 78.175207 110.64663 
L 80.290909 111.423595 
L 82.406612 112.152306 
L 84.522314 112.833616 
L 86.638017 113.468225 
L 88.753719 114.056697 
L 90.869421 114.599475 
L 92.985124 115.096895 
L 95.100826 115.549197 
L 97.216529 115.956536 
L 99.332231 116.318991 
L 101.447934 116.636575 
L 103.563636 116.909245 
L 105.679339 117.136905 
L 107.795041 117.319418 
L 109.910744 117.456615 
L 112.026446 117.548296 
L 114.142149 117.594245 
L 116.257851 117.594236 
L 118.373554 117.548035 
L 120.489256 117.455415 
L 122.604959 117.316159 
L 124.720661 117.13007 
L 126.836364 116.896977 
L 128.952066 116.616743 
L 131.067769 116.289274 
L 133.183471 115.914524 
L 135.299174 115.492507 
L 137.414876 115.023303 
L 139.530579 114.507067 
L 141.646281 113.944038 
L 143.761983 113.334552 
L 145.877686 112.679053 
L 147.993388 111.978104 
L 150.109091 111.232405 
L 152.224793 110.44281 
L 154.340496 109.610347 
L 156.456198 108.736245 
L 158.571901 107.821958 
L 160.687603 106.869204 
L 162.803306 105.880001 
L 164.919008 104.856714 
L 167.034711 103.802113 
L 169.150413 102.719431 
L 171.266116 101.612443 
L 173.381818 100.485549 
L 175.497521 99.343874 
L 177.613223 98.193381 
L 179.728926 97.041003 
L 181.844628 95.89479 
L 183.960331 94.764082 
L 186.076033 93.659695 
L 188.191736 92.594147 
L 190.307438 91.581892 
L 192.42314 90.639603 
L 194.538843 89.786477 
L 196.654545 89.044574 
L 198.770248 88.439206 
L 200.88595 87.999353 
L 203.001653 87.75814 
L 205.117355 87.753351 
L 207.233058 88.028 
L 209.34876 88.630963 
L 211.464463 89.617667 
L 213.580165 91.050844 
L 215.695868 93.001358 
L 217.81157 95.549106 
L 219.927273 98.784 
" style="fill:none;stroke:#000000;stroke-dasharray:11.1,4.8;stroke-dashoffset:0;stroke-width:3;"/>
   </g>
   <g id="legend_1">
    <g id="line2d_3">
     <path d="M 77.5 14.872813 
L 116.5 14.872813 
" style="fill:none;stroke:#d62728;stroke-linecap:square;stroke-width:3;"/>
    </g>
    <g id="line2d_4"/>
    <g id="text_1">
     <!-- $\hat{f}$ -->
     <g transform="translate(129.5 23.972813)scale(0.26 -0.26)">
      <defs>
       <path d="M -28.609375 79.984375 
L -21.390625 79.984375 
L -9.421875 61.625 
L -16.21875 61.625 
L -25 73.578125 
L -33.796875 61.625 
L -40.578125 61.625 
z
M -25 56 
z
" id="DejaVuSans-770"/>
       <path d="M 47.796875 75.984375 
L 46.390625 68.5 
L 37.796875 68.5 
Q 32.90625 68.5 30.6875 66.578125 
Q 28.46875 64.65625 27.390625 59.515625 
L 26.421875 54.6875 
L 41.21875 54.6875 
L 39.890625 47.703125 
L 25.09375 47.703125 
L 15.828125 0 
L 6.78125 0 
L 16.109375 47.703125 
L 7.515625 47.703125 
L 8.796875 54.6875 
L 17.390625 54.6875 
L 18.109375 58.5 
Q 19.96875 68.171875 24.625 72.078125 
Q 29.296875 75.984375 39.3125 75.984375 
z
" id="DejaVuSans-Oblique-102"/>
      </defs>
      <use transform="translate(47.379395 33.015625)" xlink:href="#DejaVuSans-770"/>
      <use transform="translate(0 0.53125)" xlink:href="#DejaVuSans-Oblique-102"/>
     </g>
    </g>
    <g id="line2d_5">
     <path d="M 77.5 50.435938 
L 116.5 50.435938 
" style="fill:none;stroke:#000000;stroke-dasharray:11.1,4.8;stroke-dashoffset:0;stroke-width:3;"/>
    </g>
    <g id="line2d_6"/>
    <g id="text_2">
     <!-- $f^{\star}$ -->
     <g transform="translate(129.5 59.535938)scale(0.26 -0.26)">
      <defs>
       <path d="M 12.15625 37.359375 
L 26.765625 37.359375 
L 31.296875 51.21875 
L 35.890625 37.359375 
L 50.4375 37.359375 
L 38.625 28.765625 
L 43.21875 14.890625 
L 31.296875 23.484375 
L 19.4375 14.890625 
L 23.96875 28.765625 
z
" id="DejaVuSans-8902"/>
      </defs>
      <use transform="translate(0 0.015625)" xlink:href="#DejaVuSans-Oblique-102"/>
      <use transform="translate(42.652786 38.296875)scale(0.7)" xlink:href="#DejaVuSans-8902"/>
     </g>
    </g>
   </g>
  </g>
 </g>
 <defs>
  <clipPath id="pb57c63841f">
   <rect height="176.4" width="230.4" x="0" y="0"/>
  </clipPath>
 </defs>
</svg>
