<?xml version="1.0" encoding="utf-8" standalone="no"?>
<!DOCTYPE svg PUBLIC "-//W3C//DTD SVG 1.1//EN"
  "http://www.w3.org/Graphics/SVG/1.1/DTD/svg11.dtd">
<!-- Created with matplotlib (https://matplotlib.org/) -->
<svg height="176.4pt" version="1.1" viewBox="0 0 230.4 176.4" width="230.4pt" xmlns="http://www.w3.org/2000/svg" xmlns:xlink="http://www.w3.org/1999/xlink">
 <metadata>
  <rdf:RDF xmlns:cc="http://creativecommons.org/ns#" xmlns:dc="http://purl.org/dc/elements/1.1/" xmlns:rdf="http://www.w3.org/1999/02/22-rdf-syntax-ns#">
   <cc:Work>
    <dc:type rdf:resource="http://purl.org/dc/dcmitype/StillImage"/>
    <dc:date>2020-12-10T16:34:14.576350</dc:date>
    <dc:format>image/svg+xml</dc:format>
    <dc:creator>
     <cc:Agent>
      <dc:title>Matplotlib v3.3.3, https://matplotlib.org/</dc:title>
     </cc:Agent>
    </dc:creator>
   </cc:Work>
  </rdf:RDF>
 </metadata>
 <defs>
  <style type="text/css">*{stroke-linecap:butt;stroke-linejoin:round;}</style>
 </defs>
 <g id="figure_1">
  <g id="patch_1">
   <path d="M 0 176.4 
L 230.4 176.4 
L 230.4 0 
L 0 0 
z
" style="fill:none;"/>
  </g>
  <g id="axes_1">
   <g id="PathCollection_1">
    <defs>
     <path d="M 0 2.236068 
C 0.593012 2.236068 1.161816 2.000462 1.581139 1.581139 
C 2.000462 1.161816 2.236068 0.593012 2.236068 0 
C 2.236068 -0.593012 2.000462 -1.161816 1.581139 -1.581139 
C 1.161816 -2.000462 0.593012 -2.236068 0 -2.236068 
C -0.593012 -2.236068 -1.161816 -2.000462 -1.581139 -1.581139 
C -2.000462 -1.161816 -2.236068 -0.593012 -2.236068 0 
C -2.236068 0.593012 -2.000462 1.161816 -1.581139 1.581139 
C -1.161816 2.000462 -0.593012 2.236068 0 2.236068 
z
" id="mb29d2d9d2f" style="stroke:#000000;"/>
    </defs>
    <g clip-path="url(#pc41d6f9394)">
     <use style="stroke:#000000;" x="125.42421" xlink:href="#mb29d2d9d2f" y="100.792551"/>
     <use style="stroke:#000000;" x="160.272391" xlink:href="#mb29d2d9d2f" y="121.023704"/>
     <use style="stroke:#000000;" x="136.724256" xlink:href="#mb29d2d9d2f" y="72.47394"/>
     <use style="stroke:#000000;" x="124.600987" xlink:href="#mb29d2d9d2f" y="144.507194"/>
     <use style="stroke:#000000;" x="99.209151" xlink:href="#mb29d2d9d2f" y="115.438142"/>
     <use style="stroke:#000000;" x="145.758185" xlink:href="#mb29d2d9d2f" y="116.239346"/>
     <use style="stroke:#000000;" x="102.127358" xlink:href="#mb29d2d9d2f" y="87.888265"/>
     <use style="stroke:#000000;" x="197.258636" xlink:href="#mb29d2d9d2f" y="61.20915"/>
     <use style="stroke:#000000;" x="212.316273" xlink:href="#mb29d2d9d2f" y="87.221708"/>
     <use style="stroke:#000000;" x="90.786296" xlink:href="#mb29d2d9d2f" y="107.463502"/>
     <use style="stroke:#000000;" x="176.303135" xlink:href="#mb29d2d9d2f" y="115.611053"/>
     <use style="stroke:#000000;" x="121.252172" xlink:href="#mb29d2d9d2f" y="154.681253"/>
     <use style="stroke:#000000;" x="129.452243" xlink:href="#mb29d2d9d2f" y="123.089907"/>
     <use style="stroke:#000000;" x="204.34315" xlink:href="#mb29d2d9d2f" y="84.783215"/>
     <use style="stroke:#000000;" x="25.351553" xlink:href="#mb29d2d9d2f" y="41.205498"/>
     <use style="stroke:#000000;" x="28.722355" xlink:href="#mb29d2d9d2f" y="47.714098"/>
     <use style="stroke:#000000;" x="14.707563" xlink:href="#mb29d2d9d2f" y="45.539911"/>
     <use style="stroke:#000000;" x="184.868739" xlink:href="#mb29d2d9d2f" y="99.974112"/>
     <use style="stroke:#000000;" x="173.461196" xlink:href="#mb29d2d9d2f" y="120.17252"/>
     <use style="stroke:#000000;" x="192.700726" xlink:href="#mb29d2d9d2f" y="117.241203"/>
     <use style="stroke:#000000;" x="215.448787" xlink:href="#mb29d2d9d2f" y="124.849568"/>
     <use style="stroke:#000000;" x="177.860121" xlink:href="#mb29d2d9d2f" y="61.353064"/>
     <use style="stroke:#000000;" x="107.131677" xlink:href="#mb29d2d9d2f" y="126.856676"/>
     <use style="stroke:#000000;" x="173.958111" xlink:href="#mb29d2d9d2f" y="108.418607"/>
     <use style="stroke:#000000;" x="35.245843" xlink:href="#mb29d2d9d2f" y="103.41212"/>
     <use style="stroke:#000000;" x="144.507094" xlink:href="#mb29d2d9d2f" y="98.479662"/>
     <use style="stroke:#000000;" x="40.498725" xlink:href="#mb29d2d9d2f" y="116.355687"/>
     <use style="stroke:#000000;" x="208.337926" xlink:href="#mb29d2d9d2f" y="92.301497"/>
     <use style="stroke:#000000;" x="119.77623" xlink:href="#mb29d2d9d2f" y="134.340928"/>
     <use style="stroke:#000000;" x="97.325555" xlink:href="#mb29d2d9d2f" y="108.696353"/>
    </g>
   </g>
   <g id="line2d_1">
    <path clip-path="url(#pc41d6f9394)" d="M 10.472727 87.112361 
L 12.58843 87.359164 
L 14.704132 87.605967 
L 16.819835 87.852769 
L 18.935537 88.099572 
L 21.05124 88.346375 
L 23.166942 88.593178 
L 25.282645 88.83998 
L 27.398347 89.086783 
L 29.51405 89.333586 
L 31.629752 89.580389 
L 33.745455 89.827191 
L 35.861157 90.073994 
L 37.97686 90.320797 
L 40.092562 90.567599 
L 42.208264 90.814402 
L 44.323967 91.061205 
L 46.439669 91.308008 
L 48.555372 91.55481 
L 50.671074 91.801613 
L 52.786777 92.048416 
L 54.902479 92.295219 
L 57.018182 92.542021 
L 59.133884 92.788824 
L 61.249587 93.035627 
L 63.365289 93.28243 
L 65.480992 93.529232 
L 67.596694 93.776035 
L 69.712397 94.022838 
L 71.828099 94.26964 
L 73.943802 94.516443 
L 76.059504 94.763246 
L 78.175207 95.010049 
L 80.290909 95.256851 
L 82.406612 95.503654 
L 84.522314 95.750457 
L 86.638017 95.99726 
L 88.753719 96.244062 
L 90.869421 96.490865 
L 92.985124 96.737668 
L 95.100826 96.984471 
L 97.216529 97.231273 
L 99.332231 97.478076 
L 101.447934 97.724879 
L 103.563636 97.971682 
L 105.679339 98.218484 
L 107.795041 98.465287 
L 109.910744 98.71209 
L 112.026446 98.958892 
L 114.142149 99.205695 
L 116.257851 99.452498 
L 118.373554 99.699301 
L 120.489256 99.946103 
L 122.604959 100.192906 
L 124.720661 100.439709 
L 126.836364 100.686512 
L 128.952066 100.933314 
L 131.067769 101.180117 
L 133.183471 101.42692 
L 135.299174 101.673723 
L 137.414876 101.920525 
L 139.530579 102.167328 
L 141.646281 102.414131 
L 143.761983 102.660933 
L 145.877686 102.907736 
L 147.993388 103.154539 
L 150.109091 103.401342 
L 152.224793 103.648144 
L 154.340496 103.894947 
L 156.456198 104.14175 
L 158.571901 104.388553 
L 160.687603 104.635355 
L 162.803306 104.882158 
L 164.919008 105.128961 
L 167.034711 105.375764 
L 169.150413 105.622566 
L 171.266116 105.869369 
L 173.381818 106.116172 
L 175.497521 106.362974 
L 177.613223 106.609777 
L 179.728926 106.85658 
L 181.844628 107.103383 
L 183.960331 107.350185 
L 186.076033 107.596988 
L 188.191736 107.843791 
L 190.307438 108.090594 
L 192.42314 108.337396 
L 194.538843 108.584199 
L 196.654545 108.831002 
L 198.770248 109.077805 
L 200.88595 109.324607 
L 203.001653 109.57141 
L 205.117355 109.818213 
L 207.233058 110.065015 
L 209.34876 110.311818 
L 211.464463 110.558621 
L 213.580165 110.805424 
L 215.695868 111.052226 
L 217.81157 111.299029 
L 219.927273 111.545832 
" style="fill:none;stroke:#1f77b4;stroke-linecap:square;stroke-width:3;"/>
   </g>
   <g id="line2d_2">
    <path clip-path="url(#pc41d6f9394)" d="M 10.472727 23.52 
L 12.58843 31.270273 
L 14.704132 38.24125 
L 16.819835 44.522842 
L 18.935537 50.194947 
L 21.05124 55.328427 
L 23.166942 59.986017 
L 25.282645 64.223141 
L 27.398347 68.088677 
L 29.51405 71.625638 
L 31.629752 74.87181 
L 33.745455 77.860315 
L 35.861157 80.620135 
L 37.97686 83.17658 
L 40.092562 85.551713 
L 42.208264 87.764729 
L 44.323967 89.832301 
L 46.439669 91.768884 
L 48.555372 93.586995 
L 50.671074 95.297451 
L 52.786777 96.909591 
L 54.902479 98.431465 
L 57.018182 99.870006 
L 59.133884 101.231178 
L 61.249587 102.520106 
L 63.365289 103.741189 
L 65.480992 104.898202 
L 67.596694 105.994379 
L 69.712397 107.032489 
L 71.828099 108.014898 
L 73.943802 108.943623 
L 76.059504 109.820382 
L 78.175207 110.64663 
L 80.290909 111.423595 
L 82.406612 112.152306 
L 84.522314 112.833616 
L 86.638017 113.468225 
L 88.753719 114.056697 
L 90.869421 114.599475 
L 92.985124 115.096895 
L 95.100826 115.549197 
L 97.216529 115.956536 
L 99.332231 116.318991 
L 101.447934 116.636575 
L 103.563636 116.909245 
L 105.679339 117.136905 
L 107.795041 117.319418 
L 109.910744 117.456615 
L 112.026446 117.548296 
L 114.142149 117.594245 
L 116.257851 117.594236 
L 118.373554 117.548035 
L 120.489256 117.455415 
L 122.604959 117.316159 
L 124.720661 117.13007 
L 126.836364 116.896977 
L 128.952066 116.616743 
L 131.067769 116.289274 
L 133.183471 115.914524 
L 135.299174 115.492507 
L 137.414876 115.023303 
L 139.530579 114.507067 
L 141.646281 113.944038 
L 143.761983 113.334552 
L 145.877686 112.679053 
L 147.993388 111.978104 
L 150.109091 111.232405 
L 152.224793 110.44281 
L 154.340496 109.610347 
L 156.456198 108.736245 
L 158.571901 107.821958 
L 160.687603 106.869204 
L 162.803306 105.880001 
L 164.919008 104.856714 
L 167.034711 103.802113 
L 169.150413 102.719431 
L 171.266116 101.612443 
L 173.381818 100.485549 
L 175.497521 99.343874 
L 177.613223 98.193381 
L 179.728926 97.041003 
L 181.844628 95.89479 
L 183.960331 94.764082 
L 186.076033 93.659695 
L 188.191736 92.594147 
L 190.307438 91.581892 
L 192.42314 90.639603 
L 194.538843 89.786477 
L 196.654545 89.044574 
L 198.770248 88.439206 
L 200.88595 87.999353 
L 203.001653 87.75814 
L 205.117355 87.753351 
L 207.233058 88.028 
L 209.34876 88.630963 
L 211.464463 89.617667 
L 213.580165 91.050844 
L 215.695868 93.001358 
L 217.81157 95.549106 
L 219.927273 98.784 
" style="fill:none;stroke:#000000;stroke-dasharray:11.1,4.8;stroke-dashoffset:0;stroke-width:3;"/>
   </g>
   <g id="legend_1">
    <g id="line2d_3">
     <path d="M 77.5 14.872813 
L 116.5 14.872813 
" style="fill:none;stroke:#1f77b4;stroke-linecap:square;stroke-width:3;"/>
    </g>
    <g id="line2d_4"/>
    <g id="text_1">
     <!-- $\hat{f}$ -->
     <g transform="translate(129.5 23.972813)scale(0.26 -0.26)">
      <defs>
       <path d="M -28.609375 79.984375 
L -21.390625 79.984375 
L -9.421875 61.625 
L -16.21875 61.625 
L -25 73.578125 
L -33.796875 61.625 
L -40.578125 61.625 
z
M -25 56 
z
" id="DejaVuSans-770"/>
       <path d="M 47.796875 75.984375 
L 46.390625 68.5 
L 37.796875 68.5 
Q 32.90625 68.5 30.6875 66.578125 
Q 28.46875 64.65625 27.390625 59.515625 
L 26.421875 54.6875 
L 41.21875 54.6875 
L 39.890625 47.703125 
L 25.09375 47.703125 
L 15.828125 0 
L 6.78125 0 
L 16.109375 47.703125 
L 7.515625 47.703125 
L 8.796875 54.6875 
L 17.390625 54.6875 
L 18.109375 58.5 
Q 19.96875 68.171875 24.625 72.078125 
Q 29.296875 75.984375 39.3125 75.984375 
z
" id="DejaVuSans-Oblique-102"/>
      </defs>
      <use transform="translate(47.379395 33.015625)" xlink:href="#DejaVuSans-770"/>
      <use transform="translate(0 0.53125)" xlink:href="#DejaVuSans-Oblique-102"/>
     </g>
    </g>
    <g id="line2d_5">
     <path d="M 77.5 50.435938 
L 116.5 50.435938 
" style="fill:none;stroke:#000000;stroke-dasharray:11.1,4.8;stroke-dashoffset:0;stroke-width:3;"/>
    </g>
    <g id="line2d_6"/>
    <g id="text_2">
     <!-- $f^{\star}$ -->
     <g transform="translate(129.5 59.535938)scale(0.26 -0.26)">
      <defs>
       <path d="M 12.15625 37.359375 
L 26.765625 37.359375 
L 31.296875 51.21875 
L 35.890625 37.359375 
L 50.4375 37.359375 
L 38.625 28.765625 
L 43.21875 14.890625 
L 31.296875 23.484375 
L 19.4375 14.890625 
L 23.96875 28.765625 
z
" id="DejaVuSans-8902"/>
      </defs>
      <use transform="translate(0 0.015625)" xlink:href="#DejaVuSans-Oblique-102"/>
      <use transform="translate(42.652786 38.296875)scale(0.7)" xlink:href="#DejaVuSans-8902"/>
     </g>
    </g>
   </g>
  </g>
 </g>
 <defs>
  <clipPath id="pc41d6f9394">
   <rect height="176.4" width="230.4" x="0" y="0"/>
  </clipPath>
 </defs>
</svg>
