<?xml version="1.0" encoding="utf-8" standalone="no"?>
<!DOCTYPE svg PUBLIC "-//W3C//DTD SVG 1.1//EN"
  "http://www.w3.org/Graphics/SVG/1.1/DTD/svg11.dtd">
<!-- Created with matplotlib (https://matplotlib.org/) -->
<svg height="276.48pt" version="1.1" viewBox="0 0 368.64 276.48" width="368.64pt" xmlns="http://www.w3.org/2000/svg" xmlns:xlink="http://www.w3.org/1999/xlink">
 <defs>
  <style type="text/css">
*{stroke-linecap:butt;stroke-linejoin:round;}
  </style>
 </defs>
 <g id="figure_1">
  <g id="patch_1">
   <path d="M 0 276.48 
L 368.64 276.48 
L 368.64 0 
L 0 0 
z
" style="fill:none;"/>
  </g>
  <g id="axes_1">
   <g id="PathCollection_1">
    <defs>
     <path d="M 0 2.236068 
C 0.593012 2.236068 1.161816 2.000462 1.581139 1.581139 
C 2.000462 1.161816 2.236068 0.593012 2.236068 0 
C 2.236068 -0.593012 2.000462 -1.161816 1.581139 -1.581139 
C 1.161816 -2.000462 0.593012 -2.236068 0 -2.236068 
C -0.593012 -2.236068 -1.161816 -2.000462 -1.581139 -1.581139 
C -2.000462 -1.161816 -2.236068 -0.593012 -2.236068 0 
C -2.236068 0.593012 -2.000462 1.161816 -1.581139 1.581139 
C -1.161816 2.000462 -0.593012 2.236068 0 2.236068 
z
" id="m6076935060" style="stroke:#000000;"/>
    </defs>
    <g clip-path="url(#p839bf8e75a)">
     <use style="stroke:#000000;" x="200.678736" xlink:href="#m6076935060" y="270.029652"/>
     <use style="stroke:#000000;" x="256.435825" xlink:href="#m6076935060" y="113.452439"/>
     <use style="stroke:#000000;" x="218.75881" xlink:href="#m6076935060" y="221.568757"/>
     <use style="stroke:#000000;" x="199.361579" xlink:href="#m6076935060" y="222.787439"/>
     <use style="stroke:#000000;" x="158.734641" xlink:href="#m6076935060" y="251.570041"/>
     <use style="stroke:#000000;" x="233.213096" xlink:href="#m6076935060" y="168.555121"/>
     <use style="stroke:#000000;" x="163.403772" xlink:href="#m6076935060" y="265.923336"/>
     <use style="stroke:#000000;" x="315.613817" xlink:href="#m6076935060" y="158.167234"/>
     <use style="stroke:#000000;" x="339.706036" xlink:href="#m6076935060" y="186.23399"/>
     <use style="stroke:#000000;" x="145.258074" xlink:href="#m6076935060" y="186.855361"/>
     <use style="stroke:#000000;" x="282.085016" xlink:href="#m6076935060" y="189.276718"/>
     <use style="stroke:#000000;" x="194.003476" xlink:href="#m6076935060" y="251.08056"/>
     <use style="stroke:#000000;" x="207.123588" xlink:href="#m6076935060" y="206.275753"/>
     <use style="stroke:#000000;" x="326.949041" xlink:href="#m6076935060" y="131.953804"/>
     <use style="stroke:#000000;" x="40.562484" xlink:href="#m6076935060" y="99.047746"/>
     <use style="stroke:#000000;" x="45.955768" xlink:href="#m6076935060" y="102.114748"/>
     <use style="stroke:#000000;" x="23.5321" xlink:href="#m6076935060" y="73.387151"/>
     <use style="stroke:#000000;" x="295.789982" xlink:href="#m6076935060" y="174.561718"/>
     <use style="stroke:#000000;" x="277.537913" xlink:href="#m6076935060" y="198.37254"/>
     <use style="stroke:#000000;" x="308.321162" xlink:href="#m6076935060" y="166.96463"/>
     <use style="stroke:#000000;" x="344.71806" xlink:href="#m6076935060" y="188.3365"/>
     <use style="stroke:#000000;" x="284.576194" xlink:href="#m6076935060" y="233.031132"/>
     <use style="stroke:#000000;" x="171.410684" xlink:href="#m6076935060" y="200.026824"/>
     <use style="stroke:#000000;" x="278.332978" xlink:href="#m6076935060" y="187.722908"/>
     <use style="stroke:#000000;" x="56.393349" xlink:href="#m6076935060" y="193.241429"/>
     <use style="stroke:#000000;" x="231.21135" xlink:href="#m6076935060" y="181.097995"/>
     <use style="stroke:#000000;" x="64.79796" xlink:href="#m6076935060" y="178.433928"/>
     <use style="stroke:#000000;" x="333.340681" xlink:href="#m6076935060" y="147.163754"/>
     <use style="stroke:#000000;" x="191.641968" xlink:href="#m6076935060" y="179.850401"/>
     <use style="stroke:#000000;" x="155.720889" xlink:href="#m6076935060" y="199.273353"/>
     <use style="stroke:#000000;" x="105.416164" xlink:href="#m6076935060" y="139.916094"/>
     <use style="stroke:#000000;" x="276.223188" xlink:href="#m6076935060" y="220.269649"/>
     <use style="stroke:#000000;" x="169.62478" xlink:href="#m6076935060" y="191.423784"/>
     <use style="stroke:#000000;" x="207.254083" xlink:href="#m6076935060" y="230.798415"/>
     <use style="stroke:#000000;" x="23.053338" xlink:href="#m6076935060" y="80.355935"/>
     <use style="stroke:#000000;" x="223.742863" xlink:href="#m6076935060" y="222.657904"/>
     <use style="stroke:#000000;" x="221.886334" xlink:href="#m6076935060" y="213.246979"/>
     <use style="stroke:#000000;" x="223.507771" xlink:href="#m6076935060" y="198.994186"/>
     <use style="stroke:#000000;" x="333.032083" xlink:href="#m6076935060" y="192.555385"/>
     <use style="stroke:#000000;" x="245.252941" xlink:href="#m6076935060" y="158.608723"/>
     <use style="stroke:#000000;" x="137.237266" xlink:href="#m6076935060" y="181.199994"/>
     <use style="stroke:#000000;" x="163.21769" xlink:href="#m6076935060" y="262.989582"/>
     <use style="stroke:#000000;" x="250.551604" xlink:href="#m6076935060" y="133.958551"/>
     <use style="stroke:#000000;" x="36.939562" xlink:href="#m6076935060" y="21.647584"/>
     <use style="stroke:#000000;" x="240.208075" xlink:href="#m6076935060" y="150.588383"/>
     <use style="stroke:#000000;" x="241.505404" xlink:href="#m6076935060" y="200.789776"/>
     <use style="stroke:#000000;" x="87.261298" xlink:href="#m6076935060" y="208.757318"/>
     <use style="stroke:#000000;" x="59.963082" xlink:href="#m6076935060" y="98.344445"/>
     <use style="stroke:#000000;" x="122.465007" xlink:href="#m6076935060" y="207.318761"/>
     <use style="stroke:#000000;" x="138.645762" xlink:href="#m6076935060" y="153.422164"/>
    </g>
   </g>
   <g id="line2d_1">
    <path clip-path="url(#p839bf8e75a)" d="M 16.756364 145.16691 
L 20.141488 145.818769 
L 23.526612 146.470629 
L 26.911736 147.122489 
L 30.29686 147.774348 
L 33.681983 148.426208 
L 37.067107 149.078068 
L 40.452231 149.729928 
L 43.837355 150.381787 
L 47.222479 151.033647 
L 50.607603 151.685507 
L 53.992727 152.337367 
L 57.377851 152.989226 
L 60.762975 153.641086 
L 64.148099 154.292946 
L 67.533223 154.944805 
L 70.918347 155.596665 
L 74.303471 156.248525 
L 77.688595 156.900385 
L 81.073719 157.552244 
L 84.458843 158.204104 
L 87.843967 158.855964 
L 91.229091 159.507824 
L 94.614215 160.159683 
L 97.999339 160.811543 
L 101.384463 161.463403 
L 104.769587 162.115263 
L 108.154711 162.767122 
L 111.539835 163.418982 
L 114.924959 164.070842 
L 118.310083 164.722701 
L 121.695207 165.374561 
L 125.080331 166.026421 
L 128.465455 166.678281 
L 131.850579 167.33014 
L 135.235702 167.982 
L 138.620826 168.63386 
L 142.00595 169.28572 
L 145.391074 169.937579 
L 148.776198 170.589439 
L 152.161322 171.241299 
L 155.546446 171.893158 
L 158.93157 172.545018 
L 162.316694 173.196878 
L 165.701818 173.848738 
L 169.086942 174.500597 
L 172.472066 175.152457 
L 175.85719 175.804317 
L 179.242314 176.456177 
L 182.627438 177.108036 
L 186.012562 177.759896 
L 189.397686 178.411756 
L 192.78281 179.063616 
L 196.167934 179.715475 
L 199.553058 180.367335 
L 202.938182 181.019195 
L 206.323306 181.671054 
L 209.70843 182.322914 
L 213.093554 182.974774 
L 216.478678 183.626634 
L 219.863802 184.278493 
L 223.248926 184.930353 
L 226.63405 185.582213 
L 230.019174 186.234073 
L 233.404298 186.885932 
L 236.789421 187.537792 
L 240.174545 188.189652 
L 243.559669 188.841511 
L 246.944793 189.493371 
L 250.329917 190.145231 
L 253.715041 190.797091 
L 257.100165 191.44895 
L 260.485289 192.10081 
L 263.870413 192.75267 
L 267.255537 193.40453 
L 270.640661 194.056389 
L 274.025785 194.708249 
L 277.410909 195.360109 
L 280.796033 196.011969 
L 284.181157 196.663828 
L 287.566281 197.315688 
L 290.951405 197.967548 
L 294.336529 198.619407 
L 297.721653 199.271267 
L 301.106777 199.923127 
L 304.491901 200.574987 
L 307.877025 201.226846 
L 311.262149 201.878706 
L 314.647273 202.530566 
L 318.032397 203.182426 
L 321.417521 203.834285 
L 324.802645 204.486145 
L 328.187769 205.138005 
L 331.572893 205.789864 
L 334.958017 206.441724 
L 338.34314 207.093584 
L 341.728264 207.745444 
L 345.113388 208.397303 
L 348.498512 209.049163 
L 351.883636 209.701023 
" style="fill:none;stroke:#1f77b4;stroke-linecap:square;stroke-width:4;"/>
   </g>
   <g id="legend_1">
    <g id="line2d_2">
     <path d="M 124.779375 18.436388 
L 151.779375 18.436388 
" style="fill:none;stroke:#1f77b4;stroke-linecap:square;stroke-width:4;"/>
    </g>
    <g id="line2d_3"/>
    <g id="text_1">
     <!-- Degree 1 -->
     <defs>
      <path d="M 19.671875 64.796875 
L 19.671875 8.109375 
L 31.59375 8.109375 
Q 46.6875 8.109375 53.6875 14.9375 
Q 60.6875 21.78125 60.6875 36.53125 
Q 60.6875 51.171875 53.6875 57.984375 
Q 46.6875 64.796875 31.59375 64.796875 
z
M 9.8125 72.90625 
L 30.078125 72.90625 
Q 51.265625 72.90625 61.171875 64.09375 
Q 71.09375 55.28125 71.09375 36.53125 
Q 71.09375 17.671875 61.125 8.828125 
Q 51.171875 0 30.078125 0 
L 9.8125 0 
z
" id="DejaVuSans-68"/>
      <path d="M 56.203125 29.59375 
L 56.203125 25.203125 
L 14.890625 25.203125 
Q 15.484375 15.921875 20.484375 11.0625 
Q 25.484375 6.203125 34.421875 6.203125 
Q 39.59375 6.203125 44.453125 7.46875 
Q 49.3125 8.734375 54.109375 11.28125 
L 54.109375 2.78125 
Q 49.265625 0.734375 44.1875 -0.34375 
Q 39.109375 -1.421875 33.890625 -1.421875 
Q 20.796875 -1.421875 13.15625 6.1875 
Q 5.515625 13.8125 5.515625 26.8125 
Q 5.515625 40.234375 12.765625 48.109375 
Q 20.015625 56 32.328125 56 
Q 43.359375 56 49.78125 48.890625 
Q 56.203125 41.796875 56.203125 29.59375 
z
M 47.21875 32.234375 
Q 47.125 39.59375 43.09375 43.984375 
Q 39.0625 48.390625 32.421875 48.390625 
Q 24.90625 48.390625 20.390625 44.140625 
Q 15.875 39.890625 15.1875 32.171875 
z
" id="DejaVuSans-101"/>
      <path d="M 45.40625 27.984375 
Q 45.40625 37.75 41.375 43.109375 
Q 37.359375 48.484375 30.078125 48.484375 
Q 22.859375 48.484375 18.828125 43.109375 
Q 14.796875 37.75 14.796875 27.984375 
Q 14.796875 18.265625 18.828125 12.890625 
Q 22.859375 7.515625 30.078125 7.515625 
Q 37.359375 7.515625 41.375 12.890625 
Q 45.40625 18.265625 45.40625 27.984375 
z
M 54.390625 6.78125 
Q 54.390625 -7.171875 48.1875 -13.984375 
Q 42 -20.796875 29.203125 -20.796875 
Q 24.46875 -20.796875 20.265625 -20.09375 
Q 16.0625 -19.390625 12.109375 -17.921875 
L 12.109375 -9.1875 
Q 16.0625 -11.328125 19.921875 -12.34375 
Q 23.78125 -13.375 27.78125 -13.375 
Q 36.625 -13.375 41.015625 -8.765625 
Q 45.40625 -4.15625 45.40625 5.171875 
L 45.40625 9.625 
Q 42.625 4.78125 38.28125 2.390625 
Q 33.9375 0 27.875 0 
Q 17.828125 0 11.671875 7.65625 
Q 5.515625 15.328125 5.515625 27.984375 
Q 5.515625 40.671875 11.671875 48.328125 
Q 17.828125 56 27.875 56 
Q 33.9375 56 38.28125 53.609375 
Q 42.625 51.21875 45.40625 46.390625 
L 45.40625 54.6875 
L 54.390625 54.6875 
z
" id="DejaVuSans-103"/>
      <path d="M 41.109375 46.296875 
Q 39.59375 47.171875 37.8125 47.578125 
Q 36.03125 48 33.890625 48 
Q 26.265625 48 22.1875 43.046875 
Q 18.109375 38.09375 18.109375 28.8125 
L 18.109375 0 
L 9.078125 0 
L 9.078125 54.6875 
L 18.109375 54.6875 
L 18.109375 46.1875 
Q 20.953125 51.171875 25.484375 53.578125 
Q 30.03125 56 36.53125 56 
Q 37.453125 56 38.578125 55.875 
Q 39.703125 55.765625 41.0625 55.515625 
z
" id="DejaVuSans-114"/>
      <path id="DejaVuSans-32"/>
      <path d="M 12.40625 8.296875 
L 28.515625 8.296875 
L 28.515625 63.921875 
L 10.984375 60.40625 
L 10.984375 69.390625 
L 28.421875 72.90625 
L 38.28125 72.90625 
L 38.28125 8.296875 
L 54.390625 8.296875 
L 54.390625 0 
L 12.40625 0 
z
" id="DejaVuSans-49"/>
     </defs>
     <g transform="translate(160.779375 24.736388)scale(0.18 -0.18)">
      <use xlink:href="#DejaVuSans-68"/>
      <use x="77.001953" xlink:href="#DejaVuSans-101"/>
      <use x="138.525391" xlink:href="#DejaVuSans-103"/>
      <use x="202.001953" xlink:href="#DejaVuSans-114"/>
      <use x="243.083984" xlink:href="#DejaVuSans-101"/>
      <use x="304.607422" xlink:href="#DejaVuSans-101"/>
      <use x="366.130859" xlink:href="#DejaVuSans-32"/>
      <use x="397.917969" xlink:href="#DejaVuSans-49"/>
     </g>
    </g>
   </g>
  </g>
 </g>
 <defs>
  <clipPath id="p839bf8e75a">
   <rect height="265.4208" width="368.64" x="0" y="11.0592"/>
  </clipPath>
 </defs>
</svg>
