<?xml version="1.0" encoding="utf-8" standalone="no"?>
<!DOCTYPE svg PUBLIC "-//W3C//DTD SVG 1.1//EN"
  "http://www.w3.org/Graphics/SVG/1.1/DTD/svg11.dtd">
<!-- Created with matplotlib (https://matplotlib.org/) -->
<svg height="276.48pt" version="1.1" viewBox="0 0 368.64 276.48" width="368.64pt" xmlns="http://www.w3.org/2000/svg" xmlns:xlink="http://www.w3.org/1999/xlink">
 <metadata>
  <rdf:RDF xmlns:cc="http://creativecommons.org/ns#" xmlns:dc="http://purl.org/dc/elements/1.1/" xmlns:rdf="http://www.w3.org/1999/02/22-rdf-syntax-ns#">
   <cc:Work>
    <dc:type rdf:resource="http://purl.org/dc/dcmitype/StillImage"/>
    <dc:date>2020-12-10T18:11:53.423849</dc:date>
    <dc:format>image/svg+xml</dc:format>
    <dc:creator>
     <cc:Agent>
      <dc:title>Matplotlib v3.3.3, https://matplotlib.org/</dc:title>
     </cc:Agent>
    </dc:creator>
   </cc:Work>
  </rdf:RDF>
 </metadata>
 <defs>
  <style type="text/css">*{stroke-linecap:butt;stroke-linejoin:round;}</style>
 </defs>
 <g id="figure_1">
  <g id="patch_1">
   <path d="M 0 276.48 
L 368.64 276.48 
L 368.64 0 
L 0 0 
z
" style="fill:none;"/>
  </g>
  <g id="axes_1">
   <g id="PathCollection_1">
    <defs>
     <path d="M 0 2.236068 
C 0.593012 2.236068 1.161816 2.000462 1.581139 1.581139 
C 2.000462 1.161816 2.236068 0.593012 2.236068 0 
C 2.236068 -0.593012 2.000462 -1.161816 1.581139 -1.581139 
C 1.161816 -2.000462 0.593012 -2.236068 0 -2.236068 
C -0.593012 -2.236068 -1.161816 -2.000462 -1.581139 -1.581139 
C -2.000462 -1.161816 -2.236068 -0.593012 -2.236068 0 
C -2.236068 0.593012 -2.000462 1.161816 -1.581139 1.581139 
C -1.161816 2.000462 -0.593012 2.236068 0 2.236068 
z
" id="mad0cba6838" style="stroke:#000000;"/>
    </defs>
    <g clip-path="url(#p6bf2f3ef14)">
     <use style="stroke:#000000;" x="200.678736" xlink:href="#mad0cba6838" y="270.029652"/>
     <use style="stroke:#000000;" x="256.435825" xlink:href="#mad0cba6838" y="113.452439"/>
     <use style="stroke:#000000;" x="218.75881" xlink:href="#mad0cba6838" y="221.568757"/>
     <use style="stroke:#000000;" x="199.361579" xlink:href="#mad0cba6838" y="222.787439"/>
     <use style="stroke:#000000;" x="158.734641" xlink:href="#mad0cba6838" y="251.570041"/>
     <use style="stroke:#000000;" x="233.213096" xlink:href="#mad0cba6838" y="168.555121"/>
     <use style="stroke:#000000;" x="163.403772" xlink:href="#mad0cba6838" y="265.923336"/>
     <use style="stroke:#000000;" x="315.613817" xlink:href="#mad0cba6838" y="158.167234"/>
     <use style="stroke:#000000;" x="339.706036" xlink:href="#mad0cba6838" y="186.23399"/>
     <use style="stroke:#000000;" x="145.258074" xlink:href="#mad0cba6838" y="186.855361"/>
     <use style="stroke:#000000;" x="282.085016" xlink:href="#mad0cba6838" y="189.276718"/>
     <use style="stroke:#000000;" x="194.003476" xlink:href="#mad0cba6838" y="251.08056"/>
     <use style="stroke:#000000;" x="207.123588" xlink:href="#mad0cba6838" y="206.275753"/>
     <use style="stroke:#000000;" x="326.949041" xlink:href="#mad0cba6838" y="131.953804"/>
     <use style="stroke:#000000;" x="40.562484" xlink:href="#mad0cba6838" y="99.047746"/>
     <use style="stroke:#000000;" x="45.955768" xlink:href="#mad0cba6838" y="102.114748"/>
     <use style="stroke:#000000;" x="23.5321" xlink:href="#mad0cba6838" y="73.387151"/>
     <use style="stroke:#000000;" x="295.789982" xlink:href="#mad0cba6838" y="174.561718"/>
     <use style="stroke:#000000;" x="277.537913" xlink:href="#mad0cba6838" y="198.37254"/>
     <use style="stroke:#000000;" x="308.321162" xlink:href="#mad0cba6838" y="166.96463"/>
     <use style="stroke:#000000;" x="344.71806" xlink:href="#mad0cba6838" y="188.3365"/>
     <use style="stroke:#000000;" x="284.576194" xlink:href="#mad0cba6838" y="233.031132"/>
     <use style="stroke:#000000;" x="171.410684" xlink:href="#mad0cba6838" y="200.026824"/>
     <use style="stroke:#000000;" x="278.332978" xlink:href="#mad0cba6838" y="187.722908"/>
     <use style="stroke:#000000;" x="56.393349" xlink:href="#mad0cba6838" y="193.241429"/>
     <use style="stroke:#000000;" x="231.21135" xlink:href="#mad0cba6838" y="181.097995"/>
     <use style="stroke:#000000;" x="64.79796" xlink:href="#mad0cba6838" y="178.433928"/>
     <use style="stroke:#000000;" x="333.340681" xlink:href="#mad0cba6838" y="147.163754"/>
     <use style="stroke:#000000;" x="191.641968" xlink:href="#mad0cba6838" y="179.850401"/>
     <use style="stroke:#000000;" x="155.720889" xlink:href="#mad0cba6838" y="199.273353"/>
     <use style="stroke:#000000;" x="105.416164" xlink:href="#mad0cba6838" y="139.916094"/>
     <use style="stroke:#000000;" x="276.223188" xlink:href="#mad0cba6838" y="220.269649"/>
     <use style="stroke:#000000;" x="169.62478" xlink:href="#mad0cba6838" y="191.423784"/>
     <use style="stroke:#000000;" x="207.254083" xlink:href="#mad0cba6838" y="230.798415"/>
     <use style="stroke:#000000;" x="23.053338" xlink:href="#mad0cba6838" y="80.355935"/>
     <use style="stroke:#000000;" x="223.742863" xlink:href="#mad0cba6838" y="222.657904"/>
     <use style="stroke:#000000;" x="221.886334" xlink:href="#mad0cba6838" y="213.246979"/>
     <use style="stroke:#000000;" x="223.507771" xlink:href="#mad0cba6838" y="198.994186"/>
     <use style="stroke:#000000;" x="333.032083" xlink:href="#mad0cba6838" y="192.555385"/>
     <use style="stroke:#000000;" x="245.252941" xlink:href="#mad0cba6838" y="158.608723"/>
     <use style="stroke:#000000;" x="137.237266" xlink:href="#mad0cba6838" y="181.199994"/>
     <use style="stroke:#000000;" x="163.21769" xlink:href="#mad0cba6838" y="262.989582"/>
     <use style="stroke:#000000;" x="250.551604" xlink:href="#mad0cba6838" y="133.958551"/>
     <use style="stroke:#000000;" x="36.939562" xlink:href="#mad0cba6838" y="21.647584"/>
     <use style="stroke:#000000;" x="240.208075" xlink:href="#mad0cba6838" y="150.588383"/>
     <use style="stroke:#000000;" x="241.505404" xlink:href="#mad0cba6838" y="200.789776"/>
     <use style="stroke:#000000;" x="87.261298" xlink:href="#mad0cba6838" y="208.757318"/>
     <use style="stroke:#000000;" x="59.963082" xlink:href="#mad0cba6838" y="98.344445"/>
     <use style="stroke:#000000;" x="122.465007" xlink:href="#mad0cba6838" y="207.318761"/>
     <use style="stroke:#000000;" x="138.645762" xlink:href="#mad0cba6838" y="153.422164"/>
    </g>
   </g>
  </g>
 </g>
 <defs>
  <clipPath id="p6bf2f3ef14">
   <rect height="265.4208" width="368.64" x="0" y="11.0592"/>
  </clipPath>
 </defs>
</svg>
