<?xml version="1.0" encoding="utf-8" standalone="no"?>
<!DOCTYPE svg PUBLIC "-//W3C//DTD SVG 1.1//EN"
  "http://www.w3.org/Graphics/SVG/1.1/DTD/svg11.dtd">
<!-- Created with matplotlib (https://matplotlib.org/) -->
<svg height="176.4pt" version="1.1" viewBox="0 0 230.4 176.4" width="230.4pt" xmlns="http://www.w3.org/2000/svg" xmlns:xlink="http://www.w3.org/1999/xlink">
 <metadata>
  <rdf:RDF xmlns:cc="http://creativecommons.org/ns#" xmlns:dc="http://purl.org/dc/elements/1.1/" xmlns:rdf="http://www.w3.org/1999/02/22-rdf-syntax-ns#">
   <cc:Work>
    <dc:type rdf:resource="http://purl.org/dc/dcmitype/StillImage"/>
    <dc:date>2020-12-10T16:30:38.758999</dc:date>
    <dc:format>image/svg+xml</dc:format>
    <dc:creator>
     <cc:Agent>
      <dc:title>Matplotlib v3.3.3, https://matplotlib.org/</dc:title>
     </cc:Agent>
    </dc:creator>
   </cc:Work>
  </rdf:RDF>
 </metadata>
 <defs>
  <style type="text/css">*{stroke-linecap:butt;stroke-linejoin:round;}</style>
 </defs>
 <g id="figure_1">
  <g id="patch_1">
   <path d="M 0 176.4 
L 230.4 176.4 
L 230.4 0 
L 0 0 
z
" style="fill:none;"/>
  </g>
  <g id="axes_1">
   <g id="PathCollection_1">
    <defs>
     <path d="M 0 2.236068 
C 0.593012 2.236068 1.161816 2.000462 1.581139 1.581139 
C 2.000462 1.161816 2.236068 0.593012 2.236068 0 
C 2.236068 -0.593012 2.000462 -1.161816 1.581139 -1.581139 
C 1.161816 -2.000462 0.593012 -2.236068 0 -2.236068 
C -0.593012 -2.236068 -1.161816 -2.000462 -1.581139 -1.581139 
C -2.000462 -1.161816 -2.236068 -0.593012 -2.236068 0 
C -2.236068 0.593012 -2.000462 1.161816 -1.581139 1.581139 
C -1.161816 2.000462 -0.593012 2.236068 0 2.236068 
z
" id="meee366500b" style="stroke:#000000;"/>
    </defs>
    <g clip-path="url(#pfe4a213d5c)">
     <use style="stroke:#000000;" x="101.793841" xlink:href="#meee366500b" y="143.425852"/>
     <use style="stroke:#000000;" x="15.903094" xlink:href="#meee366500b" y="44.768474"/>
     <use style="stroke:#000000;" x="125.602032" xlink:href="#meee366500b" y="122.101264"/>
     <use style="stroke:#000000;" x="101.652981" xlink:href="#meee366500b" y="74.679571"/>
     <use style="stroke:#000000;" x="98.520674" xlink:href="#meee366500b" y="161.997848"/>
     <use style="stroke:#000000;" x="79.662857" xlink:href="#meee366500b" y="109.076968"/>
     <use style="stroke:#000000;" x="53.337314" xlink:href="#meee366500b" y="90.34371"/>
     <use style="stroke:#000000;" x="140.181846" xlink:href="#meee366500b" y="88.755852"/>
     <use style="stroke:#000000;" x="73.236761" xlink:href="#meee366500b" y="99.19617"/>
     <use style="stroke:#000000;" x="66.360913" xlink:href="#meee366500b" y="121.246048"/>
     <use style="stroke:#000000;" x="140.572032" xlink:href="#meee366500b" y="114.235561"/>
     <use style="stroke:#000000;" x="121.303944" xlink:href="#meee366500b" y="107.202419"/>
     <use style="stroke:#000000;" x="38.661109" xlink:href="#meee366500b" y="89.862559"/>
     <use style="stroke:#000000;" x="118.043999" xlink:href="#meee366500b" y="103.050921"/>
     <use style="stroke:#000000;" x="49.104495" xlink:href="#meee366500b" y="129.190875"/>
     <use style="stroke:#000000;" x="174.964744" xlink:href="#meee366500b" y="67.058481"/>
     <use style="stroke:#000000;" x="189.341734" xlink:href="#meee366500b" y="64.420482"/>
     <use style="stroke:#000000;" x="113.992879" xlink:href="#meee366500b" y="123.908613"/>
     <use style="stroke:#000000;" x="187.788878" xlink:href="#meee366500b" y="81.290416"/>
     <use style="stroke:#000000;" x="27.154834" xlink:href="#meee366500b" y="66.758646"/>
     <use style="stroke:#000000;" x="116.298817" xlink:href="#meee366500b" y="133.19479"/>
     <use style="stroke:#000000;" x="24.147282" xlink:href="#meee366500b" y="60.34816"/>
     <use style="stroke:#000000;" x="100.144895" xlink:href="#meee366500b" y="97.623403"/>
     <use style="stroke:#000000;" x="30.691566" xlink:href="#meee366500b" y="80.636628"/>
     <use style="stroke:#000000;" x="37.106961" xlink:href="#meee366500b" y="89.217197"/>
     <use style="stroke:#000000;" x="135.463745" xlink:href="#meee366500b" y="116.858943"/>
     <use style="stroke:#000000;" x="57.811968" xlink:href="#meee366500b" y="92.232811"/>
     <use style="stroke:#000000;" x="32.872987" xlink:href="#meee366500b" y="52.603212"/>
     <use style="stroke:#000000;" x="56.616864" xlink:href="#meee366500b" y="111.545377"/>
     <use style="stroke:#000000;" x="83.745433" xlink:href="#meee366500b" y="103.022916"/>
    </g>
   </g>
   <g id="line2d_1">
    <path clip-path="url(#pfe4a213d5c)" d="M 10.472727 75.428996 
L 12.58843 58.804164 
L 14.704132 49.405878 
L 16.819835 45.38862 
L 18.935537 45.259574 
L 21.05124 47.826176 
L 23.166942 52.14965 
L 25.282645 57.504038 
L 27.398347 63.340261 
L 29.51405 69.254747 
L 31.629752 74.962224 
L 33.745455 80.272271 
L 35.861157 85.069256 
L 37.97686 89.295323 
L 40.092562 92.936089 
L 42.208264 96.008762 
L 44.323967 98.552382 
L 46.439669 100.619946 
L 48.555372 102.272151 
L 50.671074 103.572551 
L 52.786777 104.583921 
L 54.902479 105.36563 
L 57.018182 105.971876 
L 59.133884 106.450611 
L 61.249587 106.843026 
L 63.365289 107.183479 
L 65.480992 107.499753 
L 67.596694 107.81355 
L 69.712397 108.141139 
L 71.828099 108.49409 
L 73.943802 108.880044 
L 76.059504 109.303447 
L 78.175207 109.766244 
L 80.290909 110.268476 
L 82.406612 110.808779 
L 84.522314 111.384757 
L 86.638017 111.99324 
L 88.753719 112.630423 
L 90.869421 113.291875 
L 92.985124 113.972469 
L 95.100826 114.666205 
L 97.216529 115.365975 
L 99.332231 116.063289 
L 101.447934 116.747966 
L 103.563636 117.407849 
L 105.679339 118.028535 
L 107.795041 118.593175 
L 109.910744 119.082353 
L 112.026446 119.474075 
L 114.142149 119.743886 
L 116.257851 119.865137 
L 118.373554 119.809414 
L 120.489256 119.547146 
L 122.604959 119.048389 
L 124.720661 118.283794 
L 126.836364 117.22575 
L 128.952066 115.849679 
L 131.067769 114.135487 
L 133.183471 112.069106 
L 135.299174 109.644119 
L 137.414876 106.863394 
L 139.530579 103.740689 
L 141.646281 100.302132 
L 143.761983 96.587519 
L 145.877686 92.651302 
L 147.993388 88.563189 
L 150.109091 84.408206 
L 152.224793 80.286089 
L 154.340496 76.309862 
L 156.456198 72.603403 
L 158.571901 69.297839 
L 160.687603 66.526537 
L 162.803306 64.41848 
L 164.919008 63.08978 
L 167.034711 62.633057 
L 169.150413 63.104405 
L 171.266116 64.507635 
L 173.381818 66.775464 
L 175.497521 69.747298 
L 177.613223 73.143233 
L 179.728926 76.533878 
L 181.844628 79.305563 
L 183.960331 80.620494 
L 186.076033 79.371369 
L 188.191736 74.12995 
L 190.307438 63.089066 
L 192.42314 43.997475 
L 194.538843 14.086999 
L 195.262714 -1 
" style="fill:none;stroke:#d62728;stroke-linecap:square;stroke-width:3;"/>
   </g>
   <g id="line2d_2">
    <path clip-path="url(#pfe4a213d5c)" d="M 10.472727 23.52 
L 12.58843 31.270273 
L 14.704132 38.24125 
L 16.819835 44.522842 
L 18.935537 50.194947 
L 21.05124 55.328427 
L 23.166942 59.986017 
L 25.282645 64.223141 
L 27.398347 68.088677 
L 29.51405 71.625638 
L 31.629752 74.87181 
L 33.745455 77.860315 
L 35.861157 80.620135 
L 37.97686 83.17658 
L 40.092562 85.551713 
L 42.208264 87.764729 
L 44.323967 89.832301 
L 46.439669 91.768884 
L 48.555372 93.586995 
L 50.671074 95.297451 
L 52.786777 96.909591 
L 54.902479 98.431465 
L 57.018182 99.870006 
L 59.133884 101.231178 
L 61.249587 102.520106 
L 63.365289 103.741189 
L 65.480992 104.898202 
L 67.596694 105.994379 
L 69.712397 107.032489 
L 71.828099 108.014898 
L 73.943802 108.943623 
L 76.059504 109.820382 
L 78.175207 110.64663 
L 80.290909 111.423595 
L 82.406612 112.152306 
L 84.522314 112.833616 
L 86.638017 113.468225 
L 88.753719 114.056697 
L 90.869421 114.599475 
L 92.985124 115.096895 
L 95.100826 115.549197 
L 97.216529 115.956536 
L 99.332231 116.318991 
L 101.447934 116.636575 
L 103.563636 116.909245 
L 105.679339 117.136905 
L 107.795041 117.319418 
L 109.910744 117.456615 
L 112.026446 117.548296 
L 114.142149 117.594245 
L 116.257851 117.594236 
L 118.373554 117.548035 
L 120.489256 117.455415 
L 122.604959 117.316159 
L 124.720661 117.13007 
L 126.836364 116.896977 
L 128.952066 116.616743 
L 131.067769 116.289274 
L 133.183471 115.914524 
L 135.299174 115.492507 
L 137.414876 115.023303 
L 139.530579 114.507067 
L 141.646281 113.944038 
L 143.761983 113.334552 
L 145.877686 112.679053 
L 147.993388 111.978104 
L 150.109091 111.232405 
L 152.224793 110.44281 
L 154.340496 109.610347 
L 156.456198 108.736245 
L 158.571901 107.821958 
L 160.687603 106.869204 
L 162.803306 105.880001 
L 164.919008 104.856714 
L 167.034711 103.802113 
L 169.150413 102.719431 
L 171.266116 101.612443 
L 173.381818 100.485549 
L 175.497521 99.343874 
L 177.613223 98.193381 
L 179.728926 97.041003 
L 181.844628 95.89479 
L 183.960331 94.764082 
L 186.076033 93.659695 
L 188.191736 92.594147 
L 190.307438 91.581892 
L 192.42314 90.639603 
L 194.538843 89.786477 
L 196.654545 89.044574 
L 198.770248 88.439206 
L 200.88595 87.999353 
L 203.001653 87.75814 
L 205.117355 87.753351 
L 207.233058 88.028 
L 209.34876 88.630963 
L 211.464463 89.617667 
L 213.580165 91.050844 
L 215.695868 93.001358 
L 217.81157 95.549106 
L 219.927273 98.784 
" style="fill:none;stroke:#000000;stroke-dasharray:11.1,4.8;stroke-dashoffset:0;stroke-width:3;"/>
   </g>
   <g id="legend_1">
    <g id="line2d_3">
     <path d="M 77.5 14.872813 
L 116.5 14.872813 
" style="fill:none;stroke:#d62728;stroke-linecap:square;stroke-width:3;"/>
    </g>
    <g id="line2d_4"/>
    <g id="text_1">
     <!-- $\hat{f}$ -->
     <g transform="translate(129.5 23.972813)scale(0.26 -0.26)">
      <defs>
       <path d="M -28.609375 79.984375 
L -21.390625 79.984375 
L -9.421875 61.625 
L -16.21875 61.625 
L -25 73.578125 
L -33.796875 61.625 
L -40.578125 61.625 
z
M -25 56 
z
" id="DejaVuSans-770"/>
       <path d="M 47.796875 75.984375 
L 46.390625 68.5 
L 37.796875 68.5 
Q 32.90625 68.5 30.6875 66.578125 
Q 28.46875 64.65625 27.390625 59.515625 
L 26.421875 54.6875 
L 41.21875 54.6875 
L 39.890625 47.703125 
L 25.09375 47.703125 
L 15.828125 0 
L 6.78125 0 
L 16.109375 47.703125 
L 7.515625 47.703125 
L 8.796875 54.6875 
L 17.390625 54.6875 
L 18.109375 58.5 
Q 19.96875 68.171875 24.625 72.078125 
Q 29.296875 75.984375 39.3125 75.984375 
z
" id="DejaVuSans-Oblique-102"/>
      </defs>
      <use transform="translate(47.379395 33.015625)" xlink:href="#DejaVuSans-770"/>
      <use transform="translate(0 0.53125)" xlink:href="#DejaVuSans-Oblique-102"/>
     </g>
    </g>
    <g id="line2d_5">
     <path d="M 77.5 50.435938 
L 116.5 50.435938 
" style="fill:none;stroke:#000000;stroke-dasharray:11.1,4.8;stroke-dashoffset:0;stroke-width:3;"/>
    </g>
    <g id="line2d_6"/>
    <g id="text_2">
     <!-- $f^{\star}$ -->
     <g transform="translate(129.5 59.535938)scale(0.26 -0.26)">
      <defs>
       <path d="M 12.15625 37.359375 
L 26.765625 37.359375 
L 31.296875 51.21875 
L 35.890625 37.359375 
L 50.4375 37.359375 
L 38.625 28.765625 
L 43.21875 14.890625 
L 31.296875 23.484375 
L 19.4375 14.890625 
L 23.96875 28.765625 
z
" id="DejaVuSans-8902"/>
      </defs>
      <use transform="translate(0 0.015625)" xlink:href="#DejaVuSans-Oblique-102"/>
      <use transform="translate(42.652786 38.296875)scale(0.7)" xlink:href="#DejaVuSans-8902"/>
     </g>
    </g>
   </g>
  </g>
 </g>
 <defs>
  <clipPath id="pfe4a213d5c">
   <rect height="176.4" width="230.4" x="0" y="0"/>
  </clipPath>
 </defs>
</svg>
