<?xml version="1.0" encoding="utf-8" standalone="no"?>
<!DOCTYPE svg PUBLIC "-//W3C//DTD SVG 1.1//EN"
  "http://www.w3.org/Graphics/SVG/1.1/DTD/svg11.dtd">
<!-- Created with matplotlib (https://matplotlib.org/) -->
<svg height="276.48pt" version="1.1" viewBox="0 0 368.64 276.48" width="368.64pt" xmlns="http://www.w3.org/2000/svg" xmlns:xlink="http://www.w3.org/1999/xlink">
 <metadata>
  <rdf:RDF xmlns:cc="http://creativecommons.org/ns#" xmlns:dc="http://purl.org/dc/elements/1.1/" xmlns:rdf="http://www.w3.org/1999/02/22-rdf-syntax-ns#">
   <cc:Work>
    <dc:type rdf:resource="http://purl.org/dc/dcmitype/StillImage"/>
    <dc:date>2020-12-10T18:11:55.278388</dc:date>
    <dc:format>image/svg+xml</dc:format>
    <dc:creator>
     <cc:Agent>
      <dc:title>Matplotlib v3.3.3, https://matplotlib.org/</dc:title>
     </cc:Agent>
    </dc:creator>
   </cc:Work>
  </rdf:RDF>
 </metadata>
 <defs>
  <style type="text/css">*{stroke-linecap:butt;stroke-linejoin:round;}</style>
 </defs>
 <g id="figure_1">
  <g id="patch_1">
   <path d="M 0 276.48 
L 368.64 276.48 
L 368.64 0 
L 0 0 
z
" style="fill:none;"/>
  </g>
  <g id="axes_1">
   <g id="PathCollection_1">
    <defs>
     <path d="M 0 2.236068 
C 0.593012 2.236068 1.161816 2.000462 1.581139 1.581139 
C 2.000462 1.161816 2.236068 0.593012 2.236068 0 
C 2.236068 -0.593012 2.000462 -1.161816 1.581139 -1.581139 
C 1.161816 -2.000462 0.593012 -2.236068 0 -2.236068 
C -0.593012 -2.236068 -1.161816 -2.000462 -1.581139 -1.581139 
C -2.000462 -1.161816 -2.236068 -0.593012 -2.236068 0 
C -2.236068 0.593012 -2.000462 1.161816 -1.581139 1.581139 
C -1.161816 2.000462 -0.593012 2.236068 0 2.236068 
z
" id="m5d43f3afc2" style="stroke:#000000;"/>
    </defs>
    <g clip-path="url(#pf95ffa2e6b)">
     <use style="stroke:#000000;" x="200.678736" xlink:href="#m5d43f3afc2" y="270.029652"/>
     <use style="stroke:#000000;" x="256.435825" xlink:href="#m5d43f3afc2" y="113.452439"/>
     <use style="stroke:#000000;" x="218.75881" xlink:href="#m5d43f3afc2" y="221.568757"/>
     <use style="stroke:#000000;" x="199.361579" xlink:href="#m5d43f3afc2" y="222.787439"/>
     <use style="stroke:#000000;" x="158.734641" xlink:href="#m5d43f3afc2" y="251.570041"/>
     <use style="stroke:#000000;" x="233.213096" xlink:href="#m5d43f3afc2" y="168.555121"/>
     <use style="stroke:#000000;" x="163.403772" xlink:href="#m5d43f3afc2" y="265.923336"/>
     <use style="stroke:#000000;" x="315.613817" xlink:href="#m5d43f3afc2" y="158.167234"/>
     <use style="stroke:#000000;" x="339.706036" xlink:href="#m5d43f3afc2" y="186.23399"/>
     <use style="stroke:#000000;" x="145.258074" xlink:href="#m5d43f3afc2" y="186.855361"/>
     <use style="stroke:#000000;" x="282.085016" xlink:href="#m5d43f3afc2" y="189.276718"/>
     <use style="stroke:#000000;" x="194.003476" xlink:href="#m5d43f3afc2" y="251.08056"/>
     <use style="stroke:#000000;" x="207.123588" xlink:href="#m5d43f3afc2" y="206.275753"/>
     <use style="stroke:#000000;" x="326.949041" xlink:href="#m5d43f3afc2" y="131.953804"/>
     <use style="stroke:#000000;" x="40.562484" xlink:href="#m5d43f3afc2" y="99.047746"/>
     <use style="stroke:#000000;" x="45.955768" xlink:href="#m5d43f3afc2" y="102.114748"/>
     <use style="stroke:#000000;" x="23.5321" xlink:href="#m5d43f3afc2" y="73.387151"/>
     <use style="stroke:#000000;" x="295.789982" xlink:href="#m5d43f3afc2" y="174.561718"/>
     <use style="stroke:#000000;" x="277.537913" xlink:href="#m5d43f3afc2" y="198.37254"/>
     <use style="stroke:#000000;" x="308.321162" xlink:href="#m5d43f3afc2" y="166.96463"/>
     <use style="stroke:#000000;" x="344.71806" xlink:href="#m5d43f3afc2" y="188.3365"/>
     <use style="stroke:#000000;" x="284.576194" xlink:href="#m5d43f3afc2" y="233.031132"/>
     <use style="stroke:#000000;" x="171.410684" xlink:href="#m5d43f3afc2" y="200.026824"/>
     <use style="stroke:#000000;" x="278.332978" xlink:href="#m5d43f3afc2" y="187.722908"/>
     <use style="stroke:#000000;" x="56.393349" xlink:href="#m5d43f3afc2" y="193.241429"/>
     <use style="stroke:#000000;" x="231.21135" xlink:href="#m5d43f3afc2" y="181.097995"/>
     <use style="stroke:#000000;" x="64.79796" xlink:href="#m5d43f3afc2" y="178.433928"/>
     <use style="stroke:#000000;" x="333.340681" xlink:href="#m5d43f3afc2" y="147.163754"/>
     <use style="stroke:#000000;" x="191.641968" xlink:href="#m5d43f3afc2" y="179.850401"/>
     <use style="stroke:#000000;" x="155.720889" xlink:href="#m5d43f3afc2" y="199.273353"/>
     <use style="stroke:#000000;" x="105.416164" xlink:href="#m5d43f3afc2" y="139.916094"/>
     <use style="stroke:#000000;" x="276.223188" xlink:href="#m5d43f3afc2" y="220.269649"/>
     <use style="stroke:#000000;" x="169.62478" xlink:href="#m5d43f3afc2" y="191.423784"/>
     <use style="stroke:#000000;" x="207.254083" xlink:href="#m5d43f3afc2" y="230.798415"/>
     <use style="stroke:#000000;" x="23.053338" xlink:href="#m5d43f3afc2" y="80.355935"/>
     <use style="stroke:#000000;" x="223.742863" xlink:href="#m5d43f3afc2" y="222.657904"/>
     <use style="stroke:#000000;" x="221.886334" xlink:href="#m5d43f3afc2" y="213.246979"/>
     <use style="stroke:#000000;" x="223.507771" xlink:href="#m5d43f3afc2" y="198.994186"/>
     <use style="stroke:#000000;" x="333.032083" xlink:href="#m5d43f3afc2" y="192.555385"/>
     <use style="stroke:#000000;" x="245.252941" xlink:href="#m5d43f3afc2" y="158.608723"/>
     <use style="stroke:#000000;" x="137.237266" xlink:href="#m5d43f3afc2" y="181.199994"/>
     <use style="stroke:#000000;" x="163.21769" xlink:href="#m5d43f3afc2" y="262.989582"/>
     <use style="stroke:#000000;" x="250.551604" xlink:href="#m5d43f3afc2" y="133.958551"/>
     <use style="stroke:#000000;" x="36.939562" xlink:href="#m5d43f3afc2" y="21.647584"/>
     <use style="stroke:#000000;" x="240.208075" xlink:href="#m5d43f3afc2" y="150.588383"/>
     <use style="stroke:#000000;" x="241.505404" xlink:href="#m5d43f3afc2" y="200.789776"/>
     <use style="stroke:#000000;" x="87.261298" xlink:href="#m5d43f3afc2" y="208.757318"/>
     <use style="stroke:#000000;" x="59.963082" xlink:href="#m5d43f3afc2" y="98.344445"/>
     <use style="stroke:#000000;" x="122.465007" xlink:href="#m5d43f3afc2" y="207.318761"/>
     <use style="stroke:#000000;" x="138.645762" xlink:href="#m5d43f3afc2" y="153.422164"/>
    </g>
   </g>
   <g id="line2d_1">
    <path clip-path="url(#pf95ffa2e6b)" d="M 16.756364 20.405003 
L 20.141488 35.803074 
L 23.526612 49.652856 
L 26.911736 62.132984 
L 30.29686 73.402195 
L 33.681983 83.60128 
L 37.067107 92.854876 
L 40.452231 101.273101 
L 43.837355 108.953061 
L 47.222479 115.980218 
L 50.607603 122.429639 
L 53.992727 128.367134 
L 57.377851 133.850284 
L 60.762975 138.929373 
L 64.148099 143.648234 
L 67.533223 148.045006 
L 70.918347 152.152811 
L 74.303471 156.000372 
L 77.688595 159.612554 
L 81.073719 163.01085 
L 84.458843 166.213813 
L 87.843967 169.237439 
L 91.229091 172.095501 
L 94.614215 174.799848 
L 97.999339 177.36066 
L 101.384463 179.786681 
L 104.769587 182.085409 
L 108.154711 184.26327 
L 111.539835 186.325763 
L 114.924959 188.277591 
L 118.310083 190.122761 
L 121.695207 191.864686 
L 125.080331 193.506258 
L 128.465455 195.049915 
L 131.850579 196.497701 
L 135.235702 197.851312 
L 138.620826 199.11214 
L 142.00595 200.281303 
L 145.391074 201.359683 
L 148.776198 202.347946 
L 152.161322 203.246569 
L 155.546446 204.055861 
L 158.93157 204.775978 
L 162.316694 205.406949 
L 165.701818 205.948683 
L 169.086942 206.400992 
L 172.472066 206.763606 
L 175.85719 207.036184 
L 179.242314 207.218334 
L 182.627438 207.309626 
L 186.012562 207.309607 
L 189.397686 207.217816 
L 192.78281 207.033801 
L 196.167934 206.757131 
L 199.553058 206.387413 
L 202.938182 205.924309 
L 206.323306 205.367546 
L 209.70843 204.716937 
L 213.093554 203.972393 
L 216.478678 203.133939 
L 219.863802 202.201735 
L 223.248926 201.176088 
L 226.63405 200.057474 
L 230.019174 198.846562 
L 233.404298 197.544231 
L 236.789421 196.151601 
L 240.174545 194.670062 
L 243.559669 193.101312 
L 246.944793 191.447394 
L 250.329917 189.710747 
L 253.715041 187.894263 
L 257.100165 186.001352 
L 260.485289 184.036025 
L 263.870413 182.002982 
L 267.255537 179.907723 
L 270.640661 177.756675 
L 274.025785 175.557336 
L 277.410909 173.318448 
L 280.796033 171.050193 
L 284.181157 168.764419 
L 287.566281 166.4749 
L 290.951405 164.19763 
L 294.336529 161.951163 
L 297.721653 159.756993 
L 301.106777 157.639985 
L 304.491901 155.628859 
L 307.877025 153.756741 
L 311.262149 152.061768 
L 314.647273 150.587773 
L 318.032397 149.38504 
L 321.417521 148.511151 
L 324.802645 148.031915 
L 328.187769 148.022399 
L 331.572893 148.568065 
L 334.958017 149.766019 
L 338.34314 151.726381 
L 341.728264 154.573785 
L 345.113388 158.449022 
L 348.498512 163.510832 
L 351.883636 169.937848 
" style="fill:none;stroke:#000000;stroke-dasharray:11.1,4.8;stroke-dashoffset:0;stroke-width:3;"/>
   </g>
  </g>
 </g>
 <defs>
  <clipPath id="pf95ffa2e6b">
   <rect height="265.4208" width="368.64" x="0" y="11.0592"/>
  </clipPath>
 </defs>
</svg>
