<?xml version="1.0" encoding="utf-8" standalone="no"?>
<!DOCTYPE svg PUBLIC "-//W3C//DTD SVG 1.1//EN"
  "http://www.w3.org/Graphics/SVG/1.1/DTD/svg11.dtd">
<!-- Created with matplotlib (https://matplotlib.org/) -->
<svg height="216pt" version="1.1" viewBox="0 0 288 216" width="288pt" xmlns="http://www.w3.org/2000/svg" xmlns:xlink="http://www.w3.org/1999/xlink">
 <metadata>
  <rdf:RDF xmlns:cc="http://creativecommons.org/ns#" xmlns:dc="http://purl.org/dc/elements/1.1/" xmlns:rdf="http://www.w3.org/1999/02/22-rdf-syntax-ns#">
   <cc:Work>
    <dc:type rdf:resource="http://purl.org/dc/dcmitype/StillImage"/>
    <dc:date>2021-04-23T17:39:35.690153</dc:date>
    <dc:format>image/svg+xml</dc:format>
    <dc:creator>
     <cc:Agent>
      <dc:title>Matplotlib v3.3.4, https://matplotlib.org/</dc:title>
     </cc:Agent>
    </dc:creator>
   </cc:Work>
  </rdf:RDF>
 </metadata>
 <defs>
  <style type="text/css">*{stroke-linecap:butt;stroke-linejoin:round;}</style>
 </defs>
 <g id="figure_1">
  <g id="patch_1">
   <path d="M 0 216 
L 288 216 
L 288 0 
L 0 0 
z
" style="fill:none;"/>
  </g>
  <g id="axes_1">
   <g id="patch_2">
    <path d="M 28.8 194.4 
L 288 194.4 
L 288 0 
L 28.8 0 
z
" style="fill:none;"/>
   </g>
   <g id="matplotlib.axis_1">
    <g id="text_1">
     <!-- x -->
     <g transform="translate(151.305 215.116562)scale(0.22 -0.22)">
      <defs>
       <path d="M 22.21875 27.984375 
L 2.484375 54.6875 
L 21 54.6875 
L 32.171875 38.484375 
L 43.5 54.6875 
L 62.015625 54.6875 
L 42.28125 28.078125 
L 62.984375 0 
L 44.484375 0 
L 32.171875 17.28125 
L 20.015625 0 
L 1.515625 0 
z
" id="DejaVuSans-Bold-120"/>
      </defs>
      <use xlink:href="#DejaVuSans-Bold-120"/>
     </g>
    </g>
   </g>
   <g id="matplotlib.axis_2">
    <g id="text_2">
     <!-- y -->
     <g transform="translate(20.052813 104.370625)rotate(-90)scale(0.22 -0.22)">
      <defs>
       <path d="M 1.21875 54.6875 
L 18.703125 54.6875 
L 33.40625 17.578125 
L 45.90625 54.6875 
L 63.375 54.6875 
L 40.375 -5.171875 
Q 36.921875 -14.3125 32.296875 -17.9375 
Q 27.6875 -21.578125 20.125 -21.578125 
L 10.015625 -21.578125 
L 10.015625 -10.109375 
L 15.484375 -10.109375 
Q 19.921875 -10.109375 21.9375 -8.6875 
Q 23.96875 -7.28125 25.09375 -3.609375 
L 25.59375 -2.09375 
z
" id="DejaVuSans-Bold-121"/>
      </defs>
      <use xlink:href="#DejaVuSans-Bold-121"/>
     </g>
    </g>
   </g>
   <g id="line2d_1">
    <defs>
     <path d="M 0 7.5 
C 1.989023 7.5 3.896849 6.709753 5.303301 5.303301 
C 6.709753 3.896849 7.5 1.989023 7.5 0 
C 7.5 -1.989023 6.709753 -3.896849 5.303301 -5.303301 
C 3.896849 -6.709753 1.989023 -7.5 0 -7.5 
C -1.989023 -7.5 -3.896849 -6.709753 -5.303301 -5.303301 
C -6.709753 -3.896849 -7.5 -1.989023 -7.5 0 
C -7.5 1.989023 -6.709753 3.896849 -5.303301 5.303301 
C -3.896849 6.709753 -1.989023 7.5 0 7.5 
z
" id="m9c61256bb5" style="stroke:#808080;stroke-opacity:0.2;"/>
    </defs>
    <g clip-path="url(#pedac968798)">
     <use style="fill:#808080;fill-opacity:0.2;stroke:#808080;stroke-opacity:0.2;" x="183.732555" xlink:href="#m9c61256bb5" y="98.886242"/>
     <use style="fill:#808080;fill-opacity:0.2;stroke:#808080;stroke-opacity:0.2;" x="155.755881" xlink:href="#m9c61256bb5" y="110.781163"/>
     <use style="fill:#808080;fill-opacity:0.2;stroke:#808080;stroke-opacity:0.2;" x="190.384373" xlink:href="#m9c61256bb5" y="116.088853"/>
     <use style="fill:#808080;fill-opacity:0.2;stroke:#808080;stroke-opacity:0.2;" x="228.951254" xlink:href="#m9c61256bb5" y="76.640459"/>
     <use style="fill:#808080;fill-opacity:0.2;stroke:#808080;stroke-opacity:0.2;" x="151.53108" xlink:href="#m9c61256bb5" y="114.075072"/>
     <use style="fill:#808080;fill-opacity:0.2;stroke:#808080;stroke-opacity:0.2;" x="151.531804" xlink:href="#m9c61256bb5" y="136.30609"/>
     <use style="fill:#808080;fill-opacity:0.2;stroke:#808080;stroke-opacity:0.2;" x="231.426633" xlink:href="#m9c61256bb5" y="39.352831"/>
     <use style="fill:#808080;fill-opacity:0.2;stroke:#808080;stroke-opacity:0.2;" x="195.6603" xlink:href="#m9c61256bb5" y="87.983533"/>
     <use style="fill:#808080;fill-opacity:0.2;stroke:#808080;stroke-opacity:0.2;" x="141.163013" xlink:href="#m9c61256bb5" y="152.024577"/>
     <use style="fill:#808080;fill-opacity:0.2;stroke:#808080;stroke-opacity:0.2;" x="185.75249" xlink:href="#m9c61256bb5" y="88.913768"/>
     <use style="fill:#808080;fill-opacity:0.2;stroke:#808080;stroke-opacity:0.2;" x="141.429867" xlink:href="#m9c61256bb5" y="147.110607"/>
     <use style="fill:#808080;fill-opacity:0.2;stroke:#808080;stroke-opacity:0.2;" x="141.327999" xlink:href="#m9c61256bb5" y="108.283757"/>
     <use style="fill:#808080;fill-opacity:0.2;stroke:#808080;stroke-opacity:0.2;" x="172.508378" xlink:href="#m9c61256bb5" y="84.468388"/>
     <use style="fill:#808080;fill-opacity:0.2;stroke:#808080;stroke-opacity:0.2;" x="77.550011" xlink:href="#m9c61256bb5" y="175.707137"/>
     <use style="fill:#808080;fill-opacity:0.2;stroke:#808080;stroke-opacity:0.2;" x="85.849117" xlink:href="#m9c61256bb5" y="132.180635"/>
     <use style="fill:#808080;fill-opacity:0.2;stroke:#808080;stroke-opacity:0.2;" x="137.073736" xlink:href="#m9c61256bb5" y="118.674517"/>
     <use style="fill:#808080;fill-opacity:0.2;stroke:#808080;stroke-opacity:0.2;" x="117.223123" xlink:href="#m9c61256bb5" y="119.585121"/>
     <use style="fill:#808080;fill-opacity:0.2;stroke:#808080;stroke-opacity:0.2;" x="175.693204" xlink:href="#m9c61256bb5" y="66.583023"/>
     <use style="fill:#808080;fill-opacity:0.2;stroke:#808080;stroke-opacity:0.2;" x="121.840843" xlink:href="#m9c61256bb5" y="140.828257"/>
     <use style="fill:#808080;fill-opacity:0.2;stroke:#808080;stroke-opacity:0.2;" x="99.622661" xlink:href="#m9c61256bb5" y="163.174473"/>
     <use style="fill:#808080;fill-opacity:0.2;stroke:#808080;stroke-opacity:0.2;" x="226.423087" xlink:href="#m9c61256bb5" y="102.661397"/>
     <use style="fill:#808080;fill-opacity:0.2;stroke:#808080;stroke-opacity:0.2;" x="151.900168" xlink:href="#m9c61256bb5" y="138.36054"/>
     <use style="fill:#808080;fill-opacity:0.2;stroke:#808080;stroke-opacity:0.2;" x="164.822944" xlink:href="#m9c61256bb5" y="115.586536"/>
     <use style="fill:#808080;fill-opacity:0.2;stroke:#808080;stroke-opacity:0.2;" x="99.074367" xlink:href="#m9c61256bb5" y="139.28759"/>
     <use style="fill:#808080;fill-opacity:0.2;stroke:#808080;stroke-opacity:0.2;" x="137.862608" xlink:href="#m9c61256bb5" y="121.282578"/>
     <use style="fill:#808080;fill-opacity:0.2;stroke:#808080;stroke-opacity:0.2;" x="166.734868" xlink:href="#m9c61256bb5" y="94.673572"/>
     <use style="fill:#808080;fill-opacity:0.2;stroke:#808080;stroke-opacity:0.2;" x="111.135789" xlink:href="#m9c61256bb5" y="140.487965"/>
     <use style="fill:#808080;fill-opacity:0.2;stroke:#808080;stroke-opacity:0.2;" x="178.400675" xlink:href="#m9c61256bb5" y="75.008596"/>
     <use style="fill:#808080;fill-opacity:0.2;stroke:#808080;stroke-opacity:0.2;" x="135.384012" xlink:href="#m9c61256bb5" y="134.470228"/>
     <use style="fill:#808080;fill-opacity:0.2;stroke:#808080;stroke-opacity:0.2;" x="148.995895" xlink:href="#m9c61256bb5" y="61.784762"/>
     <use style="fill:#808080;fill-opacity:0.2;stroke:#808080;stroke-opacity:0.2;" x="135.336961" xlink:href="#m9c61256bb5" y="114.846518"/>
     <use style="fill:#808080;fill-opacity:0.2;stroke:#808080;stroke-opacity:0.2;" x="243.457688" xlink:href="#m9c61256bb5" y="93.415395"/>
     <use style="fill:#808080;fill-opacity:0.2;stroke:#808080;stroke-opacity:0.2;" x="161.253025" xlink:href="#m9c61256bb5" y="139.3051"/>
     <use style="fill:#808080;fill-opacity:0.2;stroke:#808080;stroke-opacity:0.2;" x="115.245753" xlink:href="#m9c61256bb5" y="128.069379"/>
     <use style="fill:#808080;fill-opacity:0.2;stroke:#808080;stroke-opacity:0.2;" x="198.088413" xlink:href="#m9c61256bb5" y="102.154996"/>
     <use style="fill:#808080;fill-opacity:0.2;stroke:#808080;stroke-opacity:0.2;" x="108.058248" xlink:href="#m9c61256bb5" y="126.560061"/>
     <use style="fill:#808080;fill-opacity:0.2;stroke:#808080;stroke-opacity:0.2;" x="171.050075" xlink:href="#m9c61256bb5" y="100.322968"/>
     <use style="fill:#808080;fill-opacity:0.2;stroke:#808080;stroke-opacity:0.2;" x="75.506108" xlink:href="#m9c61256bb5" y="160.227553"/>
     <use style="fill:#808080;fill-opacity:0.2;stroke:#808080;stroke-opacity:0.2;" x="103.328822" xlink:href="#m9c61256bb5" y="163.371754"/>
     <use style="fill:#808080;fill-opacity:0.2;stroke:#808080;stroke-opacity:0.2;" x="170.52126" xlink:href="#m9c61256bb5" y="144.459998"/>
     <use style="fill:#808080;fill-opacity:0.2;stroke:#808080;stroke-opacity:0.2;" x="194.383985" xlink:href="#m9c61256bb5" y="108.932614"/>
     <use style="fill:#808080;fill-opacity:0.2;stroke:#808080;stroke-opacity:0.2;" x="169.39806" xlink:href="#m9c61256bb5" y="92.694968"/>
     <use style="fill:#808080;fill-opacity:0.2;stroke:#808080;stroke-opacity:0.2;" x="156.752326" xlink:href="#m9c61256bb5" y="113.202822"/>
     <use style="fill:#808080;fill-opacity:0.2;stroke:#808080;stroke-opacity:0.2;" x="148.581299" xlink:href="#m9c61256bb5" y="149.510301"/>
     <use style="fill:#808080;fill-opacity:0.2;stroke:#808080;stroke-opacity:0.2;" x="96.705133" xlink:href="#m9c61256bb5" y="144.180956"/>
     <use style="fill:#808080;fill-opacity:0.2;stroke:#808080;stroke-opacity:0.2;" x="130.131907" xlink:href="#m9c61256bb5" y="122.757461"/>
     <use style="fill:#808080;fill-opacity:0.2;stroke:#808080;stroke-opacity:0.2;" x="141.552304" xlink:href="#m9c61256bb5" y="145.045014"/>
     <use style="fill:#808080;fill-opacity:0.2;stroke:#808080;stroke-opacity:0.2;" x="208.423714" xlink:href="#m9c61256bb5" y="88.654835"/>
     <use style="fill:#808080;fill-opacity:0.2;stroke:#808080;stroke-opacity:0.2;" x="176.987266" xlink:href="#m9c61256bb5" y="106.507934"/>
     <use style="fill:#808080;fill-opacity:0.2;stroke:#808080;stroke-opacity:0.2;" x="84.169477" xlink:href="#m9c61256bb5" y="179.503813"/>
     <use style="fill:#808080;fill-opacity:0.2;stroke:#808080;stroke-opacity:0.2;" x="176.126599" xlink:href="#m9c61256bb5" y="100.328041"/>
     <use style="fill:#808080;fill-opacity:0.2;stroke:#808080;stroke-opacity:0.2;" x="144.881266" xlink:href="#m9c61256bb5" y="111.497954"/>
     <use style="fill:#808080;fill-opacity:0.2;stroke:#808080;stroke-opacity:0.2;" x="132.023027" xlink:href="#m9c61256bb5" y="106.412994"/>
     <use style="fill:#808080;fill-opacity:0.2;stroke:#808080;stroke-opacity:0.2;" x="188.7977" xlink:href="#m9c61256bb5" y="78.622241"/>
     <use style="fill:#808080;fill-opacity:0.2;stroke:#808080;stroke-opacity:0.2;" x="207.272767" xlink:href="#m9c61256bb5" y="123.025428"/>
     <use style="fill:#808080;fill-opacity:0.2;stroke:#808080;stroke-opacity:0.2;" x="202.879205" xlink:href="#m9c61256bb5" y="115.519703"/>
     <use style="fill:#808080;fill-opacity:0.2;stroke:#808080;stroke-opacity:0.2;" x="124.872408" xlink:href="#m9c61256bb5" y="122.529182"/>
     <use style="fill:#808080;fill-opacity:0.2;stroke:#808080;stroke-opacity:0.2;" x="148.224037" xlink:href="#m9c61256bb5" y="110.860834"/>
     <use style="fill:#808080;fill-opacity:0.2;stroke:#808080;stroke-opacity:0.2;" x="176.44292" xlink:href="#m9c61256bb5" y="96.699257"/>
     <use style="fill:#808080;fill-opacity:0.2;stroke:#808080;stroke-opacity:0.2;" x="204.829488" xlink:href="#m9c61256bb5" y="8.827021"/>
     <use style="fill:#808080;fill-opacity:0.2;stroke:#808080;stroke-opacity:0.2;" x="140.735645" xlink:href="#m9c61256bb5" y="113.351319"/>
     <use style="fill:#808080;fill-opacity:0.2;stroke:#808080;stroke-opacity:0.2;" x="153.667707" xlink:href="#m9c61256bb5" y="94.413157"/>
     <use style="fill:#808080;fill-opacity:0.2;stroke:#808080;stroke-opacity:0.2;" x="113.103414" xlink:href="#m9c61256bb5" y="118.736894"/>
     <use style="fill:#808080;fill-opacity:0.2;stroke:#808080;stroke-opacity:0.2;" x="109.143736" xlink:href="#m9c61256bb5" y="127.398015"/>
     <use style="fill:#808080;fill-opacity:0.2;stroke:#808080;stroke-opacity:0.2;" x="197.64698" xlink:href="#m9c61256bb5" y="104.402037"/>
     <use style="fill:#808080;fill-opacity:0.2;stroke:#808080;stroke-opacity:0.2;" x="221.60262" xlink:href="#m9c61256bb5" y="68.69778"/>
     <use style="fill:#808080;fill-opacity:0.2;stroke:#808080;stroke-opacity:0.2;" x="158.67499" xlink:href="#m9c61256bb5" y="134.018721"/>
     <use style="fill:#808080;fill-opacity:0.2;stroke:#808080;stroke-opacity:0.2;" x="206.062608" xlink:href="#m9c61256bb5" y="98.455764"/>
     <use style="fill:#808080;fill-opacity:0.2;stroke:#808080;stroke-opacity:0.2;" x="177.781114" xlink:href="#m9c61256bb5" y="118.105636"/>
     <use style="fill:#808080;fill-opacity:0.2;stroke:#808080;stroke-opacity:0.2;" x="133.42421" xlink:href="#m9c61256bb5" y="127.804725"/>
     <use style="fill:#808080;fill-opacity:0.2;stroke:#808080;stroke-opacity:0.2;" x="177.770521" xlink:href="#m9c61256bb5" y="56.321305"/>
     <use style="fill:#808080;fill-opacity:0.2;stroke:#808080;stroke-opacity:0.2;" x="229.612439" xlink:href="#m9c61256bb5" y="122.640543"/>
     <use style="fill:#808080;fill-opacity:0.2;stroke:#808080;stroke-opacity:0.2;" x="160.269234" xlink:href="#m9c61256bb5" y="101.021782"/>
     <use style="fill:#808080;fill-opacity:0.2;stroke:#808080;stroke-opacity:0.2;" x="230.784727" xlink:href="#m9c61256bb5" y="116.436109"/>
     <use style="fill:#808080;fill-opacity:0.2;stroke:#808080;stroke-opacity:0.2;" x="46.4237" xlink:href="#m9c61256bb5" y="183.601019"/>
     <use style="fill:#808080;fill-opacity:0.2;stroke:#808080;stroke-opacity:0.2;" x="198.060109" xlink:href="#m9c61256bb5" y="73.20742"/>
     <use style="fill:#808080;fill-opacity:0.2;stroke:#808080;stroke-opacity:0.2;" x="165.682931" xlink:href="#m9c61256bb5" y="112.035854"/>
     <use style="fill:#808080;fill-opacity:0.2;stroke:#808080;stroke-opacity:0.2;" x="148.673663" xlink:href="#m9c61256bb5" y="145.756823"/>
     <use style="fill:#808080;fill-opacity:0.2;stroke:#808080;stroke-opacity:0.2;" x="165.890613" xlink:href="#m9c61256bb5" y="129.135339"/>
     <use style="fill:#808080;fill-opacity:0.2;stroke:#808080;stroke-opacity:0.2;" x="74.276908" xlink:href="#m9c61256bb5" y="144.238996"/>
     <use style="fill:#808080;fill-opacity:0.2;stroke:#808080;stroke-opacity:0.2;" x="152.169124" xlink:href="#m9c61256bb5" y="136.340298"/>
     <use style="fill:#808080;fill-opacity:0.2;stroke:#808080;stroke-opacity:0.2;" x="177.581814" xlink:href="#m9c61256bb5" y="102.71796"/>
     <use style="fill:#808080;fill-opacity:0.2;stroke:#808080;stroke-opacity:0.2;" x="226.962604" xlink:href="#m9c61256bb5" y="81.756108"/>
     <use style="fill:#808080;fill-opacity:0.2;stroke:#808080;stroke-opacity:0.2;" x="139.013105" xlink:href="#m9c61256bb5" y="141.191454"/>
     <use style="fill:#808080;fill-opacity:0.2;stroke:#808080;stroke-opacity:0.2;" x="126.226081" xlink:href="#m9c61256bb5" y="85.905148"/>
     <use style="fill:#808080;fill-opacity:0.2;stroke:#808080;stroke-opacity:0.2;" x="139.740664" xlink:href="#m9c61256bb5" y="112.458781"/>
     <use style="fill:#808080;fill-opacity:0.2;stroke:#808080;stroke-opacity:0.2;" x="202.179632" xlink:href="#m9c61256bb5" y="139.864529"/>
     <use style="fill:#808080;fill-opacity:0.2;stroke:#808080;stroke-opacity:0.2;" x="176.332229" xlink:href="#m9c61256bb5" y="104.005949"/>
     <use style="fill:#808080;fill-opacity:0.2;stroke:#808080;stroke-opacity:0.2;" x="138.506865" xlink:href="#m9c61256bb5" y="141.669792"/>
     <use style="fill:#808080;fill-opacity:0.2;stroke:#808080;stroke-opacity:0.2;" x="184.46188" xlink:href="#m9c61256bb5" y="85.237598"/>
     <use style="fill:#808080;fill-opacity:0.2;stroke:#808080;stroke-opacity:0.2;" x="166.124866" xlink:href="#m9c61256bb5" y="130.722002"/>
     <use style="fill:#808080;fill-opacity:0.2;stroke:#808080;stroke-opacity:0.2;" x="204.525473" xlink:href="#m9c61256bb5" y="96.5316"/>
     <use style="fill:#808080;fill-opacity:0.2;stroke:#808080;stroke-opacity:0.2;" x="130.91577" xlink:href="#m9c61256bb5" y="119.724033"/>
     <use style="fill:#808080;fill-opacity:0.2;stroke:#808080;stroke-opacity:0.2;" x="147.411154" xlink:href="#m9c61256bb5" y="103.500876"/>
     <use style="fill:#808080;fill-opacity:0.2;stroke:#808080;stroke-opacity:0.2;" x="144.571711" xlink:href="#m9c61256bb5" y="150.515745"/>
     <use style="fill:#808080;fill-opacity:0.2;stroke:#808080;stroke-opacity:0.2;" x="97.366332" xlink:href="#m9c61256bb5" y="155.05309"/>
     <use style="fill:#808080;fill-opacity:0.2;stroke:#808080;stroke-opacity:0.2;" x="174.894539" xlink:href="#m9c61256bb5" y="119.321503"/>
     <use style="fill:#808080;fill-opacity:0.2;stroke:#808080;stroke-opacity:0.2;" x="173.349601" xlink:href="#m9c61256bb5" y="124.031799"/>
     <use style="fill:#808080;fill-opacity:0.2;stroke:#808080;stroke-opacity:0.2;" x="162.072997" xlink:href="#m9c61256bb5" y="76.303176"/>
     <use style="fill:#808080;fill-opacity:0.2;stroke:#808080;stroke-opacity:0.2;" x="151.511969" xlink:href="#m9c61256bb5" y="111.615081"/>
     <use style="fill:#808080;fill-opacity:0.2;stroke:#808080;stroke-opacity:0.2;" x="99.48753" xlink:href="#m9c61256bb5" y="174.433665"/>
     <use style="fill:#808080;fill-opacity:0.2;stroke:#808080;stroke-opacity:0.2;" x="143.314385" xlink:href="#m9c61256bb5" y="104.402918"/>
     <use style="fill:#808080;fill-opacity:0.2;stroke:#808080;stroke-opacity:0.2;" x="146.747958" xlink:href="#m9c61256bb5" y="76.107349"/>
     <use style="fill:#808080;fill-opacity:0.2;stroke:#808080;stroke-opacity:0.2;" x="126.499968" xlink:href="#m9c61256bb5" y="110.295587"/>
     <use style="fill:#808080;fill-opacity:0.2;stroke:#808080;stroke-opacity:0.2;" x="154.741575" xlink:href="#m9c61256bb5" y="152.463231"/>
     <use style="fill:#808080;fill-opacity:0.2;stroke:#808080;stroke-opacity:0.2;" x="179.64988" xlink:href="#m9c61256bb5" y="117.14472"/>
     <use style="fill:#808080;fill-opacity:0.2;stroke:#808080;stroke-opacity:0.2;" x="244.951637" xlink:href="#m9c61256bb5" y="45.794136"/>
     <use style="fill:#808080;fill-opacity:0.2;stroke:#808080;stroke-opacity:0.2;" x="169.53947" xlink:href="#m9c61256bb5" y="127.139301"/>
     <use style="fill:#808080;fill-opacity:0.2;stroke:#808080;stroke-opacity:0.2;" x="173.195179" xlink:href="#m9c61256bb5" y="99.897757"/>
     <use style="fill:#808080;fill-opacity:0.2;stroke:#808080;stroke-opacity:0.2;" x="158.567671" xlink:href="#m9c61256bb5" y="99.923834"/>
     <use style="fill:#808080;fill-opacity:0.2;stroke:#808080;stroke-opacity:0.2;" x="77.308083" xlink:href="#m9c61256bb5" y="178.172946"/>
     <use style="fill:#808080;fill-opacity:0.2;stroke:#808080;stroke-opacity:0.2;" x="160.679521" xlink:href="#m9c61256bb5" y="117.273948"/>
     <use style="fill:#808080;fill-opacity:0.2;stroke:#808080;stroke-opacity:0.2;" x="164.5014" xlink:href="#m9c61256bb5" y="185.572979"/>
     <use style="fill:#808080;fill-opacity:0.2;stroke:#808080;stroke-opacity:0.2;" x="270.3763" xlink:href="#m9c61256bb5" y="83.623275"/>
     <use style="fill:#808080;fill-opacity:0.2;stroke:#808080;stroke-opacity:0.2;" x="153.372422" xlink:href="#m9c61256bb5" y="125.193769"/>
     <use style="fill:#808080;fill-opacity:0.2;stroke:#808080;stroke-opacity:0.2;" x="175.133652" xlink:href="#m9c61256bb5" y="136.256382"/>
     <use style="fill:#808080;fill-opacity:0.2;stroke:#808080;stroke-opacity:0.2;" x="160.318328" xlink:href="#m9c61256bb5" y="80.117953"/>
     <use style="fill:#808080;fill-opacity:0.2;stroke:#808080;stroke-opacity:0.2;" x="110.356625" xlink:href="#m9c61256bb5" y="172.724858"/>
     <use style="fill:#808080;fill-opacity:0.2;stroke:#808080;stroke-opacity:0.2;" x="212.199617" xlink:href="#m9c61256bb5" y="99.866674"/>
     <use style="fill:#808080;fill-opacity:0.2;stroke:#808080;stroke-opacity:0.2;" x="194.977307" xlink:href="#m9c61256bb5" y="95.896826"/>
     <use style="fill:#808080;fill-opacity:0.2;stroke:#808080;stroke-opacity:0.2;" x="196.699976" xlink:href="#m9c61256bb5" y="66.113758"/>
     <use style="fill:#808080;fill-opacity:0.2;stroke:#808080;stroke-opacity:0.2;" x="121.780774" xlink:href="#m9c61256bb5" y="167.129193"/>
     <use style="fill:#808080;fill-opacity:0.2;stroke:#808080;stroke-opacity:0.2;" x="223.653766" xlink:href="#m9c61256bb5" y="58.750856"/>
     <use style="fill:#808080;fill-opacity:0.2;stroke:#808080;stroke-opacity:0.2;" x="100.083197" xlink:href="#m9c61256bb5" y="146.084877"/>
     <use style="fill:#808080;fill-opacity:0.2;stroke:#808080;stroke-opacity:0.2;" x="187.704185" xlink:href="#m9c61256bb5" y="124.084267"/>
     <use style="fill:#808080;fill-opacity:0.2;stroke:#808080;stroke-opacity:0.2;" x="258.357533" xlink:href="#m9c61256bb5" y="56.839783"/>
     <use style="fill:#808080;fill-opacity:0.2;stroke:#808080;stroke-opacity:0.2;" x="118.205415" xlink:href="#m9c61256bb5" y="132.841225"/>
     <use style="fill:#808080;fill-opacity:0.2;stroke:#808080;stroke-opacity:0.2;" x="136.897049" xlink:href="#m9c61256bb5" y="141.117396"/>
     <use style="fill:#808080;fill-opacity:0.2;stroke:#808080;stroke-opacity:0.2;" x="166.238266" xlink:href="#m9c61256bb5" y="111.63585"/>
     <use style="fill:#808080;fill-opacity:0.2;stroke:#808080;stroke-opacity:0.2;" x="139.664943" xlink:href="#m9c61256bb5" y="134.988677"/>
     <use style="fill:#808080;fill-opacity:0.2;stroke:#808080;stroke-opacity:0.2;" x="93.526636" xlink:href="#m9c61256bb5" y="147.08957"/>
     <use style="fill:#808080;fill-opacity:0.2;stroke:#808080;stroke-opacity:0.2;" x="164.868535" xlink:href="#m9c61256bb5" y="99.250652"/>
     <use style="fill:#808080;fill-opacity:0.2;stroke:#808080;stroke-opacity:0.2;" x="115.043398" xlink:href="#m9c61256bb5" y="103.818206"/>
     <use style="fill:#808080;fill-opacity:0.2;stroke:#808080;stroke-opacity:0.2;" x="182.713829" xlink:href="#m9c61256bb5" y="132.239806"/>
     <use style="fill:#808080;fill-opacity:0.2;stroke:#808080;stroke-opacity:0.2;" x="121.338561" xlink:href="#m9c61256bb5" y="88.593888"/>
     <use style="fill:#808080;fill-opacity:0.2;stroke:#808080;stroke-opacity:0.2;" x="230.136648" xlink:href="#m9c61256bb5" y="124.249814"/>
     <use style="fill:#808080;fill-opacity:0.2;stroke:#808080;stroke-opacity:0.2;" x="127.33815" xlink:href="#m9c61256bb5" y="136.009282"/>
     <use style="fill:#808080;fill-opacity:0.2;stroke:#808080;stroke-opacity:0.2;" x="147.657914" xlink:href="#m9c61256bb5" y="109.499661"/>
     <use style="fill:#808080;fill-opacity:0.2;stroke:#808080;stroke-opacity:0.2;" x="197.69066" xlink:href="#m9c61256bb5" y="91.222135"/>
     <use style="fill:#808080;fill-opacity:0.2;stroke:#808080;stroke-opacity:0.2;" x="107.616744" xlink:href="#m9c61256bb5" y="156.278891"/>
     <use style="fill:#808080;fill-opacity:0.2;stroke:#808080;stroke-opacity:0.2;" x="171.869416" xlink:href="#m9c61256bb5" y="114.948537"/>
     <use style="fill:#808080;fill-opacity:0.2;stroke:#808080;stroke-opacity:0.2;" x="219.439431" xlink:href="#m9c61256bb5" y="97.409155"/>
     <use style="fill:#808080;fill-opacity:0.2;stroke:#808080;stroke-opacity:0.2;" x="91.023198" xlink:href="#m9c61256bb5" y="163.854333"/>
     <use style="fill:#808080;fill-opacity:0.2;stroke:#808080;stroke-opacity:0.2;" x="169.982531" xlink:href="#m9c61256bb5" y="92.552216"/>
     <use style="fill:#808080;fill-opacity:0.2;stroke:#808080;stroke-opacity:0.2;" x="173.297943" xlink:href="#m9c61256bb5" y="101.761837"/>
     <use style="fill:#808080;fill-opacity:0.2;stroke:#808080;stroke-opacity:0.2;" x="196.294231" xlink:href="#m9c61256bb5" y="113.413174"/>
     <use style="fill:#808080;fill-opacity:0.2;stroke:#808080;stroke-opacity:0.2;" x="107.348582" xlink:href="#m9c61256bb5" y="122.81978"/>
     <use style="fill:#808080;fill-opacity:0.2;stroke:#808080;stroke-opacity:0.2;" x="103.669375" xlink:href="#m9c61256bb5" y="137.733171"/>
     <use style="fill:#808080;fill-opacity:0.2;stroke:#808080;stroke-opacity:0.2;" x="184.844056" xlink:href="#m9c61256bb5" y="85.919421"/>
     <use style="fill:#808080;fill-opacity:0.2;stroke:#808080;stroke-opacity:0.2;" x="174.932624" xlink:href="#m9c61256bb5" y="94.927179"/>
    </g>
   </g>
   <g id="line2d_2">
    <defs>
     <path d="M 0 7.5 
C 1.989023 7.5 3.896849 6.709753 5.303301 5.303301 
C 6.709753 3.896849 7.5 1.989023 7.5 0 
C 7.5 -1.989023 6.709753 -3.896849 5.303301 -5.303301 
C 3.896849 -6.709753 1.989023 -7.5 0 -7.5 
C -1.989023 -7.5 -3.896849 -6.709753 -5.303301 -5.303301 
C -6.709753 -3.896849 -7.5 -1.989023 -7.5 0 
C -7.5 1.989023 -6.709753 3.896849 -5.303301 5.303301 
C -3.896849 6.709753 -1.989023 7.5 0 7.5 
z
" id="m8499ab0bcf" style="stroke:#1f77b4;"/>
    </defs>
    <g clip-path="url(#pedac968798)">
     <use style="fill:#1f77b4;stroke:#1f77b4;" x="97.366332" xlink:href="#m8499ab0bcf" y="155.05309"/>
     <use style="fill:#1f77b4;stroke:#1f77b4;" x="108.058248" xlink:href="#m8499ab0bcf" y="126.560061"/>
     <use style="fill:#1f77b4;stroke:#1f77b4;" x="162.072997" xlink:href="#m8499ab0bcf" y="76.303176"/>
     <use style="fill:#1f77b4;stroke:#1f77b4;" x="99.48753" xlink:href="#m8499ab0bcf" y="174.433665"/>
     <use style="fill:#1f77b4;stroke:#1f77b4;" x="147.657914" xlink:href="#m8499ab0bcf" y="109.499661"/>
    </g>
   </g>
   <g id="line2d_3">
    <path clip-path="url(#pedac968798)" d="M 46.4237 171.906383 
L 48.685847 170.619069 
L 50.947995 169.331754 
L 53.210142 168.04444 
L 55.47229 166.757125 
L 57.734437 165.469811 
L 59.996585 164.182496 
L 62.258732 162.895182 
L 64.52088 161.607867 
L 66.783027 160.320552 
L 69.045175 159.033238 
L 71.307322 157.745923 
L 73.569469 156.458609 
L 75.831617 155.171294 
L 78.093764 153.88398 
L 80.355912 152.596665 
L 82.618059 151.309351 
L 84.880207 150.022036 
L 87.142354 148.734721 
L 89.404502 147.447407 
L 91.666649 146.160092 
L 93.928797 144.872778 
L 96.190944 143.585463 
L 98.453092 142.298149 
L 100.715239 141.010834 
L 102.977387 139.72352 
L 105.239534 138.436205 
L 107.501682 137.14889 
L 109.763829 135.861576 
L 112.025977 134.574261 
L 114.288124 133.286947 
L 116.550272 131.999632 
L 118.812419 130.712318 
L 121.074567 129.425003 
L 123.336714 128.137689 
L 125.598862 126.850374 
L 127.861009 125.563059 
L 130.123156 124.275745 
L 132.385304 122.98843 
L 134.647451 121.701116 
L 136.909599 120.413801 
L 139.171746 119.126487 
L 141.433894 117.839172 
L 143.696041 116.551858 
L 145.958189 115.264543 
L 148.220336 113.977228 
L 150.482484 112.689914 
L 152.744631 111.402599 
L 155.006779 110.115285 
L 157.268926 108.82797 
L 159.531074 107.540656 
L 161.793221 106.253341 
L 164.055369 104.966027 
L 166.317516 103.678712 
L 168.579664 102.391397 
L 170.841811 101.104083 
L 173.103959 99.816768 
L 175.366106 98.529454 
L 177.628254 97.242139 
L 179.890401 95.954825 
L 182.152549 94.66751 
L 184.414696 93.380196 
L 186.676844 92.092881 
L 188.938991 90.805566 
L 191.201138 89.518252 
L 193.463286 88.230937 
L 195.725433 86.943623 
L 197.987581 85.656308 
L 200.249728 84.368994 
L 202.511876 83.081679 
L 204.774023 81.794365 
L 207.036171 80.50705 
L 209.298318 79.219736 
L 211.560466 77.932421 
L 213.822613 76.645106 
L 216.084761 75.357792 
L 218.346908 74.070477 
L 220.609056 72.783163 
L 222.871203 71.495848 
L 225.133351 70.208534 
L 227.395498 68.921219 
L 229.657646 67.633905 
L 231.919793 66.34659 
L 234.181941 65.059275 
L 236.444088 63.771961 
L 238.706236 62.484646 
L 240.968383 61.197332 
L 243.230531 59.910017 
L 245.492678 58.622703 
L 247.754825 57.335388 
L 250.016973 56.048074 
L 252.27912 54.760759 
L 254.541268 53.473444 
L 256.803415 52.18613 
L 259.065563 50.898815 
L 261.32771 49.611501 
L 263.589858 48.324186 
L 265.852005 47.036872 
L 268.114153 45.749557 
L 270.3763 44.462243 
" style="fill:none;stroke:#1f77b4;stroke-linecap:square;stroke-width:1.5;"/>
   </g>
   <g id="patch_3">
    <path d="M 28.8 194.4 
L 28.8 0 
" style="fill:none;stroke:#000000;stroke-linecap:square;stroke-linejoin:miter;stroke-width:0.8;"/>
   </g>
   <g id="patch_4">
    <path d="M 28.8 194.4 
L 288 194.4 
" style="fill:none;stroke:#000000;stroke-linecap:square;stroke-linejoin:miter;stroke-width:0.8;"/>
   </g>
  </g>
 </g>
 <defs>
  <clipPath id="pedac968798">
   <rect height="194.4" width="259.2" x="28.8" y="0"/>
  </clipPath>
 </defs>
</svg>
