<?xml version="1.0" encoding="utf-8" standalone="no"?>
<!DOCTYPE svg PUBLIC "-//W3C//DTD SVG 1.1//EN"
  "http://www.w3.org/Graphics/SVG/1.1/DTD/svg11.dtd">
<!-- Created with matplotlib (https://matplotlib.org/) -->
<svg height="216pt" version="1.1" viewBox="0 0 288 216" width="288pt" xmlns="http://www.w3.org/2000/svg" xmlns:xlink="http://www.w3.org/1999/xlink">
 <metadata>
  <rdf:RDF xmlns:cc="http://creativecommons.org/ns#" xmlns:dc="http://purl.org/dc/elements/1.1/" xmlns:rdf="http://www.w3.org/1999/02/22-rdf-syntax-ns#">
   <cc:Work>
    <dc:type rdf:resource="http://purl.org/dc/dcmitype/StillImage"/>
    <dc:date>2021-04-23T16:58:09.875854</dc:date>
    <dc:format>image/svg+xml</dc:format>
    <dc:creator>
     <cc:Agent>
      <dc:title>Matplotlib v3.3.4, https://matplotlib.org/</dc:title>
     </cc:Agent>
    </dc:creator>
   </cc:Work>
  </rdf:RDF>
 </metadata>
 <defs>
  <style type="text/css">*{stroke-linecap:butt;stroke-linejoin:round;}</style>
 </defs>
 <g id="figure_1">
  <g id="patch_1">
   <path d="M 0 216 
L 288 216 
L 288 0 
L 0 0 
z
" style="fill:none;"/>
  </g>
  <g id="axes_1">
   <g id="patch_2">
    <path d="M 28.8 194.4 
L 288 194.4 
L 288 0 
L 28.8 0 
z
" style="fill:none;"/>
   </g>
   <g id="matplotlib.axis_1">
    <g id="text_1">
     <!-- x -->
     <g transform="translate(151.305 215.116562)scale(0.22 -0.22)">
      <defs>
       <path d="M 22.21875 27.984375 
L 2.484375 54.6875 
L 21 54.6875 
L 32.171875 38.484375 
L 43.5 54.6875 
L 62.015625 54.6875 
L 42.28125 28.078125 
L 62.984375 0 
L 44.484375 0 
L 32.171875 17.28125 
L 20.015625 0 
L 1.515625 0 
z
" id="DejaVuSans-Bold-120"/>
      </defs>
      <use xlink:href="#DejaVuSans-Bold-120"/>
     </g>
    </g>
   </g>
   <g id="matplotlib.axis_2">
    <g id="text_2">
     <!-- y -->
     <g transform="translate(20.052813 104.370625)rotate(-90)scale(0.22 -0.22)">
      <defs>
       <path d="M 1.21875 54.6875 
L 18.703125 54.6875 
L 33.40625 17.578125 
L 45.90625 54.6875 
L 63.375 54.6875 
L 40.375 -5.171875 
Q 36.921875 -14.3125 32.296875 -17.9375 
Q 27.6875 -21.578125 20.125 -21.578125 
L 10.015625 -21.578125 
L 10.015625 -10.109375 
L 15.484375 -10.109375 
Q 19.921875 -10.109375 21.9375 -8.6875 
Q 23.96875 -7.28125 25.09375 -3.609375 
L 25.59375 -2.09375 
z
" id="DejaVuSans-Bold-121"/>
      </defs>
      <use xlink:href="#DejaVuSans-Bold-121"/>
     </g>
    </g>
   </g>
   <g id="line2d_1">
    <defs>
     <path d="M 0 7.5 
C 1.989023 7.5 3.896849 6.709753 5.303301 5.303301 
C 6.709753 3.896849 7.5 1.989023 7.5 0 
C 7.5 -1.989023 6.709753 -3.896849 5.303301 -5.303301 
C 3.896849 -6.709753 1.989023 -7.5 0 -7.5 
C -1.989023 -7.5 -3.896849 -6.709753 -5.303301 -5.303301 
C -6.709753 -3.896849 -7.5 -1.989023 -7.5 0 
C -7.5 1.989023 -6.709753 3.896849 -5.303301 5.303301 
C -3.896849 6.709753 -1.989023 7.5 0 7.5 
z
" id="m9761191cfb" style="stroke:#808080;stroke-opacity:0.2;"/>
    </defs>
    <g clip-path="url(#pa8767e0f30)">
     <use style="fill:#808080;fill-opacity:0.2;stroke:#808080;stroke-opacity:0.2;" x="183.732555" xlink:href="#m9761191cfb" y="98.886242"/>
     <use style="fill:#808080;fill-opacity:0.2;stroke:#808080;stroke-opacity:0.2;" x="155.755881" xlink:href="#m9761191cfb" y="110.781163"/>
     <use style="fill:#808080;fill-opacity:0.2;stroke:#808080;stroke-opacity:0.2;" x="190.384373" xlink:href="#m9761191cfb" y="116.088853"/>
     <use style="fill:#808080;fill-opacity:0.2;stroke:#808080;stroke-opacity:0.2;" x="228.951254" xlink:href="#m9761191cfb" y="76.640459"/>
     <use style="fill:#808080;fill-opacity:0.2;stroke:#808080;stroke-opacity:0.2;" x="151.53108" xlink:href="#m9761191cfb" y="114.075072"/>
     <use style="fill:#808080;fill-opacity:0.2;stroke:#808080;stroke-opacity:0.2;" x="151.531804" xlink:href="#m9761191cfb" y="136.30609"/>
     <use style="fill:#808080;fill-opacity:0.2;stroke:#808080;stroke-opacity:0.2;" x="231.426633" xlink:href="#m9761191cfb" y="39.352831"/>
     <use style="fill:#808080;fill-opacity:0.2;stroke:#808080;stroke-opacity:0.2;" x="195.6603" xlink:href="#m9761191cfb" y="87.983533"/>
     <use style="fill:#808080;fill-opacity:0.2;stroke:#808080;stroke-opacity:0.2;" x="141.163013" xlink:href="#m9761191cfb" y="152.024577"/>
     <use style="fill:#808080;fill-opacity:0.2;stroke:#808080;stroke-opacity:0.2;" x="185.75249" xlink:href="#m9761191cfb" y="88.913768"/>
     <use style="fill:#808080;fill-opacity:0.2;stroke:#808080;stroke-opacity:0.2;" x="141.429867" xlink:href="#m9761191cfb" y="147.110607"/>
     <use style="fill:#808080;fill-opacity:0.2;stroke:#808080;stroke-opacity:0.2;" x="141.327999" xlink:href="#m9761191cfb" y="108.283757"/>
     <use style="fill:#808080;fill-opacity:0.2;stroke:#808080;stroke-opacity:0.2;" x="172.508378" xlink:href="#m9761191cfb" y="84.468388"/>
     <use style="fill:#808080;fill-opacity:0.2;stroke:#808080;stroke-opacity:0.2;" x="77.550011" xlink:href="#m9761191cfb" y="175.707137"/>
     <use style="fill:#808080;fill-opacity:0.2;stroke:#808080;stroke-opacity:0.2;" x="85.849117" xlink:href="#m9761191cfb" y="132.180635"/>
     <use style="fill:#808080;fill-opacity:0.2;stroke:#808080;stroke-opacity:0.2;" x="137.073736" xlink:href="#m9761191cfb" y="118.674517"/>
     <use style="fill:#808080;fill-opacity:0.2;stroke:#808080;stroke-opacity:0.2;" x="117.223123" xlink:href="#m9761191cfb" y="119.585121"/>
     <use style="fill:#808080;fill-opacity:0.2;stroke:#808080;stroke-opacity:0.2;" x="175.693204" xlink:href="#m9761191cfb" y="66.583023"/>
     <use style="fill:#808080;fill-opacity:0.2;stroke:#808080;stroke-opacity:0.2;" x="121.840843" xlink:href="#m9761191cfb" y="140.828257"/>
     <use style="fill:#808080;fill-opacity:0.2;stroke:#808080;stroke-opacity:0.2;" x="99.622661" xlink:href="#m9761191cfb" y="163.174473"/>
     <use style="fill:#808080;fill-opacity:0.2;stroke:#808080;stroke-opacity:0.2;" x="226.423087" xlink:href="#m9761191cfb" y="102.661397"/>
     <use style="fill:#808080;fill-opacity:0.2;stroke:#808080;stroke-opacity:0.2;" x="151.900168" xlink:href="#m9761191cfb" y="138.36054"/>
     <use style="fill:#808080;fill-opacity:0.2;stroke:#808080;stroke-opacity:0.2;" x="164.822944" xlink:href="#m9761191cfb" y="115.586536"/>
     <use style="fill:#808080;fill-opacity:0.2;stroke:#808080;stroke-opacity:0.2;" x="99.074367" xlink:href="#m9761191cfb" y="139.28759"/>
     <use style="fill:#808080;fill-opacity:0.2;stroke:#808080;stroke-opacity:0.2;" x="137.862608" xlink:href="#m9761191cfb" y="121.282578"/>
     <use style="fill:#808080;fill-opacity:0.2;stroke:#808080;stroke-opacity:0.2;" x="166.734868" xlink:href="#m9761191cfb" y="94.673572"/>
     <use style="fill:#808080;fill-opacity:0.2;stroke:#808080;stroke-opacity:0.2;" x="111.135789" xlink:href="#m9761191cfb" y="140.487965"/>
     <use style="fill:#808080;fill-opacity:0.2;stroke:#808080;stroke-opacity:0.2;" x="178.400675" xlink:href="#m9761191cfb" y="75.008596"/>
     <use style="fill:#808080;fill-opacity:0.2;stroke:#808080;stroke-opacity:0.2;" x="135.384012" xlink:href="#m9761191cfb" y="134.470228"/>
     <use style="fill:#808080;fill-opacity:0.2;stroke:#808080;stroke-opacity:0.2;" x="148.995895" xlink:href="#m9761191cfb" y="61.784762"/>
     <use style="fill:#808080;fill-opacity:0.2;stroke:#808080;stroke-opacity:0.2;" x="135.336961" xlink:href="#m9761191cfb" y="114.846518"/>
     <use style="fill:#808080;fill-opacity:0.2;stroke:#808080;stroke-opacity:0.2;" x="243.457688" xlink:href="#m9761191cfb" y="93.415395"/>
     <use style="fill:#808080;fill-opacity:0.2;stroke:#808080;stroke-opacity:0.2;" x="161.253025" xlink:href="#m9761191cfb" y="139.3051"/>
     <use style="fill:#808080;fill-opacity:0.2;stroke:#808080;stroke-opacity:0.2;" x="115.245753" xlink:href="#m9761191cfb" y="128.069379"/>
     <use style="fill:#808080;fill-opacity:0.2;stroke:#808080;stroke-opacity:0.2;" x="198.088413" xlink:href="#m9761191cfb" y="102.154996"/>
     <use style="fill:#808080;fill-opacity:0.2;stroke:#808080;stroke-opacity:0.2;" x="108.058248" xlink:href="#m9761191cfb" y="126.560061"/>
     <use style="fill:#808080;fill-opacity:0.2;stroke:#808080;stroke-opacity:0.2;" x="171.050075" xlink:href="#m9761191cfb" y="100.322968"/>
     <use style="fill:#808080;fill-opacity:0.2;stroke:#808080;stroke-opacity:0.2;" x="75.506108" xlink:href="#m9761191cfb" y="160.227553"/>
     <use style="fill:#808080;fill-opacity:0.2;stroke:#808080;stroke-opacity:0.2;" x="103.328822" xlink:href="#m9761191cfb" y="163.371754"/>
     <use style="fill:#808080;fill-opacity:0.2;stroke:#808080;stroke-opacity:0.2;" x="170.52126" xlink:href="#m9761191cfb" y="144.459998"/>
     <use style="fill:#808080;fill-opacity:0.2;stroke:#808080;stroke-opacity:0.2;" x="194.383985" xlink:href="#m9761191cfb" y="108.932614"/>
     <use style="fill:#808080;fill-opacity:0.2;stroke:#808080;stroke-opacity:0.2;" x="169.39806" xlink:href="#m9761191cfb" y="92.694968"/>
     <use style="fill:#808080;fill-opacity:0.2;stroke:#808080;stroke-opacity:0.2;" x="156.752326" xlink:href="#m9761191cfb" y="113.202822"/>
     <use style="fill:#808080;fill-opacity:0.2;stroke:#808080;stroke-opacity:0.2;" x="148.581299" xlink:href="#m9761191cfb" y="149.510301"/>
     <use style="fill:#808080;fill-opacity:0.2;stroke:#808080;stroke-opacity:0.2;" x="96.705133" xlink:href="#m9761191cfb" y="144.180956"/>
     <use style="fill:#808080;fill-opacity:0.2;stroke:#808080;stroke-opacity:0.2;" x="130.131907" xlink:href="#m9761191cfb" y="122.757461"/>
     <use style="fill:#808080;fill-opacity:0.2;stroke:#808080;stroke-opacity:0.2;" x="141.552304" xlink:href="#m9761191cfb" y="145.045014"/>
     <use style="fill:#808080;fill-opacity:0.2;stroke:#808080;stroke-opacity:0.2;" x="208.423714" xlink:href="#m9761191cfb" y="88.654835"/>
     <use style="fill:#808080;fill-opacity:0.2;stroke:#808080;stroke-opacity:0.2;" x="176.987266" xlink:href="#m9761191cfb" y="106.507934"/>
     <use style="fill:#808080;fill-opacity:0.2;stroke:#808080;stroke-opacity:0.2;" x="84.169477" xlink:href="#m9761191cfb" y="179.503813"/>
     <use style="fill:#808080;fill-opacity:0.2;stroke:#808080;stroke-opacity:0.2;" x="176.126599" xlink:href="#m9761191cfb" y="100.328041"/>
     <use style="fill:#808080;fill-opacity:0.2;stroke:#808080;stroke-opacity:0.2;" x="144.881266" xlink:href="#m9761191cfb" y="111.497954"/>
     <use style="fill:#808080;fill-opacity:0.2;stroke:#808080;stroke-opacity:0.2;" x="132.023027" xlink:href="#m9761191cfb" y="106.412994"/>
     <use style="fill:#808080;fill-opacity:0.2;stroke:#808080;stroke-opacity:0.2;" x="188.7977" xlink:href="#m9761191cfb" y="78.622241"/>
     <use style="fill:#808080;fill-opacity:0.2;stroke:#808080;stroke-opacity:0.2;" x="207.272767" xlink:href="#m9761191cfb" y="123.025428"/>
     <use style="fill:#808080;fill-opacity:0.2;stroke:#808080;stroke-opacity:0.2;" x="202.879205" xlink:href="#m9761191cfb" y="115.519703"/>
     <use style="fill:#808080;fill-opacity:0.2;stroke:#808080;stroke-opacity:0.2;" x="124.872408" xlink:href="#m9761191cfb" y="122.529182"/>
     <use style="fill:#808080;fill-opacity:0.2;stroke:#808080;stroke-opacity:0.2;" x="148.224037" xlink:href="#m9761191cfb" y="110.860834"/>
     <use style="fill:#808080;fill-opacity:0.2;stroke:#808080;stroke-opacity:0.2;" x="176.44292" xlink:href="#m9761191cfb" y="96.699257"/>
     <use style="fill:#808080;fill-opacity:0.2;stroke:#808080;stroke-opacity:0.2;" x="204.829488" xlink:href="#m9761191cfb" y="8.827021"/>
     <use style="fill:#808080;fill-opacity:0.2;stroke:#808080;stroke-opacity:0.2;" x="140.735645" xlink:href="#m9761191cfb" y="113.351319"/>
     <use style="fill:#808080;fill-opacity:0.2;stroke:#808080;stroke-opacity:0.2;" x="153.667707" xlink:href="#m9761191cfb" y="94.413157"/>
     <use style="fill:#808080;fill-opacity:0.2;stroke:#808080;stroke-opacity:0.2;" x="113.103414" xlink:href="#m9761191cfb" y="118.736894"/>
     <use style="fill:#808080;fill-opacity:0.2;stroke:#808080;stroke-opacity:0.2;" x="109.143736" xlink:href="#m9761191cfb" y="127.398015"/>
     <use style="fill:#808080;fill-opacity:0.2;stroke:#808080;stroke-opacity:0.2;" x="197.64698" xlink:href="#m9761191cfb" y="104.402037"/>
     <use style="fill:#808080;fill-opacity:0.2;stroke:#808080;stroke-opacity:0.2;" x="221.60262" xlink:href="#m9761191cfb" y="68.69778"/>
     <use style="fill:#808080;fill-opacity:0.2;stroke:#808080;stroke-opacity:0.2;" x="158.67499" xlink:href="#m9761191cfb" y="134.018721"/>
     <use style="fill:#808080;fill-opacity:0.2;stroke:#808080;stroke-opacity:0.2;" x="206.062608" xlink:href="#m9761191cfb" y="98.455764"/>
     <use style="fill:#808080;fill-opacity:0.2;stroke:#808080;stroke-opacity:0.2;" x="177.781114" xlink:href="#m9761191cfb" y="118.105636"/>
     <use style="fill:#808080;fill-opacity:0.2;stroke:#808080;stroke-opacity:0.2;" x="133.42421" xlink:href="#m9761191cfb" y="127.804725"/>
     <use style="fill:#808080;fill-opacity:0.2;stroke:#808080;stroke-opacity:0.2;" x="177.770521" xlink:href="#m9761191cfb" y="56.321305"/>
     <use style="fill:#808080;fill-opacity:0.2;stroke:#808080;stroke-opacity:0.2;" x="229.612439" xlink:href="#m9761191cfb" y="122.640543"/>
     <use style="fill:#808080;fill-opacity:0.2;stroke:#808080;stroke-opacity:0.2;" x="160.269234" xlink:href="#m9761191cfb" y="101.021782"/>
     <use style="fill:#808080;fill-opacity:0.2;stroke:#808080;stroke-opacity:0.2;" x="230.784727" xlink:href="#m9761191cfb" y="116.436109"/>
     <use style="fill:#808080;fill-opacity:0.2;stroke:#808080;stroke-opacity:0.2;" x="46.4237" xlink:href="#m9761191cfb" y="183.601019"/>
     <use style="fill:#808080;fill-opacity:0.2;stroke:#808080;stroke-opacity:0.2;" x="198.060109" xlink:href="#m9761191cfb" y="73.20742"/>
     <use style="fill:#808080;fill-opacity:0.2;stroke:#808080;stroke-opacity:0.2;" x="165.682931" xlink:href="#m9761191cfb" y="112.035854"/>
     <use style="fill:#808080;fill-opacity:0.2;stroke:#808080;stroke-opacity:0.2;" x="148.673663" xlink:href="#m9761191cfb" y="145.756823"/>
     <use style="fill:#808080;fill-opacity:0.2;stroke:#808080;stroke-opacity:0.2;" x="165.890613" xlink:href="#m9761191cfb" y="129.135339"/>
     <use style="fill:#808080;fill-opacity:0.2;stroke:#808080;stroke-opacity:0.2;" x="74.276908" xlink:href="#m9761191cfb" y="144.238996"/>
     <use style="fill:#808080;fill-opacity:0.2;stroke:#808080;stroke-opacity:0.2;" x="152.169124" xlink:href="#m9761191cfb" y="136.340298"/>
     <use style="fill:#808080;fill-opacity:0.2;stroke:#808080;stroke-opacity:0.2;" x="177.581814" xlink:href="#m9761191cfb" y="102.71796"/>
     <use style="fill:#808080;fill-opacity:0.2;stroke:#808080;stroke-opacity:0.2;" x="226.962604" xlink:href="#m9761191cfb" y="81.756108"/>
     <use style="fill:#808080;fill-opacity:0.2;stroke:#808080;stroke-opacity:0.2;" x="139.013105" xlink:href="#m9761191cfb" y="141.191454"/>
     <use style="fill:#808080;fill-opacity:0.2;stroke:#808080;stroke-opacity:0.2;" x="126.226081" xlink:href="#m9761191cfb" y="85.905148"/>
     <use style="fill:#808080;fill-opacity:0.2;stroke:#808080;stroke-opacity:0.2;" x="139.740664" xlink:href="#m9761191cfb" y="112.458781"/>
     <use style="fill:#808080;fill-opacity:0.2;stroke:#808080;stroke-opacity:0.2;" x="202.179632" xlink:href="#m9761191cfb" y="139.864529"/>
     <use style="fill:#808080;fill-opacity:0.2;stroke:#808080;stroke-opacity:0.2;" x="176.332229" xlink:href="#m9761191cfb" y="104.005949"/>
     <use style="fill:#808080;fill-opacity:0.2;stroke:#808080;stroke-opacity:0.2;" x="138.506865" xlink:href="#m9761191cfb" y="141.669792"/>
     <use style="fill:#808080;fill-opacity:0.2;stroke:#808080;stroke-opacity:0.2;" x="184.46188" xlink:href="#m9761191cfb" y="85.237598"/>
     <use style="fill:#808080;fill-opacity:0.2;stroke:#808080;stroke-opacity:0.2;" x="166.124866" xlink:href="#m9761191cfb" y="130.722002"/>
     <use style="fill:#808080;fill-opacity:0.2;stroke:#808080;stroke-opacity:0.2;" x="204.525473" xlink:href="#m9761191cfb" y="96.5316"/>
     <use style="fill:#808080;fill-opacity:0.2;stroke:#808080;stroke-opacity:0.2;" x="130.91577" xlink:href="#m9761191cfb" y="119.724033"/>
     <use style="fill:#808080;fill-opacity:0.2;stroke:#808080;stroke-opacity:0.2;" x="147.411154" xlink:href="#m9761191cfb" y="103.500876"/>
     <use style="fill:#808080;fill-opacity:0.2;stroke:#808080;stroke-opacity:0.2;" x="144.571711" xlink:href="#m9761191cfb" y="150.515745"/>
     <use style="fill:#808080;fill-opacity:0.2;stroke:#808080;stroke-opacity:0.2;" x="97.366332" xlink:href="#m9761191cfb" y="155.05309"/>
     <use style="fill:#808080;fill-opacity:0.2;stroke:#808080;stroke-opacity:0.2;" x="174.894539" xlink:href="#m9761191cfb" y="119.321503"/>
     <use style="fill:#808080;fill-opacity:0.2;stroke:#808080;stroke-opacity:0.2;" x="173.349601" xlink:href="#m9761191cfb" y="124.031799"/>
     <use style="fill:#808080;fill-opacity:0.2;stroke:#808080;stroke-opacity:0.2;" x="162.072997" xlink:href="#m9761191cfb" y="76.303176"/>
     <use style="fill:#808080;fill-opacity:0.2;stroke:#808080;stroke-opacity:0.2;" x="151.511969" xlink:href="#m9761191cfb" y="111.615081"/>
     <use style="fill:#808080;fill-opacity:0.2;stroke:#808080;stroke-opacity:0.2;" x="99.48753" xlink:href="#m9761191cfb" y="174.433665"/>
     <use style="fill:#808080;fill-opacity:0.2;stroke:#808080;stroke-opacity:0.2;" x="143.314385" xlink:href="#m9761191cfb" y="104.402918"/>
     <use style="fill:#808080;fill-opacity:0.2;stroke:#808080;stroke-opacity:0.2;" x="146.747958" xlink:href="#m9761191cfb" y="76.107349"/>
     <use style="fill:#808080;fill-opacity:0.2;stroke:#808080;stroke-opacity:0.2;" x="126.499968" xlink:href="#m9761191cfb" y="110.295587"/>
     <use style="fill:#808080;fill-opacity:0.2;stroke:#808080;stroke-opacity:0.2;" x="154.741575" xlink:href="#m9761191cfb" y="152.463231"/>
     <use style="fill:#808080;fill-opacity:0.2;stroke:#808080;stroke-opacity:0.2;" x="179.64988" xlink:href="#m9761191cfb" y="117.14472"/>
     <use style="fill:#808080;fill-opacity:0.2;stroke:#808080;stroke-opacity:0.2;" x="244.951637" xlink:href="#m9761191cfb" y="45.794136"/>
     <use style="fill:#808080;fill-opacity:0.2;stroke:#808080;stroke-opacity:0.2;" x="169.53947" xlink:href="#m9761191cfb" y="127.139301"/>
     <use style="fill:#808080;fill-opacity:0.2;stroke:#808080;stroke-opacity:0.2;" x="173.195179" xlink:href="#m9761191cfb" y="99.897757"/>
     <use style="fill:#808080;fill-opacity:0.2;stroke:#808080;stroke-opacity:0.2;" x="158.567671" xlink:href="#m9761191cfb" y="99.923834"/>
     <use style="fill:#808080;fill-opacity:0.2;stroke:#808080;stroke-opacity:0.2;" x="77.308083" xlink:href="#m9761191cfb" y="178.172946"/>
     <use style="fill:#808080;fill-opacity:0.2;stroke:#808080;stroke-opacity:0.2;" x="160.679521" xlink:href="#m9761191cfb" y="117.273948"/>
     <use style="fill:#808080;fill-opacity:0.2;stroke:#808080;stroke-opacity:0.2;" x="164.5014" xlink:href="#m9761191cfb" y="185.572979"/>
     <use style="fill:#808080;fill-opacity:0.2;stroke:#808080;stroke-opacity:0.2;" x="270.3763" xlink:href="#m9761191cfb" y="83.623275"/>
     <use style="fill:#808080;fill-opacity:0.2;stroke:#808080;stroke-opacity:0.2;" x="153.372422" xlink:href="#m9761191cfb" y="125.193769"/>
     <use style="fill:#808080;fill-opacity:0.2;stroke:#808080;stroke-opacity:0.2;" x="175.133652" xlink:href="#m9761191cfb" y="136.256382"/>
     <use style="fill:#808080;fill-opacity:0.2;stroke:#808080;stroke-opacity:0.2;" x="160.318328" xlink:href="#m9761191cfb" y="80.117953"/>
     <use style="fill:#808080;fill-opacity:0.2;stroke:#808080;stroke-opacity:0.2;" x="110.356625" xlink:href="#m9761191cfb" y="172.724858"/>
     <use style="fill:#808080;fill-opacity:0.2;stroke:#808080;stroke-opacity:0.2;" x="212.199617" xlink:href="#m9761191cfb" y="99.866674"/>
     <use style="fill:#808080;fill-opacity:0.2;stroke:#808080;stroke-opacity:0.2;" x="194.977307" xlink:href="#m9761191cfb" y="95.896826"/>
     <use style="fill:#808080;fill-opacity:0.2;stroke:#808080;stroke-opacity:0.2;" x="196.699976" xlink:href="#m9761191cfb" y="66.113758"/>
     <use style="fill:#808080;fill-opacity:0.2;stroke:#808080;stroke-opacity:0.2;" x="121.780774" xlink:href="#m9761191cfb" y="167.129193"/>
     <use style="fill:#808080;fill-opacity:0.2;stroke:#808080;stroke-opacity:0.2;" x="223.653766" xlink:href="#m9761191cfb" y="58.750856"/>
     <use style="fill:#808080;fill-opacity:0.2;stroke:#808080;stroke-opacity:0.2;" x="100.083197" xlink:href="#m9761191cfb" y="146.084877"/>
     <use style="fill:#808080;fill-opacity:0.2;stroke:#808080;stroke-opacity:0.2;" x="187.704185" xlink:href="#m9761191cfb" y="124.084267"/>
     <use style="fill:#808080;fill-opacity:0.2;stroke:#808080;stroke-opacity:0.2;" x="258.357533" xlink:href="#m9761191cfb" y="56.839783"/>
     <use style="fill:#808080;fill-opacity:0.2;stroke:#808080;stroke-opacity:0.2;" x="118.205415" xlink:href="#m9761191cfb" y="132.841225"/>
     <use style="fill:#808080;fill-opacity:0.2;stroke:#808080;stroke-opacity:0.2;" x="136.897049" xlink:href="#m9761191cfb" y="141.117396"/>
     <use style="fill:#808080;fill-opacity:0.2;stroke:#808080;stroke-opacity:0.2;" x="166.238266" xlink:href="#m9761191cfb" y="111.63585"/>
     <use style="fill:#808080;fill-opacity:0.2;stroke:#808080;stroke-opacity:0.2;" x="139.664943" xlink:href="#m9761191cfb" y="134.988677"/>
     <use style="fill:#808080;fill-opacity:0.2;stroke:#808080;stroke-opacity:0.2;" x="93.526636" xlink:href="#m9761191cfb" y="147.08957"/>
     <use style="fill:#808080;fill-opacity:0.2;stroke:#808080;stroke-opacity:0.2;" x="164.868535" xlink:href="#m9761191cfb" y="99.250652"/>
     <use style="fill:#808080;fill-opacity:0.2;stroke:#808080;stroke-opacity:0.2;" x="115.043398" xlink:href="#m9761191cfb" y="103.818206"/>
     <use style="fill:#808080;fill-opacity:0.2;stroke:#808080;stroke-opacity:0.2;" x="182.713829" xlink:href="#m9761191cfb" y="132.239806"/>
     <use style="fill:#808080;fill-opacity:0.2;stroke:#808080;stroke-opacity:0.2;" x="121.338561" xlink:href="#m9761191cfb" y="88.593888"/>
     <use style="fill:#808080;fill-opacity:0.2;stroke:#808080;stroke-opacity:0.2;" x="230.136648" xlink:href="#m9761191cfb" y="124.249814"/>
     <use style="fill:#808080;fill-opacity:0.2;stroke:#808080;stroke-opacity:0.2;" x="127.33815" xlink:href="#m9761191cfb" y="136.009282"/>
     <use style="fill:#808080;fill-opacity:0.2;stroke:#808080;stroke-opacity:0.2;" x="147.657914" xlink:href="#m9761191cfb" y="109.499661"/>
     <use style="fill:#808080;fill-opacity:0.2;stroke:#808080;stroke-opacity:0.2;" x="197.69066" xlink:href="#m9761191cfb" y="91.222135"/>
     <use style="fill:#808080;fill-opacity:0.2;stroke:#808080;stroke-opacity:0.2;" x="107.616744" xlink:href="#m9761191cfb" y="156.278891"/>
     <use style="fill:#808080;fill-opacity:0.2;stroke:#808080;stroke-opacity:0.2;" x="171.869416" xlink:href="#m9761191cfb" y="114.948537"/>
     <use style="fill:#808080;fill-opacity:0.2;stroke:#808080;stroke-opacity:0.2;" x="219.439431" xlink:href="#m9761191cfb" y="97.409155"/>
     <use style="fill:#808080;fill-opacity:0.2;stroke:#808080;stroke-opacity:0.2;" x="91.023198" xlink:href="#m9761191cfb" y="163.854333"/>
     <use style="fill:#808080;fill-opacity:0.2;stroke:#808080;stroke-opacity:0.2;" x="169.982531" xlink:href="#m9761191cfb" y="92.552216"/>
     <use style="fill:#808080;fill-opacity:0.2;stroke:#808080;stroke-opacity:0.2;" x="173.297943" xlink:href="#m9761191cfb" y="101.761837"/>
     <use style="fill:#808080;fill-opacity:0.2;stroke:#808080;stroke-opacity:0.2;" x="196.294231" xlink:href="#m9761191cfb" y="113.413174"/>
     <use style="fill:#808080;fill-opacity:0.2;stroke:#808080;stroke-opacity:0.2;" x="107.348582" xlink:href="#m9761191cfb" y="122.81978"/>
     <use style="fill:#808080;fill-opacity:0.2;stroke:#808080;stroke-opacity:0.2;" x="103.669375" xlink:href="#m9761191cfb" y="137.733171"/>
     <use style="fill:#808080;fill-opacity:0.2;stroke:#808080;stroke-opacity:0.2;" x="184.844056" xlink:href="#m9761191cfb" y="85.919421"/>
     <use style="fill:#808080;fill-opacity:0.2;stroke:#808080;stroke-opacity:0.2;" x="174.932624" xlink:href="#m9761191cfb" y="94.927179"/>
    </g>
   </g>
   <g id="line2d_2">
    <path clip-path="url(#pa8767e0f30)" d="M 46.4237 136.021326 
L 48.685847 135.795084 
L 50.947995 135.568843 
L 53.210142 135.342601 
L 55.47229 135.11636 
L 57.734437 134.890118 
L 59.996585 134.663877 
L 62.258732 134.437635 
L 64.52088 134.211394 
L 66.783027 133.985152 
L 69.045175 133.758911 
L 71.307322 133.532669 
L 73.569469 133.306428 
L 75.831617 133.080186 
L 78.093764 132.853945 
L 80.355912 132.627703 
L 82.618059 132.401462 
L 84.880207 132.17522 
L 87.142354 131.948979 
L 89.404502 131.722737 
L 91.666649 131.496496 
L 93.928797 131.270254 
L 96.190944 131.044013 
L 98.453092 130.817771 
L 100.715239 130.59153 
L 102.977387 130.365288 
L 105.239534 130.139047 
L 107.501682 129.912805 
L 109.763829 129.686564 
L 112.025977 129.460322 
L 114.288124 129.234081 
L 116.550272 129.007839 
L 118.812419 128.781598 
L 121.074567 128.555356 
L 123.336714 128.329115 
L 125.598862 128.102873 
L 127.861009 127.876632 
L 130.123156 127.65039 
L 132.385304 127.424149 
L 134.647451 127.197907 
L 136.909599 126.971666 
L 139.171746 126.745424 
L 141.433894 126.519183 
L 143.696041 126.292941 
L 145.958189 126.0667 
L 148.220336 125.840458 
L 150.482484 125.614217 
L 152.744631 125.387975 
L 155.006779 125.161734 
L 157.268926 124.935492 
L 159.531074 124.709251 
L 161.793221 124.483009 
L 164.055369 124.256768 
L 166.317516 124.030526 
L 168.579664 123.804285 
L 170.841811 123.578043 
L 173.103959 123.351802 
L 175.366106 123.12556 
L 177.628254 122.899319 
L 179.890401 122.673077 
L 182.152549 122.446836 
L 184.414696 122.220594 
L 186.676844 121.994353 
L 188.938991 121.768111 
L 191.201138 121.54187 
L 193.463286 121.315628 
L 195.725433 121.089387 
L 197.987581 120.863145 
L 200.249728 120.636904 
L 202.511876 120.410663 
L 204.774023 120.184421 
L 207.036171 119.95818 
L 209.298318 119.731938 
L 211.560466 119.505697 
L 213.822613 119.279455 
L 216.084761 119.053214 
L 218.346908 118.826972 
L 220.609056 118.600731 
L 222.871203 118.374489 
L 225.133351 118.148248 
L 227.395498 117.922006 
L 229.657646 117.695765 
L 231.919793 117.469523 
L 234.181941 117.243282 
L 236.444088 117.01704 
L 238.706236 116.790799 
L 240.968383 116.564557 
L 243.230531 116.338316 
L 245.492678 116.112074 
L 247.754825 115.885833 
L 250.016973 115.659591 
L 252.27912 115.43335 
L 254.541268 115.207108 
L 256.803415 114.980867 
L 259.065563 114.754625 
L 261.32771 114.528384 
L 263.589858 114.302142 
L 265.852005 114.075901 
L 268.114153 113.849659 
L 270.3763 113.623418 
" style="fill:none;stroke:#1f77b4;stroke-linecap:square;stroke-width:1.5;"/>
   </g>
   <g id="line2d_3">
    <path clip-path="url(#pa8767e0f30)" d="M 46.4237 116.260428 
L 48.685847 116.233457 
L 50.947995 116.206486 
L 53.210142 116.179516 
L 55.47229 116.152545 
L 57.734437 116.125574 
L 59.996585 116.098603 
L 62.258732 116.071633 
L 64.52088 116.044662 
L 66.783027 116.017691 
L 69.045175 115.990721 
L 71.307322 115.96375 
L 73.569469 115.936779 
L 75.831617 115.909809 
L 78.093764 115.882838 
L 80.355912 115.855867 
L 82.618059 115.828897 
L 84.880207 115.801926 
L 87.142354 115.774955 
L 89.404502 115.747985 
L 91.666649 115.721014 
L 93.928797 115.694043 
L 96.190944 115.667073 
L 98.453092 115.640102 
L 100.715239 115.613131 
L 102.977387 115.58616 
L 105.239534 115.55919 
L 107.501682 115.532219 
L 109.763829 115.505248 
L 112.025977 115.478278 
L 114.288124 115.451307 
L 116.550272 115.424336 
L 118.812419 115.397366 
L 121.074567 115.370395 
L 123.336714 115.343424 
L 125.598862 115.316454 
L 127.861009 115.289483 
L 130.123156 115.262512 
L 132.385304 115.235542 
L 134.647451 115.208571 
L 136.909599 115.1816 
L 139.171746 115.15463 
L 141.433894 115.127659 
L 143.696041 115.100688 
L 145.958189 115.073717 
L 148.220336 115.046747 
L 150.482484 115.019776 
L 152.744631 114.992805 
L 155.006779 114.965835 
L 157.268926 114.938864 
L 159.531074 114.911893 
L 161.793221 114.884923 
L 164.055369 114.857952 
L 166.317516 114.830981 
L 168.579664 114.804011 
L 170.841811 114.77704 
L 173.103959 114.750069 
L 175.366106 114.723099 
L 177.628254 114.696128 
L 179.890401 114.669157 
L 182.152549 114.642187 
L 184.414696 114.615216 
L 186.676844 114.588245 
L 188.938991 114.561274 
L 191.201138 114.534304 
L 193.463286 114.507333 
L 195.725433 114.480362 
L 197.987581 114.453392 
L 200.249728 114.426421 
L 202.511876 114.39945 
L 204.774023 114.37248 
L 207.036171 114.345509 
L 209.298318 114.318538 
L 211.560466 114.291568 
L 213.822613 114.264597 
L 216.084761 114.237626 
L 218.346908 114.210656 
L 220.609056 114.183685 
L 222.871203 114.156714 
L 225.133351 114.129744 
L 227.395498 114.102773 
L 229.657646 114.075802 
L 231.919793 114.048831 
L 234.181941 114.021861 
L 236.444088 113.99489 
L 238.706236 113.967919 
L 240.968383 113.940949 
L 243.230531 113.913978 
L 245.492678 113.887007 
L 247.754825 113.860037 
L 250.016973 113.833066 
L 252.27912 113.806095 
L 254.541268 113.779125 
L 256.803415 113.752154 
L 259.065563 113.725183 
L 261.32771 113.698213 
L 263.589858 113.671242 
L 265.852005 113.644271 
L 268.114153 113.617301 
L 270.3763 113.59033 
" style="fill:none;stroke:#ff7f0e;stroke-linecap:square;stroke-width:1.5;"/>
   </g>
   <g id="line2d_4">
    <path clip-path="url(#pa8767e0f30)" d="M 46.4237 111.654677 
L 48.685847 111.389235 
L 50.947995 111.123793 
L 53.210142 110.858351 
L 55.47229 110.592909 
L 57.734437 110.327467 
L 59.996585 110.062025 
L 62.258732 109.796583 
L 64.52088 109.531142 
L 66.783027 109.2657 
L 69.045175 109.000258 
L 71.307322 108.734816 
L 73.569469 108.469374 
L 75.831617 108.203932 
L 78.093764 107.93849 
L 80.355912 107.673048 
L 82.618059 107.407607 
L 84.880207 107.142165 
L 87.142354 106.876723 
L 89.404502 106.611281 
L 91.666649 106.345839 
L 93.928797 106.080397 
L 96.190944 105.814955 
L 98.453092 105.549513 
L 100.715239 105.284071 
L 102.977387 105.01863 
L 105.239534 104.753188 
L 107.501682 104.487746 
L 109.763829 104.222304 
L 112.025977 103.956862 
L 114.288124 103.69142 
L 116.550272 103.425978 
L 118.812419 103.160536 
L 121.074567 102.895095 
L 123.336714 102.629653 
L 125.598862 102.364211 
L 127.861009 102.098769 
L 130.123156 101.833327 
L 132.385304 101.567885 
L 134.647451 101.302443 
L 136.909599 101.037001 
L 139.171746 100.77156 
L 141.433894 100.506118 
L 143.696041 100.240676 
L 145.958189 99.975234 
L 148.220336 99.709792 
L 150.482484 99.44435 
L 152.744631 99.178908 
L 155.006779 98.913466 
L 157.268926 98.648025 
L 159.531074 98.382583 
L 161.793221 98.117141 
L 164.055369 97.851699 
L 166.317516 97.586257 
L 168.579664 97.320815 
L 170.841811 97.055373 
L 173.103959 96.789931 
L 175.366106 96.524489 
L 177.628254 96.259048 
L 179.890401 95.993606 
L 182.152549 95.728164 
L 184.414696 95.462722 
L 186.676844 95.19728 
L 188.938991 94.931838 
L 191.201138 94.666396 
L 193.463286 94.400954 
L 195.725433 94.135513 
L 197.987581 93.870071 
L 200.249728 93.604629 
L 202.511876 93.339187 
L 204.774023 93.073745 
L 207.036171 92.808303 
L 209.298318 92.542861 
L 211.560466 92.277419 
L 213.822613 92.011978 
L 216.084761 91.746536 
L 218.346908 91.481094 
L 220.609056 91.215652 
L 222.871203 90.95021 
L 225.133351 90.684768 
L 227.395498 90.419326 
L 229.657646 90.153884 
L 231.919793 89.888442 
L 234.181941 89.623001 
L 236.444088 89.357559 
L 238.706236 89.092117 
L 240.968383 88.826675 
L 243.230531 88.561233 
L 245.492678 88.295791 
L 247.754825 88.030349 
L 250.016973 87.764907 
L 252.27912 87.499466 
L 254.541268 87.234024 
L 256.803415 86.968582 
L 259.065563 86.70314 
L 261.32771 86.437698 
L 263.589858 86.172256 
L 265.852005 85.906814 
L 268.114153 85.641372 
L 270.3763 85.375931 
" style="fill:none;stroke:#2ca02c;stroke-linecap:square;stroke-width:1.5;"/>
   </g>
   <g id="line2d_5">
    <path clip-path="url(#pa8767e0f30)" d="M 46.4237 144.170138 
L 48.685847 143.966881 
L 50.947995 143.763625 
L 53.210142 143.560368 
L 55.47229 143.357112 
L 57.734437 143.153855 
L 59.996585 142.950598 
L 62.258732 142.747342 
L 64.52088 142.544085 
L 66.783027 142.340829 
L 69.045175 142.137572 
L 71.307322 141.934315 
L 73.569469 141.731059 
L 75.831617 141.527802 
L 78.093764 141.324546 
L 80.355912 141.121289 
L 82.618059 140.918032 
L 84.880207 140.714776 
L 87.142354 140.511519 
L 89.404502 140.308263 
L 91.666649 140.105006 
L 93.928797 139.901749 
L 96.190944 139.698493 
L 98.453092 139.495236 
L 100.715239 139.29198 
L 102.977387 139.088723 
L 105.239534 138.885466 
L 107.501682 138.68221 
L 109.763829 138.478953 
L 112.025977 138.275697 
L 114.288124 138.07244 
L 116.550272 137.869183 
L 118.812419 137.665927 
L 121.074567 137.46267 
L 123.336714 137.259413 
L 125.598862 137.056157 
L 127.861009 136.8529 
L 130.123156 136.649644 
L 132.385304 136.446387 
L 134.647451 136.24313 
L 136.909599 136.039874 
L 139.171746 135.836617 
L 141.433894 135.633361 
L 143.696041 135.430104 
L 145.958189 135.226847 
L 148.220336 135.023591 
L 150.482484 134.820334 
L 152.744631 134.617078 
L 155.006779 134.413821 
L 157.268926 134.210564 
L 159.531074 134.007308 
L 161.793221 133.804051 
L 164.055369 133.600795 
L 166.317516 133.397538 
L 168.579664 133.194281 
L 170.841811 132.991025 
L 173.103959 132.787768 
L 175.366106 132.584512 
L 177.628254 132.381255 
L 179.890401 132.177998 
L 182.152549 131.974742 
L 184.414696 131.771485 
L 186.676844 131.568229 
L 188.938991 131.364972 
L 191.201138 131.161715 
L 193.463286 130.958459 
L 195.725433 130.755202 
L 197.987581 130.551946 
L 200.249728 130.348689 
L 202.511876 130.145432 
L 204.774023 129.942176 
L 207.036171 129.738919 
L 209.298318 129.535663 
L 211.560466 129.332406 
L 213.822613 129.129149 
L 216.084761 128.925893 
L 218.346908 128.722636 
L 220.609056 128.51938 
L 222.871203 128.316123 
L 225.133351 128.112866 
L 227.395498 127.90961 
L 229.657646 127.706353 
L 231.919793 127.503097 
L 234.181941 127.29984 
L 236.444088 127.096583 
L 238.706236 126.893327 
L 240.968383 126.69007 
L 243.230531 126.486814 
L 245.492678 126.283557 
L 247.754825 126.0803 
L 250.016973 125.877044 
L 252.27912 125.673787 
L 254.541268 125.470531 
L 256.803415 125.267274 
L 259.065563 125.064017 
L 261.32771 124.860761 
L 263.589858 124.657504 
L 265.852005 124.454248 
L 268.114153 124.250991 
L 270.3763 124.047734 
" style="fill:none;stroke:#d62728;stroke-linecap:square;stroke-width:1.5;"/>
   </g>
   <g id="line2d_6">
    <path clip-path="url(#pa8767e0f30)" d="M 46.4237 127.793119 
L 48.685847 127.544033 
L 50.947995 127.294947 
L 53.210142 127.045861 
L 55.47229 126.796775 
L 57.734437 126.547689 
L 59.996585 126.298604 
L 62.258732 126.049518 
L 64.52088 125.800432 
L 66.783027 125.551346 
L 69.045175 125.30226 
L 71.307322 125.053174 
L 73.569469 124.804088 
L 75.831617 124.555002 
L 78.093764 124.305917 
L 80.355912 124.056831 
L 82.618059 123.807745 
L 84.880207 123.558659 
L 87.142354 123.309573 
L 89.404502 123.060487 
L 91.666649 122.811401 
L 93.928797 122.562315 
L 96.190944 122.313229 
L 98.453092 122.064144 
L 100.715239 121.815058 
L 102.977387 121.565972 
L 105.239534 121.316886 
L 107.501682 121.0678 
L 109.763829 120.818714 
L 112.025977 120.569628 
L 114.288124 120.320542 
L 116.550272 120.071457 
L 118.812419 119.822371 
L 121.074567 119.573285 
L 123.336714 119.324199 
L 125.598862 119.075113 
L 127.861009 118.826027 
L 130.123156 118.576941 
L 132.385304 118.327855 
L 134.647451 118.07877 
L 136.909599 117.829684 
L 139.171746 117.580598 
L 141.433894 117.331512 
L 143.696041 117.082426 
L 145.958189 116.83334 
L 148.220336 116.584254 
L 150.482484 116.335168 
L 152.744631 116.086083 
L 155.006779 115.836997 
L 157.268926 115.587911 
L 159.531074 115.338825 
L 161.793221 115.089739 
L 164.055369 114.840653 
L 166.317516 114.591567 
L 168.579664 114.342481 
L 170.841811 114.093396 
L 173.103959 113.84431 
L 175.366106 113.595224 
L 177.628254 113.346138 
L 179.890401 113.097052 
L 182.152549 112.847966 
L 184.414696 112.59888 
L 186.676844 112.349794 
L 188.938991 112.100709 
L 191.201138 111.851623 
L 193.463286 111.602537 
L 195.725433 111.353451 
L 197.987581 111.104365 
L 200.249728 110.855279 
L 202.511876 110.606193 
L 204.774023 110.357107 
L 207.036171 110.108021 
L 209.298318 109.858936 
L 211.560466 109.60985 
L 213.822613 109.360764 
L 216.084761 109.111678 
L 218.346908 108.862592 
L 220.609056 108.613506 
L 222.871203 108.36442 
L 225.133351 108.115334 
L 227.395498 107.866249 
L 229.657646 107.617163 
L 231.919793 107.368077 
L 234.181941 107.118991 
L 236.444088 106.869905 
L 238.706236 106.620819 
L 240.968383 106.371733 
L 243.230531 106.122647 
L 245.492678 105.873562 
L 247.754825 105.624476 
L 250.016973 105.37539 
L 252.27912 105.126304 
L 254.541268 104.877218 
L 256.803415 104.628132 
L 259.065563 104.379046 
L 261.32771 104.12996 
L 263.589858 103.880875 
L 265.852005 103.631789 
L 268.114153 103.382703 
L 270.3763 103.133617 
" style="fill:none;stroke:#9467bd;stroke-linecap:square;stroke-width:1.5;"/>
   </g>
   <g id="line2d_7">
    <path clip-path="url(#pa8767e0f30)" d="M 46.4237 113.127498 
L 48.685847 113.094314 
L 50.947995 113.061131 
L 53.210142 113.027947 
L 55.47229 112.994763 
L 57.734437 112.96158 
L 59.996585 112.928396 
L 62.258732 112.895212 
L 64.52088 112.862029 
L 66.783027 112.828845 
L 69.045175 112.795661 
L 71.307322 112.762477 
L 73.569469 112.729294 
L 75.831617 112.69611 
L 78.093764 112.662926 
L 80.355912 112.629743 
L 82.618059 112.596559 
L 84.880207 112.563375 
L 87.142354 112.530192 
L 89.404502 112.497008 
L 91.666649 112.463824 
L 93.928797 112.430641 
L 96.190944 112.397457 
L 98.453092 112.364273 
L 100.715239 112.331089 
L 102.977387 112.297906 
L 105.239534 112.264722 
L 107.501682 112.231538 
L 109.763829 112.198355 
L 112.025977 112.165171 
L 114.288124 112.131987 
L 116.550272 112.098804 
L 118.812419 112.06562 
L 121.074567 112.032436 
L 123.336714 111.999253 
L 125.598862 111.966069 
L 127.861009 111.932885 
L 130.123156 111.899701 
L 132.385304 111.866518 
L 134.647451 111.833334 
L 136.909599 111.80015 
L 139.171746 111.766967 
L 141.433894 111.733783 
L 143.696041 111.700599 
L 145.958189 111.667416 
L 148.220336 111.634232 
L 150.482484 111.601048 
L 152.744631 111.567865 
L 155.006779 111.534681 
L 157.268926 111.501497 
L 159.531074 111.468314 
L 161.793221 111.43513 
L 164.055369 111.401946 
L 166.317516 111.368762 
L 168.579664 111.335579 
L 170.841811 111.302395 
L 173.103959 111.269211 
L 175.366106 111.236028 
L 177.628254 111.202844 
L 179.890401 111.16966 
L 182.152549 111.136477 
L 184.414696 111.103293 
L 186.676844 111.070109 
L 188.938991 111.036926 
L 191.201138 111.003742 
L 193.463286 110.970558 
L 195.725433 110.937374 
L 197.987581 110.904191 
L 200.249728 110.871007 
L 202.511876 110.837823 
L 204.774023 110.80464 
L 207.036171 110.771456 
L 209.298318 110.738272 
L 211.560466 110.705089 
L 213.822613 110.671905 
L 216.084761 110.638721 
L 218.346908 110.605538 
L 220.609056 110.572354 
L 222.871203 110.53917 
L 225.133351 110.505987 
L 227.395498 110.472803 
L 229.657646 110.439619 
L 231.919793 110.406435 
L 234.181941 110.373252 
L 236.444088 110.340068 
L 238.706236 110.306884 
L 240.968383 110.273701 
L 243.230531 110.240517 
L 245.492678 110.207333 
L 247.754825 110.17415 
L 250.016973 110.140966 
L 252.27912 110.107782 
L 254.541268 110.074599 
L 256.803415 110.041415 
L 259.065563 110.008231 
L 261.32771 109.975047 
L 263.589858 109.941864 
L 265.852005 109.90868 
L 268.114153 109.875496 
L 270.3763 109.842313 
" style="fill:none;stroke:#8c564b;stroke-linecap:square;stroke-width:1.5;"/>
   </g>
   <g id="patch_3">
    <path d="M 28.8 194.4 
L 28.8 0 
" style="fill:none;stroke:#000000;stroke-linecap:square;stroke-linejoin:miter;stroke-width:0.8;"/>
   </g>
   <g id="patch_4">
    <path d="M 28.8 194.4 
L 288 194.4 
" style="fill:none;stroke:#000000;stroke-linecap:square;stroke-linejoin:miter;stroke-width:0.8;"/>
   </g>
  </g>
 </g>
 <defs>
  <clipPath id="pa8767e0f30">
   <rect height="194.4" width="259.2" x="28.8" y="0"/>
  </clipPath>
 </defs>
</svg>
