<?xml version="1.0" encoding="utf-8" standalone="no"?>
<!DOCTYPE svg PUBLIC "-//W3C//DTD SVG 1.1//EN"
  "http://www.w3.org/Graphics/SVG/1.1/DTD/svg11.dtd">
<!-- Created with matplotlib (https://matplotlib.org/) -->
<svg height="293.085pt" version="1.1" viewBox="0 0 465.885 293.085" width="465.885pt" xmlns="http://www.w3.org/2000/svg" xmlns:xlink="http://www.w3.org/1999/xlink">
 <metadata>
  <rdf:RDF xmlns:cc="http://creativecommons.org/ns#" xmlns:dc="http://purl.org/dc/elements/1.1/" xmlns:rdf="http://www.w3.org/1999/02/22-rdf-syntax-ns#">
   <cc:Work>
    <dc:type rdf:resource="http://purl.org/dc/dcmitype/StillImage"/>
    <dc:date>2021-04-28T17:02:30.012368</dc:date>
    <dc:format>image/svg+xml</dc:format>
    <dc:creator>
     <cc:Agent>
      <dc:title>Matplotlib v3.3.4, https://matplotlib.org/</dc:title>
     </cc:Agent>
    </dc:creator>
   </cc:Work>
  </rdf:RDF>
 </metadata>
 <defs>
  <style type="text/css">*{stroke-linecap:butt;stroke-linejoin:round;}</style>
 </defs>
 <g id="figure_1">
  <g id="patch_1">
   <path d="M 0 293.085 
L 465.885 293.085 
L 465.885 0 
L 0 0 
z
" style="fill:none;"/>
  </g>
  <g id="axes_1">
   <g id="patch_2">
    <path d="M 26.685 266.4 
L 458.685 266.4 
L 458.685 7.2 
L 26.685 7.2 
z
" style="fill:none;"/>
   </g>
   <g id="PathCollection_1">
    <defs>
     <path d="M 0 3.162278 
C 0.838646 3.162278 1.643056 2.82908 2.236068 2.236068 
C 2.82908 1.643056 3.162278 0.838646 3.162278 0 
C 3.162278 -0.838646 2.82908 -1.643056 2.236068 -2.236068 
C 1.643056 -2.82908 0.838646 -3.162278 0 -3.162278 
C -0.838646 -3.162278 -1.643056 -2.82908 -2.236068 -2.236068 
C -2.82908 -1.643056 -3.162278 -0.838646 -3.162278 0 
C -3.162278 0.838646 -2.82908 1.643056 -2.236068 2.236068 
C -1.643056 2.82908 -0.838646 3.162278 0 3.162278 
z
" id="mc136b015ae" style="stroke:#000000;"/>
    </defs>
    <g clip-path="url(#p9252faa7b1)">
     <use style="stroke:#000000;" x="216.52491" xlink:href="#mc136b015ae" y="157.390854"/>
     <use style="stroke:#000000;" x="342.512097" xlink:href="#mc136b015ae" y="229.181873"/>
     <use style="stroke:#000000;" x="43.347894" xlink:href="#mc136b015ae" y="206.2456"/>
     <use style="stroke:#000000;" x="168.884684" xlink:href="#mc136b015ae" y="124.73596"/>
     <use style="stroke:#000000;" x="104.260524" xlink:href="#mc136b015ae" y="163.430512"/>
     <use style="stroke:#000000;" x="81.656416" xlink:href="#mc136b015ae" y="183.721526"/>
     <use style="stroke:#000000;" x="120.670011" xlink:href="#mc136b015ae" y="155.195107"/>
     <use style="stroke:#000000;" x="186.840994" xlink:href="#mc136b015ae" y="119.467711"/>
     <use style="stroke:#000000;" x="208.111489" xlink:href="#mc136b015ae" y="150.846186"/>
     <use style="stroke:#000000;" x="267.116566" xlink:href="#mc136b015ae" y="166.589993"/>
     <use style="stroke:#000000;" x="217.427337" xlink:href="#mc136b015ae" y="150.689035"/>
     <use style="stroke:#000000;" x="327.930023" xlink:href="#mc136b015ae" y="213.917052"/>
     <use style="stroke:#000000;" x="128.226704" xlink:href="#mc136b015ae" y="171.649023"/>
     <use style="stroke:#000000;" x="408.056858" xlink:href="#mc136b015ae" y="245.356255"/>
     <use style="stroke:#000000;" x="54.676769" xlink:href="#mc136b015ae" y="192.229113"/>
     <use style="stroke:#000000;" x="321.802273" xlink:href="#mc136b015ae" y="197.273783"/>
     <use style="stroke:#000000;" x="216.642379" xlink:href="#mc136b015ae" y="142.84977"/>
     <use style="stroke:#000000;" x="275.371544" xlink:href="#mc136b015ae" y="166.467377"/>
     <use style="stroke:#000000;" x="101.614959" xlink:href="#mc136b015ae" y="161.241504"/>
     <use style="stroke:#000000;" x="125.588695" xlink:href="#mc136b015ae" y="143.782063"/>
     <use style="stroke:#000000;" x="375.917359" xlink:href="#mc136b015ae" y="242.155376"/>
     <use style="stroke:#000000;" x="445.501347" xlink:href="#mc136b015ae" y="224.731998"/>
     <use style="stroke:#000000;" x="173.491966" xlink:href="#mc136b015ae" y="141.330241"/>
     <use style="stroke:#000000;" x="330.880548" xlink:href="#mc136b015ae" y="214.749159"/>
     <use style="stroke:#000000;" x="407.338956" xlink:href="#mc136b015ae" y="233.379955"/>
     <use style="stroke:#000000;" x="414.906229" xlink:href="#mc136b015ae" y="242.561256"/>
     <use style="stroke:#000000;" x="78.626442" xlink:href="#mc136b015ae" y="160.268864"/>
     <use style="stroke:#000000;" x="59.523141" xlink:href="#mc136b015ae" y="165.077292"/>
     <use style="stroke:#000000;" x="113.845328" xlink:href="#mc136b015ae" y="129.429617"/>
     <use style="stroke:#000000;" x="408.067271" xlink:href="#mc136b015ae" y="260.162971"/>
     <use style="stroke:#000000;" x="84.152146" xlink:href="#mc136b015ae" y="193.874843"/>
     <use style="stroke:#000000;" x="218.222013" xlink:href="#mc136b015ae" y="162.293004"/>
     <use style="stroke:#000000;" x="441.192959" xlink:href="#mc136b015ae" y="240.433878"/>
     <use style="stroke:#000000;" x="264.769041" xlink:href="#mc136b015ae" y="161.736435"/>
     <use style="stroke:#000000;" x="330.695493" xlink:href="#mc136b015ae" y="205.972481"/>
     <use style="stroke:#000000;" x="174.360724" xlink:href="#mc136b015ae" y="177.17315"/>
     <use style="stroke:#000000;" x="328.462308" xlink:href="#mc136b015ae" y="213.555587"/>
     <use style="stroke:#000000;" x="389.991048" xlink:href="#mc136b015ae" y="224.44241"/>
     <use style="stroke:#000000;" x="50.897054" xlink:href="#mc136b015ae" y="188.15259"/>
     <use style="stroke:#000000;" x="354.898792" xlink:href="#mc136b015ae" y="211.899661"/>
     <use style="stroke:#000000;" x="454.058068" xlink:href="#mc136b015ae" y="244.717974"/>
     <use style="stroke:#000000;" x="354.076887" xlink:href="#mc136b015ae" y="225.127766"/>
     <use style="stroke:#000000;" x="159.792504" xlink:href="#mc136b015ae" y="146.612226"/>
     <use style="stroke:#000000;" x="371.154875" xlink:href="#mc136b015ae" y="223.876085"/>
     <use style="stroke:#000000;" x="86.17888" xlink:href="#mc136b015ae" y="169.647336"/>
     <use style="stroke:#000000;" x="229.348465" xlink:href="#mc136b015ae" y="157.048295"/>
     <use style="stroke:#000000;" x="420.716978" xlink:href="#mc136b015ae" y="251.643643"/>
     <use style="stroke:#000000;" x="165.263185" xlink:href="#mc136b015ae" y="143.49219"/>
     <use style="stroke:#000000;" x="162.837833" xlink:href="#mc136b015ae" y="147.268966"/>
     <use style="stroke:#000000;" x="97.312253" xlink:href="#mc136b015ae" y="151.214098"/>
     <use style="stroke:#000000;" x="51.345121" xlink:href="#mc136b015ae" y="174.202141"/>
     <use style="stroke:#000000;" x="325.278221" xlink:href="#mc136b015ae" y="204.868788"/>
     <use style="stroke:#000000;" x="131.207448" xlink:href="#mc136b015ae" y="159.946114"/>
     <use style="stroke:#000000;" x="153.604382" xlink:href="#mc136b015ae" y="158.997595"/>
     <use style="stroke:#000000;" x="247.492312" xlink:href="#mc136b015ae" y="159.951986"/>
     <use style="stroke:#000000;" x="65.466365" xlink:href="#mc136b015ae" y="182.190147"/>
     <use style="stroke:#000000;" x="281.780005" xlink:href="#mc136b015ae" y="187.954608"/>
     <use style="stroke:#000000;" x="104.249177" xlink:href="#mc136b015ae" y="163.537242"/>
     <use style="stroke:#000000;" x="288.088838" xlink:href="#mc136b015ae" y="195.340083"/>
     <use style="stroke:#000000;" x="333.969242" xlink:href="#mc136b015ae" y="202.318311"/>
    </g>
   </g>
   <g id="matplotlib.axis_1">
    <g id="text_1">
     <!-- x -->
     <g transform="translate(237.525 282.5575)scale(0.16 -0.16)">
      <defs>
       <path d="M 22.21875 27.984375 
L 2.484375 54.6875 
L 21 54.6875 
L 32.171875 38.484375 
L 43.5 54.6875 
L 62.015625 54.6875 
L 42.28125 28.078125 
L 62.984375 0 
L 44.484375 0 
L 32.171875 17.28125 
L 20.015625 0 
L 1.515625 0 
z
" id="DejaVuSans-Bold-120"/>
      </defs>
      <use xlink:href="#DejaVuSans-Bold-120"/>
     </g>
    </g>
   </g>
   <g id="matplotlib.axis_2">
    <g id="text_2">
     <!-- y -->
     <g transform="translate(19.2325 142.015)rotate(-90)scale(0.16 -0.16)">
      <defs>
       <path d="M 1.21875 54.6875 
L 18.703125 54.6875 
L 33.40625 17.578125 
L 45.90625 54.6875 
L 63.375 54.6875 
L 40.375 -5.171875 
Q 36.921875 -14.3125 32.296875 -17.9375 
Q 27.6875 -21.578125 20.125 -21.578125 
L 10.015625 -21.578125 
L 10.015625 -10.109375 
L 15.484375 -10.109375 
Q 19.921875 -10.109375 21.9375 -8.6875 
Q 23.96875 -7.28125 25.09375 -3.609375 
L 25.59375 -2.09375 
z
" id="DejaVuSans-Bold-121"/>
      </defs>
      <use xlink:href="#DejaVuSans-Bold-121"/>
     </g>
    </g>
   </g>
   <g id="line2d_1">
    <path clip-path="url(#p9252faa7b1)" d="M 43.300385 161.524482 
L 283.639978 161.524482 
L 285.029224 224.893925 
L 458.685 224.893925 
L 458.685 224.893925 
" style="fill:none;stroke:#1f77b4;stroke-linecap:square;stroke-width:4;"/>
   </g>
   <g id="line2d_2">
    <path clip-path="url(#p9252faa7b1)" d="M 43.300385 181.560945 
L 90.534756 181.560945 
L 91.924002 154.368602 
L 283.639978 154.368602 
L 285.029224 224.893925 
L 458.685 224.893925 
L 458.685 224.893925 
" style="fill:none;stroke:#ff7f0e;stroke-linecap:square;stroke-width:4;"/>
   </g>
   <g id="patch_3">
    <path d="M 26.685 266.4 
L 26.685 7.2 
" style="fill:none;stroke:#000000;stroke-linecap:square;stroke-linejoin:miter;stroke-width:0.8;"/>
   </g>
   <g id="patch_4">
    <path d="M 26.685 266.4 
L 458.685 266.4 
" style="fill:none;stroke:#000000;stroke-linecap:square;stroke-linejoin:miter;stroke-width:0.8;"/>
   </g>
   <g id="legend_1">
    <g id="PathCollection_2">
     <g>
      <use style="stroke:#000000;" x="266.338125" xlink:href="#mc136b015ae" y="32.352187"/>
     </g>
    </g>
    <g id="text_3">
     <!-- training data -->
     <g transform="translate(288.838125 37.077187)scale(0.18 -0.18)">
      <defs>
       <path d="M 18.3125 70.21875 
L 18.3125 54.6875 
L 36.8125 54.6875 
L 36.8125 47.703125 
L 18.3125 47.703125 
L 18.3125 18.015625 
Q 18.3125 11.328125 20.140625 9.421875 
Q 21.96875 7.515625 27.59375 7.515625 
L 36.8125 7.515625 
L 36.8125 0 
L 27.59375 0 
Q 17.1875 0 13.234375 3.875 
Q 9.28125 7.765625 9.28125 18.015625 
L 9.28125 47.703125 
L 2.6875 47.703125 
L 2.6875 54.6875 
L 9.28125 54.6875 
L 9.28125 70.21875 
z
" id="DejaVuSans-116"/>
       <path d="M 41.109375 46.296875 
Q 39.59375 47.171875 37.8125 47.578125 
Q 36.03125 48 33.890625 48 
Q 26.265625 48 22.1875 43.046875 
Q 18.109375 38.09375 18.109375 28.8125 
L 18.109375 0 
L 9.078125 0 
L 9.078125 54.6875 
L 18.109375 54.6875 
L 18.109375 46.1875 
Q 20.953125 51.171875 25.484375 53.578125 
Q 30.03125 56 36.53125 56 
Q 37.453125 56 38.578125 55.875 
Q 39.703125 55.765625 41.0625 55.515625 
z
" id="DejaVuSans-114"/>
       <path d="M 34.28125 27.484375 
Q 23.390625 27.484375 19.1875 25 
Q 14.984375 22.515625 14.984375 16.5 
Q 14.984375 11.71875 18.140625 8.90625 
Q 21.296875 6.109375 26.703125 6.109375 
Q 34.1875 6.109375 38.703125 11.40625 
Q 43.21875 16.703125 43.21875 25.484375 
L 43.21875 27.484375 
z
M 52.203125 31.203125 
L 52.203125 0 
L 43.21875 0 
L 43.21875 8.296875 
Q 40.140625 3.328125 35.546875 0.953125 
Q 30.953125 -1.421875 24.3125 -1.421875 
Q 15.921875 -1.421875 10.953125 3.296875 
Q 6 8.015625 6 15.921875 
Q 6 25.140625 12.171875 29.828125 
Q 18.359375 34.515625 30.609375 34.515625 
L 43.21875 34.515625 
L 43.21875 35.40625 
Q 43.21875 41.609375 39.140625 45 
Q 35.0625 48.390625 27.6875 48.390625 
Q 23 48.390625 18.546875 47.265625 
Q 14.109375 46.140625 10.015625 43.890625 
L 10.015625 52.203125 
Q 14.9375 54.109375 19.578125 55.046875 
Q 24.21875 56 28.609375 56 
Q 40.484375 56 46.34375 49.84375 
Q 52.203125 43.703125 52.203125 31.203125 
z
" id="DejaVuSans-97"/>
       <path d="M 9.421875 54.6875 
L 18.40625 54.6875 
L 18.40625 0 
L 9.421875 0 
z
M 9.421875 75.984375 
L 18.40625 75.984375 
L 18.40625 64.59375 
L 9.421875 64.59375 
z
" id="DejaVuSans-105"/>
       <path d="M 54.890625 33.015625 
L 54.890625 0 
L 45.90625 0 
L 45.90625 32.71875 
Q 45.90625 40.484375 42.875 44.328125 
Q 39.84375 48.1875 33.796875 48.1875 
Q 26.515625 48.1875 22.3125 43.546875 
Q 18.109375 38.921875 18.109375 30.90625 
L 18.109375 0 
L 9.078125 0 
L 9.078125 54.6875 
L 18.109375 54.6875 
L 18.109375 46.1875 
Q 21.34375 51.125 25.703125 53.5625 
Q 30.078125 56 35.796875 56 
Q 45.21875 56 50.046875 50.171875 
Q 54.890625 44.34375 54.890625 33.015625 
z
" id="DejaVuSans-110"/>
       <path d="M 45.40625 27.984375 
Q 45.40625 37.75 41.375 43.109375 
Q 37.359375 48.484375 30.078125 48.484375 
Q 22.859375 48.484375 18.828125 43.109375 
Q 14.796875 37.75 14.796875 27.984375 
Q 14.796875 18.265625 18.828125 12.890625 
Q 22.859375 7.515625 30.078125 7.515625 
Q 37.359375 7.515625 41.375 12.890625 
Q 45.40625 18.265625 45.40625 27.984375 
z
M 54.390625 6.78125 
Q 54.390625 -7.171875 48.1875 -13.984375 
Q 42 -20.796875 29.203125 -20.796875 
Q 24.46875 -20.796875 20.265625 -20.09375 
Q 16.0625 -19.390625 12.109375 -17.921875 
L 12.109375 -9.1875 
Q 16.0625 -11.328125 19.921875 -12.34375 
Q 23.78125 -13.375 27.78125 -13.375 
Q 36.625 -13.375 41.015625 -8.765625 
Q 45.40625 -4.15625 45.40625 5.171875 
L 45.40625 9.625 
Q 42.625 4.78125 38.28125 2.390625 
Q 33.9375 0 27.875 0 
Q 17.828125 0 11.671875 7.65625 
Q 5.515625 15.328125 5.515625 27.984375 
Q 5.515625 40.671875 11.671875 48.328125 
Q 17.828125 56 27.875 56 
Q 33.9375 56 38.28125 53.609375 
Q 42.625 51.21875 45.40625 46.390625 
L 45.40625 54.6875 
L 54.390625 54.6875 
z
" id="DejaVuSans-103"/>
       <path id="DejaVuSans-32"/>
       <path d="M 45.40625 46.390625 
L 45.40625 75.984375 
L 54.390625 75.984375 
L 54.390625 0 
L 45.40625 0 
L 45.40625 8.203125 
Q 42.578125 3.328125 38.25 0.953125 
Q 33.9375 -1.421875 27.875 -1.421875 
Q 17.96875 -1.421875 11.734375 6.484375 
Q 5.515625 14.40625 5.515625 27.296875 
Q 5.515625 40.1875 11.734375 48.09375 
Q 17.96875 56 27.875 56 
Q 33.9375 56 38.25 53.625 
Q 42.578125 51.265625 45.40625 46.390625 
z
M 14.796875 27.296875 
Q 14.796875 17.390625 18.875 11.75 
Q 22.953125 6.109375 30.078125 6.109375 
Q 37.203125 6.109375 41.296875 11.75 
Q 45.40625 17.390625 45.40625 27.296875 
Q 45.40625 37.203125 41.296875 42.84375 
Q 37.203125 48.484375 30.078125 48.484375 
Q 22.953125 48.484375 18.875 42.84375 
Q 14.796875 37.203125 14.796875 27.296875 
z
" id="DejaVuSans-100"/>
      </defs>
      <use xlink:href="#DejaVuSans-116"/>
      <use x="39.208984" xlink:href="#DejaVuSans-114"/>
      <use x="80.322266" xlink:href="#DejaVuSans-97"/>
      <use x="141.601562" xlink:href="#DejaVuSans-105"/>
      <use x="169.384766" xlink:href="#DejaVuSans-110"/>
      <use x="232.763672" xlink:href="#DejaVuSans-105"/>
      <use x="260.546875" xlink:href="#DejaVuSans-110"/>
      <use x="323.925781" xlink:href="#DejaVuSans-103"/>
      <use x="387.402344" xlink:href="#DejaVuSans-32"/>
      <use x="419.189453" xlink:href="#DejaVuSans-100"/>
      <use x="482.666016" xlink:href="#DejaVuSans-97"/>
      <use x="543.945312" xlink:href="#DejaVuSans-116"/>
      <use x="583.154297" xlink:href="#DejaVuSans-97"/>
     </g>
    </g>
    <g id="line2d_3">
     <path d="M 252.838125 57.197812 
L 279.838125 57.197812 
" style="fill:none;stroke:#1f77b4;stroke-linecap:square;stroke-width:4;"/>
    </g>
    <g id="line2d_4"/>
    <g id="text_4">
     <!-- 1 split  / 2 leaves -->
     <g transform="translate(288.838125 63.497812)scale(0.18 -0.18)">
      <defs>
       <path d="M 12.40625 8.296875 
L 28.515625 8.296875 
L 28.515625 63.921875 
L 10.984375 60.40625 
L 10.984375 69.390625 
L 28.421875 72.90625 
L 38.28125 72.90625 
L 38.28125 8.296875 
L 54.390625 8.296875 
L 54.390625 0 
L 12.40625 0 
z
" id="DejaVuSans-49"/>
       <path d="M 44.28125 53.078125 
L 44.28125 44.578125 
Q 40.484375 46.53125 36.375 47.5 
Q 32.28125 48.484375 27.875 48.484375 
Q 21.1875 48.484375 17.84375 46.4375 
Q 14.5 44.390625 14.5 40.28125 
Q 14.5 37.15625 16.890625 35.375 
Q 19.28125 33.59375 26.515625 31.984375 
L 29.59375 31.296875 
Q 39.15625 29.25 43.1875 25.515625 
Q 47.21875 21.78125 47.21875 15.09375 
Q 47.21875 7.46875 41.1875 3.015625 
Q 35.15625 -1.421875 24.609375 -1.421875 
Q 20.21875 -1.421875 15.453125 -0.5625 
Q 10.6875 0.296875 5.421875 2 
L 5.421875 11.28125 
Q 10.40625 8.6875 15.234375 7.390625 
Q 20.0625 6.109375 24.8125 6.109375 
Q 31.15625 6.109375 34.5625 8.28125 
Q 37.984375 10.453125 37.984375 14.40625 
Q 37.984375 18.0625 35.515625 20.015625 
Q 33.0625 21.96875 24.703125 23.78125 
L 21.578125 24.515625 
Q 13.234375 26.265625 9.515625 29.90625 
Q 5.8125 33.546875 5.8125 39.890625 
Q 5.8125 47.609375 11.28125 51.796875 
Q 16.75 56 26.8125 56 
Q 31.78125 56 36.171875 55.265625 
Q 40.578125 54.546875 44.28125 53.078125 
z
" id="DejaVuSans-115"/>
       <path d="M 18.109375 8.203125 
L 18.109375 -20.796875 
L 9.078125 -20.796875 
L 9.078125 54.6875 
L 18.109375 54.6875 
L 18.109375 46.390625 
Q 20.953125 51.265625 25.265625 53.625 
Q 29.59375 56 35.59375 56 
Q 45.5625 56 51.78125 48.09375 
Q 58.015625 40.1875 58.015625 27.296875 
Q 58.015625 14.40625 51.78125 6.484375 
Q 45.5625 -1.421875 35.59375 -1.421875 
Q 29.59375 -1.421875 25.265625 0.953125 
Q 20.953125 3.328125 18.109375 8.203125 
z
M 48.6875 27.296875 
Q 48.6875 37.203125 44.609375 42.84375 
Q 40.53125 48.484375 33.40625 48.484375 
Q 26.265625 48.484375 22.1875 42.84375 
Q 18.109375 37.203125 18.109375 27.296875 
Q 18.109375 17.390625 22.1875 11.75 
Q 26.265625 6.109375 33.40625 6.109375 
Q 40.53125 6.109375 44.609375 11.75 
Q 48.6875 17.390625 48.6875 27.296875 
z
" id="DejaVuSans-112"/>
       <path d="M 9.421875 75.984375 
L 18.40625 75.984375 
L 18.40625 0 
L 9.421875 0 
z
" id="DejaVuSans-108"/>
       <path d="M 25.390625 72.90625 
L 33.6875 72.90625 
L 8.296875 -9.28125 
L 0 -9.28125 
z
" id="DejaVuSans-47"/>
       <path d="M 19.1875 8.296875 
L 53.609375 8.296875 
L 53.609375 0 
L 7.328125 0 
L 7.328125 8.296875 
Q 12.9375 14.109375 22.625 23.890625 
Q 32.328125 33.6875 34.8125 36.53125 
Q 39.546875 41.84375 41.421875 45.53125 
Q 43.3125 49.21875 43.3125 52.78125 
Q 43.3125 58.59375 39.234375 62.25 
Q 35.15625 65.921875 28.609375 65.921875 
Q 23.96875 65.921875 18.8125 64.3125 
Q 13.671875 62.703125 7.8125 59.421875 
L 7.8125 69.390625 
Q 13.765625 71.78125 18.9375 73 
Q 24.125 74.21875 28.421875 74.21875 
Q 39.75 74.21875 46.484375 68.546875 
Q 53.21875 62.890625 53.21875 53.421875 
Q 53.21875 48.921875 51.53125 44.890625 
Q 49.859375 40.875 45.40625 35.40625 
Q 44.1875 33.984375 37.640625 27.21875 
Q 31.109375 20.453125 19.1875 8.296875 
z
" id="DejaVuSans-50"/>
       <path d="M 56.203125 29.59375 
L 56.203125 25.203125 
L 14.890625 25.203125 
Q 15.484375 15.921875 20.484375 11.0625 
Q 25.484375 6.203125 34.421875 6.203125 
Q 39.59375 6.203125 44.453125 7.46875 
Q 49.3125 8.734375 54.109375 11.28125 
L 54.109375 2.78125 
Q 49.265625 0.734375 44.1875 -0.34375 
Q 39.109375 -1.421875 33.890625 -1.421875 
Q 20.796875 -1.421875 13.15625 6.1875 
Q 5.515625 13.8125 5.515625 26.8125 
Q 5.515625 40.234375 12.765625 48.109375 
Q 20.015625 56 32.328125 56 
Q 43.359375 56 49.78125 48.890625 
Q 56.203125 41.796875 56.203125 29.59375 
z
M 47.21875 32.234375 
Q 47.125 39.59375 43.09375 43.984375 
Q 39.0625 48.390625 32.421875 48.390625 
Q 24.90625 48.390625 20.390625 44.140625 
Q 15.875 39.890625 15.1875 32.171875 
z
" id="DejaVuSans-101"/>
       <path d="M 2.984375 54.6875 
L 12.5 54.6875 
L 29.59375 8.796875 
L 46.6875 54.6875 
L 56.203125 54.6875 
L 35.6875 0 
L 23.484375 0 
z
" id="DejaVuSans-118"/>
      </defs>
      <use xlink:href="#DejaVuSans-49"/>
      <use x="63.623047" xlink:href="#DejaVuSans-32"/>
      <use x="95.410156" xlink:href="#DejaVuSans-115"/>
      <use x="147.509766" xlink:href="#DejaVuSans-112"/>
      <use x="210.986328" xlink:href="#DejaVuSans-108"/>
      <use x="238.769531" xlink:href="#DejaVuSans-105"/>
      <use x="266.552734" xlink:href="#DejaVuSans-116"/>
      <use x="305.761719" xlink:href="#DejaVuSans-32"/>
      <use x="337.548828" xlink:href="#DejaVuSans-32"/>
      <use x="369.335938" xlink:href="#DejaVuSans-47"/>
      <use x="403.027344" xlink:href="#DejaVuSans-32"/>
      <use x="434.814453" xlink:href="#DejaVuSans-50"/>
      <use x="498.4375" xlink:href="#DejaVuSans-32"/>
      <use x="530.224609" xlink:href="#DejaVuSans-108"/>
      <use x="558.007812" xlink:href="#DejaVuSans-101"/>
      <use x="619.53125" xlink:href="#DejaVuSans-97"/>
      <use x="680.810547" xlink:href="#DejaVuSans-118"/>
      <use x="739.990234" xlink:href="#DejaVuSans-101"/>
      <use x="801.513672" xlink:href="#DejaVuSans-115"/>
     </g>
    </g>
    <g id="line2d_5">
     <path d="M 252.838125 83.618437 
L 279.838125 83.618437 
" style="fill:none;stroke:#ff7f0e;stroke-linecap:square;stroke-width:4;"/>
    </g>
    <g id="line2d_6"/>
    <g id="text_5">
     <!-- 2 split  / 3 leaves -->
     <g transform="translate(288.838125 89.918437)scale(0.18 -0.18)">
      <defs>
       <path d="M 40.578125 39.3125 
Q 47.65625 37.796875 51.625 33 
Q 55.609375 28.21875 55.609375 21.1875 
Q 55.609375 10.40625 48.1875 4.484375 
Q 40.765625 -1.421875 27.09375 -1.421875 
Q 22.515625 -1.421875 17.65625 -0.515625 
Q 12.796875 0.390625 7.625 2.203125 
L 7.625 11.71875 
Q 11.71875 9.328125 16.59375 8.109375 
Q 21.484375 6.890625 26.8125 6.890625 
Q 36.078125 6.890625 40.9375 10.546875 
Q 45.796875 14.203125 45.796875 21.1875 
Q 45.796875 27.640625 41.28125 31.265625 
Q 36.765625 34.90625 28.71875 34.90625 
L 20.21875 34.90625 
L 20.21875 43.015625 
L 29.109375 43.015625 
Q 36.375 43.015625 40.234375 45.921875 
Q 44.09375 48.828125 44.09375 54.296875 
Q 44.09375 59.90625 40.109375 62.90625 
Q 36.140625 65.921875 28.71875 65.921875 
Q 24.65625 65.921875 20.015625 65.03125 
Q 15.375 64.15625 9.8125 62.3125 
L 9.8125 71.09375 
Q 15.4375 72.65625 20.34375 73.4375 
Q 25.25 74.21875 29.59375 74.21875 
Q 40.828125 74.21875 47.359375 69.109375 
Q 53.90625 64.015625 53.90625 55.328125 
Q 53.90625 49.265625 50.4375 45.09375 
Q 46.96875 40.921875 40.578125 39.3125 
z
" id="DejaVuSans-51"/>
      </defs>
      <use xlink:href="#DejaVuSans-50"/>
      <use x="63.623047" xlink:href="#DejaVuSans-32"/>
      <use x="95.410156" xlink:href="#DejaVuSans-115"/>
      <use x="147.509766" xlink:href="#DejaVuSans-112"/>
      <use x="210.986328" xlink:href="#DejaVuSans-108"/>
      <use x="238.769531" xlink:href="#DejaVuSans-105"/>
      <use x="266.552734" xlink:href="#DejaVuSans-116"/>
      <use x="305.761719" xlink:href="#DejaVuSans-32"/>
      <use x="337.548828" xlink:href="#DejaVuSans-32"/>
      <use x="369.335938" xlink:href="#DejaVuSans-47"/>
      <use x="403.027344" xlink:href="#DejaVuSans-32"/>
      <use x="434.814453" xlink:href="#DejaVuSans-51"/>
      <use x="498.4375" xlink:href="#DejaVuSans-32"/>
      <use x="530.224609" xlink:href="#DejaVuSans-108"/>
      <use x="558.007812" xlink:href="#DejaVuSans-101"/>
      <use x="619.53125" xlink:href="#DejaVuSans-97"/>
      <use x="680.810547" xlink:href="#DejaVuSans-118"/>
      <use x="739.990234" xlink:href="#DejaVuSans-101"/>
      <use x="801.513672" xlink:href="#DejaVuSans-115"/>
     </g>
    </g>
   </g>
  </g>
 </g>
 <defs>
  <clipPath id="p9252faa7b1">
   <rect height="259.2" width="432" x="26.685" y="7.2"/>
  </clipPath>
 </defs>
</svg>
