<?xml version="1.0" encoding="utf-8" standalone="no"?>
<!DOCTYPE svg PUBLIC "-//W3C//DTD SVG 1.1//EN"
  "http://www.w3.org/Graphics/SVG/1.1/DTD/svg11.dtd">
<!-- Created with matplotlib (https://matplotlib.org/) -->
<svg height="228.285pt" version="1.1" viewBox="0 0 586.485 228.285" width="586.485pt" xmlns="http://www.w3.org/2000/svg" xmlns:xlink="http://www.w3.org/1999/xlink">
 <defs>
  <style type="text/css">
*{stroke-linecap:butt;stroke-linejoin:round;}
  </style>
 </defs>
 <g id="figure_1">
  <g id="patch_1">
   <path d="M 0 228.285 
L 586.485 228.285 
L 586.485 0 
L 0 0 
z
" style="fill:none;"/>
  </g>
  <g id="axes_1">
   <g id="patch_2">
    <path d="M 26.685 201.6 
L 458.685 201.6 
L 458.685 7.2 
L 26.685 7.2 
z
" style="fill:none;"/>
   </g>
   <g id="PathCollection_1">
    <defs>
     <path d="M 0 3.162278 
C 0.838646 3.162278 1.643056 2.82908 2.236068 2.236068 
C 2.82908 1.643056 3.162278 0.838646 3.162278 0 
C 3.162278 -0.838646 2.82908 -1.643056 2.236068 -2.236068 
C 1.643056 -2.82908 0.838646 -3.162278 0 -3.162278 
C -0.838646 -3.162278 -1.643056 -2.82908 -2.236068 -2.236068 
C -2.82908 -1.643056 -3.162278 -0.838646 -3.162278 0 
C -3.162278 0.838646 -2.82908 1.643056 -2.236068 2.236068 
C -1.643056 2.82908 -0.838646 3.162278 0 3.162278 
z
" id="m29d7d71746" style="stroke:#000000;"/>
    </defs>
    <g clip-path="url(#p169ebaaea4)">
     <use style="stroke:#000000;" x="26.73441" xlink:href="#m29d7d71746" y="165.307529"/>
     <use style="stroke:#000000;" x="34.585536" xlink:href="#m29d7d71746" y="95.210011"/>
     <use style="stroke:#000000;" x="35.051526" xlink:href="#m29d7d71746" y="94.906632"/>
     <use style="stroke:#000000;" x="38.51644" xlink:href="#m29d7d71746" y="92.656408"/>
     <use style="stroke:#000000;" x="43.556666" xlink:href="#m29d7d71746" y="89.406244"/>
     <use style="stroke:#000000;" x="48.264894" xlink:href="#m29d7d71746" y="107.366143"/>
     <use style="stroke:#000000;" x="49.737619" xlink:href="#m29d7d71746" y="85.472531"/>
     <use style="stroke:#000000;" x="63.424099" xlink:href="#m29d7d71746" y="77.061697"/>
     <use style="stroke:#000000;" x="66.575273" xlink:href="#m29d7d71746" y="75.200452"/>
     <use style="stroke:#000000;" x="69.170832" xlink:href="#m29d7d71746" y="73.692415"/>
     <use style="stroke:#000000;" x="70.893473" xlink:href="#m29d7d71746" y="115.239624"/>
     <use style="stroke:#000000;" x="71.278635" xlink:href="#m29d7d71746" y="72.485419"/>
     <use style="stroke:#000000;" x="82.857343" xlink:href="#m29d7d71746" y="66.16971"/>
     <use style="stroke:#000000;" x="86.074072" xlink:href="#m29d7d71746" y="64.519386"/>
     <use style="stroke:#000000;" x="86.852382" xlink:href="#m29d7d71746" y="64.127458"/>
     <use style="stroke:#000000;" x="87.332157" xlink:href="#m29d7d71746" y="38.275519"/>
     <use style="stroke:#000000;" x="90.071744" xlink:href="#m29d7d71746" y="62.537899"/>
     <use style="stroke:#000000;" x="90.083545" xlink:href="#m29d7d71746" y="62.532168"/>
     <use style="stroke:#000000;" x="98.118013" xlink:href="#m29d7d71746" y="58.799364"/>
     <use style="stroke:#000000;" x="100.051741" xlink:href="#m29d7d71746" y="57.953433"/>
     <use style="stroke:#000000;" x="107.149411" xlink:href="#m29d7d71746" y="16.036364"/>
     <use style="stroke:#000000;" x="112.264843" xlink:href="#m29d7d71746" y="53.117936"/>
     <use style="stroke:#000000;" x="115.008372" xlink:href="#m29d7d71746" y="52.158281"/>
     <use style="stroke:#000000;" x="118.108346" xlink:href="#m29d7d71746" y="51.132483"/>
     <use style="stroke:#000000;" x="141.401157" xlink:href="#m29d7d71746" y="45.529906"/>
     <use style="stroke:#000000;" x="147.836805" xlink:href="#m29d7d71746" y="111.772924"/>
     <use style="stroke:#000000;" x="151.003946" xlink:href="#m29d7d71746" y="44.36002"/>
     <use style="stroke:#000000;" x="153.526312" xlink:href="#m29d7d71746" y="44.16695"/>
     <use style="stroke:#000000;" x="157.292671" xlink:href="#m29d7d71746" y="43.967857"/>
     <use style="stroke:#000000;" x="162.084245" xlink:href="#m29d7d71746" y="43.869484"/>
     <use style="stroke:#000000;" x="162.987753" xlink:href="#m29d7d71746" y="31.681823"/>
     <use style="stroke:#000000;" x="175.967234" xlink:href="#m29d7d71746" y="44.564074"/>
     <use style="stroke:#000000;" x="176.919851" xlink:href="#m29d7d71746" y="44.664871"/>
     <use style="stroke:#000000;" x="198.088549" xlink:href="#m29d7d71746" y="48.620518"/>
     <use style="stroke:#000000;" x="198.481394" xlink:href="#m29d7d71746" y="48.724169"/>
     <use style="stroke:#000000;" x="205.557187" xlink:href="#m29d7d71746" y="129.562345"/>
     <use style="stroke:#000000;" x="205.610444" xlink:href="#m29d7d71746" y="50.788417"/>
     <use style="stroke:#000000;" x="206.838506" xlink:href="#m29d7d71746" y="51.178498"/>
     <use style="stroke:#000000;" x="206.960675" xlink:href="#m29d7d71746" y="51.217848"/>
     <use style="stroke:#000000;" x="207.77703" xlink:href="#m29d7d71746" y="51.483314"/>
     <use style="stroke:#000000;" x="208.603494" xlink:href="#m29d7d71746" y="79.459926"/>
     <use style="stroke:#000000;" x="220.175003" xlink:href="#m29d7d71746" y="56.036635"/>
     <use style="stroke:#000000;" x="239.044605" xlink:href="#m29d7d71746" y="64.678873"/>
     <use style="stroke:#000000;" x="249.117096" xlink:href="#m29d7d71746" y="70.015797"/>
     <use style="stroke:#000000;" x="257.012403" xlink:href="#m29d7d71746" y="74.491078"/>
     <use style="stroke:#000000;" x="258.192247" xlink:href="#m29d7d71746" y="95.806812"/>
     <use style="stroke:#000000;" x="259.453829" xlink:href="#m29d7d71746" y="75.92045"/>
     <use style="stroke:#000000;" x="268.039006" xlink:href="#m29d7d71746" y="81.094051"/>
     <use style="stroke:#000000;" x="274.703806" xlink:href="#m29d7d71746" y="85.2442"/>
     <use style="stroke:#000000;" x="280.076777" xlink:href="#m29d7d71746" y="88.656603"/>
     <use style="stroke:#000000;" x="281.264992" xlink:href="#m29d7d71746" y="24.117077"/>
     <use style="stroke:#000000;" x="313.444287" xlink:href="#m29d7d71746" y="110.338826"/>
     <use style="stroke:#000000;" x="316.326964" xlink:href="#m29d7d71746" y="112.188445"/>
     <use style="stroke:#000000;" x="319.94195" xlink:href="#m29d7d71746" y="114.489098"/>
     <use style="stroke:#000000;" x="322.699824" xlink:href="#m29d7d71746" y="116.22786"/>
     <use style="stroke:#000000;" x="323.253401" xlink:href="#m29d7d71746" y="192.763636"/>
     <use style="stroke:#000000;" x="325.575913" xlink:href="#m29d7d71746" y="118.023917"/>
     <use style="stroke:#000000;" x="325.76837" xlink:href="#m29d7d71746" y="118.143425"/>
     <use style="stroke:#000000;" x="326.665868" xlink:href="#m29d7d71746" y="118.699566"/>
     <use style="stroke:#000000;" x="328.980612" xlink:href="#m29d7d71746" y="120.124637"/>
     <use style="stroke:#000000;" x="337.865181" xlink:href="#m29d7d71746" y="116.964"/>
     <use style="stroke:#000000;" x="340.31613" xlink:href="#m29d7d71746" y="126.879775"/>
     <use style="stroke:#000000;" x="349.892563" xlink:href="#m29d7d71746" y="132.236007"/>
     <use style="stroke:#000000;" x="350.747344" xlink:href="#m29d7d71746" y="132.696021"/>
     <use style="stroke:#000000;" x="351.035829" xlink:href="#m29d7d71746" y="132.850562"/>
     <use style="stroke:#000000;" x="367.65367" xlink:href="#m29d7d71746" y="154.375719"/>
     <use style="stroke:#000000;" x="372.606654" xlink:href="#m29d7d71746" y="143.265925"/>
     <use style="stroke:#000000;" x="375.478037" xlink:href="#m29d7d71746" y="144.464063"/>
     <use style="stroke:#000000;" x="387.24329" xlink:href="#m29d7d71746" y="148.851414"/>
     <use style="stroke:#000000;" x="405.285114" xlink:href="#m29d7d71746" y="153.812696"/>
     <use style="stroke:#000000;" x="406.031733" xlink:href="#m29d7d71746" y="138.398257"/>
     <use style="stroke:#000000;" x="406.042561" xlink:href="#m29d7d71746" y="153.971354"/>
     <use style="stroke:#000000;" x="413.155079" xlink:href="#m29d7d71746" y="155.258666"/>
     <use style="stroke:#000000;" x="416.954627" xlink:href="#m29d7d71746" y="155.794465"/>
     <use style="stroke:#000000;" x="419.198257" xlink:href="#m29d7d71746" y="156.060586"/>
     <use style="stroke:#000000;" x="427.368707" xlink:href="#m29d7d71746" y="112.137194"/>
     <use style="stroke:#000000;" x="434.749935" xlink:href="#m29d7d71746" y="156.866267"/>
     <use style="stroke:#000000;" x="440.493277" xlink:href="#m29d7d71746" y="156.701765"/>
     <use style="stroke:#000000;" x="444.974001" xlink:href="#m29d7d71746" y="156.400564"/>
     <use style="stroke:#000000;" x="453.87299" xlink:href="#m29d7d71746" y="155.356793"/>
    </g>
   </g>
   <g id="matplotlib.axis_1">
    <g id="text_1">
     <!-- x -->
     <defs>
      <path d="M 22.21875 27.984375 
L 2.484375 54.6875 
L 21 54.6875 
L 32.171875 38.484375 
L 43.5 54.6875 
L 62.015625 54.6875 
L 42.28125 28.078125 
L 62.984375 0 
L 44.484375 0 
L 32.171875 17.28125 
L 20.015625 0 
L 1.515625 0 
z
" id="DejaVuSans-Bold-120"/>
     </defs>
     <g transform="translate(237.525 217.7575)scale(0.16 -0.16)">
      <use xlink:href="#DejaVuSans-Bold-120"/>
     </g>
    </g>
   </g>
   <g id="matplotlib.axis_2">
    <g id="text_2">
     <!-- y -->
     <defs>
      <path d="M 1.21875 54.6875 
L 18.703125 54.6875 
L 33.40625 17.578125 
L 45.90625 54.6875 
L 63.375 54.6875 
L 40.375 -5.171875 
Q 36.921875 -14.3125 32.296875 -17.9375 
Q 27.6875 -21.578125 20.125 -21.578125 
L 10.015625 -21.578125 
L 10.015625 -10.109375 
L 15.484375 -10.109375 
Q 19.921875 -10.109375 21.9375 -8.6875 
Q 23.96875 -7.28125 25.09375 -3.609375 
L 25.59375 -2.09375 
z
" id="DejaVuSans-Bold-121"/>
     </defs>
     <g transform="translate(19.2325 109.615)rotate(-90)scale(0.16 -0.16)">
      <use xlink:href="#DejaVuSans-Bold-121"/>
     </g>
    </g>
   </g>
   <g id="patch_3">
    <path d="M 26.685 201.6 
L 26.685 7.2 
" style="fill:none;stroke:#000000;stroke-linecap:square;stroke-linejoin:miter;stroke-width:0.8;"/>
   </g>
   <g id="patch_4">
    <path d="M 26.685 201.6 
L 458.685 201.6 
" style="fill:none;stroke:#000000;stroke-linecap:square;stroke-linejoin:miter;stroke-width:0.8;"/>
   </g>
   <g id="legend_1">
    <g id="PathCollection_2">
     <g>
      <use style="stroke:#000000;" x="423.230625" xlink:href="#m29d7d71746" y="32.352188"/>
     </g>
    </g>
    <g id="text_3">
     <!-- data                -->
     <defs>
      <path d="M 45.40625 46.390625 
L 45.40625 75.984375 
L 54.390625 75.984375 
L 54.390625 0 
L 45.40625 0 
L 45.40625 8.203125 
Q 42.578125 3.328125 38.25 0.953125 
Q 33.9375 -1.421875 27.875 -1.421875 
Q 17.96875 -1.421875 11.734375 6.484375 
Q 5.515625 14.40625 5.515625 27.296875 
Q 5.515625 40.1875 11.734375 48.09375 
Q 17.96875 56 27.875 56 
Q 33.9375 56 38.25 53.625 
Q 42.578125 51.265625 45.40625 46.390625 
z
M 14.796875 27.296875 
Q 14.796875 17.390625 18.875 11.75 
Q 22.953125 6.109375 30.078125 6.109375 
Q 37.203125 6.109375 41.296875 11.75 
Q 45.40625 17.390625 45.40625 27.296875 
Q 45.40625 37.203125 41.296875 42.84375 
Q 37.203125 48.484375 30.078125 48.484375 
Q 22.953125 48.484375 18.875 42.84375 
Q 14.796875 37.203125 14.796875 27.296875 
z
" id="DejaVuSans-100"/>
      <path d="M 34.28125 27.484375 
Q 23.390625 27.484375 19.1875 25 
Q 14.984375 22.515625 14.984375 16.5 
Q 14.984375 11.71875 18.140625 8.90625 
Q 21.296875 6.109375 26.703125 6.109375 
Q 34.1875 6.109375 38.703125 11.40625 
Q 43.21875 16.703125 43.21875 25.484375 
L 43.21875 27.484375 
z
M 52.203125 31.203125 
L 52.203125 0 
L 43.21875 0 
L 43.21875 8.296875 
Q 40.140625 3.328125 35.546875 0.953125 
Q 30.953125 -1.421875 24.3125 -1.421875 
Q 15.921875 -1.421875 10.953125 3.296875 
Q 6 8.015625 6 15.921875 
Q 6 25.140625 12.171875 29.828125 
Q 18.359375 34.515625 30.609375 34.515625 
L 43.21875 34.515625 
L 43.21875 35.40625 
Q 43.21875 41.609375 39.140625 45 
Q 35.0625 48.390625 27.6875 48.390625 
Q 23 48.390625 18.546875 47.265625 
Q 14.109375 46.140625 10.015625 43.890625 
L 10.015625 52.203125 
Q 14.9375 54.109375 19.578125 55.046875 
Q 24.21875 56 28.609375 56 
Q 40.484375 56 46.34375 49.84375 
Q 52.203125 43.703125 52.203125 31.203125 
z
" id="DejaVuSans-97"/>
      <path d="M 18.3125 70.21875 
L 18.3125 54.6875 
L 36.8125 54.6875 
L 36.8125 47.703125 
L 18.3125 47.703125 
L 18.3125 18.015625 
Q 18.3125 11.328125 20.140625 9.421875 
Q 21.96875 7.515625 27.59375 7.515625 
L 36.8125 7.515625 
L 36.8125 0 
L 27.59375 0 
Q 17.1875 0 13.234375 3.875 
Q 9.28125 7.765625 9.28125 18.015625 
L 9.28125 47.703125 
L 2.6875 47.703125 
L 2.6875 54.6875 
L 9.28125 54.6875 
L 9.28125 70.21875 
z
" id="DejaVuSans-116"/>
      <path id="DejaVuSans-32"/>
     </defs>
     <g transform="translate(445.730625 37.077188)scale(0.18 -0.18)">
      <use xlink:href="#DejaVuSans-100"/>
      <use x="63.476562" xlink:href="#DejaVuSans-97"/>
      <use x="124.755859" xlink:href="#DejaVuSans-116"/>
      <use x="163.964844" xlink:href="#DejaVuSans-97"/>
      <use x="225.244141" xlink:href="#DejaVuSans-32"/>
      <use x="257.03125" xlink:href="#DejaVuSans-32"/>
      <use x="288.818359" xlink:href="#DejaVuSans-32"/>
      <use x="320.605469" xlink:href="#DejaVuSans-32"/>
      <use x="352.392578" xlink:href="#DejaVuSans-32"/>
      <use x="384.179688" xlink:href="#DejaVuSans-32"/>
      <use x="415.966797" xlink:href="#DejaVuSans-32"/>
      <use x="447.753906" xlink:href="#DejaVuSans-32"/>
      <use x="479.541016" xlink:href="#DejaVuSans-32"/>
      <use x="511.328125" xlink:href="#DejaVuSans-32"/>
      <use x="543.115234" xlink:href="#DejaVuSans-32"/>
      <use x="574.902344" xlink:href="#DejaVuSans-32"/>
      <use x="606.689453" xlink:href="#DejaVuSans-32"/>
      <use x="638.476562" xlink:href="#DejaVuSans-32"/>
      <use x="670.263672" xlink:href="#DejaVuSans-32"/>
     </g>
    </g>
   </g>
  </g>
 </g>
 <defs>
  <clipPath id="p169ebaaea4">
   <rect height="194.4" width="432" x="26.685" y="7.2"/>
  </clipPath>
 </defs>
</svg>
