<svg version="1.1" viewBox="0.0 0.0 418.3989501312336 422.9475065616798" fill="none" stroke="none" stroke-linecap="square" stroke-miterlimit="10" xmlns:xlink="http://www.w3.org/1999/xlink" xmlns="http://www.w3.org/2000/svg"><clipPath id="p.0"><path d="m0 0l418.39896 0l0 422.9475l-418.39896 0l0 -422.9475z" clip-rule="nonzero"/></clipPath><g clip-path="url(#p.0)"><path fill="#000000" fill-opacity="0.0" d="m0 0l418.39896 0l0 422.9475l-418.39896 0z" fill-rule="evenodd"/><path fill="#ff9900" d="m264.51443 202.14174l0 0c0 -17.690506 14.087158 -32.03151 31.46457 -32.03151l0 0c8.34491 0 16.348053 3.3747406 22.24881 9.381821c5.900757 6.007065 9.215759 14.154404 9.215759 22.649689l0 0c0 17.690506 -14.087158 32.031494 -31.46457 32.031494l0 0c-17.37741 0 -31.46457 -14.340988 -31.46457 -32.031494z" fill-rule="evenodd"/><path stroke="#000000" stroke-width="2.0" stroke-linejoin="round" stroke-linecap="butt" d="m264.51443 202.14174l0 0c0 -17.690506 14.087158 -32.03151 31.46457 -32.03151l0 0c8.34491 0 16.348053 3.3747406 22.24881 9.381821c5.900757 6.007065 9.215759 14.154404 9.215759 22.649689l0 0c0 17.690506 -14.087158 32.031494 -31.46457 32.031494l0 0c-17.37741 0 -31.46457 -14.340988 -31.46457 -32.031494z" fill-rule="evenodd"/><path fill="#0000ff" d="m82.750656 202.14174l0 0c0 -17.690506 14.087166 -32.03151 31.46457 -32.03151l0 0c8.344917 0 16.348053 3.3747406 22.24881 9.381821c5.9007416 6.007065 9.215759 14.154404 9.215759 22.649689l0 0c0 17.690506 -14.087173 32.031494 -31.46457 32.031494l0 0c-17.377403 0 -31.46457 -14.340988 -31.46457 -32.031494z" fill-rule="evenodd"/><path stroke="#000000" stroke-width="2.0" stroke-linejoin="round" stroke-linecap="butt" d="m82.750656 202.14174l0 0c0 -17.690506 14.087166 -32.03151 31.46457 -32.03151l0 0c8.344917 0 16.348053 3.3747406 22.24881 9.381821c5.9007416 6.007065 9.215759 14.154404 9.215759 22.649689l0 0c0 17.690506 -14.087173 32.031494 -31.46457 32.031494l0 0c-17.377403 0 -31.46457 -14.340988 -31.46457 -32.031494z" fill-rule="evenodd"/><path fill="#000000" fill-opacity="0.0" d="m145.6798 0l118.83464 0l0 86.20473l-118.83464 0z" fill-rule="evenodd"/><path stroke="#000000" stroke-width="1.0" stroke-linejoin="round" stroke-linecap="butt" d="m145.6798 0l118.83464 0l0 86.20473l-118.83464 0z" fill-rule="evenodd"/><path fill="#ff0000" d="m204.28917 31.944237l0 -17.5l2.03125 0l0 17.5l-2.03125 0z" fill-rule="nonzero"/><path fill="#ff0000" d="m204.28917 53.944237l0 -17.5l2.03125 0l0 17.5l-2.03125 0z" fill-rule="nonzero"/><path fill="#ff0000" d="m204.28917 75.94424l0 -17.5l2.03125 0l0 17.5l-2.03125 0z" fill-rule="nonzero"/><path fill="#000000" fill-opacity="0.0" d="m205.0971 86.20473l-90.89763 83.9055" fill-rule="evenodd"/><path stroke="#000000" stroke-width="1.0" stroke-linejoin="round" stroke-linecap="butt" d="m205.0971 86.20473l-86.48881 79.83583" fill-rule="evenodd"/><path fill="#000000" stroke="#000000" stroke-width="1.0" stroke-linecap="butt" d="m117.48796 164.82686l-2.2142715 4.291794l4.454941 -1.8643951z" fill-rule="evenodd"/><path fill="#000000" fill-opacity="0.0" d="m205.0971 86.20473l90.897644 83.9055" fill-rule="evenodd"/><path stroke="#000000" stroke-width="1.0" stroke-linejoin="round" stroke-linecap="butt" d="m205.0971 86.20473l86.48883 79.83583" fill-rule="evenodd"/><path fill="#000000" stroke="#000000" stroke-width="1.0" stroke-linecap="butt" d="m290.4656 167.25426l4.4549255 1.8643951l-2.214264 -4.291794z" fill-rule="evenodd"/><path fill="#000000" fill-opacity="0.0" d="m105.20036 129.19695l62.04724 -56.409447l28.18898 31.023628l-62.04724 56.40944z" fill-rule="evenodd"/><path fill="#000000" d="m130.96883 142.15205l-8.983994 -9.887405l1.3179855 -1.1982422l7.922722 8.719421l4.8557434 -4.4145355l1.061264 1.167984l-6.1737213 5.6127777zm10.395721 -13.653442l1.3852081 -0.98482513q0.69763184 1.3718796 0.45680237 2.7100296q-0.2513275 1.3265839 -1.4999542 2.4617462q-1.5723267 1.4294739 -3.3693695 1.3105164q-1.7959747 -0.14105225 -3.3826294 -1.8872375q-1.6496887 -1.8155823 -1.6284332 -3.6509705q0.032806396 -1.8459015 1.5126495 -3.1912842q1.433609 -1.3033447 3.228531 -1.1402283q1.79599 0.14104462 3.4036407 1.9103699q0.10507202 0.11563873 0.29421997 0.32379913l-5.341324 4.855995q1.1411438 1.1164856 2.3202515 1.2059479q1.1685944 0.07791138 2.0588074 -0.73143005q0.67056274 -0.60961914 0.8293457 -1.387497q0.14828491 -0.7894287 -0.26774597 -1.8049316zm-5.774948 1.6603241l4.0002136 -3.6367493q-0.90052795 -0.8284302 -1.6918335 -0.93257904q-1.2190399 -0.17987823 -2.1439362 0.66098785q-0.8324127 0.7567749 -0.8956146 1.8489685q-0.06213379 1.0701141 0.73117065 2.059372zm10.930222 -2.1448822l-5.653076 -6.22155l-1.0751953 0.9775009l-0.85112 -0.9366989l1.0751953 -0.97750854l-0.6934967 -0.763237q-0.651474 -0.71698 -0.8500366 -1.1910858q-0.25738525 -0.6317978 -0.08074951 -1.3203125q0.17663574 -0.6885147 0.97436523 -1.413765q0.5086975 -0.462471 1.2380829 -0.91441345l0.781723 1.2320786q-0.43301392 0.26696014 -0.76828 0.57177734q-0.5549469 0.5045166 -0.565506 0.95758057q-0.021087646 0.4414978 0.56733704 1.0890961l0.598938 0.6591644l1.3989258 -1.2718124l0.85110474 0.93670654l-1.3989105 1.2718048l5.653076 6.22155l-1.2023773 1.0931244zm5.2060394 -6.71801l1.1506348 0.91781616q-0.4141388 0.5665512 -0.8187866 0.934433q-0.6589813 0.59911346 -1.2180786 0.72730255q-0.5475464 0.11767578 -1.0025635 -0.08104706q-0.46551514 -0.21028137 -1.4532318 -1.2973175l-3.7512054 -4.1284256l-0.8902283 0.8093262l-0.85112 -0.9366989l0.8902283 -0.8093338l-1.607666 -1.7693253l0.5404053 -1.8216705l2.269638 2.4978714l1.2254944 -1.1141434l0.85112 0.93670654l-1.2255096 1.1141434l3.8142548 4.1978073q0.4623413 0.5088272 0.6567383 0.6066055q0.2059784 0.087272644 0.42877197 0.05365753q0.22384644 -0.05568695 0.50131226 -0.30795288q0.19654846 -0.17868042 0.48979187 -0.52975464z" fill-rule="nonzero"/><path fill="#000000" fill-opacity="0.0" d="m261.02502 83.69569l59.275604 59.30709l-29.637817 29.637787l-59.27559 -59.307083z" fill-rule="evenodd"/><path fill="#000000" d="m249.39027 110.13549l9.446487 -9.446503l4.18631 4.188507q1.2591858 1.2598724 1.6567688 2.1660233q0.40859985 0.9172058 0.14334106 1.9558716q-0.24316406 1.0386658 -1.0276184 1.8231125q-0.99435425 0.9943695 -2.3421326 1.0383911q-1.3367004 0.032974243 -2.8831177 -1.1385345q0.2539673 0.74038696 0.28704834 1.2376404q0.044067383 1.0387115 -0.22122192 2.2762756l-0.92852783 4.220978l-1.5684814 -1.5693054l0.71850586 -3.2154617q0.2984314 -1.4033127 0.38693237 -2.1988983q0.09951782 -0.8066406 -0.010894775 -1.270752q-0.08831787 -0.46411133 -0.3092041 -0.8177414q-0.15463257 -0.26522064 -0.640625 -0.75148773l-1.4469757 -1.4477463l-4.1984406 4.198448l-1.2481537 -1.2488174zm6.5182953 -4.0213394l2.684082 2.6855087q0.86157227 0.8620148 1.5133057 1.1604538q0.6738281 0.29843903 1.3145752 0.16592407q0.6407471 -0.13251495 1.09375 -0.5855026q0.6739502 -0.67396545 0.61883545 -1.5911179q-0.055114746 -0.91716003 -1.1154785 -1.9781036l-2.9823303 -2.983902l-3.1267395 3.1267395zm10.949921 5.275276l1.3368835 -1.3368683l1.15979 1.1604004l-1.3368835 1.3368759l-1.15979 -1.160408zm-8.109619 8.109634l6.8390503 -6.8390503l1.15979 1.160408l-6.8390503 6.8390427l-1.15979 -1.1604004zm2.1456604 3.2740555l0.960907 1.2929764q-0.45300293 0.6076889 -0.36468506 1.160202q0.11035156 0.75141907 0.8614502 1.5029144q0.80633545 0.8067627 1.5575256 0.9173584q0.76223755 0.121650696 1.491394 -0.2981491q0.44192505 -0.26514435 1.5688782 -1.4141922q-1.6460266 0.14343262 -2.783722 -0.99487305q-1.4138489 -1.4145889 -1.1705627 -3.2046585q0.24325562 -1.7900696 1.6685181 -3.215332q0.9833374 -0.98332214 2.1654358 -1.458313q1.1931458 -0.46394348 2.297821 -0.24279785q1.12677 0.22115326 2.0435486 1.1384277q1.2039795 1.2046127 1.0159302 2.9615326l0.81759644 -0.8175888l1.0714417 1.071991l-5.91098 5.9109726q-1.6020508 1.6020355 -2.5963135 1.9334106q-0.98324585 0.3424225 -2.0768738 0.021820068q-1.08255 -0.3095398 -2.1208496 -1.348381q-1.2150269 -1.2156601 -1.4247437 -2.5306396q-0.2097168 -1.2928848 0.9282837 -2.3866806zm5.0710144 -3.1485825q-1.3479004 1.3479233 -1.4364319 2.497116q-0.07748413 1.1602402 0.7288208 1.9669952q0.7952881 0.7957077 1.9442139 0.72956085q1.1599426 -0.077194214 2.4747314 -1.3919754q1.2595215 -1.2595291 1.3259583 -2.4529266q0.088531494 -1.1933899 -0.6957092 -1.9780426q-0.77319336 -0.77360535 -1.9441833 -0.68535614q-1.1599426 0.077194214 -2.3974 1.3146286zm3.0481567 10.144829l9.446503 -9.44651l1.15979 1.160408l-3.3919067 3.391899q1.7454529 -0.13237 2.9825745 1.1054001q0.762146 0.76255035 1.0161133 1.6134338q0.26501465 0.8619385 -0.02230835 1.6354065q-0.287323 0.77345276 -1.2927551 1.7788696l-4.331024 4.3310394l-1.15979 -1.1604156l4.331024 -4.331024q0.87283325 -0.87283325 0.89505005 -1.6463318q0.02218628 -0.77349854 -0.67367554 -1.4697418q-0.5081177 -0.50836945 -1.2371826 -0.6852646q-0.7180481 -0.18795013 -1.3698425 0.06611633q-0.6407776 0.26511383 -1.4473267 1.0716629l-3.745453 3.745453l-1.15979 -1.1604004zm10.9028015 8.830902l-0.8618164 1.1932983q-0.5854492 -0.38684082 -0.9720459 -0.77363586q-0.62960815 -0.6299286 -0.7841797 -1.1824493q-0.14355469 -0.5414734 0.03326416 -1.0055542q0.18786621 -0.47512817 1.2264404 -1.5136871l3.9443054 -3.944336l-0.8504944 -0.85095215l0.894928 -0.89494324l0.8504944 0.8509674l1.6904297 -1.6904297l1.8448181 0.4533081l-2.3865051 2.3864746l1.1708374 1.171463l-0.894928 0.894928l-1.1708374 -1.171463l-4.01062 4.0106354q-0.4861145 0.48612976 -0.5745239 0.6850128q-0.07736206 0.20994568 -0.033203125 0.43095398q0.06625366 0.2210083 0.33135986 0.48623657q0.18777466 0.18788147 0.5522766 0.46417236z" fill-rule="nonzero"/></g></svg>