<svg version="1.1" viewBox="0.0 0.0 410.1417322834646 410.1417322834646" fill="none" stroke="none" stroke-linecap="square" stroke-miterlimit="10" xmlns:xlink="http://www.w3.org/1999/xlink" xmlns="http://www.w3.org/2000/svg"><clipPath id="p.0"><path d="m0 0l410.14172 0l0 410.14172l-410.14172 0l0 -410.14172z" clip-rule="nonzero"/></clipPath><g clip-path="url(#p.0)"><path fill="#000000" fill-opacity="0.0" d="m0 0l410.14172 0l0 410.14172l-410.14172 0z" fill-rule="evenodd"/><path fill="#000000" fill-opacity="0.0" d="m145.6798 0l118.83464 0l0 86.20473l-118.83464 0z" fill-rule="evenodd"/><path stroke="#000000" stroke-width="1.0" stroke-linejoin="round" stroke-linecap="butt" d="m145.6798 0l118.83464 0l0 86.20473l-118.83464 0z" fill-rule="evenodd"/><path fill="#000000" fill-opacity="0.0" d="m205.0971 86.20473l-90.89763 83.9055" fill-rule="evenodd"/><path stroke="#000000" stroke-width="1.0" stroke-linejoin="round" stroke-linecap="butt" d="m205.0971 86.20473l-86.48881 79.83583" fill-rule="evenodd"/><path fill="#000000" stroke="#000000" stroke-width="1.0" stroke-linecap="butt" d="m117.48796 164.82686l-2.2142715 4.291794l4.454941 -1.8643951z" fill-rule="evenodd"/><path fill="#000000" fill-opacity="0.0" d="m205.0971 86.20473l90.897644 83.9055" fill-rule="evenodd"/><path stroke="#000000" stroke-width="1.0" stroke-linejoin="round" stroke-linecap="butt" d="m205.0971 86.20473l86.48883 79.83583" fill-rule="evenodd"/><path fill="#000000" stroke="#000000" stroke-width="1.0" stroke-linecap="butt" d="m290.4656 167.25426l4.4549255 1.8643951l-2.214264 -4.291794z" fill-rule="evenodd"/><path fill="#000000" fill-opacity="0.0" d="m105.20036 129.19695l62.04724 -56.409447l28.18898 31.023628l-62.04724 56.40944z" fill-rule="evenodd"/><path fill="#000000" d="m130.96883 142.15205l-8.983994 -9.887405l1.3179855 -1.1982422l7.922722 8.719421l4.8557434 -4.4145355l1.061264 1.167984l-6.1737213 5.6127777zm10.395721 -13.653442l1.3852081 -0.98482513q0.69763184 1.3718796 0.45680237 2.7100296q-0.2513275 1.3265839 -1.4999542 2.4617462q-1.5723267 1.4294739 -3.3693695 1.3105164q-1.7959747 -0.14105225 -3.3826294 -1.8872375q-1.6496887 -1.8155823 -1.6284332 -3.6509705q0.032806396 -1.8459015 1.5126495 -3.1912842q1.433609 -1.3033447 3.228531 -1.1402283q1.79599 0.14104462 3.4036407 1.9103699q0.10507202 0.11563873 0.29421997 0.32379913l-5.341324 4.855995q1.1411438 1.1164856 2.3202515 1.2059479q1.1685944 0.07791138 2.0588074 -0.73143005q0.67056274 -0.60961914 0.8293457 -1.387497q0.14828491 -0.7894287 -0.26774597 -1.8049316zm-5.774948 1.6603241l4.0002136 -3.6367493q-0.90052795 -0.8284302 -1.6918335 -0.93257904q-1.2190399 -0.17987823 -2.1439362 0.66098785q-0.8324127 0.7567749 -0.8956146 1.8489685q-0.06213379 1.0701141 0.73117065 2.059372zm10.930222 -2.1448822l-5.653076 -6.22155l-1.0751953 0.9775009l-0.85112 -0.9366989l1.0751953 -0.97750854l-0.6934967 -0.763237q-0.651474 -0.71698 -0.8500366 -1.1910858q-0.25738525 -0.6317978 -0.08074951 -1.3203125q0.17663574 -0.6885147 0.97436523 -1.413765q0.5086975 -0.462471 1.2380829 -0.91441345l0.781723 1.2320786q-0.43301392 0.26696014 -0.76828 0.57177734q-0.5549469 0.5045166 -0.565506 0.95758057q-0.021087646 0.4414978 0.56733704 1.0890961l0.598938 0.6591644l1.3989258 -1.2718124l0.85110474 0.93670654l-1.3989105 1.2718048l5.653076 6.22155l-1.2023773 1.0931244zm5.2060394 -6.71801l1.1506348 0.91781616q-0.4141388 0.5665512 -0.8187866 0.934433q-0.6589813 0.59911346 -1.2180786 0.72730255q-0.5475464 0.11767578 -1.0025635 -0.08104706q-0.46551514 -0.21028137 -1.4532318 -1.2973175l-3.7512054 -4.1284256l-0.8902283 0.8093262l-0.85112 -0.9366989l0.8902283 -0.8093338l-1.607666 -1.7693253l0.5404053 -1.8216705l2.269638 2.4978714l1.2254944 -1.1141434l0.85112 0.93670654l-1.2255096 1.1141434l3.8142548 4.1978073q0.4623413 0.5088272 0.6567383 0.6066055q0.2059784 0.087272644 0.42877197 0.05365753q0.22384644 -0.05568695 0.50131226 -0.30795288q0.19654846 -0.17868042 0.48979187 -0.52975464z" fill-rule="nonzero"/><path fill="#000000" fill-opacity="0.0" d="m261.03668 83.692055l59.24411 59.30709l-29.637787 29.637787l-59.24411 -59.307083z" fill-rule="evenodd"/><path fill="#000000" d="m249.39996 110.13383l9.446503 -9.446503l4.1851807 4.189621q1.2588501 1.2602005 1.65625 2.1665268q0.40844727 0.9173813 0.14309692 1.9561539q-0.24328613 1.0387726 -1.0277405 1.8232193q-0.99435425 0.9943695 -2.3419495 1.0382156q-1.3365173 0.032798767 -2.8825989 -1.1390686q0.2538452 0.74051666 0.28686523 1.2378464q0.043914795 1.0388489 -0.2215271 2.2765427l-0.9289551 4.2214203l-1.5680542 -1.569725l0.71881104 -3.2157898q0.2986145 -1.4034576 0.38720703 -2.1991425q0.099609375 -0.8067322 -0.01071167 -1.2709198q-0.088256836 -0.46418762 -0.30908203 -0.817894q-0.15454102 -0.26527405 -0.6404419 -0.75167084l-1.446579 -1.4481277l-4.198456 4.198448l-1.247818 -1.2491531zm6.517975 -4.0210037l2.6833801 2.6862183q0.8613281 0.86224365 1.5129395 1.1608124q0.67370605 0.29856873 1.3143921 0.16612244q0.6406555 -0.13245392 1.0936584 -0.5854416q0.6739502 -0.6739578 0.61898804 -1.5912476q-0.054992676 -0.91728973 -1.1150818 -1.978508l-2.9815369 -2.9846954l-3.1267395 3.1267395zm10.947754 5.2774277l1.3368835 -1.3368683l1.1594849 1.1607132l-1.3368835 1.3368683l-1.1594849 -1.1607132zm-8.109619 8.109634l6.8390503 -6.8390503l1.1594849 1.1607132l-6.8390503 6.8390503l-1.1594849 -1.1607132zm2.1449585 3.2747726l0.9606018 1.2932816q-0.45303345 0.6077118 -0.36480713 1.1603088q0.11026001 0.7515259 0.86117554 1.5032272q0.8060913 0.8069763 1.5571594 0.91768646q0.7621155 0.121772766 1.4912415 -0.2979889q0.44189453 -0.26512146 1.5688477 -1.414177q-1.645813 0.14323425 -2.7832031 -0.99536896q-1.4134827 -1.4149704 -1.1699829 -3.2052383q0.24346924 -1.7902756 1.6687317 -3.215538q0.9833069 -0.98332214 2.1653137 -1.4582214q1.1930542 -0.4638443 2.2975464 -0.2425232q1.1266174 0.22132874 2.0431519 1.1388474q1.2036438 1.2049255 1.0154114 2.9620667l0.81759644 -0.81759644l1.0711365 1.0722809l-5.91098 5.9109726q-1.6020508 1.6020432 -2.596222 1.9333115q-0.9831543 0.3423462 -2.0765991 0.021560669q-1.082367 -0.30973816 -2.1203918 -1.3488464q-1.2146912 -1.2159882 -1.4241943 -2.531166q-0.20953369 -1.2930832 0.9284668 -2.386879zm5.0707703 -3.148323q-1.3479309 1.3479233 -1.436615 2.4972534q-0.0776062 1.1603851 0.7284851 1.9673615q0.79507446 0.7959137 1.9438477 0.7299118q1.1598206 -0.077056885 2.4745789 -1.3918304q1.259552 -1.2595367 1.3261414 -2.4530792q0.08868408 -1.1935349 -0.69537354 -1.9783936q-0.77297974 -0.77381134 -1.9438171 -0.6857147q-1.1598206 0.077056885 -2.3972473 1.3144913zm3.0463867 10.146584l9.446503 -9.44651l1.1594849 1.1607132l-3.3919067 3.391899q1.7452393 -0.13215637 2.9820251 1.1059418q0.7619324 0.76275635 1.0157776 1.6137848q0.26486206 0.86208344 -0.02255249 1.6356125q-0.28738403 0.77352905 -1.2927856 1.7789459l-4.3310547 4.331024l-1.1594543 -1.1607056l4.331024 -4.3310394q0.87283325 -0.87283325 0.8951416 -1.6464233q0.022277832 -0.7735977 -0.6734009 -1.4700241q-0.5079651 -0.5085068 -1.2369385 -0.685524q-0.7178955 -0.18806458 -1.3696594 0.06594849q-0.64071655 0.26506042 -1.4472656 1.0716095l-3.745453 3.745453l-1.1594849 -1.1607056zm10.900177 8.833527l-0.86187744 1.1933289q-0.58532715 -0.38694763 -0.97180176 -0.77386475q-0.62942505 -0.63009644 -0.78393555 -1.1827087q-0.14343262 -0.54156494 0.033416748 -1.0056763q0.18789673 -0.4751587 1.226471 -1.5137329l3.9443054 -3.9443207l-0.85028076 -0.8511963l0.894928 -0.894928l0.8503113 0.85118103l1.6903992 -1.6904144l1.8445129 0.45359802l-2.3864746 2.3864746l1.1705017 1.1717682l-0.894928 0.89494324l-1.1705322 -1.1717682l-4.01062 4.01062q-0.4861145 0.48612976 -0.57455444 0.68504333q-0.07736206 0.20994568 -0.033233643 0.4309845q0.066223145 0.22105408 0.3312378 0.48635864q0.18771362 0.18792725 0.55215454 0.4643097z" fill-rule="nonzero"/><path fill="#000000" fill-opacity="0.0" d="m220.23885 14.456693l0 57.29134" fill-rule="evenodd"/><path stroke="#ff0000" stroke-width="3.0" stroke-linejoin="round" stroke-linecap="butt" stroke-dasharray="12.0,9.0" d="m220.23885 14.456693l0 57.29134" fill-rule="evenodd"/><path fill="#9fc5e8" d="m270.53806 202.14174l0 0c0 -17.690506 14.087158 -32.03151 31.46457 -32.03151l0 0c8.34491 0 16.348053 3.3747406 22.24881 9.381821c5.900757 6.007065 9.215759 14.154404 9.215759 22.649689l0 0c0 17.690506 -14.087158 32.031494 -31.46457 32.031494l0 0c-17.37741 0 -31.46457 -14.340988 -31.46457 -32.031494z" fill-rule="evenodd"/><path stroke="#000000" stroke-width="2.0" stroke-linejoin="round" stroke-linecap="butt" d="m270.53806 202.14174l0 0c0 -17.690506 14.087158 -32.03151 31.46457 -32.03151l0 0c8.34491 0 16.348053 3.3747406 22.24881 9.381821c5.900757 6.007065 9.215759 14.154404 9.215759 22.649689l0 0c0 17.690506 -14.087158 32.031494 -31.46457 32.031494l0 0c-17.37741 0 -31.46457 -14.340988 -31.46457 -32.031494z" fill-rule="evenodd"/><path fill="#0b5394" d="m77.53543 202.14174l0 0c0 -17.690506 14.087166 -32.03151 31.46457 -32.03151l0 0c8.344925 0 16.34806 3.3747406 22.24881 9.381821c5.900757 6.007065 9.215759 14.154404 9.215759 22.649689l0 0c0 17.690506 -14.087166 32.031494 -31.46457 32.031494l0 0c-17.377403 0 -31.46457 -14.340988 -31.46457 -32.031494z" fill-rule="evenodd"/><path stroke="#000000" stroke-width="2.0" stroke-linejoin="round" stroke-linecap="butt" d="m77.53543 202.14174l0 0c0 -17.690506 14.087166 -32.03151 31.46457 -32.03151l0 0c8.344925 0 16.34806 3.3747406 22.24881 9.381821c5.900757 6.007065 9.215759 14.154404 9.215759 22.649689l0 0c0 17.690506 -14.087166 32.031494 -31.46457 32.031494l0 0c-17.377403 0 -31.46457 -14.340988 -31.46457 -32.031494z" fill-rule="evenodd"/></g></svg>