<svg version="1.1" viewBox="0.0 0.0 410.1417322834646 410.1417322834646" fill="none" stroke="none" stroke-linecap="square" stroke-miterlimit="10" xmlns:xlink="http://www.w3.org/1999/xlink" xmlns="http://www.w3.org/2000/svg"><clipPath id="p.0"><path d="m0 0l410.14172 0l0 410.14172l-410.14172 0l0 -410.14172z" clip-rule="nonzero"/></clipPath><g clip-path="url(#p.0)"><path fill="#000000" fill-opacity="0.0" d="m0 0l410.14172 0l0 410.14172l-410.14172 0z" fill-rule="evenodd"/><path fill="#ff9900" d="m268.35434 202.14174l0 0c0 -17.690506 14.087158 -32.03151 31.46457 -32.03151l0 0c8.34491 0 16.348053 3.3747406 22.24881 9.381821c5.9007263 6.007065 9.215759 14.154404 9.215759 22.649689l0 0c0 17.690506 -14.087189 32.031494 -31.46457 32.031494l0 0c-17.37741 0 -31.46457 -14.340988 -31.46457 -32.031494z" fill-rule="evenodd"/><path stroke="#000000" stroke-width="2.0" stroke-linejoin="round" stroke-linecap="butt" d="m268.35434 202.14174l0 0c0 -17.690506 14.087158 -32.03151 31.46457 -32.03151l0 0c8.34491 0 16.348053 3.3747406 22.24881 9.381821c5.9007263 6.007065 9.215759 14.154404 9.215759 22.649689l0 0c0 17.690506 -14.087189 32.031494 -31.46457 32.031494l0 0c-17.37741 0 -31.46457 -14.340988 -31.46457 -32.031494z" fill-rule="evenodd"/><path fill="#ff9900" d="m114.19948 372.25198l0 0c0 -17.690521 14.087158 -32.031525 31.46457 -32.031525l0 0c8.34491 0 16.348053 3.3747559 22.24881 9.381836c5.9007416 6.0070496 9.215759 14.154388 9.215759 22.649689l0 0c0 17.69049 -14.087173 32.031494 -31.46457 32.031494l0 0c-17.37741 0 -31.46457 -14.341003 -31.46457 -32.031494z" fill-rule="evenodd"/><path stroke="#000000" stroke-width="2.0" stroke-linejoin="round" stroke-linecap="butt" d="m114.19948 372.25198l0 0c0 -17.690521 14.087158 -32.031525 31.46457 -32.031525l0 0c8.34491 0 16.348053 3.3747559 22.24881 9.381836c5.9007416 6.0070496 9.215759 14.154388 9.215759 22.649689l0 0c0 17.69049 -14.087173 32.031494 -31.46457 32.031494l0 0c-17.37741 0 -31.46457 -14.341003 -31.46457 -32.031494z" fill-rule="evenodd"/><path fill="#0000ff" d="m0 372.25198l0 0c0 -17.690521 14.087167 -32.031525 31.464567 -32.031525l0 0c8.344923 0 16.348059 3.3747559 22.248808 9.381836c5.900753 6.0070496 9.215759 14.154388 9.215759 22.649689l0 0c0 17.69049 -14.087166 32.031494 -31.464567 32.031494l0 0c-17.3774 0 -31.464567 -14.341003 -31.464567 -32.031494z" fill-rule="evenodd"/><path stroke="#000000" stroke-width="2.0" stroke-linejoin="round" stroke-linecap="butt" d="m0 372.25198l0 0c0 -17.690521 14.087167 -32.031525 31.464567 -32.031525l0 0c8.344923 0 16.348059 3.3747559 22.248808 9.381836c5.900753 6.0070496 9.215759 14.154388 9.215759 22.649689l0 0c0 17.69049 -14.087166 32.031494 -31.464567 32.031494l0 0c-17.3774 0 -31.464567 -14.341003 -31.464567 -32.031494z" fill-rule="evenodd"/><path fill="#000000" fill-opacity="0.0" d="m46.33858 170.11023l118.834656 0l0 86.20474l-118.834656 0z" fill-rule="evenodd"/><path stroke="#000000" stroke-width="1.0" stroke-linejoin="round" stroke-linecap="butt" d="m46.33858 170.11023l118.834656 0l0 86.20474l-118.834656 0z" fill-rule="evenodd"/><path fill="#ff0000" d="m56.385456 216.5701l0 -2.5625l5.03125 0l0 2.5625l-5.03125 0zm6.212677 0l0 -2.5625l5.031254 0l0 2.5625l-5.031254 0zm6.212681 0l0 -2.5625l5.03125 0l0 2.5625l-5.03125 0zm6.212677 0l0 -2.5625l5.03125 0l0 2.5625l-5.03125 0zm6.212677 0l0 -2.5625l5.03125 0l0 2.5625l-5.03125 0zm6.212677 0l0 -2.5625l5.03125 0l0 2.5625l-5.03125 0zm6.212677 0l0 -2.5625l5.03125 0l0 2.5625l-5.03125 0zm6.212677 0l0 -2.5625l5.03125 0l0 2.5625l-5.03125 0zm6.212677 0l0 -2.5625l5.03125 0l0 2.5625l-5.03125 0zm6.212677 0l0 -2.5625l5.03125 0l0 2.5625l-5.03125 0zm6.212677 0l0 -2.5625l5.03125 0l0 2.5625l-5.03125 0zm6.212677 0l0 -2.5625l5.0312424 0l0 2.5625l-5.0312424 0zm6.2126694 0l0 -2.5625l5.03125 0l0 2.5625l-5.03125 0zm6.212677 0l0 -2.5625l5.03125 0l0 2.5625l-5.03125 0zm6.212677 0l0 -2.5625l5.03125 0l0 2.5625l-5.03125 0zm6.212677 0l0 -2.5625l5.03125 0l0 2.5625l-5.03125 0z" fill-rule="nonzero"/><path fill="#000000" fill-opacity="0.0" d="m105.755905 256.31497l-74.29921 83.90549" fill-rule="evenodd"/><path stroke="#000000" stroke-width="1.0" stroke-linejoin="round" stroke-linecap="butt" d="m105.755905 256.31497l-70.32152 79.41351" fill-rule="evenodd"/><path fill="#000000" stroke="#000000" stroke-width="1.0" stroke-linecap="butt" d="m34.1978 334.63348l-1.7719383 4.492523l4.245121 -2.3024902z" fill-rule="evenodd"/><path fill="#000000" fill-opacity="0.0" d="m105.755905 256.31497l39.905518 83.90549" fill-rule="evenodd"/><path stroke="#000000" stroke-width="1.0" stroke-linejoin="round" stroke-linecap="butt" d="m105.755905 256.31497l37.32852 78.48709" fill-rule="evenodd"/><path fill="#000000" stroke="#000000" stroke-width="1.0" stroke-linecap="butt" d="m141.59279 335.51147l3.4407501 3.388794l-0.457489 -4.807617z" fill-rule="evenodd"/><path fill="#000000" fill-opacity="0.0" d="m145.6798 0l118.83464 0l0 86.20473l-118.83464 0z" fill-rule="evenodd"/><path stroke="#000000" stroke-width="1.0" stroke-linejoin="round" stroke-linecap="butt" d="m145.6798 0l118.83464 0l0 86.20473l-118.83464 0z" fill-rule="evenodd"/><path fill="#ff0000" d="m204.28917 31.944237l0 -17.5l2.03125 0l0 17.5l-2.03125 0z" fill-rule="nonzero"/><path fill="#ff0000" d="m204.28917 53.944237l0 -17.5l2.03125 0l0 17.5l-2.03125 0z" fill-rule="nonzero"/><path fill="#ff0000" d="m204.28917 75.94424l0 -17.5l2.03125 0l0 17.5l-2.03125 0z" fill-rule="nonzero"/><path fill="#000000" fill-opacity="0.0" d="m205.0971 86.20473l-90.89763 83.9055" fill-rule="evenodd"/><path stroke="#000000" stroke-width="1.0" stroke-linejoin="round" stroke-linecap="butt" d="m205.0971 86.20473l-86.48881 79.83583" fill-rule="evenodd"/><path fill="#000000" stroke="#000000" stroke-width="1.0" stroke-linecap="butt" d="m117.48796 164.82686l-2.2142715 4.291794l4.454941 -1.8643951z" fill-rule="evenodd"/><path fill="#000000" fill-opacity="0.0" d="m205.0971 86.20473l90.897644 83.9055" fill-rule="evenodd"/><path stroke="#000000" stroke-width="1.0" stroke-linejoin="round" stroke-linecap="butt" d="m205.0971 86.20473l86.48883 79.83583" fill-rule="evenodd"/><path fill="#000000" stroke="#000000" stroke-width="1.0" stroke-linecap="butt" d="m290.4656 167.25426l4.4549255 1.8643951l-2.214264 -4.291794z" fill-rule="evenodd"/><path fill="#000000" fill-opacity="0.0" d="m105.20036 129.19695l62.04724 -56.409447l28.18898 31.023628l-62.04724 56.40944z" fill-rule="evenodd"/><path fill="#000000" d="m130.96883 142.15205l-8.983994 -9.887405l1.3179855 -1.1982422l7.922722 8.719421l4.8557434 -4.4145355l1.061264 1.167984l-6.1737213 5.6127777zm10.395721 -13.653442l1.3852081 -0.98482513q0.69763184 1.3718796 0.45680237 2.7100296q-0.2513275 1.3265839 -1.4999542 2.4617462q-1.5723267 1.4294739 -3.3693695 1.3105164q-1.7959747 -0.14105225 -3.3826294 -1.8872375q-1.6496887 -1.8155823 -1.6284332 -3.6509705q0.032806396 -1.8459015 1.5126495 -3.1912842q1.433609 -1.3033447 3.228531 -1.1402283q1.79599 0.14104462 3.4036407 1.9103699q0.10507202 0.11563873 0.29421997 0.32379913l-5.341324 4.855995q1.1411438 1.1164856 2.3202515 1.2059479q1.1685944 0.07791138 2.0588074 -0.73143005q0.67056274 -0.60961914 0.8293457 -1.387497q0.14828491 -0.7894287 -0.26774597 -1.8049316zm-5.774948 1.6603241l4.0002136 -3.6367493q-0.90052795 -0.8284302 -1.6918335 -0.93257904q-1.2190399 -0.17987823 -2.1439362 0.66098785q-0.8324127 0.7567749 -0.8956146 1.8489685q-0.06213379 1.0701141 0.73117065 2.059372zm10.930222 -2.1448822l-5.653076 -6.22155l-1.0751953 0.9775009l-0.85112 -0.9366989l1.0751953 -0.97750854l-0.6934967 -0.763237q-0.651474 -0.71698 -0.8500366 -1.1910858q-0.25738525 -0.6317978 -0.08074951 -1.3203125q0.17663574 -0.6885147 0.97436523 -1.413765q0.5086975 -0.462471 1.2380829 -0.91441345l0.781723 1.2320786q-0.43301392 0.26696014 -0.76828 0.57177734q-0.5549469 0.5045166 -0.565506 0.95758057q-0.021087646 0.4414978 0.56733704 1.0890961l0.598938 0.6591644l1.3989258 -1.2718124l0.85110474 0.93670654l-1.3989105 1.2718048l5.653076 6.22155l-1.2023773 1.0931244zm5.2060394 -6.71801l1.1506348 0.91781616q-0.4141388 0.5665512 -0.8187866 0.934433q-0.6589813 0.59911346 -1.2180786 0.72730255q-0.5475464 0.11767578 -1.0025635 -0.08104706q-0.46551514 -0.21028137 -1.4532318 -1.2973175l-3.7512054 -4.1284256l-0.8902283 0.8093262l-0.85112 -0.9366989l0.8902283 -0.8093338l-1.607666 -1.7693253l0.5404053 -1.8216705l2.269638 2.4978714l1.2254944 -1.1141434l0.85112 0.93670654l-1.2255096 1.1141434l3.8142548 4.1978073q0.4623413 0.5088272 0.6567383 0.6066055q0.2059784 0.087272644 0.42877197 0.05365753q0.22384644 -0.05568695 0.50131226 -0.30795288q0.19654846 -0.17868042 0.48979187 -0.52975464z" fill-rule="nonzero"/><path fill="#000000" fill-opacity="0.0" d="m261.02502 83.69569l59.275604 59.30709l-29.637817 29.637787l-59.27559 -59.307083z" fill-rule="evenodd"/><path fill="#000000" d="m249.39027 110.13549l9.446487 -9.446503l4.18631 4.188507q1.2591858 1.2598724 1.6567688 2.1660233q0.40859985 0.9172058 0.14334106 1.9558716q-0.24316406 1.0386658 -1.0276184 1.8231125q-0.99435425 0.9943695 -2.3421326 1.0383911q-1.3367004 0.032974243 -2.8831177 -1.1385345q0.2539673 0.74038696 0.28704834 1.2376404q0.044067383 1.0387115 -0.22122192 2.2762756l-0.92852783 4.220978l-1.5684814 -1.5693054l0.71850586 -3.2154617q0.2984314 -1.4033127 0.38693237 -2.1988983q0.09951782 -0.8066406 -0.010894775 -1.270752q-0.08831787 -0.46411133 -0.3092041 -0.8177414q-0.15463257 -0.26522064 -0.640625 -0.75148773l-1.4469757 -1.4477463l-4.1984406 4.198448l-1.2481537 -1.2488174zm6.5182953 -4.0213394l2.684082 2.6855087q0.86157227 0.8620148 1.5133057 1.1604538q0.6738281 0.29843903 1.3145752 0.16592407q0.6407471 -0.13251495 1.09375 -0.5855026q0.6739502 -0.67396545 0.61883545 -1.5911179q-0.055114746 -0.91716003 -1.1154785 -1.9781036l-2.9823303 -2.983902l-3.1267395 3.1267395zm10.949921 5.275276l1.3368835 -1.3368683l1.15979 1.1604004l-1.3368835 1.3368759l-1.15979 -1.160408zm-8.109619 8.109634l6.8390503 -6.8390503l1.15979 1.160408l-6.8390503 6.8390427l-1.15979 -1.1604004zm2.1456604 3.2740555l0.960907 1.2929764q-0.45300293 0.6076889 -0.36468506 1.160202q0.11035156 0.75141907 0.8614502 1.5029144q0.80633545 0.8067627 1.5575256 0.9173584q0.76223755 0.121650696 1.491394 -0.2981491q0.44192505 -0.26514435 1.5688782 -1.4141922q-1.6460266 0.14343262 -2.783722 -0.99487305q-1.4138489 -1.4145889 -1.1705627 -3.2046585q0.24325562 -1.7900696 1.6685181 -3.215332q0.9833374 -0.98332214 2.1654358 -1.458313q1.1931458 -0.46394348 2.297821 -0.24279785q1.12677 0.22115326 2.0435486 1.1384277q1.2039795 1.2046127 1.0159302 2.9615326l0.81759644 -0.8175888l1.0714417 1.071991l-5.91098 5.9109726q-1.6020508 1.6020355 -2.5963135 1.9334106q-0.98324585 0.3424225 -2.0768738 0.021820068q-1.08255 -0.3095398 -2.1208496 -1.348381q-1.2150269 -1.2156601 -1.4247437 -2.5306396q-0.2097168 -1.2928848 0.9282837 -2.3866806zm5.0710144 -3.1485825q-1.3479004 1.3479233 -1.4364319 2.497116q-0.07748413 1.1602402 0.7288208 1.9669952q0.7952881 0.7957077 1.9442139 0.72956085q1.1599426 -0.077194214 2.4747314 -1.3919754q1.2595215 -1.2595291 1.3259583 -2.4529266q0.088531494 -1.1933899 -0.6957092 -1.9780426q-0.77319336 -0.77360535 -1.9441833 -0.68535614q-1.1599426 0.077194214 -2.3974 1.3146286zm3.0481567 10.144829l9.446503 -9.44651l1.15979 1.160408l-3.3919067 3.391899q1.7454529 -0.13237 2.9825745 1.1054001q0.762146 0.76255035 1.0161133 1.6134338q0.26501465 0.8619385 -0.02230835 1.6354065q-0.287323 0.77345276 -1.2927551 1.7788696l-4.331024 4.3310394l-1.15979 -1.1604156l4.331024 -4.331024q0.87283325 -0.87283325 0.89505005 -1.6463318q0.02218628 -0.77349854 -0.67367554 -1.4697418q-0.5081177 -0.50836945 -1.2371826 -0.6852646q-0.7180481 -0.18795013 -1.3698425 0.06611633q-0.6407776 0.26511383 -1.4473267 1.0716629l-3.745453 3.745453l-1.15979 -1.1604004zm10.9028015 8.830902l-0.8618164 1.1932983q-0.5854492 -0.38684082 -0.9720459 -0.77363586q-0.62960815 -0.6299286 -0.7841797 -1.1824493q-0.14355469 -0.5414734 0.03326416 -1.0055542q0.18786621 -0.47512817 1.2264404 -1.5136871l3.9443054 -3.944336l-0.8504944 -0.85095215l0.894928 -0.89494324l0.8504944 0.8509674l1.6904297 -1.6904297l1.8448181 0.4533081l-2.3865051 2.3864746l1.1708374 1.171463l-0.894928 0.894928l-1.1708374 -1.171463l-4.01062 4.0106354q-0.4861145 0.48612976 -0.5745239 0.6850128q-0.07736206 0.20994568 -0.033203125 0.43095398q0.06625366 0.2210083 0.33135986 0.48623657q0.18777466 0.18788147 0.5522766 0.46417236z" fill-rule="nonzero"/><path fill="#000000" fill-opacity="0.0" d="m8.198797 310.16748l59.149605 -68.976364l37.133858 31.842514l-59.149605 68.97638z" fill-rule="evenodd"/><path fill="#000000" d="m34.472633 320.8828l-6.805187 -12.586731l1.2408962 -1.447052l13.701326 4.544922l-1.3120995 1.5300598l-4.0790215 -1.4600525l-3.641323 4.246277l2.115963 3.749237l-1.2205544 1.4233398zm-1.6509895 -6.499756l2.9496727 -3.4396973l-3.726532 -1.3430481q-1.6878681 -0.62405396 -2.7097206 -1.088623q0.7997112 1.0356445 1.4655056 2.2034912l2.0210743 3.6678772zm11.551609 -5.045685l-0.9866142 1.1505127l-10.141373 -8.696289l1.0679855 -1.2454224l3.6176834 3.1022034q-0.30300903 -1.638916 0.74463654 -2.8605957q0.5797615 -0.6760864 1.3713074 -1.0470581q0.79154587 -0.37097168 1.62537 -0.33520508q0.82196426 0.025604248 1.7048607 0.4121704q0.8930664 0.37475586 1.6877708 1.0562134q1.8859406 1.617218 2.114338 3.4391174q0.23856735 1.8100586 -0.8904457 3.1266174q-1.1086693 1.2928772 -2.8406982 1.1043701l0.9251785 0.7933655zm-3.734604 -3.1818848q1.316597 1.1289978 2.2249718 1.269867q1.459156 0.24267578 2.3237152 -0.76553345q0.70181656 -0.8184204 0.49870682 -2.0217285q-0.20310974 -1.2033386 -1.6027374 -2.4035034q-1.4352112 -1.2307129 -2.6113853 -1.2513123q-1.176178 -0.020599365 -1.8779945 0.79782104q-0.6916466 0.8065491 -0.49871063 2.021759q0.20311356 1.2033081 1.5434341 2.3526306zm5.438694 -6.246216q-2.0401344 -1.7494507 -2.046482 -3.710266q-0.00472641 -1.6506958 1.1649742 -3.01474q1.3019257 -1.518219 3.1221428 -1.6245728q1.808361 -0.11654663 3.5638275 1.3887634q1.4114876 1.2103577 1.8637466 2.3391724q0.44039917 1.1186218 0.18930817 2.3235474q-0.24092102 1.1930542 -1.0647964 2.1538086q-1.3222656 1.5419312 -3.120453 1.646637q-1.810051 0.09451294 -3.672268 -1.5023499zm1.0985031 -1.2810059q1.4114876 1.2103577 2.641899 1.2156982q1.2287216 -0.016662598 2.0322533 -0.95370483q0.79336166 -0.9251709 0.6224518 -2.1420288q-0.18276596 -1.2270508 -1.6298409 -2.467926q-1.3640442 -1.1696777 -2.5927658 -1.1529846q-1.2287178 0.016693115 -2.0220795 0.9418335q-0.80353165 0.93704224 -0.6326256 2.1539001q0.16921616 1.1948547 1.5807076 2.4052124zm11.478832 -5.944977l-9.742538 -3.4966736l1.1290131 -1.3165894l5.7533073 2.1959534q0.9252701 0.36117554 1.8776474 0.7867737q-0.4489746 -0.6525879 -0.99108887 -1.6525879l-3.090084 -5.4696655l1.0984993 -1.2810059l4.9620323 9.071411l-0.996788 1.162384zm6.2750397 -12.094116l1.2526932 -1.1487732q0.8623657 1.2746582 0.7891922 2.632141q-0.0850296 1.3473206 -1.1835327 2.628296q-1.3832932 1.6131287 -3.1814804 1.717804q-1.7998772 0.08267212 -3.5909271 -1.453186q-1.862217 -1.5968628 -2.0685806 -3.4204712q-0.1961937 -1.8354492 1.105732 -3.3536682q1.2612381 -1.4707642 3.0628052 -1.5314026q1.7998772 -0.0826416 3.6146507 1.4735413q0.1186142 0.10171509 0.33211517 0.28479004l-4.6991386 5.479828q1.2708778 0.9662781 2.4521523 0.908905q1.1694145 -0.0675354 1.9526062 -0.98083496q0.5899353 -0.68795776 0.6511154 -1.4794006q0.049324036 -0.8016052 -0.48940277 -1.7575684zm-5.525509 2.3630066l3.5192642 -4.103943q-0.99637604 -0.71032715 -1.7946167 -0.7155762q-1.2321014 -0.027374268 -2.045803 0.9215088q-0.73233414 0.8540039 -0.6596985 1.9454346q0.070949554 1.069397 0.98085403 1.9525757z" fill-rule="nonzero"/><path fill="#000000" fill-opacity="0.0" d="m148.66757 256.3158l36.850388 83.055115l-44.72441 19.84253l-36.850388 -83.055115z" fill-rule="evenodd"/><path fill="#000000" d="m128.26196 276.70215l12.211502 -5.4177856l2.034134 4.5846252q0.6210022 1.3996887 0.62353516 2.407074q0.002532959 1.0074158 -0.55960083 1.8209229q-0.5558014 0.8277588 -1.398468 1.2016296q-0.78552246 0.34851074 -1.6754761 0.23052979q-0.86932373 -0.11004639 -1.6637268 -0.7832031q0.15943909 1.2454529 -0.35993958 2.1938477q-0.5193939 0.94836426 -1.576294 1.4172668q-0.85694885 0.380188 -1.764389 0.3383484q-0.88682556 -0.03387451 -1.5275421 -0.39920044q-0.6343689 -0.35101318 -1.203476 -1.0557861q-0.5548096 -0.7110901 -1.0744324 -1.8822327l-2.0658264 -4.6560364zm7.8065033 -1.5147705l1.1659851 2.6279602q0.4815979 1.0854492 0.812912 1.4854431q0.4581604 0.5317688 1.0260468 0.6558838q0.56788635 0.12411499 1.2106018 -0.16101074q0.5998535 -0.2661438 0.9238281 -0.76885986q0.34457397 -0.49475098 0.27516174 -1.1135254q-0.06941223 -0.6187439 -0.6524048 -1.9327393l-1.0772552 -2.4279785l-3.6848755 1.6348267zm-5.641571 2.5029602l1.3434143 3.0278625q0.348526 0.78552246 0.54507446 1.0743713q0.34710693 0.5126648 0.74038696 0.7826233q0.41389465 0.27789307 0.964386 0.32424927q0.5504761 0.04638672 1.1360626 -0.21340942q0.6855469 -0.3041687 1.0270233 -0.8829956q0.34779358 -0.5645752 0.2689209 -1.2817078q-0.058242798 -0.709198 -0.5778656 -1.8803406l-1.2483673 -2.8135986l-4.1990356 1.8629456zm8.360016 15.066559l0.49871826 1.6248474q-1.5215912 0.23065186 -2.715805 -0.41900635q-1.1799316 -0.65597534 -1.8643188 -2.1984558q-0.8618164 -1.9423828 -0.18331909 -3.6109314q0.69911194 -1.660553 2.855774 -2.6174011q2.24234 -0.9948425 3.9775848 -0.39718628q1.7415771 0.61190796 2.5526886 2.4400635q0.7857666 1.7709961 0.06604004 3.423645q-0.69911194 1.660553 -2.8843231 2.630066q-0.14283752 0.06335449 -0.3999176 0.1774292l-2.9276276 -6.5984497q-1.4187927 0.73202515 -1.8748016 1.8232117q-0.44174194 1.0848694 0.046203613 2.1846008q0.36753845 0.82836914 1.0558167 1.2238464q0.7025604 0.38916016 1.797287 0.3137207zm0.24180603 -6.0046387l2.1925507 4.9417114q1.0696716 -0.5942383 1.417572 -1.3126831q0.5543823 -1.100647 0.047439575 -2.243225q-0.45625305 -1.0283508 -1.4729309 -1.4319763q-0.99606323 -0.3956604 -2.1846313 0.046173096zm-1.5818787 10.651184l12.211502 -5.4177856l0.6653595 1.4996338l-12.211487 5.4177856l-0.66537476 -1.4996338zm5.8804016 1.3101501q2.4565887 -1.0899048 4.2297516 -0.25268555q1.4924316 0.7053833 2.2211761 2.3478394q0.81111145 1.828125 0.124679565 3.517273q-0.6721649 1.6828003 -2.785965 2.6206055q-1.6996155 0.75405884 -2.9132233 0.677124q-1.1993408 -0.08328247 -2.179306 -0.8279724q-0.9736481 -0.7304077 -1.4869385 -1.8872681q-0.8237915 -1.8566895 -0.14529419 -3.5252075q0.69277954 -1.6748657 2.9351196 -2.6697083zm0.6843872 1.5424805q-1.6996155 0.75405884 -2.2333832 1.8626404q-0.5131531 1.1165466 -0.012527466 2.2448425q0.4942627 1.1140442 1.6664581 1.4828491q1.1864624 0.3624878 2.9289093 -0.4105835q1.6424866 -0.72869873 2.1556396 -1.8452454q0.5131378 -1.1165161 0.018875122 -2.2305603q-0.5006256 -1.1282959 -1.6728058 -1.4971313q-1.1515503 -0.36087036 -2.8511658 0.39318848zm0.06556702 12.091156l7.6368256 -6.6359863l0.6907196 1.5567932l-4.4778137 3.6618042l-1.6651001 1.3712158q0.16183472 -0.020507812 2.0309296 -0.35403442l5.797592 -0.8798828l0.6843872 1.5424805l-4.544403 3.5888062l-1.4888916 1.1904602l1.9277344 -0.23989868l5.7848206 -0.7545471l0.6463623 1.4567871l-10.07019 1.1515808l-0.69070435 -1.5567932l4.677765 -3.7505188l1.34758 -1.0081177l-7.590561 1.2309265l-0.697052 -1.5710754z" fill-rule="nonzero"/></g></svg>